<?xml version="1.0" standalone="no"?>
<!DOCTYPE svg PUBLIC "-//W3C//DTD SVG 1.1//EN" "http://www.w3.org/Graphics/SVG/1.1/DTD/svg11.dtd" >
<svg xmlns="http://www.w3.org/2000/svg" xmlns:xlink="http://www.w3.org/1999/xlink" version="1.1">
<metadata>
Created by FontForge 20170731 at Fri Mar 25 05:31:13 2022
 By Aleksey,,,
Copyright 1991-2021 The Up Dock Project Authors (https://github.com/googlefonts/updock)
</metadata>
<defs>
<font id="Updock-Regular" horiz-adv-x="0" >
  <font-face 
    font-family="Updock"
    font-weight="400"
    font-stretch="normal"
    units-per-em="1000"
    panose-1="0 0 0 0 0 0 0 0 0 0"
    ascent="800"
    descent="-200"
    x-height="356"
    cap-height="636"
    bbox="-249 -497 1484 906"
    underline-thickness="50"
    underline-position="-175"
    unicode-range="U+000D-FB02"
  />
<missing-glyph horiz-adv-x="500" 
d="M63 5v775h375v-775h-375zM251 430l124 281h-250zM125 136l109 258l-109 246v-504zM375 637l-108 -243l108 -256v499zM125 68h250l-124 290z" />
    <glyph glyph-name="fi" unicode="fi" horiz-adv-x="417" 
d="M113 -321q-48 0 -72 81t-24 222q0 44 2.5 91t6.5 93q-2 0 -5.5 1t-2.5 5q18 121 42 225t58 174q48 97 105 97q56 0 56 -75q0 -38 -16 -88.5t-44 -108.5t-64 -117.5t-76 -114.5q-1 -7 -2.5 -30.5t-3 -55t-2.5 -64.5t-2 -59.5t-1 -38.5q0 -222 52 -222q20 0 32.5 27
t18.5 65t6 72q0 59 -16.5 100.5t-35.5 62.5q-13 0 -30 7.5t-17 24.5q0 11 13 11q21 0 45 -33q53 0 81.5 38.5t41.5 102.5q2 7 7 7q7 0 5 -7q-14 -83 -49.5 -117t-79.5 -34q50 -58 50 -163q0 -41 -7.5 -82.5t-25 -69t-46.5 -27.5zM79 193q31 44 63.5 97t60.5 108.5t45 106.5
t17 90q0 23 -6.5 39.5t-29.5 16.5q-52 0 -101 -199q-13 -55 -25.5 -120t-23.5 -139zM332 0q-43 0 -59.5 35.5t-16.5 84.5q0 35 6 71q12 72 27 156q9 -3 15 -3q20 0 32 24q2 5 6 5t3 -7q-4 -16 -13 -58.5t-24 -110.5q-5 -25 -8.5 -52.5t-3.5 -51.5q0 -34 9 -58t31 -24
q30 0 49 26t31 63.5t19 71.5q1 7 7 7q5 0 5 -7q-19 -91 -45.5 -131.5t-69.5 -40.5zM327 430q-13 0 -21.5 8.5t-8.5 21.5q0 14 10.5 24t24.5 10q12 0 20.5 -8.5t8.5 -21.5q0 -14 -10 -24t-24 -10z" />
    <glyph glyph-name="fl" unicode="fl" horiz-adv-x="435" 
d="M113 -321q-48 0 -72 81t-24 222q0 44 2.5 91t6.5 93q-2 0 -5.5 1t-2.5 5q18 121 42 225t58 174q48 97 105 97q56 0 56 -75q0 -38 -16 -88.5t-44 -108.5t-64 -117.5t-76 -114.5q-1 -7 -2.5 -30.5t-3 -55t-2.5 -64.5t-2 -59.5t-1 -38.5q0 -222 52 -222q20 0 32.5 27
t18.5 65t6 72q0 59 -16.5 100.5t-35.5 62.5q-13 0 -30 7.5t-17 24.5q0 11 13 11q21 0 45 -33q53 0 81.5 38.5t41.5 102.5q2 7 7 7q7 0 5 -7q-14 -83 -49.5 -117t-79.5 -34q50 -58 50 -163q0 -41 -7.5 -82.5t-25 -69t-46.5 -27.5zM79 193q31 44 63.5 97t60.5 108.5t45 106.5
t17 90q0 23 -6.5 39.5t-29.5 16.5q-52 0 -101 -199q-13 -55 -25.5 -120t-23.5 -139zM349 -3q-39 0 -58 27t-25 70.5t-6 94.5q0 55 7.5 114.5t21 116.5t31 105t38.5 79q34 52 68 52q19 0 26.5 -19.5t7.5 -51.5q0 -40 -10 -91.5t-24 -92.5q-42 -127 -128 -248q0 -34 4.5 -66.5
t16.5 -54t33 -21.5q18 0 34.5 17t30.5 43t23.5 53.5t12.5 47.5q2 7 7 7q6 0 5 -7q-7 -41 -22.5 -81.5t-38.5 -67t-55 -26.5zM298 177q34 46 61 103t49 125q9 28 17.5 64.5t14 73t5.5 61.5q0 17 -3 27t-10 10q-10 0 -21 -18t-30 -62t-33 -86t-22 -81q-13 -59 -19.5 -113
t-8.5 -104z" />
    <glyph glyph-name="f_f" unicode="ff" horiz-adv-x="482" 
d="M113 -321q-48 0 -72 81t-24 222q0 44 2.5 91t6.5 93q-2 0 -5.5 1t-2.5 5q18 121 42 225t58 174q48 97 105 97q56 0 56 -75q0 -38 -16 -88.5t-44 -108.5t-64 -117.5t-76 -114.5q-1 -7 -2.5 -30.5t-3 -55t-2.5 -64.5t-2 -59.5t-1 -38.5q0 -222 52 -222q20 0 32.5 27
t18.5 65t6 72q0 59 -16.5 100.5t-35.5 62.5q-13 0 -30 7.5t-17 24.5q0 11 13 11q21 0 45 -33q53 0 81.5 38.5t41.5 102.5q2 7 7 7q7 0 5 -7q-14 -83 -49.5 -117t-79.5 -34q50 -58 50 -163q0 -41 -7.5 -82.5t-25 -69t-46.5 -27.5zM79 193q31 44 63.5 97t60.5 108.5t45 106.5
t17 90q0 23 -6.5 39.5t-29.5 16.5q-52 0 -101 -199q-13 -55 -25.5 -120t-23.5 -139zM354 -321q-48 0 -72 81t-24 222q0 44 2.5 91t6.5 93q-2 0 -5.5 1t-2.5 5q18 121 42 225t58 174q48 97 105 97q56 0 56 -75q0 -38 -16 -88.5t-44 -108.5t-64 -117.5t-76 -114.5
q-1 -7 -2.5 -30.5t-3 -55t-2.5 -64.5t-2 -59.5t-1 -38.5q0 -222 52 -222q20 0 32.5 27t18.5 65t6 72q0 59 -16.5 100.5t-35.5 62.5q-13 0 -30 7.5t-17 24.5q0 11 13 11q21 0 45 -33q53 0 81.5 38.5t41.5 102.5q2 7 7 7q7 0 5 -7q-14 -83 -49.5 -117t-79.5 -34
q50 -58 50 -163q0 -41 -7.5 -82.5t-25 -69t-46.5 -27.5zM320 193q31 44 63.5 97t60.5 108.5t45 106.5t17 90q0 23 -6.5 39.5t-29.5 16.5q-52 0 -101 -199q-13 -55 -25.5 -120t-23.5 -139z" />
    <glyph glyph-name="f_f_i" unicode="ffi" horiz-adv-x="658" 
d="M113 -321q-48 0 -72 81t-24 222q0 44 2.5 91t6.5 93q-2 0 -5.5 1t-2.5 5q18 121 42 225t58 174q48 97 105 97q56 0 56 -75q0 -38 -16 -88.5t-44 -108.5t-64 -117.5t-76 -114.5q-1 -7 -2.5 -30.5t-3 -55t-2.5 -64.5t-2 -59.5t-1 -38.5q0 -222 52 -222q20 0 32.5 27
t18.5 65t6 72q0 59 -16.5 100.5t-35.5 62.5q-13 0 -30 7.5t-17 24.5q0 11 13 11q21 0 45 -33q53 0 81.5 38.5t41.5 102.5q2 7 7 7q7 0 5 -7q-14 -83 -49.5 -117t-79.5 -34q50 -58 50 -163q0 -41 -7.5 -82.5t-25 -69t-46.5 -27.5zM79 193q31 44 63.5 97t60.5 108.5t45 106.5
t17 90q0 23 -6.5 39.5t-29.5 16.5q-52 0 -101 -199q-13 -55 -25.5 -120t-23.5 -139zM354 -321q-48 0 -72 81t-24 222q0 44 2.5 91t6.5 93q-2 0 -5.5 1t-2.5 5q18 121 42 225t58 174q48 97 105 97q56 0 56 -75q0 -38 -16 -88.5t-44 -108.5t-64 -117.5t-76 -114.5
q-1 -7 -2.5 -30.5t-3 -55t-2.5 -64.5t-2 -59.5t-1 -38.5q0 -222 52 -222q20 0 32.5 27t18.5 65t6 72q0 59 -16.5 100.5t-35.5 62.5q-13 0 -30 7.5t-17 24.5q0 11 13 11q21 0 45 -33q53 0 81.5 38.5t41.5 102.5q2 7 7 7q7 0 5 -7q-14 -83 -49.5 -117t-79.5 -34
q50 -58 50 -163q0 -41 -7.5 -82.5t-25 -69t-46.5 -27.5zM320 193q31 44 63.5 97t60.5 108.5t45 106.5t17 90q0 23 -6.5 39.5t-29.5 16.5q-52 0 -101 -199q-13 -55 -25.5 -120t-23.5 -139zM573 0q-43 0 -59.5 35.5t-16.5 84.5q0 35 6 71q12 72 27 156q9 -3 15 -3q20 0 32 24
q2 5 6 5t3 -7q-4 -16 -13 -58.5t-24 -110.5q-5 -25 -8.5 -52.5t-3.5 -51.5q0 -34 9 -58t31 -24q30 0 49 26t31 63.5t19 71.5q1 7 7 7q5 0 5 -7q-19 -91 -45.5 -131.5t-69.5 -40.5zM568 430q-13 0 -21.5 8.5t-8.5 21.5q0 14 10.5 24t24.5 10q12 0 20.5 -8.5t8.5 -21.5
q0 -14 -10 -24t-24 -10z" />
    <glyph glyph-name="f_f_l" unicode="ffl" horiz-adv-x="676" 
d="M113 -321q-48 0 -72 81t-24 222q0 44 2.5 91t6.5 93q-2 0 -5.5 1t-2.5 5q18 121 42 225t58 174q48 97 105 97q56 0 56 -75q0 -38 -16 -88.5t-44 -108.5t-64 -117.5t-76 -114.5q-1 -7 -2.5 -30.5t-3 -55t-2.5 -64.5t-2 -59.5t-1 -38.5q0 -222 52 -222q20 0 32.5 27
t18.5 65t6 72q0 59 -16.5 100.5t-35.5 62.5q-13 0 -30 7.5t-17 24.5q0 11 13 11q21 0 45 -33q53 0 81.5 38.5t41.5 102.5q2 7 7 7q7 0 5 -7q-14 -83 -49.5 -117t-79.5 -34q50 -58 50 -163q0 -41 -7.5 -82.5t-25 -69t-46.5 -27.5zM79 193q31 44 63.5 97t60.5 108.5t45 106.5
t17 90q0 23 -6.5 39.5t-29.5 16.5q-52 0 -101 -199q-13 -55 -25.5 -120t-23.5 -139zM354 -321q-48 0 -72 81t-24 222q0 44 2.5 91t6.5 93q-2 0 -5.5 1t-2.5 5q18 121 42 225t58 174q48 97 105 97q56 0 56 -75q0 -38 -16 -88.5t-44 -108.5t-64 -117.5t-76 -114.5
q-1 -7 -2.5 -30.5t-3 -55t-2.5 -64.5t-2 -59.5t-1 -38.5q0 -222 52 -222q20 0 32.5 27t18.5 65t6 72q0 59 -16.5 100.5t-35.5 62.5q-13 0 -30 7.5t-17 24.5q0 11 13 11q21 0 45 -33q53 0 81.5 38.5t41.5 102.5q2 7 7 7q7 0 5 -7q-14 -83 -49.5 -117t-79.5 -34
q50 -58 50 -163q0 -41 -7.5 -82.5t-25 -69t-46.5 -27.5zM320 193q31 44 63.5 97t60.5 108.5t45 106.5t17 90q0 23 -6.5 39.5t-29.5 16.5q-52 0 -101 -199q-13 -55 -25.5 -120t-23.5 -139zM590 -3q-39 0 -58 27t-25 70.5t-6 94.5q0 55 7.5 114.5t21 116.5t31 105t38.5 79
q34 52 68 52q19 0 26.5 -19.5t7.5 -51.5q0 -40 -10 -91.5t-24 -92.5q-42 -127 -128 -248q0 -34 4.5 -66.5t16.5 -54t33 -21.5q18 0 34.5 17t30.5 43t23.5 53.5t12.5 47.5q2 7 7 7q6 0 5 -7q-7 -41 -22.5 -81.5t-38.5 -67t-55 -26.5zM539 177q34 46 61 103t49 125
q9 28 17.5 64.5t14 73t5.5 61.5q0 17 -3 27t-10 10q-10 0 -21 -18t-30 -62t-33 -86t-22 -81q-13 -59 -19.5 -113t-8.5 -104z" />
    <glyph glyph-name=".notdef" horiz-adv-x="500" 
d="M63 5v775h375v-775h-375zM251 430l124 281h-250zM125 136l109 258l-109 246v-504zM375 637l-108 -243l108 -256v499zM125 68h250l-124 290z" />
    <glyph glyph-name=".null" 
 />
    <glyph glyph-name="nonmarkingreturn" horiz-adv-x="333" 
 />
    <glyph glyph-name="CR" unicode="&#xd;" 
 />
    <glyph glyph-name="space" unicode=" " horiz-adv-x="188" 
 />
    <glyph glyph-name="exclam" unicode="!" horiz-adv-x="216" 
d="M99 169l-5 406q0 13 7.5 23.5t23.5 10.5q22 0 27 -12.5t4 -21.5l-44 -406h-13zM102 1q-14 0 -24 10t-10 24t10 23.5t24 9.5t23.5 -9.5t9.5 -23.5t-9.5 -24t-23.5 -10z" />
    <glyph glyph-name="quotedbl" unicode="&#x22;" horiz-adv-x="203" 
d="M149 371q-10 0 -7 15q3 11 9 35t12 49t9 39q1 7 4 11q1 1 5 1q5 0 11.5 -4t9.5 -11q3 -5 1 -8q-8 -19 -17 -43.5t-17 -46t-12 -31.5q-3 -6 -8 -6zM67 371q-9 0 -7 15q3 11 9 35t12.5 49t8.5 39q1 7 4 11q1 1 5 1q5 0 12 -4t10 -11q0 -1 0.5 -3.5t-0.5 -4.5
q-8 -19 -17 -43.5t-17 -46t-12 -31.5q-1 -6 -8 -6z" />
    <glyph glyph-name="numbersign" unicode="#" horiz-adv-x="355" 
d="M90 0l23 103h-65l5 21h65l15 68h-64l5 22h64l25 102h34l-24 -102h65l24 102h35l-24 -102h65l-5 -22h-65l-16 -68h65l-4 -21h-66l-24 -103h-34l24 103h-65l-25 -103h-33zM217 124l17 68h-66l-16 -68h65z" />
    <glyph glyph-name="dollar" unicode="$" horiz-adv-x="260" 
d="M95 -50l5 52q-32 4 -51 19t-19 39v3q0 11 5.5 18.5t12.5 7.5q15 0 24 -15q0 -46 29 -57l16 161q-19 11 -35 21.5t-26.5 28t-10.5 48.5q0 47 25 70t65 25l5 47h17l-4 -47q33 -2 48 -16t15 -31q0 -33 -23 -33q-17 0 -15 20q0 5 1.5 10t1.5 9q0 9 -6.5 17.5t-23.5 10.5
l-12 -133q21 -12 42 -26t35 -35.5t14 -56.5q0 -49 -29.5 -77.5t-79.5 -28.5h-3l-5 -51h-18zM77 299q0 -24 13 -38.5t32 -26.5l12 125q-29 -2 -43 -18.5t-14 -41.5zM172 130q-8 12 -18 21t-21 16l-14 -153h2q28 1 47 24t19 51q0 11 -3.5 21.5t-11.5 19.5z" />
    <glyph glyph-name="percent" unicode="%" horiz-adv-x="489" 
d="M32 5l311 475q-16 -12 -35 -12q-15 0 -25 7q-39 -72 -95 -72q-36 0 -55 31q-17 26 -17 64q0 64 40 119q44 59 106 59q32 0 49 -21.5t17 -54.5q0 -70 -41 -117l1 -2q12 -5 19 -5q12 0 27.5 8.5t21.5 18.5l100 168h32l-424 -666h-32zM193 412q24 0 49 22q21 20 33 43l2 4
q-14 23 -14 46q0 24 10 43q12 23 34 23h6q3 -1 6 -1q0 70 -45 70q-37 0 -72 -47q-26 -36 -40 -81q-7 -22 -7 -52q0 -70 38 -70zM274 -1q-37 0 -57 30q-18 26 -18 65q0 64 40 119q44 59 106 59q72 0 72 -76q0 -60 -41 -125q-45 -72 -102 -72zM274 9q48 0 90 76q37 67 37 120
q0 54 -44 54q-37 0 -72 -47q-28 -36 -40 -81q-4 -15 -6 -28t-2 -24q0 -70 37 -70z" />
    <glyph glyph-name="ampersand" unicode="&#x26;" horiz-adv-x="447" 
d="M125 -8q-36 0 -62 20t-26 55q0 65 96 116q-40 55 -40 110q0 42 24.5 71.5t64.5 29.5q35 0 57.5 -22t22.5 -57q0 -58 -78 -111q17 -25 37.5 -50t45.5 -51q10 14 17.5 27.5t13.5 24.5q20 39 31 51q22 25 50 25q16 0 29 -10.5t13 -25.5q0 -13 -9 -23.5t-21 -10.5
q-26 0 -26 35q0 9 -5 9q-16 0 -43 -46q-17 -33 -37 -68q67 -67 94 -67q24 0 47 29l11 -9q-37 -51 -88 -51q-47 0 -101 56q-54 -57 -118 -57zM174 216q51 35 51 94q0 26 -11 46q-14 23 -37 23q-22 0 -36 -17t-14 -41q0 -46 47 -105zM154 17q40 0 77 42q-25 26 -47.5 53.5
t-43.5 57.5q-51 -40 -51 -80q0 -29 18.5 -51t46.5 -22z" />
    <glyph glyph-name="quotesingle" unicode="'" horiz-adv-x="121" 
d="M67 371q-9 0 -7 15q3 11 9 35t12.5 49t8.5 39q1 7 4 11q1 1 5 1q5 0 12 -4t10 -11q0 -1 0.5 -3.5t-0.5 -4.5q-8 -19 -17 -43.5t-17 -46t-12 -31.5q-1 -6 -8 -6z" />
    <glyph glyph-name="parenleft" unicode="(" horiz-adv-x="412" 
d="M328 -170q-83 0 -144 30.5t-100.5 83.5t-58.5 120t-19 140q0 70 17 140.5t49.5 133.5t80 112t109 77t135.5 28q10 0 17 -1.5t7 -9.5q0 -10 -15 -10h-9q-82 0 -145.5 -40.5t-106.5 -107.5t-65 -148.5t-22 -164.5q0 -70 16.5 -135.5t49.5 -116.5t84 -81t120 -30
q17 0 17 -10q-1 -10 -17 -10z" />
    <glyph glyph-name="parenright" unicode=")" horiz-adv-x="412" 
d="M10 -170q-10 0 -17 1.5t-7 9.5q0 10 15 10h9q83 0 146 40.5t106 107.5t65 148.5t22 164.5q0 71 -16.5 136t-49.5 116t-84 81t-120 30q-17 0 -17 10q1 10 17 10q83 0 144 -30.5t100.5 -83.5t58.5 -120t19 -140q0 -70 -17 -140.5t-49.5 -133.5t-80 -112t-109 -77
t-135.5 -28z" />
    <glyph glyph-name="asterisk" unicode="*" horiz-adv-x="470" 
d="M257 240q-34 -1 -34 40q0 16 13 43t13 44v28q0 12 -2 16l-3 -1q-6 0 -8 -2l-27 -15q-13 -7 -37 -42q-22 -30 -43 -35q-40 0 -40 34q0 38 59 43q27 2 75 27q10 3 10 9t-32 23l-34 8l-34 8q-44 11 -44 37q0 38 35 38q24 0 58 -48q33 -49 64 -49l2 2q1 1 1 14v29
q0 16 -12 44q-13 27 -13 43q2 39 34 39q15 0 25 -12t10 -27q0 -13 -13 -36q-13 -36 -13 -81q0 -11 3 -13q2 -2 1 -2q8 0 9 6l26 13q14 8 39 43q24 32 42 35q37 0 40 -33q0 -39 -60 -44q-85 -21 -85 -36q0 -6 15 -14q5 -2 9.5 -4t9.5 -4q2 -2 68 -18q43 -10 43 -38
q0 -14 -10.5 -25t-25.5 -11q-21 0 -48 38q-22 30 -63 55q-2 2 -8 2h-4q0 -1 -0.5 -3.5t-1.5 -6.5q0 -36 13 -72t13 -49q0 -38 -35 -40z" />
    <glyph glyph-name="plus" unicode="+" horiz-adv-x="388" 
d="M178 41v120h-118v28h118v120h28v-120h122v-28h-122v-120h-28z" />
    <glyph glyph-name="comma" unicode="," horiz-adv-x="192" 
d="M49 -65q-7 0 -7 10q0 6 8 8q28 6 44 31q11 18 13 43q-7 -12 -22 -12q-26 0 -28 29q0 14 9.5 25.5t21.5 11.5q30 0 34 -33q1 -4 1 -8v-9q0 -69 -66 -95v1q-6 -2 -8 -2z" />
    <glyph glyph-name="hyphen" unicode="-" horiz-adv-x="348" 
d="M61 233l3 20h233l-3 -20h-233z" />
    <glyph glyph-name="period" unicode="." horiz-adv-x="192" 
d="M90 1q-14 0 -24 10t-10 24t10 23.5t24 9.5t23.5 -9.5t9.5 -23.5t-9.5 -24t-23.5 -10z" />
    <glyph glyph-name="slash" unicode="/" horiz-adv-x="480" 
d="M38 -92l407 706h33l-409 -706h-31z" />
    <glyph glyph-name="zero" unicode="0" horiz-adv-x="289" 
d="M138 -4q-38 0 -63 28.5t-37.5 70t-12.5 81.5q0 45 14.5 90.5t42.5 76.5t68 31q39 0 64 -27t37.5 -68.5t12.5 -86.5q0 -46 -14.5 -91t-42.5 -75t-69 -30zM138 7q73 0 73 185q0 90 -14 130.5t-46 40.5q-72 0 -73 -178q0 -49 3 -89t16 -64t41 -25z" />
    <glyph glyph-name="one" unicode="1" horiz-adv-x="289" 
d="M69 16l35 4q23 3 26 27q1 5 2 33t1 92v110q0 31 -6.5 44.5t-29.5 13.5h-39v11q38 4 70.5 11.5t54.5 18.5q-2 -49 -3 -98t-1 -99q0 -64 0.5 -96t0.5 -36q0 -13 5 -21t20 -10l32 -5v-12q-28 1 -49 1.5t-35 0.5t-35 -0.5t-49 -1.5v12z" />
    <glyph glyph-name="two" unicode="2" horiz-adv-x="289" 
d="M223 -25q1 5 1 8.5v6.5q0 8 -3.5 11.5t-16.5 3.5h-87q-16 0 -40 -0.5t-56 -1.5q8 22 28 50.5t48 56.5q44 43 74 80t30 85q0 36 -18.5 61t-53.5 25q-27 0 -47 -16.5t-20 -44.5q0 -22 13 -40t36 -18q13 0 30 17q-7 -42 -52 -42q-28 0 -46 18.5t-18 46.5q0 42 32 67t76 25
q52 0 88 -25t36 -68q0 -29 -9 -51t-27 -42q-17 -18 -47 -43t-59 -49.5t-45 -43.5h180l-15 -77h-12z" />
    <glyph glyph-name="three" unicode="3" horiz-adv-x="289" 
d="M112 -4q-31 0 -60 11.5t-29 39.5q0 24 22 24q19 0 33 -32q7 -16 17.5 -23t25.5 -7q38 0 60.5 24t22.5 76q0 85 -59 85q-20 0 -35 -18q-7 -10 -14 -13.5t-12 -3.5q-16 0 -16 11q0 7 4 14.5t18 11.5q48 15 70 42t22 65q0 56 -55 56q-21 0 -38.5 -14t-17.5 -37q0 -40 34 -40
q16 0 33 13q-15 -36 -50 -36q-22 0 -36.5 12.5t-14.5 33.5q0 25 15 43.5t39 29.5t50 11q39 0 66.5 -17.5t27.5 -53.5t-27 -57.5t-64 -39.5h15q41 0 70 -20q17 -12 25 -28t8 -33q0 -30 -20.5 -60t-54.5 -50t-75 -20z" />
    <glyph glyph-name="four" unicode="4" horiz-adv-x="289" 
d="M112 4l1 13q32 0 44 7t12 41v57h-146v19l181 236h13v-236h64v-19h-64l-1 -51q0 -26 4 -37.5t16.5 -13.5t35.5 -2v-14q-25 1 -44.5 1.5t-32.5 0.5q-14 0 -35 -0.5t-48 -1.5zM169 141v166l-125 -166h125z" />
    <glyph glyph-name="five" unicode="5" horiz-adv-x="289" 
d="M112 -4q-20 0 -41.5 5.5t-36 16.5t-14.5 30v2q0 23 19 23q22 0 34 -32q12 -31 43 -31q86 0 86 120q0 87 -64 87q-28 0 -51 -16.5t-25 -45.5q-2 -11 -11 -14q-12 0 -12 11q0 3 1 11t2 18q5 35 9 70t7 70l1 58q38 -32 83 -32q43 0 80 34h4q-10 -41 -37 -59t-69 -18
q-12 0 -24 1.5t-26 3.5l-12 -113q19 20 45.5 29.5t54.5 9.5q51 0 75.5 -29.5t24.5 -68.5q0 -33 -17 -65.5t-49.5 -54t-79.5 -21.5z" />
    <glyph glyph-name="six" unicode="6" horiz-adv-x="289" 
d="M150 -3q-41 0 -66.5 22.5t-37 59t-11.5 79.5q0 54 16.5 104t50.5 81.5t84 31.5q25 0 44 -9q24 -12 24 -33q0 -25 -23 -25q-15 0 -30 26q-13 25 -35 25q-72 0 -78 -168q10 18 32.5 32.5t48.5 14.5q54 0 79.5 -33t25.5 -74q0 -32 -14.5 -63t-42 -51t-67.5 -20zM151 7
q71 0 71 118q0 97 -56 97q-28 0 -45.5 -16t-26 -37.5t-9.5 -38.5q-1 -60 14.5 -91t51.5 -32z" />
    <glyph glyph-name="seven" unicode="7" horiz-adv-x="289" 
d="M125 -5q-27 0 -27 26q0 16 8 61.5t43 112.5q17 33 42.5 67.5t47.5 56.5h-129q-22 0 -34 -3t-18.5 -15.5t-14.5 -42.5h-13l31 151h14q-2 -11 -3 -18t-1 -10q0 -16 21 -16h179v-19q-34 -50 -56 -87t-34 -65q-17 -40 -21 -78t-4 -81q0 -24 -10.5 -32t-20.5 -8z" />
    <glyph glyph-name="eight" unicode="8" horiz-adv-x="291" 
d="M145 -2q-29 0 -56.5 10.5t-45.5 30.5t-18 48q0 62 79 102q-67 34 -67 89q0 41 32.5 66.5t75.5 25.5q41 0 74.5 -21.5t33.5 -59.5q0 -49 -60 -85q73 -40 73 -96q1 -49 -34.5 -79.5t-86.5 -30.5zM180 211q34 33 34 70q0 32 -19.5 55t-51.5 23q-29 0 -49.5 -17t-20.5 -46
q0 -33 32 -50.5t75 -34.5zM145 10q34 0 59.5 20.5t25.5 52.5q0 25 -14.5 40.5t-40 29t-59.5 30.5q-50 -32 -50 -88q2 -85 79 -85z" />
    <glyph glyph-name="nine" unicode="9" horiz-adv-x="289" 
d="M119 -4q-25 0 -48 10.5t-23 32.5q2 24 24 24q15 0 29 -26q14 -27 35 -27q73 0 76 170q-16 -24 -38 -36t-42 -12q-47 0 -77 31.5t-30 78.5q0 36 15.5 66t43 48t62.5 18q43 0 68.5 -23t37.5 -60.5t12 -81.5q0 -54 -16 -103t-48 -79.5t-81 -30.5zM134 149q44 0 62 32t18 81
q0 47 -17 74t-50 27q-69 0 -69 -113q0 -101 56 -101z" />
    <glyph glyph-name="colon" unicode=":" horiz-adv-x="192" 
d="M88 185v1q-26 0 -28 29q0 14 9 25.5t20 11.5q33 0 33 -37q0 -13 -10 -21.5t-24 -8.5zM88 1v1q-26 0 -28 29q0 14 9 25.5t20 11.5q33 0 33 -37q0 -13 -10 -21.5t-24 -8.5z" />
    <glyph glyph-name="semicolon" unicode=";" horiz-adv-x="192" 
d="M89 185v1q-26 0 -28 29q0 14 9 25.5t20 11.5q33 0 33 -37q0 -13 -10 -21.5t-24 -8.5zM51 -63q-6 0 -6 8q0 5 8 7q48 11 56 73q-7 -10 -21 -10q-26 0 -28 29q0 14 9.5 25.5t21.5 11.5q32 0 32 -46q0 -69 -64 -96q-6 -2 -8 -2z" />
    <glyph glyph-name="less" unicode="&#x3c;" horiz-adv-x="266" 
d="M60 177l114 148h32l-114 -148l114 -149h-32z" />
    <glyph glyph-name="equal" unicode="=" horiz-adv-x="388" 
d="M60 252h268v-28h-268v28zM60 129h268v-28h-268v28z" />
    <glyph glyph-name="greater" unicode="&#x3e;" horiz-adv-x="266" 
d="M206 177l-114 -149h-32l114 149l-114 148h32z" />
    <glyph glyph-name="question" unicode="?" horiz-adv-x="347" 
d="M172 114q-12 0 -18 15t-6 31q0 23 13 48t44 54q31 28 44.5 62.5t13.5 78.5q0 41 -18.5 73t-57.5 32q-29 0 -50.5 -20t-32.5 -50t-11 -59t12.5 -50.5t38.5 -21.5q14 0 29.5 9.5t15.5 28.5q0 5 4 5.5t4 -4.5q0 -28 -17.5 -39t-35.5 -11q-43 0 -63.5 27t-20.5 63q0 31 15 62
t44 52t72 21q62 0 89 -29.5t27 -85.5q0 -35 -14 -62t-32.5 -47t-34.5 -33q-23 -19 -39.5 -40t-16.5 -44q0 -19 8.5 -27t8.5 -22q0 -7 -3.5 -12t-11.5 -5zM139 1q-14 0 -24 10t-10 24t10 23.5t24 9.5t23.5 -9.5t9.5 -23.5t-9.5 -24t-23.5 -10z" />
    <glyph glyph-name="at" unicode="@" horiz-adv-x="550" 
d="M261 -116q-102 0 -167 63q-75 71 -75 203q0 109 68 186q76 85 204 85q95 0 156 -49q66 -54 66 -150q0 -114 -54 -188q-39 -54 -80 -54q-73 0 -70 122q-25 -102 -78 -102q-64 0 -64 119v13.5t1 13.5q5 54 26 95q29 54 72 54q47 0 53 -71l7 69q21 -4 34 18q4 7 7 -2
l-17 -149q-2 -22 -3.5 -40.5t-1.5 -35.5q0 -93 35 -93q33 0 67 70q36 74 36 156q0 91 -56 142q-49 45 -131 45q-110 0 -176 -81q-59 -74 -59 -178q0 -125 64 -190q56 -57 136 -57q95 0 170 60q81 65 81 159q0 34 13 34q15 0 15 -38q0 -102 -88 -168q-80 -61 -191 -61z
M239 11q48 0 69 139q3 17 3 37q0 42 -10 69q-11 32 -30 29q-14 0 -27 -19.5t-23 -51t-14 -67.5q-1 -7 -1.5 -15t-0.5 -16q0 -43 9 -73q9 -35 25 -32z" />
    <glyph glyph-name="A" unicode="A" horiz-adv-x="852" 
d="M243 -86q-68 0 -121.5 27.5t-84.5 75.5t-31 110q0 57 26 103.5t72 74t105 27.5q65 0 109 -44q40 -41 40 -103q0 -57 -34.5 -91.5t-92.5 -34.5q-28 0 -41.5 10.5t-13.5 19.5q0 6 5 6q2 0 5 -4.5t7 -6.5q8 -7 18.5 -9.5t20.5 -2.5q50 0 78.5 31t28.5 82q0 56 -36.5 93.5
t-97.5 37.5q-52 0 -89.5 -25.5t-58 -67t-20.5 -91.5q0 -55 27 -100.5t73.5 -72.5t106.5 -27q110 0 192.5 74.5t134.5 215.5q23 63 47 124t49.5 109.5t50.5 71.5q-32 19 -77.5 36.5t-91 29.5t-78.5 12q-50 0 -92.5 -17t-67.5 -50.5t-25 -83.5q0 -65 41.5 -107t109.5 -42
q58 0 96.5 27.5t38.5 79.5q0 42 -28 61q-4 2 -7.5 4t-3.5 6q0 7 8 7q2 0 14 -5q37 -21 37 -76q0 -58 -45.5 -90t-110.5 -32q-50 0 -91.5 21t-65.5 57t-24 82q0 63 28.5 109t79.5 71.5t117 25.5q41 0 79.5 -14.5t81.5 -39.5t95 -56q54 35 99 35q32 0 57.5 -15t25.5 -44
q0 -21 -15.5 -31.5t-35.5 -10.5q-10 0 -25.5 2t-24.5 6q-11 -36 -22.5 -83.5t-18.5 -120.5q-7 -95 -44 -165.5t-103 -99.5q11 3 21 3.5t17 0.5q18 0 38 -5t38 -10t28 -5q18 0 18 16q0 5 -4 12t-9 11q0 8 7 8q5 0 12.5 -10t7.5 -24q0 -33 -43 -33q-19 0 -49 8
q-46 11 -67 13.5t-39 3.5q29 35 47.5 63.5t31 56t21.5 59.5t18 75h-116l-12 -34q-110 -311 -352 -311zM860 493q17 0 27.5 6.5t10.5 19.5q0 22 -22.5 32t-43.5 10q-44 0 -81 -28l51 -25q5 11 8.5 15.5t10.5 4.5q4 0 6 -3.5t2 -5.5q0 -9 -6 -20q8 -3 18.5 -4.5t18.5 -1.5z
M729 280q22 109 66 212q-5 2 -20 9t-41 20q-53 -50 -121 -241h116z" />
    <glyph glyph-name="B" unicode="B" horiz-adv-x="675" 
d="M136 -35q-37 0 -54 16t-17 36q0 16 13.5 33.5t42.5 17.5q39 0 121 -34q17 26 32 64t26 90q6 23 30 166q35 202 107 285q-51 18 -117 18q-79 0 -142.5 -33.5t-100 -92t-36.5 -132.5q0 -38 13.5 -73.5t38.5 -58t61 -22.5q37 0 64 20.5t42.5 54t15.5 73.5t-17.5 72.5
t-54.5 32.5q-36 0 -53 -23.5t-17 -45.5q0 -15 7 -24.5t18 -9.5q8 0 12 4h1q2 0 2 -3q0 -2 -4 -6t-12 -4q-19 0 -28.5 15.5t-7.5 37.5q2 25 24.5 48t59.5 23q32 0 52.5 -18.5t30.5 -47t10 -59.5q0 -71 -43.5 -113.5t-108.5 -42.5q-48 0 -81 24t-49.5 62.5t-16.5 81.5
q0 64 25.5 114.5t69.5 86t101 54.5t121 19q77 0 133 -19q41 40 87 40q29 0 29 -9q0 -6 -7 -6q-8 1 -14 1.5t-11 0.5q-16 0 -34 -7.5t-32 -26.5q125 -44 125 -142q0 -40 -24 -73.5t-61 -54t-76 -21.5q55 -5 100 -26.5t72 -58.5t27 -89q0 -59 -32 -103.5t-84 -69t-113 -24.5
q-58 0 -144 30q-34 -28 -62.5 -38t-59.5 -10zM381 358q26 0 55 10.5t54.5 29.5t41.5 44.5t16 55.5q0 93 -91 133q-52 -79 -75 -256q-1 -4 -1 -8v-9zM380 3q58 0 101.5 24.5t67.5 69t24 102.5q0 48 -27.5 80t-71.5 48.5t-94 19.5q-8 -68 -14.5 -111.5t-11.5 -60.5
q-24 -97 -82 -150q62 -22 108 -22zM146 -21q52 0 86 45q-63 23 -92 23q-53 0 -53 -37q0 -31 59 -31z" />
    <glyph glyph-name="C" unicode="C" horiz-adv-x="703" 
d="M383 -39q-91 0 -161.5 39.5t-110.5 109.5t-40 160q0 50 15 98q-53 35 -75.5 75.5t-22.5 84.5q0 50 22.5 92.5t68.5 68.5t116 26q50 0 95.5 -20t68.5 -65q46 10 94 10q53 0 96.5 -13t69.5 -41t26 -74q0 -52 -28.5 -91t-74.5 -65.5t-101 -40t-108 -13.5q-60 0 -109.5 9.5
t-84.5 24.5q-2 -19 -3.5 -36.5t-1.5 -33.5q0 -132 66.5 -209.5t185.5 -77.5q59 0 107 20t76 56t28 84q0 32 -15.5 55.5t-45.5 23.5q-16 0 -31.5 -10.5t-15.5 -26.5q0 -4 0.5 -8.5t0.5 -7.5q0 -10 -6 -10q-10 0 -10 26t18 42t44 16q43 0 70.5 -29t27.5 -72q0 -42 -22.5 -75
t-59.5 -55.5t-81 -34.5t-88 -12zM20 533q0 -34 18 -69t55 -67q32 88 97.5 146t148.5 82q-38 72 -146 72q-50 0 -89 -23.5t-61.5 -61t-22.5 -79.5zM329 322q49 0 97 11t87 32.5t62.5 53t23.5 73.5q0 39 -21.5 68t-56.5 45t-77 16q-41 0 -78 -9q9 -26 9 -58q0 -26 -10.5 -52
t-30 -42.5t-46.5 -16.5q-10 0 -10 8q0 5 6 5q25 0 40.5 16t23.5 38.5t8 41.5q0 30 -9 55q-80 -24 -133.5 -88t-71.5 -157q35 -18 86.5 -29t100.5 -11z" />
    <glyph glyph-name="D" unicode="D" horiz-adv-x="738" 
d="M130 -36q-18 0 -37.5 5t-32.5 16t-13 28q0 20 20.5 34t45.5 14q27 0 59 -10.5t53 -20.5q41 59 63 180q16 89 28.5 160.5t33 128.5t60.5 101q-30 7 -58.5 10t-54.5 3q-75 0 -134 -31.5t-93 -85.5t-34 -124q0 -39 13.5 -72.5t38.5 -53.5t61 -20q33 0 56.5 20.5t36 53
t12.5 68.5q0 38 -16 67t-50 29q-26 0 -46 -20t-20 -47q0 -31 24 -31h8t4 -3q0 -6 -11 -6q-35 0 -35 40q0 32 23.5 55t54.5 23q29 0 48.5 -18t29 -45.5t9.5 -55.5q0 -66 -40 -105t-99 -39q-45 0 -76.5 22t-48 58t-16.5 78q0 60 24.5 108t66.5 81.5t96 51.5t114 18
q64 0 125 -12q38 33 77 33q31 0 31 -9q0 -4 -5 -4h-5t-8 1q-4 1 -8 1h-6q-33 0 -58 -28q125 -31 197 -108t72 -201q0 -95 -41 -167.5t-113.5 -113t-168.5 -40.5q-63 0 -148 29q-27 -23 -47.5 -34.5t-61.5 -11.5zM363 1q63 0 117 23t94 63.5t62.5 95t22.5 117.5
q0 232 -229 296q-16 -24 -30 -72t-25.5 -110.5t-21.5 -132.5q-5 -37 -14.5 -84.5t-29 -93.5t-56.5 -81q59 -21 110 -21zM137 -23q43 0 79 43q-54 22 -86 22q-26 0 -39 -10t-13 -24q0 -12 10.5 -18.5t24.5 -9.5t24 -3z" />
    <glyph glyph-name="E" unicode="E" horiz-adv-x="584" 
d="M317 -37q-78 0 -141 26t-100.5 76.5t-37.5 123.5q0 81 49 139t129 83q-40 40 -40 99q0 45 23.5 75.5t62 46t82.5 15.5q33 0 62.5 -11.5t48 -33t18.5 -52.5q0 -27 -20 -48t-50 -21q-22 0 -34.5 14.5t-12.5 28.5q0 8 5 8q4 0 8 -10t13.5 -19t21.5 -9q19 0 32 16.5t13 37.5
q0 39 -30.5 62.5t-69.5 23.5q-58 0 -91.5 -36.5t-33.5 -95.5q0 -49 26 -81q14 4 33.5 6.5t36.5 2.5q67 0 67 -33q0 -15 -16.5 -24t-39.5 -9q-31 0 -55.5 10.5t-47.5 26.5q-44 -16 -75 -50.5t-46.5 -80t-15.5 -95.5q0 -57 29 -101.5t77.5 -70t107.5 -25.5q65 0 117.5 24
t83.5 68.5t31 108.5q0 48 -26.5 81.5t-73.5 33.5q-29 0 -46.5 -14.5t-17.5 -37.5q0 -10 4.5 -13.5t8.5 -3.5q1 0 1 -1q0 -6 -8 -6q-7 0 -13 7t-6 23q0 28 23 45.5t52 17.5q62 0 98.5 -38.5t36.5 -99.5q0 -67 -35.5 -114t-93 -71.5t-124.5 -24.5zM331 377q16 0 27 5.5
t11 13.5q0 11 -13.5 16t-35.5 5q-15 0 -30 -2t-31 -6q16 -15 33 -23.5t39 -8.5z" />
    <glyph glyph-name="F" unicode="F" horiz-adv-x="590" 
d="M187 -53q-61 0 -107.5 23.5t-73 65t-26.5 95.5q0 36 18 69t49 54t71 21q42 0 72 -24.5t30 -68.5q0 -37 -23.5 -63.5t-59.5 -26.5q-10 0 -10 7q0 5 12 5q28 0 45 23t17 52q0 41 -22.5 61t-60.5 20q-30 0 -54.5 -18.5t-38.5 -48t-14 -63.5q0 -74 44.5 -120t118.5 -46
q82 0 136 44t88 118.5t55 167.5h-85q-10 0 -10 6q0 9 14 9h85q14 59 24.5 102t23 78t30.5 68q-171 65 -249 65q-52 0 -89.5 -22t-58 -59.5t-20.5 -84.5q0 -53 30.5 -85t83.5 -32q51 0 83 32.5t32 81.5q0 11 6 11q8 0 8 -22q0 -33 -17.5 -59.5t-46.5 -42t-66 -15.5
q-66 0 -107 42t-41 109q0 53 24.5 92.5t67.5 62t96 22.5q65 0 132 -23t146 -56q33 35 65 35q8 0 8 -4q0 -3 -4 -3q-13 0 -28.5 -10.5t-26.5 -23.5q61 -24 113 -35t101 -11q10 0 31.5 3.5t40.5 11t19 18.5q0 14 13 14q7 0 7 -10q0 -25 -34 -38t-86 -13q-37 0 -92.5 9.5
t-124.5 32.5q-33 -61 -57 -241h70q9 0 9 -6q0 -9 -13 -9l-67 -1q-13 -105 -50 -183t-100 -120.5t-156 -42.5z" />
    <glyph glyph-name="G" unicode="G" horiz-adv-x="716" 
d="M188 -298q-68 0 -121.5 20t-84.5 59t-31 97q0 51 27.5 84.5t74.5 50t103 16.5q75 0 163.5 -19.5t200.5 -50.5q10 20 19.5 46.5t14.5 69.5q-73 -49 -162 -49q-76 0 -132 32.5t-85.5 91t-28.5 134.5q-91 58 -91 160q0 57 26 102t71 71t102 26q33 0 63 -16t46 -39
q69 28 137 28q45 0 83.5 -15t62 -43.5t23.5 -71.5q0 -52 -35.5 -95.5t-92.5 -75.5t-123 -49t-128 -17q-23 0 -44 2t-40 6q6 -92 53 -150q52 -64 142 -64q87 0 159 66q3 39 6.5 77t11.5 69t23 49.5t40 18.5q22 0 32 -14.5t10 -33.5q0 -40 -23.5 -85t-70.5 -89q-7 -45 -14 -86
t-16 -69q68 -14 115 -21.5t73 -7.5q73 0 122 43q23 20 23 5q0 -4 -5 -12q-34 -58 -140 -58q-72 0 -195 31q-26 -71 -81.5 -121t-129 -76.5t-153.5 -26.5zM146 315q8 88 58.5 157t131.5 105q-34 32 -90 32q-47 0 -86 -20.5t-62 -56.5t-23 -84q0 -87 70 -133h1zM276 277
q57 0 119 16.5t115.5 46t87 69t33.5 85.5q0 33 -18.5 55t-47.5 33t-61 11q-57 0 -126 -32q12 -25 12 -52q0 -29 -13 -55t-33.5 -42.5t-43.5 -16.5q-18 0 -18 8q0 9 11 9q21 0 37.5 14t26.5 36t10 44q0 11 -2.5 22.5t-8.5 21.5q-71 -42 -110.5 -112t-40.5 -154
q17 -4 34.5 -5.5t36.5 -1.5zM589 141q18 18 33.5 43t25.5 50.5t10 44.5q0 29 -18 29q-16 0 -26 -16t-15 -41.5t-7 -54.5t-3 -55zM178 -279q45 0 97.5 18t102 48.5t86 70t49.5 81.5q-112 35 -200 52t-144 17q-50 0 -90.5 -12t-64 -39.5t-23.5 -72.5q0 -69 49.5 -116
t137.5 -47z" />
    <glyph glyph-name="H" unicode="H" horiz-adv-x="809" 
d="M179 -46q-64 0 -115 29t-81 79t-30 114q0 114 85 169q-22 43 -22 96q0 56 23.5 99t66 68t97.5 25q69 0 139 -27t158 -67q43 46 85 46q19 0 35 -10.5t16 -29.5t-15 -30.5t-41 -11.5q-27 0 -72 17q-38 -62 -39 -181q0 -6 -0.5 -14t-1.5 -18h226q24 107 51 184.5t70 108.5
q28 20 49 20q29 0 46 -21t17 -51q0 -14 -6 -38q-4 -9 -8 -9q-7 0 -3 12q5 18 5 34q0 59 -51 59h-3q-22 0 -41 -26.5t-35 -71.5t-28 -99t-20.5 -110.5t-13 -106t-4.5 -84.5q0 -103 31 -103q15 0 30 16t27.5 39t17.5 44q5 14 8 14q5 0 5 -14v-5q-12 -39 -35 -72
q-30 -41 -64 -41q-35 0 -51.5 33t-16.5 94q0 73 21 179h-225q-7 -103 -38.5 -179t-92 -117.5t-156.5 -41.5zM174 -27q66 0 110 26.5t71.5 73t43 108t23.5 132.5q8 62 22 118.5t44 94.5q-87 37 -149 56t-120 19q-52 0 -92 -22.5t-62.5 -62t-22.5 -92.5q0 -40 13 -70
q25 13 58 13q86 0 124 -68q43 30 43 88q0 13 8 13q5 0 5 -13q0 -64 -51 -99q14 -30 14 -58q0 -53 -29.5 -92.5t-81.5 -39.5q-8 0 -8 8t12 8q39 0 63.5 33t24.5 78q0 16 -3 29t-8 24q-33 -14 -65 -14q-75 0 -113 59q-59 -51 -59 -156q0 -55 24 -98.5t65.5 -69.5t95.5 -26z
M581 515q19 0 30 8t11 21q0 11 -10.5 18t-28.5 7q-19 0 -35.5 -10t-29.5 -26q35 -18 63 -18zM159 279q35 0 61 13q-32 56 -113 56q-24 0 -43 -13q32 -56 95 -56z" />
    <glyph glyph-name="I" unicode="I" horiz-adv-x="484" 
d="M186 -52q-53 0 -96.5 24t-68.5 66.5t-25 95.5q0 49 22 92.5t60.5 70.5t87.5 27q34 0 60 -17.5t41.5 -46.5t15.5 -63q0 -43 -28 -71t-72 -28q-39 0 -57.5 25t-18.5 59q0 30 13 30q3 0 3 -5q-3 -7 -3.5 -16.5t-0.5 -12.5q0 -28 16.5 -49.5t43.5 -21.5q38 0 62.5 26.5
t24.5 64.5q0 30 -13 56t-35 42t-51 16q-42 0 -71 -23t-44.5 -59.5t-15.5 -77.5q0 -85 38 -138t117 -53q53 0 88 26.5t56 72.5t33 106t18 127q-8 -2 -36 -2q-33 0 -61.5 17t-46.5 47.5t-18 70.5q0 68 37 114.5t97 71t128 24.5q52 0 86 -15q2 -2 2 -4q0 -4 -13 -5
q-20 -2 -39.5 -20.5t-35 -44.5t-23.5 -50q38 -29 38 -77q0 -82 -68 -114q-2 -99 -29 -180.5t-81 -129.5t-137 -48zM362 302q6 0 14 0.5t11 1.5l3 53q2 31 11.5 66.5t25.5 75.5q-6 2 -17 2q-21 0 -36 -14t-15 -35q0 -20 9 -29q6 -3 6 -5q0 -4 -5 -4q-10 0 -15.5 12t-5.5 25
q0 26 20.5 43.5t46.5 17.5q11 0 17 -2q47 105 108 106q-27 7 -61 7q-55 0 -103 -20.5t-80 -58.5t-40 -91q-1 -7 -1.5 -16t-0.5 -20q0 -57 29.5 -86t78.5 -29zM433 321q31 17 43 42t12 56q0 23 -9 40t-20 28q-12 -37 -18 -78.5t-8 -87.5z" />
    <glyph glyph-name="J" unicode="J" horiz-adv-x="486" 
d="M106 -272q-60 0 -108.5 29.5t-77 79.5t-28.5 111q0 58 24.5 106t68.5 77t100 29q42 0 74 -20t50 -54.5t18 -76.5q0 -59 -34 -94.5t-87 -35.5q-25 0 -38 8.5t-13 15.5q0 9 6 9q7 -13 19 -17t25 -4q49 0 77 33.5t28 84.5q0 38 -15.5 69.5t-43.5 50t-66 18.5
q-50 0 -87.5 -26t-58 -69.5t-20.5 -96.5q0 -56 24 -104t66.5 -77.5t97.5 -29.5q66 0 115.5 33t83.5 89.5t55 130t30.5 155t9.5 162.5q0 120 23.5 195.5t65.5 94.5q-4 1 -16.5 3t-29.5 2q-54 0 -101.5 -22.5t-77 -63t-29.5 -94.5q0 -28 11.5 -50.5t40.5 -22.5q27 0 46.5 22.5
t19.5 50.5q0 9 -2 19.5t-4 12.5q-2 4 -2 5q0 6 6 6q5 0 10 -10.5t5 -33.5q0 -34 -23 -59t-58 -25q-37 0 -54.5 23t-17.5 56q0 57 33 100.5t86 68.5t113 25q15 0 35 -4t23 -4h3q1 -1 1 -3q0 -1 -7 -6.5t-14 -16.5q-27 -40 -35 -80t-8 -92q0 -34 1.5 -75.5t1.5 -93.5
q0 -100 -20 -192.5t-61.5 -165t-106 -114.5t-153.5 -42z" />
    <glyph glyph-name="K" unicode="K" horiz-adv-x="884" 
d="M230 -114q-60 0 -110.5 27t-80.5 74.5t-30 108.5q0 56 26.5 99.5t72 69t100.5 25.5q62 0 103 -39.5t41 -101.5q0 -56 -34.5 -89.5t-87.5 -33.5q-26 0 -39 9.5t-13 19.5q0 4 3 4q2 0 3.5 -3t7.5 -8q5 -4 14 -8t24 -4q50 0 79 31.5t29 81.5q0 56 -36.5 93t-93.5 37
q-51 0 -90 -24t-61 -65.5t-22 -93.5q0 -54 26 -99t69.5 -71.5t97.5 -26.5q83 0 141 36.5t95 100t54 145t17 172.5q0 84 7.5 138.5t26 87t50.5 49.5h-5q-43 0 -87 -11.5t-81.5 -33t-60.5 -52t-23 -68.5q0 -25 17 -41.5t42 -16.5q26 0 44.5 17.5t18.5 45.5q0 6 -2.5 15.5
t-2.5 10.5q0 5 6 5t9 -13.5t3 -19.5q0 -33 -25 -54.5t-59 -21.5q-33 0 -53 21t-20 54q0 40 27 72t70.5 55t92.5 35t92 12h16t9 -2l-14 -15q-29 -31 -43 -79.5t-14 -113.5q0 -5 1 -24.5t2 -44t2 -44t1 -25.5q53 0 98 28t80.5 73t58.5 97q20 40 37.5 71t38.5 49t50 18
q15 0 34.5 -9.5t19.5 -23.5q0 -6 -5 -6l-12 13q-13 13 -29 13q-33 0 -58 -64q-10 -26 -21.5 -50t-24.5 -45q-26 -43 -63 -80t-81 -61t-91 -29q48 -2 75 -25.5t44 -57.5t34 -70q13 -27 31 -57.5t38.5 -57.5t41.5 -43.5t40 -16.5q22 0 32 9t11 27q1 3 1 6t1 6q1 10 6 10
q9 0 9 -26q0 -45 -73 -45q-52 0 -87 23t-58 63.5t-42 91.5q-25 68 -57 109t-79 51q-3 -122 -43.5 -211t-117.5 -137t-191 -48z" />
    <glyph glyph-name="L" unicode="L" horiz-adv-x="465" 
d="M474 -119q-63 0 -128 33.5t-146 88.5q-46 -33 -107 -33q-42 0 -77 14.5t-56.5 43t-21.5 69.5q0 42 49 42q70 0 209 -97q46 64 82 272q-71 0 -126 29.5t-85.5 80t-30.5 113.5q0 43 18 71q23 32 62 32q34 0 62 -22t39 -55q0 -10 -6 -10q-4 0 -6 2.5t-3 4.5q-30 64 -84 64
q-65 0 -65 -96q0 -58 31 -103t83 -70t113 -25q6 55 19.5 109t35 98.5t52 71.5t71.5 27t60 -22.5t19 -56.5q0 -33 -15.5 -72t-42.5 -74q-28 -36 -68 -62t-84 -33q-10 -98 -31 -169t-73 -126q26 -18 61.5 -35.5t74 -32.5t75 -24t64.5 -9q41 0 60.5 19.5t19.5 50.5q0 13 -3 26
q0 6 5 6q6 0 8.5 -11t2.5 -25q0 -46 -32.5 -75.5t-84.5 -29.5zM328 333q42 7 79 31t63 58q23 29 35.5 64.5t12.5 66.5q0 26 -10.5 43t-34.5 17q-37 0 -62.5 -25.5t-42 -67.5t-26 -91t-14.5 -96zM87 -14q52 0 88 33q-136 92 -189 92q-28 0 -28 -23q0 -24 20.5 -47.5t50.5 -39
t58 -15.5z" />
    <glyph glyph-name="M" unicode="M" horiz-adv-x="985" 
d="M149 -52q-47 0 -82 21.5t-54.5 59t-19.5 84.5q0 38 15.5 74t41 64.5t57.5 45t65 16.5q54 0 81.5 -40t27.5 -93q0 -34 -11 -64t-32 -48.5t-53 -18.5q-26 0 -44.5 16.5t-18.5 42.5q0 36 15 36q3 0 3 -3t-3 -14q-3 -10 -3 -18q0 -22 14 -37.5t36 -15.5q28 0 46.5 20t28 49
t9.5 56q0 49 -25.5 86.5t-72.5 37.5q-43 0 -76 -29t-51.5 -74.5t-18.5 -95.5q0 -38 13.5 -72t39 -55t62.5 -21q52 0 88 27.5t59 74t36.5 104.5t21.5 118q5 40 10.5 80t14.5 79q14 56 33 102t47 76q-37 5 -79.5 20t-95.5 15q-54 0 -97 -22t-68 -61.5t-25 -92.5
q0 -49 27.5 -86t75.5 -37q35 0 64 15t46.5 41.5t17.5 60.5q0 26 -13 44.5t-38 18.5q-34 0 -40 -28q0 -3 -4 -3q-2 0 -4 2q-1 16 15.5 28t33.5 12q31 0 48.5 -21.5t17.5 -53.5q0 -39 -20 -67.5t-53 -44.5t-72 -16q-58 0 -94.5 39.5t-36.5 97.5q0 59 31 101.5t82 65t109 22.5
q47 0 182 -40q47 42 91 42q34 0 34 -21q0 -15 -14.5 -23.5t-35.5 -12t-43 -2.5q-5 -22 -5 -50q0 -37 6 -81t17 -96q10 -43 20.5 -86.5t20.5 -87.5q3 -11 6 -36t5.5 -53.5t2.5 -51.5q7 9 18 38t23.5 70t26.5 86.5t26.5 89t23.5 77.5t18 50q75 177 170 177h8q20 18 41.5 28.5
t44.5 10.5q41 0 41 -30q0 -35 -53 -35q-15 0 -30 4.5t-30 7.5q-21 -30 -36 -75t-25 -97t-15 -103t-5 -94q0 -205 66 -267q19 -17 37 -17q24 0 40.5 21t16.5 45q0 19 -9 28l-9 9q0 3 4 3q27 0 27 -39q0 -22 -12.5 -41.5t-32.5 -32t-42 -12.5q-32 0 -58 22q-86 69 -86 284
q0 47 7 99.5t21 103.5t35 94t49 71q-59 2 -121 -126q-12 -25 -29 -72t-35.5 -104t-36.5 -112.5t-33 -98.5t-25 -61q-14 -27 -20.5 -38t-11.5 -11q-9 0 -12.5 10t-5.5 20q-4 21 -9.5 43.5t-15.5 56.5q-59 204 -59 367q0 47 17 98q-52 -49 -83 -183q-11 -47 -16 -101l-10 -108
t-15 -102t-31 -83q-26 -43 -70 -68t-94 -25zM954 644q37 0 37 22t-29 22q-36 0 -60 -32q13 -4 28 -8t24 -4zM509 620q18 0 37.5 7t19.5 21q0 15 -20 15q-17 0 -32.5 -13t-20.5 -29q2 -1 6.5 -1h9.5z" />
    <glyph glyph-name="N" unicode="N" horiz-adv-x="976" 
d="M248 -63q-62 0 -114 28.5t-82.5 77.5t-30.5 111q0 68 37 121q-46 58 -46 142q0 87 44 148t119 92.5t168 31.5q44 0 86.5 -9.5t91 -26t111.5 -38.5q16 16 40 21.5t43 5.5t31 -6.5t12 -20.5q0 -12 -11 -20t-31 -8q-12 0 -27.5 3.5t-31.5 7.5q-5 -13 -5 -31q0 -44 12 -81
t32.5 -76t47.5 -90q30 -53 54.5 -103t39.5 -91t15 -69q0 -41 -14 -69q23 14 36.5 48.5t19.5 105t6 192.5q0 63 4.5 122.5t18 107t41.5 76t76 28.5q38 0 61.5 -26.5t23.5 -69.5q0 -21 -4 -41.5t-15 -37.5q-24 -38 -74 -38q-13 0 -13 6q0 5 13 5q20 0 36.5 8.5t26.5 25.5
q16 28 16 71q0 34 -18.5 60t-53.5 26q-36 0 -59.5 -28.5t-37 -76t-18.5 -104t-5 -113.5q0 -97 -4 -169t-20 -119t-54 -71q-1 -1 -7 -1q-4 0 -8.5 1t-4.5 2q3 2 5 10.5t2 15.5q0 15 -6 31q-21 51 -56.5 114.5t-70.5 127.5q-33 63 -57.5 121t-24.5 100q0 54 23 106
q-33 -22 -51 -90q-15 -57 -19 -117.5t-9 -122t-23 -120.5t-60 -112q-39 -48 -98.5 -76.5t-128.5 -28.5zM251 -48q63 0 117 34.5t98 108.5q26 43 41 96.5t25 111.5t19.5 115t23.5 106q17 61 48 85q-79 21 -142.5 36.5t-119.5 15.5q-92 0 -164.5 -28.5t-114 -85t-41.5 -139.5
q0 -63 33 -113q49 55 125 55q55 0 96 -29.5t57 -81.5q89 62 89 162q0 41 -17.5 73.5t-48 52t-70.5 19.5q-47 0 -82 -28.5t-35 -74.5q0 -42 34 -61q9 0 9 -5q0 -2 -5 -4q-4 0 -14 5q-37 22 -37 70q0 52 36 84t88 32q71 0 114.5 -42t43.5 -113q0 -122 -101 -188
q1 -9 1.5 -15.5t0.5 -11.5q0 -50 -28 -85q-30 -39 -77 -39q-13 0 -22.5 2t-9.5 6q0 6 6 6q2 0 7 -0.5t12 -0.5q42 0 69 31t27 74q0 8 -0.5 14t-1.5 10q-22 -12 -47.5 -18t-57.5 -6q-95 0 -160 68q-27 -45 -27 -99q0 -61 25 -107.5t71 -72t107 -25.5zM714 597q13 0 22 4.5
t9 12.5q0 10 -9.5 14.5t-21.5 4.5q-35 0 -51 -25l32 -8t19 -3zM235 204q52 0 101 27q-12 47 -47 76t-83 29q-70 0 -118 -60q63 -72 147 -72z" />
    <glyph glyph-name="O" unicode="O" horiz-adv-x="659" 
d="M310 -38q-90 0 -153 41.5t-96 112.5t-33 160q0 126 58 222q-64 53 -64 112q0 46 31 70.5t78 24.5q52 0 81 -29q5 -5 5 -8q0 -2 -3 -2h-4q-18 14 -37.5 21.5t-40.5 7.5q-40 0 -64 -21.5t-25 -61.5q0 -54 52 -99q94 139 275 139q63 0 106 -23q49 -31 49 -89q93 -78 93 -219
q0 -105 -37.5 -186t-106.5 -127t-164 -46zM317 435q41 0 80 9.5t67 29.5t37 51q-39 42 -88 42q-24 0 -41 -8t-32 -21q-5 0 -5 7q0 14 14.5 22.5t33 12.5t31.5 4q22 0 44 -5.5t44 -22.5q-16 84 -133 84q-71 0 -138 -46q-60 -43 -95 -110q41 -22 87 -35.5t94 -13.5zM315 -22
q59 0 106 28t80 77t50 111t17 129q0 118 -55 186q-24 -48 -76 -70t-114 -22q-49 0 -102.5 13t-92.5 38q-21 -41 -31 -86.5t-10 -95.5q0 -59 15 -114t44 -99t71.5 -69.5t97.5 -25.5z" />
    <glyph glyph-name="P" unicode="P" horiz-adv-x="567" 
d="M145 -36q-85 0 -85 62q0 34 20 34q6 0 6 -10v-5t-1 -8t-1 -9v-6q0 -42 55 -42q90 0 136 145q7 22 18 76t25 142q17 98 42 167.5t60 109.5q-22 8 -50.5 13t-61.5 5q-78 0 -139.5 -33t-97 -89.5t-35.5 -129.5q0 -38 13 -72t38 -55t60 -21t61.5 20t41 52.5t14.5 71.5
t-16 69.5t-53 30.5q-28 0 -46.5 -19.5t-18.5 -47.5q0 -29 21 -31q6 0 10 3q5 0 5 -4q0 -9 -17 -9q-13 0 -24.5 12t-11.5 28q0 32 26 56.5t58 24.5q31 0 51 -18t30 -46t10 -57q0 -68 -43.5 -110.5t-111.5 -42.5q-43 0 -73.5 23.5t-46 61t-15.5 79.5q0 84 42 143t112 90.5
t153 31.5q73 0 127 -19q41 41 85 41q16 0 16 -6q0 -5 -11 -5q-40 0 -69 -35q152 -55 152 -174q0 -42 -22 -75.5t-58.5 -58t-80 -37.5t-85.5 -14q-15 -115 -47 -177q-42 -83 -134 -120q-15 -6 -33 -6zM359 279q58 3 104 23t73 57.5t27 93.5q0 109 -121 159q-61 -91 -83 -333z
" />
    <glyph glyph-name="Q" unicode="Q" horiz-adv-x="654" 
d="M592 -91q-50 0 -96 23t-78 48q-49 -18 -108 -18q-90 0 -153 41.5t-96 112.5t-33 160q0 126 58 222q-64 53 -64 112q0 46 31 70.5t78 24.5q52 0 81 -29q5 -5 5 -8q0 -2 -3 -2h-4q-18 14 -37.5 21.5t-40.5 7.5q-40 0 -64 -21.5t-25 -61.5q0 -54 52 -99q94 139 275 139
q63 0 106 -23q49 -31 49 -89q93 -78 93 -219q0 -121 -49 -209.5t-138 -126.5q23 -19 62 -41t97 -22q26 0 52 10.5t46 33.5q3 0 4.5 -3.5t1.5 -5.5q-18 -24 -45.5 -36t-56.5 -12zM317 435q41 0 80 9.5t67 29.5t37 51q-39 42 -88 42q-24 0 -41 -8t-32 -21q-5 0 -5 7
q0 14 14.5 22.5t33 12.5t31.5 4q22 0 44 -5.5t44 -22.5q-16 84 -133 84q-71 0 -138 -46q-60 -43 -95 -110q41 -22 87 -35.5t94 -13.5zM412 1q50 26 84.5 75.5t53 113.5t18.5 133q0 116 -55 186q-24 -48 -76 -70t-114 -22q-49 0 -102.5 13t-92.5 38q-20 -40 -30 -83.5
t-11 -90.5q-1 -46 7.5 -90t25.5 -82q20 19 61 19q35 0 65.5 -13.5t69 -44t96.5 -82.5zM315 -22q46 0 85 18q-73 62 -120.5 94.5t-88.5 32.5q-18 0 -33 -9t-23 -23q29 -50 74.5 -81.5t105.5 -31.5z" />
    <glyph glyph-name="R" unicode="R" horiz-adv-x="593" 
d="M627 -73q-54 0 -95 39.5t-66 120.5l-32 104q-26 63 -74 69l-24 3q-8 -132 -30 -184q-38 -92 -139 -107q-2 0 -5 -1h-5q-26 0 -46 14t-20 39q0 13 7 13q5 0 5 -15q0 -18 20 -29q17 -9 36 -9q58 0 89 63q11 23 20 56.5t14 76.5q2 30 5 60l6 60q21 187 90 266q-22 5 -43 6.5
t-41 1.5q-79 0 -144 -28.5t-103 -80t-38 -122.5q0 -55 31 -91.5t86 -36.5q33 0 58.5 18t40 47t14.5 61q0 38 -22 64.5t-59 26.5q-24 0 -42 -16.5t-18 -40.5q0 -13 7.5 -22t19.5 -9q6 0 6 -4q0 -5 -5 -5q-17 0 -27.5 9.5t-10.5 28.5q0 30 20 48.5t50 18.5q44 0 71.5 -28.5
t27.5 -72.5q0 -37 -17 -68t-47 -49.5t-70 -18.5q-73 0 -107.5 42.5t-34.5 106.5q0 75 42.5 127.5t112.5 80t151 27.5q25 0 49.5 -2.5t49.5 -7.5q35 35 79 35q17 0 25.5 -5t8.5 -8q0 -4 -2 -4q-5 2 -11.5 4t-13.5 2q-39 0 -63 -29q14 -3 35.5 -10.5t44.5 -19t39 -29.5
q35 -40 35 -91q0 -76 -69 -117q-57 -33 -139 -33q99 -5 161 -169q22 -58 51 -97q44 -57 87 -57q40 0 40 46q0 9 4 9q7 0 7 -18t-13 -31t-32 -20.5t-38 -7.5zM337 278q18 1 34.5 3t30.5 5q56 12 90 49q39 41 39 94q0 100 -124 130q-39 -57 -54 -135q-2 -10 -6 -47t-10 -99z
" />
    <glyph glyph-name="S" unicode="S" horiz-adv-x="507" 
d="M222 -53q-61 0 -113 22t-84 63t-32 98q0 48 26 87.5t69 63.5t93 24q41 0 76 -18.5t56.5 -49t21.5 -67.5q0 -32 -17 -60t-45 -45t-61 -17q-42 0 -60.5 20.5t-18.5 41.5q0 20 13.5 36t30.5 16q6 0 6 -5l-15 -10q-8 -5 -11.5 -14t-3.5 -19q0 -14 6 -26q14 -27 53 -27
q32 0 54 17.5t34 45t12 56.5q0 33 -19 59t-49.5 40.5t-67.5 14.5q-46 0 -81.5 -22.5t-55.5 -59.5t-20 -82q0 -51 28 -89t74.5 -58.5t101.5 -20.5q54 0 100.5 20.5t74.5 58.5t28 89q0 56 -28.5 94.5t-81.5 72.5t-126 77q-73 42 -73 115q0 41 24.5 74.5t63.5 53t84 19.5
q60 0 101 -32q43 -34 43 -91q0 -37 -24.5 -63t-64.5 -26q-33 0 -49.5 17.5t-16.5 35.5q0 21 11.5 34t30.5 13q16 0 23.5 -9t7.5 -20q0 -5 -5 -5t-5 4q0 18 -18 18q-30 0 -30 -34q0 -17 13.5 -30.5t38.5 -13.5q32 0 50.5 24t18.5 52q0 50 -37 81.5t-91 31.5q-51 0 -90 -27
q-43 -28 -43 -76q0 -58 62 -94q79 -45 136 -82.5t88 -80.5t31 -106q0 -66 -34.5 -113t-91 -72t-122.5 -25z" />
    <glyph glyph-name="T" unicode="T" horiz-adv-x="610" 
d="M223 -34q-57 0 -104 22.5t-75.5 63.5t-28.5 96q0 46 22 77.5t53.5 48t62.5 16.5q44 0 74.5 -22.5t30.5 -71.5q0 -37 -24 -61t-62 -24q-9 0 -9 7q0 8 8 8q5 0 11.5 2t10.5 3q40 15 40 63q0 41 -22.5 60t-57.5 19q-23 0 -47 -15t-40 -43t-16 -67q0 -72 45 -115.5t131 -43.5
q59 0 104.5 26.5t79 72.5t54.5 103q17 46 26 95.5t17.5 99t21.5 94t36 80.5q-85 31 -145.5 46.5t-97.5 15.5q-71 0 -116.5 -42t-45.5 -112q0 -47 28 -79.5t77 -32.5q29 0 55 13t43 35t17 49v6q-1 1 -1 2.5t-1 2.5q-1 2 -1 5q0 4 7 9q14 0 14 -30q0 -34 -19.5 -59.5
t-51 -39.5t-68.5 -14q-64 0 -97 41t-33 104q0 53 24 93t66 62.5t96 22.5q40 0 78.5 -9.5t84 -26.5t103.5 -40q17 22 38.5 33.5t32.5 11.5q14 0 14 -12q-3 0 -10.5 -0.5t-16.5 -4.5t-17 -10.5t-22 -24.5q51 -22 98 -34t93 -12q20 0 46.5 4.5t46.5 12.5t20 18q0 12 9 12
q2 0 5.5 -2.5t3.5 -9.5q0 -22 -35.5 -37t-95.5 -15q-102 0 -204 40q-16 -30 -24.5 -77t-14 -101t-12.5 -107t-21 -94q-32 -91 -103 -149t-189 -58z" />
    <glyph glyph-name="U" unicode="U" horiz-adv-x="658" 
d="M631 -103q-43 0 -64 34.5t-27.5 91.5t-6.5 124q0 27 3.5 59t8.5 63.5t9 55.5q-20 -72 -40.5 -134.5t-47 -109.5t-61.5 -73.5t-83 -26.5q-49 0 -69.5 28.5t-20.5 74.5q0 43 13.5 95.5t33.5 107.5q17 47 26.5 92.5t9.5 85.5q0 67 -30.5 110.5t-100.5 43.5q-56 0 -104.5 -29
t-78 -76.5t-29.5 -104.5q0 -39 14.5 -73t42 -54.5t64.5 -20.5q46 0 75 29t29 75v11q0 8 6 8t6 -19q0 -54 -36 -86.5t-86 -32.5q-46 0 -78.5 22.5t-50 59t-17.5 76.5q0 46 20 87t53.5 72t77 49t89.5 18q95 0 140 -46t45 -123q0 -69 -35 -157q-24 -62 -44 -126t-20 -111
q0 -33 13.5 -53t45.5 -20q46 0 79 32t58.5 88t48.5 129.5t49 157.5q9 25 25 49.5t38 40.5t49 16q33 0 33 -15q0 -9 -15 -9q2 0 -4.5 0.5t-13.5 0.5q-55 0 -76 -87q-11 -45 -16.5 -100t-5.5 -131q0 -84 10.5 -143.5t30.5 -90.5q11 -17 24 -17q7 0 14.5 8t11.5 22q7 0 7 -6
q0 -19 -14 -30.5t-28 -11.5z" />
    <glyph glyph-name="V" unicode="V" horiz-adv-x="777" 
d="M434 -43q-20 0 -20 12q22 9 36.5 38t21.5 70t7 86q0 64 -10 133.5t-28.5 129t-43.5 92.5q-55 75 -133 75q-60 0 -108.5 -28.5t-76.5 -77t-28 -109.5q0 -70 32 -114t97 -44q46 0 75 30t29 76q0 11 -3.5 25.5t-5.5 22.5v2q0 6 6 6t10 -11.5t6 -26t2 -24.5q0 -52 -37 -83.5
t-89 -31.5q-46 0 -81.5 24t-56 63.5t-20.5 84.5q0 105 73 169q71 62 175 62q61 0 113 -30q50 -29 80.5 -80t44.5 -112.5t14 -122.5q0 -51 -5.5 -108t-20 -105.5t-42.5 -77.5q43 5 83 44t75.5 97.5t62.5 120.5q32 74 58.5 133t46.5 91q44 71 85.5 100t81.5 29
q36 0 58.5 -19.5t22.5 -54.5q0 -25 -8.5 -37t-16.5 -12q-10 0 -10 9q8 3 12.5 9.5t4.5 19.5q0 62 -60 62q-53 0 -92 -41t-79 -120.5t-96 -193.5q-124 -252 -242 -252z" />
    <glyph glyph-name="W" unicode="W" horiz-adv-x="973" 
d="M315 -55q-20 0 -31 9.5t-11 21.5q0 11 8.5 21.5t26.5 16.5q28 10 64 14t61 11q65 91 65 240q0 70 -12 134t-38.5 113.5t-69 78t-103.5 28.5q-62 0 -112.5 -33t-80.5 -86.5t-30 -115.5q0 -63 21 -114t61.5 -81.5t100.5 -30.5q53 0 89.5 26.5t55.5 67t19 81.5
q0 34 -13.5 63.5t-40.5 48t-70 18.5q-34 0 -57.5 -15t-36 -38t-12.5 -47q0 -28 19.5 -50.5t59.5 -22.5q8 0 16.5 2.5t10.5 2.5q5 0 5 -6q-4 -4 -13.5 -7t-18.5 -3q-49 0 -72.5 25.5t-23.5 59.5q0 27 15.5 54t45 44.5t72.5 17.5q50 0 82.5 -20t48 -52.5t15.5 -69.5
q0 -45 -22.5 -89.5t-66 -74t-107.5 -29.5t-113.5 31t-78 83t-28.5 116q0 74 35 133.5t94.5 94t132.5 34.5q87 0 148 -44.5t92.5 -120t31.5 -170.5q0 -77 -18 -142t-60 -122q44 21 72 57.5t46 83t32 96t29.5 97t38.5 86.5q41 65 82 65q9 0 22 -3.5t20 -13.5q0 -10 -11 -12
q-17 -14 -17 -49q0 -4 1.5 -26t4 -51t4 -54.5t1.5 -36.5q0 -91 -26 -164t-85 -146q56 17 104.5 88.5t81.5 188.5q21 74 45.5 150t53 145t62.5 124t73 86.5t84 31.5q30 0 49 -15t19 -39q0 -7 -5 -7t-7 8q-3 14 -15 27t-42 13q-41 0 -71 -31t-54 -80.5t-49 -104.5
q-34 -74 -63.5 -152t-55.5 -161q-40 -127 -90.5 -196t-121.5 -92q-3 -1 -6.5 -2t-7.5 -1q-10 0 -10 9q0 8 14 33q76 130 76 306q0 25 -0.5 46.5t-0.5 39.5q0 41 6.5 70.5t28.5 55.5q-8 2 -11 2q-28 0 -61 -56t-65 -167q-20 -68 -41.5 -121t-55 -91t-91.5 -61
q-36 -43 -71.5 -63t-71.5 -20zM329 -37q19 0 44.5 16.5t50.5 41.5q-24 -5 -53 -9t-49 -11q-19 -6 -19 -21q0 -7 6.5 -12t19.5 -5z" />
    <glyph glyph-name="X" unicode="X" horiz-adv-x="717" 
d="M149 -63q-28 0 -53 15t-25 40q0 21 9 21q4 0 4 -13q0 -23 22.5 -35.5t43.5 -12.5q26 0 57 15t50 29q41 29 78.5 75.5t72 104t66.5 115.5q-17 62 -35.5 117t-42.5 97.5t-56.5 67t-77.5 24.5q-49 0 -88 -22t-66 -57.5t-41.5 -77.5t-14.5 -82q0 -56 29.5 -97t93.5 -41
q46 0 79.5 28.5t33.5 77.5q0 14 -1 24.5t-1 13.5q2 6 6 6q7 0 9 -18t2 -32q0 -33 -19.5 -59t-50.5 -41t-66 -15q-52 0 -84.5 21t-48.5 55.5t-16 74.5q0 43 16.5 87.5t49 82.5t78.5 61t104 23q158 0 241 -260q152 272 260 272q75 0 75 -68q0 -67 -31 -67q-6 0 -6 4q0 6 7 9
q10 6 10 36q0 51 -54 51q-52 0 -96 -43q-33 -33 -58 -65.5t-47.5 -69.5t-50.5 -85q14 -56 29.5 -116.5t35 -112.5t45 -84t59.5 -32q22 0 37.5 16.5t17.5 39.5q0 7 5 7q7 0 7 -11q0 -18 -13.5 -34t-33.5 -25.5t-39 -9.5q-53 0 -84.5 39.5t-53.5 108.5t-46 156
q-45 -70 -84.5 -130t-78 -104.5t-80 -69.5t-90.5 -25z" />
    <glyph glyph-name="Y" unicode="Y" horiz-adv-x="800" 
d="M861 -356q-61 0 -107 10t-87 28t-88 40q-38 -34 -97 -53t-116 -19q-76 0 -125 25t-73 66t-24 87q0 40 27 62t73 22q29 0 86.5 -17.5t144.5 -66.5q16 -9 41.5 -23.5t48.5 -27.5t30 -18q33 50 52 91t27.5 85t9.5 102l2 153q1 21 4 47t7 51t7 41q-15 -65 -32.5 -125
t-42 -107.5t-58 -75t-80.5 -27.5q-52 0 -74.5 27t-22.5 80q0 35 10 75t23.5 83.5t23.5 89.5t10 93q0 87 -42 138t-121 51q-44 0 -86 -20t-76 -53t-54 -74.5t-20 -83.5q0 -40 11 -73t32 -60q23 -29 55 -46.5t72 -17.5q42 0 75.5 23t53 59t19.5 76q0 48 -32.5 79.5t-81.5 31.5
q-45 0 -67.5 -26t-22.5 -56q0 -25 17.5 -45.5t52.5 -20.5q5 0 12 1t12 4q0 -10 -8.5 -14t-22.5 -4q-43 0 -63.5 22.5t-20.5 50.5q0 25 14 49t41.5 40t66.5 16q60 0 96.5 -37t36.5 -97q0 -45 -25.5 -82t-66.5 -59t-89 -22q-57 0 -102 27t-71 72.5t-26 100.5q0 69 34.5 126.5
t95 91.5t138.5 34q45 0 84 -18t69 -48.5t47 -68.5t17 -78q0 -61 -13 -109.5t-30 -87t-30 -71.5t-13 -65q0 -42 13 -65.5t40 -23.5q47 0 80.5 28t56 73t38 95.5t25.5 95.5q14 61 26.5 93.5t24.5 48t24 23.5q25 16 58 16q30 0 30 -17q0 -4 -10 -8t-4 -3l2 -1h-1l-1 1h-20
q-28 0 -50 -20t-33 -52q-6 -16 -8 -35t-2 -41q0 -41 5.5 -88.5t11 -96.5t5.5 -95q0 -67 -17 -115.5t-40.5 -80.5t-45 -51t-30.5 -28q74 -37 141 -62.5t111 -25.5q56 0 96 25t40 73q0 4 -1.5 22t-4.5 27q-1 2 -1 5q0 6 6 6q7 0 9 -6q5 -11 6.5 -22.5t1.5 -24.5
q0 -42 -24.5 -69.5t-59.5 -41t-66 -13.5zM368 -328q53 0 105.5 14.5t90.5 45.5q-9 5 -34 17.5t-52.5 26.5t-47.5 24q-59 32 -110 53t-91 21q-33 0 -51.5 -11.5t-18.5 -34.5q0 -36 26 -72t73.5 -60t109.5 -24z" />
    <glyph glyph-name="Z" unicode="Z" horiz-adv-x="580" 
d="M190 -340q-46 0 -81.5 19t-35.5 62q0 34 25.5 58.5t69.5 42.5t99 30.5t115 21.5t117 17q16 45 16 92q0 101 -58 144q-32 -36 -73 -59t-74 -23q-35 0 -51.5 12.5t-16.5 29.5q0 21 19 43t53 37.5t79 15.5q24 0 45 -6q30 41 44.5 86t14.5 88q0 55 -22.5 101.5t-65 74.5
t-103.5 28q-63 0 -115.5 -26.5t-84 -73t-31.5 -108.5q0 -61 30 -99t88 -38q48 0 74 25.5t33 71.5q2 2 6 2q7 0 6 -11q-4 -41 -35 -71.5t-87 -30.5q-67 0 -108 43.5t-41 110.5q0 50 22.5 91t60 71t84 46t95.5 16q78 0 132.5 -29t83.5 -79t29 -113q0 -46 -16 -96.5t-51 -101.5
q36 -28 58 -70t22 -98q0 -44 -12 -85q22 4 51.5 13.5t40.5 21.5q1 1 3.5 4.5t2.5 8.5h2q3 0 6.5 -1.5t3.5 -7.5q0 -10 -13 -18.5t-32 -15.5t-38.5 -12t-31.5 -8q-18 -51 -55 -95.5t-86 -79t-104 -53.5t-109 -19zM290 90q44 0 75 25t56 56q-2 2 -20 4t-40 2q-26 0 -48 -12
t-34.5 -28t-12.5 -29q0 -18 24 -18zM191 -326q64 0 124 30.5t107 81t71 110.5q-42 -6 -95 -15t-106.5 -22t-98.5 -31t-72.5 -41t-27.5 -52q0 -20 15 -33.5t37.5 -20.5t45.5 -7z" />
    <glyph glyph-name="bracketleft" unicode="[" horiz-adv-x="372" 
d="M121 -147l70 852h131l-1 -13h-80l-67 -826h79l-2 -13h-130z" />
    <glyph glyph-name="backslash" unicode="\" horiz-adv-x="480" 
d="M447 -14l-401 628h33l399 -628h-31z" />
    <glyph glyph-name="bracketright" unicode="]" horiz-adv-x="372" 
d="M75 -147l1 13h80l67 826h-79l2 13h130l-70 -852h-131z" />
    <glyph glyph-name="asciicircum" unicode="^" horiz-adv-x="384" 
d="M312 544q-30 0 -56 41t-40 41q-7 0 -58 -36q-52 -37 -56 -37q-11 0 -11 7q2 3 3 3q8 5 18.5 11.5t23.5 14.5q31 19 54.5 34.5t39.5 27.5q11 6 16 6q11 0 22 -20q17 -31 25 -39q20 -20 49 -20q13 0 32 6l21 5q1 0 2 -1q0 -2 -5 -7l-38 -24q-22 -13 -42 -13z" />
    <glyph glyph-name="underscore" unicode="_" horiz-adv-x="587" 
d="M56 -100l4 23h458l-4 -23h-458z" />
    <glyph glyph-name="grave" unicode="`" horiz-adv-x="500" 
d="M250 421l-118 65q0 7 10 12t16 5q5 0 21.5 -11.5t36.5 -27t34.5 -27.5t14.5 -13q0 -3 -15 -3z" />
    <glyph glyph-name="a" unicode="a" horiz-adv-x="327" 
d="M95 -1q-28 0 -45 21t-24.5 54t-7.5 67q0 50 13.5 98.5t40 80.5t65.5 32q56 0 63 -85l9 82q3 -1 9 -1q19 0 31 22q1 4 4 4q4 0 5 -6l-21 -178q-6 -51 -6 -99q0 -38 5.5 -57t20.5 -19q17 0 31 15.5t25 40t19.5 51.5t12.5 50q2 11 7 11q6 0 5 -11q-8 -41 -20 -80.5t-33 -65
t-55 -25.5q-24 0 -37.5 18.5t-18.5 46t-5 54.5q-29 -110 -79 -120q-4 -1 -7 -1h-7zM104 12q22 3 38.5 30t28 64.5t16.5 71.5q3 21 3 46q0 28 -4.5 54.5t-14.5 44t-28 17.5q-17 0 -31.5 -21t-25 -53.5t-16.5 -67t-6 -61.5t4 -57t13 -50t23 -18z" />
    <glyph glyph-name="b" unicode="b" horiz-adv-x="290" 
d="M105 -3q-38 0 -55.5 25t-22 64t-4.5 80q0 6 -5 6q2 70 14.5 136t31.5 124q16 52 36.5 94t45.5 74q45 58 83 58q44 0 44 -59q0 -44 -18.5 -91.5t-48 -91t-63.5 -78.5t-65 -53q-15 -94 -15 -157q0 -118 49 -118q25 0 44 34.5t33 110.5q-13 21 -18.5 46.5t-5.5 56.5
q0 37 17 45q27 5 27 -62q0 -20 -3 -50l-2 -27q8 -23 22 -34.5t30 -11.5q18 0 33 14t19 40q2 6 7 6q7 0 5 -6q-4 -32 -23.5 -49.5t-42.5 -17.5q-16 0 -31 9.5t-24 30.5q-9 -77 -30 -112.5t-64 -35.5zM84 304q29 23 59 58t56 76.5t42 83.5t16 80q0 20 -4 31t-18 11
q-56 0 -103 -141q-30 -90 -48 -199z" />
    <glyph glyph-name="c" unicode="c" horiz-adv-x="231" 
d="M120 -3q-42 0 -64 25.5t-30 64t-8 76.5q0 49 15 92.5t42.5 71t63.5 27.5q61 0 61 -73q0 -16 -4 -35t-12 -32.5t-22 -13.5q-16 0 -16 18t10 29t20 21t10 23q0 45 -33 45q-20 0 -36 -18t-27.5 -47.5t-18 -63.5t-6.5 -66q0 -35 5 -65t18 -47.5t37 -17.5q32 0 57 24t42.5 61
t24.5 76q2 9 7 9q7 0 5 -9q-8 -44 -26.5 -84.5t-47 -65.5t-67.5 -25z" />
    <glyph glyph-name="d" unicode="d" horiz-adv-x="326" 
d="M98 -4q-37 0 -59 42t-22 109q0 73 31 134q35 68 89 68q34 0 50 -27q15 -24 15 -61l49 297q4 -1 7.5 -1.5t7.5 -0.5q22 0 34 23q2 2 3 2q6 0 4 -6q-4 -13 -17 -70t-33 -158q-4 -20 -7 -39.5t-6 -37.5q-7 -46 -13.5 -96.5t-6.5 -89.5q0 -33 6 -53.5t21 -20.5t32 15.5
t33 54.5q10 23 17.5 49.5t10.5 42.5q1 7 7 7t5 -7q-7 -30 -14.5 -54.5t-15.5 -44.5q-17 -40 -36 -58t-39 -18q-33 0 -47.5 32.5t-16.5 91.5q-28 -125 -89 -125zM106 9q16 2 31.5 25.5t28.5 60.5t19 79q2 14 4 27.5t2 27.5q0 45 -13 76.5t-36 31.5q-19 0 -33.5 -23t-25 -57
t-16 -69.5t-5.5 -59.5q0 -28 5 -57t14.5 -47t24.5 -15z" />
    <glyph glyph-name="e" unicode="e" horiz-adv-x="217" 
d="M108 0q-31 4 -51.5 24.5t-30.5 51.5t-10 65q0 90 41 154q36 55 78 55q25 0 36 -15.5t11 -41.5q0 -35 -16 -70t-43.5 -57.5t-62.5 -22.5q0 -120 50 -129q4 -1 11 -1q37 0 67.5 41.5t46.5 117.5q2 10 7 10q6 0 5 -10q-42 -183 -139 -172zM61 155q27 0 51.5 20.5t40 52.5
t15.5 66q0 40 -26 40q-15 0 -29.5 -17.5t-26 -45.5t-18.5 -58.5t-7 -57.5z" />
    <glyph glyph-name="f" unicode="f" horiz-adv-x="241" 
d="M113 -321q-48 0 -72 81t-24 222q0 44 2.5 91t6.5 93q-2 0 -5.5 1t-2.5 5q18 121 42 225t58 174q48 97 105 97q56 0 56 -75q0 -38 -16 -88.5t-44 -108.5t-64 -117.5t-76 -114.5q-1 -7 -2.5 -30.5t-3 -55t-2.5 -64.5t-2 -59.5t-1 -38.5q0 -222 52 -222q20 0 32.5 27
t18.5 65t6 72q0 59 -16.5 100.5t-35.5 62.5q-13 0 -30 7.5t-17 24.5q0 11 13 11q21 0 45 -33q53 0 81.5 38.5t41.5 102.5q2 7 7 7q7 0 5 -7q-14 -83 -49.5 -117t-79.5 -34q50 -58 50 -163q0 -41 -7.5 -82.5t-25 -69t-46.5 -27.5zM79 193q31 44 63.5 97t60.5 108.5t45 106.5
t17 90q0 23 -6.5 39.5t-29.5 16.5q-52 0 -101 -199q-13 -55 -25.5 -120t-23.5 -139z" />
    <glyph glyph-name="g" unicode="g" horiz-adv-x="278" 
d="M73 -262q-31 0 -45 15.5t-14 40.5q0 34 20.5 66.5t45.5 59.5q18 19 40.5 38.5t42.5 34t27 18.5v110q-27 -120 -84 -120q-33 0 -52.5 21.5t-27.5 56.5t-8 73q0 48 12.5 93.5t39 75t67.5 29.5q26 0 41 -17.5t21 -59.5q11 77 30 99q10 13 20 13q13 0 13 -13q0 -7 -13 -22
q-10 -11 -16 -20t-11 -24q-7 -18 -11.5 -49.5t-4.5 -73.5q0 -38 2 -84t3 -75q29 20 51.5 56t33.5 92q2 8 8 8t4 -8q-15 -68 -39 -103.5t-57 -54.5l3 -58q0 -57 -16.5 -107t-48 -80.5t-77.5 -30.5zM110 15q19 0 34 23.5t25.5 58.5t16 71.5t5.5 61.5q0 50 -11.5 79.5
t-37.5 29.5q-18 0 -32 -17.5t-24 -46.5t-15 -62t-5 -65q0 -133 44 -133zM66 -238q36 0 63.5 33.5t42.5 79.5q8 23 13.5 52.5t5.5 70.5q-6 -5 -24.5 -19.5t-40 -32.5t-36.5 -35q-23 -25 -42 -55.5t-19 -57.5q0 -36 37 -36z" />
    <glyph glyph-name="h" unicode="h" horiz-adv-x="286" 
d="M16 -19q-4 0 -4 7q0 63 4 139t14 154.5t25.5 150.5t37.5 129t50 90.5t63 33.5q54 0 54 -84q0 -52 -24 -103.5t-65 -91.5t-93 -59q-2 -12 -6 -32q-7 -41 -10 -71t-3 -50q41 168 105 168q34 0 46 -22t12 -55q0 -26 -4.5 -55.5t-9.5 -58.5q-9 -46 -13 -77t-4 -51
q0 -25 5.5 -34t14.5 -9q31 0 65 80q10 23 17.5 49.5t10.5 42.5q1 7 7 7t5 -7q-7 -30 -14.5 -54.5t-15.5 -44.5q-17 -40 -37.5 -64t-45.5 -24t-40.5 18.5t-15.5 62.5q0 35 9 76t18 78t9 60q0 59 -27 59q-17 0 -31 -19.5t-24.5 -47t-18.5 -52.5q-9 -32 -15.5 -71.5t-10 -77
t-5.5 -65.5h-1q-4 0 -10.5 -3.5t-11.5 -8.5q-7 -7 -8.5 -10t-3.5 -3zM80 365q46 16 83.5 54.5t60 87t22.5 92.5q0 32 -11 53t-28 21t-33 -21t-30.5 -55.5t-27 -75.5t-21.5 -82t-15 -74z" />
    <glyph glyph-name="i" unicode="i" horiz-adv-x="176" 
d="M91 0q-43 0 -59.5 35.5t-16.5 84.5q0 35 6 71q12 72 27 156q9 -3 15 -3q20 0 32 24q2 5 6 5t3 -7q-4 -16 -13 -58.5t-24 -110.5q-5 -25 -8.5 -52.5t-3.5 -51.5q0 -34 9 -58t31 -24q30 0 49 26t31 63.5t19 71.5q1 7 7 7q5 0 5 -7q-19 -91 -45.5 -131.5t-69.5 -40.5z
M86 430q-13 0 -21.5 8.5t-8.5 21.5q0 14 10.5 24t24.5 10q12 0 20.5 -8.5t8.5 -21.5q0 -14 -10 -24t-24 -10z" />
    <glyph glyph-name="j" unicode="j" horiz-adv-x="164" 
d="M-120 -285q-54 0 -54 45q0 34 24.5 69t65.5 72.5t90 78.5l19 187q0 3 -4 2.5t-3 2.5q8 41 14 86t10 85q11 -3 16 -3q16 0 28 23q2 5 5 5q4 0 3 -8l-38 -344q45 28 79 63.5t47 92.5q1 6 7 6q5 0 5 -6q-9 -43 -29 -73t-47.5 -52.5t-61.5 -44.5q0 -52 -10 -103t-31.5 -92.5
t-55 -66.5t-79.5 -25zM-122 -272q38 0 69 36.5t45 102.5q5 26 8 49t3 42q-43 -33 -80 -67.5t-60 -67.5t-23 -64q0 -17 9.5 -24t28.5 -7zM70 430q-13 0 -21.5 8.5t-8.5 21.5q0 14 10.5 24t24.5 10q12 0 20.5 -8.5t8.5 -21.5q0 -14 -10 -24t-24 -10z" />
    <glyph glyph-name="k" unicode="k" horiz-adv-x="279" 
d="M7 -7q-5 0 -5 8q4 71 18 187q8 68 19.5 137.5t27.5 132t37.5 111.5t49.5 77.5t64 28.5q56 0 56 -63q0 -35 -16 -77t-43 -82.5t-59.5 -70t-66.5 -38.5q-24 -106 -36 -205q4 13 9 31t12 43q15 46 37 83t47.5 59.5t49.5 22.5q47 0 47 -52q0 -32 -20 -56t-50 -39t-60 -21
q14 0 24 -13q15 -20 21 -65l4 -42t4 -41q2 -18 9.5 -26t17.5 -8q18 0 33 17t27 42t20.5 52t11.5 46q2 8 6 8q5 0 5.5 -3t0.5 -5q-9 -46 -24 -85t-37.5 -63.5t-55.5 -24.5q-21 0 -38.5 12.5t-24.5 34.5q-5 18 -6.5 43t-1.5 48t-1 33q-1 20 -7.5 29t-24.5 10l-2 -7
q-46 -159 -46 -197l-13 1q-11 2 -16 -11q-1 -2 -4 -2zM93 359q27 9 56.5 37t54 65.5t40 76.5t15.5 70q0 48 -31 48q-28 0 -52 -38t-49 -125q-6 -22 -14.5 -55t-19.5 -79zM94 220q21 -1 44 10.5t43 29.5t32.5 38t12.5 37t-6 23t-18 6q-18 0 -39.5 -24t-40 -57.5t-28.5 -62.5z
" />
    <glyph glyph-name="l" unicode="l" horiz-adv-x="194" 
d="M108 -3q-39 0 -58 27t-25 70.5t-6 94.5q0 55 7.5 114.5t21 116.5t31 105t38.5 79q34 52 68 52q19 0 26.5 -19.5t7.5 -51.5q0 -40 -10 -91.5t-24 -92.5q-42 -127 -128 -248q0 -34 4.5 -66.5t16.5 -54t33 -21.5q18 0 34.5 17t30.5 43t23.5 53.5t12.5 47.5q2 7 7 7q6 0 5 -7
q-7 -41 -22.5 -81.5t-38.5 -67t-55 -26.5zM57 177q34 46 61 103t49 125q9 28 17.5 64.5t14 73t5.5 61.5q0 17 -3 27t-10 10q-10 0 -21 -18t-30 -62t-33 -86t-22 -81q-13 -59 -19.5 -113t-8.5 -104z" />
    <glyph glyph-name="m" unicode="m" horiz-adv-x="448" 
d="M156 -25h-0.5t-0.5 1q1 6 3 33t4.5 64t5 74.5t4 64.5t1.5 33q0 96 -28 96q-17 0 -31.5 -21.5t-26.5 -55.5t-20 -71t-11 -68q-2 -24 -4.5 -55t-6.5 -69q-26 3 -33 -19q-1 -4 -5 -6q-3 -2 -5 0q-1 2 0 6l32 364q4 -1 10 -1q25 0 39 19q2 3 4 3q5 0 3 -6q-4 -15 -24 -122
q35 123 92 123q26 0 39.5 -18.5t19 -46.5t5.5 -57q7 27 21 55.5t33 47.5t40 19q31 0 46 -24.5t15 -60.5q0 -27 -5.5 -58t-10.5 -61q-5 -33 -9.5 -63t-4.5 -53q0 -19 5 -31t18 -12q18 0 38 27t36 67.5t22 78.5q1 3 2 7t5 4q5 0 5.5 -3.5t-0.5 -7.5q-4 -29 -14 -61.5
t-25.5 -61t-34.5 -46t-41 -17.5q-34 0 -48.5 21t-14.5 60q0 19 3.5 42t8.5 49q7 29 13.5 66t6.5 66q0 23 -6 37t-20 14q-16 0 -31.5 -22.5t-28.5 -57.5t-22 -72.5t-12 -68.5q-5 -60 -12 -119q-25 3 -33 -18q-6 -10 -11 -8z" />
    <glyph glyph-name="n" unicode="n" horiz-adv-x="297" 
d="M2 -24q-1 2 0 6l32 364q4 -1 10 -1q25 0 39 19q2 3 4 3q5 0 3 -6q-2 -8 -8 -40t-16 -94q14 59 41 95t64 36q32 0 43.5 -22t11.5 -55q0 -28 -5.5 -60t-10.5 -63q-5 -33 -9.5 -63t-4.5 -53q0 -19 5 -31t18 -12q18 0 38 27t36 67.5t22 78.5q1 3 2 7t5 4q5 0 5.5 -3.5
t-0.5 -7.5q-4 -29 -14 -61.5t-25.5 -61t-34.5 -46t-41 -17.5q-34 0 -47 21t-13 60t9 91q8 40 15 76.5t7 62.5q0 21 -6.5 33t-23.5 12q-16 0 -30.5 -19t-26.5 -47t-20.5 -56.5t-11.5 -46.5q-7 -36 -11.5 -85.5t-7.5 -86.5q-26 3 -33 -19q-1 -4 -5 -6q-3 -2 -5 0z" />
    <glyph glyph-name="o" unicode="o" horiz-adv-x="287" 
d="M124 -9q-54 0 -80.5 41t-26.5 119q0 38 7.5 69t20.5 56q4 53 31.5 88.5t68.5 35.5q35 0 59 -24.5t36 -64t12 -83.5q0 -38 -5 -70t-16 -62q19 2 41 20t33 56q1 7 7 7t5 -7q-10 -44 -35 -65t-56 -26q-39 -90 -102 -90zM210 94q11 29 15 62.5t4 70.5q0 41 -8.5 77.5t-27 59
t-48.5 22.5q-29 0 -48 -19.5t-26 -54.5q26 27 72 29q33 0 33 -13q0 -7 -8 -4q-13 5 -22 5q-39 0 -63 -70q-8 -24 -8 -47q0 -17 5 -30q18 -46 51 -69t79 -19zM129 6q45 0 76 75q-5 -1 -10 -1h-10q-46 0 -78 29t-43 68q-1 -12 -1 -24v-24q0 -32 5 -60.5t19 -45.5t42 -17z" />
    <glyph glyph-name="p" unicode="p" horiz-adv-x="263" 
d="M-71 -277q-20 0 -37.5 16t-21.5 42q2 12 8 12q5 0 5 -9q14 -45 33 -45q22 0 44 48q11 24 20 55t14 69q9 63 18 192q7 110 24 196q7 35 20 65t30 49t34 19q21 0 21 -17q0 -10 -12 -15q-42 -18 -68 -113q-4 -16 -6.5 -29.5t-3.5 -25.5q17 60 40 85.5t51 25.5
q24 0 41.5 -19.5t27.5 -51.5t10 -71q0 -46 -11.5 -89t-36 -72t-63.5 -34q5 -1 10 -1h10q59 0 96.5 40.5t54.5 126.5q1 6 7 6q5 0 5 -6q-13 -81 -53.5 -129.5t-110.5 -48.5q-31 0 -55.5 10t-29.5 35q0 -48 -2 -87.5t-6 -68.5q-22 -160 -107 -160zM96 15q18 0 33.5 17.5t27 45
t17.5 60t6 62.5q0 27 -4.5 56t-15 49t-28.5 20q-20 0 -35.5 -22t-26 -54.5t-16 -67t-5.5 -60.5q0 -54 11 -80t36 -26z" />
    <glyph glyph-name="q" unicode="q" horiz-adv-x="281" 
d="M212 -279q-63 0 -63 156q0 52 5.5 92t7.5 72q-11 -22 -25.5 -31.5t-33.5 -9.5q-31 0 -50 21.5t-27.5 55t-8.5 69.5q0 73 28 135q34 71 86 71q64 0 66 -103l19 101l-1 1q35 -3 46 20q2 8 7 6q5 0 2 -9l-43 -228l-19 -129q39 17 59 52t32 109q1 7 7 7q3 0 4.5 -2.5
t0.5 -4.5q-13 -73 -31.5 -111t-54.5 -54q64 -23 56 -164q-3 -55 -23 -88.5t-46 -33.5zM109 10q23 0 42 37t27 105q2 21 3.5 40.5t1.5 37.5q0 99 -36 109q-1 1 -5 1q-18 0 -41 -42q-20 -41 -27.5 -81t-10.5 -84q-1 -51 11.5 -87t34.5 -36zM215 -262q16 0 27 22.5t17 53.5
t6 54q0 32 -5.5 61t-18 48t-34.5 19q-2 -15 -5 -43t-5.5 -59t-4 -55.5t-1.5 -33.5q-1 -34 6.5 -50.5t17.5 -16.5z" />
    <glyph glyph-name="r" unicode="r" horiz-adv-x="231" 
d="M146 0q-50 8 -50 72q0 27 9.5 67.5t18.5 81.5q4 17 6 29t2 19q0 26 -24.5 39t-58.5 19q0 -31 -5.5 -71t-13.5 -84q-1 -6 -7 -6q-5 0 -5 6q8 44 12.5 86t4.5 70q-15 5 -24.5 17.5t-9.5 25.5q0 16 7 23.5t16 7.5q10 0 17 -12t7 -36v-14q4 -1 17.5 -4t28 -5.5t19.5 -4.5
q37 -10 51 -22t14 -50q0 -17 -4.5 -39t-14.5 -48q-34 -89 -34 -121q0 -35 29 -35q18 0 34.5 16t32.5 53q10 23 17.5 49.5t10.5 42.5q1 7 7 7t5 -7q-7 -30 -14.5 -54.5t-15.5 -44.5q-34 -80 -85 -73z" />
    <glyph glyph-name="s" unicode="s" horiz-adv-x="242" 
d="M129 1q-20 0 -41 7q-20 -5 -35 -5q-35 0 -54.5 16.5t-19.5 35.5q0 23 19 23q11 0 36 -20q16 -13 27.5 -21.5t19.5 -12.5q22 13 36 41q19 38 19 85q0 17 -3 35t-8 38q-6 20 -17 42t-21.5 42.5t-13.5 34.5q-15 -35 -24 -79t-19 -91q-2 -8 -8 -8q-5 0 -4 8q3 15 8 41t11 55
t13 50q13 41 31.5 68.5t37.5 27.5h3q22 0 22 -19q0 -15 -17 -18q-28 -4 -28 -29q0 -17 16 -44.5t32 -51.5q17 -25 25.5 -49.5t8.5 -50.5q0 -105 -76 -136q12 -3 23 -3q41 0 66.5 21.5t41 57.5t24.5 80q2 7 7 7t5 -7q-13 -80 -48.5 -125.5t-94.5 -45.5zM50 15q11 0 18 4
q-10 5 -20.5 12.5t-23.5 17.5q-17 13 -26 13q-4 0 -4 -6q0 -4 3.5 -10.5t11.5 -14.5q16 -16 41 -16z" />
    <glyph glyph-name="t" unicode="t" horiz-adv-x="211" 
d="M114 -1q-49 0 -72 44t-23 127v18t1 19q1 22 5 57t9 74h-42q-6 0 -6 5q0 4 3.5 7.5t7.5 3.5h39q8 49 15.5 93.5t13.5 64.5q11 33 26 33q20 0 20 -27q0 -3 -2 -9q-7 -30 -13.5 -70.5t-12.5 -84.5h89q5 0 5 -5q0 -4 -2.5 -7.5t-7.5 -3.5h-86q-7 -53 -11.5 -102t-4.5 -80
q0 -70 11.5 -107t41.5 -37q35 0 57.5 24t35.5 61t18 75q2 11 7 11q7 0 5 -11q-15 -92 -47.5 -132.5t-79.5 -40.5z" />
    <glyph glyph-name="u" unicode="u" horiz-adv-x="288" 
d="M88 -2q-71 0 -71 137q0 13 2 42.5t4.5 63.5t5.5 62t5 38q34 -2 43 20q3 7 7 7q2 0 2 -3q0 -4 -1 -8q-4 -19 -8.5 -49t-8 -63t-6 -62.5t-2.5 -49.5q0 -59 6.5 -90t23.5 -31q14 0 24 10t23 36q25 54 32 125q10 83 12.5 120.5t2.5 50.5q35 -2 44 20q2 5 5 5q4 0 3 -8
q-10 -75 -16.5 -124t-10 -80t-5 -51.5t-1.5 -38.5q0 -23 4.5 -44t21.5 -21q23 0 41 38q12 25 21.5 58.5t14.5 63.5q2 7 7 7t5 -7q-15 -88 -38 -130.5t-58 -42.5q-21 0 -34 13.5t-19 33t-6 38.5q-29 -86 -75 -86z" />
    <glyph glyph-name="v" unicode="v" horiz-adv-x="260" 
d="M93 -1q-37 0 -56 35.5t-19 122.5q0 45 31 188q2 0 4.5 -0.5t5.5 -0.5q9 0 19 4t16 16q2 6 6 6q5 0 3 -9q-9 -22 -16.5 -55t-13 -69.5t-8.5 -71t-3 -58.5q0 -97 34 -97q32 0 61 69q4 10 9 25.5t9 30.5t5 21q-9 16 -17.5 42.5t-14.5 54.5t-6 45q0 22 5 40t20 18
q11 0 20.5 -19.5t9.5 -63.5q0 -31 -1 -52.5t-5 -52.5q7 -22 20 -34.5t26 -12.5q31 0 41 51q3 6 8 6q4 0 4 -2v-4q-6 -34 -21 -48t-32 -14q-15 0 -28 9.5t-20 24.5q-12 -64 -38 -104.5t-58 -40.5z" />
    <glyph glyph-name="w" unicode="w" horiz-adv-x="413" 
d="M81 -5q-8 0 -17 3q-51 18 -51 114q0 22 3.5 47.5t8.5 53.5l21 112q3 0 6 -0.5t5 -0.5q31 0 40 23q3 5 6 5t3 -3l-17 -70q-14 -58 -23.5 -105t-9.5 -96q0 -67 29 -69q46 7 75 167l27 151q3 0 6 -0.5t5 -0.5q31 0 40 23q2 6 6 6q5 0 2 -9q-10 -26 -18.5 -66t-13 -81.5
t-4.5 -72.5q0 -60 8.5 -88t29.5 -28q33 0 62 69q4 10 9 25.5t9 30.5t5 21q-9 16 -17.5 42.5t-14.5 54.5t-6 45q0 22 5 40t20 18q11 0 20.5 -19.5t9.5 -63.5q0 -31 -1 -52.5t-5 -52.5q7 -22 19.5 -34t25.5 -12q14 0 25.5 12t16.5 38q1 6 7 6q5 0 5 -6q-6 -34 -21 -48t-32 -14
q-15 0 -28 9.5t-20 24.5q-12 -64 -38 -104.5t-58 -40.5q-75 0 -76 154q0 -2 -2.5 -14t-7.5 -34q-26 -110 -79 -110z" />
    <glyph glyph-name="x" unicode="x" horiz-adv-x="343" 
d="M43 -16q-9 0 -9 15q0 4 1.5 11.5t5.5 17.5q24 51 121 148q-9 31 -20.5 65.5t-24 59t-27.5 24.5q-18 0 -33 -39q-7 -25 -14 -55.5t-13 -58.5q-2 -6 -6 -6q-6 0 -6 6q4 20 8.5 39.5t6.5 32.5q14 61 33.5 87t49.5 26q26 0 41.5 -18.5t26.5 -50t22 -70.5q16 19 33 42t28 48.5
t8 50.5q-1 14 5 22.5t13 8.5q13 0 13 -15q0 -47 -28 -84.5t-70 -84.5q6 -24 13.5 -53.5t17.5 -56.5t23.5 -44.5t29.5 -17.5q22 0 39 31t30 107q2 6 7 6t5 -6q-10 -50 -22 -88.5t-30.5 -60t-50.5 -21.5q-26 0 -44 19t-29.5 46.5t-19 54t-12.5 41.5q-34 -40 -59.5 -74
t-36.5 -55q-4 -8 -8 -18.5t-6 -18.5q-2 -13 -12 -13z" />
    <glyph glyph-name="y" unicode="y" horiz-adv-x="289" 
d="M68 -247q-27 0 -39.5 15.5t-12.5 37.5q0 40 23 77.5t59 72t76 63.5v39q0 19 -0.5 33t-0.5 24q0 31 9 98q-13 -61 -27.5 -110.5t-34 -78.5t-47.5 -29q-25 0 -44.5 24t-19.5 83q0 43 10 78t20.5 69.5t10.5 74.5q0 27 -14 27q-9 0 -16.5 -10.5t-10.5 -21.5q-1 0 -4 2t-3 9
q0 15 16 27t35 12q40 0 40 -46q0 -36 -10.5 -75t-21.5 -81t-11 -87q0 -35 7.5 -51t19.5 -16q20 0 41.5 41t39.5 120q15 66 35 111.5t40 70.5q16 22 31 22t15 -16q0 -13 -19 -19q-18 -5 -32 -32t-22 -62.5t-8 -66.5q0 -25 3.5 -56.5t6.5 -55t3 -25.5q16 11 35 25.5t36 38.5
t25 63q2 6 7 6t5 -6q-10 -41 -25 -66t-35 -42t-47 -34q2 -16 3 -31t1 -30q0 -59 -15.5 -108t-48 -78.5t-84.5 -29.5zM64 -234q40 0 64 36t35 82q13 52 13 118q-60 -51 -102.5 -98.5t-42.5 -95.5q0 -42 33 -42z" />
    <glyph glyph-name="z" unicode="z" horiz-adv-x="274" 
d="M83 -246q-28 0 -46 19t-18 51q0 43 27.5 81t67.5 69t77 53q-4 31 -18 50.5t-43 19.5q-19 0 -29.5 -6t-19.5 -12.5t-23 -6.5q-17 0 -17 14q0 11 9 16.5t22 6.5q10 1 19.5 2t19.5 2q24 5 38.5 31.5t21.5 61t7 62.5q0 32 -10 58.5t-36 26.5q-22 0 -38.5 -17t-28 -44.5
t-20 -59t-15.5 -60.5q-1 -5 -8 -5q-5 0 -4 5q5 18 10 38.5t15 60.5q10 38 33 66t60 28q40 0 60 -29t20 -73q0 -52 -22.5 -93.5t-71.5 -65.5q40 0 59 -12.5t37 -50.5q29 14 47.5 46t26.5 85l2 4t5 2q5 0 5 -6q-9 -56 -30 -91t-53 -51q8 -21 8 -62q0 -51 -19 -100.5t-52 -81.5
t-75 -32zM76 -223q36 0 58 27.5t35 68.5t20 83q2 13 2.5 27.5t-0.5 31.5q-40 -29 -76 -57t-59 -59t-23 -70q0 -52 43 -52z" />
    <glyph glyph-name="braceleft" unicode="{" horiz-adv-x="412" 
d="M338 -112q-67 0 -101 14q-52 21 -61 78q-1 8 -1.5 17.5t-0.5 19.5q0 35 6 84q6 50 6 83v20t-2 16q-12 76 -123 76q-7 0 -8 8v4q0 12 13 15q8 1 26 3q61 9 84 32q17 15 26 45q7 18 11 46.5t6 67.5t6.5 67.5t9.5 46.5q20 60 71 83q42 17 118 17q10 0 10 -4v-1q0 -5 -11 -11
q-64 0 -100 -35q-9 -8 -15.5 -19t-9.5 -25q-12 -50 -21.5 -101t-20.5 -102q-33 -100 -150 -121q110 -21 125 -116q1 -8 1.5 -18t0.5 -21q0 -27 -3 -63q-1 -19 -2.5 -35.5t-1.5 -30.5q0 -20 3 -37q14 -82 112 -88q11 -2 12 -4q0 -5 -10 -11h-5z" />
    <glyph glyph-name="bar" unicode="|" horiz-adv-x="257" 
d="M100 -131l30 832h27l-30 -832h-27z" />
    <glyph glyph-name="braceright" unicode="}" horiz-adv-x="412" 
d="M0 -112q-10 0 -10 4v1q0 5 11 11q64 0 100 35q9 8 15.5 19t9.5 25q12 50 22 101l20 102q33 100 150 121q-110 21 -125 116q-1 8 -1.5 18t-0.5 21q0 27 3 63q2 19 3 35.5t1 30.5q0 21 -3 37q-14 82 -112 88q-11 2 -12 4q0 5 10 11h5q67 0 101 -14q52 -21 61 -78
q2 -7 2 -16.5v-20.5q0 -34 -6 -84q-6 -49 -6 -83q0 -10 0.5 -19t1.5 -17q12 -76 123 -76q7 0 8 -8v-4q0 -12 -13 -15q-8 -1 -26 -3q-61 -9 -84 -32q-17 -15 -26 -45q-7 -18 -11 -46.5t-6 -67.5t-6.5 -67.5t-9.5 -46.5q-20 -60 -71 -83q-42 -17 -118 -17z" />
    <glyph glyph-name="asciitilde" unicode="~" horiz-adv-x="389" 
d="M266 416q-22 0 -66 19q-46 18 -72 18q-8 0 -10 -1q-21 -1 -31 -16t-13 -15q-4 0 -4 4q0 12 13 25.5t30.5 23t30.5 9.5q24 0 70 -18q44 -19 70 -19q28 0 45 17l17 17q1 0 3 -2v-1q0 -9 -12 -21.5t-27 -22.5t-26 -14q-9 -3 -18 -3z" />
    <glyph glyph-name="DEL" horiz-adv-x="500" 
 />
    <glyph glyph-name="uni00A0" unicode="&#xa0;" horiz-adv-x="188" 
 />
    <glyph glyph-name="exclamdown" unicode="&#xa1;" horiz-adv-x="216" 
d="M121 363q14 0 24 -10t10 -24q0 -13 -10 -23t-24 -10q-13 0 -23 10t-10 23q0 14 10 24t23 10zM95 -235q-20 0 -25 12.5t-4 21.5l44 406h13l5 -406q0 -13 -7.5 -23.5t-25.5 -10.5z" />
    <glyph glyph-name="cent" unicode="&#xa2;" horiz-adv-x="305" 
d="M148 60l5 52q-48 0 -75.5 27t-27.5 73q0 38 18.5 73.5t48.5 60.5t64 32l6 58h15l-6 -56h5q32 0 51.5 -14.5t19.5 -40.5q0 -17 -8 -28t-21 -11q-9 0 -10 4q4 4 8 16t4 22q0 18 -10 29t-34 11h-6l-24 -241q22 2 47 16t47 44q5 6 9 6q6 0 6 -9q-39 -65 -111 -71l-5 -53h-16z
M96 217q0 -85 59 -90l25 237q-23 -8 -42 -30.5t-30.5 -53t-11.5 -63.5z" />
    <glyph glyph-name="sterling" unicode="&#xa3;" horiz-adv-x="354" 
d="M115 148l4 14h55q2 15 3.5 30.5t3.5 31.5q3 44 15 79.5t33.5 57t54.5 21.5q26 0 38 -14.5t12 -36.5q0 -19 -6 -39.5t-14 -28.5q-1 -1 -3 -1q-3 0 -4.5 2.5t1.5 5.5q5 5 9.5 21.5t4.5 33.5q0 19 -6 31t-22 12q-26 0 -40 -18t-21 -47.5t-10.5 -66t-8.5 -74.5h60l-4 -14h-58
q-6 -40 -16.5 -75.5t-33.5 -57.5q22 -15 53 -29t62.5 -23t53.5 -9q23 0 33.5 11t10.5 27v9.5t-1 10.5q0 3 2 3q3 0 5.5 -7t2.5 -16q0 -27 -18.5 -44t-48.5 -17q-37 0 -77 20t-90 53q-28 -20 -63 -20q-38 0 -67.5 20.5t-29.5 57.5q0 23 28 23q43 0 128 -58q10 15 16 47.5
t11 73.5h-58zM83 -6q31 0 51 19q-83 55 -116 55q-16 0 -16 -13q1 -15 14 -29t31.5 -23t35.5 -9z" />
    <glyph glyph-name="currency" unicode="&#xa4;" horiz-adv-x="400" 
d="M344 284l-75 80q-31 -23 -63 -23q-23 0 -43 13l-68 -69l-15 15l69 67q-13 17 -13 41q0 18 7 35.5t17 30.5l-77 72l15 16l75 -75q32 29 73 29q12 0 22.5 -2.5t19.5 -9.5l53 57l15 -15l-55 -54q16 -20 16 -44q0 -38 -34 -72l77 -76zM215 371q26 0 47.5 20.5t21.5 45.5
q0 21 -13.5 35.5t-34.5 14.5q-22 0 -42.5 -17.5t-25.5 -41.5q0 -2 -0.5 -4.5t-0.5 -4.5q0 -19 13.5 -33.5t34.5 -14.5z" />
    <glyph glyph-name="yen" unicode="&#xa5;" horiz-adv-x="374" 
d="M84 2l7 11q2 0 4.5 -0.5t5.5 -0.5q45 0 53 26q7 25 9 53h-72l5 18h68v7q0 30 -5 55h-64l5 18h54q-2 7 -4 13q-8 22 -23 53t-31 57.5t-26 33.5q-9 8 -39 8h-13l3 11l47 -2q11 -1 23 -1h25q4 0 14 -20t22.5 -49.5t24 -58t17.5 -45.5h7q8 17 22.5 42.5t30.5 52t29.5 47
t19.5 27.5q3 3 14 3l75 3l-7 -12q-42 3 -61 -19q-19 -20 -42.5 -53.5t-51.5 -80.5l-6 -10h68l-5 -18h-71q-5 -15 -8.5 -30.5t-4.5 -31.5h85l-5 -18h-81v-13q0 -10 0.5 -19.5t0.5 -20.5q2 -15 25 -21q19 -4 38 -3l-7 -12q-21 6 -83 5q-11 0 -34 -1.5t-58 -3.5z" />
    <glyph glyph-name="brokenbar" unicode="&#xa6;" horiz-adv-x="257" 
d="M144 341h-27l13 360h27zM113 229h27l-13 -360h-27z" />
    <glyph glyph-name="section" unicode="&#xa7;" horiz-adv-x="706" 
d="M291 -98q-1 1 -3.5 1t-4.5 1l-8 3q-55 20 -77 58q-82 12 -132 59q-52 51 -52 133q0 53 21.5 102.5t59 88t85.5 58.5q51 20 103 20q79 0 125 -40q26 27 47.5 55t40.5 56v13q0 75 17 111q-9 41 -9 57q0 18 9.5 33.5t26.5 15.5q33 0 33 -46q0 -34 -29 -106q5 -10 22.5 -36.5
t47.5 -70.5q20 -31 34 -60.5t21 -58.5q4 -14 5.5 -30.5t1.5 -34.5q0 -94 -50 -168q-57 -82 -147 -82q-10 0 -20 1t-18 3q-97 -76 -205 -76q-4 0 -10.5 0.5t-14.5 1.5q19 -34 62 -48q2 -1 3.5 -1t2.5 -1q4 0 6 -1q5 0 12 3q8 3 11 3q6 0 6 -6q0 -4 -9 -7.5t-14 -3.5zM539 584
q24 59 24 100q0 29 -19 29q-30 0 -30 -38t25 -91zM516 533q9 17 15 33q-5 13 -8 22.5t-5 16.5q-6 -15 -6 -32q0 -7 1 -17t3 -23zM453 48q61 1 110 76q43 67 47 132q1 8 1 16v17q0 78 -21 139q-1 5 -14.5 36.5t-39.5 90.5q-5 -13 -9 -22.5t-8 -15.5q8 -31 15 -62l14 -62
q8 -37 12.5 -68.5t4.5 -57.5q0 -125 -112 -219zM408 65q94 97 94 257l-6 157q-17 -25 -37.5 -50t-44.5 -49q34 -34 34 -88q0 -49 -27.5 -89t-72.5 -59q11 -51 60 -79zM191 -20q-8 22 -8 49q0 52 29 127q-24 23 -24 56q0 12 7 30.5t16 18.5q3 -1 3 -2t-9 -16q-9 -16 -9 -33
q0 -26 20 -46q45 102 174 207q-44 41 -111 41q-48 0 -92 -22.5t-78.5 -60t-55 -84t-20.5 -94.5q0 -44 21 -82t57 -62t80 -27zM280 138q27 0 57 15q-1 6 -1.5 10.5t-0.5 7.5q0 34 22 59q1 0 2 1h1q4 0 4 -4l-10 -16q-9 -13 -9 -40q0 -10 1 -13q33 21 57 57.5t24 73.5
q0 39 -29 74q-127 -107 -173 -207q24 -18 55 -18zM203 -20q117 0 199 79q-52 32 -63 81q-25 -9 -54 -9q-38 0 -63 17q-29 -64 -29 -115q0 -32 10 -53z" />
    <glyph glyph-name="dieresis" unicode="&#xa8;" horiz-adv-x="500" 
d="M301 431q-14 0 -21 7.5t-7 17.5q0 15 11 26.5t25 11.5q13 0 20.5 -7.5t7.5 -18.5q0 -14 -11.5 -25.5t-24.5 -11.5zM192 431q-14 0 -21 7.5t-7 17.5q0 15 11 26.5t25 11.5q13 0 20.5 -7.5t7.5 -18.5q0 -14 -11.5 -25.5t-24.5 -11.5z" />
    <glyph glyph-name="copyright" unicode="&#xa9;" horiz-adv-x="631" 
d="M286 -5q-72 0 -130 33.5t-92 90.5t-34 129q0 63 25.5 119.5t69.5 100.5t101 69t120 25q72 0 130 -33t91.5 -90.5t33.5 -129.5q0 -63 -25.5 -119.5t-69 -100.5t-100.5 -69t-120 -25zM288 24q57 0 108 22.5t90.5 62t62 90.5t22.5 108q0 65 -30 116t-81.5 81t-116.5 30
q-57 0 -108 -22.5t-90.5 -62t-62 -90.5t-22.5 -107q0 -65 30 -116.5t82 -81.5t116 -30zM309 109q-43 0 -62 25.5t-23 64t0 76.5q5 49 25 92.5t50 71t66 27.5q61 0 54 -73q-2 -16 -8 -35t-15.5 -32.5t-23.5 -13.5q-16 0 -14 18t13 29t22 21t13 23q4 45 -29 45q-20 0 -38 -18
t-32.5 -47.5t-24.5 -63.5t-13 -66q-4 -35 -2.5 -65t13 -47.5t35.5 -17.5q32 0 59.5 24t48.5 61t33 76q3 9 8 9q7 0 4 -9q-13 -44 -35.5 -84.5t-53.5 -65.5t-70 -25z" />
    <glyph glyph-name="ordfeminine" unicode="&#xaa;" horiz-adv-x="250" 
d="M117 426q-19 0 -30.5 20t-11.5 54q0 26 7 51t21 41.5t35 16.5q22 0 30 -26l3 25q2 -1 7 -1q10 0 16 10q2 3 4 3q3 0 3 -3l-11 -93q-1 -13 -1.5 -25.5t-0.5 -23.5q0 -19 2.5 -27t7.5 -8q11 0 22.5 21t18.5 55q0 8 6 8q7 0 5 -9q-4 -20 -10 -40.5t-17 -34t-29 -13.5
q-28 0 -33 45q-7 -20 -16 -31.5t-21 -13.5q-3 -1 -7 -1zM121 438q15 1 25 28t14 53q1 5 1 10.5v10.5q0 23 -5.5 40t-14.5 17q-8 0 -17 -15.5t-14.5 -38.5t-5.5 -45q0 -27 5 -44t12 -16z" />
    <glyph glyph-name="guillemotleft" unicode="&#xab;" horiz-adv-x="369" 
d="M305 39l-113 93q-12 9 -12 19t16 28l134 137q4 4 6 4q3 0 2.5 -3.5t-2.5 -7.5l-113 -153l85 -103q5 -5 5 -11q0 -9 -8 -3zM205 39l-113 93q-12 9 -12 19t16 28l134 137q4 4 6 4q3 0 3 -4t-3 -7l-113 -153l85 -103q5 -5 5 -11q0 -9 -8 -3z" />
    <glyph glyph-name="logicalnot" unicode="&#xac;" horiz-adv-x="690" 
d="M605 19q-8 0 -15.5 5t-6.5 17l21 202h-532q-10 0 -16 5t-6 9q0 8 7.5 12t14.5 4h581l-24 -228q-3 -26 -24 -26z" />
    <glyph glyph-name="uni00AD" unicode="&#xad;" horiz-adv-x="348" 
d="M61 233l3 20h233l-3 -20h-233z" />
    <glyph glyph-name="registered" unicode="&#xae;" horiz-adv-x="382" 
d="M204 347q-41 0 -73.5 19t-51.5 51.5t-19 72.5q0 48 24.5 88t65.5 64.5t88 24.5q41 0 73.5 -18.5t51.5 -51t19 -73.5q0 -47 -24.5 -87.5t-65 -65t-88.5 -24.5zM206 371q52 0 103 40q-1 0 -2 -0.5t-3 -0.5q-7 0 -16 3q-7 2 -17.5 10.5t-15.5 33.5l-6 32q-4 12 -11 17t-15 5
q-8 -42 -16 -57q-17 -34 -49 -34q-10 0 -19 4t-9 14q0 2 3 2.5t3 -2.5q0 -8 5.5 -10t9.5 -2q18 0 28 19t15 41q2 10 4 19t3 18q7 28 17 48.5t26 33.5q-15 3 -28 3q-23 0 -45 -11q-19 -10 -32 -27.5t-13 -32.5q-1 -19 6.5 -27.5t17.5 -8.5q11 0 20 8t10 21v3q0 16 -9 16
q-1 0 -1.5 2t1.5 2q6 0 11 -6.5t5 -14.5q0 -17 -12.5 -27t-26.5 -10q-13 0 -23 9t-10 28q0 25 16 44t35 27q23 10 50 10q15 0 33 -3q13 11 26 11q12 0 12 -6q0 -2 -1.5 -2.5t-2.5 0.5q-3 3 -7 3q-10 0 -18 -8q17 -2 34.5 -13.5t13.5 -33.5q-4 -26 -23.5 -35.5t-42.5 -11.5
q23 -8 35 -52q5 -16 14 -31t24 -15q23 23 34 51t11 55q0 52 -35 87t-87 35q-41 0 -75.5 -21t-55.5 -55.5t-21 -74.5q0 -52 35 -87t87 -35zM224 518q5 0 10 0.5t9 1.5q16 3 28.5 16.5t12.5 29.5q0 27 -31 36q-6 -9 -11.5 -18.5t-8.5 -22.5z" />
    <glyph glyph-name="macron" unicode="&#xaf;" horiz-adv-x="500" 
d="M159 448l2 21h181l-2 -21h-181z" />
    <glyph glyph-name="degree" unicode="&#xb0;" horiz-adv-x="267" 
d="M143 373q-26 0 -44.5 19t-18.5 45t18.5 45t44.5 19q27 0 45.5 -19t18.5 -45t-18.5 -45t-45.5 -19zM142 390q20 0 33.5 14t13.5 33t-14 32.5t-33 13.5t-32.5 -13.5t-13.5 -32.5t13.5 -33t32.5 -14z" />
    <glyph glyph-name="plusminus" unicode="&#xb1;" horiz-adv-x="388" 
d="M178 81v100h-118v28h118v100h28v-100h122v-28h-122v-100h-28zM60 26v28h268v-28h-268z" />
    <glyph glyph-name="uni00B2" unicode="&#xb2;" horiz-adv-x="227" 
d="M161 346v9q0 6 -1.5 7.5t-7.5 1.5h-52h-17t-22 -1h-18l-3 1q5 13 17 30.5t29 34.5q26 25 44 47t18 51q0 23 -11 37t-30 14q-16 0 -26.5 -10t-10.5 -26q0 -14 8 -24t19 -10q5 0 15 10l6 -1q-5 -26 -35 -26q-18 0 -29.5 12t-11.5 28q0 25 19.5 40.5t48.5 15.5
q34 0 55.5 -16t21.5 -40q0 -18 -5.5 -31t-16.5 -26q-7 -7 -18.5 -17t-24.5 -21q-20 -16 -30 -25t-16 -17h107l-9 -48h-13z" />
    <glyph glyph-name="uni00B3" unicode="&#xb3;" horiz-adv-x="229" 
d="M96 354q-19 0 -37.5 7.5t-18.5 23.5t16 16q14 0 23 -20q7 -18 23 -18q46 0 46 59q0 50 -32 50q-10 0 -19 -10q-8 -11 -18 -11q-12 0 -12 8q0 11 15 17q53 17 53 63q0 32 -31 32q-12 0 -20.5 -8.5t-8.5 -20.5q0 -23 17 -23q7 0 18 7l5 -1q-10 -22 -33 -22q-15 0 -24.5 8
t-9.5 21q0 21 20 36t46 15t42.5 -12t16.5 -32t-15.5 -33t-36.5 -24h3q28 0 44 -12q21 -15 21 -38q0 -18 -12.5 -36t-33.5 -30t-47 -12z" />
    <glyph glyph-name="acute" unicode="&#xb4;" horiz-adv-x="500" 
d="M250 421q-15 0 -15 3q0 1 14.5 13t34.5 27.5t37 27t21 11.5q6 0 16 -5t10 -12z" />
    <glyph glyph-name="uni00B5" unicode="&#xb5;" horiz-adv-x="286" 
d="M96 -236q-87 -8 -87 153q0 33 1.5 70.5t3.5 67.5t2 38l6 118q4 50 7 83t6 47q7 0 22.5 4.5t21.5 16.5q2 6 6 6q3 0 2 -10q-6 -25 -12 -65.5t-11 -97.5q-3 -28 -3 -62q0 -118 30 -121q21 -7 47 46q25 54 32 125q20 167 15 171q35 -2 44 20q2 8 6 6q5 0 2 -9l-22 -165
q-6 -43 -8.5 -75t-2.5 -54q0 -65 22 -64q20 -5 38 24q28 41 41 140q3 9 8 9t4 -10q-25 -177 -94 -177q-31 0 -46 30q-13 23 -13 55q-29 -86 -75 -86q-9 0 -20.5 7t-19.5 30q-1 -15 -1.5 -29t-0.5 -27q0 -46 4 -79.5t11 -50.5q10 -27 24 -48t25 -20q20 2 38 49q2 9 6 9h1
q6 0 6 -11q-7 -27 -26.5 -44.5t-39.5 -19.5z" />
    <glyph glyph-name="paragraph" unicode="&#xb6;" horiz-adv-x="403" 
d="M129 -109l58 477q-64 0 -100 31t-36 90q0 113 98 156q34 14 98 14h135l-2 -22h-20l-86 -746h-29l86 746h-39l-86 -746h-77z" />
    <glyph glyph-name="periodcentered" unicode="&#xb7;" horiz-adv-x="152" 
d="M90 181q-14 0 -24 10t-10 24t10 23.5t24 9.5t23.5 -9.5t9.5 -23.5t-9.5 -24t-23.5 -10z" />
    <glyph glyph-name="cedilla" unicode="&#xb8;" horiz-adv-x="500" 
d="M199 -172q-19 0 -33.5 8t-18.5 26h13q6 -10 16.5 -13.5t20.5 -3.5q26 0 39.5 16.5t13.5 33.5q0 13 -7.5 21.5t-21.5 8.5q-13 0 -20.5 -2t-12.5 -4l-7 16q3 3 17.5 18t30 31.5t21.5 22.5l12 -2q-2 -2 -13.5 -15.5t-22 -27t-8.5 -16.5q4 1 7 1h7q19 0 36.5 -11.5
t17.5 -32.5q0 -24 -13.5 -40.5t-33.5 -25.5t-40 -9z" />
    <glyph glyph-name="uni00B9" unicode="&#xb9;" horiz-adv-x="193" 
d="M46 372l24 3q12 2 13 15q1 3 1.5 20t0.5 55v66q0 20 -4 27t-15 7h-26v8q49 5 76 18h5q-3 -60 -3 -119q0 -31 0.5 -49t0.5 -26v-4q0 -16 13 -17q1 -1 12 -2q4 -2 9 -2v-9q-5 1 -9.5 1h-9.5q-10 0 -19 0.5t-15 0.5q-7 0 -15 -0.5t-19 -0.5h-9.5t-10.5 -1v9z" />
    <glyph glyph-name="ordmasculine" unicode="&#xba;" horiz-adv-x="234" 
d="M130 421q-55 0 -55 81q0 38 14 63q2 28 16.5 45.5t35.5 17.5q25 0 40 -24.5t15 -62.5q0 -35 -10 -65q23 5 33 37q0 4 5 4t5 -4q-9 -41 -46 -47q-19 -45 -53 -45zM171 475q10 24 10 65q0 31 -9.5 55t-30.5 24q-26 0 -34 -31q13 10 33 10q18 0 18 -7q0 -5 -7 -3q-6 2 -10 2
q-23 0 -35 -57q14 -63 65 -58zM133 431q20 0 36 35h-8q-21 0 -36.5 11t-22.5 27v-13q0 -60 31 -60z" />
    <glyph glyph-name="guillemotright" unicode="&#xbb;" horiz-adv-x="369" 
d="M89 318l113 -93q12 -9 12 -19t-16 -28l-134 -137q-4 -4 -6 -4q-3 0 -2.5 3.5t2.5 7.5l113 153l-85 103q-5 5 -5 11q0 9 8 3zM189 318l113 -93q12 -9 12 -19t-16 -28l-134 -137q-4 -4 -6 -4q-3 0 -3 4t3 7l113 153l-85 103q-5 5 -5 11q0 9 8 3z" />
    <glyph glyph-name="onequarter" unicode="&#xbc;" horiz-adv-x="496" 
d="M40 77l363 387h32l-363 -387h-32zM49 363l24 3q12 2 13 15q1 3 1.5 20t0.5 55v66q0 20 -4 27t-15 7h-26v8q49 5 76 18h5q-3 -60 -3 -119q0 -31 0.5 -49t0.5 -26v-4q0 -16 13 -17q1 -1 12 -2q4 -2 9 -2v-9q-5 1 -9.5 1h-9.5q-10 0 -19 0.5t-15 0.5q-7 0 -15 -0.5t-19 -0.5
h-9.5t-10.5 -1v9zM348 4l1 10q21 0 27 3.5t6 24.5v33h-87v13l109 142h13v-141h39v-14h-39v-29q-1 -24 5 -27.5t28 -3.5v-11q-4 0 -8.5 0.5t-9.5 0.5q-10 0 -18 0.5t-13 0.5q-7 0 -15.5 -0.5t-19.5 -0.5q-4 0 -8.5 -0.5t-9.5 -0.5zM382 89v90l-68 -90h68z" />
    <glyph glyph-name="onehalf" unicode="&#xbd;" horiz-adv-x="475" 
d="M40 77l363 387h32l-363 -387h-32zM49 363l24 3q12 2 13 15q1 3 1.5 20t0.5 55v66q0 20 -4 27t-15 7h-26v8q49 5 76 18h5q-3 -60 -3 -119q0 -31 0.5 -49t0.5 -26v-4q0 -16 13 -17q1 -1 12 -2q4 -2 9 -2v-9q-5 1 -9.5 1h-9.5q-10 0 -19 0.5t-15 0.5q-7 0 -15 -0.5t-19 -0.5
h-9.5t-10.5 -1v9zM402 -12v9q0 6 -1.5 7.5t-7.5 1.5h-52h-17t-22 -1h-18l-3 1q5 13 17 30.5t29 34.5q26 25 44 47t18 51q0 23 -11 37t-30 14q-16 0 -26.5 -10t-10.5 -26q0 -14 8 -24t19 -10q5 0 15 10l6 -1q-5 -26 -35 -26q-18 0 -29.5 12t-11.5 28q0 25 19.5 40.5
t48.5 15.5q34 0 55.5 -16t21.5 -40q0 -18 -5.5 -31t-16.5 -26q-7 -7 -18.5 -17t-24.5 -21q-20 -16 -30 -25t-16 -17h107l-9 -48h-13z" />
    <glyph glyph-name="threequarters" unicode="&#xbe;" horiz-adv-x="496" 
d="M96 354q-19 0 -37.5 7.5t-18.5 23.5t16 16q14 0 23 -20q7 -18 23 -18q46 0 46 59q0 50 -32 50q-10 0 -19 -10q-8 -11 -18 -11q-12 0 -12 8q0 11 15 17q53 17 53 63q0 32 -31 32q-12 0 -20.5 -8.5t-8.5 -20.5q0 -23 17 -23q7 0 18 7l5 -1q-10 -22 -33 -22q-15 0 -24.5 8
t-9.5 21q0 21 20 36t46 15t42.5 -12t16.5 -32t-15.5 -33t-36.5 -24h3q28 0 44 -12q21 -15 21 -38q0 -18 -12.5 -36t-33.5 -30t-47 -12zM40 77l363 387h32l-363 -387h-32zM348 4l1 10q21 0 27 3.5t6 24.5v33h-87v13l109 142h13v-141h39v-14h-39v-29q-1 -24 5 -27.5t28 -3.5
v-11q-4 0 -8.5 0.5t-9.5 0.5q-10 0 -18 0.5t-13 0.5q-7 0 -15.5 -0.5t-19.5 -0.5q-4 0 -8.5 -0.5t-9.5 -0.5zM382 89v90l-68 -90h68z" />
    <glyph glyph-name="questiondown" unicode="&#xbf;" horiz-adv-x="347" 
d="M189 357q14 0 24 -10t10 -24q0 -13 -10 -23t-24 -10q-13 0 -23 10t-10 23q0 14 10 24t23 10zM166 -153q-62 0 -89 29.5t-27 85.5q0 35 14 62t33 47t34 33q23 20 39.5 41t16.5 43q0 19 -8.5 27.5t-8.5 21.5q0 7 3.5 12t11.5 5q12 0 18 -14.5t6 -31.5q0 -23 -12.5 -48
t-44.5 -54q-31 -28 -44.5 -62.5t-13.5 -78.5q0 -40 18.5 -72.5t57.5 -32.5q30 0 51 20t32 50t11 59t-12.5 50.5t-38.5 21.5q-14 0 -29.5 -9.5t-15.5 -28.5q0 -5 -4 -5t-4 4q0 28 17.5 39t35.5 11q44 0 64 -27t20 -63q0 -31 -15 -62t-44 -52t-72 -21z" />
    <glyph glyph-name="Agrave" unicode="&#xc0;" horiz-adv-x="852" 
d="M243 -86q-68 0 -121.5 27.5t-84.5 75.5t-31 110q0 57 26 103.5t72 74t105 27.5q65 0 109 -44q40 -41 40 -103q0 -57 -34.5 -91.5t-92.5 -34.5q-28 0 -41.5 10.5t-13.5 19.5q0 6 5 6q2 0 5 -4.5t7 -6.5q8 -7 18.5 -9.5t20.5 -2.5q50 0 78.5 31t28.5 82q0 56 -36.5 93.5
t-97.5 37.5q-52 0 -89.5 -25.5t-58 -67t-20.5 -91.5q0 -55 27 -100.5t73.5 -72.5t106.5 -27q110 0 192.5 74.5t134.5 215.5q23 63 47 124t49.5 109.5t50.5 71.5q-32 19 -77.5 36.5t-91 29.5t-78.5 12q-50 0 -92.5 -17t-67.5 -50.5t-25 -83.5q0 -65 41.5 -107t109.5 -42
q58 0 96.5 27.5t38.5 79.5q0 42 -28 61q-4 2 -7.5 4t-3.5 6q0 7 8 7q2 0 14 -5q37 -21 37 -76q0 -58 -45.5 -90t-110.5 -32q-50 0 -91.5 21t-65.5 57t-24 82q0 63 28.5 109t79.5 71.5t117 25.5q41 0 79.5 -14.5t81.5 -39.5t95 -56q54 35 99 35q32 0 57.5 -15t25.5 -44
q0 -21 -15.5 -31.5t-35.5 -10.5q-10 0 -25.5 2t-24.5 6q-11 -36 -22.5 -83.5t-18.5 -120.5q-7 -95 -44 -165.5t-103 -99.5q11 3 21 3.5t17 0.5q18 0 38 -5t38 -10t28 -5q18 0 18 16q0 5 -4 12t-9 11q0 8 7 8q5 0 12.5 -10t7.5 -24q0 -33 -43 -33q-19 0 -49 8
q-46 11 -67 13.5t-39 3.5q29 35 47.5 63.5t31 56t21.5 59.5t18 75h-116l-12 -34q-110 -311 -352 -311zM860 493q17 0 27.5 6.5t10.5 19.5q0 22 -22.5 32t-43.5 10q-44 0 -81 -28l51 -25q5 11 8.5 15.5t10.5 4.5q4 0 6 -3.5t2 -5.5q0 -9 -6 -20q8 -3 18.5 -4.5t18.5 -1.5z
M729 280q22 109 66 212q-5 2 -20 9t-41 20q-53 -50 -121 -241h116zM847 639l-118 65q0 7 10 12t16 5q5 0 21.5 -11.5t36.5 -27t34.5 -27.5t14.5 -13q0 -3 -15 -3z" />
    <glyph glyph-name="Aacute" unicode="&#xc1;" horiz-adv-x="852" 
d="M243 -86q-68 0 -121.5 27.5t-84.5 75.5t-31 110q0 57 26 103.5t72 74t105 27.5q65 0 109 -44q40 -41 40 -103q0 -57 -34.5 -91.5t-92.5 -34.5q-28 0 -41.5 10.5t-13.5 19.5q0 6 5 6q2 0 5 -4.5t7 -6.5q8 -7 18.5 -9.5t20.5 -2.5q50 0 78.5 31t28.5 82q0 56 -36.5 93.5
t-97.5 37.5q-52 0 -89.5 -25.5t-58 -67t-20.5 -91.5q0 -55 27 -100.5t73.5 -72.5t106.5 -27q110 0 192.5 74.5t134.5 215.5q23 63 47 124t49.5 109.5t50.5 71.5q-32 19 -77.5 36.5t-91 29.5t-78.5 12q-50 0 -92.5 -17t-67.5 -50.5t-25 -83.5q0 -65 41.5 -107t109.5 -42
q58 0 96.5 27.5t38.5 79.5q0 42 -28 61q-4 2 -7.5 4t-3.5 6q0 7 8 7q2 0 14 -5q37 -21 37 -76q0 -58 -45.5 -90t-110.5 -32q-50 0 -91.5 21t-65.5 57t-24 82q0 63 28.5 109t79.5 71.5t117 25.5q41 0 79.5 -14.5t81.5 -39.5t95 -56q54 35 99 35q32 0 57.5 -15t25.5 -44
q0 -21 -15.5 -31.5t-35.5 -10.5q-10 0 -25.5 2t-24.5 6q-11 -36 -22.5 -83.5t-18.5 -120.5q-7 -95 -44 -165.5t-103 -99.5q11 3 21 3.5t17 0.5q18 0 38 -5t38 -10t28 -5q18 0 18 16q0 5 -4 12t-9 11q0 8 7 8q5 0 12.5 -10t7.5 -24q0 -33 -43 -33q-19 0 -49 8
q-46 11 -67 13.5t-39 3.5q29 35 47.5 63.5t31 56t21.5 59.5t18 75h-116l-12 -34q-110 -311 -352 -311zM860 493q17 0 27.5 6.5t10.5 19.5q0 22 -22.5 32t-43.5 10q-44 0 -81 -28l51 -25q5 11 8.5 15.5t10.5 4.5q4 0 6 -3.5t2 -5.5q0 -9 -6 -20q8 -3 18.5 -4.5t18.5 -1.5z
M729 280q22 109 66 212q-5 2 -20 9t-41 20q-53 -50 -121 -241h116zM847 639q-15 0 -15 3q0 1 14.5 13t34.5 27.5t37 27t21 11.5q6 0 16 -5t10 -12z" />
    <glyph glyph-name="Acircumflex" unicode="&#xc2;" horiz-adv-x="852" 
d="M243 -86q-68 0 -121.5 27.5t-84.5 75.5t-31 110q0 57 26 103.5t72 74t105 27.5q65 0 109 -44q40 -41 40 -103q0 -57 -34.5 -91.5t-92.5 -34.5q-28 0 -41.5 10.5t-13.5 19.5q0 6 5 6q2 0 5 -4.5t7 -6.5q8 -7 18.5 -9.5t20.5 -2.5q50 0 78.5 31t28.5 82q0 56 -36.5 93.5
t-97.5 37.5q-52 0 -89.5 -25.5t-58 -67t-20.5 -91.5q0 -55 27 -100.5t73.5 -72.5t106.5 -27q110 0 192.5 74.5t134.5 215.5q23 63 47 124t49.5 109.5t50.5 71.5q-32 19 -77.5 36.5t-91 29.5t-78.5 12q-50 0 -92.5 -17t-67.5 -50.5t-25 -83.5q0 -65 41.5 -107t109.5 -42
q58 0 96.5 27.5t38.5 79.5q0 42 -28 61q-4 2 -7.5 4t-3.5 6q0 7 8 7q2 0 14 -5q37 -21 37 -76q0 -58 -45.5 -90t-110.5 -32q-50 0 -91.5 21t-65.5 57t-24 82q0 63 28.5 109t79.5 71.5t117 25.5q41 0 79.5 -14.5t81.5 -39.5t95 -56q54 35 99 35q32 0 57.5 -15t25.5 -44
q0 -21 -15.5 -31.5t-35.5 -10.5q-10 0 -25.5 2t-24.5 6q-11 -36 -22.5 -83.5t-18.5 -120.5q-7 -95 -44 -165.5t-103 -99.5q11 3 21 3.5t17 0.5q18 0 38 -5t38 -10t28 -5q18 0 18 16q0 5 -4 12t-9 11q0 8 7 8q5 0 12.5 -10t7.5 -24q0 -33 -43 -33q-19 0 -49 8
q-46 11 -67 13.5t-39 3.5q29 35 47.5 63.5t31 56t21.5 59.5t18 75h-116l-12 -34q-110 -311 -352 -311zM860 493q17 0 27.5 6.5t10.5 19.5q0 22 -22.5 32t-43.5 10q-44 0 -81 -28l51 -25q5 11 8.5 15.5t10.5 4.5q4 0 6 -3.5t2 -5.5q0 -9 -6 -20q8 -3 18.5 -4.5t18.5 -1.5z
M729 280q22 109 66 212q-5 2 -20 9t-41 20q-53 -50 -121 -241h116zM742 639l116 82q5 3 8 3t6 -3q5 -5 16.5 -17t24 -26t21 -24.5t8.5 -11.5q-1 -3 -8 -3l-82 47l-89 -47h-21z" />
    <glyph glyph-name="Atilde" unicode="&#xc3;" horiz-adv-x="852" 
d="M243 -86q-68 0 -121.5 27.5t-84.5 75.5t-31 110q0 57 26 103.5t72 74t105 27.5q65 0 109 -44q40 -41 40 -103q0 -57 -34.5 -91.5t-92.5 -34.5q-28 0 -41.5 10.5t-13.5 19.5q0 6 5 6q2 0 5 -4.5t7 -6.5q8 -7 18.5 -9.5t20.5 -2.5q50 0 78.5 31t28.5 82q0 56 -36.5 93.5
t-97.5 37.5q-52 0 -89.5 -25.5t-58 -67t-20.5 -91.5q0 -55 27 -100.5t73.5 -72.5t106.5 -27q110 0 192.5 74.5t134.5 215.5q23 63 47 124t49.5 109.5t50.5 71.5q-32 19 -77.5 36.5t-91 29.5t-78.5 12q-50 0 -92.5 -17t-67.5 -50.5t-25 -83.5q0 -65 41.5 -107t109.5 -42
q58 0 96.5 27.5t38.5 79.5q0 42 -28 61q-4 2 -7.5 4t-3.5 6q0 7 8 7q2 0 14 -5q37 -21 37 -76q0 -58 -45.5 -90t-110.5 -32q-50 0 -91.5 21t-65.5 57t-24 82q0 63 28.5 109t79.5 71.5t117 25.5q41 0 79.5 -14.5t81.5 -39.5t95 -56q54 35 99 35q32 0 57.5 -15t25.5 -44
q0 -21 -15.5 -31.5t-35.5 -10.5q-10 0 -25.5 2t-24.5 6q-11 -36 -22.5 -83.5t-18.5 -120.5q-7 -95 -44 -165.5t-103 -99.5q11 3 21 3.5t17 0.5q18 0 38 -5t38 -10t28 -5q18 0 18 16q0 5 -4 12t-9 11q0 8 7 8q5 0 12.5 -10t7.5 -24q0 -33 -43 -33q-19 0 -49 8
q-46 11 -67 13.5t-39 3.5q29 35 47.5 63.5t31 56t21.5 59.5t18 75h-116l-12 -34q-110 -311 -352 -311zM860 493q17 0 27.5 6.5t10.5 19.5q0 22 -22.5 32t-43.5 10q-44 0 -81 -28l51 -25q5 11 8.5 15.5t10.5 4.5q4 0 6 -3.5t2 -5.5q0 -9 -6 -20q8 -3 18.5 -4.5t18.5 -1.5z
M729 280q22 109 66 212q-5 2 -20 9t-41 20q-53 -50 -121 -241h116zM886 647q-15 0 -31 8t-30.5 16t-27.5 8q-19 0 -26.5 -10t-12.5 -17h-10q5 20 23.5 39.5t40.5 19.5q13 0 26 -7.5t27.5 -15t30.5 -7.5q23 0 31 10.5t11 15.5h8q-5 -22 -19.5 -41t-40.5 -19z" />
    <glyph glyph-name="Adieresis" unicode="&#xc4;" horiz-adv-x="852" 
d="M243 -86q-68 0 -121.5 27.5t-84.5 75.5t-31 110q0 57 26 103.5t72 74t105 27.5q65 0 109 -44q40 -41 40 -103q0 -57 -34.5 -91.5t-92.5 -34.5q-28 0 -41.5 10.5t-13.5 19.5q0 6 5 6q2 0 5 -4.5t7 -6.5q8 -7 18.5 -9.5t20.5 -2.5q50 0 78.5 31t28.5 82q0 56 -36.5 93.5
t-97.5 37.5q-52 0 -89.5 -25.5t-58 -67t-20.5 -91.5q0 -55 27 -100.5t73.5 -72.5t106.5 -27q110 0 192.5 74.5t134.5 215.5q23 63 47 124t49.5 109.5t50.5 71.5q-32 19 -77.5 36.5t-91 29.5t-78.5 12q-50 0 -92.5 -17t-67.5 -50.5t-25 -83.5q0 -65 41.5 -107t109.5 -42
q58 0 96.5 27.5t38.5 79.5q0 42 -28 61q-4 2 -7.5 4t-3.5 6q0 7 8 7q2 0 14 -5q37 -21 37 -76q0 -58 -45.5 -90t-110.5 -32q-50 0 -91.5 21t-65.5 57t-24 82q0 63 28.5 109t79.5 71.5t117 25.5q41 0 79.5 -14.5t81.5 -39.5t95 -56q54 35 99 35q32 0 57.5 -15t25.5 -44
q0 -21 -15.5 -31.5t-35.5 -10.5q-10 0 -25.5 2t-24.5 6q-11 -36 -22.5 -83.5t-18.5 -120.5q-7 -95 -44 -165.5t-103 -99.5q11 3 21 3.5t17 0.5q18 0 38 -5t38 -10t28 -5q18 0 18 16q0 5 -4 12t-9 11q0 8 7 8q5 0 12.5 -10t7.5 -24q0 -33 -43 -33q-19 0 -49 8
q-46 11 -67 13.5t-39 3.5q29 35 47.5 63.5t31 56t21.5 59.5t18 75h-116l-12 -34q-110 -311 -352 -311zM860 493q17 0 27.5 6.5t10.5 19.5q0 22 -22.5 32t-43.5 10q-44 0 -81 -28l51 -25q5 11 8.5 15.5t10.5 4.5q4 0 6 -3.5t2 -5.5q0 -9 -6 -20q8 -3 18.5 -4.5t18.5 -1.5z
M729 280q22 109 66 212q-5 2 -20 9t-41 20q-53 -50 -121 -241h116zM898 649q-14 0 -21 7.5t-7 17.5q0 15 11 26.5t25 11.5q13 0 20.5 -7.5t7.5 -18.5q0 -14 -11.5 -25.5t-24.5 -11.5zM789 649q-14 0 -21 7.5t-7 17.5q0 15 11 26.5t25 11.5q13 0 20.5 -7.5t7.5 -18.5
q0 -14 -11.5 -25.5t-24.5 -11.5z" />
    <glyph glyph-name="Aring" unicode="&#xc5;" horiz-adv-x="852" 
d="M243 -86q-68 0 -121.5 27.5t-84.5 75.5t-31 110q0 57 26 103.5t72 74t105 27.5q65 0 109 -44q40 -41 40 -103q0 -57 -34.5 -91.5t-92.5 -34.5q-28 0 -41.5 10.5t-13.5 19.5q0 6 5 6q2 0 5 -4.5t7 -6.5q8 -7 18.5 -9.5t20.5 -2.5q50 0 78.5 31t28.5 82q0 56 -36.5 93.5
t-97.5 37.5q-52 0 -89.5 -25.5t-58 -67t-20.5 -91.5q0 -55 27 -100.5t73.5 -72.5t106.5 -27q110 0 192.5 74.5t134.5 215.5q23 63 47 124t49.5 109.5t50.5 71.5q-32 19 -77.5 36.5t-91 29.5t-78.5 12q-50 0 -92.5 -17t-67.5 -50.5t-25 -83.5q0 -65 41.5 -107t109.5 -42
q58 0 96.5 27.5t38.5 79.5q0 42 -28 61q-4 2 -7.5 4t-3.5 6q0 7 8 7q2 0 14 -5q37 -21 37 -76q0 -58 -45.5 -90t-110.5 -32q-50 0 -91.5 21t-65.5 57t-24 82q0 63 28.5 109t79.5 71.5t117 25.5q41 0 79.5 -14.5t81.5 -39.5t95 -56q54 35 99 35q32 0 57.5 -15t25.5 -44
q0 -21 -15.5 -31.5t-35.5 -10.5q-10 0 -25.5 2t-24.5 6q-11 -36 -22.5 -83.5t-18.5 -120.5q-7 -95 -44 -165.5t-103 -99.5q11 3 21 3.5t17 0.5q18 0 38 -5t38 -10t28 -5q18 0 18 16q0 5 -4 12t-9 11q0 8 7 8q5 0 12.5 -10t7.5 -24q0 -33 -43 -33q-19 0 -49 8
q-46 11 -67 13.5t-39 3.5q29 35 47.5 63.5t31 56t21.5 59.5t18 75h-116l-12 -34q-110 -311 -352 -311zM860 493q17 0 27.5 6.5t10.5 19.5q0 22 -22.5 32t-43.5 10q-44 0 -81 -28l51 -25q5 11 8.5 15.5t10.5 4.5q4 0 6 -3.5t2 -5.5q0 -9 -6 -20q8 -3 18.5 -4.5t18.5 -1.5z
M729 280q22 109 66 212q-5 2 -20 9t-41 20q-53 -50 -121 -241h116zM847 638q-21 0 -35 14t-14 35q0 23 17.5 40.5t41.5 17.5q20 0 34 -14t14 -34q0 -24 -17.5 -41.5t-40.5 -17.5zM849 657q14 0 25.5 11.5t11.5 27.5q0 13 -8.5 21.5t-22.5 8.5q-15 0 -26.5 -11t-11.5 -27
q0 -13 9 -22t23 -9z" />
    <glyph glyph-name="AE" unicode="&#xc6;" horiz-adv-x="1275" 
d="M243 -86q-68 0 -121.5 27.5t-84.5 75.5t-31 110q0 57 26 103.5t72 74t105 27.5q65 0 109 -44q40 -41 40 -103q0 -57 -34.5 -91.5t-92.5 -34.5q-28 0 -41.5 10.5t-13.5 19.5q0 6 5 6q2 0 5 -4.5t7 -6.5q8 -7 18.5 -9.5t20.5 -2.5q50 0 78.5 31t28.5 82q0 56 -36.5 93.5
t-97.5 37.5q-52 0 -89.5 -25.5t-58 -67t-20.5 -91.5q0 -55 27 -100.5t73.5 -72.5t106.5 -27q110 0 192.5 74.5t134.5 215.5q23 63 47 124t49.5 109.5t50.5 71.5q-32 19 -77.5 36.5t-91 29.5t-78.5 12q-50 0 -92.5 -17t-67.5 -50.5t-25 -83.5q0 -65 41.5 -107t109.5 -42
q58 0 96.5 27.5t38.5 79.5q0 42 -28 61q-4 2 -7.5 4t-3.5 6q0 7 8 7q2 0 14 -5q37 -21 37 -76q0 -58 -45.5 -90t-110.5 -32q-50 0 -91.5 21t-65.5 57t-24 82q0 63 28.5 109t79.5 71.5t117 25.5q41 0 79.5 -14.5t81.5 -39.5t95 -56q54 35 99 35q27 0 44 -10q19 41 62 61.5
t94 20.5q33 0 62.5 -11.5t48 -33t18.5 -52.5q0 -27 -20 -48t-50 -21q-22 0 -34.5 14.5t-12.5 28.5q0 8 5 8q4 0 8 -10t13.5 -19t21.5 -9q19 0 32 16.5t13 37.5q0 39 -30.5 62.5t-69.5 23.5q-58 0 -91.5 -36.5t-33.5 -95.5q0 -49 26 -81q14 4 33.5 6.5t36.5 2.5q67 0 67 -33
q0 -15 -16.5 -24t-39.5 -9q-31 0 -55.5 10.5t-47.5 26.5q-44 -16 -75 -50.5t-46.5 -80t-15.5 -95.5q0 -57 29 -101.5t77.5 -70t107.5 -25.5q65 0 117.5 24t83.5 68.5t31 108.5q0 48 -26.5 81.5t-73.5 33.5q-29 0 -46.5 -14.5t-17.5 -37.5q0 -10 4.5 -13.5t8.5 -3.5q1 0 1 -1
q0 -6 -8 -6q-7 0 -13 7t-6 23q0 28 23 45.5t52 17.5q62 0 98.5 -38.5t36.5 -99.5q0 -67 -35.5 -114t-93 -71.5t-124.5 -24.5q-93 0 -165.5 37.5t-99.5 109.5q-36 -54 -108 -97q11 3 18 3.5t14 0.5q18 0 38 -5t38 -10t28 -5q18 0 18 16q0 6 7 6t7 -9q0 -33 -43 -33
q-19 0 -49 8q-46 11 -67 13.5t-39 3.5q29 35 47.5 63.5t31 56t21.5 59.5t18 75h-116l-12 -34q-110 -311 -352 -311zM860 493h8q-1 5 -1 10v10q0 21 6 39q-19 9 -41 9q-44 0 -81 -28l51 -25q10 21 22 21q8 0 8 -11q0 -9 -6 -20q8 -3 17 -4t17 -1zM729 280q22 109 66 212
q-5 2 -20 9t-41 20q-53 -50 -121 -241h116zM797 351q22 21 50 37t60 26q-27 27 -36 63h-4q-10 0 -21 1.5t-24 3.5q-8 -26 -14 -57t-11 -74zM1022 380q16 0 27 5.5t11 13.5q0 11 -13.5 16t-35.5 5q-15 0 -30 -2t-31 -6q16 -15 33 -23.5t39 -8.5z" />
    <glyph glyph-name="Ccedilla" unicode="&#xc7;" horiz-adv-x="703" 
d="M383 -39q-91 0 -161.5 39.5t-110.5 109.5t-40 160q0 50 15 98q-53 35 -75.5 75.5t-22.5 84.5q0 50 22.5 92.5t68.5 68.5t116 26q50 0 95.5 -20t68.5 -65q46 10 94 10q53 0 96.5 -13t69.5 -41t26 -74q0 -52 -28.5 -91t-74.5 -65.5t-101 -40t-108 -13.5q-60 0 -109.5 9.5
t-84.5 24.5q-2 -19 -3.5 -36.5t-1.5 -33.5q0 -132 66.5 -209.5t185.5 -77.5q59 0 107 20t76 56t28 84q0 32 -15.5 55.5t-45.5 23.5q-16 0 -31.5 -10.5t-15.5 -26.5q0 -4 0.5 -8.5t0.5 -7.5q0 -10 -6 -10q-10 0 -10 26t18 42t44 16q43 0 70.5 -29t27.5 -72q0 -42 -22.5 -75
t-59.5 -55.5t-81 -34.5t-88 -12zM20 533q0 -34 18 -69t55 -67q32 88 97.5 146t148.5 82q-38 72 -146 72q-50 0 -89 -23.5t-61.5 -61t-22.5 -79.5zM329 322q49 0 97 11t87 32.5t62.5 53t23.5 73.5q0 39 -21.5 68t-56.5 45t-77 16q-41 0 -78 -9q9 -26 9 -58q0 -26 -10.5 -52
t-30 -42.5t-46.5 -16.5q-10 0 -10 8q0 5 6 5q25 0 40.5 16t23.5 38.5t8 41.5q0 30 -9 55q-80 -24 -133.5 -88t-71.5 -157q35 -18 86.5 -29t100.5 -11zM294 -201q-19 0 -33.5 8t-18.5 26h13q6 -10 16.5 -13.5t20.5 -3.5q26 0 39.5 16.5t13.5 33.5q0 13 -7.5 21.5t-21.5 8.5
q-13 0 -20.5 -2t-12.5 -4l-7 16q3 3 17.5 18t30 31.5t21.5 22.5l12 -2q-2 -2 -13.5 -15.5t-22 -27t-8.5 -16.5q4 1 7 1h7q19 0 36.5 -11.5t17.5 -32.5q0 -24 -13.5 -40.5t-33.5 -25.5t-40 -9z" />
    <glyph glyph-name="Egrave" unicode="&#xc8;" horiz-adv-x="584" 
d="M317 -37q-78 0 -141 26t-100.5 76.5t-37.5 123.5q0 81 49 139t129 83q-40 40 -40 99q0 45 23.5 75.5t62 46t82.5 15.5q33 0 62.5 -11.5t48 -33t18.5 -52.5q0 -27 -20 -48t-50 -21q-22 0 -34.5 14.5t-12.5 28.5q0 8 5 8q4 0 8 -10t13.5 -19t21.5 -9q19 0 32 16.5t13 37.5
q0 39 -30.5 62.5t-69.5 23.5q-58 0 -91.5 -36.5t-33.5 -95.5q0 -49 26 -81q14 4 33.5 6.5t36.5 2.5q67 0 67 -33q0 -15 -16.5 -24t-39.5 -9q-31 0 -55.5 10.5t-47.5 26.5q-44 -16 -75 -50.5t-46.5 -80t-15.5 -95.5q0 -57 29 -101.5t77.5 -70t107.5 -25.5q65 0 117.5 24
t83.5 68.5t31 108.5q0 48 -26.5 81.5t-73.5 33.5q-29 0 -46.5 -14.5t-17.5 -37.5q0 -10 4.5 -13.5t8.5 -3.5q1 0 1 -1q0 -6 -8 -6q-7 0 -13 7t-6 23q0 28 23 45.5t52 17.5q62 0 98.5 -38.5t36.5 -99.5q0 -67 -35.5 -114t-93 -71.5t-124.5 -24.5zM331 377q16 0 27 5.5
t11 13.5q0 11 -13.5 16t-35.5 5q-15 0 -30 -2t-31 -6q16 -15 33 -23.5t39 -8.5zM348 701l-118 65q0 7 10 12t16 5q5 0 21.5 -11.5t36.5 -27t34.5 -27.5t14.5 -13q0 -3 -15 -3z" />
    <glyph glyph-name="Eacute" unicode="&#xc9;" horiz-adv-x="584" 
d="M317 -37q-78 0 -141 26t-100.5 76.5t-37.5 123.5q0 81 49 139t129 83q-40 40 -40 99q0 45 23.5 75.5t62 46t82.5 15.5q33 0 62.5 -11.5t48 -33t18.5 -52.5q0 -27 -20 -48t-50 -21q-22 0 -34.5 14.5t-12.5 28.5q0 8 5 8q4 0 8 -10t13.5 -19t21.5 -9q19 0 32 16.5t13 37.5
q0 39 -30.5 62.5t-69.5 23.5q-58 0 -91.5 -36.5t-33.5 -95.5q0 -49 26 -81q14 4 33.5 6.5t36.5 2.5q67 0 67 -33q0 -15 -16.5 -24t-39.5 -9q-31 0 -55.5 10.5t-47.5 26.5q-44 -16 -75 -50.5t-46.5 -80t-15.5 -95.5q0 -57 29 -101.5t77.5 -70t107.5 -25.5q65 0 117.5 24
t83.5 68.5t31 108.5q0 48 -26.5 81.5t-73.5 33.5q-29 0 -46.5 -14.5t-17.5 -37.5q0 -10 4.5 -13.5t8.5 -3.5q1 0 1 -1q0 -6 -8 -6q-7 0 -13 7t-6 23q0 28 23 45.5t52 17.5q62 0 98.5 -38.5t36.5 -99.5q0 -67 -35.5 -114t-93 -71.5t-124.5 -24.5zM331 377q16 0 27 5.5
t11 13.5q0 11 -13.5 16t-35.5 5q-15 0 -30 -2t-31 -6q16 -15 33 -23.5t39 -8.5zM348 701q-15 0 -15 3q0 1 14.5 13t34.5 27.5t37 27t21 11.5q6 0 16 -5t10 -12z" />
    <glyph glyph-name="Ecircumflex" unicode="&#xca;" horiz-adv-x="584" 
d="M317 -37q-78 0 -141 26t-100.5 76.5t-37.5 123.5q0 81 49 139t129 83q-40 40 -40 99q0 45 23.5 75.5t62 46t82.5 15.5q33 0 62.5 -11.5t48 -33t18.5 -52.5q0 -27 -20 -48t-50 -21q-22 0 -34.5 14.5t-12.5 28.5q0 8 5 8q4 0 8 -10t13.5 -19t21.5 -9q19 0 32 16.5t13 37.5
q0 39 -30.5 62.5t-69.5 23.5q-58 0 -91.5 -36.5t-33.5 -95.5q0 -49 26 -81q14 4 33.5 6.5t36.5 2.5q67 0 67 -33q0 -15 -16.5 -24t-39.5 -9q-31 0 -55.5 10.5t-47.5 26.5q-44 -16 -75 -50.5t-46.5 -80t-15.5 -95.5q0 -57 29 -101.5t77.5 -70t107.5 -25.5q65 0 117.5 24
t83.5 68.5t31 108.5q0 48 -26.5 81.5t-73.5 33.5q-29 0 -46.5 -14.5t-17.5 -37.5q0 -10 4.5 -13.5t8.5 -3.5q1 0 1 -1q0 -6 -8 -6q-7 0 -13 7t-6 23q0 28 23 45.5t52 17.5q62 0 98.5 -38.5t36.5 -99.5q0 -67 -35.5 -114t-93 -71.5t-124.5 -24.5zM331 377q16 0 27 5.5
t11 13.5q0 11 -13.5 16t-35.5 5q-15 0 -30 -2t-31 -6q16 -15 33 -23.5t39 -8.5zM243 701l116 82q5 3 8 3t6 -3q5 -5 16.5 -17t24 -26t21 -24.5t8.5 -11.5q-1 -3 -8 -3l-82 47l-89 -47h-21z" />
    <glyph glyph-name="Edieresis" unicode="&#xcb;" horiz-adv-x="584" 
d="M317 -37q-78 0 -141 26t-100.5 76.5t-37.5 123.5q0 81 49 139t129 83q-40 40 -40 99q0 45 23.5 75.5t62 46t82.5 15.5q33 0 62.5 -11.5t48 -33t18.5 -52.5q0 -27 -20 -48t-50 -21q-22 0 -34.5 14.5t-12.5 28.5q0 8 5 8q4 0 8 -10t13.5 -19t21.5 -9q19 0 32 16.5t13 37.5
q0 39 -30.5 62.5t-69.5 23.5q-58 0 -91.5 -36.5t-33.5 -95.5q0 -49 26 -81q14 4 33.5 6.5t36.5 2.5q67 0 67 -33q0 -15 -16.5 -24t-39.5 -9q-31 0 -55.5 10.5t-47.5 26.5q-44 -16 -75 -50.5t-46.5 -80t-15.5 -95.5q0 -57 29 -101.5t77.5 -70t107.5 -25.5q65 0 117.5 24
t83.5 68.5t31 108.5q0 48 -26.5 81.5t-73.5 33.5q-29 0 -46.5 -14.5t-17.5 -37.5q0 -10 4.5 -13.5t8.5 -3.5q1 0 1 -1q0 -6 -8 -6q-7 0 -13 7t-6 23q0 28 23 45.5t52 17.5q62 0 98.5 -38.5t36.5 -99.5q0 -67 -35.5 -114t-93 -71.5t-124.5 -24.5zM331 377q16 0 27 5.5
t11 13.5q0 11 -13.5 16t-35.5 5q-15 0 -30 -2t-31 -6q16 -15 33 -23.5t39 -8.5zM399 711q-14 0 -21 7.5t-7 17.5q0 15 11 26.5t25 11.5q13 0 20.5 -7.5t7.5 -18.5q0 -14 -11.5 -25.5t-24.5 -11.5zM290 711q-14 0 -21 7.5t-7 17.5q0 15 11 26.5t25 11.5q13 0 20.5 -7.5
t7.5 -18.5q0 -14 -11.5 -25.5t-24.5 -11.5z" />
    <glyph glyph-name="Igrave" unicode="&#xcc;" horiz-adv-x="484" 
d="M186 -52q-53 0 -96.5 24t-68.5 66.5t-25 95.5q0 49 22 92.5t60.5 70.5t87.5 27q34 0 60 -17.5t41.5 -46.5t15.5 -63q0 -43 -28 -71t-72 -28q-39 0 -57.5 25t-18.5 59q0 30 13 30q3 0 3 -5q-3 -7 -3.5 -16.5t-0.5 -12.5q0 -28 16.5 -49.5t43.5 -21.5q38 0 62.5 26.5
t24.5 64.5q0 30 -13 56t-35 42t-51 16q-42 0 -71 -23t-44.5 -59.5t-15.5 -77.5q0 -85 38 -138t117 -53q53 0 88 26.5t56 72.5t33 106t18 127q-8 -2 -36 -2q-33 0 -61.5 17t-46.5 47.5t-18 70.5q0 68 37 114.5t97 71t128 24.5q52 0 86 -15q2 -2 2 -4q0 -4 -13 -5
q-20 -2 -39.5 -20.5t-35 -44.5t-23.5 -50q38 -29 38 -77q0 -82 -68 -114q-2 -99 -29 -180.5t-81 -129.5t-137 -48zM362 302q6 0 14 0.5t11 1.5l3 53q2 31 11.5 66.5t25.5 75.5q-6 2 -17 2q-21 0 -36 -14t-15 -35q0 -20 9 -29q6 -3 6 -5q0 -4 -5 -4q-10 0 -15.5 12t-5.5 25
q0 26 20.5 43.5t46.5 17.5q11 0 17 -2q47 105 108 106q-27 7 -61 7q-55 0 -103 -20.5t-80 -58.5t-40 -91q-1 -7 -1.5 -16t-0.5 -20q0 -57 29.5 -86t78.5 -29zM433 321q31 17 43 42t12 56q0 23 -9 40t-20 28q-12 -37 -18 -78.5t-8 -87.5zM462 701l-118 65q0 7 10 12t16 5
q5 0 21.5 -11.5t36.5 -27t34.5 -27.5t14.5 -13q0 -3 -15 -3z" />
    <glyph glyph-name="Iacute" unicode="&#xcd;" horiz-adv-x="484" 
d="M186 -52q-53 0 -96.5 24t-68.5 66.5t-25 95.5q0 49 22 92.5t60.5 70.5t87.5 27q34 0 60 -17.5t41.5 -46.5t15.5 -63q0 -43 -28 -71t-72 -28q-39 0 -57.5 25t-18.5 59q0 30 13 30q3 0 3 -5q-3 -7 -3.5 -16.5t-0.5 -12.5q0 -28 16.5 -49.5t43.5 -21.5q38 0 62.5 26.5
t24.5 64.5q0 30 -13 56t-35 42t-51 16q-42 0 -71 -23t-44.5 -59.5t-15.5 -77.5q0 -85 38 -138t117 -53q53 0 88 26.5t56 72.5t33 106t18 127q-8 -2 -36 -2q-33 0 -61.5 17t-46.5 47.5t-18 70.5q0 68 37 114.5t97 71t128 24.5q52 0 86 -15q2 -2 2 -4q0 -4 -13 -5
q-20 -2 -39.5 -20.5t-35 -44.5t-23.5 -50q38 -29 38 -77q0 -82 -68 -114q-2 -99 -29 -180.5t-81 -129.5t-137 -48zM362 302q6 0 14 0.5t11 1.5l3 53q2 31 11.5 66.5t25.5 75.5q-6 2 -17 2q-21 0 -36 -14t-15 -35q0 -20 9 -29q6 -3 6 -5q0 -4 -5 -4q-10 0 -15.5 12t-5.5 25
q0 26 20.5 43.5t46.5 17.5q11 0 17 -2q47 105 108 106q-27 7 -61 7q-55 0 -103 -20.5t-80 -58.5t-40 -91q-1 -7 -1.5 -16t-0.5 -20q0 -57 29.5 -86t78.5 -29zM433 321q31 17 43 42t12 56q0 23 -9 40t-20 28q-12 -37 -18 -78.5t-8 -87.5zM462 701q-15 0 -15 3q0 1 14.5 13
t34.5 27.5t37 27t21 11.5q6 0 16 -5t10 -12z" />
    <glyph glyph-name="Icircumflex" unicode="&#xce;" horiz-adv-x="484" 
d="M186 -52q-53 0 -96.5 24t-68.5 66.5t-25 95.5q0 49 22 92.5t60.5 70.5t87.5 27q34 0 60 -17.5t41.5 -46.5t15.5 -63q0 -43 -28 -71t-72 -28q-39 0 -57.5 25t-18.5 59q0 30 13 30q3 0 3 -5q-3 -7 -3.5 -16.5t-0.5 -12.5q0 -28 16.5 -49.5t43.5 -21.5q38 0 62.5 26.5
t24.5 64.5q0 30 -13 56t-35 42t-51 16q-42 0 -71 -23t-44.5 -59.5t-15.5 -77.5q0 -85 38 -138t117 -53q53 0 88 26.5t56 72.5t33 106t18 127q-8 -2 -36 -2q-33 0 -61.5 17t-46.5 47.5t-18 70.5q0 68 37 114.5t97 71t128 24.5q52 0 86 -15q2 -2 2 -4q0 -4 -13 -5
q-20 -2 -39.5 -20.5t-35 -44.5t-23.5 -50q38 -29 38 -77q0 -82 -68 -114q-2 -99 -29 -180.5t-81 -129.5t-137 -48zM362 302q6 0 14 0.5t11 1.5l3 53q2 31 11.5 66.5t25.5 75.5q-6 2 -17 2q-21 0 -36 -14t-15 -35q0 -20 9 -29q6 -3 6 -5q0 -4 -5 -4q-10 0 -15.5 12t-5.5 25
q0 26 20.5 43.5t46.5 17.5q11 0 17 -2q47 105 108 106q-27 7 -61 7q-55 0 -103 -20.5t-80 -58.5t-40 -91q-1 -7 -1.5 -16t-0.5 -20q0 -57 29.5 -86t78.5 -29zM433 321q31 17 43 42t12 56q0 23 -9 40t-20 28q-12 -37 -18 -78.5t-8 -87.5zM357 701l116 82q5 3 8 3t6 -3
q5 -5 16.5 -17t24 -26t21 -24.5t8.5 -11.5q-1 -3 -8 -3l-82 47l-89 -47h-21z" />
    <glyph glyph-name="Idieresis" unicode="&#xcf;" horiz-adv-x="484" 
d="M186 -52q-53 0 -96.5 24t-68.5 66.5t-25 95.5q0 49 22 92.5t60.5 70.5t87.5 27q34 0 60 -17.5t41.5 -46.5t15.5 -63q0 -43 -28 -71t-72 -28q-39 0 -57.5 25t-18.5 59q0 30 13 30q3 0 3 -5q-3 -7 -3.5 -16.5t-0.5 -12.5q0 -28 16.5 -49.5t43.5 -21.5q38 0 62.5 26.5
t24.5 64.5q0 30 -13 56t-35 42t-51 16q-42 0 -71 -23t-44.5 -59.5t-15.5 -77.5q0 -85 38 -138t117 -53q53 0 88 26.5t56 72.5t33 106t18 127q-8 -2 -36 -2q-33 0 -61.5 17t-46.5 47.5t-18 70.5q0 68 37 114.5t97 71t128 24.5q52 0 86 -15q2 -2 2 -4q0 -4 -13 -5
q-20 -2 -39.5 -20.5t-35 -44.5t-23.5 -50q38 -29 38 -77q0 -82 -68 -114q-2 -99 -29 -180.5t-81 -129.5t-137 -48zM362 302q6 0 14 0.5t11 1.5l3 53q2 31 11.5 66.5t25.5 75.5q-6 2 -17 2q-21 0 -36 -14t-15 -35q0 -20 9 -29q6 -3 6 -5q0 -4 -5 -4q-10 0 -15.5 12t-5.5 25
q0 26 20.5 43.5t46.5 17.5q11 0 17 -2q47 105 108 106q-27 7 -61 7q-55 0 -103 -20.5t-80 -58.5t-40 -91q-1 -7 -1.5 -16t-0.5 -20q0 -57 29.5 -86t78.5 -29zM433 321q31 17 43 42t12 56q0 23 -9 40t-20 28q-12 -37 -18 -78.5t-8 -87.5zM513 711q-14 0 -21 7.5t-7 17.5
q0 15 11 26.5t25 11.5q13 0 20.5 -7.5t7.5 -18.5q0 -14 -11.5 -25.5t-24.5 -11.5zM404 711q-14 0 -21 7.5t-7 17.5q0 15 11 26.5t25 11.5q13 0 20.5 -7.5t7.5 -18.5q0 -14 -11.5 -25.5t-24.5 -11.5z" />
    <glyph glyph-name="Eth" unicode="&#xd0;" horiz-adv-x="738" 
d="M130 -36q-18 0 -37.5 5t-32.5 16t-13 28q0 20 20.5 34t45.5 14q27 0 59 -10.5t53 -20.5q41 59 63 180q16 89 28.5 160.5t33 128.5t60.5 101q-30 7 -58.5 10t-54.5 3q-75 0 -134 -31.5t-93 -85.5t-34 -124q0 -39 13.5 -72.5t38.5 -53.5t61 -20q33 0 56.5 20.5t36 53
t12.5 68.5q0 38 -16 67t-50 29q-26 0 -46 -20t-20 -47q0 -31 24 -31h8t4 -3q0 -6 -11 -6q-35 0 -35 40q0 32 23.5 55t54.5 23q29 0 48.5 -18t29 -45.5t9.5 -55.5q0 -66 -40 -105t-99 -39q-45 0 -76.5 22t-48 58t-16.5 78q0 60 24.5 108t66.5 81.5t96 51.5t114 18
q64 0 125 -12q38 33 77 33q31 0 31 -9q0 -4 -5 -4h-5t-8 1q-4 1 -8 1h-6q-33 0 -58 -28q125 -31 197 -108t72 -201q0 -95 -41 -167.5t-113.5 -113t-168.5 -40.5q-63 0 -148 29q-27 -23 -47.5 -34.5t-61.5 -11.5zM363 1q63 0 117 23t94 63.5t62.5 95t22.5 117.5
q0 232 -229 296q-16 -24 -30 -72t-25.5 -110.5t-21.5 -132.5q-5 -37 -14.5 -84.5t-29 -93.5t-56.5 -81q59 -21 110 -21zM137 -23q43 0 79 43q-54 22 -86 22q-26 0 -39 -10t-13 -24q0 -12 10.5 -18.5t24.5 -9.5t24 -3zM207 138l1 23h185l-2 -23h-184z" />
    <glyph glyph-name="Ntilde" unicode="&#xd1;" horiz-adv-x="976" 
d="M248 -63q-62 0 -114 28.5t-82.5 77.5t-30.5 111q0 68 37 121q-46 58 -46 142q0 87 44 148t119 92.5t168 31.5q44 0 86.5 -9.5t91 -26t111.5 -38.5q16 16 40 21.5t43 5.5t31 -6.5t12 -20.5q0 -12 -11 -20t-31 -8q-12 0 -27.5 3.5t-31.5 7.5q-5 -13 -5 -31q0 -44 12 -81
t32.5 -76t47.5 -90q30 -53 54.5 -103t39.5 -91t15 -69q0 -41 -14 -69q23 14 36.5 48.5t19.5 105t6 192.5q0 63 4.5 122.5t18 107t41.5 76t76 28.5q38 0 61.5 -26.5t23.5 -69.5q0 -21 -4 -41.5t-15 -37.5q-24 -38 -74 -38q-13 0 -13 6q0 5 13 5q20 0 36.5 8.5t26.5 25.5
q16 28 16 71q0 34 -18.5 60t-53.5 26q-36 0 -59.5 -28.5t-37 -76t-18.5 -104t-5 -113.5q0 -97 -4 -169t-20 -119t-54 -71q-1 -1 -7 -1q-4 0 -8.5 1t-4.5 2q3 2 5 10.5t2 15.5q0 15 -6 31q-21 51 -56.5 114.5t-70.5 127.5q-33 63 -57.5 121t-24.5 100q0 54 23 106
q-33 -22 -51 -90q-15 -57 -19 -117.5t-9 -122t-23 -120.5t-60 -112q-39 -48 -98.5 -76.5t-128.5 -28.5zM251 -48q63 0 117 34.5t98 108.5q26 43 41 96.5t25 111.5t19.5 115t23.5 106q17 61 48 85q-79 21 -142.5 36.5t-119.5 15.5q-92 0 -164.5 -28.5t-114 -85t-41.5 -139.5
q0 -63 33 -113q49 55 125 55q55 0 96 -29.5t57 -81.5q89 62 89 162q0 41 -17.5 73.5t-48 52t-70.5 19.5q-47 0 -82 -28.5t-35 -74.5q0 -42 34 -61q9 0 9 -5q0 -2 -5 -4q-4 0 -14 5q-37 22 -37 70q0 52 36 84t88 32q71 0 114.5 -42t43.5 -113q0 -122 -101 -188
q1 -9 1.5 -15.5t0.5 -11.5q0 -50 -28 -85q-30 -39 -77 -39q-13 0 -22.5 2t-9.5 6q0 6 6 6q2 0 7 -0.5t12 -0.5q42 0 69 31t27 74q0 8 -0.5 14t-1.5 10q-22 -12 -47.5 -18t-57.5 -6q-95 0 -160 68q-27 -45 -27 -99q0 -61 25 -107.5t71 -72t107 -25.5zM714 597q13 0 22 4.5
t9 12.5q0 10 -9.5 14.5t-21.5 4.5q-35 0 -51 -25l32 -8t19 -3zM235 204q52 0 101 27q-12 47 -47 76t-83 29q-70 0 -118 -60q63 -72 147 -72zM876 709q-15 0 -31 8t-30.5 16t-27.5 8q-19 0 -26.5 -10t-12.5 -17h-10q5 20 23.5 39.5t40.5 19.5q13 0 26 -7.5t27.5 -15
t30.5 -7.5q23 0 31 10.5t11 15.5h8q-5 -22 -19.5 -41t-40.5 -19z" />
    <glyph glyph-name="Ograve" unicode="&#xd2;" horiz-adv-x="659" 
d="M310 -38q-90 0 -153 41.5t-96 112.5t-33 160q0 126 58 222q-64 53 -64 112q0 46 31 70.5t78 24.5q52 0 81 -29q5 -5 5 -8q0 -2 -3 -2h-4q-18 14 -37.5 21.5t-40.5 7.5q-40 0 -64 -21.5t-25 -61.5q0 -54 52 -99q94 139 275 139q63 0 106 -23q49 -31 49 -89q93 -78 93 -219
q0 -105 -37.5 -186t-106.5 -127t-164 -46zM317 435q41 0 80 9.5t67 29.5t37 51q-39 42 -88 42q-24 0 -41 -8t-32 -21q-5 0 -5 7q0 14 14.5 22.5t33 12.5t31.5 4q22 0 44 -5.5t44 -22.5q-16 84 -133 84q-71 0 -138 -46q-60 -43 -95 -110q41 -22 87 -35.5t94 -13.5zM315 -22
q59 0 106 28t80 77t50 111t17 129q0 118 -55 186q-24 -48 -76 -70t-114 -22q-49 0 -102.5 13t-92.5 38q-21 -41 -31 -86.5t-10 -95.5q0 -59 15 -114t44 -99t71.5 -69.5t97.5 -25.5zM380 713l-118 65q0 7 10 12t16 5q5 0 21.5 -11.5t36.5 -27t34.5 -27.5t14.5 -13
q0 -3 -15 -3z" />
    <glyph glyph-name="Oacute" unicode="&#xd3;" horiz-adv-x="659" 
d="M310 -38q-90 0 -153 41.5t-96 112.5t-33 160q0 126 58 222q-64 53 -64 112q0 46 31 70.5t78 24.5q52 0 81 -29q5 -5 5 -8q0 -2 -3 -2h-4q-18 14 -37.5 21.5t-40.5 7.5q-40 0 -64 -21.5t-25 -61.5q0 -54 52 -99q94 139 275 139q63 0 106 -23q49 -31 49 -89q93 -78 93 -219
q0 -105 -37.5 -186t-106.5 -127t-164 -46zM317 435q41 0 80 9.5t67 29.5t37 51q-39 42 -88 42q-24 0 -41 -8t-32 -21q-5 0 -5 7q0 14 14.5 22.5t33 12.5t31.5 4q22 0 44 -5.5t44 -22.5q-16 84 -133 84q-71 0 -138 -46q-60 -43 -95 -110q41 -22 87 -35.5t94 -13.5zM315 -22
q59 0 106 28t80 77t50 111t17 129q0 118 -55 186q-24 -48 -76 -70t-114 -22q-49 0 -102.5 13t-92.5 38q-21 -41 -31 -86.5t-10 -95.5q0 -59 15 -114t44 -99t71.5 -69.5t97.5 -25.5zM380 713q-15 0 -15 3q0 1 14.5 13t34.5 27.5t37 27t21 11.5q6 0 16 -5t10 -12z" />
    <glyph glyph-name="Ocircumflex" unicode="&#xd4;" horiz-adv-x="659" 
d="M310 -38q-90 0 -153 41.5t-96 112.5t-33 160q0 126 58 222q-64 53 -64 112q0 46 31 70.5t78 24.5q52 0 81 -29q5 -5 5 -8q0 -2 -3 -2h-4q-18 14 -37.5 21.5t-40.5 7.5q-40 0 -64 -21.5t-25 -61.5q0 -54 52 -99q94 139 275 139q63 0 106 -23q49 -31 49 -89q93 -78 93 -219
q0 -105 -37.5 -186t-106.5 -127t-164 -46zM317 435q41 0 80 9.5t67 29.5t37 51q-39 42 -88 42q-24 0 -41 -8t-32 -21q-5 0 -5 7q0 14 14.5 22.5t33 12.5t31.5 4q22 0 44 -5.5t44 -22.5q-16 84 -133 84q-71 0 -138 -46q-60 -43 -95 -110q41 -22 87 -35.5t94 -13.5zM315 -22
q59 0 106 28t80 77t50 111t17 129q0 118 -55 186q-24 -48 -76 -70t-114 -22q-49 0 -102.5 13t-92.5 38q-21 -41 -31 -86.5t-10 -95.5q0 -59 15 -114t44 -99t71.5 -69.5t97.5 -25.5zM275 713l116 82q5 3 8 3t6 -3q5 -5 16.5 -17t24 -26t21 -24.5t8.5 -11.5q-1 -3 -8 -3
l-82 47l-89 -47h-21z" />
    <glyph glyph-name="Otilde" unicode="&#xd5;" horiz-adv-x="659" 
d="M310 -38q-90 0 -153 41.5t-96 112.5t-33 160q0 126 58 222q-64 53 -64 112q0 46 31 70.5t78 24.5q52 0 81 -29q5 -5 5 -8q0 -2 -3 -2h-4q-18 14 -37.5 21.5t-40.5 7.5q-40 0 -64 -21.5t-25 -61.5q0 -54 52 -99q94 139 275 139q63 0 106 -23q49 -31 49 -89q93 -78 93 -219
q0 -105 -37.5 -186t-106.5 -127t-164 -46zM317 435q41 0 80 9.5t67 29.5t37 51q-39 42 -88 42q-24 0 -41 -8t-32 -21q-5 0 -5 7q0 14 14.5 22.5t33 12.5t31.5 4q22 0 44 -5.5t44 -22.5q-16 84 -133 84q-71 0 -138 -46q-60 -43 -95 -110q41 -22 87 -35.5t94 -13.5zM315 -22
q59 0 106 28t80 77t50 111t17 129q0 118 -55 186q-24 -48 -76 -70t-114 -22q-49 0 -102.5 13t-92.5 38q-21 -41 -31 -86.5t-10 -95.5q0 -59 15 -114t44 -99t71.5 -69.5t97.5 -25.5zM419 721q-15 0 -31 8t-30.5 16t-27.5 8q-19 0 -26.5 -10t-12.5 -17h-10q5 20 23.5 39.5
t40.5 19.5q13 0 26 -7.5t27.5 -15t30.5 -7.5q23 0 31 10.5t11 15.5h8q-5 -22 -19.5 -41t-40.5 -19z" />
    <glyph glyph-name="Odieresis" unicode="&#xd6;" horiz-adv-x="659" 
d="M310 -38q-90 0 -153 41.5t-96 112.5t-33 160q0 126 58 222q-64 53 -64 112q0 46 31 70.5t78 24.5q52 0 81 -29q5 -5 5 -8q0 -2 -3 -2h-4q-18 14 -37.5 21.5t-40.5 7.5q-40 0 -64 -21.5t-25 -61.5q0 -54 52 -99q94 139 275 139q63 0 106 -23q49 -31 49 -89q93 -78 93 -219
q0 -105 -37.5 -186t-106.5 -127t-164 -46zM317 435q41 0 80 9.5t67 29.5t37 51q-39 42 -88 42q-24 0 -41 -8t-32 -21q-5 0 -5 7q0 14 14.5 22.5t33 12.5t31.5 4q22 0 44 -5.5t44 -22.5q-16 84 -133 84q-71 0 -138 -46q-60 -43 -95 -110q41 -22 87 -35.5t94 -13.5zM315 -22
q59 0 106 28t80 77t50 111t17 129q0 118 -55 186q-24 -48 -76 -70t-114 -22q-49 0 -102.5 13t-92.5 38q-21 -41 -31 -86.5t-10 -95.5q0 -59 15 -114t44 -99t71.5 -69.5t97.5 -25.5zM431 723q-14 0 -21 7.5t-7 17.5q0 15 11 26.5t25 11.5q13 0 20.5 -7.5t7.5 -18.5
q0 -14 -11.5 -25.5t-24.5 -11.5zM322 723q-14 0 -21 7.5t-7 17.5q0 15 11 26.5t25 11.5q13 0 20.5 -7.5t7.5 -18.5q0 -14 -11.5 -25.5t-24.5 -11.5z" />
    <glyph glyph-name="multiply" unicode="&#xd7;" horiz-adv-x="331" 
d="M251 70l-86 86l-85 -84l-20 20l85 84l-84 84l20 20l84 -84l85 85l20 -20l-85 -85l86 -86z" />
    <glyph glyph-name="Oslash" unicode="&#xd8;" horiz-adv-x="578" 
d="M48 -92l72 125q-45 42 -68.5 105t-23.5 138q0 126 58 222q-64 53 -64 112q0 46 31 70.5t78 24.5q52 0 81 -29q5 -5 5 -8q0 -2 -3 -2h-4q-18 14 -37.5 21.5t-40.5 7.5q-40 0 -64 -21.5t-25 -61.5q0 -54 52 -99q94 139 275 139q56 0 96 -18l53 92h33l-62 -107
q35 -30 35 -79q93 -78 93 -219q0 -105 -37.5 -186t-106.5 -127t-164 -46q-51 0 -93.5 14t-75.5 39l-62 -107h-31zM317 435q18 0 35 2l75 129q-7 1 -14 1q-24 0 -41 -8t-32 -21q-5 0 -5 7q0 14 14.5 22.5t33 12.5t31.5 4q12 0 23 -1l21 37q-33 20 -89 20q-71 0 -138 -46
q-60 -43 -95 -110q41 -22 87 -35.5t94 -13.5zM502 556q-5 28 -22 46l-15 -26q19 -7 37 -20zM501 525q-21 23 -46 33l-67 -116q41 9 72 29.5t41 53.5zM315 -22q59 0 106 28t80 77t50 111t17 129q0 118 -55 186q-19 -38 -55.5 -59.5t-81.5 -28.5l-214 -369q29 -34 67 -54
t86 -20zM87 286q0 -58 14.5 -113t43.5 -97l196 341h-18q-49 0 -102.5 13t-92.5 38q-21 -41 -31 -86.5t-10 -95.5z" />
    <glyph glyph-name="Ugrave" unicode="&#xd9;" horiz-adv-x="658" 
d="M631 -103q-43 0 -64 34.5t-27.5 91.5t-6.5 124q0 27 3.5 59t8.5 63.5t9 55.5q-20 -72 -40.5 -134.5t-47 -109.5t-61.5 -73.5t-83 -26.5q-49 0 -69.5 28.5t-20.5 74.5q0 43 13.5 95.5t33.5 107.5q17 47 26.5 92.5t9.5 85.5q0 67 -30.5 110.5t-100.5 43.5q-56 0 -104.5 -29
t-78 -76.5t-29.5 -104.5q0 -39 14.5 -73t42 -54.5t64.5 -20.5q46 0 75 29t29 75v11q0 8 6 8t6 -19q0 -54 -36 -86.5t-86 -32.5q-46 0 -78.5 22.5t-50 59t-17.5 76.5q0 46 20 87t53.5 72t77 49t89.5 18q95 0 140 -46t45 -123q0 -69 -35 -157q-24 -62 -44 -126t-20 -111
q0 -33 13.5 -53t45.5 -20q46 0 79 32t58.5 88t48.5 129.5t49 157.5q9 25 25 49.5t38 40.5t49 16q33 0 33 -15q0 -9 -15 -9q2 0 -4.5 0.5t-13.5 0.5q-55 0 -76 -87q-11 -45 -16.5 -100t-5.5 -131q0 -84 10.5 -143.5t30.5 -90.5q11 -17 24 -17q7 0 14.5 8t11.5 22q7 0 7 -6
q0 -19 -14 -30.5t-28 -11.5zM519 651l-118 65q0 7 10 12t16 5q5 0 21.5 -11.5t36.5 -27t34.5 -27.5t14.5 -13q0 -3 -15 -3z" />
    <glyph glyph-name="Uacute" unicode="&#xda;" horiz-adv-x="658" 
d="M631 -103q-43 0 -64 34.5t-27.5 91.5t-6.5 124q0 27 3.5 59t8.5 63.5t9 55.5q-20 -72 -40.5 -134.5t-47 -109.5t-61.5 -73.5t-83 -26.5q-49 0 -69.5 28.5t-20.5 74.5q0 43 13.5 95.5t33.5 107.5q17 47 26.5 92.5t9.5 85.5q0 67 -30.5 110.5t-100.5 43.5q-56 0 -104.5 -29
t-78 -76.5t-29.5 -104.5q0 -39 14.5 -73t42 -54.5t64.5 -20.5q46 0 75 29t29 75v11q0 8 6 8t6 -19q0 -54 -36 -86.5t-86 -32.5q-46 0 -78.5 22.5t-50 59t-17.5 76.5q0 46 20 87t53.5 72t77 49t89.5 18q95 0 140 -46t45 -123q0 -69 -35 -157q-24 -62 -44 -126t-20 -111
q0 -33 13.5 -53t45.5 -20q46 0 79 32t58.5 88t48.5 129.5t49 157.5q9 25 25 49.5t38 40.5t49 16q33 0 33 -15q0 -9 -15 -9q2 0 -4.5 0.5t-13.5 0.5q-55 0 -76 -87q-11 -45 -16.5 -100t-5.5 -131q0 -84 10.5 -143.5t30.5 -90.5q11 -17 24 -17q7 0 14.5 8t11.5 22q7 0 7 -6
q0 -19 -14 -30.5t-28 -11.5zM519 651q-15 0 -15 3q0 1 14.5 13t34.5 27.5t37 27t21 11.5q6 0 16 -5t10 -12z" />
    <glyph glyph-name="Ucircumflex" unicode="&#xdb;" horiz-adv-x="658" 
d="M631 -103q-43 0 -64 34.5t-27.5 91.5t-6.5 124q0 27 3.5 59t8.5 63.5t9 55.5q-20 -72 -40.5 -134.5t-47 -109.5t-61.5 -73.5t-83 -26.5q-49 0 -69.5 28.5t-20.5 74.5q0 43 13.5 95.5t33.5 107.5q17 47 26.5 92.5t9.5 85.5q0 67 -30.5 110.5t-100.5 43.5q-56 0 -104.5 -29
t-78 -76.5t-29.5 -104.5q0 -39 14.5 -73t42 -54.5t64.5 -20.5q46 0 75 29t29 75v11q0 8 6 8t6 -19q0 -54 -36 -86.5t-86 -32.5q-46 0 -78.5 22.5t-50 59t-17.5 76.5q0 46 20 87t53.5 72t77 49t89.5 18q95 0 140 -46t45 -123q0 -69 -35 -157q-24 -62 -44 -126t-20 -111
q0 -33 13.5 -53t45.5 -20q46 0 79 32t58.5 88t48.5 129.5t49 157.5q9 25 25 49.5t38 40.5t49 16q33 0 33 -15q0 -9 -15 -9q2 0 -4.5 0.5t-13.5 0.5q-55 0 -76 -87q-11 -45 -16.5 -100t-5.5 -131q0 -84 10.5 -143.5t30.5 -90.5q11 -17 24 -17q7 0 14.5 8t11.5 22q7 0 7 -6
q0 -19 -14 -30.5t-28 -11.5zM414 651l116 82q5 3 8 3t6 -3q5 -5 16.5 -17t24 -26t21 -24.5t8.5 -11.5q-1 -3 -8 -3l-82 47l-89 -47h-21z" />
    <glyph glyph-name="Udieresis" unicode="&#xdc;" horiz-adv-x="658" 
d="M631 -103q-43 0 -64 34.5t-27.5 91.5t-6.5 124q0 27 3.5 59t8.5 63.5t9 55.5q-20 -72 -40.5 -134.5t-47 -109.5t-61.5 -73.5t-83 -26.5q-49 0 -69.5 28.5t-20.5 74.5q0 43 13.5 95.5t33.5 107.5q17 47 26.5 92.5t9.5 85.5q0 67 -30.5 110.5t-100.5 43.5q-56 0 -104.5 -29
t-78 -76.5t-29.5 -104.5q0 -39 14.5 -73t42 -54.5t64.5 -20.5q46 0 75 29t29 75v11q0 8 6 8t6 -19q0 -54 -36 -86.5t-86 -32.5q-46 0 -78.5 22.5t-50 59t-17.5 76.5q0 46 20 87t53.5 72t77 49t89.5 18q95 0 140 -46t45 -123q0 -69 -35 -157q-24 -62 -44 -126t-20 -111
q0 -33 13.5 -53t45.5 -20q46 0 79 32t58.5 88t48.5 129.5t49 157.5q9 25 25 49.5t38 40.5t49 16q33 0 33 -15q0 -9 -15 -9q2 0 -4.5 0.5t-13.5 0.5q-55 0 -76 -87q-11 -45 -16.5 -100t-5.5 -131q0 -84 10.5 -143.5t30.5 -90.5q11 -17 24 -17q7 0 14.5 8t11.5 22q7 0 7 -6
q0 -19 -14 -30.5t-28 -11.5zM570 661q-14 0 -21 7.5t-7 17.5q0 15 11 26.5t25 11.5q13 0 20.5 -7.5t7.5 -18.5q0 -14 -11.5 -25.5t-24.5 -11.5zM461 661q-14 0 -21 7.5t-7 17.5q0 15 11 26.5t25 11.5q13 0 20.5 -7.5t7.5 -18.5q0 -14 -11.5 -25.5t-24.5 -11.5z" />
    <glyph glyph-name="Yacute" unicode="&#xdd;" horiz-adv-x="800" 
d="M861 -356q-61 0 -107 10t-87 28t-88 40q-38 -34 -97 -53t-116 -19q-76 0 -125 25t-73 66t-24 87q0 40 27 62t73 22q29 0 86.5 -17.5t144.5 -66.5q16 -9 41.5 -23.5t48.5 -27.5t30 -18q33 50 52 91t27.5 85t9.5 102l2 153q1 21 4 47t7 51t7 41q-15 -65 -32.5 -125
t-42 -107.5t-58 -75t-80.5 -27.5q-52 0 -74.5 27t-22.5 80q0 35 10 75t23.5 83.5t23.5 89.5t10 93q0 87 -42 138t-121 51q-44 0 -86 -20t-76 -53t-54 -74.5t-20 -83.5q0 -40 11 -73t32 -60q23 -29 55 -46.5t72 -17.5q42 0 75.5 23t53 59t19.5 76q0 48 -32.5 79.5t-81.5 31.5
q-45 0 -67.5 -26t-22.5 -56q0 -25 17.5 -45.5t52.5 -20.5q5 0 12 1t12 4q0 -10 -8.5 -14t-22.5 -4q-43 0 -63.5 22.5t-20.5 50.5q0 25 14 49t41.5 40t66.5 16q60 0 96.5 -37t36.5 -97q0 -45 -25.5 -82t-66.5 -59t-89 -22q-57 0 -102 27t-71 72.5t-26 100.5q0 69 34.5 126.5
t95 91.5t138.5 34q45 0 84 -18t69 -48.5t47 -68.5t17 -78q0 -61 -13 -109.5t-30 -87t-30 -71.5t-13 -65q0 -42 13 -65.5t40 -23.5q47 0 80.5 28t56 73t38 95.5t25.5 95.5q14 61 26.5 93.5t24.5 48t24 23.5q25 16 58 16q30 0 30 -17q0 -4 -10 -8t-4 -3l2 -1h-1l-1 1h-20
q-28 0 -50 -20t-33 -52q-6 -16 -8 -35t-2 -41q0 -41 5.5 -88.5t11 -96.5t5.5 -95q0 -67 -17 -115.5t-40.5 -80.5t-45 -51t-30.5 -28q74 -37 141 -62.5t111 -25.5q56 0 96 25t40 73q0 4 -1.5 22t-4.5 27q-1 2 -1 5q0 6 6 6q7 0 9 -6q5 -11 6.5 -22.5t1.5 -24.5
q0 -42 -24.5 -69.5t-59.5 -41t-66 -13.5zM368 -328q53 0 105.5 14.5t90.5 45.5q-9 5 -34 17.5t-52.5 26.5t-47.5 24q-59 32 -110 53t-91 21q-33 0 -51.5 -11.5t-18.5 -34.5q0 -36 26 -72t73.5 -60t109.5 -24zM659 651q-15 0 -15 3q0 1 14.5 13t34.5 27.5t37 27t21 11.5
q6 0 16 -5t10 -12z" />
    <glyph glyph-name="Thorn" unicode="&#xde;" horiz-adv-x="607" 
d="M145 -36q-85 0 -85 62q0 34 20 34q6 0 6 -10v-5t-1 -8t-1 -9v-6q0 -42 55 -42q90 0 136 145q7 22 20 82t27 148q8 57 20.5 112t28.5 102q-30 4 -63 4q-78 0 -139.5 -33t-97 -89.5t-35.5 -129.5q0 -38 13 -72t38 -55t60 -21t63.5 20t45.5 52.5t17 71.5q0 11 6 11
q9 0 9 -19q0 -68 -43.5 -110.5t-111.5 -42.5q-43 0 -73.5 23.5t-46 61t-15.5 79.5q0 84 42 143t112 90.5t153 31.5q37 0 71 -4q25 69 61 112.5t84 43.5q16 0 16 -7q0 -5 -11 -5q-41 0 -70 -41.5t-49 -106.5q100 -18 150.5 -67t50.5 -112q0 -51 -28.5 -92.5t-85.5 -67
t-144 -28.5q-6 -33 -15 -63t-23 -57q-42 -83 -134 -120q-15 -6 -33 -6zM391 510q-14 -71 -20 -145.5t-18 -142.5q79 2 126 29t68 66.5t21 77.5q0 53 -38.5 101t-125.5 67q-7 -25 -13 -53z" />
    <glyph glyph-name="germandbls" unicode="&#xdf;" horiz-adv-x="362" 
d="M-164 -213q-41 -4 -63 15t-22 41q0 17 13 30t41 15h1q9 0 9 -7t-8 -7q-20 -1 -30 -11t-10 -22q0 -14 15 -27t46 -13q59 0 92.5 39t53.5 114t37 182t42 242q9 50 23.5 101.5t37 94.5t56 69.5t80.5 26.5q51 0 75 -29.5t24 -72.5q0 -36 -16 -75t-46 -73t-74 -54l-4 -3
q7 -25 25 -56.5t33 -54.5q17 -25 25.5 -49.5t8.5 -50.5q0 -105 -76 -136q12 -3 23 -3q41 0 66.5 21.5t41 57.5t24.5 80q2 7 7 7t5 -7q-13 -80 -48.5 -125.5t-94.5 -45.5q-20 0 -41 7q-20 -5 -35 -5q-35 0 -54.5 16.5t-19.5 35.5q0 23 19 23q11 0 36 -20q16 -13 27.5 -21.5
t19.5 -12.5q22 13 36 41q19 38 19 85q0 17 -3 35t-8 38q-9 29 -27 60.5t-25 58.5q-1 2 -1 5t-1 5q0 1 -0.5 1.5t-0.5 1.5q-1 8 3.5 14.5t14.5 13.5q31 25 54 59t35.5 70.5t12.5 67.5q0 33 -16 54.5t-51 21.5q-37 0 -62 -25t-40 -66.5t-24.5 -91t-15.5 -99.5
q-20 -142 -39 -250t-45.5 -181t-69.5 -112t-111 -44zM170 15q11 0 18 4q-10 5 -20.5 12.5t-23.5 17.5q-17 13 -26 13q-4 0 -4 -6q0 -4 3.5 -10.5t11.5 -14.5q16 -16 41 -16z" />
    <glyph glyph-name="agrave" unicode="&#xe0;" horiz-adv-x="327" 
d="M95 -1q-28 0 -45 21t-24.5 54t-7.5 67q0 50 13.5 98.5t40 80.5t65.5 32q56 0 63 -85l9 82q3 -1 9 -1q19 0 31 22q1 4 4 4q4 0 5 -6l-21 -178q-6 -51 -6 -99q0 -38 5.5 -57t20.5 -19q17 0 31 15.5t25 40t19.5 51.5t12.5 50q2 11 7 11q6 0 5 -11q-8 -41 -20 -80.5t-33 -65
t-55 -25.5q-24 0 -37.5 18.5t-18.5 46t-5 54.5q-29 -110 -79 -120q-4 -1 -7 -1h-7zM104 12q22 3 38.5 30t28 64.5t16.5 71.5q3 21 3 46q0 28 -4.5 54.5t-14.5 44t-28 17.5q-17 0 -31.5 -21t-25 -53.5t-16.5 -67t-6 -61.5t4 -57t13 -50t23 -18zM161 421l-118 65q0 7 10 12
t16 5q5 0 21.5 -11.5t36.5 -27t34.5 -27.5t14.5 -13q0 -3 -15 -3z" />
    <glyph glyph-name="aacute" unicode="&#xe1;" horiz-adv-x="327" 
d="M95 -1q-28 0 -45 21t-24.5 54t-7.5 67q0 50 13.5 98.5t40 80.5t65.5 32q56 0 63 -85l9 82q3 -1 9 -1q19 0 31 22q1 4 4 4q4 0 5 -6l-21 -178q-6 -51 -6 -99q0 -38 5.5 -57t20.5 -19q17 0 31 15.5t25 40t19.5 51.5t12.5 50q2 11 7 11q6 0 5 -11q-8 -41 -20 -80.5t-33 -65
t-55 -25.5q-24 0 -37.5 18.5t-18.5 46t-5 54.5q-29 -110 -79 -120q-4 -1 -7 -1h-7zM104 12q22 3 38.5 30t28 64.5t16.5 71.5q3 21 3 46q0 28 -4.5 54.5t-14.5 44t-28 17.5q-17 0 -31.5 -21t-25 -53.5t-16.5 -67t-6 -61.5t4 -57t13 -50t23 -18zM161 421q-15 0 -15 3
q0 1 14.5 13t34.5 27.5t37 27t21 11.5q6 0 16 -5t10 -12z" />
    <glyph glyph-name="acircumflex" unicode="&#xe2;" horiz-adv-x="327" 
d="M95 -1q-28 0 -45 21t-24.5 54t-7.5 67q0 50 13.5 98.5t40 80.5t65.5 32q56 0 63 -85l9 82q3 -1 9 -1q19 0 31 22q1 4 4 4q4 0 5 -6l-21 -178q-6 -51 -6 -99q0 -38 5.5 -57t20.5 -19q17 0 31 15.5t25 40t19.5 51.5t12.5 50q2 11 7 11q6 0 5 -11q-8 -41 -20 -80.5t-33 -65
t-55 -25.5q-24 0 -37.5 18.5t-18.5 46t-5 54.5q-29 -110 -79 -120q-4 -1 -7 -1h-7zM104 12q22 3 38.5 30t28 64.5t16.5 71.5q3 21 3 46q0 28 -4.5 54.5t-14.5 44t-28 17.5q-17 0 -31.5 -21t-25 -53.5t-16.5 -67t-6 -61.5t4 -57t13 -50t23 -18zM56 421l116 82q5 3 8 3t6 -3
q5 -5 16.5 -17t24 -26t21 -24.5t8.5 -11.5q-1 -3 -8 -3l-82 47l-89 -47h-21z" />
    <glyph glyph-name="atilde" unicode="&#xe3;" horiz-adv-x="327" 
d="M95 -1q-28 0 -45 21t-24.5 54t-7.5 67q0 50 13.5 98.5t40 80.5t65.5 32q56 0 63 -85l9 82q3 -1 9 -1q19 0 31 22q1 4 4 4q4 0 5 -6l-21 -178q-6 -51 -6 -99q0 -38 5.5 -57t20.5 -19q17 0 31 15.5t25 40t19.5 51.5t12.5 50q2 11 7 11q6 0 5 -11q-8 -41 -20 -80.5t-33 -65
t-55 -25.5q-24 0 -37.5 18.5t-18.5 46t-5 54.5q-29 -110 -79 -120q-4 -1 -7 -1h-7zM104 12q22 3 38.5 30t28 64.5t16.5 71.5q3 21 3 46q0 28 -4.5 54.5t-14.5 44t-28 17.5q-17 0 -31.5 -21t-25 -53.5t-16.5 -67t-6 -61.5t4 -57t13 -50t23 -18zM200 429q-15 0 -31 8t-30.5 16
t-27.5 8q-19 0 -26.5 -10t-12.5 -17h-10q5 20 23.5 39.5t40.5 19.5q13 0 26 -7.5t27.5 -15t30.5 -7.5q23 0 31 10.5t11 15.5h8q-5 -22 -19.5 -41t-40.5 -19z" />
    <glyph glyph-name="adieresis" unicode="&#xe4;" horiz-adv-x="327" 
d="M95 -1q-28 0 -45 21t-24.5 54t-7.5 67q0 50 13.5 98.5t40 80.5t65.5 32q56 0 63 -85l9 82q3 -1 9 -1q19 0 31 22q1 4 4 4q4 0 5 -6l-21 -178q-6 -51 -6 -99q0 -38 5.5 -57t20.5 -19q17 0 31 15.5t25 40t19.5 51.5t12.5 50q2 11 7 11q6 0 5 -11q-8 -41 -20 -80.5t-33 -65
t-55 -25.5q-24 0 -37.5 18.5t-18.5 46t-5 54.5q-29 -110 -79 -120q-4 -1 -7 -1h-7zM104 12q22 3 38.5 30t28 64.5t16.5 71.5q3 21 3 46q0 28 -4.5 54.5t-14.5 44t-28 17.5q-17 0 -31.5 -21t-25 -53.5t-16.5 -67t-6 -61.5t4 -57t13 -50t23 -18zM212 431q-14 0 -21 7.5
t-7 17.5q0 15 11 26.5t25 11.5q13 0 20.5 -7.5t7.5 -18.5q0 -14 -11.5 -25.5t-24.5 -11.5zM103 431q-14 0 -21 7.5t-7 17.5q0 15 11 26.5t25 11.5q13 0 20.5 -7.5t7.5 -18.5q0 -14 -11.5 -25.5t-24.5 -11.5z" />
    <glyph glyph-name="aring" unicode="&#xe5;" horiz-adv-x="327" 
d="M95 -1q-28 0 -45 21t-24.5 54t-7.5 67q0 50 13.5 98.5t40 80.5t65.5 32q56 0 63 -85l9 82q3 -1 9 -1q19 0 31 22q1 4 4 4q4 0 5 -6l-21 -178q-6 -51 -6 -99q0 -38 5.5 -57t20.5 -19q17 0 31 15.5t25 40t19.5 51.5t12.5 50q2 11 7 11q6 0 5 -11q-8 -41 -20 -80.5t-33 -65
t-55 -25.5q-24 0 -37.5 18.5t-18.5 46t-5 54.5q-29 -110 -79 -120q-4 -1 -7 -1h-7zM104 12q22 3 38.5 30t28 64.5t16.5 71.5q3 21 3 46q0 28 -4.5 54.5t-14.5 44t-28 17.5q-17 0 -31.5 -21t-25 -53.5t-16.5 -67t-6 -61.5t4 -57t13 -50t23 -18zM161 420q-21 0 -35 14t-14 35
q0 23 17.5 40.5t41.5 17.5q20 0 34 -14t14 -34q0 -24 -17.5 -41.5t-40.5 -17.5zM163 439q14 0 25.5 11.5t11.5 27.5q0 13 -8.5 21.5t-22.5 8.5q-15 0 -26.5 -11t-11.5 -27q0 -13 9 -22t23 -9z" />
    <glyph glyph-name="ae" unicode="&#xe6;" horiz-adv-x="387" 
d="M95 -1q-28 0 -45 21t-24.5 54t-7.5 67q0 50 13.5 98.5t40 80.5t65.5 32q56 0 63 -85l9 82q3 -1 9 -1q21 0 31 22q1 4 4 4q4 0 5 -6l-5 -41q25 23 52 23q18 0 31 -10q16 -13 16 -47q0 -41 -19 -75q-40 -75 -103 -75q0 -130 61 -130q36 0 67 41.5t47 117.5q2 10 7 10
q6 0 5 -10q-39 -173 -129 -173q-46 0 -71 35t-30 82q-18 -58 -36.5 -84.5t-41.5 -31.5q-4 -1 -7 -1h-7zM104 12q23 0 39.5 27t27.5 65.5t16 73.5q3 21 3 46q0 28 -4.5 54.5t-14.5 44t-28 17.5q-17 0 -31.5 -21t-25 -53.5t-16.5 -67t-6 -61.5t4 -57t13 -50t23 -18zM231 155
q45 0 85 64l-1 -1q23 37 23 82q0 28 -7 32q-8 5 -15 5q-15 0 -30 -18t-27.5 -46.5t-20 -59.5t-7.5 -58z" />
    <glyph glyph-name="ccedilla" unicode="&#xe7;" horiz-adv-x="231" 
d="M120 -3q-42 0 -64 25.5t-30 64t-8 76.5q0 49 15 92.5t42.5 71t63.5 27.5q61 0 61 -73q0 -16 -4 -35t-12 -32.5t-22 -13.5q-16 0 -16 18t10 29t20 21t10 23q0 45 -33 45q-20 0 -36 -18t-27.5 -47.5t-18 -63.5t-6.5 -66q0 -35 5 -65t18 -47.5t37 -17.5q32 0 57 24t42.5 61
t24.5 76q2 9 7 9q7 0 5 -9q-8 -44 -26.5 -84.5t-47 -65.5t-67.5 -25zM65 -172q-19 0 -33.5 8t-18.5 26h13q6 -10 16.5 -13.5t20.5 -3.5q26 0 39.5 16.5t13.5 33.5q0 13 -7.5 21.5t-21.5 8.5q-13 0 -20.5 -2t-12.5 -4l-7 16q3 3 17.5 18t30 31.5t21.5 22.5l12 -2
q-2 -2 -13.5 -15.5t-22 -27t-8.5 -16.5q4 1 7 1h7q19 0 36.5 -11.5t17.5 -32.5q0 -24 -13.5 -40.5t-33.5 -25.5t-40 -9z" />
    <glyph glyph-name="egrave" unicode="&#xe8;" horiz-adv-x="217" 
d="M108 0q-31 4 -51.5 24.5t-30.5 51.5t-10 65q0 90 41 154q36 55 78 55q25 0 36 -15.5t11 -41.5q0 -35 -16 -70t-43.5 -57.5t-62.5 -22.5q0 -120 50 -129q4 -1 11 -1q37 0 67.5 41.5t46.5 117.5q2 10 7 10q6 0 5 -10q-42 -183 -139 -172zM61 155q27 0 51.5 20.5t40 52.5
t15.5 66q0 40 -26 40q-15 0 -29.5 -17.5t-26 -45.5t-18.5 -58.5t-7 -57.5zM141 421l-118 65q0 7 10 12t16 5q5 0 21.5 -11.5t36.5 -27t34.5 -27.5t14.5 -13q0 -3 -15 -3z" />
    <glyph glyph-name="eacute" unicode="&#xe9;" horiz-adv-x="217" 
d="M108 0q-31 4 -51.5 24.5t-30.5 51.5t-10 65q0 90 41 154q36 55 78 55q25 0 36 -15.5t11 -41.5q0 -35 -16 -70t-43.5 -57.5t-62.5 -22.5q0 -120 50 -129q4 -1 11 -1q37 0 67.5 41.5t46.5 117.5q2 10 7 10q6 0 5 -10q-42 -183 -139 -172zM61 155q27 0 51.5 20.5t40 52.5
t15.5 66q0 40 -26 40q-15 0 -29.5 -17.5t-26 -45.5t-18.5 -58.5t-7 -57.5zM141 421q-15 0 -15 3q0 1 14.5 13t34.5 27.5t37 27t21 11.5q6 0 16 -5t10 -12z" />
    <glyph glyph-name="ecircumflex" unicode="&#xea;" horiz-adv-x="217" 
d="M108 0q-31 4 -51.5 24.5t-30.5 51.5t-10 65q0 90 41 154q36 55 78 55q25 0 36 -15.5t11 -41.5q0 -35 -16 -70t-43.5 -57.5t-62.5 -22.5q0 -120 50 -129q4 -1 11 -1q37 0 67.5 41.5t46.5 117.5q2 10 7 10q6 0 5 -10q-42 -183 -139 -172zM61 155q27 0 51.5 20.5t40 52.5
t15.5 66q0 40 -26 40q-15 0 -29.5 -17.5t-26 -45.5t-18.5 -58.5t-7 -57.5zM36 421l116 82q5 3 8 3t6 -3q5 -5 16.5 -17t24 -26t21 -24.5t8.5 -11.5q-1 -3 -8 -3l-82 47l-89 -47h-21z" />
    <glyph glyph-name="edieresis" unicode="&#xeb;" horiz-adv-x="217" 
d="M108 0q-31 4 -51.5 24.5t-30.5 51.5t-10 65q0 90 41 154q36 55 78 55q25 0 36 -15.5t11 -41.5q0 -35 -16 -70t-43.5 -57.5t-62.5 -22.5q0 -120 50 -129q4 -1 11 -1q37 0 67.5 41.5t46.5 117.5q2 10 7 10q6 0 5 -10q-42 -183 -139 -172zM61 155q27 0 51.5 20.5t40 52.5
t15.5 66q0 40 -26 40q-15 0 -29.5 -17.5t-26 -45.5t-18.5 -58.5t-7 -57.5zM192 431q-14 0 -21 7.5t-7 17.5q0 15 11 26.5t25 11.5q13 0 20.5 -7.5t7.5 -18.5q0 -14 -11.5 -25.5t-24.5 -11.5zM83 431q-14 0 -21 7.5t-7 17.5q0 15 11 26.5t25 11.5q13 0 20.5 -7.5t7.5 -18.5
q0 -14 -11.5 -25.5t-24.5 -11.5z" />
    <glyph glyph-name="igrave" unicode="&#xec;" horiz-adv-x="176" 
d="M91 0q-43 0 -59.5 35.5t-16.5 84.5q0 35 6 71q12 72 27 156q9 -3 15 -3q20 0 32 24q2 5 6 5t3 -7q-4 -16 -13 -58.5t-24 -110.5q-5 -25 -8.5 -52.5t-3.5 -51.5q0 -34 9 -58t31 -24q30 0 49 26t31 63.5t19 71.5q1 7 7 7q5 0 5 -7q-19 -91 -45.5 -131.5t-69.5 -40.5z
M88 421l-118 65q0 7 10 12t16 5q5 0 21.5 -11.5t36.5 -27t34.5 -27.5t14.5 -13q0 -3 -15 -3z" />
    <glyph glyph-name="iacute" unicode="&#xed;" horiz-adv-x="176" 
d="M91 0q-43 0 -59.5 35.5t-16.5 84.5q0 35 6 71q12 72 27 156q9 -3 15 -3q20 0 32 24q2 5 6 5t3 -7q-4 -16 -13 -58.5t-24 -110.5q-5 -25 -8.5 -52.5t-3.5 -51.5q0 -34 9 -58t31 -24q30 0 49 26t31 63.5t19 71.5q1 7 7 7q5 0 5 -7q-19 -91 -45.5 -131.5t-69.5 -40.5z
M88 421q-15 0 -15 3q0 1 14.5 13t34.5 27.5t37 27t21 11.5q6 0 16 -5t10 -12z" />
    <glyph glyph-name="icircumflex" unicode="&#xee;" horiz-adv-x="176" 
d="M91 0q-43 0 -59.5 35.5t-16.5 84.5q0 35 6 71q12 72 27 156q9 -3 15 -3q20 0 32 24q2 5 6 5t3 -7q-4 -16 -13 -58.5t-24 -110.5q-5 -25 -8.5 -52.5t-3.5 -51.5q0 -34 9 -58t31 -24q30 0 49 26t31 63.5t19 71.5q1 7 7 7q5 0 5 -7q-19 -91 -45.5 -131.5t-69.5 -40.5z
M-17 421l116 82q5 3 8 3t6 -3q5 -5 16.5 -17t24 -26t21 -24.5t8.5 -11.5q-1 -3 -8 -3l-82 47l-89 -47h-21z" />
    <glyph glyph-name="idieresis" unicode="&#xef;" horiz-adv-x="176" 
d="M91 0q-43 0 -59.5 35.5t-16.5 84.5q0 35 6 71q12 72 27 156q9 -3 15 -3q20 0 32 24q2 5 6 5t3 -7q-4 -16 -13 -58.5t-24 -110.5q-5 -25 -8.5 -52.5t-3.5 -51.5q0 -34 9 -58t31 -24q30 0 49 26t31 63.5t19 71.5q1 7 7 7q5 0 5 -7q-19 -91 -45.5 -131.5t-69.5 -40.5z
M139 431q-14 0 -21 7.5t-7 17.5q0 15 11 26.5t25 11.5q13 0 20.5 -7.5t7.5 -18.5q0 -14 -11.5 -25.5t-24.5 -11.5zM30 431q-14 0 -21 7.5t-7 17.5q0 15 11 26.5t25 11.5q13 0 20.5 -7.5t7.5 -18.5q0 -14 -11.5 -25.5t-24.5 -11.5z" />
    <glyph glyph-name="eth" unicode="&#xf0;" horiz-adv-x="298" 
d="M94 -1q-28 0 -45.5 20.5t-25 52t-7.5 64.5q0 38 7.5 76t22.5 70t37.5 51t52.5 19q20 0 35.5 -14t24.5 -50.5t7 -102.5q5 53 6 76.5t1 41.5q0 83 -19 155t-62 111l-78 -40l-10 21l67 34q-17 10 -35.5 14.5t-35.5 4.5q-38 0 -63 -15q-4 -3 -8 -3q-5 0 -5 10q0 11 36 25
q28 11 61 11q21 0 42.5 -5t39.5 -16q5 -3 9 -6l57 30l9 -22l-47 -24q22 -20 38 -49.5t26 -64.5q9 -31 12.5 -66t3.5 -71q0 -31 -2 -61t-5 -59t-13 -66.5t-27.5 -72t-43.5 -57t-63 -22.5zM103 12q23 0 39.5 27t27.5 65.5t16 73.5q3 21 3 46q0 28 -4.5 54.5t-14.5 44t-28 17.5
q-17 0 -31.5 -21t-25 -53t-16.5 -67t-6 -62t4 -57t13 -50t23 -18z" />
    <glyph glyph-name="ntilde" unicode="&#xf1;" horiz-adv-x="297" 
d="M2 -24q-1 2 0 6l32 364q4 -1 10 -1q25 0 39 19q2 3 4 3q5 0 3 -6q-2 -8 -8 -40t-16 -94q14 59 41 95t64 36q32 0 43.5 -22t11.5 -55q0 -28 -5.5 -60t-10.5 -63q-5 -33 -9.5 -63t-4.5 -53q0 -19 5 -31t18 -12q18 0 38 27t36 67.5t22 78.5q1 3 2 7t5 4q5 0 5.5 -3.5
t-0.5 -7.5q-4 -29 -14 -61.5t-25.5 -61t-34.5 -46t-41 -17.5q-34 0 -47 21t-13 60t9 91q8 40 15 76.5t7 62.5q0 21 -6.5 33t-23.5 12q-16 0 -30.5 -19t-26.5 -47t-20.5 -56.5t-11.5 -46.5q-7 -36 -11.5 -85.5t-7.5 -86.5q-26 3 -33 -19q-1 -4 -5 -6q-3 -2 -5 0zM198 429
q-15 0 -31 8t-30.5 16t-27.5 8q-19 0 -26.5 -10t-12.5 -17h-10q5 20 23.5 39.5t40.5 19.5q13 0 26 -7.5t27.5 -15t30.5 -7.5q23 0 31 10.5t11 15.5h8q-5 -22 -19.5 -41t-40.5 -19z" />
    <glyph glyph-name="ograve" unicode="&#xf2;" horiz-adv-x="287" 
d="M124 -9q-54 0 -80.5 41t-26.5 119q0 38 7.5 69t20.5 56q4 53 31.5 88.5t68.5 35.5q35 0 59 -24.5t36 -64t12 -83.5q0 -38 -5 -70t-16 -62q19 2 41 20t33 56q1 7 7 7t5 -7q-10 -44 -35 -65t-56 -26q-39 -90 -102 -90zM210 94q11 29 15 62.5t4 70.5q0 41 -8.5 77.5t-27 59
t-48.5 22.5q-29 0 -48 -19.5t-26 -54.5q26 27 72 29q33 0 33 -13q0 -7 -8 -4q-13 5 -22 5q-39 0 -63 -70q-8 -24 -8 -47q0 -17 5 -30q18 -46 51 -69t79 -19zM129 6q45 0 76 75q-5 -1 -10 -1h-10q-46 0 -78 29t-43 68q-1 -12 -1 -24v-24q0 -32 5 -60.5t19 -45.5t42 -17z
M160 461l-118 65q0 7 10 12t16 5q5 0 21.5 -11.5t36.5 -27t34.5 -27.5t14.5 -13q0 -3 -15 -3z" />
    <glyph glyph-name="oacute" unicode="&#xf3;" horiz-adv-x="287" 
d="M124 -9q-54 0 -80.5 41t-26.5 119q0 38 7.5 69t20.5 56q4 53 31.5 88.5t68.5 35.5q35 0 59 -24.5t36 -64t12 -83.5q0 -38 -5 -70t-16 -62q19 2 41 20t33 56q1 7 7 7t5 -7q-10 -44 -35 -65t-56 -26q-39 -90 -102 -90zM210 94q11 29 15 62.5t4 70.5q0 41 -8.5 77.5t-27 59
t-48.5 22.5q-29 0 -48 -19.5t-26 -54.5q26 27 72 29q33 0 33 -13q0 -7 -8 -4q-13 5 -22 5q-39 0 -63 -70q-8 -24 -8 -47q0 -17 5 -30q18 -46 51 -69t79 -19zM129 6q45 0 76 75q-5 -1 -10 -1h-10q-46 0 -78 29t-43 68q-1 -12 -1 -24v-24q0 -32 5 -60.5t19 -45.5t42 -17z
M160 461q-15 0 -15 3q0 1 14.5 13t34.5 27.5t37 27t21 11.5q6 0 16 -5t10 -12z" />
    <glyph glyph-name="ocircumflex" unicode="&#xf4;" horiz-adv-x="287" 
d="M124 -9q-54 0 -80.5 41t-26.5 119q0 38 7.5 69t20.5 56q4 53 31.5 88.5t68.5 35.5q35 0 59 -24.5t36 -64t12 -83.5q0 -38 -5 -70t-16 -62q19 2 41 20t33 56q1 7 7 7t5 -7q-10 -44 -35 -65t-56 -26q-39 -90 -102 -90zM210 94q11 29 15 62.5t4 70.5q0 41 -8.5 77.5t-27 59
t-48.5 22.5q-29 0 -48 -19.5t-26 -54.5q26 27 72 29q33 0 33 -13q0 -7 -8 -4q-13 5 -22 5q-39 0 -63 -70q-8 -24 -8 -47q0 -17 5 -30q18 -46 51 -69t79 -19zM129 6q45 0 76 75q-5 -1 -10 -1h-10q-46 0 -78 29t-43 68q-1 -12 -1 -24v-24q0 -32 5 -60.5t19 -45.5t42 -17z
M55 461l116 82q5 3 8 3t6 -3q5 -5 16.5 -17t24 -26t21 -24.5t8.5 -11.5q-1 -3 -8 -3l-82 47l-89 -47h-21z" />
    <glyph glyph-name="otilde" unicode="&#xf5;" horiz-adv-x="287" 
d="M124 -9q-54 0 -80.5 41t-26.5 119q0 38 7.5 69t20.5 56q4 53 31.5 88.5t68.5 35.5q35 0 59 -24.5t36 -64t12 -83.5q0 -38 -5 -70t-16 -62q19 2 41 20t33 56q1 7 7 7t5 -7q-10 -44 -35 -65t-56 -26q-39 -90 -102 -90zM210 94q11 29 15 62.5t4 70.5q0 41 -8.5 77.5t-27 59
t-48.5 22.5q-29 0 -48 -19.5t-26 -54.5q26 27 72 29q33 0 33 -13q0 -7 -8 -4q-13 5 -22 5q-39 0 -63 -70q-8 -24 -8 -47q0 -17 5 -30q18 -46 51 -69t79 -19zM129 6q45 0 76 75q-5 -1 -10 -1h-10q-46 0 -78 29t-43 68q-1 -12 -1 -24v-24q0 -32 5 -60.5t19 -45.5t42 -17z
M199 469q-15 0 -31 8t-30.5 16t-27.5 8q-19 0 -26.5 -10t-12.5 -17h-10q5 20 23.5 39.5t40.5 19.5q13 0 26 -7.5t27.5 -15t30.5 -7.5q23 0 31 10.5t11 15.5h8q-5 -22 -19.5 -41t-40.5 -19z" />
    <glyph glyph-name="odieresis" unicode="&#xf6;" horiz-adv-x="287" 
d="M124 -9q-54 0 -80.5 41t-26.5 119q0 38 7.5 69t20.5 56q4 53 31.5 88.5t68.5 35.5q35 0 59 -24.5t36 -64t12 -83.5q0 -38 -5 -70t-16 -62q19 2 41 20t33 56q1 7 7 7t5 -7q-10 -44 -35 -65t-56 -26q-39 -90 -102 -90zM210 94q11 29 15 62.5t4 70.5q0 41 -8.5 77.5t-27 59
t-48.5 22.5q-29 0 -48 -19.5t-26 -54.5q26 27 72 29q33 0 33 -13q0 -7 -8 -4q-13 5 -22 5q-39 0 -63 -70q-8 -24 -8 -47q0 -17 5 -30q18 -46 51 -69t79 -19zM129 6q45 0 76 75q-5 -1 -10 -1h-10q-46 0 -78 29t-43 68q-1 -12 -1 -24v-24q0 -32 5 -60.5t19 -45.5t42 -17z
M211 471q-14 0 -21 7.5t-7 17.5q0 15 11 26.5t25 11.5q13 0 20.5 -7.5t7.5 -18.5q0 -14 -11.5 -25.5t-24.5 -11.5zM102 471q-14 0 -21 7.5t-7 17.5q0 15 11 26.5t25 11.5q13 0 20.5 -7.5t7.5 -18.5q0 -14 -11.5 -25.5t-24.5 -11.5z" />
    <glyph glyph-name="divide" unicode="&#xf7;" horiz-adv-x="388" 
d="M194 244q-32 0 -32 33q0 32 33 32q32 0 32 -33q0 -32 -33 -32zM60 189h268v-28h-268v28zM194 41q-32 0 -32 33q0 32 33 32q32 0 32 -33q0 -32 -33 -32z" />
    <glyph glyph-name="oslash" unicode="&#xf8;" horiz-adv-x="287" 
d="M41 -92l30 97q-54 33 -54 146q0 38 7.5 69t20.5 56q4 53 31.5 88.5t68.5 35.5q24 0 44 -13l13 42h23l-18 -57q22 -24 33.5 -63t11.5 -81q0 -38 -5 -70t-16 -62q19 2 41 20t33 56q1 7 7 7t5 -7q-10 -44 -35 -65t-56 -26q-39 -90 -102 -90q-19 0 -34 5l-28 -88h-21z
M145 386q-29 0 -48 -19.5t-26 -54.5q26 27 72 29q22 0 30 -7l11 38q-17 14 -39 14zM210 94q11 29 15 62.5t4 70.5t-6.5 70t-21.5 56l-74 -237q35 -27 83 -22zM80 182q12 -30 30 -50l59 192h-1q-13 5 -22 5q-39 0 -63 -70q-8 -24 -8 -47q0 -17 5 -30zM63 129q0 -28 3.5 -53
t13.5 -42l24 78q-30 26 -40 65q-1 -12 -1 -24v-24zM129 6q45 0 76 75q-5 -1 -10 -1h-10q-34 0 -63 18l-26 -82q13 -10 33 -10z" />
    <glyph glyph-name="ugrave" unicode="&#xf9;" horiz-adv-x="288" 
d="M88 -2q-71 0 -71 137q0 13 2 42.5t4.5 63.5t5.5 62t5 38q34 -2 43 20q3 7 7 7q2 0 2 -3q0 -4 -1 -8q-4 -19 -8.5 -49t-8 -63t-6 -62.5t-2.5 -49.5q0 -59 6.5 -90t23.5 -31q14 0 24 10t23 36q25 54 32 125q10 83 12.5 120.5t2.5 50.5q35 -2 44 20q2 5 5 5q4 0 3 -8
q-10 -75 -16.5 -124t-10 -80t-5 -51.5t-1.5 -38.5q0 -23 4.5 -44t21.5 -21q23 0 41 38q12 25 21.5 58.5t14.5 63.5q2 7 7 7t5 -7q-15 -88 -38 -130.5t-58 -42.5q-21 0 -34 13.5t-19 33t-6 38.5q-29 -86 -75 -86zM144 421l-118 65q0 7 10 12t16 5q5 0 21.5 -11.5t36.5 -27
t34.5 -27.5t14.5 -13q0 -3 -15 -3z" />
    <glyph glyph-name="uacute" unicode="&#xfa;" horiz-adv-x="288" 
d="M88 -2q-71 0 -71 137q0 13 2 42.5t4.5 63.5t5.5 62t5 38q34 -2 43 20q3 7 7 7q2 0 2 -3q0 -4 -1 -8q-4 -19 -8.5 -49t-8 -63t-6 -62.5t-2.5 -49.5q0 -59 6.5 -90t23.5 -31q14 0 24 10t23 36q25 54 32 125q10 83 12.5 120.5t2.5 50.5q35 -2 44 20q2 5 5 5q4 0 3 -8
q-10 -75 -16.5 -124t-10 -80t-5 -51.5t-1.5 -38.5q0 -23 4.5 -44t21.5 -21q23 0 41 38q12 25 21.5 58.5t14.5 63.5q2 7 7 7t5 -7q-15 -88 -38 -130.5t-58 -42.5q-21 0 -34 13.5t-19 33t-6 38.5q-29 -86 -75 -86zM144 421q-15 0 -15 3q0 1 14.5 13t34.5 27.5t37 27t21 11.5
q6 0 16 -5t10 -12z" />
    <glyph glyph-name="ucircumflex" unicode="&#xfb;" horiz-adv-x="288" 
d="M88 -2q-71 0 -71 137q0 13 2 42.5t4.5 63.5t5.5 62t5 38q34 -2 43 20q3 7 7 7q2 0 2 -3q0 -4 -1 -8q-4 -19 -8.5 -49t-8 -63t-6 -62.5t-2.5 -49.5q0 -59 6.5 -90t23.5 -31q14 0 24 10t23 36q25 54 32 125q10 83 12.5 120.5t2.5 50.5q35 -2 44 20q2 5 5 5q4 0 3 -8
q-10 -75 -16.5 -124t-10 -80t-5 -51.5t-1.5 -38.5q0 -23 4.5 -44t21.5 -21q23 0 41 38q12 25 21.5 58.5t14.5 63.5q2 7 7 7t5 -7q-15 -88 -38 -130.5t-58 -42.5q-21 0 -34 13.5t-19 33t-6 38.5q-29 -86 -75 -86zM39 421l116 82q5 3 8 3t6 -3q5 -5 16.5 -17t24 -26t21 -24.5
t8.5 -11.5q-1 -3 -8 -3l-82 47l-89 -47h-21z" />
    <glyph glyph-name="udieresis" unicode="&#xfc;" horiz-adv-x="288" 
d="M88 -2q-71 0 -71 137q0 13 2 42.5t4.5 63.5t5.5 62t5 38q34 -2 43 20q3 7 7 7q2 0 2 -3q0 -4 -1 -8q-4 -19 -8.5 -49t-8 -63t-6 -62.5t-2.5 -49.5q0 -59 6.5 -90t23.5 -31q14 0 24 10t23 36q25 54 32 125q10 83 12.5 120.5t2.5 50.5q35 -2 44 20q2 5 5 5q4 0 3 -8
q-10 -75 -16.5 -124t-10 -80t-5 -51.5t-1.5 -38.5q0 -23 4.5 -44t21.5 -21q23 0 41 38q12 25 21.5 58.5t14.5 63.5q2 7 7 7t5 -7q-15 -88 -38 -130.5t-58 -42.5q-21 0 -34 13.5t-19 33t-6 38.5q-29 -86 -75 -86zM195 431q-14 0 -21 7.5t-7 17.5q0 15 11 26.5t25 11.5
q13 0 20.5 -7.5t7.5 -18.5q0 -14 -11.5 -25.5t-24.5 -11.5zM86 431q-14 0 -21 7.5t-7 17.5q0 15 11 26.5t25 11.5q13 0 20.5 -7.5t7.5 -18.5q0 -14 -11.5 -25.5t-24.5 -11.5z" />
    <glyph glyph-name="yacute" unicode="&#xfd;" horiz-adv-x="289" 
d="M68 -247q-27 0 -39.5 15.5t-12.5 37.5q0 40 23 77.5t59 72t76 63.5v39q0 19 -0.5 33t-0.5 24q0 31 9 98q-13 -61 -27.5 -110.5t-34 -78.5t-47.5 -29q-25 0 -44.5 24t-19.5 83q0 43 10 78t20.5 69.5t10.5 74.5q0 27 -14 27q-9 0 -16.5 -10.5t-10.5 -21.5q-1 0 -4 2t-3 9
q0 15 16 27t35 12q40 0 40 -46q0 -36 -10.5 -75t-21.5 -81t-11 -87q0 -35 7.5 -51t19.5 -16q20 0 41.5 41t39.5 120q15 66 35 111.5t40 70.5q16 22 31 22t15 -16q0 -13 -19 -19q-18 -5 -32 -32t-22 -62.5t-8 -66.5q0 -25 3.5 -56.5t6.5 -55t3 -25.5q16 11 35 25.5t36 38.5
t25 63q2 6 7 6t5 -6q-10 -41 -25 -66t-35 -42t-47 -34q2 -16 3 -31t1 -30q0 -59 -15.5 -108t-48 -78.5t-84.5 -29.5zM64 -234q40 0 64 36t35 82q13 52 13 118q-60 -51 -102.5 -98.5t-42.5 -95.5q0 -42 33 -42zM171 421q-15 0 -15 3q0 1 14.5 13t34.5 27.5t37 27t21 11.5
q6 0 16 -5t10 -12z" />
    <glyph glyph-name="thorn" unicode="&#xfe;" horiz-adv-x="263" 
d="M-71 -277q-20 0 -37.5 16t-21.5 42q2 12 8 12q5 0 5 -9q14 -45 33 -45q22 0 44 48q11 24 20 55t14 69q5 32 13 82.5t13 132.5q3 38 11 125.5t29 198.5q14 75 41.5 110.5t53.5 35.5q21 0 21 -17q0 -10 -12 -15q-21 -9 -40 -41.5t-36 -105.5q-8 -33 -18 -84t-19 -101
q17 60 40 85.5t51 25.5q24 0 41.5 -19.5t27.5 -51.5t10 -71q0 -46 -11.5 -89t-36 -72t-63.5 -34q5 -1 10 -1h10q59 0 96.5 40.5t54.5 126.5q1 6 7 6q5 0 5 -6q-13 -81 -53.5 -129.5t-110.5 -48.5q-31 0 -55.5 10t-29.5 35q0 -48 -2 -87.5t-6 -68.5q-22 -160 -107 -160z
M96 15q18 0 33.5 17.5t27 45t17.5 60t6 62.5q0 27 -4.5 56t-15 49t-28.5 20q-20 0 -35.5 -22t-26 -54.5t-16 -67t-5.5 -60.5q0 -54 11 -80t36 -26z" />
    <glyph glyph-name="ydieresis" unicode="&#xff;" horiz-adv-x="289" 
d="M68 -247q-27 0 -39.5 15.5t-12.5 37.5q0 40 23 77.5t59 72t76 63.5v39q0 19 -0.5 33t-0.5 24q0 31 9 98q-13 -61 -27.5 -110.5t-34 -78.5t-47.5 -29q-25 0 -44.5 24t-19.5 83q0 43 10 78t20.5 69.5t10.5 74.5q0 27 -14 27q-9 0 -16.5 -10.5t-10.5 -21.5q-1 0 -4 2t-3 9
q0 15 16 27t35 12q40 0 40 -46q0 -36 -10.5 -75t-21.5 -81t-11 -87q0 -35 7.5 -51t19.5 -16q20 0 41.5 41t39.5 120q15 66 35 111.5t40 70.5q16 22 31 22t15 -16q0 -13 -19 -19q-18 -5 -32 -32t-22 -62.5t-8 -66.5q0 -25 3.5 -56.5t6.5 -55t3 -25.5q16 11 35 25.5t36 38.5
t25 63q2 6 7 6t5 -6q-10 -41 -25 -66t-35 -42t-47 -34q2 -16 3 -31t1 -30q0 -59 -15.5 -108t-48 -78.5t-84.5 -29.5zM64 -234q40 0 64 36t35 82q13 52 13 118q-60 -51 -102.5 -98.5t-42.5 -95.5q0 -42 33 -42zM222 431q-14 0 -21 7.5t-7 17.5q0 15 11 26.5t25 11.5
q13 0 20.5 -7.5t7.5 -18.5q0 -14 -11.5 -25.5t-24.5 -11.5zM113 431q-14 0 -21 7.5t-7 17.5q0 15 11 26.5t25 11.5q13 0 20.5 -7.5t7.5 -18.5q0 -14 -11.5 -25.5t-24.5 -11.5z" />
    <glyph glyph-name="Amacron" unicode="&#x100;" horiz-adv-x="852" 
d="M243 -86q-68 0 -121.5 27.5t-84.5 75.5t-31 110q0 57 26 103.5t72 74t105 27.5q65 0 109 -44q40 -41 40 -103q0 -57 -34.5 -91.5t-92.5 -34.5q-28 0 -41.5 10.5t-13.5 19.5q0 6 5 6q2 0 5 -4.5t7 -6.5q8 -7 18.5 -9.5t20.5 -2.5q50 0 78.5 31t28.5 82q0 56 -36.5 93.5
t-97.5 37.5q-52 0 -89.5 -25.5t-58 -67t-20.5 -91.5q0 -55 27 -100.5t73.5 -72.5t106.5 -27q110 0 192.5 74.5t134.5 215.5q23 63 47 124t49.5 109.5t50.5 71.5q-32 19 -77.5 36.5t-91 29.5t-78.5 12q-50 0 -92.5 -17t-67.5 -50.5t-25 -83.5q0 -65 41.5 -107t109.5 -42
q58 0 96.5 27.5t38.5 79.5q0 42 -28 61q-4 2 -7.5 4t-3.5 6q0 7 8 7q2 0 14 -5q37 -21 37 -76q0 -58 -45.5 -90t-110.5 -32q-50 0 -91.5 21t-65.5 57t-24 82q0 63 28.5 109t79.5 71.5t117 25.5q41 0 79.5 -14.5t81.5 -39.5t95 -56q54 35 99 35q32 0 57.5 -15t25.5 -44
q0 -21 -15.5 -31.5t-35.5 -10.5q-10 0 -25.5 2t-24.5 6q-11 -36 -22.5 -83.5t-18.5 -120.5q-7 -95 -44 -165.5t-103 -99.5q11 3 21 3.5t17 0.5q18 0 38 -5t38 -10t28 -5q18 0 18 16q0 5 -4 12t-9 11q0 8 7 8q5 0 12.5 -10t7.5 -24q0 -33 -43 -33q-19 0 -49 8
q-46 11 -67 13.5t-39 3.5q29 35 47.5 63.5t31 56t21.5 59.5t18 75h-116l-12 -34q-110 -311 -352 -311zM860 493q17 0 27.5 6.5t10.5 19.5q0 22 -22.5 32t-43.5 10q-44 0 -81 -28l51 -25q5 11 8.5 15.5t10.5 4.5q4 0 6 -3.5t2 -5.5q0 -9 -6 -20q8 -3 18.5 -4.5t18.5 -1.5z
M729 280q22 109 66 212q-5 2 -20 9t-41 20q-53 -50 -121 -241h116zM756 666l2 21h181l-2 -21h-181z" />
    <glyph glyph-name="amacron" unicode="&#x101;" horiz-adv-x="327" 
d="M95 -1q-28 0 -45 21t-24.5 54t-7.5 67q0 50 13.5 98.5t40 80.5t65.5 32q56 0 63 -85l9 82q3 -1 9 -1q19 0 31 22q1 4 4 4q4 0 5 -6l-21 -178q-6 -51 -6 -99q0 -38 5.5 -57t20.5 -19q17 0 31 15.5t25 40t19.5 51.5t12.5 50q2 11 7 11q6 0 5 -11q-8 -41 -20 -80.5t-33 -65
t-55 -25.5q-24 0 -37.5 18.5t-18.5 46t-5 54.5q-29 -110 -79 -120q-4 -1 -7 -1h-7zM104 12q22 3 38.5 30t28 64.5t16.5 71.5q3 21 3 46q0 28 -4.5 54.5t-14.5 44t-28 17.5q-17 0 -31.5 -21t-25 -53.5t-16.5 -67t-6 -61.5t4 -57t13 -50t23 -18zM70 448l2 21h181l-2 -21h-181z
" />
    <glyph glyph-name="Abreve" unicode="&#x102;" horiz-adv-x="852" 
d="M243 -86q-68 0 -121.5 27.5t-84.5 75.5t-31 110q0 57 26 103.5t72 74t105 27.5q65 0 109 -44q40 -41 40 -103q0 -57 -34.5 -91.5t-92.5 -34.5q-28 0 -41.5 10.5t-13.5 19.5q0 6 5 6q2 0 5 -4.5t7 -6.5q8 -7 18.5 -9.5t20.5 -2.5q50 0 78.5 31t28.5 82q0 56 -36.5 93.5
t-97.5 37.5q-52 0 -89.5 -25.5t-58 -67t-20.5 -91.5q0 -55 27 -100.5t73.5 -72.5t106.5 -27q110 0 192.5 74.5t134.5 215.5q23 63 47 124t49.5 109.5t50.5 71.5q-32 19 -77.5 36.5t-91 29.5t-78.5 12q-50 0 -92.5 -17t-67.5 -50.5t-25 -83.5q0 -65 41.5 -107t109.5 -42
q58 0 96.5 27.5t38.5 79.5q0 42 -28 61q-4 2 -7.5 4t-3.5 6q0 7 8 7q2 0 14 -5q37 -21 37 -76q0 -58 -45.5 -90t-110.5 -32q-50 0 -91.5 21t-65.5 57t-24 82q0 63 28.5 109t79.5 71.5t117 25.5q41 0 79.5 -14.5t81.5 -39.5t95 -56q54 35 99 35q32 0 57.5 -15t25.5 -44
q0 -21 -15.5 -31.5t-35.5 -10.5q-10 0 -25.5 2t-24.5 6q-11 -36 -22.5 -83.5t-18.5 -120.5q-7 -95 -44 -165.5t-103 -99.5q11 3 21 3.5t17 0.5q18 0 38 -5t38 -10t28 -5q18 0 18 16q0 5 -4 12t-9 11q0 8 7 8q5 0 12.5 -10t7.5 -24q0 -33 -43 -33q-19 0 -49 8
q-46 11 -67 13.5t-39 3.5q29 35 47.5 63.5t31 56t21.5 59.5t18 75h-116l-12 -34q-110 -311 -352 -311zM860 493q17 0 27.5 6.5t10.5 19.5q0 22 -22.5 32t-43.5 10q-44 0 -81 -28l51 -25q5 11 8.5 15.5t10.5 4.5q4 0 6 -3.5t2 -5.5q0 -9 -6 -20q8 -3 18.5 -4.5t18.5 -1.5z
M729 280q22 109 66 212q-5 2 -20 9t-41 20q-53 -50 -121 -241h116zM847 640q-22 0 -41.5 13.5t-21.5 36.5v7t1 7q2 8 9 12.5t13 4.5t6 -4q0 -23 13 -36.5t36 -13.5q20 0 42 11t42 38h17q0 -1 -5 -9q-13 -20 -40 -43.5t-71 -23.5z" />
    <glyph glyph-name="abreve" unicode="&#x103;" horiz-adv-x="327" 
d="M95 -1q-28 0 -45 21t-24.5 54t-7.5 67q0 50 13.5 98.5t40 80.5t65.5 32q56 0 63 -85l9 82q3 -1 9 -1q19 0 31 22q1 4 4 4q4 0 5 -6l-21 -178q-6 -51 -6 -99q0 -38 5.5 -57t20.5 -19q17 0 31 15.5t25 40t19.5 51.5t12.5 50q2 11 7 11q6 0 5 -11q-8 -41 -20 -80.5t-33 -65
t-55 -25.5q-24 0 -37.5 18.5t-18.5 46t-5 54.5q-29 -110 -79 -120q-4 -1 -7 -1h-7zM104 12q22 3 38.5 30t28 64.5t16.5 71.5q3 21 3 46q0 28 -4.5 54.5t-14.5 44t-28 17.5q-17 0 -31.5 -21t-25 -53.5t-16.5 -67t-6 -61.5t4 -57t13 -50t23 -18zM161 422q-22 0 -41.5 13.5
t-21.5 36.5v7t1 7q2 8 9 12.5t13 4.5t6 -4q0 -23 13 -36.5t36 -13.5q20 0 42 11t42 38h17q0 -1 -5 -9q-13 -20 -40 -43.5t-71 -23.5z" />
    <glyph glyph-name="Aogonek" unicode="&#x104;" horiz-adv-x="852" 
d="M243 -86q-68 0 -121.5 27.5t-84.5 75.5t-31 110q0 57 26 103.5t72 74t105 27.5q65 0 109 -44q40 -41 40 -103q0 -57 -34.5 -91.5t-92.5 -34.5q-28 0 -41.5 10.5t-13.5 19.5q0 6 5 6q2 0 5 -4.5t7 -6.5q8 -7 18.5 -9.5t20.5 -2.5q50 0 78.5 31t28.5 82q0 56 -36.5 93.5
t-97.5 37.5q-52 0 -89.5 -25.5t-58 -67t-20.5 -91.5q0 -55 27 -100.5t73.5 -72.5t106.5 -27q110 0 192.5 74.5t134.5 215.5q23 63 47 124t49.5 109.5t50.5 71.5q-32 19 -77.5 36.5t-91 29.5t-78.5 12q-50 0 -92.5 -17t-67.5 -50.5t-25 -83.5q0 -65 41.5 -107t109.5 -42
q58 0 96.5 27.5t38.5 79.5q0 42 -28 61q-4 2 -7.5 4t-3.5 6q0 7 8 7q2 0 14 -5q37 -21 37 -76q0 -58 -45.5 -90t-110.5 -32q-50 0 -91.5 21t-65.5 57t-24 82q0 63 28.5 109t79.5 71.5t117 25.5q41 0 79.5 -14.5t81.5 -39.5t95 -56q54 35 99 35q32 0 57.5 -15t25.5 -44
q0 -21 -15.5 -31.5t-35.5 -10.5q-10 0 -25.5 2t-24.5 6q-11 -36 -22.5 -83.5t-18.5 -120.5q-7 -95 -44 -165.5t-103 -99.5q11 3 21 3.5t17 0.5q18 0 38 -5t38 -10t28 -5q18 0 18 16q0 5 -4 12t-9 11q0 8 7 8q5 0 12.5 -10t7.5 -24q0 -33 -43 -33q-19 0 -49 8
q-46 11 -67 13.5t-39 3.5q29 35 47.5 63.5t31 56t21.5 59.5t18 75h-116l-12 -34q-110 -311 -352 -311zM860 493q17 0 27.5 6.5t10.5 19.5q0 22 -22.5 32t-43.5 10q-44 0 -81 -28l51 -25q5 11 8.5 15.5t10.5 4.5q4 0 6 -3.5t2 -5.5q0 -9 -6 -20q8 -3 18.5 -4.5t18.5 -1.5z
M729 280q22 109 66 212q-5 2 -20 9t-41 20q-53 -50 -121 -241h116zM758 -162q-24 0 -39.5 11.5t-15.5 33.5q0 20 19 47t48 53q3 2 7.5 5.5t7.5 3.5q5 0 8 -2q-21 -20 -35.5 -48t-14.5 -51q0 -17 9 -23.5t22 -6.5q15 0 32.5 6t26.5 13v-16q-19 -13 -38.5 -19.5t-36.5 -6.5z
" />
    <glyph glyph-name="aogonek" unicode="&#x105;" horiz-adv-x="327" 
d="M95 -1q-28 0 -45 21t-24.5 54t-7.5 67q0 50 13.5 98.5t40 80.5t65.5 32q56 0 63 -85l9 82q3 -1 9 -1q19 0 31 22q1 4 4 4q4 0 5 -6l-21 -178q-6 -51 -6 -99q0 -38 5.5 -57t20.5 -19q17 0 31 15.5t25 40t19.5 51.5t12.5 50q2 11 7 11q6 0 5 -11q-8 -41 -20 -80.5t-33 -65
t-55 -25.5q-24 0 -37.5 18.5t-18.5 46t-5 54.5q-29 -110 -79 -120q-4 -1 -7 -1h-7zM104 12q22 3 38.5 30t28 64.5t16.5 71.5q3 21 3 46q0 28 -4.5 54.5t-14.5 44t-28 17.5q-17 0 -31.5 -21t-25 -53.5t-16.5 -67t-6 -61.5t4 -57t13 -50t23 -18zM248 -142q-24 0 -39.5 11.5
t-15.5 33.5q0 20 19 47t48 53q3 2 7.5 5.5t7.5 3.5q5 0 8 -2q-21 -20 -35.5 -48t-14.5 -51q0 -17 9 -23.5t22 -6.5q15 0 32.5 6t26.5 13v-16q-19 -13 -38.5 -19.5t-36.5 -6.5z" />
    <glyph glyph-name="Cacute" unicode="&#x106;" horiz-adv-x="703" 
d="M383 -39q-91 0 -161.5 39.5t-110.5 109.5t-40 160q0 50 15 98q-53 35 -75.5 75.5t-22.5 84.5q0 50 22.5 92.5t68.5 68.5t116 26q50 0 95.5 -20t68.5 -65q46 10 94 10q53 0 96.5 -13t69.5 -41t26 -74q0 -52 -28.5 -91t-74.5 -65.5t-101 -40t-108 -13.5q-60 0 -109.5 9.5
t-84.5 24.5q-2 -19 -3.5 -36.5t-1.5 -33.5q0 -132 66.5 -209.5t185.5 -77.5q59 0 107 20t76 56t28 84q0 32 -15.5 55.5t-45.5 23.5q-16 0 -31.5 -10.5t-15.5 -26.5q0 -4 0.5 -8.5t0.5 -7.5q0 -10 -6 -10q-10 0 -10 26t18 42t44 16q43 0 70.5 -29t27.5 -72q0 -42 -22.5 -75
t-59.5 -55.5t-81 -34.5t-88 -12zM20 533q0 -34 18 -69t55 -67q32 88 97.5 146t148.5 82q-38 72 -146 72q-50 0 -89 -23.5t-61.5 -61t-22.5 -79.5zM329 322q49 0 97 11t87 32.5t62.5 53t23.5 73.5q0 39 -21.5 68t-56.5 45t-77 16q-41 0 -78 -9q9 -26 9 -58q0 -26 -10.5 -52
t-30 -42.5t-46.5 -16.5q-10 0 -10 8q0 5 6 5q25 0 40.5 16t23.5 38.5t8 41.5q0 30 -9 55q-80 -24 -133.5 -88t-71.5 -157q35 -18 86.5 -29t100.5 -11zM482 701q-15 0 -15 3q0 1 14.5 13t34.5 27.5t37 27t21 11.5q6 0 16 -5t10 -12z" />
    <glyph glyph-name="cacute" unicode="&#x107;" horiz-adv-x="231" 
d="M120 -3q-42 0 -64 25.5t-30 64t-8 76.5q0 49 15 92.5t42.5 71t63.5 27.5q61 0 61 -73q0 -16 -4 -35t-12 -32.5t-22 -13.5q-16 0 -16 18t10 29t20 21t10 23q0 45 -33 45q-20 0 -36 -18t-27.5 -47.5t-18 -63.5t-6.5 -66q0 -35 5 -65t18 -47.5t37 -17.5q32 0 57 24t42.5 61
t24.5 76q2 9 7 9q7 0 5 -9q-8 -44 -26.5 -84.5t-47 -65.5t-67.5 -25zM145 421q-15 0 -15 3q0 1 14.5 13t34.5 27.5t37 27t21 11.5q6 0 16 -5t10 -12z" />
    <glyph glyph-name="Ccircumflex" unicode="&#x108;" horiz-adv-x="703" 
d="M383 -39q-91 0 -161.5 39.5t-110.5 109.5t-40 160q0 50 15 98q-53 35 -75.5 75.5t-22.5 84.5q0 50 22.5 92.5t68.5 68.5t116 26q50 0 95.5 -20t68.5 -65q46 10 94 10q53 0 96.5 -13t69.5 -41t26 -74q0 -52 -28.5 -91t-74.5 -65.5t-101 -40t-108 -13.5q-60 0 -109.5 9.5
t-84.5 24.5q-2 -19 -3.5 -36.5t-1.5 -33.5q0 -132 66.5 -209.5t185.5 -77.5q59 0 107 20t76 56t28 84q0 32 -15.5 55.5t-45.5 23.5q-16 0 -31.5 -10.5t-15.5 -26.5q0 -4 0.5 -8.5t0.5 -7.5q0 -10 -6 -10q-10 0 -10 26t18 42t44 16q43 0 70.5 -29t27.5 -72q0 -42 -22.5 -75
t-59.5 -55.5t-81 -34.5t-88 -12zM20 533q0 -34 18 -69t55 -67q32 88 97.5 146t148.5 82q-38 72 -146 72q-50 0 -89 -23.5t-61.5 -61t-22.5 -79.5zM329 322q49 0 97 11t87 32.5t62.5 53t23.5 73.5q0 39 -21.5 68t-56.5 45t-77 16q-41 0 -78 -9q9 -26 9 -58q0 -26 -10.5 -52
t-30 -42.5t-46.5 -16.5q-10 0 -10 8q0 5 6 5q25 0 40.5 16t23.5 38.5t8 41.5q0 30 -9 55q-80 -24 -133.5 -88t-71.5 -157q35 -18 86.5 -29t100.5 -11zM377 701l116 82q5 3 8 3t6 -3q5 -5 16.5 -17t24 -26t21 -24.5t8.5 -11.5q-1 -3 -8 -3l-82 47l-89 -47h-21z" />
    <glyph glyph-name="ccircumflex" unicode="&#x109;" horiz-adv-x="231" 
d="M120 -3q-42 0 -64 25.5t-30 64t-8 76.5q0 49 15 92.5t42.5 71t63.5 27.5q61 0 61 -73q0 -16 -4 -35t-12 -32.5t-22 -13.5q-16 0 -16 18t10 29t20 21t10 23q0 45 -33 45q-20 0 -36 -18t-27.5 -47.5t-18 -63.5t-6.5 -66q0 -35 5 -65t18 -47.5t37 -17.5q32 0 57 24t42.5 61
t24.5 76q2 9 7 9q7 0 5 -9q-8 -44 -26.5 -84.5t-47 -65.5t-67.5 -25zM40 421l116 82q5 3 8 3t6 -3q5 -5 16.5 -17t24 -26t21 -24.5t8.5 -11.5q-1 -3 -8 -3l-82 47l-89 -47h-21z" />
    <glyph glyph-name="Cdotaccent" unicode="&#x10a;" horiz-adv-x="703" 
d="M383 -39q-91 0 -161.5 39.5t-110.5 109.5t-40 160q0 50 15 98q-53 35 -75.5 75.5t-22.5 84.5q0 50 22.5 92.5t68.5 68.5t116 26q50 0 95.5 -20t68.5 -65q46 10 94 10q53 0 96.5 -13t69.5 -41t26 -74q0 -52 -28.5 -91t-74.5 -65.5t-101 -40t-108 -13.5q-60 0 -109.5 9.5
t-84.5 24.5q-2 -19 -3.5 -36.5t-1.5 -33.5q0 -132 66.5 -209.5t185.5 -77.5q59 0 107 20t76 56t28 84q0 32 -15.5 55.5t-45.5 23.5q-16 0 -31.5 -10.5t-15.5 -26.5q0 -4 0.5 -8.5t0.5 -7.5q0 -10 -6 -10q-10 0 -10 26t18 42t44 16q43 0 70.5 -29t27.5 -72q0 -42 -22.5 -75
t-59.5 -55.5t-81 -34.5t-88 -12zM20 533q0 -34 18 -69t55 -67q32 88 97.5 146t148.5 82q-38 72 -146 72q-50 0 -89 -23.5t-61.5 -61t-22.5 -79.5zM329 322q49 0 97 11t87 32.5t62.5 53t23.5 73.5q0 39 -21.5 68t-56.5 45t-77 16q-41 0 -78 -9q9 -26 9 -58q0 -26 -10.5 -52
t-30 -42.5t-46.5 -16.5q-10 0 -10 8q0 5 6 5q25 0 40.5 16t23.5 38.5t8 41.5q0 30 -9 55q-80 -24 -133.5 -88t-71.5 -157q35 -18 86.5 -29t100.5 -11zM480 710q-13 0 -21.5 8.5t-8.5 21.5q0 14 10.5 24t24.5 10q12 0 20.5 -8.5t8.5 -21.5q0 -14 -10 -24t-24 -10z" />
    <glyph glyph-name="cdotaccent" unicode="&#x10b;" horiz-adv-x="231" 
d="M120 -3q-42 0 -64 25.5t-30 64t-8 76.5q0 49 15 92.5t42.5 71t63.5 27.5q61 0 61 -73q0 -16 -4 -35t-12 -32.5t-22 -13.5q-16 0 -16 18t10 29t20 21t10 23q0 45 -33 45q-20 0 -36 -18t-27.5 -47.5t-18 -63.5t-6.5 -66q0 -35 5 -65t18 -47.5t37 -17.5q32 0 57 24t42.5 61
t24.5 76q2 9 7 9q7 0 5 -9q-8 -44 -26.5 -84.5t-47 -65.5t-67.5 -25zM143 430q-13 0 -21.5 8.5t-8.5 21.5q0 14 10.5 24t24.5 10q12 0 20.5 -8.5t8.5 -21.5q0 -14 -10 -24t-24 -10z" />
    <glyph glyph-name="Ccaron" unicode="&#x10c;" horiz-adv-x="703" 
d="M383 -39q-91 0 -161.5 39.5t-110.5 109.5t-40 160q0 50 15 98q-53 35 -75.5 75.5t-22.5 84.5q0 50 22.5 92.5t68.5 68.5t116 26q50 0 95.5 -20t68.5 -65q46 10 94 10q53 0 96.5 -13t69.5 -41t26 -74q0 -52 -28.5 -91t-74.5 -65.5t-101 -40t-108 -13.5q-60 0 -109.5 9.5
t-84.5 24.5q-2 -19 -3.5 -36.5t-1.5 -33.5q0 -132 66.5 -209.5t185.5 -77.5q59 0 107 20t76 56t28 84q0 32 -15.5 55.5t-45.5 23.5q-16 0 -31.5 -10.5t-15.5 -26.5q0 -4 0.5 -8.5t0.5 -7.5q0 -10 -6 -10q-10 0 -10 26t18 42t44 16q43 0 70.5 -29t27.5 -72q0 -42 -22.5 -75
t-59.5 -55.5t-81 -34.5t-88 -12zM20 533q0 -34 18 -69t55 -67q32 88 97.5 146t148.5 82q-38 72 -146 72q-50 0 -89 -23.5t-61.5 -61t-22.5 -79.5zM329 322q49 0 97 11t87 32.5t62.5 53t23.5 73.5q0 39 -21.5 68t-56.5 45t-77 16q-41 0 -78 -9q9 -26 9 -58q0 -26 -10.5 -52
t-30 -42.5t-46.5 -16.5q-10 0 -10 8q0 5 6 5q25 0 40.5 16t23.5 38.5t8 41.5q0 30 -9 55q-80 -24 -133.5 -88t-71.5 -157q35 -18 86.5 -29t100.5 -11zM482 697q-3 0 -6 3q-5 5 -16.5 17t-24 26t-21 24.5t-8.5 11.5q2 3 8 3l82 -47l89 47h21l-116 -82q-4 -3 -8 -3z" />
    <glyph glyph-name="ccaron" unicode="&#x10d;" horiz-adv-x="231" 
d="M120 -3q-42 0 -64 25.5t-30 64t-8 76.5q0 49 15 92.5t42.5 71t63.5 27.5q61 0 61 -73q0 -16 -4 -35t-12 -32.5t-22 -13.5q-16 0 -16 18t10 29t20 21t10 23q0 45 -33 45q-20 0 -36 -18t-27.5 -47.5t-18 -63.5t-6.5 -66q0 -35 5 -65t18 -47.5t37 -17.5q32 0 57 24t42.5 61
t24.5 76q2 9 7 9q7 0 5 -9q-8 -44 -26.5 -84.5t-47 -65.5t-67.5 -25zM145 417q-3 0 -6 3q-5 5 -16.5 17t-24 26t-21 24.5t-8.5 11.5q2 3 8 3l82 -47l89 47h21l-116 -82q-4 -3 -8 -3z" />
    <glyph glyph-name="Dcaron" unicode="&#x10e;" horiz-adv-x="738" 
d="M130 -36q-18 0 -37.5 5t-32.5 16t-13 28q0 20 20.5 34t45.5 14q27 0 59 -10.5t53 -20.5q41 59 63 180q16 89 28.5 160.5t33 128.5t60.5 101q-30 7 -58.5 10t-54.5 3q-75 0 -134 -31.5t-93 -85.5t-34 -124q0 -39 13.5 -72.5t38.5 -53.5t61 -20q33 0 56.5 20.5t36 53
t12.5 68.5q0 38 -16 67t-50 29q-26 0 -46 -20t-20 -47q0 -31 24 -31h8t4 -3q0 -6 -11 -6q-35 0 -35 40q0 32 23.5 55t54.5 23q29 0 48.5 -18t29 -45.5t9.5 -55.5q0 -66 -40 -105t-99 -39q-45 0 -76.5 22t-48 58t-16.5 78q0 60 24.5 108t66.5 81.5t96 51.5t114 18
q64 0 125 -12q38 33 77 33q31 0 31 -9q0 -4 -5 -4h-5t-8 1q-4 1 -8 1h-6q-33 0 -58 -28q125 -31 197 -108t72 -201q0 -95 -41 -167.5t-113.5 -113t-168.5 -40.5q-63 0 -148 29q-27 -23 -47.5 -34.5t-61.5 -11.5zM363 1q63 0 117 23t94 63.5t62.5 95t22.5 117.5
q0 232 -229 296q-16 -24 -30 -72t-25.5 -110.5t-21.5 -132.5q-5 -37 -14.5 -84.5t-29 -93.5t-56.5 -81q59 -21 110 -21zM137 -23q43 0 79 43q-54 22 -86 22q-26 0 -39 -10t-13 -24q0 -12 10.5 -18.5t24.5 -9.5t24 -3zM419 697q-3 0 -6 3q-5 5 -16.5 17t-24 26t-21 24.5
t-8.5 11.5q2 3 8 3l82 -47l89 47h21l-116 -82q-4 -3 -8 -3z" />
    <glyph glyph-name="dcaron" unicode="&#x10f;" horiz-adv-x="326" 
d="M98 -4q-37 0 -59 42t-22 109q0 73 31 134q35 68 89 68q34 0 50 -27q15 -24 15 -61l49 297q4 -1 7.5 -1.5t7.5 -0.5q22 0 34 23q2 2 3 2q6 0 4 -6q-4 -13 -17 -70t-33 -158q-4 -20 -7 -39.5t-6 -37.5q-7 -46 -13.5 -96.5t-6.5 -89.5q0 -33 6 -53.5t21 -20.5t32 15.5
t33 54.5q10 23 17.5 49.5t10.5 42.5q1 7 7 7t5 -7q-7 -30 -14.5 -54.5t-15.5 -44.5q-17 -40 -36 -58t-39 -18q-33 0 -47.5 32.5t-16.5 91.5q-28 -125 -89 -125zM106 9q16 2 31.5 25.5t28.5 60.5t19 79q2 14 4 27.5t2 27.5q0 45 -13 76.5t-36 31.5q-19 0 -33.5 -23t-25 -57
t-16 -69.5t-5.5 -59.5q0 -28 5 -57t14.5 -47t24.5 -15zM330 500l-3 11q32 12 43.5 35t14.5 38q-6 -6 -16 -6t-18.5 7t-8.5 21t9 23t22 9q11 0 21 -7.5t10 -25.5q0 -14 -6 -35.5t-22 -41t-46 -28.5z" />
    <glyph glyph-name="Dcroat" unicode="&#x110;" horiz-adv-x="738" 
d="M130 -36q-18 0 -37.5 5t-32.5 16t-13 28q0 20 20.5 34t45.5 14q27 0 59 -10.5t53 -20.5q41 59 63 180q16 89 28.5 160.5t33 128.5t60.5 101q-30 7 -58.5 10t-54.5 3q-75 0 -134 -31.5t-93 -85.5t-34 -124q0 -39 13.5 -72.5t38.5 -53.5t61 -20q33 0 56.5 20.5t36 53
t12.5 68.5q0 38 -16 67t-50 29q-26 0 -46 -20t-20 -47q0 -31 24 -31h8t4 -3q0 -6 -11 -6q-35 0 -35 40q0 32 23.5 55t54.5 23q29 0 48.5 -18t29 -45.5t9.5 -55.5q0 -66 -40 -105t-99 -39q-45 0 -76.5 22t-48 58t-16.5 78q0 60 24.5 108t66.5 81.5t96 51.5t114 18
q64 0 125 -12q38 33 77 33q31 0 31 -9q0 -4 -5 -4h-5t-8 1q-4 1 -8 1h-6q-33 0 -58 -28q125 -31 197 -108t72 -201q0 -95 -41 -167.5t-113.5 -113t-168.5 -40.5q-63 0 -148 29q-27 -23 -47.5 -34.5t-61.5 -11.5zM363 1q63 0 117 23t94 63.5t62.5 95t22.5 117.5
q0 232 -229 296q-16 -24 -30 -72t-25.5 -110.5t-21.5 -132.5q-5 -37 -14.5 -84.5t-29 -93.5t-56.5 -81q59 -21 110 -21zM137 -23q43 0 79 43q-54 22 -86 22q-26 0 -39 -10t-13 -24q0 -12 10.5 -18.5t24.5 -9.5t24 -3zM207 138l1 23h185l-2 -23h-184z" />
    <glyph glyph-name="dcroat" unicode="&#x111;" horiz-adv-x="326" 
d="M98 -4q-37 0 -59 42t-22 109q0 73 31 134q35 68 89 68q34 0 50 -27q15 -24 15 -61l49 297q4 -1 7.5 -1.5t7.5 -0.5q22 0 34 23q2 2 3 2q6 0 4 -6q-4 -13 -17 -70t-33 -158q-4 -20 -7 -39.5t-6 -37.5q-7 -46 -13.5 -96.5t-6.5 -89.5q0 -33 6 -53.5t21 -20.5t32 15.5
t33 54.5q10 23 17.5 49.5t10.5 42.5q1 7 7 7t5 -7q-7 -30 -14.5 -54.5t-15.5 -44.5q-17 -40 -36 -58t-39 -18q-33 0 -47.5 32.5t-16.5 91.5q-28 -125 -89 -125zM106 9q16 2 31.5 25.5t28.5 60.5t19 79q2 14 4 27.5t2 27.5q0 45 -13 76.5t-36 31.5q-19 0 -33.5 -23t-25 -57
t-16 -69.5t-5.5 -59.5q0 -28 5 -57t14.5 -47t24.5 -15zM146 408l1 23h185l-2 -23h-184z" />
    <glyph glyph-name="Emacron" unicode="&#x112;" horiz-adv-x="584" 
d="M317 -37q-78 0 -141 26t-100.5 76.5t-37.5 123.5q0 81 49 139t129 83q-40 40 -40 99q0 45 23.5 75.5t62 46t82.5 15.5q33 0 62.5 -11.5t48 -33t18.5 -52.5q0 -27 -20 -48t-50 -21q-22 0 -34.5 14.5t-12.5 28.5q0 8 5 8q4 0 8 -10t13.5 -19t21.5 -9q19 0 32 16.5t13 37.5
q0 39 -30.5 62.5t-69.5 23.5q-58 0 -91.5 -36.5t-33.5 -95.5q0 -49 26 -81q14 4 33.5 6.5t36.5 2.5q67 0 67 -33q0 -15 -16.5 -24t-39.5 -9q-31 0 -55.5 10.5t-47.5 26.5q-44 -16 -75 -50.5t-46.5 -80t-15.5 -95.5q0 -57 29 -101.5t77.5 -70t107.5 -25.5q65 0 117.5 24
t83.5 68.5t31 108.5q0 48 -26.5 81.5t-73.5 33.5q-29 0 -46.5 -14.5t-17.5 -37.5q0 -10 4.5 -13.5t8.5 -3.5q1 0 1 -1q0 -6 -8 -6q-7 0 -13 7t-6 23q0 28 23 45.5t52 17.5q62 0 98.5 -38.5t36.5 -99.5q0 -67 -35.5 -114t-93 -71.5t-124.5 -24.5zM331 377q16 0 27 5.5
t11 13.5q0 11 -13.5 16t-35.5 5q-15 0 -30 -2t-31 -6q16 -15 33 -23.5t39 -8.5zM257 728l2 21h181l-2 -21h-181z" />
    <glyph glyph-name="emacron" unicode="&#x113;" horiz-adv-x="217" 
d="M108 0q-31 4 -51.5 24.5t-30.5 51.5t-10 65q0 90 41 154q36 55 78 55q25 0 36 -15.5t11 -41.5q0 -35 -16 -70t-43.5 -57.5t-62.5 -22.5q0 -120 50 -129q4 -1 11 -1q37 0 67.5 41.5t46.5 117.5q2 10 7 10q6 0 5 -10q-42 -183 -139 -172zM61 155q27 0 51.5 20.5t40 52.5
t15.5 66q0 40 -26 40q-15 0 -29.5 -17.5t-26 -45.5t-18.5 -58.5t-7 -57.5zM50 448l2 21h181l-2 -21h-181z" />
    <glyph glyph-name="Ebreve" unicode="&#x114;" horiz-adv-x="584" 
d="M317 -37q-78 0 -141 26t-100.5 76.5t-37.5 123.5q0 81 49 139t129 83q-40 40 -40 99q0 45 23.5 75.5t62 46t82.5 15.5q33 0 62.5 -11.5t48 -33t18.5 -52.5q0 -27 -20 -48t-50 -21q-22 0 -34.5 14.5t-12.5 28.5q0 8 5 8q4 0 8 -10t13.5 -19t21.5 -9q19 0 32 16.5t13 37.5
q0 39 -30.5 62.5t-69.5 23.5q-58 0 -91.5 -36.5t-33.5 -95.5q0 -49 26 -81q14 4 33.5 6.5t36.5 2.5q67 0 67 -33q0 -15 -16.5 -24t-39.5 -9q-31 0 -55.5 10.5t-47.5 26.5q-44 -16 -75 -50.5t-46.5 -80t-15.5 -95.5q0 -57 29 -101.5t77.5 -70t107.5 -25.5q65 0 117.5 24
t83.5 68.5t31 108.5q0 48 -26.5 81.5t-73.5 33.5q-29 0 -46.5 -14.5t-17.5 -37.5q0 -10 4.5 -13.5t8.5 -3.5q1 0 1 -1q0 -6 -8 -6q-7 0 -13 7t-6 23q0 28 23 45.5t52 17.5q62 0 98.5 -38.5t36.5 -99.5q0 -67 -35.5 -114t-93 -71.5t-124.5 -24.5zM331 377q16 0 27 5.5
t11 13.5q0 11 -13.5 16t-35.5 5q-15 0 -30 -2t-31 -6q16 -15 33 -23.5t39 -8.5zM348 702q-22 0 -41.5 13.5t-21.5 36.5v7t1 7q2 8 9 12.5t13 4.5t6 -4q0 -23 13 -36.5t36 -13.5q20 0 42 11t42 38h17q0 -1 -5 -9q-13 -20 -40 -43.5t-71 -23.5z" />
    <glyph glyph-name="ebreve" unicode="&#x115;" horiz-adv-x="217" 
d="M108 0q-31 4 -51.5 24.5t-30.5 51.5t-10 65q0 90 41 154q36 55 78 55q25 0 36 -15.5t11 -41.5q0 -35 -16 -70t-43.5 -57.5t-62.5 -22.5q0 -120 50 -129q4 -1 11 -1q37 0 67.5 41.5t46.5 117.5q2 10 7 10q6 0 5 -10q-42 -183 -139 -172zM61 155q27 0 51.5 20.5t40 52.5
t15.5 66q0 40 -26 40q-15 0 -29.5 -17.5t-26 -45.5t-18.5 -58.5t-7 -57.5zM141 422q-22 0 -41.5 13.5t-21.5 36.5v7t1 7q2 8 9 12.5t13 4.5t6 -4q0 -23 13 -36.5t36 -13.5q20 0 42 11t42 38h17q0 -1 -5 -9q-13 -20 -40 -43.5t-71 -23.5z" />
    <glyph glyph-name="Edotaccent" unicode="&#x116;" horiz-adv-x="584" 
d="M317 -37q-78 0 -141 26t-100.5 76.5t-37.5 123.5q0 81 49 139t129 83q-40 40 -40 99q0 45 23.5 75.5t62 46t82.5 15.5q33 0 62.5 -11.5t48 -33t18.5 -52.5q0 -27 -20 -48t-50 -21q-22 0 -34.5 14.5t-12.5 28.5q0 8 5 8q4 0 8 -10t13.5 -19t21.5 -9q19 0 32 16.5t13 37.5
q0 39 -30.5 62.5t-69.5 23.5q-58 0 -91.5 -36.5t-33.5 -95.5q0 -49 26 -81q14 4 33.5 6.5t36.5 2.5q67 0 67 -33q0 -15 -16.5 -24t-39.5 -9q-31 0 -55.5 10.5t-47.5 26.5q-44 -16 -75 -50.5t-46.5 -80t-15.5 -95.5q0 -57 29 -101.5t77.5 -70t107.5 -25.5q65 0 117.5 24
t83.5 68.5t31 108.5q0 48 -26.5 81.5t-73.5 33.5q-29 0 -46.5 -14.5t-17.5 -37.5q0 -10 4.5 -13.5t8.5 -3.5q1 0 1 -1q0 -6 -8 -6q-7 0 -13 7t-6 23q0 28 23 45.5t52 17.5q62 0 98.5 -38.5t36.5 -99.5q0 -67 -35.5 -114t-93 -71.5t-124.5 -24.5zM331 377q16 0 27 5.5
t11 13.5q0 11 -13.5 16t-35.5 5q-15 0 -30 -2t-31 -6q16 -15 33 -23.5t39 -8.5zM346 710q-13 0 -21.5 8.5t-8.5 21.5q0 14 10.5 24t24.5 10q12 0 20.5 -8.5t8.5 -21.5q0 -14 -10 -24t-24 -10z" />
    <glyph glyph-name="edotaccent" unicode="&#x117;" horiz-adv-x="217" 
d="M108 0q-31 4 -51.5 24.5t-30.5 51.5t-10 65q0 90 41 154q36 55 78 55q25 0 36 -15.5t11 -41.5q0 -35 -16 -70t-43.5 -57.5t-62.5 -22.5q0 -120 50 -129q4 -1 11 -1q37 0 67.5 41.5t46.5 117.5q2 10 7 10q6 0 5 -10q-42 -183 -139 -172zM61 155q27 0 51.5 20.5t40 52.5
t15.5 66q0 40 -26 40q-15 0 -29.5 -17.5t-26 -45.5t-18.5 -58.5t-7 -57.5zM139 430q-13 0 -21.5 8.5t-8.5 21.5q0 14 10.5 24t24.5 10q12 0 20.5 -8.5t8.5 -21.5q0 -14 -10 -24t-24 -10z" />
    <glyph glyph-name="Eogonek" unicode="&#x118;" horiz-adv-x="584" 
d="M317 -37q-78 0 -141 26t-100.5 76.5t-37.5 123.5q0 81 49 139t129 83q-40 40 -40 99q0 45 23.5 75.5t62 46t82.5 15.5q33 0 62.5 -11.5t48 -33t18.5 -52.5q0 -27 -20 -48t-50 -21q-22 0 -34.5 14.5t-12.5 28.5q0 8 5 8q4 0 8 -10t13.5 -19t21.5 -9q19 0 32 16.5t13 37.5
q0 39 -30.5 62.5t-69.5 23.5q-58 0 -91.5 -36.5t-33.5 -95.5q0 -49 26 -81q14 4 33.5 6.5t36.5 2.5q67 0 67 -33q0 -15 -16.5 -24t-39.5 -9q-31 0 -55.5 10.5t-47.5 26.5q-44 -16 -75 -50.5t-46.5 -80t-15.5 -95.5q0 -57 29 -101.5t77.5 -70t107.5 -25.5q65 0 117.5 24
t83.5 68.5t31 108.5q0 48 -26.5 81.5t-73.5 33.5q-29 0 -46.5 -14.5t-17.5 -37.5q0 -10 4.5 -13.5t8.5 -3.5q1 0 1 -1q0 -6 -8 -6q-7 0 -13 7t-6 23q0 28 23 45.5t52 17.5q62 0 98.5 -38.5t36.5 -99.5q0 -67 -35.5 -114t-93 -71.5t-124.5 -24.5zM331 377q16 0 27 5.5
t11 13.5q0 11 -13.5 16t-35.5 5q-15 0 -30 -2t-31 -6q16 -15 33 -23.5t39 -8.5zM431 -152q-24 0 -39.5 11.5t-15.5 33.5q0 20 19 47t48 53q3 2 7.5 5.5t7.5 3.5q5 0 8 -2q-21 -20 -35.5 -48t-14.5 -51q0 -17 9 -23.5t22 -6.5q15 0 32.5 6t26.5 13v-16q-19 -13 -38.5 -19.5
t-36.5 -6.5z" />
    <glyph glyph-name="eogonek" unicode="&#x119;" horiz-adv-x="217" 
d="M108 0q-31 4 -51.5 24.5t-30.5 51.5t-10 65q0 90 41 154q36 55 78 55q25 0 36 -15.5t11 -41.5q0 -35 -16 -70t-43.5 -57.5t-62.5 -22.5q0 -120 50 -129q4 -1 11 -1q37 0 67.5 41.5t46.5 117.5q2 10 7 10q6 0 5 -10q-42 -183 -139 -172zM61 155q27 0 51.5 20.5t40 52.5
t15.5 66q0 40 -26 40q-15 0 -29.5 -17.5t-26 -45.5t-18.5 -58.5t-7 -57.5zM124 -142q-24 0 -39.5 11.5t-15.5 33.5q0 20 19 47t48 53q3 2 7.5 5.5t7.5 3.5q5 0 8 -2q-21 -20 -35.5 -48t-14.5 -51q0 -17 9 -23.5t22 -6.5q15 0 32.5 6t26.5 13v-16q-19 -13 -38.5 -19.5
t-36.5 -6.5z" />
    <glyph glyph-name="Ecaron" unicode="&#x11a;" horiz-adv-x="584" 
d="M317 -37q-78 0 -141 26t-100.5 76.5t-37.5 123.5q0 81 49 139t129 83q-40 40 -40 99q0 45 23.5 75.5t62 46t82.5 15.5q33 0 62.5 -11.5t48 -33t18.5 -52.5q0 -27 -20 -48t-50 -21q-22 0 -34.5 14.5t-12.5 28.5q0 8 5 8q4 0 8 -10t13.5 -19t21.5 -9q19 0 32 16.5t13 37.5
q0 39 -30.5 62.5t-69.5 23.5q-58 0 -91.5 -36.5t-33.5 -95.5q0 -49 26 -81q14 4 33.5 6.5t36.5 2.5q67 0 67 -33q0 -15 -16.5 -24t-39.5 -9q-31 0 -55.5 10.5t-47.5 26.5q-44 -16 -75 -50.5t-46.5 -80t-15.5 -95.5q0 -57 29 -101.5t77.5 -70t107.5 -25.5q65 0 117.5 24
t83.5 68.5t31 108.5q0 48 -26.5 81.5t-73.5 33.5q-29 0 -46.5 -14.5t-17.5 -37.5q0 -10 4.5 -13.5t8.5 -3.5q1 0 1 -1q0 -6 -8 -6q-7 0 -13 7t-6 23q0 28 23 45.5t52 17.5q62 0 98.5 -38.5t36.5 -99.5q0 -67 -35.5 -114t-93 -71.5t-124.5 -24.5zM331 377q16 0 27 5.5
t11 13.5q0 11 -13.5 16t-35.5 5q-15 0 -30 -2t-31 -6q16 -15 33 -23.5t39 -8.5zM348 697q-3 0 -6 3q-5 5 -16.5 17t-24 26t-21 24.5t-8.5 11.5q2 3 8 3l82 -47l89 47h21l-116 -82q-4 -3 -8 -3z" />
    <glyph glyph-name="ecaron" unicode="&#x11b;" horiz-adv-x="217" 
d="M108 0q-31 4 -51.5 24.5t-30.5 51.5t-10 65q0 90 41 154q36 55 78 55q25 0 36 -15.5t11 -41.5q0 -35 -16 -70t-43.5 -57.5t-62.5 -22.5q0 -120 50 -129q4 -1 11 -1q37 0 67.5 41.5t46.5 117.5q2 10 7 10q6 0 5 -10q-42 -183 -139 -172zM61 155q27 0 51.5 20.5t40 52.5
t15.5 66q0 40 -26 40q-15 0 -29.5 -17.5t-26 -45.5t-18.5 -58.5t-7 -57.5zM141 417q-3 0 -6 3q-5 5 -16.5 17t-24 26t-21 24.5t-8.5 11.5q2 3 8 3l82 -47l89 47h21l-116 -82q-4 -3 -8 -3z" />
    <glyph glyph-name="Gcircumflex" unicode="&#x11c;" horiz-adv-x="716" 
d="M188 -298q-68 0 -121.5 20t-84.5 59t-31 97q0 51 27.5 84.5t74.5 50t103 16.5q75 0 163.5 -19.5t200.5 -50.5q10 20 19.5 46.5t14.5 69.5q-73 -49 -162 -49q-76 0 -132 32.5t-85.5 91t-28.5 134.5q-91 58 -91 160q0 57 26 102t71 71t102 26q33 0 63 -16t46 -39
q69 28 137 28q45 0 83.5 -15t62 -43.5t23.5 -71.5q0 -52 -35.5 -95.5t-92.5 -75.5t-123 -49t-128 -17q-23 0 -44 2t-40 6q6 -92 53 -150q52 -64 142 -64q87 0 159 66q3 39 6.5 77t11.5 69t23 49.5t40 18.5q22 0 32 -14.5t10 -33.5q0 -40 -23.5 -85t-70.5 -89q-7 -45 -14 -86
t-16 -69q68 -14 115 -21.5t73 -7.5q73 0 122 43q23 20 23 5q0 -4 -5 -12q-34 -58 -140 -58q-72 0 -195 31q-26 -71 -81.5 -121t-129 -76.5t-153.5 -26.5zM146 315q8 88 58.5 157t131.5 105q-34 32 -90 32q-47 0 -86 -20.5t-62 -56.5t-23 -84q0 -87 70 -133h1zM276 277
q57 0 119 16.5t115.5 46t87 69t33.5 85.5q0 33 -18.5 55t-47.5 33t-61 11q-57 0 -126 -32q12 -25 12 -52q0 -29 -13 -55t-33.5 -42.5t-43.5 -16.5q-18 0 -18 8q0 9 11 9q21 0 37.5 14t26.5 36t10 44q0 11 -2.5 22.5t-8.5 21.5q-71 -42 -110.5 -112t-40.5 -154
q17 -4 34.5 -5.5t36.5 -1.5zM589 141q18 18 33.5 43t25.5 50.5t10 44.5q0 29 -18 29q-16 0 -26 -16t-15 -41.5t-7 -54.5t-3 -55zM178 -279q45 0 97.5 18t102 48.5t86 70t49.5 81.5q-112 35 -200 52t-144 17q-50 0 -90.5 -12t-64 -39.5t-23.5 -72.5q0 -69 49.5 -116
t137.5 -47zM415 677l116 82q5 3 8 3t6 -3q5 -5 16.5 -17t24 -26t21 -24.5t8.5 -11.5q-1 -3 -8 -3l-82 47l-89 -47h-21z" />
    <glyph glyph-name="gcircumflex" unicode="&#x11d;" horiz-adv-x="278" 
d="M73 -262q-31 0 -45 15.5t-14 40.5q0 34 20.5 66.5t45.5 59.5q18 19 40.5 38.5t42.5 34t27 18.5v110q-27 -120 -84 -120q-33 0 -52.5 21.5t-27.5 56.5t-8 73q0 48 12.5 93.5t39 75t67.5 29.5q26 0 41 -17.5t21 -59.5q11 77 30 99q10 13 20 13q13 0 13 -13q0 -7 -13 -22
q-10 -11 -16 -20t-11 -24q-7 -18 -11.5 -49.5t-4.5 -73.5q0 -38 2 -84t3 -75q29 20 51.5 56t33.5 92q2 8 8 8t4 -8q-15 -68 -39 -103.5t-57 -54.5l3 -58q0 -57 -16.5 -107t-48 -80.5t-77.5 -30.5zM110 15q19 0 34 23.5t25.5 58.5t16 71.5t5.5 61.5q0 50 -11.5 79.5
t-37.5 29.5q-18 0 -32 -17.5t-24 -46.5t-15 -62t-5 -65q0 -133 44 -133zM66 -238q36 0 63.5 33.5t42.5 79.5q8 23 13.5 52.5t5.5 70.5q-6 -5 -24.5 -19.5t-40 -32.5t-36.5 -35q-23 -25 -42 -55.5t-19 -57.5q0 -36 37 -36zM34 421l116 82q5 3 8 3t6 -3q5 -5 16.5 -17t24 -26
t21 -24.5t8.5 -11.5q-1 -3 -8 -3l-82 47l-89 -47h-21z" />
    <glyph glyph-name="Gbreve" unicode="&#x11e;" horiz-adv-x="716" 
d="M188 -298q-68 0 -121.5 20t-84.5 59t-31 97q0 51 27.5 84.5t74.5 50t103 16.5q75 0 163.5 -19.5t200.5 -50.5q10 20 19.5 46.5t14.5 69.5q-73 -49 -162 -49q-76 0 -132 32.5t-85.5 91t-28.5 134.5q-91 58 -91 160q0 57 26 102t71 71t102 26q33 0 63 -16t46 -39
q69 28 137 28q45 0 83.5 -15t62 -43.5t23.5 -71.5q0 -52 -35.5 -95.5t-92.5 -75.5t-123 -49t-128 -17q-23 0 -44 2t-40 6q6 -92 53 -150q52 -64 142 -64q87 0 159 66q3 39 6.5 77t11.5 69t23 49.5t40 18.5q22 0 32 -14.5t10 -33.5q0 -40 -23.5 -85t-70.5 -89q-7 -45 -14 -86
t-16 -69q68 -14 115 -21.5t73 -7.5q73 0 122 43q23 20 23 5q0 -4 -5 -12q-34 -58 -140 -58q-72 0 -195 31q-26 -71 -81.5 -121t-129 -76.5t-153.5 -26.5zM146 315q8 88 58.5 157t131.5 105q-34 32 -90 32q-47 0 -86 -20.5t-62 -56.5t-23 -84q0 -87 70 -133h1zM276 277
q57 0 119 16.5t115.5 46t87 69t33.5 85.5q0 33 -18.5 55t-47.5 33t-61 11q-57 0 -126 -32q12 -25 12 -52q0 -29 -13 -55t-33.5 -42.5t-43.5 -16.5q-18 0 -18 8q0 9 11 9q21 0 37.5 14t26.5 36t10 44q0 11 -2.5 22.5t-8.5 21.5q-71 -42 -110.5 -112t-40.5 -154
q17 -4 34.5 -5.5t36.5 -1.5zM589 141q18 18 33.5 43t25.5 50.5t10 44.5q0 29 -18 29q-16 0 -26 -16t-15 -41.5t-7 -54.5t-3 -55zM178 -279q45 0 97.5 18t102 48.5t86 70t49.5 81.5q-112 35 -200 52t-144 17q-50 0 -90.5 -12t-64 -39.5t-23.5 -72.5q0 -69 49.5 -116
t137.5 -47zM520 678q-22 0 -41.5 13.5t-21.5 36.5v7t1 7q2 8 9 12.5t13 4.5t6 -4q0 -23 13 -36.5t36 -13.5q20 0 42 11t42 38h17q0 -1 -5 -9q-13 -20 -40 -43.5t-71 -23.5z" />
    <glyph glyph-name="gbreve" unicode="&#x11f;" horiz-adv-x="278" 
d="M73 -262q-31 0 -45 15.5t-14 40.5q0 34 20.5 66.5t45.5 59.5q18 19 40.5 38.5t42.5 34t27 18.5v110q-27 -120 -84 -120q-33 0 -52.5 21.5t-27.5 56.5t-8 73q0 48 12.5 93.5t39 75t67.5 29.5q26 0 41 -17.5t21 -59.5q11 77 30 99q10 13 20 13q13 0 13 -13q0 -7 -13 -22
q-10 -11 -16 -20t-11 -24q-7 -18 -11.5 -49.5t-4.5 -73.5q0 -38 2 -84t3 -75q29 20 51.5 56t33.5 92q2 8 8 8t4 -8q-15 -68 -39 -103.5t-57 -54.5l3 -58q0 -57 -16.5 -107t-48 -80.5t-77.5 -30.5zM110 15q19 0 34 23.5t25.5 58.5t16 71.5t5.5 61.5q0 50 -11.5 79.5
t-37.5 29.5q-18 0 -32 -17.5t-24 -46.5t-15 -62t-5 -65q0 -133 44 -133zM66 -238q36 0 63.5 33.5t42.5 79.5q8 23 13.5 52.5t5.5 70.5q-6 -5 -24.5 -19.5t-40 -32.5t-36.5 -35q-23 -25 -42 -55.5t-19 -57.5q0 -36 37 -36zM139 422q-22 0 -41.5 13.5t-21.5 36.5v7t1 7
q2 8 9 12.5t13 4.5t6 -4q0 -23 13 -36.5t36 -13.5q20 0 42 11t42 38h17q0 -1 -5 -9q-13 -20 -40 -43.5t-71 -23.5z" />
    <glyph glyph-name="Gdotaccent" unicode="&#x120;" horiz-adv-x="716" 
d="M188 -298q-68 0 -121.5 20t-84.5 59t-31 97q0 51 27.5 84.5t74.5 50t103 16.5q75 0 163.5 -19.5t200.5 -50.5q10 20 19.5 46.5t14.5 69.5q-73 -49 -162 -49q-76 0 -132 32.5t-85.5 91t-28.5 134.5q-91 58 -91 160q0 57 26 102t71 71t102 26q33 0 63 -16t46 -39
q69 28 137 28q45 0 83.5 -15t62 -43.5t23.5 -71.5q0 -52 -35.5 -95.5t-92.5 -75.5t-123 -49t-128 -17q-23 0 -44 2t-40 6q6 -92 53 -150q52 -64 142 -64q87 0 159 66q3 39 6.5 77t11.5 69t23 49.5t40 18.5q22 0 32 -14.5t10 -33.5q0 -40 -23.5 -85t-70.5 -89q-7 -45 -14 -86
t-16 -69q68 -14 115 -21.5t73 -7.5q73 0 122 43q23 20 23 5q0 -4 -5 -12q-34 -58 -140 -58q-72 0 -195 31q-26 -71 -81.5 -121t-129 -76.5t-153.5 -26.5zM146 315q8 88 58.5 157t131.5 105q-34 32 -90 32q-47 0 -86 -20.5t-62 -56.5t-23 -84q0 -87 70 -133h1zM276 277
q57 0 119 16.5t115.5 46t87 69t33.5 85.5q0 33 -18.5 55t-47.5 33t-61 11q-57 0 -126 -32q12 -25 12 -52q0 -29 -13 -55t-33.5 -42.5t-43.5 -16.5q-18 0 -18 8q0 9 11 9q21 0 37.5 14t26.5 36t10 44q0 11 -2.5 22.5t-8.5 21.5q-71 -42 -110.5 -112t-40.5 -154
q17 -4 34.5 -5.5t36.5 -1.5zM589 141q18 18 33.5 43t25.5 50.5t10 44.5q0 29 -18 29q-16 0 -26 -16t-15 -41.5t-7 -54.5t-3 -55zM178 -279q45 0 97.5 18t102 48.5t86 70t49.5 81.5q-112 35 -200 52t-144 17q-50 0 -90.5 -12t-64 -39.5t-23.5 -72.5q0 -69 49.5 -116
t137.5 -47zM518 686q-13 0 -21.5 8.5t-8.5 21.5q0 14 10.5 24t24.5 10q12 0 20.5 -8.5t8.5 -21.5q0 -14 -10 -24t-24 -10z" />
    <glyph glyph-name="gdotaccent" unicode="&#x121;" horiz-adv-x="278" 
d="M73 -262q-31 0 -45 15.5t-14 40.5q0 34 20.5 66.5t45.5 59.5q18 19 40.5 38.5t42.5 34t27 18.5v110q-27 -120 -84 -120q-33 0 -52.5 21.5t-27.5 56.5t-8 73q0 48 12.5 93.5t39 75t67.5 29.5q26 0 41 -17.5t21 -59.5q11 77 30 99q10 13 20 13q13 0 13 -13q0 -7 -13 -22
q-10 -11 -16 -20t-11 -24q-7 -18 -11.5 -49.5t-4.5 -73.5q0 -38 2 -84t3 -75q29 20 51.5 56t33.5 92q2 8 8 8t4 -8q-15 -68 -39 -103.5t-57 -54.5l3 -58q0 -57 -16.5 -107t-48 -80.5t-77.5 -30.5zM110 15q19 0 34 23.5t25.5 58.5t16 71.5t5.5 61.5q0 50 -11.5 79.5
t-37.5 29.5q-18 0 -32 -17.5t-24 -46.5t-15 -62t-5 -65q0 -133 44 -133zM66 -238q36 0 63.5 33.5t42.5 79.5q8 23 13.5 52.5t5.5 70.5q-6 -5 -24.5 -19.5t-40 -32.5t-36.5 -35q-23 -25 -42 -55.5t-19 -57.5q0 -36 37 -36zM137 430q-13 0 -21.5 8.5t-8.5 21.5q0 14 10.5 24
t24.5 10q12 0 20.5 -8.5t8.5 -21.5q0 -14 -10 -24t-24 -10z" />
    <glyph glyph-name="uni0122" unicode="&#x122;" horiz-adv-x="716" 
d="M188 -298q-68 0 -121.5 20t-84.5 59t-31 97q0 51 27.5 84.5t74.5 50t103 16.5q75 0 163.5 -19.5t200.5 -50.5q10 20 19.5 46.5t14.5 69.5q-73 -49 -162 -49q-76 0 -132 32.5t-85.5 91t-28.5 134.5q-91 58 -91 160q0 57 26 102t71 71t102 26q33 0 63 -16t46 -39
q69 28 137 28q45 0 83.5 -15t62 -43.5t23.5 -71.5q0 -52 -35.5 -95.5t-92.5 -75.5t-123 -49t-128 -17q-23 0 -44 2t-40 6q6 -92 53 -150q52 -64 142 -64q87 0 159 66q3 39 6.5 77t11.5 69t23 49.5t40 18.5q22 0 32 -14.5t10 -33.5q0 -40 -23.5 -85t-70.5 -89q-7 -45 -14 -86
t-16 -69q68 -14 115 -21.5t73 -7.5q73 0 122 43q23 20 23 5q0 -4 -5 -12q-34 -58 -140 -58q-72 0 -195 31q-26 -71 -81.5 -121t-129 -76.5t-153.5 -26.5zM146 315q8 88 58.5 157t131.5 105q-34 32 -90 32q-47 0 -86 -20.5t-62 -56.5t-23 -84q0 -87 70 -133h1zM276 277
q57 0 119 16.5t115.5 46t87 69t33.5 85.5q0 33 -18.5 55t-47.5 33t-61 11q-57 0 -126 -32q12 -25 12 -52q0 -29 -13 -55t-33.5 -42.5t-43.5 -16.5q-18 0 -18 8q0 9 11 9q21 0 37.5 14t26.5 36t10 44q0 11 -2.5 22.5t-8.5 21.5q-71 -42 -110.5 -112t-40.5 -154
q17 -4 34.5 -5.5t36.5 -1.5zM589 141q18 18 33.5 43t25.5 50.5t10 44.5q0 29 -18 29q-16 0 -26 -16t-15 -41.5t-7 -54.5t-3 -55zM178 -279q45 0 97.5 18t102 48.5t86 70t49.5 81.5q-112 35 -200 52t-144 17q-50 0 -90.5 -12t-64 -39.5t-23.5 -72.5q0 -69 49.5 -116
t137.5 -47zM145 -497l-3 11q32 12 43.5 35t14.5 38q-6 -6 -16 -6t-18.5 7t-8.5 21t9 23t22 9q11 0 21 -7.5t10 -25.5q0 -14 -6 -35.5t-22 -41t-46 -28.5z" />
    <glyph glyph-name="uni0123" unicode="&#x123;" horiz-adv-x="278" 
d="M73 -262q-31 0 -45 15.5t-14 40.5q0 34 20.5 66.5t45.5 59.5q18 19 40.5 38.5t42.5 34t27 18.5v110q-27 -120 -84 -120q-33 0 -52.5 21.5t-27.5 56.5t-8 73q0 48 12.5 93.5t39 75t67.5 29.5q26 0 41 -17.5t21 -59.5q11 77 30 99q10 13 20 13q13 0 13 -13q0 -7 -13 -22
q-10 -11 -16 -20t-11 -24q-7 -18 -11.5 -49.5t-4.5 -73.5q0 -38 2 -84t3 -75q29 20 51.5 56t33.5 92q2 8 8 8t4 -8q-15 -68 -39 -103.5t-57 -54.5l3 -58q0 -57 -16.5 -107t-48 -80.5t-77.5 -30.5zM110 15q19 0 34 23.5t25.5 58.5t16 71.5t5.5 61.5q0 50 -11.5 79.5
t-37.5 29.5q-18 0 -32 -17.5t-24 -46.5t-15 -62t-5 -65q0 -133 44 -133zM66 -238q36 0 63.5 33.5t42.5 79.5q8 23 13.5 52.5t5.5 70.5q-6 -5 -24.5 -19.5t-40 -32.5t-36.5 -35q-23 -25 -42 -55.5t-19 -57.5q0 -36 37 -36zM139 421q-10 0 -20.5 7.5t-10.5 25.5q0 14 6 35.5
t22.5 41.5t45.5 28l3 -11q-32 -12 -43.5 -35t-14.5 -38q6 6 16 6t18.5 -7t8.5 -21t-9 -23t-22 -9z" />
    <glyph glyph-name="Hcircumflex" unicode="&#x124;" horiz-adv-x="809" 
d="M179 -46q-64 0 -115 29t-81 79t-30 114q0 114 85 169q-22 43 -22 96q0 56 23.5 99t66 68t97.5 25q69 0 139 -27t158 -67q43 46 85 46q19 0 35 -10.5t16 -29.5t-15 -30.5t-41 -11.5q-27 0 -72 17q-38 -62 -39 -181q0 -6 -0.5 -14t-1.5 -18h226q24 107 51 184.5t70 108.5
q28 20 49 20q29 0 46 -21t17 -51q0 -14 -6 -38q-4 -9 -8 -9q-7 0 -3 12q5 18 5 34q0 59 -51 59h-3q-22 0 -41 -26.5t-35 -71.5t-28 -99t-20.5 -110.5t-13 -106t-4.5 -84.5q0 -103 31 -103q15 0 30 16t27.5 39t17.5 44q5 14 8 14q5 0 5 -14v-5q-12 -39 -35 -72
q-30 -41 -64 -41q-35 0 -51.5 33t-16.5 94q0 73 21 179h-225q-7 -103 -38.5 -179t-92 -117.5t-156.5 -41.5zM174 -27q66 0 110 26.5t71.5 73t43 108t23.5 132.5q8 62 22 118.5t44 94.5q-87 37 -149 56t-120 19q-52 0 -92 -22.5t-62.5 -62t-22.5 -92.5q0 -40 13 -70
q25 13 58 13q86 0 124 -68q43 30 43 88q0 13 8 13q5 0 5 -13q0 -64 -51 -99q14 -30 14 -58q0 -53 -29.5 -92.5t-81.5 -39.5q-8 0 -8 8t12 8q39 0 63.5 33t24.5 78q0 16 -3 29t-8 24q-33 -14 -65 -14q-75 0 -113 59q-59 -51 -59 -156q0 -55 24 -98.5t65.5 -69.5t95.5 -26z
M581 515q19 0 30 8t11 21q0 11 -10.5 18t-28.5 7q-19 0 -35.5 -10t-29.5 -26q35 -18 63 -18zM159 279q35 0 61 13q-32 56 -113 56q-24 0 -43 -13q32 -56 95 -56zM550 701l116 82q5 3 8 3t6 -3q5 -5 16.5 -17t24 -26t21 -24.5t8.5 -11.5q-1 -3 -8 -3l-82 47l-89 -47h-21z" />
    <glyph glyph-name="hcircumflex" unicode="&#x125;" horiz-adv-x="286" 
d="M16 -19q-4 0 -4 7q0 63 4 139t14 154.5t25.5 150.5t37.5 129t50 90.5t63 33.5q54 0 54 -84q0 -52 -24 -103.5t-65 -91.5t-93 -59q-2 -12 -6 -32q-7 -41 -10 -71t-3 -50q41 168 105 168q34 0 46 -22t12 -55q0 -26 -4.5 -55.5t-9.5 -58.5q-9 -46 -13 -77t-4 -51
q0 -25 5.5 -34t14.5 -9q31 0 65 80q10 23 17.5 49.5t10.5 42.5q1 7 7 7t5 -7q-7 -30 -14.5 -54.5t-15.5 -44.5q-17 -40 -37.5 -64t-45.5 -24t-40.5 18.5t-15.5 62.5q0 35 9 76t18 78t9 60q0 59 -27 59q-17 0 -31 -19.5t-24.5 -47t-18.5 -52.5q-9 -32 -15.5 -71.5t-10 -77
t-5.5 -65.5h-1q-4 0 -10.5 -3.5t-11.5 -8.5q-7 -7 -8.5 -10t-3.5 -3zM80 365q46 16 83.5 54.5t60 87t22.5 92.5q0 32 -11 53t-28 21t-33 -21t-30.5 -55.5t-27 -75.5t-21.5 -82t-15 -74zM108 741l116 82q5 3 8 3t6 -3q5 -5 16.5 -17t24 -26t21 -24.5t8.5 -11.5q-1 -3 -8 -3
l-82 47l-89 -47h-21z" />
    <glyph glyph-name="Hbar" unicode="&#x126;" horiz-adv-x="809" 
d="M179 -46q-64 0 -115 29t-81 79t-30 114q0 114 85 169q-22 43 -22 96q0 56 23.5 99t66 68t97.5 25q69 0 139 -27t158 -67q43 46 85 46q19 0 35 -10.5t16 -29.5t-15 -30.5t-41 -11.5q-27 0 -72 17q-38 -62 -39 -181q0 -6 -0.5 -14t-1.5 -18h226q24 107 51 184.5t70 108.5
q28 20 49 20q29 0 46 -21t17 -51q0 -14 -6 -38q-4 -9 -8 -9q-7 0 -3 12q5 18 5 34q0 59 -51 59h-3q-22 0 -41 -26.5t-35 -71.5t-28 -99t-20.5 -110.5t-13 -106t-4.5 -84.5q0 -103 31 -103q15 0 30 16t27.5 39t17.5 44q5 14 8 14q5 0 5 -14v-5q-12 -39 -35 -72
q-30 -41 -64 -41q-35 0 -51.5 33t-16.5 94q0 73 21 179h-225q-7 -103 -38.5 -179t-92 -117.5t-156.5 -41.5zM174 -27q66 0 110 26.5t71.5 73t43 108t23.5 132.5q8 62 22 118.5t44 94.5q-87 37 -149 56t-120 19q-52 0 -92 -22.5t-62.5 -62t-22.5 -92.5q0 -40 13 -70
q25 13 58 13q86 0 124 -68q43 30 43 88q0 13 8 13q5 0 5 -13q0 -64 -51 -99q14 -30 14 -58q0 -53 -29.5 -92.5t-81.5 -39.5q-8 0 -8 8t12 8q39 0 63.5 33t24.5 78q0 16 -3 29t-8 24q-33 -14 -65 -14q-75 0 -113 59q-59 -51 -59 -156q0 -55 24 -98.5t65.5 -69.5t95.5 -26z
M581 515q19 0 30 8t11 21q0 11 -10.5 18t-28.5 7q-19 0 -35.5 -10t-29.5 -26q35 -18 63 -18zM159 279q35 0 61 13q-32 56 -113 56q-24 0 -43 -13q32 -56 95 -56zM418 366l3 20h414l-3 -20h-414z" />
    <glyph glyph-name="hbar" unicode="&#x127;" horiz-adv-x="286" 
d="M16 -19q-4 0 -4 7q0 63 4 139t14 154.5t25.5 150.5t37.5 129t50 90.5t63 33.5q54 0 54 -84q0 -52 -24 -103.5t-65 -91.5t-93 -59q-2 -12 -6 -32q-7 -41 -10 -71t-3 -50q41 168 105 168q34 0 46 -22t12 -55q0 -26 -4.5 -55.5t-9.5 -58.5q-9 -46 -13 -77t-4 -51
q0 -25 5.5 -34t14.5 -9q31 0 65 80q10 23 17.5 49.5t10.5 42.5q1 7 7 7t5 -7q-7 -30 -14.5 -54.5t-15.5 -44.5q-17 -40 -37.5 -64t-45.5 -24t-40.5 18.5t-15.5 62.5q0 35 9 76t18 78t9 60q0 59 -27 59q-17 0 -31 -19.5t-24.5 -47t-18.5 -52.5q-9 -32 -15.5 -71.5t-10 -77
t-5.5 -65.5h-1q-4 0 -10.5 -3.5t-11.5 -8.5q-7 -7 -8.5 -10t-3.5 -3zM80 365q46 16 83.5 54.5t60 87t22.5 92.5q0 32 -11 53t-28 21t-33 -21t-30.5 -55.5t-27 -75.5t-21.5 -82t-15 -74zM3 488l1 23h185l-2 -23h-184z" />
    <glyph glyph-name="Itilde" unicode="&#x128;" horiz-adv-x="484" 
d="M186 -52q-53 0 -96.5 24t-68.5 66.5t-25 95.5q0 49 22 92.5t60.5 70.5t87.5 27q34 0 60 -17.5t41.5 -46.5t15.5 -63q0 -43 -28 -71t-72 -28q-39 0 -57.5 25t-18.5 59q0 30 13 30q3 0 3 -5q-3 -7 -3.5 -16.5t-0.5 -12.5q0 -28 16.5 -49.5t43.5 -21.5q38 0 62.5 26.5
t24.5 64.5q0 30 -13 56t-35 42t-51 16q-42 0 -71 -23t-44.5 -59.5t-15.5 -77.5q0 -85 38 -138t117 -53q53 0 88 26.5t56 72.5t33 106t18 127q-8 -2 -36 -2q-33 0 -61.5 17t-46.5 47.5t-18 70.5q0 68 37 114.5t97 71t128 24.5q52 0 86 -15q2 -2 2 -4q0 -4 -13 -5
q-20 -2 -39.5 -20.5t-35 -44.5t-23.5 -50q38 -29 38 -77q0 -82 -68 -114q-2 -99 -29 -180.5t-81 -129.5t-137 -48zM362 302q6 0 14 0.5t11 1.5l3 53q2 31 11.5 66.5t25.5 75.5q-6 2 -17 2q-21 0 -36 -14t-15 -35q0 -20 9 -29q6 -3 6 -5q0 -4 -5 -4q-10 0 -15.5 12t-5.5 25
q0 26 20.5 43.5t46.5 17.5q11 0 17 -2q47 105 108 106q-27 7 -61 7q-55 0 -103 -20.5t-80 -58.5t-40 -91q-1 -7 -1.5 -16t-0.5 -20q0 -57 29.5 -86t78.5 -29zM433 321q31 17 43 42t12 56q0 23 -9 40t-20 28q-12 -37 -18 -78.5t-8 -87.5zM501 709q-15 0 -31 8t-30.5 16
t-27.5 8q-19 0 -26.5 -10t-12.5 -17h-10q5 20 23.5 39.5t40.5 19.5q13 0 26 -7.5t27.5 -15t30.5 -7.5q23 0 31 10.5t11 15.5h8q-5 -22 -19.5 -41t-40.5 -19z" />
    <glyph glyph-name="itilde" unicode="&#x129;" horiz-adv-x="176" 
d="M91 0q-43 0 -59.5 35.5t-16.5 84.5q0 35 6 71q12 72 27 156q9 -3 15 -3q20 0 32 24q2 5 6 5t3 -7q-4 -16 -13 -58.5t-24 -110.5q-5 -25 -8.5 -52.5t-3.5 -51.5q0 -34 9 -58t31 -24q30 0 49 26t31 63.5t19 71.5q1 7 7 7q5 0 5 -7q-19 -91 -45.5 -131.5t-69.5 -40.5z
M127 429q-15 0 -31 8t-30.5 16t-27.5 8q-19 0 -26.5 -10t-12.5 -17h-10q5 20 23.5 39.5t40.5 19.5q13 0 26 -7.5t27.5 -15t30.5 -7.5q23 0 31 10.5t11 15.5h8q-5 -22 -19.5 -41t-40.5 -19z" />
    <glyph glyph-name="Imacron" unicode="&#x12a;" horiz-adv-x="484" 
d="M186 -52q-53 0 -96.5 24t-68.5 66.5t-25 95.5q0 49 22 92.5t60.5 70.5t87.5 27q34 0 60 -17.5t41.5 -46.5t15.5 -63q0 -43 -28 -71t-72 -28q-39 0 -57.5 25t-18.5 59q0 30 13 30q3 0 3 -5q-3 -7 -3.5 -16.5t-0.5 -12.5q0 -28 16.5 -49.5t43.5 -21.5q38 0 62.5 26.5
t24.5 64.5q0 30 -13 56t-35 42t-51 16q-42 0 -71 -23t-44.5 -59.5t-15.5 -77.5q0 -85 38 -138t117 -53q53 0 88 26.5t56 72.5t33 106t18 127q-8 -2 -36 -2q-33 0 -61.5 17t-46.5 47.5t-18 70.5q0 68 37 114.5t97 71t128 24.5q52 0 86 -15q2 -2 2 -4q0 -4 -13 -5
q-20 -2 -39.5 -20.5t-35 -44.5t-23.5 -50q38 -29 38 -77q0 -82 -68 -114q-2 -99 -29 -180.5t-81 -129.5t-137 -48zM362 302q6 0 14 0.5t11 1.5l3 53q2 31 11.5 66.5t25.5 75.5q-6 2 -17 2q-21 0 -36 -14t-15 -35q0 -20 9 -29q6 -3 6 -5q0 -4 -5 -4q-10 0 -15.5 12t-5.5 25
q0 26 20.5 43.5t46.5 17.5q11 0 17 -2q47 105 108 106q-27 7 -61 7q-55 0 -103 -20.5t-80 -58.5t-40 -91q-1 -7 -1.5 -16t-0.5 -20q0 -57 29.5 -86t78.5 -29zM433 321q31 17 43 42t12 56q0 23 -9 40t-20 28q-12 -37 -18 -78.5t-8 -87.5zM371 728l2 21h181l-2 -21h-181z" />
    <glyph glyph-name="imacron" unicode="&#x12b;" horiz-adv-x="176" 
d="M91 0q-43 0 -59.5 35.5t-16.5 84.5q0 35 6 71q12 72 27 156q9 -3 15 -3q20 0 32 24q2 5 6 5t3 -7q-4 -16 -13 -58.5t-24 -110.5q-5 -25 -8.5 -52.5t-3.5 -51.5q0 -34 9 -58t31 -24q30 0 49 26t31 63.5t19 71.5q1 7 7 7q5 0 5 -7q-19 -91 -45.5 -131.5t-69.5 -40.5z
M-3 448l2 21h181l-2 -21h-181z" />
    <glyph glyph-name="Ibreve" unicode="&#x12c;" horiz-adv-x="484" 
d="M186 -52q-53 0 -96.5 24t-68.5 66.5t-25 95.5q0 49 22 92.5t60.5 70.5t87.5 27q34 0 60 -17.5t41.5 -46.5t15.5 -63q0 -43 -28 -71t-72 -28q-39 0 -57.5 25t-18.5 59q0 30 13 30q3 0 3 -5q-3 -7 -3.5 -16.5t-0.5 -12.5q0 -28 16.5 -49.5t43.5 -21.5q38 0 62.5 26.5
t24.5 64.5q0 30 -13 56t-35 42t-51 16q-42 0 -71 -23t-44.5 -59.5t-15.5 -77.5q0 -85 38 -138t117 -53q53 0 88 26.5t56 72.5t33 106t18 127q-8 -2 -36 -2q-33 0 -61.5 17t-46.5 47.5t-18 70.5q0 68 37 114.5t97 71t128 24.5q52 0 86 -15q2 -2 2 -4q0 -4 -13 -5
q-20 -2 -39.5 -20.5t-35 -44.5t-23.5 -50q38 -29 38 -77q0 -82 -68 -114q-2 -99 -29 -180.5t-81 -129.5t-137 -48zM362 302q6 0 14 0.5t11 1.5l3 53q2 31 11.5 66.5t25.5 75.5q-6 2 -17 2q-21 0 -36 -14t-15 -35q0 -20 9 -29q6 -3 6 -5q0 -4 -5 -4q-10 0 -15.5 12t-5.5 25
q0 26 20.5 43.5t46.5 17.5q11 0 17 -2q47 105 108 106q-27 7 -61 7q-55 0 -103 -20.5t-80 -58.5t-40 -91q-1 -7 -1.5 -16t-0.5 -20q0 -57 29.5 -86t78.5 -29zM433 321q31 17 43 42t12 56q0 23 -9 40t-20 28q-12 -37 -18 -78.5t-8 -87.5zM462 702q-22 0 -41.5 13.5
t-21.5 36.5v7t1 7q2 8 9 12.5t13 4.5t6 -4q0 -23 13 -36.5t36 -13.5q20 0 42 11t42 38h17q0 -1 -5 -9q-13 -20 -40 -43.5t-71 -23.5z" />
    <glyph glyph-name="ibreve" unicode="&#x12d;" horiz-adv-x="176" 
d="M91 0q-43 0 -59.5 35.5t-16.5 84.5q0 35 6 71q12 72 27 156q9 -3 15 -3q20 0 32 24q2 5 6 5t3 -7q-4 -16 -13 -58.5t-24 -110.5q-5 -25 -8.5 -52.5t-3.5 -51.5q0 -34 9 -58t31 -24q30 0 49 26t31 63.5t19 71.5q1 7 7 7q5 0 5 -7q-19 -91 -45.5 -131.5t-69.5 -40.5z
M88 422q-22 0 -41.5 13.5t-21.5 36.5v7t1 7q2 8 9 12.5t13 4.5t6 -4q0 -23 13 -36.5t36 -13.5q20 0 42 11t42 38h17q0 -1 -5 -9q-13 -20 -40 -43.5t-71 -23.5z" />
    <glyph glyph-name="Iogonek" unicode="&#x12e;" horiz-adv-x="484" 
d="M186 -52q-53 0 -96.5 24t-68.5 66.5t-25 95.5q0 49 22 92.5t60.5 70.5t87.5 27q34 0 60 -17.5t41.5 -46.5t15.5 -63q0 -43 -28 -71t-72 -28q-39 0 -57.5 25t-18.5 59q0 30 13 30q3 0 3 -5q-3 -7 -3.5 -16.5t-0.5 -12.5q0 -28 16.5 -49.5t43.5 -21.5q38 0 62.5 26.5
t24.5 64.5q0 30 -13 56t-35 42t-51 16q-42 0 -71 -23t-44.5 -59.5t-15.5 -77.5q0 -85 38 -138t117 -53q53 0 88 26.5t56 72.5t33 106t18 127q-8 -2 -36 -2q-33 0 -61.5 17t-46.5 47.5t-18 70.5q0 68 37 114.5t97 71t128 24.5q52 0 86 -15q2 -2 2 -4q0 -4 -13 -5
q-20 -2 -39.5 -20.5t-35 -44.5t-23.5 -50q38 -29 38 -77q0 -82 -68 -114q-2 -99 -29 -180.5t-81 -129.5t-137 -48zM362 302q6 0 14 0.5t11 1.5l3 53q2 31 11.5 66.5t25.5 75.5q-6 2 -17 2q-21 0 -36 -14t-15 -35q0 -20 9 -29q6 -3 6 -5q0 -4 -5 -4q-10 0 -15.5 12t-5.5 25
q0 26 20.5 43.5t46.5 17.5q11 0 17 -2q47 105 108 106q-27 7 -61 7q-55 0 -103 -20.5t-80 -58.5t-40 -91q-1 -7 -1.5 -16t-0.5 -20q0 -57 29.5 -86t78.5 -29zM433 321q31 17 43 42t12 56q0 23 -9 40t-20 28q-12 -37 -18 -78.5t-8 -87.5zM291 -152q-24 0 -39.5 11.5
t-15.5 33.5q0 20 19 47t48 53q3 2 7.5 5.5t7.5 3.5q5 0 8 -2q-21 -20 -35.5 -48t-14.5 -51q0 -17 9 -23.5t22 -6.5q15 0 32.5 6t26.5 13v-16q-19 -13 -38.5 -19.5t-36.5 -6.5z" />
    <glyph glyph-name="iogonek" unicode="&#x12f;" horiz-adv-x="176" 
d="M91 0q-43 0 -59.5 35.5t-16.5 84.5q0 35 6 71q12 72 27 156q9 -3 15 -3q20 0 32 24q2 5 6 5t3 -7q-4 -16 -13 -58.5t-24 -110.5q-5 -25 -8.5 -52.5t-3.5 -51.5q0 -34 9 -58t31 -24q30 0 49 26t31 63.5t19 71.5q1 7 7 7q5 0 5 -7q-19 -91 -45.5 -131.5t-69.5 -40.5z
M86 430q-13 0 -21.5 8.5t-8.5 21.5q0 14 10.5 24t24.5 10q12 0 20.5 -8.5t8.5 -21.5q0 -14 -10 -24t-24 -10zM96 -141q-24 0 -39.5 11.5t-15.5 33.5q0 20 19 47t48 53q3 2 7.5 5.5t7.5 3.5q5 0 8 -2q-21 -20 -35.5 -48t-14.5 -51q0 -17 9 -23.5t22 -6.5q15 0 32.5 6t26.5 13
v-16q-19 -13 -38.5 -19.5t-36.5 -6.5z" />
    <glyph glyph-name="Idotaccent" unicode="&#x130;" horiz-adv-x="484" 
d="M186 -52q-53 0 -96.5 24t-68.5 66.5t-25 95.5q0 49 22 92.5t60.5 70.5t87.5 27q34 0 60 -17.5t41.5 -46.5t15.5 -63q0 -43 -28 -71t-72 -28q-39 0 -57.5 25t-18.5 59q0 30 13 30q3 0 3 -5q-3 -7 -3.5 -16.5t-0.5 -12.5q0 -28 16.5 -49.5t43.5 -21.5q38 0 62.5 26.5
t24.5 64.5q0 30 -13 56t-35 42t-51 16q-42 0 -71 -23t-44.5 -59.5t-15.5 -77.5q0 -85 38 -138t117 -53q53 0 88 26.5t56 72.5t33 106t18 127q-8 -2 -36 -2q-33 0 -61.5 17t-46.5 47.5t-18 70.5q0 68 37 114.5t97 71t128 24.5q52 0 86 -15q2 -2 2 -4q0 -4 -13 -5
q-20 -2 -39.5 -20.5t-35 -44.5t-23.5 -50q38 -29 38 -77q0 -82 -68 -114q-2 -99 -29 -180.5t-81 -129.5t-137 -48zM362 302q6 0 14 0.5t11 1.5l3 53q2 31 11.5 66.5t25.5 75.5q-6 2 -17 2q-21 0 -36 -14t-15 -35q0 -20 9 -29q6 -3 6 -5q0 -4 -5 -4q-10 0 -15.5 12t-5.5 25
q0 26 20.5 43.5t46.5 17.5q11 0 17 -2q47 105 108 106q-27 7 -61 7q-55 0 -103 -20.5t-80 -58.5t-40 -91q-1 -7 -1.5 -16t-0.5 -20q0 -57 29.5 -86t78.5 -29zM433 321q31 17 43 42t12 56q0 23 -9 40t-20 28q-12 -37 -18 -78.5t-8 -87.5zM460 710q-13 0 -21.5 8.5t-8.5 21.5
q0 14 10.5 24t24.5 10q12 0 20.5 -8.5t8.5 -21.5q0 -14 -10 -24t-24 -10z" />
    <glyph glyph-name="dotlessi" unicode="&#x131;" horiz-adv-x="176" 
d="M91 0q-43 0 -59.5 35.5t-16.5 84.5q0 35 6 71q12 72 27 156q9 -3 15 -3q20 0 32 24q2 5 6 5t3 -7q-4 -16 -13 -58.5t-24 -110.5q-5 -25 -8.5 -52.5t-3.5 -51.5q0 -34 9 -58t31 -24q30 0 49 26t31 63.5t19 71.5q1 7 7 7q5 0 5 -7q-19 -91 -45.5 -131.5t-69.5 -40.5z" />
    <glyph glyph-name="Jcircumflex" unicode="&#x134;" horiz-adv-x="486" 
d="M106 -272q-60 0 -108.5 29.5t-77 79.5t-28.5 111q0 58 24.5 106t68.5 77t100 29q42 0 74 -20t50 -54.5t18 -76.5q0 -59 -34 -94.5t-87 -35.5q-25 0 -38 8.5t-13 15.5q0 9 6 9q7 -13 19 -17t25 -4q49 0 77 33.5t28 84.5q0 38 -15.5 69.5t-43.5 50t-66 18.5
q-50 0 -87.5 -26t-58 -69.5t-20.5 -96.5q0 -56 24 -104t66.5 -77.5t97.5 -29.5q66 0 115.5 33t83.5 89.5t55 130t30.5 155t9.5 162.5q0 120 23.5 195.5t65.5 94.5q-4 1 -16.5 3t-29.5 2q-54 0 -101.5 -22.5t-77 -63t-29.5 -94.5q0 -28 11.5 -50.5t40.5 -22.5q27 0 46.5 22.5
t19.5 50.5q0 9 -2 19.5t-4 12.5q-2 4 -2 5q0 6 6 6q5 0 10 -10.5t5 -33.5q0 -34 -23 -59t-58 -25q-37 0 -54.5 23t-17.5 56q0 57 33 100.5t86 68.5t113 25q15 0 35 -4t23 -4h3q1 -1 1 -3q0 -1 -7 -6.5t-14 -16.5q-27 -40 -35 -80t-8 -92q0 -34 1.5 -75.5t1.5 -93.5
q0 -100 -20 -192.5t-61.5 -165t-106 -114.5t-153.5 -42zM331 678l116 82q5 3 8 3t6 -3q5 -5 16.5 -17t24 -26t21 -24.5t8.5 -11.5q-1 -3 -8 -3l-82 47l-89 -47h-21z" />
    <glyph glyph-name="jcircumflex" unicode="&#x135;" horiz-adv-x="164" 
d="M-120 -285q-54 0 -54 45q0 34 24.5 69t65.5 72.5t90 78.5l19 187q0 3 -4 2.5t-3 2.5q8 41 14 86t10 85q11 -3 16 -3q16 0 28 23q2 5 5 5q4 0 3 -8l-38 -344q45 28 79 63.5t47 92.5q1 6 7 6q5 0 5 -6q-9 -43 -29 -73t-47.5 -52.5t-61.5 -44.5q0 -52 -10 -103t-31.5 -92.5
t-55 -66.5t-79.5 -25zM-122 -272q38 0 69 36.5t45 102.5q5 26 8 49t3 42q-43 -33 -80 -67.5t-60 -67.5t-23 -64q0 -17 9.5 -24t28.5 -7zM-33 421l116 82q5 3 8 3t6 -3q5 -5 16.5 -17t24 -26t21 -24.5t8.5 -11.5q-1 -3 -8 -3l-82 47l-89 -47h-21z" />
    <glyph glyph-name="uni0136" unicode="&#x136;" horiz-adv-x="884" 
d="M230 -114q-60 0 -110.5 27t-80.5 74.5t-30 108.5q0 56 26.5 99.5t72 69t100.5 25.5q62 0 103 -39.5t41 -101.5q0 -56 -34.5 -89.5t-87.5 -33.5q-26 0 -39 9.5t-13 19.5q0 4 3 4q2 0 3.5 -3t7.5 -8q5 -4 14 -8t24 -4q50 0 79 31.5t29 81.5q0 56 -36.5 93t-93.5 37
q-51 0 -90 -24t-61 -65.5t-22 -93.5q0 -54 26 -99t69.5 -71.5t97.5 -26.5q83 0 141 36.5t95 100t54 145t17 172.5q0 84 7.5 138.5t26 87t50.5 49.5h-5q-43 0 -87 -11.5t-81.5 -33t-60.5 -52t-23 -68.5q0 -25 17 -41.5t42 -16.5q26 0 44.5 17.5t18.5 45.5q0 6 -2.5 15.5
t-2.5 10.5q0 5 6 5t9 -13.5t3 -19.5q0 -33 -25 -54.5t-59 -21.5q-33 0 -53 21t-20 54q0 40 27 72t70.5 55t92.5 35t92 12h16t9 -2l-14 -15q-29 -31 -43 -79.5t-14 -113.5q0 -5 1 -24.5t2 -44t2 -44t1 -25.5q53 0 98 28t80.5 73t58.5 97q20 40 37.5 71t38.5 49t50 18
q15 0 34.5 -9.5t19.5 -23.5q0 -6 -5 -6l-12 13q-13 13 -29 13q-33 0 -58 -64q-10 -26 -21.5 -50t-24.5 -45q-26 -43 -63 -80t-81 -61t-91 -29q48 -2 75 -25.5t44 -57.5t34 -70q13 -27 31 -57.5t38.5 -57.5t41.5 -43.5t40 -16.5q22 0 32 9t11 27q1 3 1 6t1 6q1 10 6 10
q9 0 9 -26q0 -45 -73 -45q-52 0 -87 23t-58 63.5t-42 91.5q-25 68 -57 109t-79 51q-3 -122 -43.5 -211t-117.5 -137t-191 -48zM548 -209l-3 11q32 12 43.5 35t14.5 38q-6 -6 -16 -6t-18.5 7t-8.5 21t9 23t22 9q11 0 21 -7.5t10 -25.5q0 -14 -6 -35.5t-22 -41t-46 -28.5z" />
    <glyph glyph-name="uni0137" unicode="&#x137;" horiz-adv-x="279" 
d="M7 -7q-5 0 -5 8q4 71 18 187q8 68 19.5 137.5t27.5 132t37.5 111.5t49.5 77.5t64 28.5q56 0 56 -63q0 -35 -16 -77t-43 -82.5t-59.5 -70t-66.5 -38.5q-24 -106 -36 -205q4 13 9 31t12 43q15 46 37 83t47.5 59.5t49.5 22.5q47 0 47 -52q0 -32 -20 -56t-50 -39t-60 -21
q14 0 24 -13q15 -20 21 -65l4 -42t4 -41q2 -18 9.5 -26t17.5 -8q18 0 33 17t27 42t20.5 52t11.5 46q2 8 6 8q5 0 5.5 -3t0.5 -5q-9 -46 -24 -85t-37.5 -63.5t-55.5 -24.5q-21 0 -38.5 12.5t-24.5 34.5q-5 18 -6.5 43t-1.5 48t-1 33q-1 20 -7.5 29t-24.5 10l-2 -7
q-46 -159 -46 -197l-13 1q-11 2 -16 -11q-1 -2 -4 -2zM93 359q27 9 56.5 37t54 65.5t40 76.5t15.5 70q0 48 -31 48q-28 0 -52 -38t-49 -125q-6 -22 -14.5 -55t-19.5 -79zM94 220q21 -1 44 10.5t43 29.5t32.5 38t12.5 37t-6 23t-18 6q-18 0 -39.5 -24t-40 -57.5t-28.5 -62.5z
M47 -209l-3 11q32 12 43.5 35t14.5 38q-6 -6 -16 -6t-18.5 7t-8.5 21t9 23t22 9q11 0 21 -7.5t10 -25.5q0 -14 -6 -35.5t-22 -41t-46 -28.5z" />
    <glyph glyph-name="kgreenlandic" unicode="&#x138;" horiz-adv-x="279" 
d="M7 -7q-5 0 -5 8q4 71 18 187q9 75 20.5 140t29 114.5t46 77t70.5 27.5q34 0 49 -24q0 -1 0.5 -1.5t0.5 -1.5q0 -4 -6 -8t-9 2q-7 14 -25 14q-24 0 -44 -26.5t-36 -70t-28.5 -95.5t-21 -103.5t-13.5 -93.5q4 13 9 31t12 43q15 46 37 83.5t48.5 60t52.5 22.5q14 0 25 -7
t11 -19q0 -6 -5 -11.5t-13 -5.5t-10.5 4.5t-7 9t-18.5 4.5q-18 0 -37.5 -21.5t-36 -52.5t-26.5 -60q12 0 27.5 -4t27.5 -19q15 -20 21 -65l4 -42t4 -41q2 -18 9.5 -26t17.5 -8q18 0 33 17t27 42t20.5 52t11.5 46q2 8 6 8q5 0 5.5 -3t0.5 -5q-9 -46 -24 -85t-37.5 -63.5
t-55.5 -24.5q-21 0 -38.5 12.5t-24.5 34.5q-5 18 -6.5 43t-1.5 48t-1 33q-1 20 -7.5 29t-24.5 10l-2 -7q-46 -159 -46 -197l-13 1q-11 0 -16 -11q-1 -2 -4 -2z" />
    <glyph glyph-name="Lacute" unicode="&#x139;" horiz-adv-x="465" 
d="M474 -119q-63 0 -128 33.5t-146 88.5q-46 -33 -107 -33q-42 0 -77 14.5t-56.5 43t-21.5 69.5q0 42 49 42q70 0 209 -97q46 64 82 272q-71 0 -126 29.5t-85.5 80t-30.5 113.5q0 43 18 71q23 32 62 32q34 0 62 -22t39 -55q0 -10 -6 -10q-4 0 -6 2.5t-3 4.5q-30 64 -84 64
q-65 0 -65 -96q0 -58 31 -103t83 -70t113 -25q6 55 19.5 109t35 98.5t52 71.5t71.5 27t60 -22.5t19 -56.5q0 -33 -15.5 -72t-42.5 -74q-28 -36 -68 -62t-84 -33q-10 -98 -31 -169t-73 -126q26 -18 61.5 -35.5t74 -32.5t75 -24t64.5 -9q41 0 60.5 19.5t19.5 50.5q0 13 -3 26
q0 6 5 6q6 0 8.5 -11t2.5 -25q0 -46 -32.5 -75.5t-84.5 -29.5zM328 333q42 7 79 31t63 58q23 29 35.5 64.5t12.5 66.5q0 26 -10.5 43t-34.5 17q-37 0 -62.5 -25.5t-42 -67.5t-26 -91t-14.5 -96zM87 -14q52 0 88 33q-136 92 -189 92q-28 0 -28 -23q0 -24 20.5 -47.5t50.5 -39
t58 -15.5zM473 701q-15 0 -15 3q0 1 14.5 13t34.5 27.5t37 27t21 11.5q6 0 16 -5t10 -12z" />
    <glyph glyph-name="lacute" unicode="&#x13a;" horiz-adv-x="194" 
d="M108 -3q-39 0 -58 27t-25 70.5t-6 94.5q0 55 7.5 114.5t21 116.5t31 105t38.5 79q34 52 68 52q19 0 26.5 -19.5t7.5 -51.5q0 -40 -10 -91.5t-24 -92.5q-42 -127 -128 -248q0 -34 4.5 -66.5t16.5 -54t33 -21.5q18 0 34.5 17t30.5 43t23.5 53.5t12.5 47.5q2 7 7 7q6 0 5 -7
q-7 -41 -22.5 -81.5t-38.5 -67t-55 -26.5zM57 177q34 46 61 103t49 125q9 28 17.5 64.5t14 73t5.5 61.5q0 17 -3 27t-10 10q-10 0 -21 -18t-30 -62t-33 -86t-22 -81q-13 -59 -19.5 -113t-8.5 -104zM205 717q-15 0 -15 3q0 1 14.5 13t34.5 27.5t37 27t21 11.5q6 0 16 -5
t10 -12z" />
    <glyph glyph-name="uni013B" unicode="&#x13b;" horiz-adv-x="465" 
d="M474 -119q-63 0 -128 33.5t-146 88.5q-46 -33 -107 -33q-42 0 -77 14.5t-56.5 43t-21.5 69.5q0 42 49 42q70 0 209 -97q46 64 82 272q-71 0 -126 29.5t-85.5 80t-30.5 113.5q0 43 18 71q23 32 62 32q34 0 62 -22t39 -55q0 -10 -6 -10q-4 0 -6 2.5t-3 4.5q-30 64 -84 64
q-65 0 -65 -96q0 -58 31 -103t83 -70t113 -25q6 55 19.5 109t35 98.5t52 71.5t71.5 27t60 -22.5t19 -56.5q0 -33 -15.5 -72t-42.5 -74q-28 -36 -68 -62t-84 -33q-10 -98 -31 -169t-73 -126q26 -18 61.5 -35.5t74 -32.5t75 -24t64.5 -9q41 0 60.5 19.5t19.5 50.5q0 13 -3 26
q0 6 5 6q6 0 8.5 -11t2.5 -25q0 -46 -32.5 -75.5t-84.5 -29.5zM328 333q42 7 79 31t63 58q23 29 35.5 64.5t12.5 66.5q0 26 -10.5 43t-34.5 17q-37 0 -62.5 -25.5t-42 -67.5t-26 -91t-14.5 -96zM87 -14q52 0 88 33q-136 92 -189 92q-28 0 -28 -23q0 -24 20.5 -47.5t50.5 -39
t58 -15.5zM147 -209l-3 11q32 12 43.5 35t14.5 38q-6 -6 -16 -6t-18.5 7t-8.5 21t9 23t22 9q11 0 21 -7.5t10 -25.5q0 -14 -6 -35.5t-22 -41t-46 -28.5z" />
    <glyph glyph-name="uni013C" unicode="&#x13c;" horiz-adv-x="194" 
d="M108 -3q-39 0 -58 27t-25 70.5t-6 94.5q0 55 7.5 114.5t21 116.5t31 105t38.5 79q34 52 68 52q19 0 26.5 -19.5t7.5 -51.5q0 -40 -10 -91.5t-24 -92.5q-42 -127 -128 -248q0 -34 4.5 -66.5t16.5 -54t33 -21.5q18 0 34.5 17t30.5 43t23.5 53.5t12.5 47.5q2 7 7 7q6 0 5 -7
q-7 -41 -22.5 -81.5t-38.5 -67t-55 -26.5zM57 177q34 46 61 103t49 125q9 28 17.5 64.5t14 73t5.5 61.5q0 17 -3 27t-10 10q-10 0 -21 -18t-30 -62t-33 -86t-22 -81q-13 -59 -19.5 -113t-8.5 -104zM54 -209l-3 11q32 12 43.5 35t14.5 38q-6 -6 -16 -6t-18.5 7t-8.5 21t9 23
t22 9q11 0 21 -7.5t10 -25.5q0 -14 -6 -35.5t-22 -41t-46 -28.5z" />
    <glyph glyph-name="Lcaron" unicode="&#x13d;" horiz-adv-x="465" 
d="M474 -119q-63 0 -128 33.5t-146 88.5q-46 -33 -107 -33q-42 0 -77 14.5t-56.5 43t-21.5 69.5q0 42 49 42q70 0 209 -97q46 64 82 272q-71 0 -126 29.5t-85.5 80t-30.5 113.5q0 43 18 71q23 32 62 32q34 0 62 -22t39 -55q0 -10 -6 -10q-4 0 -6 2.5t-3 4.5q-30 64 -84 64
q-65 0 -65 -96q0 -58 31 -103t83 -70t113 -25q6 55 19.5 109t35 98.5t52 71.5t71.5 27t60 -22.5t19 -56.5q0 -33 -15.5 -72t-42.5 -74q-28 -36 -68 -62t-84 -33q-10 -98 -31 -169t-73 -126q26 -18 61.5 -35.5t74 -32.5t75 -24t64.5 -9q41 0 60.5 19.5t19.5 50.5q0 13 -3 26
q0 6 5 6q6 0 8.5 -11t2.5 -25q0 -46 -32.5 -75.5t-84.5 -29.5zM328 333q42 7 79 31t63 58q23 29 35.5 64.5t12.5 66.5q0 26 -10.5 43t-34.5 17q-37 0 -62.5 -25.5t-42 -67.5t-26 -91t-14.5 -96zM87 -14q52 0 88 33q-136 92 -189 92q-28 0 -28 -23q0 -24 20.5 -47.5t50.5 -39
t58 -15.5zM553 500l-3 11q32 12 43.5 35t14.5 38q-6 -6 -16 -6t-18.5 7t-8.5 21t9 23t22 9q11 0 21 -7.5t10 -25.5q0 -14 -6 -35.5t-22 -41t-46 -28.5z" />
    <glyph glyph-name="lcaron" unicode="&#x13e;" horiz-adv-x="194" 
d="M108 -3q-39 0 -58 27t-25 70.5t-6 94.5q0 55 7.5 114.5t21 116.5t31 105t38.5 79q34 52 68 52q19 0 26.5 -19.5t7.5 -51.5q0 -40 -10 -91.5t-24 -92.5q-42 -127 -128 -248q0 -34 4.5 -66.5t16.5 -54t33 -21.5q18 0 34.5 17t30.5 43t23.5 53.5t12.5 47.5q2 7 7 7q6 0 5 -7
q-7 -41 -22.5 -81.5t-38.5 -67t-55 -26.5zM57 177q34 46 61 103t49 125q9 28 17.5 64.5t14 73t5.5 61.5q0 17 -3 27t-10 10q-10 0 -21 -18t-30 -62t-33 -86t-22 -81q-13 -59 -19.5 -113t-8.5 -104zM241 540l-3 11q32 12 43.5 35t14.5 38q-6 -6 -16 -6t-18.5 7t-8.5 21t9 23
t22 9q11 0 21 -7.5t10 -25.5q0 -14 -6 -35.5t-22 -41t-46 -28.5z" />
    <glyph glyph-name="Ldot" unicode="&#x13f;" horiz-adv-x="465" 
d="M474 -119q-63 0 -128 33.5t-146 88.5q-46 -33 -107 -33q-42 0 -77 14.5t-56.5 43t-21.5 69.5q0 42 49 42q70 0 209 -97q46 64 82 272q-71 0 -126 29.5t-85.5 80t-30.5 113.5q0 43 18 71q23 32 62 32q34 0 62 -22t39 -55q0 -10 -6 -10q-4 0 -6 2.5t-3 4.5q-30 64 -84 64
q-65 0 -65 -96q0 -58 31 -103t83 -70t113 -25q6 55 19.5 109t35 98.5t52 71.5t71.5 27t60 -22.5t19 -56.5q0 -33 -15.5 -72t-42.5 -74q-28 -36 -68 -62t-84 -33q-10 -98 -31 -169t-73 -126q26 -18 61.5 -35.5t74 -32.5t75 -24t64.5 -9q41 0 60.5 19.5t19.5 50.5q0 13 -3 26
q0 6 5 6q6 0 8.5 -11t2.5 -25q0 -46 -32.5 -75.5t-84.5 -29.5zM328 333q42 7 79 31t63 58q23 29 35.5 64.5t12.5 66.5q0 26 -10.5 43t-34.5 17q-37 0 -62.5 -25.5t-42 -67.5t-26 -91t-14.5 -96zM508 218q-13 0 -21.5 8.5t-8.5 21.5q0 14 10.5 24t24.5 10q12 0 20.5 -8.5
t8.5 -21.5q0 -14 -10 -24t-24 -10zM87 -14q52 0 88 33q-136 92 -189 92q-28 0 -28 -23q0 -24 20.5 -47.5t50.5 -39t58 -15.5z" />
    <glyph glyph-name="ldot" unicode="&#x140;" horiz-adv-x="194" 
d="M108 -3q-39 0 -58 27t-25 70.5t-6 94.5q0 55 7.5 114.5t21 116.5t31 105t38.5 79q34 52 68 52q19 0 26.5 -19.5t7.5 -51.5q0 -40 -10 -91.5t-24 -92.5q-42 -127 -128 -248q0 -34 4.5 -66.5t16.5 -54t33 -21.5q18 0 34.5 17t30.5 43t23.5 53.5t12.5 47.5q2 7 7 7q6 0 5 -7
q-7 -41 -22.5 -81.5t-38.5 -67t-55 -26.5zM57 177q34 46 61 103t49 125q9 28 17.5 64.5t14 73t5.5 61.5q0 17 -3 27t-10 10q-10 0 -21 -18t-30 -62t-33 -86t-22 -81q-13 -59 -19.5 -113t-8.5 -104zM90 181q-14 0 -24 10t-10 24t10 23.5t24 9.5t23.5 -9.5t9.5 -23.5t-9.5 -24
t-23.5 -10z" />
    <glyph glyph-name="Lslash" unicode="&#x141;" horiz-adv-x="465" 
d="M159 170l-3 23l102 20q10 45 20 101q-71 0 -126 29.5t-85.5 80t-30.5 113.5q0 43 18 71q23 32 62 32q34 0 62 -22t39 -55q0 -10 -6 -10q-4 0 -6 2.5t-3 4.5q-30 64 -84 64q-65 0 -65 -96q0 -58 31 -103t83 -70t113 -25q6 55 19.5 109t35 98.5t52 71.5t71.5 27t60 -22.5
t19 -56.5q0 -33 -15.5 -72t-42.5 -74q-28 -36 -68 -62t-84 -33q-2 -25 -5 -48t-7 -44l102 20l3 -23l-110 -21q-12 -55 -32 -98.5t-55 -80.5q26 -18 61.5 -35.5t74 -32.5t75 -24t64.5 -9q41 0 60.5 19.5t19.5 50.5q0 13 -3 26q0 6 5 6q6 0 8.5 -11t2.5 -25q0 -46 -32.5 -75.5
t-84.5 -29.5q-63 0 -128 33.5t-146 88.5q-46 -33 -107 -33q-42 0 -77 14.5t-56.5 43t-21.5 69.5q0 42 49 42q70 0 209 -97q30 42 56 146zM328 333q42 7 79 31t63 58q23 29 35.5 64.5t12.5 66.5q0 26 -10.5 43t-34.5 17q-37 0 -62.5 -25.5t-42 -67.5t-26 -91t-14.5 -96z
M87 -14q52 0 88 33q-136 92 -189 92q-28 0 -28 -23q0 -24 20.5 -47.5t50.5 -39t58 -15.5z" />
    <glyph glyph-name="lslash" unicode="&#x142;" horiz-adv-x="190" 
d="M104 -3q-35 0 -53.5 21t-26 56.5t-8.5 78.5l-47 -9l-3 23l49 10v12q0 55 7.5 114.5t21 116.5t31 105t38.5 79q34 52 68 52q19 0 26.5 -19.5t7.5 -51.5q0 -40 -10 -91.5t-24 -92.5q-36 -108 -104 -212l70 13l3 -23l-91 -17q-3 -5 -6 -9q0 -34 4.5 -66.5t16.5 -54t33 -21.5
q18 0 34.5 17t30.5 43t23.5 53.5t12.5 47.5q2 7 7 7q6 0 5 -7q-7 -41 -22.5 -81.5t-38.5 -67t-55 -26.5zM81 394q-12 -57 -19 -109.5t-9 -100.5l6 1q32 45 57.5 100t46.5 120q9 28 17.5 64.5t14 73t5.5 61.5q0 17 -3 27t-10 10q-10 0 -21 -18t-30 -62t-33 -86t-22 -81z" />
    <glyph glyph-name="Nacute" unicode="&#x143;" horiz-adv-x="976" 
d="M248 -63q-62 0 -114 28.5t-82.5 77.5t-30.5 111q0 68 37 121q-46 58 -46 142q0 87 44 148t119 92.5t168 31.5q44 0 86.5 -9.5t91 -26t111.5 -38.5q16 16 40 21.5t43 5.5t31 -6.5t12 -20.5q0 -12 -11 -20t-31 -8q-12 0 -27.5 3.5t-31.5 7.5q-5 -13 -5 -31q0 -44 12 -81
t32.5 -76t47.5 -90q30 -53 54.5 -103t39.5 -91t15 -69q0 -41 -14 -69q23 14 36.5 48.5t19.5 105t6 192.5q0 63 4.5 122.5t18 107t41.5 76t76 28.5q38 0 61.5 -26.5t23.5 -69.5q0 -21 -4 -41.5t-15 -37.5q-24 -38 -74 -38q-13 0 -13 6q0 5 13 5q20 0 36.5 8.5t26.5 25.5
q16 28 16 71q0 34 -18.5 60t-53.5 26q-36 0 -59.5 -28.5t-37 -76t-18.5 -104t-5 -113.5q0 -97 -4 -169t-20 -119t-54 -71q-1 -1 -7 -1q-4 0 -8.5 1t-4.5 2q3 2 5 10.5t2 15.5q0 15 -6 31q-21 51 -56.5 114.5t-70.5 127.5q-33 63 -57.5 121t-24.5 100q0 54 23 106
q-33 -22 -51 -90q-15 -57 -19 -117.5t-9 -122t-23 -120.5t-60 -112q-39 -48 -98.5 -76.5t-128.5 -28.5zM251 -48q63 0 117 34.5t98 108.5q26 43 41 96.5t25 111.5t19.5 115t23.5 106q17 61 48 85q-79 21 -142.5 36.5t-119.5 15.5q-92 0 -164.5 -28.5t-114 -85t-41.5 -139.5
q0 -63 33 -113q49 55 125 55q55 0 96 -29.5t57 -81.5q89 62 89 162q0 41 -17.5 73.5t-48 52t-70.5 19.5q-47 0 -82 -28.5t-35 -74.5q0 -42 34 -61q9 0 9 -5q0 -2 -5 -4q-4 0 -14 5q-37 22 -37 70q0 52 36 84t88 32q71 0 114.5 -42t43.5 -113q0 -122 -101 -188
q1 -9 1.5 -15.5t0.5 -11.5q0 -50 -28 -85q-30 -39 -77 -39q-13 0 -22.5 2t-9.5 6q0 6 6 6q2 0 7 -0.5t12 -0.5q42 0 69 31t27 74q0 8 -0.5 14t-1.5 10q-22 -12 -47.5 -18t-57.5 -6q-95 0 -160 68q-27 -45 -27 -99q0 -61 25 -107.5t71 -72t107 -25.5zM714 597q13 0 22 4.5
t9 12.5q0 10 -9.5 14.5t-21.5 4.5q-35 0 -51 -25l32 -8t19 -3zM235 204q52 0 101 27q-12 47 -47 76t-83 29q-70 0 -118 -60q63 -72 147 -72zM837 701q-15 0 -15 3q0 1 14.5 13t34.5 27.5t37 27t21 11.5q6 0 16 -5t10 -12z" />
    <glyph glyph-name="nacute" unicode="&#x144;" horiz-adv-x="297" 
d="M2 -24q-1 2 0 6l32 364q4 -1 10 -1q25 0 39 19q2 3 4 3q5 0 3 -6q-2 -8 -8 -40t-16 -94q14 59 41 95t64 36q32 0 43.5 -22t11.5 -55q0 -28 -5.5 -60t-10.5 -63q-5 -33 -9.5 -63t-4.5 -53q0 -19 5 -31t18 -12q18 0 38 27t36 67.5t22 78.5q1 3 2 7t5 4q5 0 5.5 -3.5
t-0.5 -7.5q-4 -29 -14 -61.5t-25.5 -61t-34.5 -46t-41 -17.5q-34 0 -47 21t-13 60t9 91q8 40 15 76.5t7 62.5q0 21 -6.5 33t-23.5 12q-16 0 -30.5 -19t-26.5 -47t-20.5 -56.5t-11.5 -46.5q-7 -36 -11.5 -85.5t-7.5 -86.5q-26 3 -33 -19q-1 -4 -5 -6q-3 -2 -5 0zM159 421
q-15 0 -15 3q0 1 14.5 13t34.5 27.5t37 27t21 11.5q6 0 16 -5t10 -12z" />
    <glyph glyph-name="uni0145" unicode="&#x145;" horiz-adv-x="976" 
d="M248 -63q-62 0 -114 28.5t-82.5 77.5t-30.5 111q0 68 37 121q-46 58 -46 142q0 87 44 148t119 92.5t168 31.5q44 0 86.5 -9.5t91 -26t111.5 -38.5q16 16 40 21.5t43 5.5t31 -6.5t12 -20.5q0 -12 -11 -20t-31 -8q-12 0 -27.5 3.5t-31.5 7.5q-5 -13 -5 -31q0 -44 12 -81
t32.5 -76t47.5 -90q30 -53 54.5 -103t39.5 -91t15 -69q0 -41 -14 -69q23 14 36.5 48.5t19.5 105t6 192.5q0 63 4.5 122.5t18 107t41.5 76t76 28.5q38 0 61.5 -26.5t23.5 -69.5q0 -21 -4 -41.5t-15 -37.5q-24 -38 -74 -38q-13 0 -13 6q0 5 13 5q20 0 36.5 8.5t26.5 25.5
q16 28 16 71q0 34 -18.5 60t-53.5 26q-36 0 -59.5 -28.5t-37 -76t-18.5 -104t-5 -113.5q0 -97 -4 -169t-20 -119t-54 -71q-1 -1 -7 -1q-4 0 -8.5 1t-4.5 2q3 2 5 10.5t2 15.5q0 15 -6 31q-21 51 -56.5 114.5t-70.5 127.5q-33 63 -57.5 121t-24.5 100q0 54 23 106
q-33 -22 -51 -90q-15 -57 -19 -117.5t-9 -122t-23 -120.5t-60 -112q-39 -48 -98.5 -76.5t-128.5 -28.5zM251 -48q63 0 117 34.5t98 108.5q26 43 41 96.5t25 111.5t19.5 115t23.5 106q17 61 48 85q-79 21 -142.5 36.5t-119.5 15.5q-92 0 -164.5 -28.5t-114 -85t-41.5 -139.5
q0 -63 33 -113q49 55 125 55q55 0 96 -29.5t57 -81.5q89 62 89 162q0 41 -17.5 73.5t-48 52t-70.5 19.5q-47 0 -82 -28.5t-35 -74.5q0 -42 34 -61q9 0 9 -5q0 -2 -5 -4q-4 0 -14 5q-37 22 -37 70q0 52 36 84t88 32q71 0 114.5 -42t43.5 -113q0 -122 -101 -188
q1 -9 1.5 -15.5t0.5 -11.5q0 -50 -28 -85q-30 -39 -77 -39q-13 0 -22.5 2t-9.5 6q0 6 6 6q2 0 7 -0.5t12 -0.5q42 0 69 31t27 74q0 8 -0.5 14t-1.5 10q-22 -12 -47.5 -18t-57.5 -6q-95 0 -160 68q-27 -45 -27 -99q0 -61 25 -107.5t71 -72t107 -25.5zM714 597q13 0 22 4.5
t9 12.5q0 10 -9.5 14.5t-21.5 4.5q-35 0 -51 -25l32 -8t19 -3zM235 204q52 0 101 27q-12 47 -47 76t-83 29q-70 0 -118 -60q63 -72 147 -72zM585 -209l-3 11q32 12 43.5 35t14.5 38q-6 -6 -16 -6t-18.5 7t-8.5 21t9 23t22 9q11 0 21 -7.5t10 -25.5q0 -14 -6 -35.5t-22 -41
t-46 -28.5z" />
    <glyph glyph-name="uni0146" unicode="&#x146;" horiz-adv-x="297" 
d="M2 -24q-1 2 0 6l32 364q4 -1 10 -1q25 0 39 19q2 3 4 3q5 0 3 -6q-2 -8 -8 -40t-16 -94q14 59 41 95t64 36q32 0 43.5 -22t11.5 -55q0 -28 -5.5 -60t-10.5 -63q-5 -33 -9.5 -63t-4.5 -53q0 -19 5 -31t18 -12q18 0 38 27t36 67.5t22 78.5q1 3 2 7t5 4q5 0 5.5 -3.5
t-0.5 -7.5q-4 -29 -14 -61.5t-25.5 -61t-34.5 -46t-41 -17.5q-34 0 -47 21t-13 60t9 91q8 40 15 76.5t7 62.5q0 21 -6.5 33t-23.5 12q-16 0 -30.5 -19t-26.5 -47t-20.5 -56.5t-11.5 -46.5q-7 -36 -11.5 -85.5t-7.5 -86.5q-26 3 -33 -19q-1 -4 -5 -6q-3 -2 -5 0zM56 -209
l-3 11q32 12 43.5 35t14.5 38q-6 -6 -16 -6t-18.5 7t-8.5 21t9 23t22 9q11 0 21 -7.5t10 -25.5q0 -14 -6 -35.5t-22 -41t-46 -28.5z" />
    <glyph glyph-name="Ncaron" unicode="&#x147;" horiz-adv-x="976" 
d="M248 -63q-62 0 -114 28.5t-82.5 77.5t-30.5 111q0 68 37 121q-46 58 -46 142q0 87 44 148t119 92.5t168 31.5q44 0 86.5 -9.5t91 -26t111.5 -38.5q16 16 40 21.5t43 5.5t31 -6.5t12 -20.5q0 -12 -11 -20t-31 -8q-12 0 -27.5 3.5t-31.5 7.5q-5 -13 -5 -31q0 -44 12 -81
t32.5 -76t47.5 -90q30 -53 54.5 -103t39.5 -91t15 -69q0 -41 -14 -69q23 14 36.5 48.5t19.5 105t6 192.5q0 63 4.5 122.5t18 107t41.5 76t76 28.5q38 0 61.5 -26.5t23.5 -69.5q0 -21 -4 -41.5t-15 -37.5q-24 -38 -74 -38q-13 0 -13 6q0 5 13 5q20 0 36.5 8.5t26.5 25.5
q16 28 16 71q0 34 -18.5 60t-53.5 26q-36 0 -59.5 -28.5t-37 -76t-18.5 -104t-5 -113.5q0 -97 -4 -169t-20 -119t-54 -71q-1 -1 -7 -1q-4 0 -8.5 1t-4.5 2q3 2 5 10.5t2 15.5q0 15 -6 31q-21 51 -56.5 114.5t-70.5 127.5q-33 63 -57.5 121t-24.5 100q0 54 23 106
q-33 -22 -51 -90q-15 -57 -19 -117.5t-9 -122t-23 -120.5t-60 -112q-39 -48 -98.5 -76.5t-128.5 -28.5zM251 -48q63 0 117 34.5t98 108.5q26 43 41 96.5t25 111.5t19.5 115t23.5 106q17 61 48 85q-79 21 -142.5 36.5t-119.5 15.5q-92 0 -164.5 -28.5t-114 -85t-41.5 -139.5
q0 -63 33 -113q49 55 125 55q55 0 96 -29.5t57 -81.5q89 62 89 162q0 41 -17.5 73.5t-48 52t-70.5 19.5q-47 0 -82 -28.5t-35 -74.5q0 -42 34 -61q9 0 9 -5q0 -2 -5 -4q-4 0 -14 5q-37 22 -37 70q0 52 36 84t88 32q71 0 114.5 -42t43.5 -113q0 -122 -101 -188
q1 -9 1.5 -15.5t0.5 -11.5q0 -50 -28 -85q-30 -39 -77 -39q-13 0 -22.5 2t-9.5 6q0 6 6 6q2 0 7 -0.5t12 -0.5q42 0 69 31t27 74q0 8 -0.5 14t-1.5 10q-22 -12 -47.5 -18t-57.5 -6q-95 0 -160 68q-27 -45 -27 -99q0 -61 25 -107.5t71 -72t107 -25.5zM714 597q13 0 22 4.5
t9 12.5q0 10 -9.5 14.5t-21.5 4.5q-35 0 -51 -25l32 -8t19 -3zM235 204q52 0 101 27q-12 47 -47 76t-83 29q-70 0 -118 -60q63 -72 147 -72zM837 697q-3 0 -6 3q-5 5 -16.5 17t-24 26t-21 24.5t-8.5 11.5q2 3 8 3l82 -47l89 47h21l-116 -82q-4 -3 -8 -3z" />
    </font>
</defs>
</svg>
