<?xml version="1.0" standalone="no"?>
<!DOCTYPE svg PUBLIC "-//W3C//DTD SVG 1.1//EN" "http://www.w3.org/Graphics/SVG/1.1/DTD/svg11.dtd" >
<svg xmlns="http://www.w3.org/2000/svg" xmlns:xlink="http://www.w3.org/1999/xlink" version="1.1">
<metadata>
Created by FontForge 20170731 at Wed May 18 16:36:13 2022
 By Aleksey,,,
1.2, Copyright Copr. Castcraft Software, Inc. 1990.
</metadata>
<defs>
<font id="OPTICopperplate-Light" horiz-adv-x="1824" >
  <font-face 
    font-family="OPTICopperplate-Light"
    font-weight="500"
    font-stretch="normal"
    units-per-em="2048"
    panose-1="0 0 0 0 0 0 0 0 0 0"
    ascent="1638"
    descent="-410"
    x-height="1362"
    cap-height="1622"
    bbox="-74 -571 2548 2495.05"
    underline-thickness="122"
    underline-position="-347"
    unicode-range="U+0020-222B"
  />
<missing-glyph horiz-adv-x="573" 
 />
    <glyph glyph-name=".notdef" horiz-adv-x="573" 
 />
    <glyph glyph-name=".null" horiz-adv-x="0" 
 />
    <glyph glyph-name="nonmarkingreturn" horiz-adv-x="682" 
 />
    <glyph glyph-name="space" unicode=" " horiz-adv-x="792" 
d="M0 0z" />
    <glyph glyph-name="exclam" unicode="!" horiz-adv-x="598" 
d="M119 1610l2 22h311l-2 -24q-15 0 -22.5 -6t-16.5 -25q0 -5 -1 -23t-1 -26l-53 -985q0 -1 -2 -14.5t-2.5 -23t2.5 -18.5q0 -10 12 -28l14 -6l13 -2v-23h-191v23q4 1 12 3.5t10 3t6 4t6.5 9t6.5 14.5q2 12 -4 56l-53 979q0 49 -2 53q-4 20 -14 26q-6 3 -10.5 3.5t-6 0.5
t-5 1.5t-9.5 5.5zM164 115q9 36 35 63t59 33q68 8 109 -39q42 -49 22 -109q-16 -64 -84 -83q-63 -15 -104 26q-49 45 -37 109z" />
    <glyph glyph-name="quotedbl" unicode="&#x22;" horiz-adv-x="731" 
d="M246 1386l-39 -389h-35l-39 396q0 4 -3.5 29t-5.5 44.5t-2.5 49t2 50.5t10.5 40.5t22 27.5t34.5 8.5t34.5 -8.5q15 -10 23 -33.5t8.5 -58.5t-0.5 -58t-5.5 -60t-4.5 -38zM553 1386l-35 -389h-39l-39 396q0 3 -4.5 49t-5.5 76.5t7 67t28 48.5q34 20 67 0q8 -5 14 -15
t10 -20.5t6 -26t3 -28.5t0.5 -31.5t-1.5 -30.5l-2.5 -30t-3 -26t-3.5 -23t-2 -17z" />
    <glyph glyph-name="numbersign" unicode="#" horiz-adv-x="1861" 
d="M795 918l-136 -388h363l133 388h-360zM940 -90h-127l172 528h-362l-187 -530h-131l180 528h-366l31 92h364l139 390h-366l30 100h373l189 530h129l-174 -530h356l184 532h131l-172 -532h361l-31 -98h-369l-133 -390h365l-29 -92h-373z" />
    <glyph glyph-name="dollar" unicode="$" horiz-adv-x="1826" 
d="M870 1638v136h146v-142q133 -1 254.5 -32t271.5 -99l51 -14l37 35l23 -17l-135 -313l-31 12q11 43 5.5 61.5t-52.5 51.5q-65 47 -194 83.5t-236 39.5v-525q182 -23 275 -49q280 -81 347 -274q17 -49 20 -104.5t-8 -114t-43 -117.5t-81 -106q-173 -171 -504 -183v-250
h-137v254q-187 4 -330 47q-82 19 -162 64q-25 12 -45 23t-26.5 15t-18.5 9t-26.5 9.5t-45.5 13.5l-26 -23l-17 10l137 299l21 -8q0 -10 -2 -22t-1 -16.5t7 -13t21 -22.5q13 -22 75 -61q64 -43 154 -80q133 -41 280 -51v543h-63q-11 2 -34 5q-47 6 -73.5 10.5t-77.5 15.5
t-84 23.5t-78 34.5t-77 49t-64 66.5t-53 87.5q-23 55 -29 118t11 134t57 131q50 72 123 124t153.5 78t148 38t136.5 16zM870 1440q-294 -11 -389 -168q-26 -47 -29 -95t17 -83q63 -133 401 -166v512zM1016 684v-524q299 31 385 174q27 44 31 97.5t-17 94.5q-71 135 -399 158
z" />
    <glyph glyph-name="percent" unicode="%" horiz-adv-x="2021" 
d="M387 1614q54 20 113 24q90 3 184 -38t160 -134q56 -80 65.5 -183.5t-28.5 -192.5q-41 -101 -116 -163t-175 -81q-92 -17 -190 11.5t-173 107.5q-71 76 -96 178.5t0 191.5q24 98 88 171t168 108zM418 -23l1007 1665h125l-1007 -1665h-125zM1184 680q66 63 149 92
q71 30 176 15.5t185 -74.5q88 -63 127.5 -152t36.5 -180q-3 -60 -21.5 -116.5t-61.5 -115t-106 -98.5q-81 -52 -178.5 -58.5t-185.5 30.5q-193 85 -234 294q-17 92 8 187.5t105 175.5zM406 1464q-80 -39 -114 -105.5t-26 -137.5q6 -68 43.5 -123.5t100.5 -87.5
q52 -25 115.5 -22.5t115.5 34.5q64 39 94.5 102t30.5 123q0 62 -30.5 117t-92.5 92q-55 33 -119.5 34.5t-117.5 -26.5zM1368 625q-58 -20 -106 -82q-40 -50 -48.5 -116t9.5 -110q18 -61 62.5 -104t103.5 -61q55 -18 115.5 -8.5t105.5 42.5q57 46 81 105.5t21 116.5
q-6 122 -121 198q-51 34 -112.5 38t-110.5 -19z" />
    <glyph glyph-name="ampersand" unicode="&#x26;" horiz-adv-x="1957" 
d="M1337 1190q-15 -91 -57.5 -144.5t-157.5 -125.5q92 -74 121.5 -111t89.5 -150q51 86 94 145.5t98.5 117t122 96t146.5 61.5v-323h-27q0 24 -24 37q-21 0 -49 -11q-62 -28 -145.5 -146t-92.5 -165q-6 -28 41 -103t86 -112q51 -43 98 -53q38 -8 50 -2q24 0 36 35h27v-234
q-107 -14 -186.5 -4.5t-150 66t-154.5 180.5q-98 -104 -189.5 -168t-174.5 -90t-170 -29t-177 14q-312 51 -428 301q-46 95 -42 218.5t62 224.5q53 91 128.5 151t179.5 111q-97 89 -128.5 174t-7.5 182q23 104 97 176.5t188 110.5q75 25 174 28t210 -26t185 -92
q85 -71 113.5 -162t13.5 -178zM702 1440q-79 -37 -112 -101t-19 -135q22 -111 142 -157q62 -27 160 -21t157 47q102 74 94 178q-3 116 -114 179q-57 34 -153 37.5t-155 -27.5zM633 805q-79 -15 -127 -49q-78 -50 -115 -124t-37 -147q-7 -161 146 -260q97 -64 222.5 -72
t223.5 37q92 39 154.5 102.5t79.5 139.5q8 53 -38.5 138.5t-101.5 136.5q-41 39 -97.5 65t-113 34.5t-107 8t-89.5 -9.5z" />
    <glyph glyph-name="quotesingle" unicode="'" horiz-adv-x="569" 
d="M369 1337q-35 -70 -96.5 -118t-153.5 -86v53q99 52 145 110q32 46 39 76q0 1 3 9.5t3.5 15t0.5 16t-6 16.5t-17 11q-52 -2 -80.5 5t-46.5 36q-29 46 0 106q32 59 98 62q77 0 121 -66q26 -45 22.5 -118.5t-32.5 -127.5z" />
    <glyph glyph-name="parenleft" unicode="(" horiz-adv-x="866" 
d="M563 1587q13 9 25 16.5t19 11.5t20 9.5t17.5 7.5t22 8.5t23.5 8.5v-29q-93 -73 -163.5 -164.5t-111 -191.5t-65.5 -196t-32.5 -202t-7.5 -182.5t5 -163.5q4 -76 16 -150.5t40 -166t69 -171t108.5 -157t153.5 -131.5v-31q-123 41 -226 127t-171.5 194.5t-111.5 223.5
t-60 229q-10 66 -11 140t8 159t28.5 169.5t54.5 173t82.5 168t116 155.5t151.5 135z" />
    <glyph glyph-name="parenright" unicode=")" horiz-adv-x="868" 
d="M119 1622v27q355 -118 514 -555q52 -146 64.5 -315.5t-24 -351t-122.5 -327.5q-72 -120 -181.5 -225t-236.5 -162v33q83 65 148 149t105.5 167.5t68 181t39.5 180.5t15.5 174t1 154t-8.5 129q-6 74 -18.5 144.5t-41 157.5t-68.5 162t-106 149.5t-149 127.5z" />
    <glyph glyph-name="asterisk" unicode="*" horiz-adv-x="1140" 
d="M508 1296l-51 353h166l-39 -353l20 -14h8l316 162l49 -164l-348 -68l-8 -22l251 -262l-131 -105l-159 285q-1 1 -7 10.5t-12.5 16t-13.5 6.5l-180 -322l-136 96l244 269l-6 18l-352 64l41 170l332 -154z" />
    <glyph glyph-name="plus" unicode="+" horiz-adv-x="1607" 
d="M725 715v620h109v-620h606v-103h-604v-612h-103v612h-614v103h606z" />
    <glyph glyph-name="comma" unicode="," horiz-adv-x="567" 
d="M373 -109q-33 -70 -99 -126.5t-153 -92.5v60q33 17 49 27t43.5 33t50.5 52q29 43 39 74q0 1 4.5 17.5t2 31.5t-16.5 25q-42 -8 -75 -0.5t-56 41.5q-31 51 -2 108q29 63 98 66q75 4 119 -57q26 -43 23.5 -124t-27.5 -135z" />
    <glyph glyph-name="hyphen" unicode="-" horiz-adv-x="833" 
d="M119 633v155h549v-155h-549z" />
    <glyph glyph-name="period" unicode="." horiz-adv-x="514" 
d="M119 74q-6 39 14 76t64 53q57 17 100 -17q54 -36 51 -98q0 -63 -59 -98q-47 -29 -103 -8q-61 33 -67 92z" />
    <glyph glyph-name="slash" unicode="/" horiz-adv-x="940" 
d="M119 -39l532 1688h125l-530 -1688h-127z" />
    <glyph glyph-name="zero" unicode="0" 
d="M573 1571q124 62 244 76q44 8 102 5t118.5 -11t128 -30t130 -52t125 -78t113.5 -107q99 -115 146 -272.5t44 -301.5t-41 -272q-119 -408 -518 -530q-74 -23 -167.5 -28t-195 8.5t-205.5 55.5t-185 109q-73 62 -129 140t-88.5 156.5t-53 163t-22 159t3.5 145.5
q9 77 28 148t54 146t84 139.5t121.5 125t162.5 105.5zM780 1444q-56 -12 -116 -43.5t-105 -73.5q-60 -52 -103.5 -119t-64.5 -133t-33.5 -136t-10 -128.5t6.5 -110.5q34 -334 299 -473q127 -66 269.5 -66.5t261.5 62.5q274 143 313 500q10 56 2 138.5t-27 163t-66 164.5
t-114 144q-57 49 -127.5 80t-139 40.5t-130.5 7t-115 -16.5z" />
    <glyph glyph-name="one" unicode="1" 
d="M803 1608v22h336v-22q-10 -5 -24 -5.5t-21.5 -6.5t-16.5 -27q-2 -8 -2 -76v-1362v-10q0 -49 10 -63.5t62 -34.5v-23h-373v27q18 4 29 7t21 5t14.5 7.5t8.5 8t4.5 13t1 15t0 22t-0.5 26.5v1161l-115 -30l-10 -2l-16 -7q-3 -1 -12 -2t-17 -6q-11 -5 -17 -11.5t-10 -19.5
l-4 -14l-22 2v303h26q0 -33 37 -47q24 -7 66 2q33 11 62 32.5t36 49.5q5 11 3 20.5t-3 14t-8 9.5t-12 7t-15.5 6.5t-17.5 8.5z" />
    <glyph glyph-name="two" unicode="2" 
d="M856 520q-57 -28 -99.5 -53t-96 -65t-98 -92t-75.5 -115h1018q1 0 17 -1.5t29.5 -1t19.5 4.5q17 6 22.5 12.5t7.5 20.5t7 24h22v-313h-28q0 16 -1 23t-8 14.5t-22 13.5q-16 8 -60 8h-1300q24 234 147.5 383t382.5 283l195 102q38 20 61 32t65.5 37t70.5 45.5t63.5 52
t58 61t40.5 67t24 76.5q8 60 -9 121.5t-65 105.5q-47 42 -125 64.5t-146 22t-126 -8.5q-119 -23 -238 -109q-74 -54 -118 -102q-31 -31 -41 -59q-10 -43 2 -62l-21 -14l-178 237l20 21l23 -15l59 33q247 200 469 253t441 -40q282 -127 282 -413q0 -63 -14 -119t-37 -100.5
t-61 -86.5t-76 -74t-93 -66t-102 -58.5t-112 -55.5z" />
    <glyph glyph-name="three" unicode="3" 
d="M1436 907q-41 -30 -72 -43q138 -62 212.5 -146t84.5 -212q8 -114 -42.5 -225t-174.5 -193q-125 -83 -312 -108.5t-377.5 7t-340.5 111.5q-13 6 -52 25q-4 5 -13.5 9.5t-12.5 6.5l-12 4l-13 13q-41 24 -53 26q-8 7 -20.5 5.5t-30.5 -21.5l-21 16l170 283l17 -14
q-1 -1 -3 -8.5t-3 -17.5t2 -19q3 -19 34 -50q18 -24 95 -69q178 -107 396.5 -127.5t365.5 53.5q91 46 130.5 98.5t45.5 137.5q12 144 -101 231q-98 71 -297 84q-74 2 -149 2q-68 0 -76 -2q-16 0 -25.5 -5t-12 -8.5t-6 -19t-5.5 -20.5l-27 2v297h31q0 -16 1 -23.5t8.5 -15.5
t23.5 -15q20 -8 67 -8q51 -3 131 2q292 15 357 160q19 34 14.5 99t-37.5 108q-34 44 -100.5 74t-133 39.5t-132 13.5t-97.5 -4q-124 -15 -233 -78q-85 -54 -119 -86q-35 -30 -49 -55q-8 -13 -10.5 -20t-1 -10t6.5 -12t9 -20l-27 -20l-192 235l25 21q27 -20 38.5 -18t47.5 30
q18 13 34 27t27 22t27 17q78 58 168 98q102 44 241.5 59t284.5 -8t242 -84q203 -133 206 -342q3 -180 -159 -289z" />
    <glyph glyph-name="four" unicode="4" 
d="M1174 1362l-736 -844h736v844zM1386 518h175q55 2 67 8q16 10 31 63q1 2 2 5l22 -4v-346h-26q-3 8 -4 20t-6.5 20.5t-22.5 18.5q-9 6 -63 6h-134h-43v-73v-60v-63q0 -50 5 -62q5 -9 9.5 -15t7 -9.5t7.5 -5t6.5 -2t9 0t9.5 0.5v-20h-326l4 23q4 1 14 2t19 4t14 10
q7 7 10.5 11.5t5 10t2 8t0 10t-0.5 11.5v223h-924h-61q-16 -8 -20.5 -16t-5 -21.5t-3.5 -23.5h-25v207l901 1040q4 5 19 21t24.5 28.5t8.5 20.5q0 10 -7.5 17t-14.5 9t-21.5 4.5t-16.5 2.5l6 26h402v-29q-5 -1 -16 -2.5t-16 -3t-12 -8.5t-12 -20v-68v-979z" />
    <glyph glyph-name="five" unicode="5" 
d="M1434 1628h21t17.5 -0.5t13.5 0.5t11.5 2.5t8.5 5t8.5 8t7 12t8 16.5t8.5 22l18 -2v-336h-26q-2 7 -3 18.5t-5.5 20t-18.5 18.5q-8 5 -18.5 6.5t-27.5 0.5t-19 -1h-922v-432q101 49 215.5 79t235.5 37.5t241 -20.5t215 -92q66 -45 113 -109.5t70.5 -132.5t32 -131
t3.5 -120q-10 -148 -89.5 -269.5t-241.5 -199.5q-125 -59 -250 -77.5t-249.5 3.5t-243 70t-253.5 127q-42 24 -61 24q-14 0 -20 -3.5t-14.5 -13t-20.5 -16.5l-31 21l205 282l26 -18q-4 -15 -11 -24t-6.5 -11t5.5 -24q3 -9 8 -16t9 -11t14 -12.5t16 -14.5q64 -59 147.5 -98
t170.5 -55t172.5 -15t162.5 19q109 28 194 90t122 164q16 48 19 105.5t-14 125t-56 117.5q-131 165 -461 139q-136 -16 -203 -41q-40 -13 -100 -53q-5 -4 -17 -11.5t-20 -15t-14 -18.5q-27 -24 -7 -53l-22 -23l-287 260l21 21l34 -15q4 4 7 7.5t5 7t3 5.5t1.5 6.5t0.5 6v8
v9.5v512l2 57q-4 13 -8.5 17t-18.5 6.5t-26 7.5v20h1192z" />
    <glyph glyph-name="six" unicode="6" 
d="M1511 1497q9 -4 13.5 -4t7 1t11.5 9t18 15l18 -19l-137 -289l-29 17q2 8 6 19.5t3.5 13t-3.5 14.5q-1 1 -3.5 6t-5.5 10t-10.5 14t-17.5 19q-33 33 -100 66q-79 39 -182 53.5t-214.5 -3.5t-193.5 -71q-73 -47 -125 -114t-79 -141.5t-38.5 -141t-13.5 -137.5
q86 88 176 142t181.5 74t175.5 19t182 -18q67 -12 128.5 -33.5t122.5 -57.5t111 -91.5t82 -125.5q48 -108 35.5 -249.5t-82.5 -249.5q-49 -77 -121.5 -134.5t-152 -88.5t-151.5 -45.5t-140 -16.5q-81 -2 -162 13t-167.5 49t-169 99.5t-146.5 155.5q-84 120 -116 286
t-17.5 317.5t61.5 273.5q150 387 539 477q112 23 192 22.5t185 -22.5q94 -24 188 -63q40 -18 94 -47zM844 864q-17 -3 -45 -10.5t-35 -9.5q-101 -35 -168 -100.5t-90 -157.5q-19 -76 5 -157.5t97 -152.5q50 -48 118.5 -77.5t139 -37.5t134.5 -4.5t118 17.5q111 28 182.5 85
t102.5 157q12 50 13 103t-18.5 111t-56.5 101q-35 40 -88 69t-107.5 43.5t-113 21.5t-105.5 6t-83 -7z" />
    <glyph glyph-name="seven" unicode="7" 
d="M205 1366v336l22 -2q2 -8 2.5 -19t1 -17.5t6 -15t17.5 -16.5q4 -3 14.5 -4t20 -1t22 0.5t15.5 0.5h1173q64 0 72 6q18 11 23.5 18t8.5 22t7 26l22 -2v-80q-3 -64 0 -94t-0.5 -55t-17.5 -56t-51 -96l-695 -1217q0 -1 -5.5 -8t-10 -20t-4.5 -31l37 -21v-20h-336v23
q12 6 24 10.5t17 7.5t9 4t7.5 6.5t6 9.5t10 17.5t14.5 25.5l747 1330h-1058q-60 0 -68 -4q-21 -12 -26 -20t-3 -17t-4 -27h-20z" />
    <glyph glyph-name="eight" unicode="8" 
d="M1532 969q-9 -12 -20 -23.5t-20 -19.5t-23.5 -18t-21.5 -15t-25.5 -14.5t-23.5 -12.5t-26.5 -13.5t-25.5 -12.5q74 -28 118.5 -50t87 -56t68 -81t41.5 -114q19 -88 -5 -193t-100 -182q-70 -72 -198 -119.5t-263 -63t-254 -15.5t-196 14q-60 11 -119.5 32.5t-124.5 56
t-117.5 90t-80.5 124.5q-23 55 -30.5 117.5t7 130.5t51.5 122q25 35 58.5 65.5t73.5 53.5t69 37t70 31q-119 56 -179.5 124t-74.5 175q-12 82 22 178.5t117 167.5q79 69 192.5 109t230.5 47t224 -3.5t197 -35.5q63 -17 113.5 -38.5t100 -54.5t85.5 -82t57 -112
q14 -45 16 -104.5t-15.5 -128t-55.5 -113.5zM727 1438q-92 -16 -155.5 -52.5t-94.5 -113.5q-22 -46 -15 -111.5t42 -109.5q44 -54 129.5 -84t183 -34t173 0t134.5 13q198 25 250 166q21 56 10.5 117.5t-47.5 107.5q-42 51 -126 79.5t-179.5 33t-171.5 1t-133 -12.5zM651 715
q-35 -6 -98 -33q-148 -70 -164 -211q-13 -132 105 -225q79 -61 231.5 -83t294.5 -8.5t231 46.5q84 31 129 78t60 122q27 134 -74 230q-53 50 -165 76.5t-226.5 27t-203 -5.5t-120.5 -14z" />
    <glyph glyph-name="nine" unicode="9" 
d="M356 94q-30 22 -38 22q-11 0 -37 -26l-21 10l141 287l23 -10q-8 -17 -8 -28.5t12 -31.5q7 -9 59 -53q51 -43 121 -69q74 -30 173.5 -37.5t205.5 14.5t178 74q230 165 248 522q-94 -85 -195 -139.5t-201.5 -77t-198.5 -20t-197 27.5q-143 36 -242.5 118t-149.5 228
q-21 72 -22.5 153.5t28 173t84.5 161.5q51 64 113.5 112t127 75t136 43t140 16t137.5 -5q404 -36 590 -387q54 -107 71.5 -270.5t-10 -336.5t-96.5 -294q-58 -103 -130.5 -177.5t-156 -118t-169.5 -65.5t-187 -28q-159 -8 -303 35q-86 23 -150 59q-67 40 -76 43zM727 1434
q-125 -30 -207 -117q-64 -68 -82.5 -152.5t-3.5 -158.5q14 -78 68.5 -138t132.5 -96q98 -47 267 -39.5t276 66.5q153 89 170 252q8 72 -20.5 151t-90.5 133q-45 39 -117 65t-145 35t-139 9t-109 -10z" />
    <glyph glyph-name="colon" unicode=":" horiz-adv-x="518" 
d="M129 866q-11 39 6 79t62 61q46 21 98 -9q53 -34 59 -100q0 -63 -51 -100q-44 -32 -100 -15q-59 20 -74 84zM121 113q19 61 74 84q58 22 108 -17q57 -47 45 -110q-3 -30 -24 -56t-56 -37q-57 -22 -108 23q-25 22 -35.5 52.5t-3.5 60.5z" />
    <glyph glyph-name="semicolon" unicode=";" horiz-adv-x="567" 
d="M150 879q-8 39 11 76t64 53q18 9 49 5.5t54 -22.5q54 -38 51 -102q-4 -60 -62 -94q-53 -30 -102 -9q-24 10 -42.5 34t-22.5 59zM381 -92q-30 -74 -98 -136t-164 -100v62q178 89 186 203q8 39 -18 53q-10 0 -30 -2t-30 -2q-40 10 -61 34q-16 20 -19.5 48.5t7.5 60.5
q10 27 35 48.5t59 25.5q76 11 121 -49q30 -40 31.5 -121.5t-19.5 -124.5z" />
    <glyph glyph-name="less" unicode="&#x3c;" horiz-adv-x="1691" 
d="M119 711l1409 569v-104l-1260 -510l1258 -510v-107l-1407 572v90z" />
    <glyph glyph-name="equal" unicode="=" horiz-adv-x="1611" 
d="M121 813v105h1327v-105h-1327zM121 418v102h1327v-102h-1327z" />
    <glyph glyph-name="greater" unicode="&#x3e;" horiz-adv-x="1691" 
d="M123 1174v108l1405 -571v-97l-1409 -563v105l1259 506z" />
    <glyph glyph-name="question" unicode="?" horiz-adv-x="1259" 
d="M705 494q0 -16 4.5 -25.5t9 -12.5t19 -7.5t22.5 -8.5l-4 -22h-279l2 31h5q13 0 18.5 1t12.5 8t11 21q6 18 6 62q2 12 5 35t6.5 43.5t7.5 39.5q20 67 48.5 119.5t90.5 118.5l35 39q108 116 134 154q53 76 44 155q-4 28 -14 62q-36 124 -162 153q-42 11 -86 12t-94 -9
t-102.5 -39.5t-98.5 -75.5q-38 -36 -43 -54q-9 -29 10 -55l-18 -12l-176 198l16 13l21 -11h8q197 160 340.5 202.5t312.5 -9.5q112 -35 176 -97.5t90 -170.5q35 -145 -8 -247.5t-207 -266.5l-43 -43q-149 -162 -120 -301zM502 72q-5 38 12.5 72.5t54.5 52.5q55 24 105 -7
q56 -37 59 -98q0 -63 -53 -100q-52 -35 -107 -12q-26 13 -46.5 38t-24.5 54z" />
    <glyph glyph-name="at" unicode="@" horiz-adv-x="2191" 
d="M1458 172q-64 9 -106.5 42.5t-83.5 107.5q-195 -195 -389 -146q-161 38 -224 219q-40 112 -2 284t133 292q182 227 400 209q95 -10 144.5 -52.5t86.5 -142.5l47 168h129l-135 -469q-1 -5 -10 -34t-13.5 -44t-12.5 -47t-11 -53t-5 -50.5t0.5 -50.5t10.5 -42.5t21 -36.5
q57 -60 153 -43q109 21 182.5 99t122.5 204q28 69 40.5 153t8 174t-34.5 181.5t-83 165.5q-65 91 -158.5 155t-194 94t-191 41t-175.5 6q-100 -5 -203.5 -36.5t-206 -89t-195.5 -150t-157 -209.5q-102 -187 -107 -446.5t95 -444.5q57 -105 141.5 -186t181.5 -130t194 -75.5
t196 -32.5q215 -12 402 42t411 194l45 -53q-174 -129 -391.5 -197.5t-427 -67t-375.5 67.5q-481 190 -572 684q-16 87 -18 178t14.5 192.5t52 197t99.5 192t151 176.5q108 98 239.5 162.5t263.5 89.5t260 21t243 -36q228 -63 359 -180t194 -329q23 -80 28 -176t-9 -197.5
t-57.5 -202t-111.5 -176.5q-93 -107 -187 -146.5t-202 -19.5zM1092 1087q-66 -22 -127 -81q-102 -99 -160.5 -267t-40.5 -278q18 -130 125 -180q50 -23 109.5 -20t101.5 28q59 34 109 107t80 156t47.5 153t21.5 118q4 59 -15.5 126.5t-66.5 103.5q-39 32 -94 39.5t-90 -5.5z
" />
    <glyph glyph-name="A" unicode="A" horiz-adv-x="2091" 
d="M997 1444l-346 -805h690zM848 1571q2 13 -7 20t-44 8v23h59h365v-23q-18 -6 -23.5 -8t-13 -7t-9 -11t-1.5 -17q0 -4 11.5 -31t14.5 -32l633 -1382q19 -50 31 -62q26 -26 55 -26l8 -23h-371v20q2 1 17 4.5t20.5 10.5t5.5 24q-4 9 -11 30t-11 30l-51 123l-92 211h-867
l-88 -205l-51 -119q-6 -12 -14 -36t-8 -25q5 -15 8 -20.5t5 -7.5t12.5 -4.5t19.5 -6.5v-29h-332v29q23 5 33.5 8.5t19.5 5.5t13.5 10t8 12t10 21.5t11.5 28.5l610 1403q21 37 23 53z" />
    <glyph glyph-name="B" unicode="B" horiz-adv-x="1892" 
d="M123 1602l6 20h963q43 0 72 -1t81 -6t93 -17t88.5 -31t88.5 -51.5t72 -75.5q121 -170 62 -361q-25 -82 -72.5 -128t-149.5 -99q52 -23 77.5 -35t60.5 -32t52.5 -37.5t38 -43.5t33 -58t23.5 -75q11 -53 11.5 -119t-21.5 -144t-62 -128q-49 -62 -111.5 -101.5t-137.5 -55
t-125.5 -19.5t-126.5 -4h-1020v23l24 4q8 4 13.5 10.5t8.5 14t5 15t2.5 15.5t0.5 13t-1 11v5v1400v58q-1 1 -3.5 7t-6 10t-8.5 7q-8 4 -14 4t-17 5zM395 1430v-492h606q7 0 47 -0.5t54.5 0t53 3t58.5 8t53.5 16t54.5 25t44.5 37.5t40.5 52q31 55 34 117.5t-24 108.5
q-17 31 -39 54t-50.5 36.5t-51.5 21.5t-58.5 11t-55.5 3.5t-59 -0.5t-52 -1h-656zM991 748h-602v-574h660h26.5h36t41 1t47.5 3.5t48.5 7.5t51 11.5t47 17.5t45 24.5t37.5 32.5t31 41q32 55 33.5 137.5t-33.5 143.5q-22 37 -56 65.5t-79 44.5t-82 26t-90 13.5t-76.5 4
t-66.5 0.5h-19z" />
    <glyph glyph-name="C" unicode="C" horiz-adv-x="2072" 
d="M1753 1481q19 -6 24.5 -6.5t9.5 0.5t13.5 11t22.5 19l16 -6l-156 -313l-24 14q1 7 3.5 20t3 16.5t0 12.5t-3.5 13l-9 12t-15.5 15.5t-23.5 17.5q-92 71 -248.5 111t-318.5 39t-279 -42q-170 -60 -266.5 -166t-136.5 -276q-15 -59 -16 -133t12.5 -155t51.5 -163t97 -143
q59 -62 132.5 -107t146 -69t150.5 -34t147 -7.5t135 14.5q34 7 86 22.5t123.5 46t129.5 66.5t97 87t33 104l16 8l203 -266l-15 -13q-7 2 -21.5 12.5t-25.5 10.5h-11t-8 -2t-5.5 -3t-8.5 -5.5t-12 -7.5q-10 -4 -96 -70q-242 -166 -519.5 -198.5t-545.5 81.5
q-454 199 -512 658q-28 202 39.5 393.5t251.5 343.5q96 78 216.5 126t238.5 64.5t242 12.5t228.5 -24t196.5 -52q72 -25 141 -60q5 -2 33 -15t37 -15z" />
    <glyph glyph-name="D" unicode="D" horiz-adv-x="2062" 
d="M121 1602v26h932q70 -3 118 -7t116 -14t117.5 -26t109 -44.5t106.5 -66.5t94.5 -95t85.5 -128q69 -127 90.5 -295.5t-9.5 -339t-109 -297.5q-43 -70 -96.5 -123t-114.5 -86.5t-121 -55.5t-133 -32.5t-132.5 -14t-136.5 -3.5h-917v29q8 4 19.5 4.5t19.5 4t16 15.5
q6 10 6 60v1386v70q-6 15 -11.5 21.5t-10.5 7.5t-17 1.5t-22 2.5zM408 1434l2 -1248h632q49 0 75.5 0.5t69 2.5t67.5 6.5t62 13t61 21t55 31.5t55 43.5t50 57.5t50 74q78 136 83 361.5t-79 382.5q-39 67 -98.5 115.5t-118 74.5t-132.5 41.5t-127.5 19t-117.5 3.5h-589z" />
    <glyph glyph-name="E" unicode="E" horiz-adv-x="1841" 
d="M1520 0h-1391v29q46 -3 66 26q6 9 6 60v1390q0 61 -2 64q-8 14 -23 21t-26 7h-11v25h1399q63 0 74 8q17 7 23 14.5t9 25t5 24.5h26v-346h-26q-18 54 -37 65.5t-74 11.5h-12h-1094v-516h729q80 0 86 2q24 8 38 24.5t16 28.5l2 13h22v-342h-25q-17 58 -33.5 69.5
t-76.5 14.5h-758v-537h1022h51h56q38 0 51 13q12 9 17.5 22.5t4.5 22.5v10h27v-328h-29v8v9t-1 8.5t-3.5 10.5t-7 10t-11.5 12t-16 12q-14 8 -73 8z" />
    <glyph glyph-name="F" unicode="F" horiz-adv-x="1701" 
d="M1591 1686l2 8l21 -4v-349h-23q-12 51 -21 62q-15 17 -61 22h-59h-53h-979v-512l608 -2h117q47 6 59 15q7 11 13 18.5t7.5 10.5t2 8t0.5 20l22 2v-330h-22q-3 9 -5 20t-3.5 16t-8.5 11.5t-22 12.5q-10 8 -68 8h-706v-516v-115q2 -22 3.5 -34t10 -19.5t11 -9t21.5 -4.5
t27 -5v-20h-366v20q61 12 72.5 27.5t11.5 73.5v1390q0 57 -6 64q-9 14 -19.5 18t-19 2.5t-19.5 1.5v27l1348 -2q55 0 67 6q18 7 26 16t9.5 17t1.5 25z" />
    <glyph glyph-name="G" unicode="G" horiz-adv-x="2107" 
d="M1817 1425q4 1 9 5t11 10.5t10 9.5l19 -10l-180 -301l-17 12q0 11 2 25.5t2 18.5t-4 13.5t-12.5 18t-26.5 24.5q-37 30 -110 72q-92 51 -199 81t-219.5 36.5t-227.5 -19.5t-212 -84q-111 -67 -184.5 -163t-103.5 -194.5t-28 -201.5q2 -76 20 -148t56 -144t104 -136.5
t156 -113.5q175 -95 436 -81.5t449 126.5q56 34 71.5 52t16.5 66v144v51h-271h-124q-53 0 -60 -4q-15 -9 -21.5 -18.5t-10 -23t-7.5 -20.5l-22 2v314l26 -6q0 -34 27 -43q4 -2 53 -2h692v-35q-12 -3 -20 -1t-16.5 -1t-16.5 -15q-3 -5 -6.5 -29.5t-3.5 -31.5v-121v-307
q-120 -110 -284.5 -180.5t-329.5 -93.5t-321 -11.5t-275 56.5q-238 92 -376.5 271.5t-164.5 397.5q-11 102 3.5 204t57 206.5t126 204t200.5 178.5q161 108 376.5 134t422 -18t391.5 -141l31 -16q43 -22 57 -25q8 0 15.5 1.5t10.5 3.5z" />
    <glyph glyph-name="H" unicode="H" horiz-adv-x="2007" 
d="M1485 1628h358l-4 -31h-6h-6.5h-6t-6.5 -0.5l-6 -1.5t-6 -2.5t-5 -3.5t-5 -5t-4.5 -6.5t-3.5 -8.5q-4 -9 -4 -64v-1390q0 -56 4 -64q6 -9 10 -13.5t8 -6.5t7 -3t10 -2t14 -3v-23h-352v25q51 12 58 21.5t7 64.5v53v49v535h-1118v-637q0 -56 2 -62q4 -13 21.5 -21t35.5 -8
v-20h-366v20q20 5 30.5 7.5t20 7.5t12.5 7t6 11t3 13.5t0.5 20.5t1.5 26v53v35v1306v21t0.5 16.5t-1 12t-2 10t-4.5 7.5t-6.5 7t-10.5 6t-14.5 7.5l-19.5 7.5v26h357l-2 -31h-5.5h-6t-5 -0.5t-5.5 -1l-6 -1.5t-7 -3t-7 -5t-8.5 -6.5t-9.5 -8.5q-4 -7 -4 -62v-45v-71v-445
h1118v475v35v49q0 61 -2 64q-2 5 -4 9t-5.5 7t-6 5t-7.5 3.5t-7.5 2t-8 1t-7 0.5h-7h-6.5v29z" />
    <glyph glyph-name="I" unicode="I" horiz-adv-x="618" 
d="M162 1583q-2 2 -31 14l2 25h320v-31l-23 -4q-6 -4 -10.5 -11t-7 -12.5t-3.5 -15t-1 -14.5v-15v-12v-1409q0 -36 6 -49q13 -24 43 -31v-18h-338v23q34 0 45 22q8 13 8 53v1413q0 64 -10 72z" />
    <glyph glyph-name="J" unicode="J" horiz-adv-x="1572" 
d="M1061 1591v23h340v-27q-2 0 -6.5 -0.5t-6.5 -1t-6 -1t-6.5 -1.5t-6 -3t-6.5 -4t-6.5 -5.5t-6.5 -7.5q-7 -11 -7 -64v-958q0 -54 -2 -92.5t-13.5 -100.5t-31.5 -109t-60.5 -99t-96.5 -89q-111 -75 -258 -93t-292.5 9.5t-299.5 91.5l-37 13q-50 19 -59 17.5t-60 -30.5
l-14 11l149 331l27 -14q-1 -12 -3.5 -24t-3 -16t2.5 -12.5t11 -17t26 -24.5q42 -36 100 -68q125 -69 285 -79.5t272 51.5q44 27 72 66t38.5 90t12.5 81.5t2 82.5v15v969q0 64 -8 70q-6 6 -8.5 9t-6 5t-5.5 2t-8.5 1.5t-12.5 2.5z" />
    <glyph glyph-name="K" unicode="K" horiz-adv-x="1947" 
d="M1704 45q13 -8 34 -14t29 -6v-25h-411v29l55 22l-635 844l-356 -283v-401v-49v-39q0 -62 6 -70q10 -16 25.5 -24t25.5 -9h10v-20h-366v23l55 18q6 10 6 47v1428q0 58 -6 67q-4 4 -9.5 6t-13.5 3.5t-12 2.5v25h41h301v-27q-5 -1 -12 -1.5t-11 -1t-10.5 -4.5t-13.5 -13
q-8 -10 -8 -64v-61v-39v-551l893 698l-8 17l-31 6v29h463l-2 -31q-42 -8 -61 -15.5t-50 -29.5l-684 -504l709 -936l8 -10q8 -10 18.5 -20.5t20.5 -16.5z" />
    <glyph glyph-name="L" unicode="L" horiz-adv-x="1804" 
d="M449 1575q-9 -11 -13.5 -26.5t-5 -25.5t-0.5 -36v-1313h1000h53h59q12 2 20.5 3.5t15 3t11.5 6t8 6t6.5 10t5 12t5.5 16t6 19.5h22v-373h-26q-8 52 -25 82q-13 24 -40 32.5t-81 8.5h-1343v29q38 0 52 15q7 6 11 15q9 11 9 70v1370q0 55 -15 74q-10 13 -24 19.5t-22 6.5
h-9v25h375v-25q-3 -1 -11.5 -3t-11.5 -2.5t-9 -2.5t-9 -4t-7 -5t-7 -7z" />
    <glyph glyph-name="M" unicode="M" horiz-adv-x="2138" 
d="M1905 1571q-15 -15 -15 -60l2 -1400q0 -45 13 -62q4 -7 17 -12.5t24 -7.5l10 -2v-27h-354v29q41 1 59 24q5 6 7.5 16t3 16t0.5 19l-1 13v41v47v1091l-641 -1282l-624 1307v-1198q1 -1 1.5 -30t2.5 -34q2 -9 4 -14.5t8 -9.5t8.5 -5t15 -4.5t19.5 -5.5l-2 -20h-330l2 23
q10 3 23.5 3.5t21.5 5t19 21.5q8 16 8 76v1436q0 16 -16.5 23.5t-32.5 7.5l-17 -1v23h453v-23q-4 0 -9.5 -0.5t-18.5 -10.5t-19 -30q-3 -9 -3 -17t0.5 -14t4.5 -16.5t7 -16.5t12.5 -24t15.5 -30l458 -967l512 1010q6 8 17.5 41t7.5 41q-4 15 -18.5 23t-27.5 8l-13 1v23h397
h39v-25q-37 -4 -51 -20z" />
    <glyph glyph-name="N" unicode="N" horiz-adv-x="1998" 
d="M180 39q15 11 15 80v47v1272v29v27.5t-0.5 23t-2.5 22.5t-5 17.5t-7.5 17t-11.5 13t-16 12t-21 8.5v14h440v-25q-35 -2 -47 -20q-3 -6 -3.5 -12t0 -10.5t5 -12t7 -10.5t9.5 -11.5t9 -11.5l1012 -1192v1199q0 46 -11 59q-6 11 -14 15t-21 4t-18 1v27h336v-27
q-13 -3 -22.5 -5t-17.5 -4t-13.5 -6t-9.5 -5t-6.5 -8t-4 -9t-2 -12t-0.5 -13.5v-18.5v-21v-1380q0 -63 6.5 -73.5t57.5 -19.5v-20h-383v25q4 1 19 2.5t24 7t12 18.5q2 15 -51 74l-1057 1235v-1159v-43v-45q0 -57 9.5 -72t62.5 -25v-18h-336v23q34 -4 57 16z" />
    <glyph glyph-name="O" unicode="O" horiz-adv-x="2131" 
d="M604 1542q88 42 153.5 60.5t157.5 29.5q62 10 136 7t148.5 -11.5t154 -33.5t152.5 -60.5t144.5 -91t129.5 -125.5q66 -81 110.5 -185t62 -209t13 -207.5t-30.5 -187.5q-67 -214 -196.5 -343t-349.5 -191q-107 -31 -230.5 -39t-256.5 8t-266 71.5t-237 145.5
q-72 61 -126.5 134.5t-85.5 147t-49 152t-17.5 151t8.5 144.5q55 429 475 633zM858 1430q-71 -14 -149 -50t-138 -86q-73 -62 -122.5 -138t-69.5 -148t-27.5 -147.5t2.5 -135.5q25 -326 310 -489q106 -59 240.5 -80.5t266 -4t236.5 69.5q74 35 133.5 87t97.5 112t61.5 121
t33.5 123q5 49 6.5 105t-11 124t-33 131.5t-58.5 128t-89 113.5q-70 66 -166.5 108.5t-193 56.5t-180.5 13t-150 -14z" />
    <glyph glyph-name="P" unicode="P" 
d="M141 1602v26h920q42 -1 71.5 -2.5t80 -7.5t88.5 -15t86 -27t85 -41.5t73.5 -60t62.5 -81.5q52 -91 49.5 -233t-58.5 -230q-138 -226 -577 -209h-604l-2 -608v-45l9 -25q3 -4 24 -20h32l-2 -23h-344v20q12 3 20 5.5t15.5 5t11.5 6t8 5t6 7t3.5 8t1.5 11v12.5v16v19l2 1378
v74q-7 18 -13 23t-21.5 6.5t-27.5 5.5zM426 1436v-527h604q9 0 47 -1t57.5 0t57 3.5t62 10.5t54.5 20.5t53.5 34.5t41.5 51q28 49 28 141.5t-26 137.5q-12 21 -28.5 38t-32 29.5t-39 22.5t-40 16.5t-43.5 11t-41 7t-42 3.5t-36.5 1h-34h-26.5h-616z" />
    <glyph glyph-name="Q" unicode="Q" horiz-adv-x="2174" 
d="M1919 1061q148 -447 -137 -817q9 -13 51 -39q32 -24 53 -33q13 -8 20.5 -12.5t16.5 -7t12 -3.5t12 2.5t12 5.5l16.5 11t21.5 14l12 -16l-158 -275l-24 15l12 51q-8 15 -12.5 19.5t-14 8t-18.5 9.5l-59 37l-19 11q-19 12 -24 17l-74 41q-219 -132 -505.5 -146t-504.5 93
q-219 103 -334.5 259.5t-144.5 367.5q-16 82 -7.5 179.5t35.5 190t88.5 188t149.5 173.5q92 81 211.5 135t242.5 76t246 17.5t230 -34.5q226 -61 375 -190.5t219 -347.5zM1591 358q72 100 106 184.5t42 178.5q6 81 -2.5 157.5t-35.5 156t-83 152.5t-137 130q-95 66 -239 97
t-286.5 21t-242.5 -57q-87 -40 -154.5 -99.5t-109.5 -128.5t-65.5 -141.5t-29.5 -148.5q-8 -77 1 -153t36.5 -154t83 -151t135.5 -130q101 -74 252.5 -103t297 -13t253.5 67q-25 19 -49.5 35.5t-42.5 28t-42 23t-36 17.5t-38.5 15t-35 12t-39 12.5t-38.5 12.5l-99 37l6 22
q198 43 311 27t281 -107z" />
    <glyph glyph-name="R" unicode="R" horiz-adv-x="1918" 
d="M131 1599v29h981q70 -2 123.5 -8t131 -24t144.5 -59t117 -103q56 -70 75.5 -192t-3.5 -210q-27 -98 -78.5 -163.5t-151.5 -110.5q-70 -31 -194 -43l373 -609q27 -43 46 -57.5t60 -25.5v-23h-420v27q3 1 16 3t24 4t22.5 9t15.5 18q3 6 -4 23.5t-20.5 40t-26 43t-25.5 40
t-16 23.5l-281 465h-624v-469v-75v-37q0 -51 10 -66q11 -15 21 -21.5t15.5 -7t22.5 -0.5v-20h-356l4 23q6 2 16.5 3t17 2t14.5 6.5t14 14.5t6 64v1394v21t0.5 17t-1 12.5t-2 10t-5.5 7t-8 6.5t-13 5.5t-17 6t-24 6.5zM416 1434v-547h678q10 0 42 -0.5t44.5 0t41 1.5t43.5 5
t39.5 10t40.5 16.5t36 24t36 33.5t31 45q36 62 37 139.5t-31 130.5q-19 31 -43 55t-55.5 39t-56.5 24.5t-64.5 14t-57.5 6t-58.5 2.5t-47.5 1h-655z" />
    <glyph glyph-name="S" unicode="S" horiz-adv-x="1894" 
d="M1618 1470h11.5h8t7 1.5t5 2t6 3.5t5.5 5t8 7.5t10 9.5l23 -12l-133 -287l-29 10q-2 22 -0.5 31.5t-4.5 18.5t-28 28q-9 7 -24 16t-32 18t-24 13q-84 41 -161 62q-48 14 -121 25.5t-169 14.5t-187 -6.5t-176.5 -42.5t-135.5 -88q-45 -51 -60.5 -106t3.5 -107
q52 -128 372 -168q7 -1 9 -1l385 -33q39 -5 53 -6.5t60.5 -8.5t72 -15t70 -21t74.5 -30t64.5 -40t61 -54t44.5 -67q44 -76 43 -187t-50 -200q-40 -72 -113.5 -129.5t-158 -91t-158.5 -52.5t-139 -26q-258 -23 -481 33q-98 20 -244 84q-14 5 -29 16q-9 0 -32 14
q-50 27 -60 31q-57 29 -61 29q-14 1 -20.5 -0.5t-9 -4.5t-10.5 -10.5t-20 -15.5l-24 19l164 307l26 -13q-10 -44 -3.5 -64t54.5 -58q85 -67 205.5 -110.5t242 -58t235.5 -10.5t200 27q210 55 266 197q16 33 15 90t-23 92q-24 37 -74 63.5t-108.5 38.5t-93.5 17t-62 6
l-350 29q-479 50 -577 282q-38 81 -21 201.5t90 214.5q58 72 151.5 121.5t191 72t204 31t187.5 4.5t143 -14q83 -13 248 -70q24 -8 124 -51q3 -1 18 -8.5t28.5 -13t17.5 -5.5z" />
    <glyph glyph-name="T" unicode="T" horiz-adv-x="1882" 
d="M121 1364v336l29 -6q2 -13 0 -22.5t3 -20.5t21 -21q8 -8 70 -8h1339q1 0 12 -0.5t22.5 -1t23 0t14.5 1.5q13 0 21.5 8t10.5 14t5 22l2 17l20 -4v-323l-24 2q0 34 -25 57q-13 15 -55 15h-121h-471v-1319q0 -60 4 -64q12 -20 22.5 -24.5t40.5 -4.5v-18h-360l2 20
q6 1 16.5 1.5t16.5 1.5t14 6t14 14q7 10 7 68v1323h-467q-33 0 -39 2h-51h-14q-45 0 -57 -9.5t-28 -62.5h-18z" />
    <glyph glyph-name="U" unicode="U" horiz-adv-x="1939" 
d="M1733 1577q-13 -11 -13 -53v-854q0 -180 -21 -277q-49 -234 -229 -334q-118 -69 -323 -92.5t-410.5 4t-324.5 97.5q-42 25 -75.5 53t-58.5 53.5t-44 60t-31.5 59.5t-21 65t-12.5 64t-6.5 69.5t-2.5 68v72.5v868v62q-8 27 -13 31.5t-32 4.5l2 29h315v-31l-51 -20v-938
q1 -35 -1 -75.5t5 -89t19.5 -92.5t43 -86t74.5 -69q77 -47 242 -65.5t329.5 -2t243.5 61.5q35 19 62 45.5t44 55.5t29 62t17.5 65.5t9 66t2.5 63.5t0 59v28v845q0 67 -14 78l-27 4v21h316v-25q-31 -2 -43 -12z" />
    <glyph glyph-name="V" unicode="V" horiz-adv-x="2050" 
d="M119 1599l2 29h411v-26q-69 -5 -79 -25q-2 -4 -2 -10t2 -14.5t4.5 -16.5t7.5 -20t9.5 -22t11.5 -26t12 -28l520 -1219l538 1280q27 56 20.5 72.5t-67.5 34.5v22h377v-22q-55 -10 -67 -20.5t-39 -69.5l-594 -1418q-10 -35 -10 -49l51 -22l-2 -29h-420v29l41 12
q4 10 4.5 18t-1 13t-6 16t-7.5 21l-600 1398q-25 60 -40.5 71.5t-76.5 20.5z" />
    <glyph glyph-name="W" unicode="W" horiz-adv-x="2463" 
d="M119 1602l2 26h311v-26l-24 -5l-19 -20l342 -1198l340 1163q1 3 2 6.5t1.5 5t1 3.5t1 2.5t0.5 2.5v3v3.5v4.5v6v8l-8 10h-37v33h357v-22l-25 -6l-18 -19l368 -1204l332 1169q0 3 1 14.5t1 16.5l-47 29v24h295l-2 -24q-14 0 -19.5 -1t-11.5 -7.5t-10 -20.5q-6 -9 -9 -24.5
t-6 -24.5l-405 -1438q-8 -20 -8 -41l47 -22l-4 -29h-326v29l45 20q0 31 -4 45q-1 2 -6 17l-373 1214l-358 -1221q0 -8 -2 -26t-2 -27l37 -22l-5 -29h-325l2 29l47 20q0 23 -4 33l-412 1440l-2 10l-6 16l-2 10q-2 11 -6 15q-6 11 -9 15.5t-7 7.5t-6 2.5t-9.5 0.5t-15.5 3z
" />
    <glyph glyph-name="X" unicode="X" horiz-adv-x="1959" 
d="M207 1608l4 22h430v-20l-53 -27q0 -33 33 -72l356 -471l387 482q6 9 14.5 19.5t11 14.5t5 12.5t2.5 20.5l-54 21l3 24h393l-4 -24q-14 -5 -29 -8.5t-18.5 -4t-13 -8t-17 -16.5l-27.5 -33l-522 -668l575 -759q40 -51 49 -58t62 -24v-31h-416v31l56 30v17l-476 622
l-374 -469l-92 -116q-31 -42 -27 -56q4 -10 6.5 -15t7 -7.5t8 -3.5t11.5 -2.5t16 -3.5v-27h-395v27q43 9 61.5 20t50.5 47l605 764l-508 672q-30 40 -51.5 55t-69.5 23z" />
    <glyph glyph-name="Y" unicode="Y" horiz-adv-x="1937" 
d="M1419 1522q4 6 15.5 20.5t18 24.5t7.5 16q2 10 -10 15t-24 4h-13v26h359l-5 -26q-28 5 -53 -13q-3 -2 -12 -13.5t-20 -26t-13 -17.5l-463 -631q-2 -4 -61 -82t-62 -88v-172v-440q0 -54 4 -60q5 -18 9.5 -22t19 -4t27.5 -4v-29h-342v29h6h6.5t6 0.5t6.5 1l6 1.5t6 2.5
t5.5 3.5t5.5 5t4.5 7t4.5 9q2 3 2.5 31.5t1.5 30.5v41v45v516l-618 807q-34 43 -55.5 56t-69.5 22l2 22h430v-22q-3 -2 -17 -2.5t-26 -6.5t-16 -22q-3 -7 52 -84t66 -88l367 -479z" />
    <glyph glyph-name="Z" unicode="Z" horiz-adv-x="1804" 
d="M1212 1427h-946q-53 0 -63 -8q-17 -11 -26.5 -27t-10.5 -26v-10h-25v344h25q-2 -43 29 -66q5 -4 69 -4h1376l-1103 -1429h968q44 0 58 12q10 9 14 24t3 26l-1 11h29v-348h-25v12.5t-9.5 25.5t-27.5 28q-18 8 -86 8h-1341z" />
    <glyph glyph-name="bracketleft" unicode="[" horiz-adv-x="856" 
d="M119 -244v1872h569v-90h-383v-1690h383v-92h-569z" />
    <glyph glyph-name="backslash" unicode="\" horiz-adv-x="915" 
d="M659 -51l-540 1691h86l547 -1691h-93z" />
    <glyph glyph-name="bracketright" unicode="]" horiz-adv-x="856" 
d="M682 1628v-1872h-569v92h383v1690h-383v90h569z" />
    <glyph glyph-name="asciicircum" unicode="^" horiz-adv-x="1001" 
d="M119 1487l237 325h242l240 -325h-203l-158 199l-155 -199h-203z" />
    <glyph glyph-name="underscore" unicode="_" horiz-adv-x="1435" 
d="M121 0v86h1151v-86h-1151z" />
    <glyph glyph-name="grave" unicode="`" horiz-adv-x="782" 
d="M123 1804l-4 11h299l196 -322h-174z" />
    <glyph glyph-name="a" unicode="a" horiz-adv-x="1712" 
d="M825 1153l-272 -631h537zM1280 72l-76 178l-51 110h-666l-110 -260q-3 -6 -7.5 -14.5t-5.5 -11.5t-2.5 -10t-1.5 -17l56 -27v-20h-297v23q12 4 18 2.5t15 2t22 15.5l29 57l489 1153q2 5 5 11.5t4.5 10t2.5 11t1 19.5l-58 22v29h371l-4 -31h-6h-6.5t-7 -0.5t-8 -2t-7 -3.5
t-7.5 -5.5t-6 -8.5t-5 -11q-3 -14 24 -67l479 -1121q12 -24 23 -57q33 -33 59 -24v-25h-315v31h31q11 8 13.5 11t6.5 12t-2 18z" />
    <glyph glyph-name="b" unicode="b" horiz-adv-x="1622" 
d="M121 1337l2 25h784q38 0 61.5 -0.5t71 -4.5t81 -11.5t78.5 -23t78 -37t64.5 -55.5t51.5 -77q21 -44 26 -104.5t-12 -128.5t-59 -115q-12 -16 -97 -82q62 -43 92 -67t57 -57t38 -69.5t18 -93.5q7 -66 -14.5 -148t-73.5 -138q-37 -41 -91 -71t-103.5 -44.5t-114 -23
t-103 -10t-88.5 -1.5h-749v23q7 2 22 3.5t23.5 6.5t15.5 20q0 9 1 36t1 40v1118q0 1 0.5 11t1 18.5t-0.5 18t-3 12.5q-9 16 -16.5 20.5t-20.5 5.5t-22 4zM373 1202v-403h516q3 0 29 -1t44.5 -0.5t50 2.5t57 8t52.5 15t48.5 25.5t35.5 38.5q29 46 30.5 104.5t-24.5 102.5
q-11 20 -29 36.5t-40.5 27.5t-46.5 19.5t-51.5 13t-50.5 7.5t-49 4t-41.5 1t-33 -0.5t-18.5 -0.5h-479zM367 641v-481h485q8 0 44 -0.5t52.5 0t52.5 2.5t57.5 6t53 12.5t52.5 21t43.5 31.5t37.5 43q31 55 29.5 116.5t-29.5 115.5q-14 26 -36.5 46.5t-45 34t-54.5 23.5
t-55.5 15t-58 8.5t-51.5 4t-45.5 1t-32.5 0.5h-499z" />
    <glyph glyph-name="c" unicode="c" horiz-adv-x="1738" 
d="M1409 1235q16 -5 24 -7t16 0.5t12 6l16 14t24 19.5l17 -15l-146 -260l-20 13q10 35 6 54t-43 48q-123 86 -319.5 106t-354.5 -40q-147 -59 -219.5 -147t-99.5 -230q-26 -130 7.5 -269t143.5 -245q52 -49 130.5 -83t159.5 -47t157.5 -12.5t132.5 15.5q111 29 198 77
q80 44 97 64q33 29 38 49q0 31 -14 49l17 21l186 -232l-25 -12q-5 5 -21 11.5t-28 6.5q-8 -1 -14 -4t-15.5 -10t-17.5 -12q-13 -6 -18 -9t-12 -8.5t-19 -13.5t-49 -29q-85 -49 -197 -90q-127 -42 -258.5 -49t-275 36t-258.5 140q-67 57 -116.5 124t-76.5 133t-42 136.5
t-13 134.5t10 128q28 193 127.5 318t302.5 208q77 33 198 46.5t224 4.5q104 -8 215 -39q3 -1 39 -14.5t68 -28.5l53 -24q5 -4 25 -16t28 -17z" />
    <glyph glyph-name="d" unicode="d" horiz-adv-x="1705" 
d="M123 1341v23h694q71 0 119.5 -2.5t114.5 -11.5t116 -28.5t104 -51.5t101 -83t86 -120q88 -157 81.5 -390t-99.5 -390q-26 -46 -58.5 -84t-64 -65.5t-71.5 -49.5t-74 -36.5t-78.5 -24.5t-77.5 -15t-79.5 -8t-76 -3.5t-74.5 -0.5h-667v27q44 0 55 24q6 10 6 64v1120v68
q0 6 -0.5 9.5t-2.5 6.5t-4 4.5t-7.5 4t-9.5 3.5t-14.5 4t-18.5 6zM369 1202v-1036h413h16q42 0 64 0.5t62.5 2.5t66.5 7t62.5 14t63 23.5t56.5 34t55 48t46 64.5q73 126 77.5 317.5t-63.5 309.5q-25 45 -61.5 80t-71.5 57.5t-83.5 38t-82.5 23t-85.5 11.5t-75 4.5t-68.5 0.5
h-391z" />
    <glyph glyph-name="e" unicode="e" horiz-adv-x="1540" 
d="M121 1364h1114q54 0 65 4q17 7 22 13.5t6 18t5 19.5h23v-274h-23q-3 7 -6.5 21.5t-10 22.5t-22.5 13q-5 2 -63 2h-877v-440h480q2 0 15.5 -1.5t24.5 -1.5t15 3h39q1 0 11.5 -0.5t19.5 -1t19 0.5t13 3q16 6 29 22l6 29h23v-254l-23 -2l-27 51h-645v-458h901q55 0 66 6
q16 9 20.5 16t4 18t2.5 19l26 2v-268h-22q-4 8 -6 19t-7.5 17.5t-21.5 14.5q-6 2 -62 2h-1136v31h35q12 20 12 59v1161v52q-8 34 -37 34z" />
    <glyph glyph-name="f" unicode="f" horiz-adv-x="1443" 
d="M1313 1364l22 43h27v-272h-27q0 14 -1.5 22t-8.5 17.5t-22 17.5q-4 4 -64 4h-874v-438h479h43h45q2 0 30.5 1t34.5 5q16 7 21.5 13.5t7 21.5t4.5 24l27 -6v-285l-27 7q0 45 -31 53q-11 6 -63 6h-43h-47h-481v-383v-51v-45q0 -57 2 -60q7 -32 53 -32v-27h-301l4 27l57 26
v1194q0 9 0.5 25t0.5 19.5t-2.5 13t-5.5 11.5t-10.5 7.5t-17 9t-26.5 8.5v23h1194z" />
    <glyph glyph-name="g" unicode="g" horiz-adv-x="1765" 
d="M1497 1210q12 -4 22 -1.5t13 4.5t13 9t22 13l16 -10l-156 -254l-22 10q2 10 6 24.5t4.5 18.5t-2.5 13t-12 17.5t-27 22.5q-131 105 -325 135.5t-359 -22.5q-141 -43 -229 -127t-127 -225q-20 -65 -22.5 -150t25.5 -185t89 -169q56 -65 132.5 -110t152 -64t155 -26
t140.5 5q190 27 376 154v213h-159h-123h-60q-6 -4 -15 -9.5t-11.5 -7.5t-7 -5.5t-5 -7.5t-1.5 -9t-1 -14h-26v270h26q0 -43 29 -57q6 -2 62 -2h34h62h411v-23l-26 -6q-3 -5 -4 -7t-2.5 -4t-1.5 -4v-3.5v-5.5v-7v-309l36 -23v-36q-236 -196 -516 -249.5t-522 42.5
q-197 76 -301 205.5t-131 314.5q-9 55 -9.5 116.5t12.5 136t40 144t78.5 141t122.5 127.5q122 97 293.5 134.5t332 21.5t297.5 -70l134 -57q46 -31 67 -33z" />
    <glyph glyph-name="h" unicode="h" horiz-adv-x="1755" 
d="M139 1337v25h318l-6 -29q-48 0 -60 -28q-4 -8 -4 -62v-41v-59v-367h946v348v121q-1 3 -2 26.5t-8 31.5q-6 8 -13 12.5t-12.5 5t-15 1.5t-16.5 3l2 27h323v-27q-55 -13 -64 -26.5t-9 -73.5v-1116q0 -12 -1 -27t-1 -21.5t1.5 -15.5t5 -12.5t11 -9t19.5 -8.5t30 -7v-22h-323
v28q12 4 20 2.5t17 1.5t18 15q4 8 5 32.5t1 26.5v60q0 6 1 27t1 32v393h-944v-399v-33v-59q0 -3 -1.5 -19t-1 -28t4.5 -17q3 -10 8.5 -15.5t10.5 -7t17.5 -3.5t22.5 -5v-18h-321l2 23q4 1 25 3t28 7q6 6 9 14.5t4 12.5t2 16t1 14v53q0 7 2.5 27t2.5 31v1104q-7 13 -17 19
t-22.5 8.5t-16.5 4.5z" />
    <glyph glyph-name="i" unicode="i" horiz-adv-x="618" 
d="M449 0h-328v27q51 0 61 26q4 9 4 66v1126q0 57 -4 62q-8 14 -20 21t-20 7h-9v27h316v-29q-8 -3 -19.5 -3t-20 -3t-16.5 -14q-6 -9 -6 -62v-1122v-74q7 -17 22.5 -25t27.5 -8l12 1v-23z" />
    <glyph glyph-name="j" unicode="j" horiz-adv-x="1347" 
d="M889 1335l4 27h291l-4 -37h-35q-5 -5 -7.5 -9.5t-3.5 -9.5l-1.5 -7.5t0 -10.5t0.5 -12v-791v-52.5t-1.5 -51t-4.5 -54.5t-9.5 -50.5t-16 -53t-24 -48.5t-33.5 -49.5t-45.5 -43.5t-58.5 -43q-87 -54 -211 -66.5t-248 12t-233 76.5q-49 23 -53 23q-9 3 -14.5 4t-10.5 -1.5
t-7.5 -5t-9.5 -10t-12 -12.5l-22 11l112 256l23 -13q-6 -30 -1 -43t40 -39q21 -18 88 -47q78 -31 153.5 -46.5t160.5 -6.5t147 51q30 21 50 46.5t30 48t14.5 54t4.5 52t-0.5 54.5t-0.5 50v758l2 15q2 14 3.5 28t0.5 17q-6 16 -13.5 20.5t-21 5t-22.5 4.5z" />
    <glyph glyph-name="k" unicode="k" horiz-adv-x="1687" 
d="M133 1335v27h316l-3 -29q-39 0 -55 -16q-4 -6 -5.5 -13.5t-1.5 -13t0.5 -15t0.5 -13.5v-109v-438l702 530q8 6 20.5 15.5t16.5 13.5t9 12t8 19l-47 22v25h403v-27q-5 -1 -17.5 -2t-21.5 -6l-8 -4l-10 -6q-12 -12 -21 -15l-581 -446l565 -754q42 -56 52 -63t67 -19v-20
h-371l4 28l51 11q4 18 1 24t-25 37l-492 655l-317 -243v-277v-61v-64q3 -51 9 -58t58 -22v-20h-321v23q7 2 20.5 1.5t22.5 4t18 18.5q4 8 4 64v1132l11 62q-2 5 -4 9.5t-5.5 7.5t-5.5 5.5t-7 3.5t-7 2t-8.5 1.5t-7.5 0.5h-8.5h-8.5z" />
    <glyph glyph-name="l" unicode="l" horiz-adv-x="1488" 
d="M129 1337v27h266v-27q-3 -1 -16 -4t-17 -9t-4 -21q-2 -5 -2 -52v-1097h846q56 0 64 2q23 8 28.5 19.5t5.5 35.5h25v-274h-25q-4 9 -5.5 18.5t-2.5 13.5t-6.5 10t-17.5 13q-16 8 -62 8h-1087v27h22l19 16v1280z" />
    <glyph glyph-name="m" unicode="m" horiz-adv-x="1896" 
d="M133 1337v25h383v-29q-18 0 -26 -1.5t-14.5 -9.5t-6.5 -26q0 -3 5.5 -17t12 -29t7.5 -17l424 -877l428 867q28 67 28 71q-4 17 -18.5 25.5t-27.5 8.5l-13 -1v25h371h47v-25q-31 -2 -45 -6q-29 -10 -29 -39v-43v-47v-1077v-19v-16.5v-12t2 -10.5t3.5 -7.5t6 -6.5t8 -4.5
t11.5 -5.5t14.5 -4.5t19.5 -5.5v-23h-321v25q16 4 26 7.5t18.5 5.5t13 7.5t8 7.5t4 12t1.5 14t1 20v24v1007l-562 -1144l-559 1147v-1022q-3 -59 5.5 -71.5t60.5 -19.5v-20h-299v23q40 0 61 24q2 2 2 57v1203q-6 12 -6 14q-4 6 -15.5 10t-20.5 5z" />
    <glyph glyph-name="n" unicode="n" horiz-adv-x="1712" 
d="M131 1337v25h373v-29q-15 0 -27.5 -9t-5.5 -24q2 -6 39 -55l803 -969v1027q-2 14 -6 16q-3 3 -13 4.5t-19 1.5h-9v27h282v-27q-33 0 -53 -33q-6 -8 -6 -49v-1124q0 -64 6 -72q4 -7 15 -12.5t20 -7.5l10 -2v-25h-317v27q29 2 43 10l6 14l-926 1100v-1042q0 -46 8 -64
q3 -8 14.5 -13.5t21.5 -7.5l11 -1v-23h-282v23q45 0 55 26q2 3 2 60v1138v60q-5 16 -10.5 21t-17 6t-17.5 3z" />
    <glyph glyph-name="o" unicode="o" horiz-adv-x="1841" 
d="M494 1288q147 68 258 80q65 6 137.5 8t159 -14t167 -43t161.5 -81t143 -126q58 -67 94.5 -154.5t49 -175.5t8 -171t-24.5 -152q-52 -171 -170.5 -287t-294.5 -170q-87 -26 -192.5 -34t-216.5 4t-221 53.5t-192 109.5q-82 70 -136.5 150.5t-76.5 158.5t-29 161.5t5 160.5
q22 170 108.5 302t262.5 220zM743 1196q-58 -13 -125 -44t-118 -73q-110 -88 -155 -220.5t-36 -244.5q10 -124 74.5 -230.5t187.5 -176.5q124 -69 308.5 -74.5t306.5 53.5q133 64 207 172.5t94 241.5q18 123 -22 245t-142 216q-58 54 -141 89t-164.5 47t-153 11.5
t-121.5 -12.5z" />
    <glyph glyph-name="p" unicode="p" horiz-adv-x="1619" 
d="M131 1337v27h766h45.5t53 -1.5t62.5 -5t63.5 -10t67.5 -16t63 -25t62 -35t51.5 -47.5t43.5 -61q44 -79 45 -198.5t-51 -200.5q-39 -58 -110.5 -97.5t-153.5 -56.5t-151.5 -23t-131.5 -3h-446h-31v-383v-41v-37v-64q6 -14 11.5 -21t8.5 -9t13.5 -4.5t17.5 -4.5v-20h-311
v27h10h10.5t10 0.5t10.5 2.5t8.5 5t7.5 8q8 13 8 61v1141v60q1 16 -12.5 24t-27.5 8h-13zM381 1204v-461h504q2 0 23 -0.5t34.5 0l40.5 1.5t47 4t47 8t48.5 13.5t43.5 19.5t40 27t30 36q30 55 29 122.5t-25 112.5q-12 21 -29.5 38.5t-40 29t-43 21t-49.5 14.5t-48 8.5
t-50.5 4.5t-45 1.5t-42.5 0t-33 -0.5h-481z" />
    <glyph glyph-name="q" unicode="q" horiz-adv-x="1843" 
d="M1663 813q31 -152 -10.5 -323t-175.5 -316q16 -12 30.5 -25t26 -21.5t35.5 -23.5q5 -3 15 -11t16.5 -11.5t13.5 -3.5q10 0 26.5 15t22.5 18l16 -19l-178 -223l-22 12q1 3 10 20.5t8 26.5q-1 5 -3 9.5t-6 9.5t-7 8t-10.5 10t-12.5 12q-6 4 -28 19t-33 24q-9 10 -62 50
q-194 -99 -453 -99t-436 103q-157 92 -238 238t-89 313q-3 70 8.5 146t40.5 159.5t88.5 164t142.5 138.5q113 81 263.5 117t298 25.5t274.5 -60.5q188 -77 290.5 -196t137.5 -306zM1315 274q76 78 98 115q67 105 78 238.5t-33 236.5q-97 253 -368 322q-102 24 -203 26.5
t-205 -30.5t-184 -99q-58 -47 -99 -110t-61 -126t-27.5 -118.5t-5.5 -103.5q17 -259 248 -410q87 -53 199 -73t217.5 -8.5t193.5 48.5q-109 88 -205.5 118.5t-201.5 8.5l-15 15q2 7 3.5 11.5l2.5 7.5t4.5 6.5l5 5t7 6t8.5 6.5l45 22q192 82 498 -115z" />
    <glyph glyph-name="r" unicode="r" horiz-adv-x="1689" 
d="M127 1337l2 27h31h721q35 0 65.5 -1.5t94 -7t118 -20t113.5 -37.5t105 -63t71 -92t30.5 -122t-12.5 -145t-59 -128q-102 -126 -313 -150l243 -401q4 -7 19 -35t20 -36t19.5 -29.5t25 -29.5t27 -21t36 -19t42.5 -9v-18h-367v23q47 -4 55 14l7 10q0 10 -2 14t-6.5 10.5
t-8.5 18.5l-315 502h-502v-379q0 -29 -2 -47v-47q0 -59 4 -68q4 -10 10 -15t11 -6.5t18.5 -4t22.5 -5.5v-20h-332l2 27q13 2 23 0.5t22.5 4t23.5 21.5q7 12 7 76v1022q0 4 1 17t1 18v57v18q1 44 -9 54.5t-63 21.5zM395 1202v-454h506q9 0 37.5 -0.5t46 -0.5t48.5 2t52.5 5.5
t50 12t49.5 20t41.5 30t35.5 41.5q28 43 30.5 107.5t-20.5 105.5q-21 38 -70 65t-97 39.5t-111 19t-89.5 7t-53.5 0.5h-3h-453z" />
    <glyph glyph-name="s" unicode="s" horiz-adv-x="1589" 
d="M1317 1280q12 0 20 5t29 28l20 -10l-112 -277l-23 12q0 9 2 22.5t1.5 18.5t-4 14t-13.5 17t-27 20q-88 56 -321.5 75.5t-347.5 -19.5q-165 -56 -201 -168q-26 -77 20 -139q31 -44 123 -72t151 -34.5t81 -6.5h194q366 -24 469 -195q44 -72 45 -166.5t-34 -162.5
q-27 -60 -78 -109.5t-111.5 -81t-115.5 -50t-107 -28.5q-90 -15 -209 -10.5t-215 27.5q-99 18 -209 63l-106 47q-29 19 -52 19q-2 -1 -10.5 -3.5t-13.5 -4.5l-27 -27l-16 10l145 291l23 -8q-12 -36 -10 -57t40 -52q74 -62 198.5 -101t246.5 -43.5t231 17.5q45 10 88.5 29.5
t87.5 58t62 86.5q15 34 13 83.5t-23 80.5q-71 98 -324 107l-223 12q-158 10 -237 31q-192 51 -253 198q-21 53 -23.5 117.5t20.5 134.5t71 123q62 68 165.5 107.5t212.5 49t229 3t210.5 -22.5t161.5 -36l37 -11q14 -6 49 -12z" />
    <glyph glyph-name="t" unicode="t" horiz-adv-x="1638" 
d="M123 1141v276h22q0 -16 9 -35.5t28 -19.5h62h1108q71 0 78 4q4 3 8.5 13.5t7.5 20.5l2 9h22v-276h-22q0 35 -33 53q-4 3 -13.5 5t-17.5 2t-19.5 -0.5t-12.5 -0.5h-47h-60h-360v-991v-37v-53q0 -60 2 -64q11 -18 24 -22.5t35 -4.5v-20h-311v20q14 0 33.5 7t23.5 20
q8 10 8 66v1087h-360h-66h-36q-7 0 -21 0.5t-17.5 0t-12.5 -1t-11.5 -3.5t-8.5 -6.5t-9 -10.5t-7 -16t-8 -22h-20z" />
    <glyph glyph-name="u" unicode="u" horiz-adv-x="1703" 
d="M1292 1307q-9 14 -37 18v27h285v-27q-36 0 -45 -25v-55v-678q0 -160 -15 -233q-38 -183 -196 -273q-104 -61 -279.5 -83.5t-351 0t-280.5 83.5q-37 21 -66 43.5t-49 45.5t-35 48t-23.5 50.5t-14 53.5t-7 56.5t-2.5 59.5t0 63v37v721q2 50 -4 66q-5 15 -18.5 22.5
t-23.5 7.5h-11v27h309v-29q-56 0 -61 -33l-2 -67v-682q0 -130 9 -178q22 -115 103 -168q59 -38 198.5 -54t284 -4t214.5 50q23 12 41.5 26.5t31.5 33.5t22.5 33.5t15 39.5t9 38.5t5 43t2 41t0 44.5t-0.5 42v710q0 45 -8 58z" />
    <glyph glyph-name="v" unicode="v" horiz-adv-x="1714" 
d="M119 1335v27h338v-27q-4 -1 -23 -3.5t-32 -8.5t-17 -20q-7 -16 51 -148l398 -950l446 1042q7 10 12 29t2 27l-59 24v29h315v-23q-50 -13 -58 -21q-7 -7 -29 -55q-3 -5 -5 -10l-485 -1149q-2 -5 -5 -11.5t-4.5 -9.5t-3 -8t-2 -11.5t-0.5 -16.5l52 -23l-2 -18h-353l4 23
l48 18q0 5 0.5 11.5t0 9t-0.5 6t-2 6.5l-5 7.5t-8 12.5l-491 1161q-1 1 -13 28t-14 30q-22 22 -55 22z" />
    <glyph glyph-name="w" unicode="w" horiz-adv-x="2443" 
d="M119 1335l4 27h303l-8 -29l-51 -30q0 -22 0.5 -24t9.5 -24l350 -1022l363 1035q4 33 4 37l-23 20l-24 2v25h36h289l-4 -27q-14 0 -23 -1.5t-16.5 -9.5t-7.5 -22q-2 -7 1 -19t8.5 -26.5t6.5 -19.5l334 -1002l354 1041q5 28 5 30l-54 27l2 25h301v-27q-38 0 -63 -25
q-19 -21 -27 -63l-383 -1110l-10 -29q-10 -30 -8 -35q3 -15 18 -32q9 -4 17.5 -4t19.5 -5v-20h-346l2 25l49 24q0 27 -8 51l-340 1004l-344 -983q-14 -28 -14 -51q-5 -12 0.5 -27t21.5 -21l29 -6v-14h-334l-6 14h35l20 33q0 19 -8 37l-410 1169q-1 1 -8.5 26.5t-9.5 27.5
q-7 13 -11.5 16.5t-17.5 5.5t-24 6z" />
    <glyph glyph-name="x" unicode="x" horiz-adv-x="1714" 
d="M219 1341v23h359l-5 -27q-34 0 -45 -32q0 -5 31 -47t67.5 -89t37.5 -49l182 -233l315 381q25 29 25 47l-51 22l4 25h342v-27q-11 -2 -27 -4q-25 -4 -34.5 -10.5t-42.5 -44.5q-6 -6 -9 -10l-416 -514l512 -670q1 -1 15.5 -21.5t21.5 -27.5q19 -11 26 -13t23 -2l-2 -18
h-352l4 20l51 23q0 12 -1.5 18.5t-3.5 10t-9 12.5t-14 20l-385 502l-387 -483q-41 -41 -41 -76l59 -27v-20h-350l2 27q16 0 25.5 3.5t14 8t15 16.5t21.5 23l536 665l-405 529q-36 47 -46 53q-8 5 -56 15q-4 0 -7 1z" />
    <glyph glyph-name="y" unicode="y" horiz-adv-x="1722" 
d="M121 1337v27h332l8 -2h12q11 0 25 -4v-17l-62 -24q0 -26 4 -34.5t29 -31.5l369 -503l385 495q44 44 32 70l-55 22l2 23h354l-2 -25q-7 -2 -19 -4.5t-15.5 -3.5t-10.5 -2.5t-10 -5t-7.5 -6.5t-10.5 -10.5t-11 -13.5t-16 -19l-528 -684v-371v-59v-41q0 -58 4 -64
q22 -29 55 -29v-20h-309v20q7 2 19.5 3.5t19.5 6t16 17.5q10 20 10 57v58v59v371l-503 670q-38 52 -47 59q-9 6 -52 13q-9 1 -18 3z" />
    <glyph glyph-name="z" unicode="z" horiz-adv-x="1579" 
d="M152 1133v270h24q4 -13 1.5 -19.5t1.5 -14.5t20 -19q3 -3 11.5 -4t15.5 -1t16.5 0.5t11.5 0.5l1161 2l-944 -1196h672h37h65h58q15 5 32 22l6 29h21v-262h-29q0 37 -33 53q-10 5 -33 5.5t-24 0.5h-1124l938 1186l-803 -2q-50 0 -53 -2q-13 -7 -17 -12.5t-6 -16.5t-6 -20
h-20z" />
    <glyph glyph-name="braceleft" unicode="{" horiz-adv-x="1165" 
d="M635 1552q64 50 169 76.5t197 24.5v-62q-74 -12 -123 -24.5t-89.5 -33.5t-63.5 -47t-39.5 -68t-23 -93t-9.5 -125v-162v-39.5t-0.5 -43.5t-3 -43t-7.5 -46.5t-14 -43.5t-22 -45t-33 -41t-45 -40q-31 -23 -68.5 -41t-82.5 -30.5t-69.5 -18.5t-72.5 -15t-49 -9
q82 -10 141.5 -23t113 -36t88.5 -55.5t61 -79.5t37.5 -110.5t11.5 -146.5v-170q0 -14 -0.5 -41t-0.5 -40.5t1 -37t3.5 -36.5t8 -34t13 -34.5t20 -31.5t28 -32.5t37 -30t48.5 -30.5q45 -24 81.5 -34.5t94.5 -16.5v-62q-70 3 -113 7.5t-99 18.5t-103 44t-91 76
q-34 37 -54 79.5t-25.5 83t-7 86.5t0.5 91v147q0 13 1.5 49t1.5 57.5t-5 56.5t-16.5 60.5t-35 54t-58.5 50.5q-22 15 -44.5 26.5t-50.5 19.5t-46.5 12t-55 11t-53.5 11v49q0 8 1 25t1 26q108 13 173 33t112 62.5t67 109.5t25 174v164v45.5t0.5 46t2.5 41.5t5.5 42.5t10 38
t16.5 40.5t24 37t33.5 39.5t44.5 37.5z" />
    <glyph glyph-name="bar" unicode="|" horiz-adv-x="385" 
d="M119 -541l31 2292h69l-24 -2322h-76v30z" />
    <glyph glyph-name="braceright" unicode="}" horiz-adv-x="1161" 
d="M143 1608v57q284 -15 404 -145q21 -24 36 -45.5t24.5 -47.5t15 -41t8 -46.5t3 -43.5t0 -52t-0.5 -52v-172q0 -14 -1 -46.5t-0.5 -48.5t2.5 -43.5t9.5 -46t19 -41.5t31.5 -43.5t47 -39.5q35 -26 84 -44t83 -25.5t89 -16.5v-52q0 -43 -6 -47q-77 -12 -127.5 -23.5t-94 -31
t-68 -44.5t-43 -66t-26.5 -92t-11 -126v-163q0 -12 -1 -53t-2 -53t-4.5 -46.5t-8.5 -48.5t-14.5 -42t-23 -44.5t-32.5 -39t-45.5 -41.5t-59.5 -38q-75 -40 -142.5 -53t-168.5 -13v64q83 7 144 29t99.5 55t61.5 83t31.5 105t9.5 129v160q0 11 -0.5 46t0 47t3 42.5t7.5 45
t14.5 40.5t24 43.5t36.5 39.5t50 42q30 21 61 36.5t71.5 26.5t59 15.5t72 13.5t62.5 11q-90 17 -141 29t-110.5 34.5t-89.5 51.5t-58 74.5t-38 109t-10 151.5v160q0 14 0.5 46.5t0 46t-1.5 41t-5 41.5t-11 37t-18.5 38t-27 34.5t-38 36t-50.5 33.5q-60 37 -185 62z" />
    <glyph glyph-name="asciitilde" unicode="~" horiz-adv-x="1071" 
d="M653 1681q48 -5 76.5 16t52.5 83q47 -4 125 -4q-9 -42 -18 -70.5t-25.5 -63t-43.5 -60t-64 -42.5q-34 -16 -72 -19t-76 6t-72 20.5t-77 27t-74 22.5q-33 9 -57 6.5t-45 -20.5q-21 -21 -45 -78q-9 0 -17.5 -0.5t-13 -1t-11.5 0.5t-16 3l-16 -2l-12 2l-17 -2h-6l-10 2
q18 92 55.5 155t114.5 91q52 22 103 15t80 -23.5t79.5 -37.5t101.5 -26z" />
    <glyph glyph-name="exclamdown" unicode="&#xa1;" horiz-adv-x="598" 
d="M162 1507q-6 39 13 76t61 55q55 16 102 -10q56 -39 53 -102q0 -64 -55 -99q-51 -30 -103 -10q-27 13 -47 36.5t-24 53.5zM182 1165v27h191v-23q-6 -2 -13.5 -3.5t-10.5 -2t-7.5 -3.5t-7 -9t-6.5 -16q-3 -14 6 -58l55 -983q0 -39 2 -47q3 -5 3.5 -8.5t3 -7t10.5 -11.5
q4 -2 12.5 -3t11.5 -3v-14h-313v14q6 2 17.5 4t16.5 6.5t9 16.5q5 8 5.5 16t-0.5 20t-1 17l53 998q0 3 0.5 12.5t0 14.5t-1.5 13t-3.5 15t-7.5 14z" />
    <glyph glyph-name="cent" unicode="&#xa2;" horiz-adv-x="1449" 
d="M858 1139l121 276h139l-119 -301q71 -23 131 -45q3 0 17 -6t29.5 -13t19.5 -8q2 -1 9.5 -5.5t9 -5t7 -3t7.5 -2t6.5 0t8 1.5t8.5 5t10 7l20 -14l-106 -192l-21 10v28q-24 17 -46.5 30t-36 21t-37 17t-29.5 11.5t-34 11.5t-32 10l-322 -799q89 -15 176 -16t174 25t146 77
q25 16 31.5 28t-0.5 38l24 10l115 -195l-18 -10l-15 8q-97 -41 -146.5 -60.5t-125 -43t-131.5 -29t-130.5 -4t-156.5 17.5l-125 -294h-135l131 337q-108 64 -180.5 152t-103.5 178.5t-29 184.5q1 68 17 134t48.5 131.5t90 124.5t133.5 101q82 45 199.5 63t250.5 7zM805 991
q-75 6 -149 -6t-126 -35q-122 -57 -178.5 -145t-64.5 -205q-17 -233 211 -379z" />
    <glyph glyph-name="sterling" unicode="&#xa3;" horiz-adv-x="1781" 
d="M1313 1571q232 -124 243 -428h-163h-9l-10 -2h-8l-8 2q-24 117 -63 176t-140 100q-45 20 -135.5 26.5t-187 -6t-144.5 -44.5q-69 -43 -94 -98.5t-27 -137.5q-6 -77 31 -219h311v-141h-295q9 -120 2 -216.5t-54.5 -198t-145.5 -220.5q167 58 270 66t270 -19l113 -16
q225 -44 295 32q20 22 32 67.5t15 75t6 79.5h201q0 -45 -0.5 -70t-7.5 -79.5t-19.5 -91.5t-39 -81t-64.5 -74q-53 -42 -130 -64t-159 -22.5t-153.5 7.5t-137.5 24l-131 31q-97 21 -159 23.5t-118 -8t-177 -44.5h-46q-16 -3 -39 -9t-48.5 -11t-67.5 -9v170q100 43 148.5 79.5
t75 91t42.5 153.5q22 133 4 332h-248v149h226q-59 427 184 596q95 65 238 90.5t283.5 8.5t238.5 -70z" />
    <glyph glyph-name="yen" unicode="&#xa5;" horiz-adv-x="1935" 
d="M119 1599l2 23h430l-4 -25l-55 -24v-21l481 -634l454 608q2 2 8 9.5t12.5 19t6.5 18.5l-45 20v25h363l-5 -27q-6 -1 -16.5 -1.5t-19.5 -3t-19 -9.5q-1 -1 -21 -25.5t-26 -29.5l-588 -799v-100q0 -22 6 -31h373q2 -4 2 -51q0 -9 -1 -27t-1 -27h-379v-215h379v-108h-379
v-72q0 -7 -0.5 -16t-0.5 -12.5t1 -8.5t5 -8.5t9.5 -8t16.5 -11.5h31v-27h-346l2 27h30q23 14 27 25t4 40q0 68 -8 74h-402v106h410v215h-410v107h410v119l-612 809q-36 46 -56.5 58.5t-68.5 18.5z" />
    <glyph glyph-name="section" unicode="&#xa7;" horiz-adv-x="1120" 
d="M461 1628q110 17 206 -20t191 -154l-106 -72q-65 75 -125.5 107t-126.5 18q-33 -6 -61.5 -32t-37.5 -60q-11 -46 11.5 -94.5t49 -78t101.5 -101.5l21 -21l129 -123q42 -42 62.5 -63.5t52.5 -56t47 -55t35 -50.5t27.5 -52.5t15 -51t6 -56.5t-8.5 -59q-12 -56 -51 -100
t-98 -64q-21 -6 -94 -16q87 -107 118.5 -196t-2.5 -179q-29 -73 -90.5 -116t-140.5 -56q-115 -19 -204.5 17.5t-190.5 162.5l116 88q54 -95 103 -125.5t135 -21.5q107 7 137 94q8 24 9 46t-8 45.5t-17 40t-32 44.5t-38 43t-49.5 51t-52.5 54l-162 161q-27 28 -45.5 47
t-42 45t-38.5 45t-32 43.5t-27.5 44.5t-19.5 44t-12.5 46.5t-3 47t5.5 49.5q12 59 45 98.5t96 63.5q34 15 113 22q-94 100 -120 172t1 166q51 138 203 168zM365 1020q-36 -9 -61 -33t-32 -59q-27 -106 197 -324q75 -74 133.5 -106.5t112.5 -18.5q35 9 57.5 32.5t30.5 55.5
q10 34 -1.5 73.5t-42 83t-58.5 75.5t-70 75q-85 85 -146.5 122.5t-119.5 23.5z" />
    <glyph glyph-name="dieresis" unicode="&#xa8;" horiz-adv-x="927" 
d="M121 1518v243h217h16l6 -2l9 -4v-237h-248zM510 1511v248h254v-248h-254z" />
    <glyph glyph-name="copyright" unicode="&#xa9;" horiz-adv-x="1816" 
d="M532 1430q121 62 254 77q60 5 124.5 4.5t139.5 -19t145 -47.5t141 -80.5t128 -117.5q68 -79 112.5 -173.5t61 -188.5t12.5 -185.5t-28 -173.5q-54 -190 -184.5 -323.5t-325.5 -194.5q-81 -24 -171 -29t-183.5 9.5t-187 55.5t-171.5 106q-82 67 -141 154t-89.5 177.5
t-41.5 177t-4 166.5q11 86 39 169t76 164t123.5 152t170.5 120zM766 1419q-100 -14 -197 -67q-88 -46 -156.5 -111t-111 -138t-67 -148t-31.5 -152q-14 -148 49 -314.5t209 -283.5q98 -76 215 -113t224 -35t202 35q183 62 292.5 181t155.5 300q39 155 -2.5 331t-161.5 306
q-67 72 -151 121.5t-164 70t-161.5 26.5t-143.5 -9zM1094 1184q69 -44 102.5 -102.5t46.5 -145.5h-156q-23 73 -53.5 112.5t-95.5 59.5q-37 12 -99 3.5t-104 -42.5q-44 -38 -68.5 -121t-28.5 -151t1 -115q14 -184 129 -244q44 -23 109.5 -23t119.5 25q48 27 70.5 68.5
t34.5 105.5q61 -2 121 -2h45q-19 -109 -71.5 -183.5t-156.5 -113.5q-58 -23 -127 -28t-145 14t-135 64q-44 33 -76.5 82.5t-49 100.5t-26 107t-8.5 102.5t4 86.5q4 49 17.5 98t38.5 100t68 94.5t99 69.5q74 40 194 34.5t200 -56.5z" />
    <glyph glyph-name="ordfeminine" unicode="&#xaa;" horiz-adv-x="997" 
d="M408 1733l-29 26h184l-31 -24l248 -576q13 -22 21 -47q4 -13 20 -18l13 -2v-13h-82h-6h-12h-14.5t-15.5 1t-13 2.5t-9 4t-2 5.5l22 10q0 8 -9.5 32t-10.5 27q-24 55 -27 62l-22 45h-328l-67 -160l30 -21h-149q6 5 13 6.5t12 5t10 15.5q4 8 9 21.5t11 23.5zM465 1661
l-127 -318h262z" />
    <glyph glyph-name="guillemotleft" unicode="&#xab;" horiz-adv-x="1138" 
d="M119 520l282 346h183l-271 -344l271 -340h-178zM506 526l282 340h183l-269 -340l271 -342h-180z" />
    <glyph glyph-name="logicalnot" unicode="&#xac;" horiz-adv-x="561" 
d="M301 1419l94 -422h-35l-163 377q-3 6 -13.5 29.5t-19.5 44t-19.5 48.5t-15.5 49.5t-5 42t9 30.5q10 13 31 19.5t43 0.5q27 -7 39 -28t26 -70q22 -85 29 -121z" />
    <glyph glyph-name="registered" unicode="&#xae;" horiz-adv-x="1816" 
d="M528 1430q119 64 248 79q69 14 159.5 4.5t178 -34.5t179 -82t163.5 -137q66 -76 111 -168.5t63.5 -186t16.5 -186t-25 -176.5q-54 -201 -176.5 -331.5t-323.5 -197.5q-108 -35 -227.5 -37t-248.5 38.5t-234 123.5q-109 87 -179 209t-94 238.5t-16 228.5
q11 116 53.5 225.5t133 216t218.5 173.5zM764 1425q-94 -17 -191 -67q-173 -91 -263 -238t-105 -311q-15 -160 47 -321.5t213 -282.5q95 -74 210.5 -110.5t223 -34.5t203.5 34q353 121 446 484q19 75 19 157t-18.5 165t-60.5 165t-104 149q-128 137 -300 187t-320 24z
M549 309v895h287q3 0 42.5 0.5t56 0t58 -3t65.5 -8t61 -16t62 -25.5t51 -38.5t44 -52.5q29 -46 31.5 -108t-23.5 -113q-28 -57 -75 -84.5t-126 -50.5q90 -43 128.5 -81.5t64.5 -131.5q5 -18 8.5 -33.5t5.5 -31t3.5 -24t2 -24.5t0.5 -20.5v-23.5v-22h-184q0 4 -1 29t-2 35
t-3 35.5t-6 40t-9.5 37.5t-14.5 38t-20.5 32t-27.5 30t-35 22q-25 12 -128.5 17.5t-157.5 1.5v-322h-158zM707 1061v-285h47q8 0 39 -1t53 -0.5t56.5 2t61 7t55 14t49 23.5t32.5 35q18 29 19.5 67.5t-11.5 63.5q-16 28 -44.5 45.5t-68.5 23t-67 7.5t-71 0t-48 -2h-102z" />
    <glyph glyph-name="macron" unicode="&#xaf;" horiz-adv-x="1013" 
d="M121 1563v147h727v-78q0 -58 -4 -69h-723z" />
    <glyph glyph-name="plusminus" unicode="&#xb1;" horiz-adv-x="1601" 
d="M735 1325l6 10h97v-377l600 3v-109h-604v-381h-101v375l-604 -2v112h606v369zM129 129v94l1257 4l48 -6q-4 -36 -4 -92h-1301z" />
    <glyph glyph-name="acute" unicode="&#xb4;" horiz-adv-x="776" 
d="M119 1497l196 320h297l-317 -320h-176z" />
    <glyph glyph-name="mu" unicode="&#xb5;" horiz-adv-x="1519" 
d="M176 956l4 9h185v-465q0 -20 -2 -54t-2.5 -54.5t1 -50.5t8.5 -51.5t20 -46t36 -46t55 -41.5q47 -27 106.5 -26.5t100.5 24.5q22 12 39.5 34t28.5 43.5t19 55.5t12 56.5t6 61t2.5 54t0 51.5t-0.5 37v411h202v-532q0 -3 -1 -30t-1 -47.5t3 -53.5t9.5 -57.5t20.5 -48.5
t33 -37q27 -22 67.5 -25.5t63.5 8.5q57 25 82 111l18 63q0 47 23 58q8 0 14 -2t10 -4.5t6.5 -7.5t4 -9t2 -11t0.5 -10.5v-10.5v-9q6 -46 0 -82q-9 -108 -60 -168q-29 -32 -72 -48.5t-79 -16t-68 5.5q-37 9 -66 28t-46.5 39t-32.5 52t-22.5 54t-16.5 58q-16 -50 -53 -110
q-48 -72 -106.5 -97.5t-131.5 -25.5q-30 0 -55 4.5t-43 9.5t-36.5 19t-29.5 23t-28 31.5t-25 35.5t-27.5 43.5t-29.5 46.5v-318q0 -3 1.5 -34.5t2 -51.5t0 -56.5t-4 -62.5t-10 -55t-18 -48.5t-27.5 -29.5q-23 -13 -50 -13t-46 13q-74 45 -44 288q1 6 1 9z" />
    <glyph glyph-name="paragraph" unicode="&#xb6;" horiz-adv-x="1247" 
d="M682 1602h401v-52h-157l2 -1755h-72v1755h-223v-1755h-72v928q-50 2 -98.5 10.5t-105.5 28.5t-105.5 60t-77.5 96q-53 99 -52 253t58 244q18 30 41 55.5t44 43.5t50.5 32.5t50.5 24t55.5 16t53.5 9.5t56 4.5t52 2t52 0t47 -0.5z" />
    <glyph glyph-name="periodcentered" unicode="&#xb7;" horiz-adv-x="782" 
d="M203 -207l145 201h103l-86 -135q140 19 208 -54q57 -54 41 -143q-14 -96 -114 -143q-57 -29 -115 -34t-118.5 9t-147.5 49l37 88q171 -66 243 -12q40 29 37 72q-3 38 -47 63q-19 11 -43 13t-42 -1t-56 -12z" />
    <glyph glyph-name="guillemotright" unicode="&#xbb;" horiz-adv-x="1140" 
d="M131 858v8q6 0 21.5 -1t21.5 -1h131l285 -346l-287 -338h-182l268 342zM780 518l-262 346q5 0 16.5 -2t16.5 -2h145l281 -346l-285 -338h-184z" />
    <glyph glyph-name="questiondown" unicode="&#xbf;" horiz-adv-x="1255" 
d="M473 1511q-3 42 17 76t63 51q58 15 106 -20q49 -43 46 -98q-4 -60 -64 -95q-48 -28 -100 -6q-59 30 -68 92zM449 1169l2 27h280v-33h-31q-20 -57 -32.5 -120.5t-19 -102t-37.5 -98.5t-91 -129l-33 -33q-109 -118 -136 -158q-53 -77 -44 -158q3 -23 10 -49
q15 -60 51.5 -99t102.5 -60q51 -12 111.5 -10t133 28.5t128.5 73.5q41 34 57 61q20 38 0 64l14 14l177 -190l-15 -17l-24 15q-98 -73 -158.5 -112.5t-123.5 -71.5t-115.5 -40t-111 -3.5t-134.5 24.5q-110 29 -178.5 91t-98.5 169q-38 141 3 246t200 270l43 47
q154 171 127 303q-5 12 -3 15.5t-0.5 8.5t-15.5 17q-8 8 -21 8t-17 2z" />
    <glyph glyph-name="Agrave" unicode="&#xc0;" horiz-adv-x="2091" 
d="M778 2099l-4 10h299l197 -321h-174zM997 1444l-346 -805h690zM848 1571q2 13 -7 20t-44 8v23h59h365v-23q-18 -6 -23.5 -8t-13 -7t-9 -11t-1.5 -17q0 -4 11.5 -31t14.5 -32l633 -1382q19 -50 31 -62q26 -26 55 -26l8 -23h-371v20q2 1 17 4.5t20.5 10.5t5.5 24
q-4 9 -11 30t-11 30l-51 123l-92 211h-867l-88 -205l-51 -119q-6 -12 -14 -36t-8 -25q5 -15 8 -20.5t5 -7.5t12.5 -4.5t19.5 -6.5v-29h-332v29q23 5 33.5 8.5t19.5 5.5t13.5 10t8 12t10 21.5t11.5 28.5l610 1403q21 37 23 53z" />
    <glyph glyph-name="Aacute" unicode="&#xc1;" horiz-adv-x="2091" 
d="M776 1790l197 319h297l-318 -319h-176zM997 1444l-346 -805h690zM848 1571q2 13 -7 20t-44 8v23h59h365v-23q-18 -6 -23.5 -8t-13 -7t-9 -11t-1.5 -17q0 -4 11.5 -31t14.5 -32l633 -1382q19 -50 31 -62q26 -26 55 -26l8 -23h-371v20q2 1 17 4.5t20.5 10.5t5.5 24
q-4 9 -11 30t-11 30l-51 123l-92 211h-867l-88 -205l-51 -119q-6 -12 -14 -36t-8 -25q5 -15 8 -20.5t5 -7.5t12.5 -4.5t19.5 -6.5v-29h-332v29q23 5 33.5 8.5t19.5 5.5t13.5 10t8 12t10 21.5t11.5 28.5l610 1403q21 37 23 53z" />
    <glyph glyph-name="Acircumflex" unicode="&#xc2;" horiz-adv-x="2091" 
d="M664 1790l237 324h242l239 -324h-202l-158 197l-156 -197h-202zM997 1444l-346 -805h690zM848 1571q2 13 -7 20t-44 8v23h59h365v-23q-18 -6 -23.5 -8t-13 -7t-9 -11t-1.5 -17q0 -4 11.5 -31t14.5 -32l633 -1382q19 -50 31 -62q26 -26 55 -26l8 -23h-371v20q2 1 17 4.5
t20.5 10.5t5.5 24q-4 9 -11 30t-11 30l-51 123l-92 211h-867l-88 -205l-51 -119q-6 -12 -14 -36t-8 -25q5 -15 8 -20.5t5 -7.5t12.5 -4.5t19.5 -6.5v-29h-332v29q23 5 33.5 8.5t19.5 5.5t13.5 10t8 12t10 21.5t11.5 28.5l610 1403q21 37 23 53z" />
    <glyph glyph-name="Atilde" unicode="&#xc3;" horiz-adv-x="2091" 
d="M1163 1964q49 -5 77 16t54 84q47 -6 123 -6q-9 -42 -18 -70.5t-25.5 -62.5t-43 -59.5t-62.5 -42.5q-35 -16 -72.5 -18.5t-76.5 6.5t-72.5 20.5t-77 27t-74.5 23.5q-32 7 -56.5 4.5t-43.5 -20.5q-20 -18 -45 -76q-9 0 -20.5 -1.5t-20 -1t-19.5 4.5l-14 -2l-14 2l-17 -2h-6
l-8 2q9 43 19.5 76t29 68t49 61t70.5 41q53 15 84.5 15t67.5 -12.5t61.5 -27.5t66.5 -30t84 -19zM997 1444l-346 -805h690zM848 1571q2 13 -7 20t-44 8v23h59h365v-23q-18 -6 -23.5 -8t-13 -7t-9 -11t-1.5 -17q0 -4 11.5 -31t14.5 -32l633 -1382q19 -50 31 -62
q26 -26 55 -26l8 -23h-371v20q2 1 17 4.5t20.5 10.5t5.5 24q-4 9 -11 30t-11 30l-51 123l-92 211h-867l-88 -205l-51 -119q-6 -12 -14 -36t-8 -25q5 -15 8 -20.5t5 -7.5t12.5 -4.5t19.5 -6.5v-29h-332v29q23 5 33.5 8.5t19.5 5.5t13.5 10t8 12t10 21.5t11.5 28.5l610 1403
q21 37 23 53z" />
    <glyph glyph-name="Adieresis" unicode="&#xc4;" horiz-adv-x="2091" 
d="M705 1792v246h215h16l6 -4l10 -4v-238h-247zM1094 1788v246h252v-246h-252zM997 1444l-346 -805h690zM848 1571q2 13 -7 20t-44 8v23h59h365v-23q-18 -6 -23.5 -8t-13 -7t-9 -11t-1.5 -17q0 -4 11.5 -31t14.5 -32l633 -1382q19 -50 31 -62q26 -26 55 -26l8 -23h-371v20
q2 1 17 4.5t20.5 10.5t5.5 24q-4 9 -11 30t-11 30l-51 123l-92 211h-867l-88 -205l-51 -119q-6 -12 -14 -36t-8 -25q5 -15 8 -20.5t5 -7.5t12.5 -4.5t19.5 -6.5v-29h-332v29q23 5 33.5 8.5t19.5 5.5t13.5 10t8 12t10 21.5t11.5 28.5l610 1403q21 37 23 53z" />
    <glyph glyph-name="Aring" unicode="&#xc5;" horiz-adv-x="2091" 
d="M803 2443q73 38 131 45q90 17 200.5 -7t188.5 -107q59 -60 78.5 -150t1.5 -172q-46 -174 -221 -237q-58 -21 -131.5 -25t-150 14t-128.5 56q-81 62 -110.5 136.5t-24.5 166.5q3 82 43.5 156.5t122.5 123.5zM934 2404q-70 -22 -113 -59q-58 -50 -78 -117.5t-14 -126.5
q6 -60 44 -115t99 -88q66 -33 152 -32t150 32q133 73 147 216q13 136 -96 231q-40 34 -96.5 52t-105 17t-89.5 -10zM997 1444l-346 -805h690zM848 1571q2 13 -7 20t-44 8v23h59h365v-23q-18 -6 -23.5 -8t-13 -7t-9 -11t-1.5 -17q0 -4 11.5 -31t14.5 -32l633 -1382
q19 -50 31 -62q26 -26 55 -26l8 -23h-371v20q2 1 17 4.5t20.5 10.5t5.5 24q-4 9 -11 30t-11 30l-51 123l-92 211h-867l-88 -205l-51 -119q-6 -12 -14 -36t-8 -25q5 -15 8 -20.5t5 -7.5t12.5 -4.5t19.5 -6.5v-29h-332v29q23 5 33.5 8.5t19.5 5.5t13.5 10t8 12t10 21.5
t11.5 28.5l610 1403q21 37 23 53z" />
    <glyph glyph-name="AE" unicode="&#xc6;" horiz-adv-x="2484" 
d="M2294 1686l2 6h20v-359h-22q-1 5 -3.5 15.5t-3.5 13.5t-3 11t-3.5 9.5t-4.5 7t-6.5 7t-8 4.5t-10 4.5t-13 3.5t-16.5 4q-18 2 -111 2h-747v-522h436h115q3 0 13.5 -0.5t16 0t14 3.5t15.5 9q11 10 14.5 18.5t3.5 19t3 18.5h22v-340h-22q-14 54 -27.5 67t-62.5 17h-129
h-418v-515l825 -4q55 0 68 9q14 7 20 15.5t8.5 23.5t4.5 20h20v-340l-23 -2q-2 8 -4 22t-4 19t-8.5 14t-19.5 17q-11 7 -78 10h-1098v31q9 2 23.5 3t21.5 5.5t16 19.5q5 12 5 64v127v196h-566l-159 -336q-1 -1 -4.5 -7.5t-4.5 -7.5t-4 -6.5t-3 -7t-2 -6t-2.5 -7t-1 -6.5
t0 -7t1 -7.5t1.5 -8.5l37 -13v-20h-307v23q8 4 18 8t13.5 5t8 4t7 5.5t6.5 7.5q12 21 27 56l671 1390q1 2 7.5 16.5t12 28.5t5.5 17q-4 10 -4.5 12t-4 8.5t-5 7.5l-6 4t-9.5 3.5t-12 0.5l-8 25l1354 -4q9 0 33 3t28 7q31 9 31 58zM1128 1511q-5 4 -8.5 6t-7 3.5t-5.5 2.5
t-5 0t-4 -1t-4.5 -3t-5 -4.5l-6 -6l-7.5 -7.5q-6 -7 -14 -30l-8 -23l-385 -817h467l-2 825q0 42 -5 55z" />
    <glyph glyph-name="Egrave" unicode="&#xc8;" horiz-adv-x="1841" 
d="M653 2163l-6 8h301l195 -322h-172zM1520 0h-1391v29q46 -3 66 26q6 9 6 60v1390q0 61 -2 64q-8 14 -23 21t-26 7h-11v25h1399q63 0 74 8q17 7 23 14.5t9 25t5 24.5h26v-346h-26q-18 54 -37 65.5t-74 11.5h-12h-1094v-516h729q80 0 86 2q24 8 38 24.5t16 28.5l2 13h22
v-342h-25q-17 58 -33.5 69.5t-76.5 14.5h-758v-537h1022h51h56q38 0 51 13q12 9 17.5 22.5t4.5 22.5v10h27v-328h-29v8v9t-1 8.5t-3.5 10.5t-7 10t-11.5 12t-16 12q-14 8 -73 8z" />
    <glyph glyph-name="Eacute" unicode="&#xc9;" horiz-adv-x="1841" 
d="M651 1851l195 320h297l-318 -320h-174zM1520 0h-1391v29q46 -3 66 26q6 9 6 60v1390q0 61 -2 64q-8 14 -23 21t-26 7h-11v25h1399q63 0 74 8q17 7 23 14.5t9 25t5 24.5h26v-346h-26q-18 54 -37 65.5t-74 11.5h-12h-1094v-516h729q80 0 86 2q24 8 38 24.5t16 28.5l2 13h22
v-342h-25q-17 58 -33.5 69.5t-76.5 14.5h-758v-537h1022h51h56q38 0 51 13q12 9 17.5 22.5t4.5 22.5v10h27v-328h-29v8v9t-1 8.5t-3.5 10.5t-7 10t-11.5 12t-16 12q-14 8 -73 8z" />
    <glyph glyph-name="Ecircumflex" unicode="&#xca;" horiz-adv-x="1841" 
d="M539 1851l235 326h244l237 -326h-202l-158 199l-154 -199h-202zM1520 0h-1391v29q46 -3 66 26q6 9 6 60v1390q0 61 -2 64q-8 14 -23 21t-26 7h-11v25h1399q63 0 74 8q17 7 23 14.5t9 25t5 24.5h26v-346h-26q-18 54 -37 65.5t-74 11.5h-12h-1094v-516h729q80 0 86 2
q24 8 38 24.5t16 28.5l2 13h22v-342h-25q-17 58 -33.5 69.5t-76.5 14.5h-758v-537h1022h51h56q38 0 51 13q12 9 17.5 22.5t4.5 22.5v10h27v-328h-29v8v9t-1 8.5t-3.5 10.5t-7 10t-11.5 12t-16 12q-14 8 -73 8z" />
    <glyph glyph-name="Edieresis" unicode="&#xcb;" horiz-adv-x="1841" 
d="M578 1853v246h217h16l6 -2l8 -4v-240h-247zM969 1849v248h252v-248h-252zM1520 0h-1391v29q46 -3 66 26q6 9 6 60v1390q0 61 -2 64q-8 14 -23 21t-26 7h-11v25h1399q63 0 74 8q17 7 23 14.5t9 25t5 24.5h26v-346h-26q-18 54 -37 65.5t-74 11.5h-12h-1094v-516h729
q80 0 86 2q24 8 38 24.5t16 28.5l2 13h22v-342h-25q-17 58 -33.5 69.5t-76.5 14.5h-758v-537h1022h51h56q38 0 51 13q12 9 17.5 22.5t4.5 22.5v10h27v-328h-29v8v9t-1 8.5t-3.5 10.5t-7 10t-11.5 12t-16 12q-14 8 -73 8z" />
    <glyph glyph-name="Igrave" unicode="&#xcc;" horiz-adv-x="618" 
d="M41 2097l-4 10h299l194 -323h-172zM162 1583q-2 2 -31 14l2 25h320v-31l-23 -4q-6 -4 -10.5 -11t-7 -12.5t-3.5 -15t-1 -14.5v-15v-12v-1409q0 -36 6 -49q13 -24 43 -31v-18h-338v23q34 0 45 22q8 13 8 53v1413q0 64 -10 72z" />
    <glyph glyph-name="Iacute" unicode="&#xcd;" horiz-adv-x="618" 
d="M39 1788l194 319h297l-317 -319h-174zM162 1583q-2 2 -31 14l2 25h320v-31l-23 -4q-6 -4 -10.5 -11t-7 -12.5t-3.5 -15t-1 -14.5v-15v-12v-1409q0 -36 6 -49q13 -24 43 -31v-18h-338v23q34 0 45 22q8 13 8 53v1413q0 64 -10 72z" />
    <glyph glyph-name="Icircumflex" unicode="&#xce;" horiz-adv-x="618" 
d="M-74 1788l236 323h244l237 -323h-203l-157 197l-154 -197h-203zM162 1583q-2 2 -31 14l2 25h320v-31l-23 -4q-6 -4 -10.5 -11t-7 -12.5t-3.5 -15t-1 -14.5v-15v-12v-1409q0 -36 6 -49q13 -24 43 -31v-18h-338v23q34 0 45 22q8 13 8 53v1413q0 64 -10 72z" />
    <glyph glyph-name="Idieresis" unicode="&#xcf;" horiz-adv-x="618" 
d="M-33 1790v244h215h17l6 -2l8 -4v-238h-246zM356 1784v248h252v-248h-252zM162 1583q-2 2 -31 14l2 25h320v-31l-23 -4q-6 -4 -10.5 -11t-7 -12.5t-3.5 -15t-1 -14.5v-15v-12v-1409q0 -36 6 -49q13 -24 43 -31v-18h-338v23q34 0 45 22q8 13 8 53v1413q0 64 -10 72z" />
    <glyph glyph-name="Ntilde" unicode="&#xd1;" horiz-adv-x="1998" 
d="M1116 1964q49 -5 77 16t54 84q47 -6 123 -6q-9 -42 -18 -70.5t-25.5 -62.5t-43 -59.5t-62.5 -42.5q-35 -16 -72.5 -18.5t-76.5 6.5t-72.5 20.5t-77 27t-74.5 23.5q-32 7 -56.5 4.5t-43.5 -20.5q-22 -19 -46 -76q-9 0 -20.5 -1.5t-19.5 -1t-19 4.5l-14 -2l-15 2l-16 -2h-6
l-8 2q9 43 19.5 76t29 68t49 61t70.5 41q53 15 84.5 15t67.5 -12.5t61.5 -27.5t66.5 -30t84 -19zM180 39q15 11 15 80v47v1272v29v27.5t-0.5 23t-2.5 22.5t-5 17.5t-7.5 17t-11.5 13t-16 12t-21 8.5v14h440v-25q-35 -2 -47 -20q-3 -6 -3.5 -12t0 -10.5t5 -12t7 -10.5
t9.5 -11.5t9 -11.5l1012 -1192v1199q0 46 -11 59q-6 11 -14 15t-21 4t-18 1v27h336v-27q-13 -3 -22.5 -5t-17.5 -4t-13.5 -6t-9.5 -5t-6.5 -8t-4 -9t-2 -12t-0.5 -13.5v-18.5v-21v-1380q0 -63 6.5 -73.5t57.5 -19.5v-20h-383v25q4 1 19 2.5t24 7t12 18.5q2 15 -51 74
l-1057 1235v-1159v-43v-45q0 -57 9.5 -72t62.5 -25v-18h-336v23q34 -4 57 16z" />
    <glyph glyph-name="Ograve" unicode="&#xd2;" horiz-adv-x="2131" 
d="M604 1542q88 42 153.5 60.5t157.5 29.5q62 10 136 7t148.5 -11.5t154 -33.5t152.5 -60.5t144.5 -91t129.5 -125.5q66 -81 110.5 -185t62 -209t13 -207.5t-30.5 -187.5q-67 -214 -196.5 -343t-349.5 -191q-107 -31 -230.5 -39t-256.5 8t-266 71.5t-237 145.5
q-72 61 -126.5 134.5t-85.5 147t-49 152t-17.5 151t8.5 144.5q55 429 475 633zM799 2111l-4 9h299l196 -322h-174zM858 1430q-71 -14 -149 -50t-138 -86q-73 -62 -122.5 -138t-69.5 -148t-27.5 -147.5t2.5 -135.5q25 -326 310 -489q106 -59 240.5 -80.5t266 -4t236.5 69.5
q74 35 133.5 87t97.5 112t61.5 121t33.5 123q5 49 6.5 105t-11 124t-33 131.5t-58.5 128t-89 113.5q-70 66 -166.5 108.5t-193 56.5t-180.5 13t-150 -14z" />
    <glyph glyph-name="Oacute" unicode="&#xd3;" horiz-adv-x="2131" 
d="M604 1542q88 42 153.5 60.5t157.5 29.5q62 10 136 7t148.5 -11.5t154 -33.5t152.5 -60.5t144.5 -91t129.5 -125.5q66 -81 110.5 -185t62 -209t13 -207.5t-30.5 -187.5q-67 -214 -196.5 -343t-349.5 -191q-107 -31 -230.5 -39t-256.5 8t-266 71.5t-237 145.5
q-72 61 -126.5 134.5t-85.5 147t-49 152t-17.5 151t8.5 144.5q55 429 475 633zM797 1800l196 320h297l-317 -320h-176zM858 1430q-71 -14 -149 -50t-138 -86q-73 -62 -122.5 -138t-69.5 -148t-27.5 -147.5t2.5 -135.5q25 -326 310 -489q106 -59 240.5 -80.5t266 -4
t236.5 69.5q74 35 133.5 87t97.5 112t61.5 121t33.5 123q5 49 6.5 105t-11 124t-33 131.5t-58.5 128t-89 113.5q-70 66 -166.5 108.5t-193 56.5t-180.5 13t-150 -14z" />
    <glyph glyph-name="Ocircumflex" unicode="&#xd4;" horiz-adv-x="2131" 
d="M604 1542q88 42 153.5 60.5t157.5 29.5q62 10 136 7t148.5 -11.5t154 -33.5t152.5 -60.5t144.5 -91t129.5 -125.5q66 -81 110.5 -185t62 -209t13 -207.5t-30.5 -187.5q-67 -214 -196.5 -343t-349.5 -191q-107 -31 -230.5 -39t-256.5 8t-266 71.5t-237 145.5
q-72 61 -126.5 134.5t-85.5 147t-49 152t-17.5 151t8.5 144.5q55 429 475 633zM684 1800l236 324h243l240 -324h-203l-158 199l-157 -199h-201zM858 1430q-71 -14 -149 -50t-138 -86q-73 -62 -122.5 -138t-69.5 -148t-27.5 -147.5t2.5 -135.5q25 -326 310 -489
q106 -59 240.5 -80.5t266 -4t236.5 69.5q74 35 133.5 87t97.5 112t61.5 121t33.5 123q5 49 6.5 105t-11 124t-33 131.5t-58.5 128t-89 113.5q-70 66 -166.5 108.5t-193 56.5t-180.5 13t-150 -14z" />
    <glyph glyph-name="Otilde" unicode="&#xd5;" horiz-adv-x="2131" 
d="M604 1542q88 42 153.5 60.5t157.5 29.5q62 10 136 7t148.5 -11.5t154 -33.5t152.5 -60.5t144.5 -91t129.5 -125.5q66 -81 110.5 -185t62 -209t13 -207.5t-30.5 -187.5q-67 -214 -196.5 -343t-349.5 -191q-107 -31 -230.5 -39t-256.5 8t-266 71.5t-237 145.5
q-72 61 -126.5 134.5t-85.5 147t-49 152t-17.5 151t8.5 144.5q55 429 475 633zM1184 1976q49 -5 77 15.5t54 83.5q47 -4 123 -4q-9 -42 -18 -70.5t-25.5 -63t-43.5 -60t-63 -42.5q-35 -16 -73 -19t-76 6t-72 20.5t-77.5 27t-74.5 22.5q-33 9 -57 6t-43 -22q-19 -14 -45 -76
q-9 0 -20.5 -1t-19.5 -0.5t-19 3.5l-15 -2l-14 2l-16 -2h-7l-8 2q16 91 53.5 154.5t114.5 91.5q53 15 85 15t67.5 -12t61.5 -26.5t67 -29.5t84 -19zM858 1430q-71 -14 -149 -50t-138 -86q-73 -62 -122.5 -138t-69.5 -148t-27.5 -147.5t2.5 -135.5q25 -326 310 -489
q106 -59 240.5 -80.5t266 -4t236.5 69.5q74 35 133.5 87t97.5 112t61.5 121t33.5 123q5 49 6.5 105t-11 124t-33 131.5t-58.5 128t-89 113.5q-70 66 -166.5 108.5t-193 56.5t-180.5 13t-150 -14z" />
    <glyph glyph-name="Odieresis" unicode="&#xd6;" horiz-adv-x="2131" 
d="M604 1542q88 42 153.5 60.5t157.5 29.5q62 10 136 7t148.5 -11.5t154 -33.5t152.5 -60.5t144.5 -91t129.5 -125.5q66 -81 110.5 -185t62 -209t13 -207.5t-30.5 -187.5q-67 -214 -196.5 -343t-349.5 -191q-107 -31 -230.5 -39t-256.5 8t-266 71.5t-237 145.5
q-72 61 -126.5 134.5t-85.5 147t-49 152t-17.5 151t8.5 144.5q55 429 475 633zM725 1802v246h215h16l7 -2l10 -4v-240h-248zM1114 1798v248h252v-248h-252zM858 1430q-71 -14 -149 -50t-138 -86q-73 -62 -122.5 -138t-69.5 -148t-27.5 -147.5t2.5 -135.5q25 -326 310 -489
q106 -59 240.5 -80.5t266 -4t236.5 69.5q74 35 133.5 87t97.5 112t61.5 121t33.5 123q5 49 6.5 105t-11 124t-33 131.5t-58.5 128t-89 113.5q-70 66 -166.5 108.5t-193 56.5t-180.5 13t-150 -14z" />
    <glyph glyph-name="Oslash" unicode="&#xd8;" horiz-adv-x="2125" 
d="M1534 1520l158 182h184l-215 -264q80 -72 140 -155t93.5 -164t52.5 -167t18 -164t-11 -155q-34 -207 -144.5 -355t-328.5 -245q-119 -51 -289 -65.5t-352 16.5t-314 106l-168 -201h-198l235 293q-180 171 -240 378t-22 401q82 433 531 616q121 48 269 60t307.5 -17.5
t293.5 -99.5zM1403 1366q-130 56 -274.5 74.5t-243.5 -2.5q-190 -32 -314 -130.5t-190 -285.5q-24 -69 -30 -151.5t7.5 -173.5t58 -185.5t115.5 -171.5zM1528 1282l-869 -1038q130 -67 285.5 -86.5t276.5 6.5q199 39 311.5 135t173.5 287q27 82 31 170.5t-15 178.5
t-68.5 180t-125.5 167z" />
    <glyph glyph-name="Ugrave" unicode="&#xd9;" horiz-adv-x="1939" 
d="M702 2099l-4 10h299l195 -321h-172zM1733 1577q-13 -11 -13 -53v-854q0 -180 -21 -277q-49 -234 -229 -334q-118 -69 -323 -92.5t-410.5 4t-324.5 97.5q-42 25 -75.5 53t-58.5 53.5t-44 60t-31.5 59.5t-21 65t-12.5 64t-6.5 69.5t-2.5 68v72.5v868v62q-8 27 -13 31.5
t-32 4.5l2 29h315v-31l-51 -20v-938q1 -35 -1 -75.5t5 -89t19.5 -92.5t43 -86t74.5 -69q77 -47 242 -65.5t329.5 -2t243.5 61.5q35 19 62 45.5t44 55.5t29 62t17.5 65.5t9 66t2.5 63.5t0 59v28v845q0 67 -14 78l-27 4v21h316v-25q-31 -2 -43 -12z" />
    <glyph glyph-name="Uacute" unicode="&#xda;" horiz-adv-x="1939" 
d="M700 1790l195 319h297l-318 -319h-174zM1733 1577q-13 -11 -13 -53v-854q0 -180 -21 -277q-49 -234 -229 -334q-118 -69 -323 -92.5t-410.5 4t-324.5 97.5q-42 25 -75.5 53t-58.5 53.5t-44 60t-31.5 59.5t-21 65t-12.5 64t-6.5 69.5t-2.5 68v72.5v868v62q-8 27 -13 31.5
t-32 4.5l2 29h315v-31l-51 -20v-938q1 -35 -1 -75.5t5 -89t19.5 -92.5t43 -86t74.5 -69q77 -47 242 -65.5t329.5 -2t243.5 61.5q35 19 62 45.5t44 55.5t29 62t17.5 65.5t9 66t2.5 63.5t0 59v28v845q0 67 -14 78l-27 4v21h316v-25q-31 -2 -43 -12z" />
    <glyph glyph-name="Ucircumflex" unicode="&#xdb;" horiz-adv-x="1939" 
d="M588 1790l235 324h244l238 -324h-203l-156 197l-155 -197h-203zM1733 1577q-13 -11 -13 -53v-854q0 -180 -21 -277q-49 -234 -229 -334q-118 -69 -323 -92.5t-410.5 4t-324.5 97.5q-42 25 -75.5 53t-58.5 53.5t-44 60t-31.5 59.5t-21 65t-12.5 64t-6.5 69.5t-2.5 68v72.5
v868v62q-8 27 -13 31.5t-32 4.5l2 29h315v-31l-51 -20v-938q1 -35 -1 -75.5t5 -89t19.5 -92.5t43 -86t74.5 -69q77 -47 242 -65.5t329.5 -2t243.5 61.5q35 19 62 45.5t44 55.5t29 62t17.5 65.5t9 66t2.5 63.5t0 59v28v845q0 67 -14 78l-27 4v21h316v-25q-31 -2 -43 -12z" />
    <glyph glyph-name="Udieresis" unicode="&#xdc;" horiz-adv-x="1939" 
d="M629 1792v246h215h16l6 -4l8 -4v-238h-245zM1018 1788v246h252v-246h-252zM1733 1577q-13 -11 -13 -53v-854q0 -180 -21 -277q-49 -234 -229 -334q-118 -69 -323 -92.5t-410.5 4t-324.5 97.5q-42 25 -75.5 53t-58.5 53.5t-44 60t-31.5 59.5t-21 65t-12.5 64t-6.5 69.5
t-2.5 68v72.5v868v62q-8 27 -13 31.5t-32 4.5l2 29h315v-31l-51 -20v-938q1 -35 -1 -75.5t5 -89t19.5 -92.5t43 -86t74.5 -69q77 -47 242 -65.5t329.5 -2t243.5 61.5q35 19 62 45.5t44 55.5t29 62t17.5 65.5t9 66t2.5 63.5t0 59v28v845q0 67 -14 78l-27 4v21h316v-25
q-31 -2 -43 -12z" />
    <glyph glyph-name="agrave" unicode="&#xe0;" horiz-adv-x="1712" 
d="M588 1800l-4 10h299l194 -321h-172zM825 1153l-272 -631h537zM1280 72l-76 178l-51 110h-666l-110 -260q-3 -6 -7.5 -14.5t-5.5 -11.5t-2.5 -10t-1.5 -17l56 -27v-20h-297v23q12 4 18 2.5t15 2t22 15.5l29 57l489 1153q2 5 5 11.5t4.5 10t2.5 11t1 19.5l-58 22v29h371
l-4 -31h-6h-6.5t-7 -0.5t-8 -2t-7 -3.5t-7.5 -5.5t-6 -8.5t-5 -11q-3 -14 24 -67l479 -1121q12 -24 23 -57q33 -33 59 -24v-25h-315v31h31q11 8 13.5 11t6.5 12t-2 18z" />
    <glyph glyph-name="aacute" unicode="&#xe1;" horiz-adv-x="1712" 
d="M586 1489l194 321h297l-317 -321h-174zM825 1153l-272 -631h537zM1280 72l-76 178l-51 110h-666l-110 -260q-3 -6 -7.5 -14.5t-5.5 -11.5t-2.5 -10t-1.5 -17l56 -27v-20h-297v23q12 4 18 2.5t15 2t22 15.5l29 57l489 1153q2 5 5 11.5t4.5 10t2.5 11t1 19.5l-58 22v29h371
l-4 -31h-6h-6.5t-7 -0.5t-8 -2t-7 -3.5t-7.5 -5.5t-6 -8.5t-5 -11q-3 -14 24 -67l479 -1121q12 -24 23 -57q33 -33 59 -24v-25h-315v31h31q11 8 13.5 11t6.5 12t-2 18z" />
    <glyph glyph-name="acircumflex" unicode="&#xe2;" horiz-adv-x="1712" 
d="M473 1489l236 326h243l238 -326h-203l-158 199l-153 -199h-203zM825 1153l-272 -631h537zM1280 72l-76 178l-51 110h-666l-110 -260q-3 -6 -7.5 -14.5t-5.5 -11.5t-2.5 -10t-1.5 -17l56 -27v-20h-297v23q12 4 18 2.5t15 2t22 15.5l29 57l489 1153q2 5 5 11.5t4.5 10
t2.5 11t1 19.5l-58 22v29h371l-4 -31h-6h-6.5t-7 -0.5t-8 -2t-7 -3.5t-7.5 -5.5t-6 -8.5t-5 -11q-3 -14 24 -67l479 -1121q12 -24 23 -57q33 -33 59 -24v-25h-315v31h31q11 8 13.5 11t6.5 12t-2 18z" />
    <glyph glyph-name="atilde" unicode="&#xe3;" horiz-adv-x="1712" 
d="M973 1665q47 -5 76 16t53 84q45 -6 125 -6q-9 -42 -18 -70.5t-26 -62.5t-44 -59.5t-64 -42.5q-34 -16 -71.5 -19t-76 6.5t-72 21t-77 27t-73.5 23.5q-32 7 -57 4.5t-44 -20.5q-24 -21 -45 -78q-9 0 -18.5 -0.5t-13.5 -0.5t-11 1t-16 4l-17 -4l-12 4l-16 -4h-9l-8 4
q18 91 55.5 154t114.5 90q52 22 103 15t80 -23.5t80 -37.5t102 -26zM825 1153l-272 -631h537zM1280 72l-76 178l-51 110h-666l-110 -260q-3 -6 -7.5 -14.5t-5.5 -11.5t-2.5 -10t-1.5 -17l56 -27v-20h-297v23q12 4 18 2.5t15 2t22 15.5l29 57l489 1153q2 5 5 11.5t4.5 10
t2.5 11t1 19.5l-58 22v29h371l-4 -31h-6h-6.5t-7 -0.5t-8 -2t-7 -3.5t-7.5 -5.5t-6 -8.5t-5 -11q-3 -14 24 -67l479 -1121q12 -24 23 -57q33 -33 59 -24v-25h-315v31h31q11 8 13.5 11t6.5 12t-2 18z" />
    <glyph glyph-name="adieresis" unicode="&#xe4;" horiz-adv-x="1712" 
d="M514 1493v244h215h16l7 -2l8 -4v-238h-246zM903 1489v246h252v-246h-252zM825 1153l-272 -631h537zM1280 72l-76 178l-51 110h-666l-110 -260q-3 -6 -7.5 -14.5t-5.5 -11.5t-2.5 -10t-1.5 -17l56 -27v-20h-297v23q12 4 18 2.5t15 2t22 15.5l29 57l489 1153q2 5 5 11.5
t4.5 10t2.5 11t1 19.5l-58 22v29h371l-4 -31h-6h-6.5t-7 -0.5t-8 -2t-7 -3.5t-7.5 -5.5t-6 -8.5t-5 -11q-3 -14 24 -67l479 -1121q12 -24 23 -57q33 -33 59 -24v-25h-315v31h31q11 8 13.5 11t6.5 12t-2 18z" />
    <glyph glyph-name="aring" unicode="&#xe5;" horiz-adv-x="1712" 
d="M612 2144q60 33 131 45q90 17 201 -7t189 -107q57 -61 77 -155.5t0 -166.5q-19 -83 -75 -145t-144 -92q-58 -21 -132 -25t-150 14t-127 56q-150 108 -136 303q3 82 43.5 156.5t122.5 123.5zM743 2103q-67 -18 -112 -57q-58 -50 -78.5 -118.5t-13.5 -125.5
q6 -61 43.5 -115.5t99.5 -87.5q65 -33 150 -33t149 33q132 73 149 216q13 137 -98 231q-39 34 -95 51.5t-104 16t-90 -10.5zM825 1153l-272 -631h537zM1280 72l-76 178l-51 110h-666l-110 -260q-3 -6 -7.5 -14.5t-5.5 -11.5t-2.5 -10t-1.5 -17l56 -27v-20h-297v23
q12 4 18 2.5t15 2t22 15.5l29 57l489 1153q2 5 5 11.5t4.5 10t2.5 11t1 19.5l-58 22v29h371l-4 -31h-6h-6.5t-7 -0.5t-8 -2t-7 -3.5t-7.5 -5.5t-6 -8.5t-5 -11q-3 -14 24 -67l479 -1121q12 -24 23 -57q33 -33 59 -24v-25h-315v31h31q11 8 13.5 11t6.5 12t-2 18z" />
    <glyph glyph-name="ae" unicode="&#xe6;" horiz-adv-x="2488" 
d="M2251 1348q9 3 13.5 5.5t7.5 7t4 7.5t3.5 12.5t4.5 16.5l22 -2v-297h-25q-2 8 -3 20.5t-5.5 21t-19.5 19.5q-6 3 -15.5 5t-16.5 2t-18 -0.5t-14 -0.5h-751v-413h477h63q21 8 25.5 10.5t6.5 14t7 22.5h23v-252l-23 -4l-22 49h-559q0 -21 -2 -31v-399h776q54 -2 64.5 5
t27.5 58l22 -4v-282h-24q-2 8 -5 19.5t-4.5 15.5t-7.5 9t-16 9q-9 4 -61 4h-1010v35h11t9.5 1t9.5 3.5t7 7.5t6 12v51v37v45q0 14 2 24t2 24v124l-10 5l-8 2l-11 -2l-8 2h-618l-182 -277q-1 -3 -12.5 -20t-6.5 -29l45 -21v-20h-313v23q4 4 20 4q17 10 21 14q9 9 26 43
l787 1149q28 39 28 63l-22 19h-33l2 28l1243 3q56 0 60 2zM1233 528q10 7 10 33v8l2 9l2 14v409q0 2 0.5 21t0.5 38t-0.5 45t-2 46.5t-4.5 37t-8 21.5q-15 18 -49 15q-16 -2 -35.5 -18.5t-40.5 -45t-36 -51.5t-33 -53.5t-21 -34.5l-322 -494h537z" />
    <glyph glyph-name="egrave" unicode="&#xe8;" horiz-adv-x="1540" 
d="M502 1874l-4 10h299l196 -321h-174zM121 1364h1114q54 0 65 4q17 7 22 13.5t6 18t5 19.5h23v-274h-23q-3 7 -6.5 21.5t-10 22.5t-22.5 13q-5 2 -63 2h-877v-440h480q2 0 15.5 -1.5t24.5 -1.5t15 3h39q1 0 11.5 -0.5t19.5 -1t19 0.5t13 3q16 6 29 22l6 29h23v-254l-23 -2
l-27 51h-645v-458h901q55 0 66 6q16 9 20.5 16t4 18t2.5 19l26 2v-268h-22q-4 8 -6 19t-7.5 17.5t-21.5 14.5q-6 2 -62 2h-1136v31h35q12 20 12 59v1161v52q-8 34 -37 34z" />
    <glyph glyph-name="eacute" unicode="&#xe9;" horiz-adv-x="1540" 
d="M500 1565l196 319h297l-317 -319h-176zM121 1364h1114q54 0 65 4q17 7 22 13.5t6 18t5 19.5h23v-274h-23q-3 7 -6.5 21.5t-10 22.5t-22.5 13q-5 2 -63 2h-877v-440h480q2 0 15.5 -1.5t24.5 -1.5t15 3h39q1 0 11.5 -0.5t19.5 -1t19 0.5t13 3q16 6 29 22l6 29h23v-254
l-23 -2l-27 51h-645v-458h901q55 0 66 6q16 9 20.5 16t4 18t2.5 19l26 2v-268h-22q-4 8 -6 19t-7.5 17.5t-21.5 14.5q-6 2 -62 2h-1136v31h35q12 20 12 59v1161v52q-8 34 -37 34z" />
    <glyph glyph-name="ecircumflex" unicode="&#xea;" horiz-adv-x="1540" 
d="M387 1565l236 323h243l240 -323h-203l-158 196l-155 -196h-203zM121 1364h1114q54 0 65 4q17 7 22 13.5t6 18t5 19.5h23v-274h-23q-3 7 -6.5 21.5t-10 22.5t-22.5 13q-5 2 -63 2h-877v-440h480q2 0 15.5 -1.5t24.5 -1.5t15 3h39q1 0 11.5 -0.5t19.5 -1t19 0.5t13 3
q16 6 29 22l6 29h23v-254l-23 -2l-27 51h-645v-458h901q55 0 66 6q16 9 20.5 16t4 18t2.5 19l26 2v-268h-22q-4 8 -6 19t-7.5 17.5t-21.5 14.5q-6 2 -62 2h-1136v31h35q12 20 12 59v1161v52q-8 34 -37 34z" />
    <glyph glyph-name="edieresis" unicode="&#xeb;" horiz-adv-x="1540" 
d="M428 1567v245h215h16l7 -2l10 -6v-237h-248zM817 1563v247h252v-247h-252zM121 1364h1114q54 0 65 4q17 7 22 13.5t6 18t5 19.5h23v-274h-23q-3 7 -6.5 21.5t-10 22.5t-22.5 13q-5 2 -63 2h-877v-440h480q2 0 15.5 -1.5t24.5 -1.5t15 3h39q1 0 11.5 -0.5t19.5 -1t19 0.5
t13 3q16 6 29 22l6 29h23v-254l-23 -2l-27 51h-645v-458h901q55 0 66 6q16 9 20.5 16t4 18t2.5 19l26 2v-268h-22q-4 8 -6 19t-7.5 17.5t-21.5 14.5q-6 2 -62 2h-1136v31h35q12 20 12 59v1161v52q-8 34 -37 34z" />
    <glyph glyph-name="igrave" unicode="&#xec;" horiz-adv-x="618" 
d="M41 1804l-4 11h299l194 -322h-172zM449 0h-328v27q51 0 61 26q4 9 4 66v1126q0 57 -4 62q-8 14 -20 21t-20 7h-9v27h316v-29q-8 -3 -19.5 -3t-20 -3t-16.5 -14q-6 -9 -6 -62v-1122v-74q7 -17 22.5 -25t27.5 -8l12 1v-23z" />
    <glyph glyph-name="iacute" unicode="&#xed;" horiz-adv-x="618" 
d="M39 1495l194 320h297l-317 -320h-174zM449 0h-328v27q51 0 61 26q4 9 4 66v1126q0 57 -4 62q-8 14 -20 21t-20 7h-9v27h316v-29q-8 -3 -19.5 -3t-20 -3t-16.5 -14q-6 -9 -6 -62v-1122v-74q7 -17 22.5 -25t27.5 -8l12 1v-23z" />
    <glyph glyph-name="icircumflex" unicode="&#xee;" horiz-adv-x="618" 
d="M-74 1495l236 324h244l237 -324h-203l-157 197l-154 -197h-203zM449 0h-328v27q51 0 61 26q4 9 4 66v1126q0 57 -4 62q-8 14 -20 21t-20 7h-9v27h316v-29q-8 -3 -19.5 -3t-20 -3t-16.5 -14q-6 -9 -6 -62v-1122v-74q7 -17 22.5 -25t27.5 -8l12 1v-23z" />
    <glyph glyph-name="idieresis" unicode="&#xef;" horiz-adv-x="618" 
d="M-33 1497v246h215h17l6 -4l8 -4v-238h-246zM356 1493v246h252v-246h-252zM449 0h-328v27q51 0 61 26q4 9 4 66v1126q0 57 -4 62q-8 14 -20 21t-20 7h-9v27h316v-29q-8 -3 -19.5 -3t-20 -3t-16.5 -14q-6 -9 -6 -62v-1122v-74q7 -17 22.5 -25t27.5 -8l12 1v-23z" />
    <glyph glyph-name="ntilde" unicode="&#xf1;" horiz-adv-x="1712" 
d="M973 1671q47 -5 76 16.5t53 84.5q56 -5 125 -5q-9 -42 -18 -70.5t-26 -63.5t-44 -60.5t-64 -42.5q-34 -16 -71.5 -18t-76 7t-72 20.5t-76.5 27t-74 22.5q-32 7 -57 4.5t-44 -20.5q-22 -17 -45 -76q-9 0 -18.5 -0.5t-13.5 -1t-11 0.5t-16 3l-17 -2l-12 2l-16 -2h-9l-8 2
q8 42 19.5 75.5t30.5 68.5t49 61t71 41q53 15 85 15t67.5 -12.5t61.5 -27.5t67 -30t84 -19zM131 1337v25h373v-29q-15 0 -27.5 -9t-5.5 -24q2 -6 39 -55l803 -969v1027q-2 14 -6 16q-3 3 -13 4.5t-19 1.5h-9v27h282v-27q-33 0 -53 -33q-6 -8 -6 -49v-1124q0 -64 6 -72
q4 -7 15 -12.5t20 -7.5l10 -2v-25h-317v27q29 2 43 10l6 14l-926 1100v-1042q0 -46 8 -64q3 -8 14.5 -13.5t21.5 -7.5l11 -1v-23h-282v23q45 0 55 26q2 3 2 60v1138v60q-5 16 -10.5 21t-17 6t-17.5 3z" />
    <glyph glyph-name="ograve" unicode="&#xf2;" horiz-adv-x="1841" 
d="M494 1288q147 68 258 80q65 6 137.5 8t159 -14t167 -43t161.5 -81t143 -126q58 -67 94.5 -154.5t49 -175.5t8 -171t-24.5 -152q-52 -171 -170.5 -287t-294.5 -170q-87 -26 -192.5 -34t-216.5 4t-221 53.5t-192 109.5q-82 70 -136.5 150.5t-76.5 158.5t-29 161.5t5 160.5
q22 170 108.5 302t262.5 220zM653 1823l-6 10h301l195 -324h-172zM743 1196q-58 -13 -125 -44t-118 -73q-110 -88 -155 -220.5t-36 -244.5q10 -124 74.5 -230.5t187.5 -176.5q124 -69 308.5 -74.5t306.5 53.5q133 64 207 172.5t94 241.5q18 123 -22 245t-142 216
q-58 54 -141 89t-164.5 47t-153 11.5t-121.5 -12.5z" />
    <glyph glyph-name="oacute" unicode="&#xf3;" horiz-adv-x="1841" 
d="M494 1288q147 68 258 80q65 6 137.5 8t159 -14t167 -43t161.5 -81t143 -126q58 -67 94.5 -154.5t49 -175.5t8 -171t-24.5 -152q-52 -171 -170.5 -287t-294.5 -170q-87 -26 -192.5 -34t-216.5 4t-221 53.5t-192 109.5q-82 70 -136.5 150.5t-76.5 158.5t-29 161.5t5 160.5
q22 170 108.5 302t262.5 220zM651 1511l195 322h297l-318 -322h-174zM743 1196q-58 -13 -125 -44t-118 -73q-110 -88 -155 -220.5t-36 -244.5q10 -124 74.5 -230.5t187.5 -176.5q124 -69 308.5 -74.5t306.5 53.5q133 64 207 172.5t94 241.5q18 123 -22 245t-142 216
q-58 54 -141 89t-164.5 47t-153 11.5t-121.5 -12.5z" />
    <glyph glyph-name="ocircumflex" unicode="&#xf4;" horiz-adv-x="1841" 
d="M494 1288q147 68 258 80q65 6 137.5 8t159 -14t167 -43t161.5 -81t143 -126q58 -67 94.5 -154.5t49 -175.5t8 -171t-24.5 -152q-52 -171 -170.5 -287t-294.5 -170q-87 -26 -192.5 -34t-216.5 4t-221 53.5t-192 109.5q-82 70 -136.5 150.5t-76.5 158.5t-29 161.5t5 160.5
q22 170 108.5 302t262.5 220zM539 1511l235 326h244l237 -326h-202l-158 199l-154 -199h-202zM743 1196q-58 -13 -125 -44t-118 -73q-110 -88 -155 -220.5t-36 -244.5q10 -124 74.5 -230.5t187.5 -176.5q124 -69 308.5 -74.5t306.5 53.5q133 64 207 172.5t94 241.5
q18 123 -22 245t-142 216q-58 54 -141 89t-164.5 47t-153 11.5t-121.5 -12.5z" />
    <glyph glyph-name="otilde" unicode="&#xf5;" horiz-adv-x="1841" 
d="M494 1288q147 68 258 80q65 6 137.5 8t159 -14t167 -43t161.5 -81t143 -126q58 -67 94.5 -154.5t49 -175.5t8 -171t-24.5 -152q-52 -171 -170.5 -287t-294.5 -170q-87 -26 -192.5 -34t-216.5 4t-221 53.5t-192 109.5q-82 70 -136.5 150.5t-76.5 158.5t-29 161.5t5 160.5
q22 170 108.5 302t262.5 220zM1038 1688q47 -5 76 16t53 84q47 -6 125 -6q-9 -42 -18 -70.5t-25.5 -63t-43.5 -60t-64 -42.5q-34 -16 -72 -18.5t-76 6.5t-72 21t-77 27.5t-74 23.5q-32 7 -57 4t-45 -21q-23 -23 -43 -78q-44 0 -60 5l-16 -5l-12 5l-17 -5h-6l-10 5
q18 91 55.5 153.5t114.5 89.5q52 22 103 15t80 -23t79.5 -37t101.5 -26zM743 1196q-58 -13 -125 -44t-118 -73q-110 -88 -155 -220.5t-36 -244.5q10 -124 74.5 -230.5t187.5 -176.5q124 -69 308.5 -74.5t306.5 53.5q133 64 207 172.5t94 241.5q18 123 -22 245t-142 216
q-58 54 -141 89t-164.5 47t-153 11.5t-121.5 -12.5z" />
    <glyph glyph-name="odieresis" unicode="&#xf6;" horiz-adv-x="1841" 
d="M494 1288q147 68 258 80q65 6 137.5 8t159 -14t167 -43t161.5 -81t143 -126q58 -67 94.5 -154.5t49 -175.5t8 -171t-24.5 -152q-52 -171 -170.5 -287t-294.5 -170q-87 -26 -192.5 -34t-216.5 4t-221 53.5t-192 109.5q-82 70 -136.5 150.5t-76.5 158.5t-29 161.5t5 160.5
q22 170 108.5 302t262.5 220zM578 1516v243h217h16l6 -2l8 -4v-237h-247zM969 1509v248h252v-248h-252zM743 1196q-58 -13 -125 -44t-118 -73q-110 -88 -155 -220.5t-36 -244.5q10 -124 74.5 -230.5t187.5 -176.5q124 -69 308.5 -74.5t306.5 53.5q133 64 207 172.5t94 241.5
q18 123 -22 245t-142 216q-58 54 -141 89t-164.5 47t-153 11.5t-121.5 -12.5z" />
    <glyph glyph-name="divide" unicode="&#xf7;" horiz-adv-x="1400" 
d="M119 -27l993 1661h123l-997 -1661h-119z" />
    <glyph glyph-name="oslash" unicode="&#xf8;" horiz-adv-x="1929" 
d="M1419 1247l152 146h190l-223 -234q71 -81 116.5 -172t61.5 -179.5t13.5 -171t-23.5 -159.5q-92 -352 -446 -469q-112 -37 -239.5 -45t-276 25t-275.5 110l-160 -151h-190l239 248q-71 84 -115 175.5t-58.5 180.5t-9 173t31.5 165q59 187 173 292t310 162q105 27 227 28.5
t259 -31.5t243 -93zM1294 1124q-99 54 -211 74t-202 12q-158 -15 -282 -91t-189 -226q-35 -83 -42 -175.5t23 -197t101 -194.5zM1413 1030l-813 -803q103 -60 221.5 -82.5t206.5 -13.5q158 11 284 92.5t195 237.5q39 88 45 178.5t-28 191.5t-111 199z" />
    <glyph glyph-name="ugrave" unicode="&#xf9;" horiz-adv-x="1703" 
d="M586 1806l-4 11h299l194 -320h-172zM1292 1307q-9 14 -37 18v27h285v-27q-36 0 -45 -25v-55v-678q0 -160 -15 -233q-38 -183 -196 -273q-104 -61 -279.5 -83.5t-351 0t-280.5 83.5q-37 21 -66 43.5t-49 45.5t-35 48t-23.5 50.5t-14 53.5t-7 56.5t-2.5 59.5t0 63v37v721
q2 50 -4 66q-5 15 -18.5 22.5t-23.5 7.5h-11v27h309v-29q-56 0 -61 -33l-2 -67v-682q0 -130 9 -178q22 -115 103 -168q59 -38 198.5 -54t284 -4t214.5 50q23 12 41.5 26.5t31.5 33.5t22.5 33.5t15 39.5t9 38.5t5 43t2 41t0 44.5t-0.5 42v710q0 45 -8 58z" />
    <glyph glyph-name="uacute" unicode="&#xfa;" horiz-adv-x="1703" 
d="M584 1497l194 320h297l-317 -320h-174zM1292 1307q-9 14 -37 18v27h285v-27q-36 0 -45 -25v-55v-678q0 -160 -15 -233q-38 -183 -196 -273q-104 -61 -279.5 -83.5t-351 0t-280.5 83.5q-37 21 -66 43.5t-49 45.5t-35 48t-23.5 50.5t-14 53.5t-7 56.5t-2.5 59.5t0 63v37
v721q2 50 -4 66q-5 15 -18.5 22.5t-23.5 7.5h-11v27h309v-29q-56 0 -61 -33l-2 -67v-682q0 -130 9 -178q22 -115 103 -168q59 -38 198.5 -54t284 -4t214.5 50q23 12 41.5 26.5t31.5 33.5t22.5 33.5t15 39.5t9 38.5t5 43t2 41t0 44.5t-0.5 42v710q0 45 -8 58z" />
    <glyph glyph-name="ucircumflex" unicode="&#xfb;" horiz-adv-x="1703" 
d="M471 1497l236 324h243l238 -324h-203l-158 197l-153 -197h-203zM1292 1307q-9 14 -37 18v27h285v-27q-36 0 -45 -25v-55v-678q0 -160 -15 -233q-38 -183 -196 -273q-104 -61 -279.5 -83.5t-351 0t-280.5 83.5q-37 21 -66 43.5t-49 45.5t-35 48t-23.5 50.5t-14 53.5
t-7 56.5t-2.5 59.5t0 63v37v721q2 50 -4 66q-5 15 -18.5 22.5t-23.5 7.5h-11v27h309v-29q-56 0 -61 -33l-2 -67v-682q0 -130 9 -178q22 -115 103 -168q59 -38 198.5 -54t284 -4t214.5 50q23 12 41.5 26.5t31.5 33.5t22.5 33.5t15 39.5t9 38.5t5 43t2 41t0 44.5t-0.5 42v710
q0 45 -8 58z" />
    <glyph glyph-name="udieresis" unicode="&#xfc;" horiz-adv-x="1703" 
d="M510 1499v246h217h16l7 -2l8 -6v-238h-248zM901 1497v246h252v-246h-252zM1292 1307q-9 14 -37 18v27h285v-27q-36 0 -45 -25v-55v-678q0 -160 -15 -233q-38 -183 -196 -273q-104 -61 -279.5 -83.5t-351 0t-280.5 83.5q-37 21 -66 43.5t-49 45.5t-35 48t-23.5 50.5
t-14 53.5t-7 56.5t-2.5 59.5t0 63v37v721q2 50 -4 66q-5 15 -18.5 22.5t-23.5 7.5h-11v27h309v-29q-56 0 -61 -33l-2 -67v-682q0 -130 9 -178q22 -115 103 -168q59 -38 198.5 -54t284 -4t214.5 50q23 12 41.5 26.5t31.5 33.5t22.5 33.5t15 39.5t9 38.5t5 43t2 41t0 44.5
t-0.5 42v710q0 45 -8 58z" />
    <glyph glyph-name="ydieresis" unicode="&#xff;" horiz-adv-x="1722" 
d="M518 1501v246h215h17l6 -2l10 -6v-238h-248zM907 1497v248h252v-248h-252zM121 1337v27h332l8 -2h12q11 0 25 -4v-17l-62 -24q0 -26 4 -34.5t29 -31.5l369 -503l385 495q44 44 32 70l-55 22l2 23h354l-2 -25q-7 -2 -19 -4.5t-15.5 -3.5t-10.5 -2.5t-10 -5t-7.5 -6.5
t-10.5 -10.5t-11 -13.5t-16 -19l-528 -684v-371v-59v-41q0 -58 4 -64q22 -29 55 -29v-20h-309v20q7 2 19.5 3.5t19.5 6t16 17.5q10 20 10 57v58v59v371l-503 670q-38 52 -47 59q-9 6 -52 13q-9 1 -18 3z" />
    <glyph glyph-name="dotlessi" unicode="&#x131;" horiz-adv-x="618" 
d="M449 0h-328v27q51 0 61 26q4 9 4 66v1126q0 57 -4 62q-8 14 -20 21t-20 7h-9v27h316v-29q-8 -3 -19.5 -3t-20 -3t-16.5 -14q-6 -9 -6 -62v-1122v-74q7 -17 22.5 -25t27.5 -8l12 1v-23z" />
    <glyph glyph-name="OE" unicode="&#x152;" horiz-adv-x="2453" 
d="M2224 1634q18 12 23.5 18t8 22t5.5 26l25 -2q0 -3 1 -10t0.5 -12.5t-3.5 -12.5v-320h-25q-4 10 -9 27.5t-7 21.5t-7 12t-12.5 10t-18.5 4.5t-30 4.5h-59q-12 0 -33 1t-33 1h-688v-518h422h108q43 4 50 10q5 5 17 43q2 8 5 15l23 -2v-340h-27q-2 7 -5.5 20t-4.5 16.5
t-4 12t-5 10t-6.5 6.5t-9 6t-12 3t-16 2.5t-21.5 1.5h-123h-397v-531h786q63 0 72 6q19 11 27.5 21.5t10 18.5t1.5 26h22v-334h-22q-17 54 -31 64.5t-65 11.5h-11h-1169q-61 0 -112 2.5t-114.5 11.5t-116.5 24t-112 41t-107.5 62t-96 88.5t-85.5 118.5q-111 195 -116 458.5
t108 467.5q46 79 106.5 140.5t129 100t137.5 64t148.5 37.5t143.5 16.5t138 3.5l1124 -6q57 0 72 10zM788 1432q-117 -23 -196 -76q-66 -45 -115 -106t-76 -121.5t-42.5 -130t-19 -124t-1.5 -110.5q2 -64 20 -134.5t51.5 -144.5t91 -139t130.5 -104q82 -46 206 -59t205 26
q98 57 97 283v8v590q0 229 -68 290q-46 38 -132.5 49.5t-150.5 2.5z" />
    <glyph glyph-name="oe" unicode="&#x153;" horiz-adv-x="2437" 
d="M2232 1384l2 9h19v-281h-21q0 18 -1 25.5t-8 17t-23 14.5q-14 7 -68 7h-780v-422h383h61h47q52 0 55 2q13 4 20.5 10t9.5 9.5t4 15t3 14.5h21v-258l-23 -4q-3 5 -3.5 16.5t-2.5 13.5q-4 7 -7 10.5t-8 6.5t-6.5 3.5t-9.5 4.5q-8 2 -61 2h-43h-53h-391v-446h800q58 0 64 2
q35 23 35 57h24v-281l-20 -2q-3 4 -3.5 4.5t-1.5 3.5l-1 2v4v5l-2 8l-5 10q-6 6 -9.5 8.5t-4.5 3.5t-7 1.5t-11 1.5q-1 0 -64 18h-1339q-65 1 -113.5 4t-108 12.5t-106.5 29t-96 49.5t-92.5 77.5t-79.5 110.5q-91 162 -88.5 390t94.5 390q32 56 74.5 100.5t83.5 73t93.5 49
t94.5 31t98.5 16.5t92 7t86.5 1h1312h54q30 9 30 43zM647 1184q-115 -26 -196 -101q-43 -40 -73.5 -103t-45 -127t-20 -131.5t-4 -117.5t6.5 -84q19 -117 68.5 -193t157.5 -124q81 -37 256 -43.5t256 37.5q20 12 36 29t26.5 38.5t19 41t13.5 47t8 46t4 48t1.5 42t0 39.5
t-0.5 31v258q3 25 1 67t-6 83t-24 84.5t-53 70.5q-47 41 -137 59.5t-167 16.5t-128 -14z" />
    <glyph glyph-name="Ydieresis" unicode="&#x178;" horiz-adv-x="1937" 
d="M700 1792l195 319h297l-318 -319h-174zM1419 1522q4 6 15.5 20.5t18 24.5t7.5 16q2 10 -10 15t-24 4h-13v26h359l-5 -26q-28 5 -53 -13q-3 -2 -12 -13.5t-20 -26t-13 -17.5l-463 -631q-2 -4 -61 -82t-62 -88v-172v-440q0 -54 4 -60q5 -18 9.5 -22t19 -4t27.5 -4v-29h-342
v29h6h6.5t6 0.5t6.5 1l6 1.5t6 2.5t5.5 3.5t5.5 5t4.5 7t4.5 9q2 3 2.5 31.5t1.5 30.5v41v45v516l-618 807q-34 43 -55.5 56t-69.5 22l2 22h430v-22q-3 -2 -17 -2.5t-26 -6.5t-16 -22q-3 -7 52 -84t66 -88l367 -479z" />
    <glyph glyph-name="florin" unicode="&#x192;" horiz-adv-x="1619" 
d="M1393 1577q12 -5 20.5 -0.5t22.5 20.5l20 -8l-72 -246l-26 9q0 5 0.5 23.5t0 22.5t-3.5 17.5t-10 20t-19 16.5t-30 21q-34 22 -84.5 26.5t-89.5 -12.5q-21 -10 -39.5 -32t-32.5 -51.5t-25 -61t-19 -64.5t-13 -57t-8.5 -44.5t-3.5 -21.5l-20 -154h253v-135h-284l-129 -714
q-28 -138 -52 -201q-61 -158 -176 -209q-45 -22 -79 -31t-74 -4t-64.5 12t-86.5 29.5t-105 36.5l-23 -23l-22 5l71 260l25 -13q-2 -46 8 -72t45 -51q35 -22 88 -25.5t93 13.5q20 9 37 26t29 41t21.5 45.5t17 51.5t11 46t8.5 42.5t5 28.5l118 706h-239v135h239q26 0 31 9
l33 176q1 5 9 47.5t11.5 58.5t14.5 58.5t20 65t26 58.5t35.5 58.5t44.5 46.5t56 39q76 36 175.5 29.5t193.5 -50.5q4 -1 22.5 -10.5t24.5 -9.5z" />
    <glyph glyph-name="circumflex" unicode="&#x2c6;" horiz-adv-x="1001" 
d="M119 1487l237 325h242l240 -325h-203l-158 199l-155 -199h-203z" />
    <glyph glyph-name="breve" unicode="&#x2d8;" horiz-adv-x="999" 
d="M264 1546q-76 47 -104.5 108t-40.5 163q80 0 127 -2q25 -79 62 -116t108 -50q59 -11 132.5 2.5t119.5 68.5q21 25 43 92h125q-17 -105 -56.5 -172.5t-132.5 -109.5q-50 -22 -119 -30t-142 3.5t-122 42.5z" />
    <glyph glyph-name="dotaccent" unicode="&#x2d9;" horiz-adv-x="559" 
d="M322 1384l-166 -391h-37l94 422q2 6 7.5 36t12 56.5t16.5 57t25.5 50.5t34.5 25q47 10 72 -22q6 -8 7.5 -23t-2.5 -34.5t-9.5 -38t-14.5 -42t-15 -38t-14.5 -34.5t-10.5 -24z" />
    <glyph glyph-name="ring" unicode="&#x2da;" horiz-adv-x="1060" 
d="M287 1720q65 31 129 45q34 8 85.5 5.5t102.5 -11.5t105.5 -37.5t95.5 -72.5q59 -60 78.5 -150t1.5 -172q-21 -81 -77.5 -143t-143.5 -94q-58 -21 -131.5 -25t-150 14t-128.5 56q-81 62 -110.5 136.5t-24.5 166.5q3 83 43.5 157t124.5 125zM416 1679q-66 -21 -113 -59
q-57 -50 -77.5 -118t-14.5 -124q8 -62 45 -115.5t100 -86.5q64 -33 149.5 -33t149.5 33q134 71 148 213q16 136 -96 231q-40 34 -96 52t-104.5 17t-90.5 -10z" />
    <glyph glyph-name="tilde" unicode="&#x2dc;" horiz-adv-x="1071" 
d="M653 1681q48 -5 76.5 16t52.5 83q47 -4 125 -4q-9 -42 -18 -70.5t-25.5 -63t-43.5 -60t-64 -42.5q-34 -16 -72 -19t-76 6t-72 20.5t-77 27t-74 22.5q-33 9 -57 6.5t-45 -20.5q-21 -21 -45 -78q-9 0 -17.5 -0.5t-13 -1t-11.5 0.5t-16 3l-16 -2l-12 2l-17 -2h-6l-10 2
q18 92 55.5 155t114.5 91q52 22 103 15t80 -23.5t79.5 -37.5t101.5 -26z" />
    <glyph glyph-name="endash" unicode="&#x2013;" horiz-adv-x="1611" 
d="M121 621v102h1323v-102h-1323z" />
    <glyph glyph-name="emdash" unicode="&#x2014;" horiz-adv-x="1953" 
d="M123 645v137h1665v-137h-1665z" />
    <glyph glyph-name="quoteleft" unicode="&#x2018;" horiz-adv-x="569" 
d="M141 1417q64 148 265 225v-53q-74 -38 -111 -74q-17 -16 -31 -34q-35 -40 -45 -74q-22 -52 6 -74h49t46 -11t38 -34q30 -48 2 -102q-14 -28 -41 -46.5t-61 -19.5q-66 -4 -108 60q-29 39 -30 116t21 121z" />
    <glyph glyph-name="quoteright" unicode="&#x2019;" horiz-adv-x="567" 
d="M373 1360q-66 -149 -254 -227v63q55 29 83.5 50t55.5 59q28 33 39 75q20 53 -8 72q-29 -2 -52 -2t-42.5 10t-34.5 33q-34 50 -4 109q30 61 98 67q73 4 115 -57q30 -41 30 -118.5t-26 -133.5z" />
    <glyph glyph-name="quotesinglbase" unicode="&#x201a;" horiz-adv-x="567" 
d="M373 -109q-33 -70 -99 -126.5t-153 -92.5v60q33 17 49 27t43.5 33t50.5 52q29 43 39 74q0 1 4.5 17.5t2 31.5t-16.5 25q-42 -8 -75 -0.5t-56 41.5q-31 51 -2 108q29 63 98 66q75 4 119 -57q26 -43 23.5 -124t-27.5 -135z" />
    <glyph glyph-name="quotedblleft" unicode="&#x201c;" horiz-adv-x="960" 
d="M143 1417q65 152 258 232v-62q-175 -94 -188 -244l18 -18q47 4 76.5 -3t50.5 -38q33 -51 7 -108q-31 -60 -101 -66q-73 -6 -114 53q-30 41 -30.5 120.5t23.5 133.5zM541 1417q63 149 256 232v-62q-176 -92 -187 -244l19 -16q46 6 75 -1.5t50 -41.5q14 -22 16 -50.5
t-10 -53.5q-12 -30 -39 -49.5t-62 -20.5q-72 -7 -116 55q-27 41 -27 119t25 133z" />
    <glyph glyph-name="quotedblright" unicode="&#x201d;" horiz-adv-x="958" 
d="M373 1337q-66 -149 -254 -227v64q56 29 84 49.5t55 58.5q27 33 39 76q20 53 -8 72q-29 -2 -52 -2t-42.5 10t-34.5 32q-34 50 -4 109q30 62 98 68q72 4 115 -58q30 -41 30 -118.5t-26 -133.5zM786 1395q-47 -191 -276 -283v62q54 27 85.5 49.5t59.5 60.5q30 47 37 78
q10 17 10 37t-22 35q-44 -7 -73 -1.5t-48 31.5q-36 52 -12 107q21 64 86 76q65 14 119 -37q31 -34 39 -102.5t-5 -112.5z" />
    <glyph glyph-name="quotedblbase" unicode="&#x201e;" horiz-adv-x="960" 
d="M369 -119q-40 -81 -103 -128.5t-147 -78.5v58q35 18 51.5 27.5t41.5 30.5t46 50q35 47 43 72q18 53 -6 78q-26 -2 -48.5 -3.5t-45.5 9t-39 35.5q-33 55 -2 110q30 61 98 64q77 3 121 -64q27 -45 24 -122.5t-34 -137.5zM788 -53q-50 -184 -270 -275v62q85 46 130.5 100
t56.5 137l-23 21q-49 -5 -75 1t-46 36q-32 44 -10 104q26 63 90 72q71 11 115 -41q31 -34 38 -107t-6 -110z" />
    <glyph glyph-name="dagger" unicode="&#x2020;" horiz-adv-x="1062" 
d="M461 1202l-51 436h202l-53 -442q6 1 15 0t18 0t20 6l285 51v-204l-344 61q0 -30 8 -53l27 -170q5 -30 10 -58t7.5 -38.5t4.5 -27.5t3 -20t0.5 -21t-1.5 -26t-3.5 -39.5t-4.5 -56.5l-43 -780q-5 0 -18.5 -1t-32.5 -1q-35 0 -49 2l-49 778q-3 29 -6 62t-3.5 43t-1.5 23.5
t1.5 25.5t5 25.5t9 45.5t13.5 66l19 92q2 15 4.5 37.5t3.5 28.5q0 3 1.5 17.5t2 25t-1.5 20.5l-338 -61v206l69 -16l58 -12q11 0 42 -5.5t38 -9.5h51q5 0 25.5 -5.5t34 -7.5t22.5 3z" />
    <glyph glyph-name="daggerdbl" unicode="&#x2021;" horiz-adv-x="1071" 
d="M465 1192l-55 446h194v-45q-1 -3 -12 -65q0 -11 -4 -34.5t-4 -35.5v-69l-15 -46v-153l332 61v-202l-250 49q-16 5 -28 5.5t-19 4.5q-3 0 -21 1.5t-24 0.5l29 -213q1 -9 15.5 -79t14.5 -83q0 -9 -14.5 -81t-15.5 -81l-15 -59q-7 -58 -10 -84q0 -3 -3 -24t-3.5 -34t4.5 -24
l346 62v-203l-348 59q0 -20 1 -38t1 -21l53 -381h-204l51 448l-342 -63v205l297 -60q4 0 16 -2t19.5 -2.5t17.5 2.5l-33 213q-1 7 -9 44.5t-14.5 71.5t-6.5 44l26 162l21 125l4 14v10l2 9q0 22 2 32v33l-342 -63v204q215 -49 346 -61z" />
    <glyph glyph-name="bullet" unicode="&#x2022;" horiz-adv-x="514" 
d="M121 774q-10 38 8 78t61 61q51 20 103 -8q52 -36 55 -96q3 -61 -45 -98q-45 -36 -102 -19q-63 22 -80 82z" />
    <glyph glyph-name="perthousand" unicode="&#x2030;" horiz-adv-x="2500" 
d="M283 1409q53 35 116 47q77 16 163.5 -7t150.5 -87q63 -65 85.5 -148.5t6.5 -164.5q-40 -196 -213 -263q-67 -31 -156 -23t-162 60q-81 57 -119 136t-36 163q2 82 42.5 160t121.5 127zM313 -27l918 1487h112l-917 -1487h-113zM858 408q44 179 213 237q70 32 169.5 18
t172.5 -77q75 -62 102 -150.5t11 -171.5q-42 -206 -232 -270q-51 -14 -105.5 -14.5t-116.5 23t-111 67.5q-70 66 -96.5 161.5t-6.5 176.5zM1665 408q52 184 227 237q49 14 104.5 15.5t121 -21.5t112.5 -68q50 -46 77.5 -105.5t29 -113.5t-9.5 -108q-47 -204 -238 -258
q-49 -12 -102.5 -12t-115.5 24.5t-110 71.5q-67 66 -91.5 160.5t-4.5 177.5zM367 1313q-69 -39 -98 -99.5t-21 -121.5q6 -57 40.5 -106t92.5 -77q110 -47 201 11q106 74 106 202q-2 57 -31.5 107t-83.5 78q-48 28 -105.5 29t-100.5 -23zM1112 530q-58 -19 -98 -77
q-32 -45 -40 -99.5t7 -93.5q36 -107 149 -145q44 -14 94 -4.5t91 39.5q49 36 71.5 86.5t20.5 99.5q-3 109 -100 172q-44 30 -100.5 35t-94.5 -13zM1933 530q-55 -15 -96 -59q-40 -41 -52.5 -93.5t-2.5 -101.5q25 -115 135 -161q48 -19 99 -13.5t93 31.5q101 66 105 182
q9 106 -82 179q-44 35 -103 43.5t-96 -7.5z" />
    <glyph glyph-name="guilsinglleft" unicode="&#x2039;" horiz-adv-x="751" 
d="M119 522l282 344h183l-269 -340l273 -344h-182z" />
    <glyph glyph-name="guilsinglright" unicode="&#x203a;" horiz-adv-x="747" 
d="M123 858l-4 8h182l283 -340l-287 -344h-178l268 340z" />
    <glyph glyph-name="fraction" unicode="&#x2044;" horiz-adv-x="1937" 
d="M653 1769v246h215h17l6 -4l10 -4v-238h-248zM1042 1765v246h252v-246h-252zM1419 1522q4 6 15.5 20.5t18 24.5t7.5 16q2 10 -10 15t-24 4h-13v26h359l-5 -26q-28 5 -53 -13q-3 -2 -12 -13.5t-20 -26t-13 -17.5l-463 -631q-2 -4 -61 -82t-62 -88v-172v-440q0 -54 4 -60
q5 -18 9.5 -22t19 -4t27.5 -4v-29h-342v29h6h6.5t6 0.5t6.5 1l6 1.5t6 2.5t5.5 3.5t5.5 5t4.5 7t4.5 9q2 3 2.5 31.5t1.5 30.5v41v45v516l-618 807q-34 43 -55.5 56t-69.5 22l2 22h430v-22q-3 -2 -17 -2.5t-26 -6.5t-16 -22q-3 -7 52 -84t66 -88l367 -479z" />
    <glyph glyph-name="trademark" unicode="&#x2122;" horiz-adv-x="2134" 
d="M123 1663l10 -4l6 -25q7 -5 12.5 -6.5t13.5 -0.5t11 1h686q23 -6 39 6l17 25v-45v-43v-33v-29v-10l-9 -6l-12 27q-4 3 -7 4.5t-5 2t-5.5 1t-5 0.5h-8h-10.5h-285v-690l33 -23h-35h-77q-1 0 -11.5 -0.5t-18 0t-16.5 1t-13.5 3t-2.5 6.5l27 11v694h-307l-31 -33v92v45v25z
M1087 1577q0 20 -10 33l-26 18h229l-27 -20q-5 -6 -2.5 -18t4 -15.5t7 -14.5t6.5 -14l239 -493l267 540l-29 29h57h90h45h23l10 -4l-10 -8l-12 -2l-15 -17v-712q0 -40 6 -52l25 -14h-96h-45h-23l-8 2l4 10l16 2l11 17v620l-318 -639l-321 641v-626l28 -25l-8 -2l-12 2
l-10 -2l-13 2l-10 -2h-14h-10h-13q-10 2 -43 2h-10l-12 -2l-8 4l2 8l36 23v729z" />
    <glyph glyph-name="partialdiff" unicode="&#x2202;" horiz-adv-x="2473" 
d="M598 -23l993 1670h121l-991 -1667zM246 1612l-8 10l10 8h24h50h94h57q0 -6 -0.5 -9.5t-3.5 -5t-3.5 -2t-6 0t-6.5 0.5q-11 -3 -23 -23v-61v-776v-54q5 -17 7.5 -21t15.5 -6.5t24 -6.5q0 -4 -0.5 -6.5t-1.5 -4t-2.5 -2t-3.5 -1t-4 0t-5.5 0.5h-6.5h-33h-60h-57h-80
q0 5 1 8.5t2 5t4 2.5t4 1h6h4q23 10 28 16q2 6 2 68v665q-9 4 -23 2t-33.5 -7t-20.5 -5q-9 -3 -23.5 -6t-21 -5t-12 -9.5t-5.5 -20.5h-16v184h16q0 -41 68 -24q19 0 39.5 12.5t33.5 32.5v18zM1892 956l-39 25h86q14 4 56 4h80h34q29 0 29 -12l-31 -12q-10 -12 -10 -52v-585
h170l17 16l22 25v-205h-14l-19 35q-25 6 -86 6q-76 0 -88 -6v-154l10 -12l25 -29h-78h-37h-69l-31 8h-3q-4 -1 -6.5 -0.5t-5.5 1.5t-4.5 3.5t-1.5 7.5l29 7l21 22v148h-645q-36 0 -50 -11l-22 -26v123zM1948 825l-510 -501h510v501z" />
    <glyph glyph-name="summation" unicode="&#x2211;" horiz-adv-x="2525" 
d="M559 -23l995 1665h121l-993 -1665h-123zM281 1589l-37 25q0 6 0.5 9.5t3 5t3.5 1.5h7h8h35h43h64h65l-22 -18l-19 -19v-841v-60q9 -14 15.5 -18.5t15.5 -5.5t16 -4v-7.5t-1.5 -3.5t-3 -1t-5.5 0.5t-8 0.5h-25h-213v10t1.5 4.5t3.5 1t6.5 -0.5t9.5 2h5t4.5 1t3.5 1.5
t3.5 2.5t3 2.5l4 4l4.5 4.5q2 6 2 68v665q-4 3 -36 -3.5t-37 -8.5q-19 0 -39 -10q-7 -2 -11 -3.5t-7 -5t-3.5 -5l-2.5 -7.5t-3 -8h-16v182h14l6 -8q1 -2 3 -5q6 -8 14 -10q3 -1 4 -1q13 -8 45 0q23 4 47 20q29 18 29 43zM1610 195q-43 -43 -43 -72h692l53 6q2 1 8 3t7 2
t4.5 2.5t4 3.5t2.5 5.5t3.5 8.5t3.5 12l16 -4v-185l-18 3q-5 14 -14.5 19.5t-18.5 5t-24 -2.5t-23 -2h-891q11 78 41 141t80.5 112t108.5 86t137 73l104 47q134 59 195 104q93 68 102 137q11 77 -53 127q-36 29 -99.5 41.5t-126 9t-108.5 -19.5q-75 -27 -133 -65
q-3 -2 -32 -24t-34 -28q-24 -28 -24 -50q0 -10 4 -21l-16 -4l-123 139l14 12l27 -4q414 295 723 123q151 -83 141 -244q-4 -52 -28 -96t-50 -72t-79 -58t-83 -43t-94 -39q-25 -10 -37 -15l-114 -45q-69 -27 -136 -76q-53 -34 -69 -53z" />
    <glyph glyph-name="radical" unicode="&#x221a;" horiz-adv-x="1001" 
d="M356 1487l-237 319h203l157 -194l160 194h156h8h12q1 0 9 -1t14 -1l-238 -317h-244z" />
    <glyph glyph-name="infinity" unicode="&#x221e;" horiz-adv-x="1722" 
d="M590 1499l196 320h297l-317 -320h-176zM121 1337v27h332l8 -2h12q11 0 25 -4v-17l-62 -24q0 -26 4 -34.5t29 -31.5l369 -503l385 495q44 44 32 70l-55 22l2 23h354l-2 -25q-7 -2 -19 -4.5t-15.5 -3.5t-10.5 -2.5t-10 -5t-7.5 -6.5t-10.5 -10.5t-11 -13.5t-16 -19
l-528 -684v-371v-59v-41q0 -58 4 -64q22 -29 55 -29v-20h-309v20q7 2 19.5 3.5t19.5 6t16 17.5q10 20 10 57v58v59v371l-503 670q-38 52 -47 59q-9 6 -52 13q-9 1 -18 3z" />
    <glyph glyph-name="integral" unicode="&#x222b;" horiz-adv-x="2711" 
d="M1063 1274q-23 -32 -51 -52.5t-80 -47.5q98 -37 145.5 -78.5t61.5 -126.5q7 -62 -19 -125t-88 -111q-77 -59 -214.5 -82t-273 -10t-231.5 51q-15 7 -46 22t-50 23.5t-46.5 15t-51.5 3.5l31 47l45 69q1 1 5.5 10.5t9 17t11 15.5t12.5 11t11 0q-7 -25 -2.5 -39t34.5 -31
q32 -27 80 -47q73 -36 152 -53q61 -11 134 -12.5t162.5 20.5t135.5 72q63 63 41 137q-22 84 -133 119q-39 13 -109 20t-142.5 -0.5t-96.5 -32.5q-2 5 -2 45v52v47v22v10l12 5q11 -25 25.5 -31t46.5 -6q25 -2 82 2q114 4 170 26q91 36 102 107q8 62 -51 108
q-43 35 -123.5 48.5t-155.5 7t-125 -24.5q-57 -24 -104 -57q-17 -8 -53 -37q-19 -19 -21.5 -28t6.5 -29l-16 -11l-133 142l16 10q18 -10 28 -7.5t42 21.5q24 15 69 47q70 42 142 62q120 36 278 24q37 -3 81 -13.5t95 -30t95 -55.5t65 -81q46 -100 -8 -180zM838 -23l995 1665
h121l-993 -1665h-123zM2132 950l-37 31h76q35 4 84 4h49h43h20l9 -6l-2 -10h-31v-652h53h60q42 0 53 7q18 13 20 24q0 19 19 12v-51v-84v-41v-20q0 -6 -2.5 -7t-12.5 -1q-1 3 -2.5 9.5t-2.5 9.5t-3.5 7.5t-5.5 7t-8 4t-12 1.5q-6 2 -52 2h-53q-46 0 -53 -7v-79
q0 -2 -0.5 -13t0 -19t1 -18.5t3 -18.5t6.5 -13l25 -29h-76h-41h-70l-28 8q-16 0 -17 1q-2 2 -2 11q2 1 12.5 3t19 6.5t13.5 13.5q2 6 2 51v49q0 47 -6 54h-614l-60 -2q-17 -13 -22 -23q0 -12 -1.5 -13.5t-15.5 1.5v116zM2187 819l-506 -502h506v502z" />
    </font>
</defs>
</svg>
