<?xml version="1.0" standalone="no"?>
<!DOCTYPE svg PUBLIC "-//W3C//DTD SVG 1.1//EN" "http://www.w3.org/Graphics/SVG/1.1/DTD/svg11.dtd" >
<svg xmlns="http://www.w3.org/2000/svg" xmlns:xlink="http://www.w3.org/1999/xlink" version="1.1">
<metadata>
Created by FontForge 20170731 at Wed May 18 12:43:27 2022
 By Aleksey,,,
Copyright (c) 2009 by Maximiliano R. Sproviero &#38; Sabrina M. Lopez. All rights reserved.
</metadata>
<defs>
<font id="AphroditeSlimPro" horiz-adv-x="1040" >
  <font-face 
    font-family="Aphrodite Slim Pro"
    font-weight="400"
    font-stretch="normal"
    units-per-em="2048"
    panose-1="2 0 0 0 0 0 0 0 0 0"
    ascent="1638"
    descent="-410"
    x-height="1053"
    cap-height="2320"
    bbox="-5521 -2228 10904 3537"
    underline-thickness="102"
    underline-position="-307"
    unicode-range="U+0020-FB06"
  />
<missing-glyph horiz-adv-x="649" 
 />
    <glyph glyph-name="f_f" unicode="ff" horiz-adv-x="1363" 
d="M1962 1626q1 -29 -15 -48t-40 -26q-24 -5 -50.5 7t-37.5 43q-4 10 -12.5 39t-17 45t-26.5 36t-51 27.5t-80 3.5q-33 -3 -63.5 -17.5t-56 -34t-51.5 -55t-45.5 -66.5t-42.5 -82t-38 -88t-36 -99t-33 -99t-33.5 -104.5t-32.5 -101.5q176 3 278.5 28t133.5 88
q9 17 23.5 18.5t23.5 -9t4 -23.5q-33 -83 -154.5 -117t-324.5 -37q-29 -92 -130.5 -420t-183 -588.5t-100.5 -312.5q-102 -280 -255 -528t-348.5 -447t-423 -323t-479.5 -155t-517 55q-178 -39 -359 -25q-137 10 -242 48.5t-166.5 94.5t-98.5 126.5t-43 146t5.5 152
t41.5 145t70 124.5t87 91q39 28 63 3q19 -19 7 -43q-5 -10 -15 -16q-8 -5 -31.5 -15t-38.5 -20t-40.5 -45.5t-52.5 -93.5q-40 -87 -46 -175t24.5 -167t91.5 -142.5t162 -105t230 -51.5q134 -12 265 7q-122 63 -200 161.5t-106.5 210.5t-19.5 236.5t54 242t122 225t175.5 187
t224 125.5t258.5 43q156 -3 246.5 -72t100.5 -174t-28 -220t-136.5 -221.5t-228.5 -166.5q-42 -19 -64 7q-19 21 -2 44q8 9 21 15q15 7 47 8t66 12t68 45q83 85 133 172t64 161t0.5 140t-52 112t-99.5 72.5t-136 26.5q-136 0 -256 -47.5t-206.5 -127.5t-149 -186t-92 -220.5
t-27 -234t38 -225t111.5 -194t185 -139.5q117 27 227 77.5t202.5 115.5t178.5 149t156.5 172t135.5 190.5t115.5 199t96.5 202t79.5 195.5t64.5 184q160 494 360 1181q-67 -5 -172 -16q-23 -4 -33 7.5t-2.5 26t27.5 17.5q99 12 197 15q229 792 614 782q126 -3 189.5 -49.5
t70.5 -114.5q1 -29 -15 -48t-40 -26q-24 -5 -50.5 7t-37.5 43q-4 10 -12.5 39t-17 45t-26.5 36t-51 27.5t-80 3.5q-33 -3 -63.5 -17t-55.5 -33t-51 -53.5t-45 -64t-41.5 -80t-37 -86.5t-36 -97.5t-33.5 -99.5t-33.5 -106t-33.5 -104q131 1 195.5 0.5t191 -3t180.5 -3.5
q63 216 135.5 370.5t150.5 245t159 130.5t170 38q126 -3 189.5 -49.5t70.5 -114.5zM705 -244q104 313 366 1198q-48 1 -253 5.5t-314 3.5q-8 -25 -155 -498.5t-208 -659.5q-66 -206 -155.5 -399t-210 -377.5t-259 -333t-310 -263t-355.5 -171.5q193 -48 371.5 -33t338 74.5
t304 167.5t268 244.5t230 306t191 352.5t151.5 383z" />
    <glyph glyph-name="f_i" unicode="fi" horiz-adv-x="1173" 
d="M1014 1790q86 0 149 -32t94.5 -81.5t44.5 -109.5t5.5 -116.5t-29.5 -103t-53 -67.5q-31 -22 -64.5 -20.5t-53 20.5t-27 46.5t11.5 57.5q14 22 40 33.5t49.5 14t44.5 14t27 35.5q9 22 5.5 51.5t-11 61t-29.5 61.5t-51 53.5t-75.5 36t-102.5 8.5q-167 -11 -286 -232
q-65 -120 -153 -393q-32 -100 -34 -106h375q119 0 163 -51t11 -162q-13 -40 -103.5 -290.5t-105.5 -315.5q-3 -28 -1 -59t22.5 -56t54.5 -25q56 -1 98 41t88 119q8 11 16 6q5 -3 1 -10q-34 -94 -106.5 -161.5t-158.5 -71.5q-67 -2 -103.5 33.5t-38 96t23.5 140.5
q13 39 96.5 265.5t109.5 305.5q23 65 -2 102.5t-88 37.5q-309 0 -370 2q-51 -160 -217 -699q-43 -136 -93 -270.5t-121.5 -295t-151 -307t-182.5 -298.5t-214.5 -279t-248.5 -238.5t-282.5 -187.5t-319 -115.5t-356.5 -31.5q-301 13 -451 172q-122 129 -105 312
q16 188 173 353q196 208 535 292q106 26 223 38q37 4 49 -27q11 -29 -11 -46q-21 -18 -62 -3q-37 13 -79 13.5t-76 -5.5t-83 -20q-84 -22 -162.5 -62t-142.5 -92t-115.5 -115t-85.5 -129t-49 -135t-10.5 -134t35.5 -124t84.5 -106t139.5 -80.5t198 -46.5q200 -24 393 31.5
t352.5 167.5t310 276t268.5 345.5t223.5 389t179.5 393t132 369.5q25 78 156 514q11 38 12.5 67t-3.5 48t-21 32t-29.5 19.5t-40 10t-42 4t-45.5 0.5h-5q-26 0 -34.5 13.5t1 26.5t29.5 13h247q225 768 613 768z" />
    <glyph glyph-name="C_h2" unicode="Ch" horiz-adv-x="2844" 
d="M3316 2417q97 0 149.5 -25t40.5 -61q-8 -26 -36 -30t-52 9q-56 24 -105 37.5t-111 15.5t-118.5 -14t-123.5 -57t-131 -108t-136.5 -172.5t-144.5 -244.5q-101 -196 -211 -476t-166 -498l6 -2q63 109 162.5 185.5t224.5 76.5q117 0 155 -96.5t-22 -254.5
q-33 -80 -151 -436q-20 -59 -23.5 -104t15.5 -75t63 -30q58 0 110 49.5t80 120.5q5 8 13 4t4 -14q-28 -93 -94.5 -163t-157.5 -70q-215 0 -127 290q26 88 96 279.5t84 255.5q21 88 -6.5 139t-91.5 51q-79 0 -160.5 -64t-138 -151t-90.5 -180q-62 -171 -157.5 -313.5
t-203.5 -240.5t-230 -165.5t-240.5 -99t-231.5 -31.5q-132 0 -243 38t-191.5 106t-136.5 161.5t-83.5 203.5t-27.5 233q0 249 106 520q-201 23 -365.5 107t-265 224.5t-100.5 311.5q0 101 31 205.5t94 207.5t152 197.5t211.5 175t266 140t322.5 93.5t373 34q64 0 77 -39
q9 -30 -17 -51q-31 -26 -78 -5q-56 25 -115 31q-37 4 -84 4q-93 0 -196.5 -20t-211.5 -61.5t-209.5 -100t-191.5 -142t-157.5 -181.5t-106.5 -224t-39 -264q0 -148 82 -277t226 -213t321 -106q107 254 291.5 498t395.5 426t442.5 293.5t426.5 111.5q167 0 237 -123
q70 -124 17 -314q-62 -224 -264 -430q-280 -284 -722 -417q-334 -100 -730 -100q-92 -256 -92 -508q0 -185 66 -341t195.5 -254t297.5 -98q132 0 250 34t204 86.5t162 128t125 145.5t91 152.5t62.5 135.5t37.5 107q74 233 132 400t140 370.5t157.5 344t176 283.5t205 229
t235.5 140t275 54zM1956 2316q-99 0 -220 -46t-247 -127t-255.5 -199t-244 -255t-214 -301.5t-163.5 -332.5q611 -2 1061 249q293 164 453 397q131 192 126 359q-5 150 -121 216q-71 40 -175 40z" />
    <glyph glyph-name="T_h" unicode="Th" horiz-adv-x="2359" 
d="M2953 2232q0 -126 -116 -217t-300.5 -128t-390.5 -15q-241 -406 -448 -1079l6 -2q63 109 162.5 185.5t224.5 76.5q117 0 155 -96.5t-22 -254.5q-33 -80 -151 -436q-20 -59 -23.5 -104t15.5 -75t63 -30q58 0 110 49.5t80 120.5q5 8 13 4t4 -14q-28 -93 -94.5 -163
t-157.5 -70q-215 0 -127 290q26 88 96 279.5t84 255.5q21 88 -6.5 139t-91.5 51q-60 0 -123 -36.5t-113.5 -95t-90.5 -127.5t-62 -136q-12 -38 -83 -247t-104 -298q-9 -26 -35 -39q-69 -31 -79 -34q-6 -2 -11 3t-4 11q75 252 256 815q223 681 467 1065q-272 33 -598 156
q-78 -235 -233 -752.5t-176 -585.5q-60 -198 -131.5 -339.5t-149.5 -222.5t-157.5 -117.5t-168.5 -36.5q-166 0 -288 92q-29 23 -23 52t33 35t53 -16q9 -10 26.5 -33.5t31 -37t36.5 -30t58 -24.5t82 -8q267 0 436 533q17 52 113.5 364.5t210.5 681.5t149 482q-37 15 -129 52
t-134 53t-122.5 45.5t-133.5 43.5t-124.5 30.5t-138.5 23t-136 6.5q-288 0 -465 -162q-138 -127 -164 -307q-27 -180 70 -329q110 -170 337 -222q90 -21 192 -21q149 0 237 26q178 55 240 212q15 39 51 35q28 -4 36 -29q6 -20 -9 -41q-165 -238 -557 -238q-358 0 -547 176
q-142 131 -150 323q-7 183 110 343q131 178 363 246q120 35 256 35q110 0 225.5 -17.5t248 -56.5t222.5 -69.5t242 -86.5q12 41 46 80.5t73 54.5q16 3 24 0.5t8 -14.5t-1.5 -20t-3.5 -15q-21 -56 -43 -123q376 -139 602 -180q84 127 171 221t154 143.5t135.5 78.5t110 36
t82.5 7q100 0 157.5 -51.5t57.5 -129.5zM2724 2365q-273 0 -553 -452q181 -27 349.5 9t271 119.5t102.5 188.5q0 60 -44 97.5t-126 37.5z" />
    <glyph glyph-name="i_l" unicode="il" horiz-adv-x="1050" 
d="M2585 2886q344 43 566 -96q165 -102 214 -274q52 -179 -40 -358q-104 -200 -352 -322q-372 -183 -952 -132q-183 17 -337.5 50.5t-333.5 84.5q-306 -547 -566 -1417q-3 -11 -11 -36q-11 -35 -16.5 -53.5t-15 -52.5t-12.5 -54.5t-6 -49t1 -46t11.5 -35t23 -26t38.5 -10.5
q98 -5 188 162q4 10 11 5q5 -3 3 -13q-14 -43 -40 -84t-60 -75.5t-79 -54.5t-91 -17q-33 2 -58 12.5t-38.5 29.5t-22.5 39.5t-9 49.5t1 51.5t8 53.5t11 47.5t11.5 41.5t8.5 29q285 955 625 1528q-157 53 -294.5 72.5t-235 10.5t-179.5 -38.5t-133 -67.5t-90.5 -85
t-57.5 -82.5t-28 -67.5q-19 -60 -11 -113t42 -88q31 -33 67.5 -34.5t64.5 14.5t63 27.5t61 0.5q43 -17 50.5 -57.5t-23 -72t-81.5 -23.5q-178 27 -248.5 128t-29.5 228q20 62 62 119.5t106 109.5t156 85.5t202.5 47t254.5 -6t302 -73.5q543 894 1299 988zM2540 1765
q98 15 186 44.5t158.5 69t130 89t102.5 104t73 113.5t44 119t14 120t-16 116q-28 98 -116.5 172t-210.5 110t-275.5 27.5t-302.5 -66.5q-180 -70 -337 -181t-316 -294t-304 -434q158 -45 280 -72t272 -47.5t303.5 -18t314.5 28.5zM129 934q-5 5 2 16q37 35 102 67.5
t113 31.5q59 -1 89 -30t29 -75.5t-18 -105.5q-20 -59 -121 -316t-116 -319q-13 -47 3.5 -93.5t66.5 -46.5q25 -1 49 9.5t40 22.5t39 39.5t32 41t32 47.5q11 14 16 5q2 -4 0 -9q-38 -93 -112.5 -161t-161.5 -72q-64 -3 -98 32.5t-33.5 96.5t27.5 141q17 45 112.5 284
t124.5 314q28 85 9.5 123.5t-75 27.5t-124.5 -69q-18 -15 -27 -2z" />
    <glyph glyph-name="t_i" unicode="ti" horiz-adv-x="1146" 
d="M926 821q29 86 -4.5 133t-104.5 47h-325q-7 0 -7 -2q-99 -278 -194 -571q-58 -171 -64 -242q-11 -118 70 -123q96 -7 190 162q2 5 7 5.5t8 -3.5t0 -10q-31 -93 -105 -163.5t-164 -67.5q-31 1 -54 10t-37.5 22.5t-22.5 35t-11.5 40.5t-1.5 47t5 47t10 48t11 41.5t12 36
t8 24.5q5 13 28.5 81t62.5 178t70 198q30 112 28 154q-3 55 -42 55q-25 0 -33 13t2 26.5t29 13.5h102q4 0 4 4l86 229q51 132 104 184.5t118 55.5q20 1 30.5 -4t9 -10.5t-2.5 -8.5q-92 -62 -144 -194q-54 -136 -96 -254q-2 0 -1 -1t3 -1h342q116 0 162.5 -67.5t19.5 -160.5
q-22 -61 -79 -205t-101 -260t-55 -161q-13 -47 3 -93.5t66 -46.5q31 -1 58 11.5t53.5 41.5t40.5 48t41 59q11 14 16 5q2 -4 0 -9q-38 -94 -111 -161.5t-159 -71.5q-67 -2 -102 33.5t-34.5 96t27.5 140.5q17 46 107 265.5t121 299.5zM1092 1423q34 0 59 -25t25 -59
q0 -35 -25 -59.5t-59 -24.5q-35 0 -59.5 24.5t-24.5 59.5q0 34 24.5 59t59.5 25z" />
    <glyph glyph-name="P_i" unicode="Pi" horiz-adv-x="3072" 
d="M2984 223q11 14 16 5q2 -4 0 -9q-38 -94 -115 -163.5t-159 -69.5q-95 0 -120.5 76.5t20.5 193.5q17 45 112.5 284t124.5 314q28 75 10.5 113.5t-75.5 40.5q-232 -144 -492 -144q-189 0 -249 77q-38 47 -9 96q9 15 23 26q15 13 25 8q6 -4 -1 -16q-7 -11 -8 -24.5t5 -28
t18.5 -28.5t33 -27t47 -23t62.5 -15.5t78 -5.5q156 0 300 64t248.5 171.5t167 256t62.5 309.5q0 126 -39 231t-102.5 177t-151.5 125t-180.5 82t-194.5 42q-31 3 -41.5 -5.5t-17.5 -31.5q-8 -25 -123.5 -385.5t-236.5 -732t-167 -497.5q-29 -80 -64 -157t-87 -166
t-110 -165.5t-135 -149.5t-161 -124t-189 -82t-218 -31q-185 0 -334.5 47t-244 125.5t-153 183t-73 218t7.5 231.5t77.5 223t147.5 193t209 141q6 86 29 152q35 110 95 219t148 215.5t196.5 201t247 175t293.5 138.5t340.5 91t383.5 33q284 0 502.5 -86.5t340.5 -246.5
t122 -370q0 -195 -98 -367.5t-269 -301.5q58 0 88 -29t29.5 -76t-17.5 -106q-20 -59 -121 -316t-116 -319q-11 -52 4 -96t65 -44q31 -1 58 11.5t53.5 41.5t40.5 48t41 59zM2259 2329q11 43 -39 43q-111 -2 -225.5 -16.5t-249.5 -48.5t-260.5 -84.5t-253.5 -131.5
t-233 -182.5t-194 -244.5t-142 -312q-19 -60 -25 -117q109 31 227 31q279 0 390 -141q79 -102 47 -238q-29 -122 -129 -203q-96 -78 -216 -78q-83 0 -154 30.5t-120.5 82.5t-84.5 121t-52.5 144.5t-18.5 154.5q-93 -56 -165 -142t-114 -185t-55 -208t3.5 -213t70 -199
t137 -166t212 -113t286.5 -42q65 0 132.5 16.5t146 53t156 103t151.5 158t143.5 227.5t122.5 302q404 1258 506 1598zM633 1190q-4 -76 5.5 -150.5t35 -143.5t63.5 -121.5t95.5 -84t125.5 -31.5q131 0 221 97q81 87 84 198q2 125 -102 200q-105 77 -295 77q-124 0 -233 -41z
" />
    <glyph glyph-name="P_r" unicode="Pr" horiz-adv-x="3293" 
d="M3238 1057q67 0 112.5 -45t45.5 -107q0 -56 -23 -96t-54.5 -55.5t-65.5 -9t-56 35.5q-28 36 -12 83.5t67 60.5q45 12 43 46q-1 31 -39 49q-20 9 -45 9q-55 0 -121.5 -43t-132 -118.5t-125.5 -189t-100 -243.5q-7 -25 -62.5 -191t-62.5 -180q-12 -34 -45 -49
q-57 -23 -70 -26q-8 -3 -14 2t-2 18q4 10 58.5 172.5t117 351.5t80.5 246q46 145 61 236q-239 -150 -501 -150q-189 0 -250 77q-37 48 -9 96q9 15 23 26q16 14 25 8q7 -3 0 -16q-7 -11 -8 -24.5t5 -28t18 -28.5t32.5 -27t47 -23t62.5 -15.5t78 -5.5q135 0 260 47t226 133
q10 101 -15 164.5t-96 63.5q-56 0 -111 -44.5t-73 -70.5q-8 -12 -20 -5q-9 6 -1 17q7 11 29.5 34t58 55t82.5 54.5t90 22.5q150 0 168 -178q178 220 178 508q0 127 -37 231t-98.5 175t-149 124t-180.5 82.5t-200 44.5q-31 4 -42 -5t-18 -32q-9 -26 -123.5 -386
t-235.5 -731.5t-167 -497.5q-29 -80 -64 -157t-87 -166t-110 -165.5t-135 -149.5t-161 -124t-189 -82t-218 -31q-149 0 -275.5 30.5t-217 83.5t-157.5 126t-103.5 157t-50.5 176.5t-2 185t47 183t90.5 169t133.5 144t172 107.5q6 82 27 152q35 110 95.5 219t148.5 215.5
t197 201t247.5 175t293.5 138.5t340.5 91t383.5 33q284 0 502.5 -86.5t340 -246.5t121.5 -370q0 -176 -79 -335t-218 -279q-6 -97 -33 -199t-45 -145h7q181 297 395 297zM2243 2329q15 43 -37 43q-111 -2 -225.5 -16.5t-249.5 -48.5t-261 -84.5t-253.5 -131.5t-233 -182.5
t-194.5 -244.5t-142 -312q-18 -56 -24 -117q109 31 227 31q278 0 389 -141q79 -102 47 -238q-28 -122 -128 -203q-96 -78 -216 -78q-83 0 -154 30.5t-120.5 82.5t-84.5 121t-52.5 144.5t-18.5 154.5q-93 -56 -165 -142t-114 -185t-55.5 -208t3 -213t70 -199t136.5 -166
t211.5 -113t286.5 -42q65 0 133 16.5t147 53t156.5 103t151.5 158t143.5 227.5t122.5 302q374 1164 504 1598zM618 1190q-4 -76 5.5 -150.5t35.5 -143.5t64 -121.5t95.5 -84t125.5 -31.5q131 0 221 97q81 87 84 198q2 125 -102 200q-105 77 -295 77q-128 0 -234 -41z" />
    <glyph glyph-name="t_r" unicode="tr" horiz-adv-x="1552" 
d="M883 1057q142 0 180.5 -68t3.5 -194h6q33 51 69 96.5t88 95t114.5 78t125.5 25.5q88 -3 130 -62.5t22 -136.5q-17 -63 -54.5 -92.5t-76.5 -23.5t-64 40q-28 35 -11 82.5t69 60.5q42 10 41 43q0 32 -36 51q-24 12 -54 9q-114 -8 -258.5 -190t-225.5 -439
q-111 -349 -118 -366q-14 -36 -46 -50q-12 -4 -42.5 -16.5t-34.5 -13.5q-11 -2 -16.5 3t-0.5 17q2 6 52.5 156.5t114.5 339.5t89 268q36 115 -2 173t-155 58h-310q-2 0 -6 -4q-170 -483 -198 -569q-57 -169 -65 -239q-13 -120 67 -126q96 -7 190 162q5 7 11.5 4.5t2.5 -12.5
q-31 -94 -104 -164t-164 -69q-34 1 -58.5 12t-39 27.5t-21 41.5t-8.5 48t2 54t8.5 52t13.5 50t12.5 40t10.5 29q4 13 29 83t65 183.5t70 200.5q28 104 28 142q0 57 -40 57q-25 0 -33 13t1.5 26.5t29.5 13.5h100q2 0 6 4l82 229q49 131 102 184t117 56q21 1 31.5 -4
t8.5 -10.5t-3 -8.5q-85 -57 -139 -194q-4 -11 -34 -92.5t-58 -161.5q0 -2 2 -2h381z" />
    <glyph glyph-name="x_i" unicode="xi" horiz-adv-x="1536" 
d="M1530 1423q33 0 58.5 -25.5t25.5 -58.5q0 -35 -26.5 -59.5t-57.5 -24.5q-28 0 -50.5 16t-37 30t-36.5 18t-61.5 -22t-99.5 -87q-79 -79 -653 -665q47 -140 92 -262q8 -21 20 -52t19 -49t16.5 -41t18 -35.5t19.5 -25t23 -18t27 -5.5q35 -1 69.5 19.5t59.5 52.5t37.5 51.5
t20.5 34.5q6 15 13 12.5t1 -16.5q-3 -10 -13.5 -31t-35 -56.5t-54 -65.5t-74 -52t-91.5 -22q-91 0 -127 118q-4 11 -23 63t-49 135.5t-55 154.5q-433 -440 -494 -504q-129 -132 -251 -192t-224 -29q-79 26 -57 82q19 46 74 30q11 -3 32 -17.5t39.5 -26t53 -13.5t74 13
t101 60.5t134.5 121.5q38 40 501 518q-74 201 -145 405q-10 27 -18 41.5t-25 25.5t-38.5 1t-56.5 -44t-81 -96q-13 -15 -23 -8q-7 5 0 17q60 91 114 142t94 62.5t72.5 -3.5t53.5 -48t35 -80q4 -17 107 -325q245 253 458 471q17 18 57 60t58.5 60.5l54 54t56 53t52.5 44
t55.5 39.5t52 27.5t55.5 20t53 5.5zM1145 934q8 -13 26 2q68 58 124.5 69t75.5 -27.5t-9 -123.5q-29 -75 -125 -314t-113 -284q-27 -80 -27.5 -140.5t34.5 -96t102 -33.5q87 4 161.5 72t112.5 161q4 11 -4 11q-6 1 -12 -7q-27 -40 -41 -59t-40.5 -48t-53.5 -41.5t-58 -11.5
q-50 0 -66 46.5t-3 93.5q15 62 116 319t121 316q17 59 17 105.5t-31 75.5t-90 30q-48 1 -113 -31.5t-102 -67.5q-7 -11 -2 -16z" />
    <glyph glyph-name="f_u" unicode="fu" horiz-adv-x="1765" 
d="M1063 723q-16 -37 -41.5 -92.5t-46 -99.5t-44.5 -99t-39 -98t-27 -89t-11.5 -79.5t10.5 -62t36.5 -44t68.5 -18.5q111 -7 227 110t197 302q48 105 135 335q98 247 229 254q35 2 32 -12q-1 -6 -5 -8q-60 -43 -112 -160.5t-163 -435.5q-4 -13 -13 -39q-12 -35 -18 -53
t-16.5 -52t-14 -54t-7.5 -48t0 -45t11 -34t22.5 -26.5t37.5 -11.5q53 -4 104.5 45.5t86.5 116.5q8 8 13 5t1 -13q-32 -92 -110 -163.5t-168 -67.5q-55 3 -85.5 31.5t-35.5 74.5t3.5 95.5t29.5 103.5h-4q-19 -33 -45 -69t-68 -80.5t-87.5 -78t-104.5 -56t-117 -21.5
q-74 2 -120.5 28.5t-62.5 69t-12.5 92.5t25.5 105q37 90 109 253t87 199q21 52 28.5 91.5t1 73t-37.5 51.5t-86 18h-362q-25 -79 -129.5 -413.5t-188 -601.5t-100.5 -321q-45 -140 -106 -251t-121.5 -177.5t-126 -110.5t-117.5 -61t-99 -18q-109 -4 -217 39q-102 41 -106 94
q-2 25 20 49q8 9 20 15t30.5 4t35.5 -17q14 -13 33.5 -43t36 -51.5t55 -39.5t94.5 -19q87 -2 174 72t152 188t111 252q39 113 76 226.5t83 263.5t68 222.5t82 273.5t74 246q11 38 12.5 67t-3.5 48t-21 32t-29.5 19.5t-40 10t-42 4t-45.5 0.5h-5q-26 0 -34.5 13.5t1 26.5
t29.5 13h247q123 410 276 591.5t337 176.5q125 -3 189 -49.5t71 -114.5q1 -28 -16 -47.5t-40 -26.5q-25 -5 -51.5 7t-38.5 43q-3 8 -11.5 38.5t-16.5 45.5t-26 35.5t-50.5 28t-79.5 3.5q-33 -3 -64 -17.5t-57 -35.5t-52.5 -56.5t-46 -67.5t-42.5 -82.5t-37.5 -87.5
t-35.5 -97t-32.5 -95.5t-31 -98.5t-29.5 -93h397q59 0 99 -14.5t64.5 -48t22.5 -93t-32 -143.5z" />
    <glyph glyph-name="v_a" unicode="va" horiz-adv-x="2031" 
d="M2003 1026q20 2 27 -3t5 -10t-5 -7q-60 -41 -104 -150t-144 -430q-50 -155 -59 -213q-21 -142 71 -147q99 -7 188 161q2 4 6.5 4.5t7.5 -3.5t1 -11q-29 -93 -105 -165.5t-166 -65.5q-53 4 -84 30.5t-40.5 62.5t-5.5 85.5t15 90t27 85.5h-4q-21 -50 -61.5 -109t-95 -116.5
t-123.5 -94t-133 -32.5q-67 3 -115.5 28t-74.5 65t-38 85t-12 96q0 125 66 272.5t170 272.5q-30 -22 -91 -25.5t-131.5 16.5t-115.5 62q0 2 -2 2q9 -76 4 -160.5t-32 -171t-64 -167.5t-92.5 -151.5t-118 -122t-140 -79t-158.5 -22.5q-107 6 -154 70t-44 157q3 99 123 332
q15 29 45 86q104 199 123 267q27 94 -35 99q-31 1 -80 -42.5t-102 -116.5q-6 -8 -14 -7.5t-10.5 7t3.5 16.5q25 33 53 63.5t68 66t85.5 54.5t86.5 13q98 -13 66 -136q-19 -73 -118 -264q-110 -212 -142 -306q-24 -72 -27 -126q-5 -83 27 -135t110 -55q96 -3 193 74.5
t163 190t103.5 239t25.5 219.5q-6 48 -19.5 82t-28.5 51.5t-29 30.5t-24.5 29t-12.5 38q-3 37 15 58.5t50 23.5q46 3 66 -45q12 -16 37 -43.5t73 -65.5t98 -62t110.5 -22.5t111.5 41.5q77 80 159 128t154 51q20 1 43 -3t52.5 -20.5t52.5 -43.5t39 -77.5t16 -116.5
q48 131 99.5 183t115.5 55zM1692 532q31 88 44.5 162t11 124t-14.5 88.5t-33 59.5t-44 31.5t-48 10.5q-119 2 -254 -152q-127 -143 -199 -337q-78 -212 -33 -338q35 -98 142 -115q60 -10 125 29t121 109t103 155t79 173z" />
    <glyph glyph-name="c_u" unicode="cu" horiz-adv-x="1898" 
d="M1903 1042q34 2 31 -12q-1 -6 -5 -8q-61 -42 -106.5 -156t-147.5 -442q-51 -159 -59 -222q-14 -130 72 -139q53 -5 102.5 44t85.5 118q2 4 6.5 4.5t7.5 -3t0 -9.5q-29 -94 -104 -165.5t-166 -67.5q-55 3 -87 32t-39.5 74.5t-1 96t25.5 104.5h-5q-22 -43 -57.5 -91
t-87.5 -99.5t-122 -84t-142 -30.5q-73 1 -121 27.5t-65.5 69t-16 93t22.5 105.5q42 116 118 304t80 199q39 97 30 155.5t-67 59.5q-41 0 -104 -67q-12 -12 -22 -1q-6 7 -1 13q106 119 193 119q35 -1 60.5 -14.5t43.5 -44.5t13.5 -90.5t-33.5 -141.5q-16 -47 -47.5 -121
t-58 -136.5t-54 -134.5t-38.5 -128t-9.5 -104.5t31 -76.5t86.5 -32q111 -7 225 111t189 301q40 98 122 337q90 247 222 254zM674 1034q-85 0 -176.5 -70.5t-160.5 -175t-114 -231t-45 -233.5q0 -118 51.5 -189.5t159.5 -71.5q117 0 214 87t163 223q8 17 17 15t5 -21
q-17 -51 -57 -114t-96.5 -124.5t-134.5 -103t-156 -41.5q-127 0 -208 83t-81 244q0 116 53 249t137.5 243.5t202 184t234.5 73.5q64 0 116.5 -29t78.5 -71t25.5 -93t-34.5 -92q-28 -33 -69 -36.5t-70 24.5q-24 23 -29 50.5t3.5 47.5t23.5 33q31 28 37 60.5t-17.5 55.5
t-72.5 23z" />
    <glyph glyph-name="q_u" unicode="qu" horiz-adv-x="2072" 
d="M1155 932q-11 -12 -21 -1q-6 7 -1 13q111 119 192 119q35 0 61 -13.5t44 -44.5t14 -90.5t-33 -142.5q-14 -39 -36.5 -93.5t-43.5 -103t-45 -105t-40.5 -105.5t-29.5 -98t-13.5 -87t9 -69t37.5 -49t72 -21q111 -7 224 110t188 300q36 88 122 337q90 247 222 254
q36 2 32 -12q-2 -6 -6 -8q-59 -42 -113 -175q-36 -90 -141 -423q-3 -10 -10 -32q-8 -27 -12.5 -41.5t-12.5 -42t-11.5 -44t-8.5 -41.5t-5 -40.5t0.5 -35.5t6 -32.5t14 -24.5t22.5 -18.5t32 -8.5q53 -5 101 43.5t85 118.5q5 8 11.5 5t2.5 -13q-29 -92 -104.5 -163.5
t-165.5 -67.5q-55 2 -87 31t-38.5 74.5t0 96t25.5 103.5h-4q-23 -44 -58.5 -91t-87.5 -98.5t-122 -84t-142 -31.5q-74 2 -122 28.5t-65.5 69t-16 92.5t21.5 105q91 243 200 503q38 98 29 156.5t-65 58.5q-44 0 -107 -67zM598 -1014q-61 0 -105.5 15.5t-69.5 39.5t-37 61.5
t-13.5 74t6.5 85.5t18 87t25 86l291 905h-4q-21 -50 -60 -108t-92 -114t-121 -93t-133 -37q-67 0 -117 24.5t-77.5 65t-40.5 86.5t-13 96q0 117 60 258.5t149 257.5t199 194.5t203 78.5q20 0 40.5 -4t49 -20t49.5 -42.5t36.5 -77t16.5 -117.5l4 -2q81 240 217 240
q35 0 32 -11q-2 -5 -7 -9q-56 -38 -96 -131.5t-126 -361.5q-18 -57 -28 -87q-59 -186 -121 -372t-120 -353.5t-68 -198.5q-21 -62 -35.5 -112.5t-27.5 -109t-14.5 -102.5t6 -81.5t33 -57.5t66.5 -20q35 0 63.5 13t43.5 28.5t34 38t29 31.5q20 18 42 20t35 -8.5t11.5 -32
t-22.5 -45.5q-27 -31 -78 -50t-82.5 -23.5t-50.5 -4.5zM682 1008q-127 0 -264 -161q-127 -148 -195 -345q-74 -210 -29 -332q39 -107 164 -107q76 0 157.5 71t144 175.5t104.5 222.5q31 88 45 162t11.5 124t-14.5 88.5t-33 59.5t-44 31.5t-47 10.5z" />
    <glyph glyph-name="t_u" unicode="tu" horiz-adv-x="1683" 
d="M1008 762q-16 -38 -41.5 -94t-47 -102.5t-47 -104t-42 -104t-30 -95.5t-14.5 -85.5t8 -67t36 -48t69 -20.5q111 -7 227 110t197 302q48 105 135 335q98 247 230 254q34 2 31 -12q-1 -6 -5 -8q-60 -43 -111 -159t-163 -437q-4 -13 -13 -39q-12 -35 -18 -53t-16.5 -52
t-14 -54t-7.5 -48t0 -45t11 -34t22.5 -26.5t37.5 -11.5q53 -4 104 45.5t86 116.5q8 8 13.5 5t1.5 -13q-32 -92 -110.5 -163.5t-168.5 -67.5q-55 3 -85.5 31.5t-35.5 74.5t3.5 95.5t29.5 103.5h-4q-19 -33 -45 -69t-68 -80.5t-87.5 -78t-104.5 -56t-117 -21.5
q-74 2 -120.5 28.5t-62.5 69t-12.5 92.5t25.5 105q41 99 122.5 288.5t88.5 204.5q21 53 29.5 91.5t5.5 70.5t-26 48.5t-66 16.5h-363q-6 0 -6 -2q-33 -92 -73 -209.5t-76.5 -226t-45.5 -135.5q-53 -163 -61 -227q-17 -131 66 -138q98 -7 192 162q4 10 11 4q5 -4 3 -12
q-33 -93 -106.5 -163.5t-163.5 -67.5q-196 6 -85 337q4 11 5 15q25 76 160 455q31 116 27 160q-5 50 -41 51q-25 0 -33 13t1.5 26.5t29.5 13.5h102q4 0 4 4q24 67 46 124t32 81l10 24q51 132 103 184.5t116 55.5q21 1 31.5 -4t8.5 -10.5t-3 -8.5q-84 -57 -141 -194
q-2 -7 -36 -89.5t-63 -164.5q1 -2 3 -2h415q47 0 77.5 -14t48 -46.5t11.5 -91.5t-36 -143z" />
    <glyph glyph-name="t_y" unicode="ty" horiz-adv-x="1638" 
d="M1317 291h-4q-23 -44 -58.5 -91t-87.5 -98.5t-122 -84t-142 -31.5q-74 2 -122 28.5t-66 69t-16.5 92.5t22.5 105q44 117 118 301.5t76 191.5q88 227 -47 227h-366q-6 0 -6 -2q-110 -307 -195 -571q-54 -159 -64 -218q-22 -139 62 -147q96 -7 190 162q2 5 7 5.5t8 -3.5
t0 -10q-31 -93 -104.5 -163.5t-163.5 -67.5q-206 6 -80 352q34 105 159 455q31 117 28 161q-4 50 -40 50q-26 0 -34 13t2 26.5t30 13.5h100q3 0 7 4l84 229q51 132 104 184.5t117 55.5q20 1 30.5 -4t9 -10.5t-2.5 -8.5q-81 -55 -136 -194q-54 -136 -96 -254q0 -2 2 -2h418
q193 0 92 -293q-16 -47 -47.5 -121t-57.5 -135t-53.5 -132t-38 -126t-8 -103t32 -75t86.5 -31q111 -7 225.5 110.5t188.5 301.5q58 143 121 335q90 247 221 254q36 2 34 -12q-1 -6 -5 -8q-58 -39 -103 -147.5t-138 -402.5l-15 -48q-93 -293 -181 -526q-221 -573 -554 -798
q-228 -154 -463 -117q-174 27 -290 149q-109 115 -110 256q-1 50 14 98q31 101 111.5 178t178 116.5t191.5 56.5t169 11q38 -3 43 -31q6 -26 -20 -40q-17 -9 -38 -6q-19 3 -48 14t-49 14.5t-73 -0.5q-22 -3 -49.5 -11t-69 -23t-80 -41.5t-75.5 -61t-63.5 -87t-36.5 -114.5
q-29 -182 73 -310q92 -114 249 -135q191 -25 382 104q259 174 421 572l3 7q31 84 69.5 186.5t54 144.5t35 96t30 89t20.5 76z" />
    <glyph glyph-name="F_u" unicode="Fu" horiz-adv-x="3479" 
d="M3488 1042q34 2 31 -12q-1 -6 -5 -8q-60 -43 -111 -159t-163 -437q-4 -13 -13 -39q-12 -35 -18 -53t-16.5 -52t-14 -54t-7.5 -48t0 -45t11 -34t22.5 -26.5t37.5 -11.5q53 -4 104 45.5t86 116.5q8 8 13.5 5t1.5 -13q-32 -92 -110.5 -163.5t-168.5 -67.5q-55 3 -85.5 31.5
t-35.5 74.5t3.5 95.5t29.5 103.5h-4q-19 -33 -45 -69t-68 -80.5t-87.5 -78t-104.5 -56t-117 -21.5q-74 2 -120.5 28.5t-62.5 69t-12.5 92.5t25.5 105q34 82 85.5 199t87.5 199t44 105q13 31 21.5 61t12.5 66t-0.5 67t-21 61t-45.5 51t-78.5 34t-115.5 13q-154 0 -429 -75
q-19 -5 -28 -7q-51 -142 -80 -217.5t-83 -205.5t-93.5 -203.5t-103.5 -179.5t-123 -166t-141.5 -131t-169 -107.5t-195.5 -61.5t-231 -25q-188 0 -338.5 52t-243.5 140t-141.5 199t-48.5 234q0 108 35.5 215.5t106 203.5t166.5 170t226.5 117.5t276.5 43.5q38 0 46 -30
q7 -27 -17 -41q-18 -11 -46 -5q-18 4 -36 12t-36.5 12t-52.5 4q-97 0 -198.5 -57.5t-181.5 -150.5t-131.5 -220.5t-51.5 -257.5q0 -94 24 -180.5t77 -164t129 -135t187.5 -91t246.5 -33.5q106 0 200.5 21.5t172.5 60.5t147.5 96t127.5 126t110 151.5t96 172t86 188.5t80 199
t77 206q3 8 4 12q-107 -22 -204 -22q-63 0 -116 14t-89.5 38t-66 55.5t-45 67t-26.5 72t-10 70.5t4 63q4 22 20 24q15 2 17 -16q1 -4 0 -8q1 -15 -1 -40.5t5.5 -58t17.5 -66.5t34.5 -66.5t56.5 -58t84 -41t117 -15.5q96 0 217 27q42 115 70.5 189t73.5 181t82 181t89 164
t103 157.5t115 134.5t134 119q-122 42 -168.5 57t-164.5 52t-194.5 53.5t-189.5 38t-223 30.5t-225 9q-462 0 -776 -213q-214 -146 -306 -353q-82 -189 -33 -352q47 -156 199 -224q51 -23 113 -34q11 -2 15.5 -6.5t2.5 -9t-7 -6.5q-50 -17 -102 -11t-101.5 24.5t-93 56
t-76 83.5t-51.5 107t-19 127q0 81 25.5 166t78 169t127 161.5t178.5 144t226.5 116t277.5 77.5t324 28q93 0 191 -9t171.5 -18.5t178 -34.5t156 -37.5t163 -48.5t141.5 -46t146 -51q37 -13 55 -19q260 176 619 176q167 0 231 -80q49 -61 15 -133q-37 -77 -144 -112
q-60 -19 -133 -19q-124 0 -257 31t-308 90q-55 -43 -105 -95t-95 -114.5t-82.5 -121t-76.5 -138t-67 -140.5t-64.5 -153t-59 -151.5t-58.5 -159.5q14 4 95 28t111.5 31t95.5 22t119 20t111 5q91 0 156 -35.5t95.5 -95t31 -138.5t-32.5 -165q-18 -47 -52 -121t-62.5 -136
t-58.5 -134t-43.5 -128t-13 -104.5t29 -76t85.5 -31.5q111 -7 227 110t197 302q48 105 135 335q98 247 230 254zM3236 2367q-323 0 -559 -167q170 -59 294.5 -89t233.5 -30q124 0 182 74q46 57 23 119q-24 67 -113 87q-28 6 -61 6z" />
    <glyph glyph-name="F_i" unicode="Fi" horiz-adv-x="3057" 
d="M3269 2398q167 0 231 -80q48 -61 14 -133q-37 -77 -143 -112q-61 -19 -133 -19q-125 0 -258.5 31t-308.5 90q-62 -49 -119.5 -113t-103.5 -128t-93 -149t-81.5 -156t-75.5 -172t-68 -173.5t-66 -181.5q8 2 79.5 23t90 26t79.5 20t95.5 19.5t86.5 10t100 5.5
q78 0 123.5 -28t50 -73t-20.5 -101q72 45 134 45q58 0 88 -29t29.5 -76t-17.5 -106q-20 -60 -121.5 -316.5t-116.5 -318.5q-11 -52 4.5 -96t65.5 -44q25 -1 49 9.5t40 22.5t39 39.5t32 41t32 47.5q10 12 16 5q2 -4 1 -9q-38 -93 -115.5 -163t-159.5 -70q-95 0 -120.5 76.5
t20.5 193.5q17 45 113 284t125 314q26 76 12 115t-59 39q-12 0 -24.5 -3t-26 -9.5t-25 -13t-26.5 -18.5t-24 -19t-25 -22.5t-23 -22t-23.5 -23.5t-20.5 -21q-17 -17 -29 -7t5 25q9 8 22 24.5t28 42t24.5 52t6.5 53.5t-20.5 48t-61.5 34t-112 13q-26 0 -51 -1t-53.5 -5
t-47 -6t-51 -9.5t-45 -10t-50 -12.5t-44 -11.5t-49 -13.5t-45.5 -13q-52 -144 -80 -218.5t-82.5 -206t-93.5 -204t-103.5 -179.5t-123 -167t-141.5 -131.5t-169.5 -107.5t-196 -61.5t-231.5 -25.5q-152 0 -280 34.5t-217.5 93.5t-152.5 139t-92.5 171t-29.5 189
q0 108 35.5 215.5t105.5 203.5t166 170t226.5 117.5t277.5 43.5q38 0 46 -30q8 -26 -16 -41q-19 -12 -48 -5q-18 4 -35.5 12t-35.5 12t-52 4q-97 0 -198.5 -57.5t-181.5 -150.5t-131.5 -220.5t-51.5 -257.5q0 -94 24 -181t76 -165t128 -135.5t188 -91t247 -33.5
q380 0 632 285q168 189 323 564q49 120 147 386q-104 -22 -205 -22q-63 0 -116 14t-89.5 38t-66 56t-44.5 67.5t-26 72t-10 70.5t4 63q4 22 20 24q15 2 17 -16q1 -4 0 -8q-3 -29 -1 -63t18.5 -87.5t47 -94.5t95 -71.5t153.5 -30.5q96 0 218 27q43 116 71 188.5t73 180.5
t82 181t89 164t102.5 158t115 134.5t134.5 119.5q-324 111 -481 151q-352 91 -684 91q-463 0 -777 -213q-214 -146 -306 -353q-83 -189 -34 -352q47 -156 199 -225q53 -23 115 -34q11 -2 14.5 -7t1.5 -10t-6 -6q-99 -30 -201.5 11.5t-171.5 143.5t-69 232q0 81 25.5 166
t78 169t127 161.5t178.5 144t226.5 116t277.5 77.5t324 28q160 0 319 -21t311.5 -61.5t264.5 -76.5t260 -88q10 -4 16 -6l15 -5t16 -6q260 176 621 176zM3238 2083q123 0 181 74q45 57 22 119q-24 68 -111 87q-29 7 -63 7q-323 0 -560 -168q168 -58 295 -88.5t236 -30.5z
M3058 1423q35 0 59.5 -25t24.5 -59q0 -35 -24.5 -60.5t-59.5 -25.5q-34 0 -59 25.5t-25 60.5q0 34 25 59t59 25z" />
    <glyph glyph-name="A_h" unicode="Ah" horiz-adv-x="4243" 
d="M4712 2417q98 0 150.5 -25t40.5 -61q-8 -26 -36 -30t-52 9q-56 24 -105.5 37t-111 14.5t-118.5 -15.5t-124 -58.5t-131.5 -108t-137 -171t-143.5 -241.5q-224 -435 -376 -974l6 -2q63 109 162.5 185.5t224.5 76.5q117 0 155 -96.5t-22 -254.5q-38 -92 -152 -436
q-20 -59 -23 -104t16 -75t63 -30q58 0 110 49.5t80 120.5q5 8 13 4t4 -14q-28 -93 -94.5 -163t-157.5 -70q-215 0 -127 290q26 88 96 279.5t84 255.5q21 88 -6.5 139t-91.5 51q-80 0 -162 -63t-140 -151.5t-88 -180.5q-12 -40 -82.5 -248.5t-103.5 -296.5q-9 -26 -35 -39
q-66 -29 -80 -34q-6 -2 -11.5 3t-2.5 11q38 116 112 353q59 186 89 281t88 268t95.5 270t98 245.5t109 239t114.5 205t129 189t139.5 145.5t156.5 118q-54 25 -102 38.5t-107 15t-114.5 -16t-122 -60t-132 -110t-141.5 -173t-154 -243.5q-92 -164 -252.5 -571.5
t-290.5 -767.5q-3 -9 -10 -28q-12 -34 -18.5 -53t-17.5 -53.5t-15 -55.5t-9 -50t-1.5 -47t10.5 -35.5t22.5 -26.5t38.5 -11q97 -7 195 161q2 4 6 4.5t7 -3t1 -9.5q-34 -94 -111.5 -165.5t-166.5 -65.5q-200 12 -77 345q2 5 3 7q40 117 48 176t-9 105q-81 209 -236 385
q-273 -360 -392 -501q-279 -330 -522 -483q-280 -176 -589 -176q-189 0 -349 52.5t-270.5 142t-184 210t-101.5 254t-12 276.5t75 274.5t169 251t260 204.5q45 26 69 0q19 -20 1 -45q-7 -11 -21 -18t-35 -9.5t-39 -6t-54.5 -27t-82.5 -68.5q-76 -75 -130 -179t-81 -219.5
t-25.5 -240t30 -241t93.5 -221.5t157.5 -183t228.5 -124t300 -46q124 0 247.5 36t228.5 90.5t221 149t204.5 181.5t200 219.5t187.5 231.5t186 247q-184 194 -427.5 297t-496.5 103q-348 0 -579 -196q-172 -146 -231 -358q-56 -200 13 -369q68 -167 235 -234q95 -39 214 -39
q84 0 133 28t66 60q18 32 52 23q26 -7 29 -31q3 -19 -16 -39q-31 -31 -99.5 -51.5t-166.5 -20.5q-269 0 -413 169q-121 141 -118 351q3 215 132 404q148 216 404 308q158 56 343 56q596 0 981 -385q331 438 640 738.5t626 465.5q-69 -30 -206 -34t-272.5 8t-318.5 25.5
t-299 13.5q-279 0 -431 -154q-113 -113 -120 -269q-7 -144 79 -246q98 -116 267 -116q72 0 128 17.5t89 44.5t54.5 65t29.5 72t10 72q2 36 27.5 49.5t48 -2.5t17.5 -52q-4 -26 -18 -59.5t-45.5 -78t-74.5 -80t-112.5 -60.5t-151.5 -25q-198 0 -306 131q-92 111 -82 267
q10 164 127 287q153 162 423 175q21 1 43 1q113 0 403.5 -26t446.5 -26q82 0 170 15t151.5 33.5t144.5 33.5t150 15q155 0 191 -52q133 54 280 54zM2900 698q204 559 388 916t405 571q-155 -112 -301 -245t-282.5 -285.5t-238.5 -277.5t-233 -296q150 -160 262 -383z" />
    <glyph glyph-name="A_l2" unicode="Al" horiz-adv-x="3676" 
d="M3279 338q85 273 155.5 479t153 421t161.5 373.5t169 301t190 243t209 162.5q-75 34 -142 44.5t-152.5 -10.5t-169.5 -83.5t-186 -189.5t-208 -314q-92 -163 -252 -570t-291 -771q-55 -153 -66 -210q-26 -143 66 -148q96 -7 195 159q4 10 11 4q5 -4 3 -12
q-22 -59 -61.5 -111.5t-98 -88t-118.5 -31.5q-42 2 -70 20.5t-40 43.5t-13.5 60.5t3 66.5t14.5 67t17 55.5t15 38.5q18 50 28.5 85.5t17.5 72t5.5 67t-12.5 55.5q-92 221 -234 386q-273 -357 -385 -490q-278 -330 -516 -484q-288 -186 -604 -186q-189 0 -349 53
t-270.5 142.5t-184.5 210t-101.5 254t-11.5 276.5t74.5 275t168.5 251.5t260 204.5q45 26 69 -1q19 -20 3 -44q-7 -11 -22 -18q-13 -7 -42.5 -9.5t-69.5 -24t-99 -79.5q-76 -74 -130 -178t-81 -219.5t-25.5 -239.5t30 -241t93.5 -222t157.5 -183.5t228.5 -124.5t300 -46
q124 0 247.5 35.5t229 90.5t220.5 149t204.5 182t200 220t187.5 232t186 248q-184 194 -437 297t-522 103q-343 0 -567 -195q-168 -146 -222 -357q-52 -201 21 -370q72 -169 242 -236q95 -38 213 -38q84 0 133 28t66 60q18 32 52 23q26 -7 29 -31q3 -19 -16 -39
q-31 -31 -99.5 -51.5t-166.5 -20.5q-269 0 -414 169q-120 141 -117 351q3 216 133 404q149 216 406 307q157 55 340 55q594 0 981 -383q115 163 266 339.5t319.5 345t349 308t331.5 209.5q-88 -29 -228.5 -33t-270.5 7.5t-305.5 25t-291.5 13.5q-279 0 -431 -154
q-113 -113 -120 -269q-7 -144 79 -246q98 -116 267 -116q73 0 129 18t88.5 45t54 65t29.5 71.5t10 71.5q2 37 27.5 51t48 -2t17.5 -52q-4 -26 -18 -59.5t-45.5 -78t-74.5 -80t-112.5 -60.5t-151.5 -25q-198 0 -306 131q-92 111 -82 267q10 164 127 287q153 162 423 175
q21 1 43 1q113 0 403.5 -26t446.5 -26q90 0 177 15t146 33.5t144 33.5t172 15q118 0 162 -48q127 50 268 50q97 0 150.5 -26t41.5 -62q-8 -24 -36 -28.5t-52 7.5q-56 24 -106 37.5t-111.5 14.5t-119 -15.5t-124.5 -58.5t-131.5 -108.5t-137 -171t-144.5 -241.5
q-87 -166 -238 -582.5t-262 -758.5q-55 -170 -61 -240q-9 -123 78 -123q96 0 184 162q5 8 12 5.5t4 -13.5q-30 -91 -103 -161t-161 -70q-35 0 -61.5 9.5t-41 28t-24 39t-9.5 50t0.5 52.5t7.5 54.5t11.5 48.5t12 43t8.5 29zM2900 698q100 276 184 480.5t180.5 397
t201.5 342.5t224 267q-231 -154 -519.5 -462.5t-534.5 -643.5q157 -166 264 -381z" />
    <glyph glyph-name=".notdef" horiz-adv-x="649" 
 />
    <glyph glyph-name=".null" horiz-adv-x="0" 
 />
    <glyph glyph-name="nonmarkingreturn" horiz-adv-x="682" 
 />
    <glyph glyph-name="space" unicode=" " horiz-adv-x="628" 
 />
    <glyph glyph-name="exclam" unicode="!" horiz-adv-x="761" 
d="M307 150q36 0 62 -24.5t26 -59.5q2 -34 -22.5 -59t-59.5 -25q-34 0 -60.5 25t-27.5 59q0 35 24 59.5t58 24.5zM1686 2419q97 0 151 -26t43 -62q-8 -24 -36 -28.5t-52 7.5q-57 24 -107.5 37.5t-112.5 15.5t-119 -14.5t-123 -57.5t-128 -108t-129.5 -172.5t-132.5 -243.5
q-120 -244 -379 -1103q-41 -134 -97.5 -199t-119.5 -68q-21 -1 -29 4t-6.5 10t4.5 7q40 27 72.5 90t65.5 174q71 241 134.5 431.5t138.5 376t150.5 323t165.5 256t187.5 193t213 116t245.5 41.5z" />
    <glyph glyph-name="quotedbl" unicode="&#x22;" horiz-adv-x="968" 
d="M420 1241q61 37 92 73.5t34.5 69.5t-2 61t-14 61t-6.5 55q5 46 32 62.5t56 14.5q22 0 50.5 -19t29.5 -56q1 -56 -27 -113t-70.5 -101.5t-83.5 -76.5t-77 -51q-19 -10 -23 3q-3 10 9 17zM733 1241q61 37 92.5 73.5t35 69.5t-2 61t-14 61t-6.5 55q5 46 32 62.5t56 14.5
q23 0 51 -19t29 -56q1 -56 -26.5 -113t-70.5 -101.5t-83.5 -76.5t-75.5 -51q-20 -10 -25 3q-4 10 8 17z" />
    <glyph glyph-name="numbersign" unicode="#" horiz-adv-x="1771" 
d="M1683 1034q18 0 17 -8q0 -2 -2 -4q-52 -29 -94 -29h-263q-188 -390 -217 -448h373q17 0 17 -6q0 -2 -3 -4q-52 -29 -92 -29h-313q-106 -215 -191 -385q-21 -42 -36 -96.5t-15 -71.5q0 -13 -0.5 -17t-2.5 -8.5t-7.5 -1t-15.5 12.5q-15 12 -23.5 39t-0.5 82t40 122
q3 7 29 60.5t59.5 122.5t69.5 141h-367q-177 -358 -190 -385q-21 -43 -36.5 -97t-15.5 -71q0 -13 -0.5 -17t-2.5 -8.5t-8 -1t-17 12.5q-15 12 -23 39t0.5 82t40.5 122q8 18 28 60t59.5 123t68.5 141h-332q-8 0 -9 5q0 2 3 3q54 29 100 29h256q78 158 219 450h-383q-6 0 -8 4
t2 7q46 26 101 26h18t45.5 0.5t64 1t83.5 0.5h96q24 48 71 145.5t70 145.5q73 156 76 238q3 31 25 4q69 -69 -17 -246q-64 -143 -133 -287h371q52 114 139 291q73 156 76 238q1 11 5.5 14t10 0t10.5 -10q65 -68 -16 -246q-71 -152 -133 -287q180 2 323 2zM1030 545
q31 64 104 214.5t113 233.5h-366q-39 -83 -112.5 -233.5t-104.5 -216.5q56 0 180 1t186 1z" />
    <glyph glyph-name="dollar" unicode="$" horiz-adv-x="1449" 
d="M1133 1581q54 -9 100.5 -28t87 -50t63 -80.5t21.5 -111.5q-2 -54 -35 -84.5t-75 -29.5t-72 28q-35 31 -28 80.5t50 74.5q20 11 26 32.5t-7 45.5q-14 26 -50 50t-94 36q-117 -407 -202 -696l12 -12q58 -58 87 -88t72.5 -84t63.5 -93t32.5 -90t4.5 -100
q-25 -172 -167.5 -284.5t-358.5 -116.5q-75 -257 -78 -263q-10 -27 -21.5 -43t-38.5 -36q-6 -5 -9.5 -2.5t-0.5 12.5q0 3 98 334q-107 4 -187 30.5t-123 67t-68.5 88t-29 97.5t2.5 91t20 72q18 36 62.5 47t83.5 -16q27 -18 36 -46t3.5 -52.5t-19.5 -43.5q-7 -9 -32 -30.5
t-34 -41.5t-1 -50q8 -26 26 -52.5t51.5 -55t90.5 -47.5t129 -22q195 667 217 742q-11 11 -46.5 48t-48 50.5t-43.5 47t-43.5 50.5t-35 47t-32 51t-21 48t-15 52t-2.5 50q7 122 90 215.5t200.5 135.5t237.5 32q43 140 43 142q14 54 62 75q7 3 7 -4q0 -5 -5 -20
q-53 -187 -57 -199zM1073 344q11 91 -40.5 180.5t-151.5 194.5q-35 -117 -205 -699q101 4 176.5 32t120.5 74.5t69 100t31 117.5zM879 887q119 401 194 663q-93 8 -184 -22t-153.5 -94.5t-67.5 -147.5q-5 -71 26.5 -145t73.5 -127.5t111 -126.5z" />
    <glyph glyph-name="percent" unicode="%" horiz-adv-x="1792" 
d="M1268 1245q-113 -187 -268.5 -435.5t-255.5 -408.5t-119 -194q-54 -97 -75.5 -159t-17.5 -109q0 -5 -3 -10.5t-11.5 -3.5t-19.5 20q-62 97 69 315q58 97 338.5 542t302.5 484q60 107 84.5 170.5t20.5 112.5q0 4 2.5 8.5t11 2.5t21.5 -19q62 -84 -80 -316zM1354 733
q133 -1 173 -124q37 -116 -18 -279q-55 -162 -165 -260q-119 -106 -250 -80q-54 10 -91.5 47t-52.5 87t-13 107.5t21 112.5q37 108 107.5 185t136 107t115.5 26q23 -2 32 -21.5t-2.5 -38t-37.5 -16.5q-17 1 -25.5 11t-13.5 20t-13 10q-13 0 -38 -17q-69 -49 -120 -123
t-73 -150.5t-23.5 -146t27 -119t80.5 -61.5q114 -25 217 104q92 112 128 275q38 169 -14 263q-30 54 -87 67q-7 1 -9 4.5t0.5 6.5t8.5 3zM674 1475q133 0 173 -123q38 -116 -18 -279q-55 -163 -165 -261q-119 -107 -250 -81q-54 11 -91 48t-52 87.5t-13 108t21 112.5
q28 82 76 147t99 101.5t98.5 54t84.5 15.5q23 -2 32 -22t-2 -38.5t-36 -17.5q-18 1 -26.5 11t-13 20t-11.5 10q-20 0 -39 -16q-69 -49 -120.5 -123t-73.5 -150.5t-23.5 -146t26.5 -119t80 -61.5q114 -25 218 104q91 113 127 276q38 167 -14 261q-30 54 -87 67q-9 3 -9 9t9 6
z" />
    <glyph glyph-name="ampersand" unicode="&#x26;" horiz-adv-x="2344" 
d="M1929 926q215 0 325 -122.5t85 -320.5q-14 -101 -75.5 -199t-159 -177t-239 -128t-300.5 -49q-183 0 -343 78.5t-290 216.5q-104 -119 -220.5 -184.5t-260.5 -65.5q-43 0 -92 10t-105.5 36t-100 65t-70 104t-20.5 146q5 77 45.5 148.5t86 117.5t126 96.5t121.5 71
t118 55.5q6 3 9.5 4.5t9 4t9.5 4.5q-40 141 -44 263.5t31 205.5q53 127 177 209.5t297 82.5q122 0 194 -68.5t72 -156.5q0 -106 -75.5 -185.5t-182.5 -78.5q-10 0 -10 6t8 6q48 8 86.5 43.5t59.5 82.5t24 100.5t-13.5 99.5t-61 77.5t-110.5 35.5q-107 6 -197.5 -46
t-142.5 -151q-89 -183 -6 -479.5t281 -546.5q43 58 103 148t105.5 157.5t104.5 147.5t117 136t126.5 103.5t149 69.5t168.5 16q40 -3 44 -29q3 -22 -18 -32q-14 -6 -30 -2q-7 2 -28 10t-37.5 12t-54 -1.5t-85.5 -24.5q-80 -33 -153.5 -93t-138 -142t-116 -158.5t-118 -179
t-115.5 -167.5q128 -156 278.5 -247t305.5 -91q283 0 468 173q139 129 178 308q36 168 -32 291q-73 133 -236 148q-20 2 -40 2q-166 0 -290 -122q-93 -92 -116 -200q-21 -103 38 -147q15 -12 36 -18q38 -10 35 -39q-3 -24 -28 -32q-20 -5 -42 7q-49 29 -72.5 76t-19 100.5
t27 111.5t67.5 110.5t100 94t126.5 66.5t145.5 25zM453 23q132 -14 241.5 46t212.5 181q-108 120 -187.5 265t-123.5 294q-291 -126 -388 -318q-73 -143 -18 -277q44 -109 153 -161q52 -24 110 -30z" />
    <glyph glyph-name="quotesingle" unicode="'" horiz-adv-x="100" 
d="M313 1241q61 37 92.5 73.5t35 69.5t-2 61t-14 61t-6.5 55q5 46 32 62.5t56 14.5q22 0 50.5 -19t29.5 -56q1 -56 -27 -113t-70.5 -101.5t-83.5 -76.5t-77 -51q-17 -10 -23 1t8 19z" />
    <glyph glyph-name="parenleft" unicode="(" horiz-adv-x="1058" 
d="M1479 2302q-69 -36 -137.5 -79t-155 -110t-165 -143t-162 -181t-153.5 -221t-133.5 -265t-105.5 -312q-51 -195 -53 -406.5t38 -403t104 -359.5t149 -307q27 -37 61.5 -58.5t38.5 -25.5q18 -17 14.5 -35.5t-20.5 -21t-35 13.5q-24 24 -61.5 74t-92 139.5t-106.5 195.5
t-98 245.5t-73.5 283.5t-26.5 316.5t38 338.5q39 177 116.5 344t173 299.5t209.5 251t226 205.5t223 156t199.5 109t155.5 58q26 7 40 -4.5t8 -28.5t-28 -24q-26 -6 -41 -2.5t-54 -6t-93 -36.5z" />
    <glyph glyph-name="parenright" unicode=")" horiz-adv-x="1171" 
d="M-164 -524q69 37 137 80t154.5 110t165 143t162.5 181t154 221t133.5 265t105.5 312q51 195 53 406.5t-38 403t-104.5 359.5t-148.5 306q-20 28 -38.5 43t-36 24.5t-27.5 18.5q-18 17 -14 35.5t21.5 21t35.5 -13.5q24 -25 61 -74.5t92 -140t106.5 -196t98 -245.5
t73.5 -284t26.5 -316.5t-37.5 -338.5q-40 -177 -117.5 -344t-173.5 -299.5t-210 -251t-226 -206t-222.5 -156t-198.5 -108.5t-155 -57q-26 -7 -40 5t-8 28.5t28 22.5q26 7 41 3.5t54 5.5t93 36z" />
    <glyph glyph-name="asterisk" unicode="*" horiz-adv-x="1667" 
d="M1296 1972q70 -50 128 -67.5t97 -22t64 -22.5q18 -13 21.5 -31t-4 -34.5t-21.5 -33.5q-23 -25 -53 -33t-58 9q-20 14 -33 38t-22.5 47t-42.5 61t-88 77q-28 -79 -38.5 -137.5t-7.5 -85t2 -57t-11 -60.5q-13 -37 -40.5 -56.5t-55.5 -19.5q-30 0 -44.5 20.5t-1.5 55.5
q10 29 31 59.5t42 57t51.5 85.5t58.5 138q-83 -40 -142 -78.5t-83.5 -62t-54 -47.5t-60.5 -39q-42 -19 -64.5 -11.5t-29.5 33.5q-5 25 11 52.5t52 45.5t78.5 24t113 25.5t175.5 71.5q-56 39 -104.5 59.5t-76 23t-56.5 9t-50 21.5q-26 21 -23 47t27 51t52.5 33.5t56.5 -8.5
q21 -15 35 -39t23 -47t42 -60.5t88 -76.5q28 80 38.5 139t7.5 85t-2 56t11 60q12 37 40.5 56t56.5 19q30 0 44 -19.5t1 -55.5q-10 -29 -31 -59.5t-42 -57t-51.5 -85.5t-58.5 -138q83 40 142 78.5t83.5 62.5t54 48t60.5 40q42 18 65 9.5t30 -32.5q5 -25 -11.5 -53.5
t-52.5 -46.5t-79 -24t-114 -25.5t-176 -71.5z" />
    <glyph glyph-name="plus" unicode="+" horiz-adv-x="991" 
d="M889 655l-27 -69h-278l-103 -283h-84l103 283l-281 2l25 67h282l88 246h84l-88 -246h279z" />
    <glyph glyph-name="comma" unicode="," horiz-adv-x="497" 
d="M45 -254q61 37 92.5 73t35 69t-2 60.5t-14 60t-6.5 54.5q9 80 88 80q22 0 50 -19t29 -56q1 -56 -27 -114t-70.5 -102.5t-83.5 -76.5t-77 -51q-17 -9 -22.5 2t8.5 20z" />
    <glyph glyph-name="hyphen" unicode="-" horiz-adv-x="925" 
d="M817 516q25 -35 21.5 -68t-35.5 -40q-24 -7 -46 2.5t-36.5 26t-39 42t-46.5 41.5q-45 31 -111.5 45.5t-129 12.5t-118.5 -8.5t-90 -14.5l-34 -8q-39 -13 -39 12q0 16 61 33t153.5 25t190 5.5t182 -29.5t117.5 -77z" />
    <glyph glyph-name="period" unicode="." horiz-adv-x="421" 
d="M160 160q34 0 59 -25t25 -59t-25 -59t-59 -25q-35 0 -59.5 25t-24.5 59t24.5 59t59.5 25z" />
    <glyph glyph-name="slash" unicode="/" horiz-adv-x="937" 
d="M1331 2474q21 -22 29.5 -63.5t-4 -112.5t-51.5 -156q-90 -195 -367 -785.5t-506 -1080t-244 -524.5q-43 -104 -58.5 -168.5t-6.5 -111.5q3 -9 -5 -14q-10 -6 -30 18q-21 27 -29.5 68t3.5 111t51 155q43 95 570 1214.5t546 1164.5q46 109 61.5 175t5.5 114q0 20 15 12
q9 -5 20 -16z" />
    <glyph glyph-name="zero" unicode="0" horiz-adv-x="1159" 
d="M88 371q0 135 59 276t150 248t208 175.5t226 68.5q40 0 57 -33.5t0 -66.5t-59 -33q-23 0 -37.5 11t-19 23.5t-12.5 23.5t-19 11q-60 0 -136.5 -60.5t-145 -157t-115.5 -234t-47 -275.5q0 -168 64 -260t183 -92q96 0 186.5 58.5t159.5 154t121 213.5t79.5 241.5
t27.5 233.5q0 78 -17.5 140t-42.5 98t-56 59.5t-55 32t-42 8.5q-11 0 -14.5 6.5t1 12.5t13.5 6q203 0 281 -171q73 -158 21 -399q-50 -240 -193 -434q-158 -214 -359 -270q-62 -17 -125 -17q-87 0 -154.5 34t-107.5 91.5t-60 127.5t-20 149z" />
    <glyph glyph-name="one" unicode="1" horiz-adv-x="866" 
d="M993 1257q-42 -29 -76.5 -91.5t-74.5 -182.5q-13 -41 -149.5 -437.5t-170.5 -484.5q-11 -28 -37 -38q-13 -4 -44.5 -19t-34.5 -16q-6 -2 -12 3t-3 11q246 681 301 842q-66 -126 -199 -258t-277.5 -221.5t-248.5 -106.5q-8 -1 -12 2.5t-2.5 8.5t8.5 7q108 29 217.5 98
t198 155t170 189.5t140 198.5t101.5 185q83 176 189 176q27 0 26 -9q-1 -6 -10 -12z" />
    <glyph glyph-name="two" unicode="2" horiz-adv-x="1056" 
d="M414 215q52 0 99.5 -22t84 -53.5t71 -63.5t73.5 -54t79 -22q51 0 113 33q16 10 20 -2q4 -11 -10 -19q-109 -57 -199 -57q-52 0 -99.5 21t-82.5 51t-68 60.5t-72 51.5t-79 21q-63 0 -123 -36.5t-149 -123.5q-47 -44 -86 -31q-28 10 -22 38q4 21 28 40q86 67 200.5 149
t204 144.5t188.5 134.5t170.5 135.5t132 130.5t91.5 136t31 137q0 111 -68 174t-203 63q-72 0 -137 -26t-113 -68.5t-83.5 -96t-53.5 -110t-18 -108.5t11 -96.5t37 -75.5t64 -31q15 0 26 14.5t17 32.5t22.5 32.5t41.5 14.5q26 0 41.5 -18t15.5 -41q0 -72 -149 -72
q-144 0 -203 105q-54 95 -14 226q44 143 174 240q152 113 368 113q155 0 246.5 -70t91.5 -202q0 -55 -17.5 -104.5t-58 -100t-88.5 -95.5t-128 -106.5t-155 -116.5t-191.5 -142.5t-217.5 -168.5q77 35 146 35z" />
    <glyph glyph-name="three" unicode="3" horiz-adv-x="1048" 
d="M918 172q0 -113 -47 -214.5t-123.5 -175t-171 -127.5t-191.5 -81t-184 -27q-231 0 -319 116q-60 78 -32 175q23 82 94 121q39 21 83 21q47 0 64.5 -29t1.5 -58.5t-52 -29.5q-25 0 -46.5 22.5t-31.5 22.5q-29 0 -49 -47q-29 -68 -1 -139q44 -112 204 -136q39 -6 84 -6
q237 0 408 160q131 122 174 289q42 161 -21 273q-72 126 -249 124q-58 -1 -124 -16q-13 -3 -20.5 1t-4 11t18.5 12q105 36 139 51q304 126 414 309q57 94 57 197q0 127 -72 191.5t-188 64.5q-52 0 -107.5 -15.5t-112 -49.5t-100.5 -81.5t-72 -118.5t-28 -153
q0 -90 35.5 -136t81.5 -46q15 0 26.5 13.5t17.5 29.5t21 29.5t37 13.5q26 0 43 -15t17 -40q0 -11 -5 -22t-18.5 -25t-46.5 -22.5t-82 -8.5q-100 0 -164.5 58.5t-64.5 177.5q0 102 52 188.5t134.5 141t178.5 84.5t190 30q151 0 246.5 -77.5t95.5 -211.5q0 -76 -33 -146
t-85 -124t-126.5 -103.5t-147 -84.5t-155.5 -66q30 10 68.5 5t78 -15.5t77.5 -36.5t67.5 -58.5t47.5 -82t18 -107.5z" />
    <glyph glyph-name="four" unicode="4" horiz-adv-x="972" 
d="M1067 1257q-41 -29 -73.5 -92t-67.5 -182q-14 -58 -275 -885q62 -7 110 -0.5t79.5 26t44 31t29.5 33.5q4 5 6 7q25 33 50 17q18 -13 10 -33q-4 -6 -9 -11q-147 -114 -336 -121q-100 -321 -125 -389q-9 -29 -35 -39q-83 -33 -90 -35q-5 -2 -10 3.5t-4 11.5q30 91 145 452
q-53 5 -155 21.5t-166.5 24t-155 0.5t-168.5 -38q-13 -5 -21.5 1.5t-6 17.5t17.5 18q237 126 548.5 446t462.5 597q75 139 168 139q35 0 32 -14q-1 -5 -5 -7zM537 111q153 486 266 835q-69 -127 -340.5 -408.5t-458.5 -410.5q45 13 96 18.5t86 7.5t95 -4.5t82 -9t92 -14.5
t82 -14z" />
    <glyph glyph-name="five" unicode="5" horiz-adv-x="1163" 
d="M221 467q55 78 177 145.5t241 67.5q156 0 256 -107t100 -266q0 -120 -45 -237.5t-120.5 -210.5t-170.5 -165.5t-200 -111.5t-203 -39q-229 0 -310 125q-53 81 -27 178q20 74 71 101q18 10 37 10q27 0 43 -17.5t16 -41.5q0 -22 -14 -37t-31 -22.5t-31 -26t-14 -45.5
q0 -85 70 -138t190 -53q230 0 404 179q139 143 192 344q51 195 -5 336q-59 146 -215 166q-22 3 -46 3q-105 0 -206 -55.5t-181 -157.5q-24 -30 -45 -27q-20 4 -7 35q26 69 151 432.5t136 403.5q19 68 64 51q86 -34 138 -51.5t119.5 -31.5t126 -10.5t134.5 19t168 48.5
q25 9 29.5 -3t-11.5 -24q-325 -237 -737 -31q-193 -583 -244 -735z" />
    <glyph glyph-name="six" unicode="6" horiz-adv-x="1140" 
d="M1448 1618q26 0 38 -20t1 -40t-41 -20q-22 0 -77 16.5t-97 16.5q-139 0 -277.5 -56t-254 -150t-216.5 -219t-170.5 -261.5t-109 -279t-39.5 -269.5q0 -150 66 -243t188 -93q175 0 317 171q123 147 171 351q48 203 -7 338q-57 139 -209 139q-93 0 -180.5 -70.5
t-87.5 -146.5q0 -14 14.5 -41t14.5 -55q0 -34 -29 -50t-57.5 -2t-28.5 52q0 55 31 118t82 116.5t126 88.5t154 35q196 0 273 -152q69 -136 22 -339q-47 -204 -184 -363q-162 -188 -374 -219q-38 -6 -77 -6q-209 0 -295 165q-82 157 -27 408q59 269 246 518q222 294 540 441
q262 121 554 121z" />
    <glyph glyph-name="seven" unicode="7" horiz-adv-x="1046" 
d="M-27 -422q-27 -45 -68 -36q-31 6 -38 36q-6 25 12 51q2 2 47 67.5t100 144.5t140 196t169 230t184 238.5t189 229.5t179 195t160 143q-85 -43 -156 -43q-55 0 -114 21.5t-102.5 47t-101.5 47t-112 21.5q-109 0 -232 -88q-19 -13 -29 -1q-8 10 5 22q192 170 346 170
q62 0 127.5 -24.5t110.5 -53.5t100.5 -53.5t101.5 -24.5q113 0 236 156q34 42 77 37q32 -5 36 -32q3 -28 -29 -63q-17 -19 -70.5 -55t-114.5 -76t-149.5 -117t-167.5 -169q-205 -238 -357.5 -431t-231 -308.5t-130.5 -206.5t-66.5 -133.5t-27 -81t-23.5 -56.5z" />
    <glyph glyph-name="eight" unicode="8" horiz-adv-x="1093" 
d="M1176 1278q0 -47 -15 -91t-37.5 -78.5t-61.5 -70t-73 -60t-87 -53.5t-89.5 -47t-93.5 -44q64 -66 101 -108t80 -101t63 -115t20 -113q0 -86 -31 -160.5t-82 -126t-117 -88t-136 -54t-138 -17.5q-166 0 -275.5 103.5t-109.5 248.5q0 53 16 103t41.5 90t66.5 79t80 68
t94 61t97.5 53t100.5 48q-68 71 -108.5 125t-69.5 125.5t-29 146.5q0 110 67.5 198.5t171.5 134.5t220 46q63 0 121.5 -18.5t106.5 -54.5t77 -95.5t29 -134.5zM612 782q-52 -25 -86 -42.5t-82 -46.5t-79.5 -55.5t-66.5 -65.5t-55.5 -79.5t-34 -94.5t-13.5 -115
q0 -133 76.5 -217t220.5 -84q159 0 268.5 106.5t109.5 263.5q0 35 -7.5 69t-16.5 61t-31 61t-37.5 56.5t-49.5 60t-53.5 58t-62.5 64.5zM819 1552q-133 0 -230 -93.5t-97 -244.5q0 -86 52 -170t152 -188q63 31 110.5 57.5t102.5 66.5t90.5 80t59.5 93.5t24 110.5
q0 128 -70 208t-194 80z" />
    <glyph glyph-name="nine" unicode="9" horiz-adv-x="1171" 
d="M-10 -426q-50 0 -115.5 9.5t-122.5 32t-57 50.5q0 16 11.5 26.5t31.5 10.5q19 0 31.5 -10t25 -24.5t33 -29t66.5 -24.5t114 -10q258 0 513 244q211 203 354 505q138 291 144 530q7 238 -128 320q-61 37 -148 37q-173 0 -311 -171q-119 -147 -164 -351q-45 -203 11 -336
q56 -135 200 -135q107 0 188 69t81 138q0 22 -14.5 49.5t-14.5 48.5q0 28 18 44.5t39.5 17t39.5 -15.5t18 -46q0 -54 -31.5 -116.5t-82.5 -115t-123 -87.5t-146 -35q-205 0 -283 156q-69 137 -19 342q49 202 186 360q159 184 363 212q34 5 68 5q264 0 347 -197
q75 -180 -14 -468q-87 -282 -289 -541q-216 -277 -472 -405q-177 -89 -348 -89z" />
    <glyph glyph-name="colon" unicode=":" horiz-adv-x="544" 
d="M283 762q34 0 59 -24.5t25 -59.5q0 -34 -25 -59t-59 -25t-59 25t-25 59q0 35 25 59.5t59 24.5zM160 160q34 0 59 -25t25 -59t-25 -59t-59 -25q-35 0 -59.5 25t-24.5 59t24.5 59t59.5 25z" />
    <glyph glyph-name="semicolon" unicode=";" horiz-adv-x="645" 
d="M383 762q34 0 59 -24.5t25 -59.5q0 -34 -25 -59t-59 -25q-35 0 -59.5 25t-24.5 59q0 35 24.5 59.5t59.5 24.5zM238 143q22 0 49.5 -19t27.5 -56q1 -56 -26.5 -114t-70 -102.5t-83 -76.5t-76.5 -51q-18 -9 -23 2t9 20q61 37 92 73t34.5 69t-2 60.5t-14 60t-5.5 54.5
q9 80 88 80z" />
    <glyph glyph-name="less" unicode="&#x3c;" horiz-adv-x="1056" 
d="M266 627q74 -39 139 -79.5t141 -101t127.5 -121t81.5 -136.5t21 -150q-2 -17 -27.5 -27t-46.5 -9t-24 3q13 76 -19.5 154.5t-89 140.5t-139 124t-151 102t-142.5 77q-17 8 21 22q18 6 53 15q19 5 82.5 20.5t94.5 24t94 26t102 32.5t97.5 38t101 47.5t91.5 55t90.5 67
t77.5 78.5h86q-93 -122 -324 -228t-538 -175z" />
    <glyph glyph-name="equal" unicode="=" horiz-adv-x="1337" 
d="M1165 788h-841l24 70h844zM1044 342h-841l24 70h844z" />
    <glyph glyph-name="greater" unicode="&#x3e;" horiz-adv-x="1067" 
d="M203 35q-6 -16 -33.5 -24.5t-47.5 -7t-22 4.5q182 351 801 606q-56 13 -115.5 36t-122.5 61t-110 83.5t-72.5 107t-15.5 128.5h98q-2 -53 17 -100.5t57 -84.5t80 -66.5t99 -54.5t100.5 -41t97.5 -32q10 -3 -18 -18q-16 -8 -73 -33q-265 -118 -414 -221
q-235 -162 -306 -344z" />
    <glyph glyph-name="question" unicode="?" horiz-adv-x="1437" 
d="M1249 2425q103 2 201 -21t182 -71.5t146 -116.5t93 -162t23 -201q-10 -125 -57.5 -239t-117 -202t-167 -171t-195.5 -144t-215.5 -123t-213 -105t-202.5 -94t-171 -87q-110 -62 -147 -125q-34 -58 25 -74q12 -3 28 -4q36 -3 15 -22q-27 -24 -84 -32q-69 -10 -93 26
q-54 77 59 163q77 58 313 169q301 142 427 213q399 223 558 477q93 148 113 313q14 114 -9 212.5t-73.5 168t-122.5 118.5t-156 72t-173 21q-293 -6 -488 -189t-253 -483q-44 -226 68 -372q76 -100 192 -124q109 -22 183 35q55 43 67 121q9 59 59 78q42 16 71 -9
q34 -29 9 -87q-50 -116 -184 -165q-136 -50 -282 -5q-159 49 -239 187q-90 159 -47 390q34 186 158 336t307.5 236.5t392.5 91.5zM299 150q35 0 60.5 -25t25.5 -59t-25.5 -59t-60.5 -25q-34 0 -59 25t-25 59t25 59t59 25z" />
    <glyph glyph-name="at" unicode="@" horiz-adv-x="2291" 
d="M1352 1448q157 1 289 -31t226 -91t164 -137t110.5 -173t58.5 -195t14 -207q-8 -212 -106 -407t-250 -307.5t-306 -94.5q-68 8 -118 35t-77 64.5t-41 86t-15 95.5t5.5 97t16 87t20.5 68h-4q-21 -50 -61.5 -109t-95 -116t-123.5 -93.5t-133 -33.5q-67 4 -115.5 29
t-74.5 65.5t-38 85t-12 94.5q0 116 58.5 256t146 255t196.5 194.5t203 83.5q21 1 43.5 -3.5t52.5 -21t52.5 -43t38.5 -77t16 -116.5q48 131 99.5 183t115.5 55q35 2 32 -12q-1 -6 -5 -8q-61 -42 -103.5 -148.5t-144.5 -433.5q-11 -33 -17 -53t-18 -64.5t-17.5 -75.5
t-10.5 -76.5t-1.5 -77.5t13 -68.5t29 -60.5t52 -42t76.5 -23q113 -13 212 45t166.5 163t107.5 242.5t43 284.5q2 121 -22 232.5t-82 213.5t-145.5 177.5t-220 121t-296.5 46.5q-140 1 -271 -35t-237.5 -98.5t-201 -147.5t-166 -181t-127 -199.5t-89.5 -203t-49 -192.5
q-24 -147 0.5 -278.5t87.5 -231.5t156.5 -180t205.5 -129t238 -73.5t250 -19.5t245 40t220 98q95 61 135.5 95.5t56.5 66.5t19 35q22 32 47 20q23 -11 15 -39q-6 -17 -21 -32q-43 -42 -87.5 -79.5t-125 -89t-163 -86.5t-197 -58t-232.5 -17q-518 26 -772 295
q-197 207 -200 517q-2 289 160 574q159 279 421 456q312 210 678 212zM969 63q60 -10 125 29t121 109.5t102.5 155.5t77.5 173t45.5 162t11.5 124.5t-14.5 88.5t-33 59.5t-44 32t-47.5 11.5q-119 1 -254 -153q-127 -144 -199 -338q-78 -212 -33 -339q35 -98 142 -115z" />
    <glyph glyph-name="A" unicode="A" horiz-adv-x="3186" 
d="M4262 2415q87 0 136.5 -26.5t37.5 -61.5q-10 -24 -38 -28.5t-52 7.5q-42 21 -79.5 34t-82.5 21t-87 5.5t-91 -17.5t-97 -44t-102.5 -76t-109 -111.5t-115.5 -153.5t-123 -199q-92 -163 -252 -570t-291 -771q-55 -153 -66 -210q-26 -143 66 -148q96 -7 195 159q4 10 11 4
q5 -4 3 -12q-22 -59 -61.5 -111.5t-98 -88t-118.5 -31.5q-42 2 -70 20.5t-40 43.5t-13.5 60.5t3 66.5t14.5 67t17 55.5t15 38.5q18 50 28.5 85.5t17.5 72t5.5 67t-12.5 55.5q-92 221 -234 386q-273 -357 -385 -490q-278 -330 -516 -484q-288 -186 -604 -186q-189 0 -349 53
t-270.5 142.5t-184.5 210t-101.5 254t-11.5 276.5t74.5 275t168.5 251.5t260 204.5q45 26 69 -1q19 -20 3 -44q-7 -11 -22 -18q-13 -7 -42.5 -9.5t-69.5 -24t-99 -79.5q-76 -74 -130 -178t-81 -219.5t-25.5 -239.5t30 -241t93.5 -222t157.5 -183.5t228.5 -124.5t300 -46
q124 0 247.5 35.5t229 90.5t220.5 149t204.5 182t200 220t187.5 232t186 248q-184 194 -437 297t-522 103q-343 0 -567 -195q-168 -146 -222 -357q-52 -201 21 -370q72 -169 242 -236q95 -38 213 -38q84 0 133 28t66 60q18 32 52 23q26 -7 29 -31q3 -19 -16 -39
q-31 -31 -99.5 -51.5t-166.5 -20.5q-269 0 -414 169q-120 141 -117 351q3 216 133 404q149 216 406 307q157 55 340 55q594 0 981 -383q115 163 266 339.5t319.5 345t349 308t331.5 209.5q-88 -29 -228.5 -33t-270.5 7.5t-305.5 25t-291.5 13.5q-279 0 -431 -154
q-113 -113 -120 -269q-7 -144 79 -246q98 -116 267 -116q73 0 129 18t88.5 45t54 65t29.5 71.5t10 71.5q2 37 27.5 51t48 -2t17.5 -52q-4 -26 -18 -59.5t-45.5 -78t-74.5 -80t-112.5 -60.5t-151.5 -25q-198 0 -306 131q-92 111 -82 267q10 164 127 287q153 162 423 175
q21 1 43 1q113 0 403.5 -26t446.5 -26q90 0 177 15t146 33.5t144 33.5t172 15zM2900 698q100 276 184 480.5t180.5 397t201.5 342.5t224 267q-231 -154 -519.5 -462.5t-534.5 -643.5q157 -166 264 -381z" />
    <glyph glyph-name="B" unicode="B" horiz-adv-x="3117" 
d="M3107 1790q-3 -188 -114 -362t-290 -285q138 -94 220 -245t79 -351q-2 -144 -51.5 -270t-130.5 -216.5t-185.5 -156t-219 -97.5t-228.5 -32q-86 0 -163.5 18.5t-139.5 55t-95 97t-26 138.5q6 66 39.5 113t81.5 70t93 32.5t89 9.5q28 0 37.5 -20.5t-2 -41t-35.5 -20.5
q-7 0 -34.5 12.5t-44.5 12.5q-67 0 -107 -70q-43 -76 -20 -167q28 -113 147 -165q79 -34 188 -34q130 0 242.5 42t192 113.5t137.5 167t86 201t31 217.5t-21 214t-77 192.5t-130 152.5q-199 -108 -413 -108q-116 0 -160 63q-36 51 0 107q44 70 163 86q29 4 62 4
q180 0 346 -94q148 102 239.5 261t94.5 343q2 114 -26.5 205.5t-78.5 154t-123 108t-154 70.5t-177 37q-30 4 -42 -4.5t-20 -32.5q-8 -22 -129 -383t-247.5 -729.5t-175.5 -494.5q-31 -80 -67 -157t-89.5 -166t-113 -165.5t-137.5 -149.5t-163 -124t-190.5 -82t-218.5 -31
q-186 0 -334.5 47t-241.5 125.5t-150 183t-69 218t11.5 231.5t81.5 223t151.5 193t210.5 141q14 118 64 240.5t136 241.5t200 228t262.5 201.5t315.5 160.5t367 106.5t410 38.5q208 0 374.5 -49.5t271 -135t158.5 -197.5t52 -241zM2245 2320q14 40 -25 43q-142 0 -287 -21
t-292 -66t-282.5 -110t-259 -158.5t-222 -206t-170 -257.5t-103.5 -309q112 31 230 31q277 0 385 -140q78 -101 44 -238q-30 -122 -131 -203q-98 -79 -219 -79q-83 0 -153 30.5t-118 82t-82 120t-50 144t-16 154.5q-76 -44 -139 -108.5t-107 -139t-71 -158.5t-35 -169.5
t6 -170.5t46.5 -161t91 -142t136.5 -114t186 -75.5t236 -27.5q79 0 162 22.5t182.5 83t189 153.5t179.5 248t157 353q437 1289 531 1589zM600 1188q-7 -95 9.5 -187t54 -168.5t103.5 -123.5t151 -47q131 0 223 97q81 86 84 194q4 124 -100 199q-105 75 -294 75
q-122 0 -231 -39zM2267 1047q178 0 346 100q-130 84 -303 84q-106 0 -153 -55q-35 -42 -11 -82q29 -47 121 -47z" />
    <glyph glyph-name="C" unicode="C" horiz-adv-x="1904" 
d="M2120 2392q167 0 236 -124t15 -316q-63 -225 -265 -430q-279 -285 -718 -417q-343 -103 -749 -97q-40 -99 -58.5 -218.5t-13.5 -240t40 -234t93 -201.5t153.5 -141t215.5 -53q84 0 161.5 16t135.5 39.5t113.5 61t92 69.5t74 76t56 70.5t42 62.5t28.5 43q15 24 32 12
q14 -9 4 -26q-26 -43 -43 -69.5t-59.5 -82.5t-81 -94t-101 -86.5t-127 -77.5t-152 -50t-181.5 -21q-146 0 -261.5 52.5t-186 141.5t-113 205.5t-50 245.5t11 259.5t62.5 250.5q-197 26 -356.5 110.5t-256.5 223.5t-97 307q0 101 31 205.5t93.5 207.5t151.5 197.5t211.5 175
t265.5 140t322 93.5t373 34q64 0 77 -39q10 -30 -17 -52q-32 -24 -77 -4l-17 7q-17 7 -28 10t-34 8t-53 7.5t-68 2.5q-93 0 -196 -20t-210.5 -61.5t-209 -100t-191.5 -142t-157.5 -181.5t-106.5 -224t-39 -264q0 -220 172 -387t436 -207q101 242 285.5 483t399.5 426.5
t453 301.5t437 116zM2019 2316q-122 0 -276 -66.5t-313 -187.5t-307.5 -276t-272.5 -346.5t-195 -384.5q619 -6 1074 245q296 163 458 397q132 192 128 360q-4 151 -120 218q-71 41 -176 41z" />
    <glyph glyph-name="D" unicode="D" horiz-adv-x="3018" 
d="M1714 2435q193 0 365.5 -38t305 -103.5t243 -155.5t187.5 -193.5t130 -217t77.5 -226t24.5 -221.5q0 -184 -44.5 -365.5t-125 -341.5t-197.5 -297.5t-256 -236.5t-307 -155t-345 -56q-83 0 -167.5 20.5t-174.5 64t-152 79t-158 96.5q-231 -248 -504 -248
q-145 0 -241.5 51t-117 124t3.5 146t118 124t227 51q119 0 235.5 -48t260.5 -136q82 118 153 290q-155 -15 -296.5 7t-254 75t-204.5 132t-153.5 177t-94.5 211.5t-33 233.5q0 137 48 276.5t137 268t222.5 240.5t295.5 194.5t366.5 130t425.5 47.5zM324 1274q0 -90 18 -179
t55.5 -174.5t94 -159t132.5 -134t173 -99t214.5 -54t256.5 0.5q70 164 281 853.5t298 1024.5q8 40 -39 43q-228 10 -435.5 -30t-367.5 -118.5t-290.5 -188t-215 -238.5t-130 -268.5t-45.5 -278.5zM614 -127q137 0 250 55.5t211 186.5q-152 95 -260 143.5t-209 48.5
q-102 0 -173 -44.5t-88.5 -108.5t-1 -128t89.5 -108.5t181 -44.5zM1772 -137q164 0 317.5 56t278.5 154.5t229 233.5t174.5 291t109.5 329.5t39 346.5q0 425 -244 722.5t-665 375.5q-34 7 -49 -45q-6 -19 -138.5 -461.5t-267.5 -867t-178 -502.5q210 52 349 170t139 225
q0 30 24 45t48 3.5t24 -46.5q0 -26 -26 -69t-79 -95.5t-122.5 -103t-168 -95.5t-204.5 -69q-101 -207 -213 -340q198 -124 283 -167q186 -91 340 -91z" />
    <glyph glyph-name="E" unicode="E" horiz-adv-x="1632" 
d="M1737 2398q192 0 254 -107q56 -96 -15 -237q-78 -158 -275 -291q-297 -200 -720 -248q-43 -5 -86 -8q15 -46 48 -83t73 -58t85 -34.5t84.5 -12.5t71.5 8q28 7 29 -6q-1 -6 -6 -12q-24 -24 -88 -31q-466 -50 -730 -300q-190 -180 -232 -419q-37 -209 52 -382
q85 -164 251 -226q74 -28 159 -31q-17 108 -11.5 216t37 212.5t77.5 199t110.5 174t135 138t151.5 91t160 32.5q147 0 199 -127t-8 -320q-65 -211 -229 -380q-214 -222 -503 -265q-35 -6 -70 -8q67 -265 318 -444q12 -8 10.5 -19.5t-12 -15.5t-23.5 2q-264 180 -334 475
q-140 -4 -256.5 39t-190.5 117.5t-114.5 170.5t-40.5 202q0 123 44 236.5t114 198.5t158.5 158.5t177 123t169 85.5t135 52t75.5 16q-75 17 -130 76t-75 145q-187 -3 -374 48.5t-333.5 140.5t-238.5 217t-92 268q0 104 38.5 194t104.5 155t151 115t182 80t193 45t189 15
q223 0 297 -29q33 -13 38 -39.5t-18 -43t-57 -3.5q-13 6 -25.5 18t-25 22.5t-34.5 21.5t-67 17.5t-110 6.5q-212 0 -382.5 -65.5t-273 -195t-102.5 -302.5q0 -117 52.5 -222t143.5 -183t209 -135.5t254 -86.5t275 -28q-14 110 43 235.5t162.5 235t235.5 200t273 143
t263 52.5zM1319 911q-87 0 -183 -57.5t-177 -154.5t-144.5 -225t-84.5 -268.5t3 -285.5q273 7 490 207q163 148 240 349q70 183 33 307q-36 121 -163 128h-14zM889 1536q419 30 714 222q190 124 270 277q69 133 21 223q-49 93 -204 93q-71 0 -161.5 -28.5t-185 -79
t-182.5 -126t-153.5 -163t-99 -197t-19.5 -221.5z" />
    <glyph glyph-name="F" unicode="F" horiz-adv-x="2639" 
d="M3258 2398q167 0 231 -80q49 -61 14 -133q-36 -77 -142 -111q-60 -20 -133 -20q-125 0 -259 31t-309 90q-55 -43 -105 -95t-95 -114.5t-82.5 -121t-76.5 -138t-67 -140.5t-64.5 -153t-59 -151.5t-58.5 -159.5q15 4 69 20t75.5 21.5t69.5 18.5t78.5 18.5t74 12.5t83.5 10
t81 3q73 0 117.5 -23.5t56.5 -59t7.5 -78t-21.5 -79t-38 -63.5q-48 -55 -102 -55q-13 0 -19 8.5t1 20.5q45 61 60 93q65 139 -92 165q-35 6 -79 6q-26 0 -51 -1t-53.5 -5t-47 -6t-51 -9.5t-45 -10t-50 -12.5t-44 -11.5t-49 -13.5t-45.5 -13q-51 -142 -80 -218t-83 -206.5
t-93.5 -204t-103.5 -179.5t-123.5 -166.5t-142 -131.5t-169.5 -108t-196.5 -62t-231.5 -25q-189 0 -339 52t-243 140.5t-141.5 199.5t-48.5 235q0 108 35.5 215.5t106 203.5t166.5 170t226.5 117.5t276.5 43.5q38 0 47 -30q7 -26 -17 -41q-18 -11 -46 -5q-18 4 -36 12
t-36 12t-51 4q-97 0 -199 -57.5t-182.5 -150.5t-132 -220.5t-51.5 -257.5q0 -94 24 -181t76.5 -165t129 -135.5t188.5 -91t247 -33.5q380 0 633 287q168 190 324 568q49 120 145 380q-113 -24 -205 -24q-63 0 -116 14t-89.5 38.5t-66.5 56.5t-45 67.5t-26 72.5t-9.5 71
t4.5 63q3 16 12.5 21.5t17.5 -0.5t7 -21q-3 -13 -1 -34.5t3 -48.5t11 -57t22.5 -59t37.5 -56t56.5 -47.5t79 -32.5t104.5 -12q96 0 217 27q43 115 71 188.5t73 180.5t82 181t89 164.5t103 157.5t115.5 134.5t134.5 119.5q-324 111 -481 151q-352 91 -684 91
q-463 0 -777 -213q-215 -146 -307 -355q-82 -189 -33 -353q47 -156 199 -225q52 -23 113 -34q17 -2 18 -11q0 -7 -8 -9q-99 -30 -201.5 11.5t-171.5 143.5t-69 232q0 95 36 194t104 196t175.5 182t240.5 150t309.5 102.5t373.5 37.5q129 0 265 -16.5t234.5 -35.5t238.5 -60
t205.5 -63t206.5 -71l18 -6t16 -5.5t18 -6.5q260 176 620 176zM3228 2083q123 0 180 74q45 57 23 119q-25 68 -112 87q-29 7 -63 7q-326 0 -559 -168q168 -58 295 -88.5t236 -30.5z" />
    <glyph glyph-name="G" unicode="G" horiz-adv-x="1927" 
d="M1978 1028q36 0 34 -11q-2 -5 -7 -9q-81 -65 -141 -238q-9 -25 -165 -479.5t-198 -566.5q-71 -195 -169.5 -351t-204 -256t-224.5 -166.5t-228.5 -94t-217.5 -27.5q-155 0 -281.5 48t-201 137.5t-74.5 203.5q0 91 33.5 160.5t92.5 114t136 76.5t167.5 53t183.5 37.5
t186.5 35.5t174.5 42.5t150.5 62.5t110.5 91q8 10 15 0t-3 -26q-31 -52 -90 -90.5t-132.5 -61.5t-160.5 -41t-175 -33.5t-174 -34.5t-160.5 -49t-131.5 -71.5t-90 -107.5t-33 -152q0 -71 29.5 -135t85 -115t144 -81t198.5 -30q130 0 255 45t244 136.5t224 246t180 359.5
q83 223 151 416.5t95 275.5l26 82h-8q-34 -51 -75 -102.5t-116 -126.5t-152 -130.5t-180 -96t-204 -40.5q-258 0 -410.5 192.5t-152.5 516.5q0 216 100 483q-94 54 -155 135t-86 174t-15.5 196t50 203t117.5 194t180 169t244.5 128t303.5 71q36 4 55 -16t7.5 -44t-50.5 -30
q-27 -4 -66 2t-75.5 7.5t-124.5 -17.5q-145 -38 -264 -120t-193 -184.5t-111 -222t-29 -231t65.5 -211.5t161.5 -164q75 187 191 372.5t259.5 347t299.5 286t324 196.5t320 72q195 0 245 -151q50 -145 -47 -378q-101 -243 -311 -460q-257 -266 -564 -367q-161 -53 -322 -53
q-181 0 -312 49q-79 -235 -79 -442q0 -140 28 -257.5t83 -206t141.5 -138t197.5 -49.5q120 0 246 58.5t239 162.5t210 256t157 331q85 240 223 240zM1829 2374q-137 0 -291 -70.5t-299.5 -194t-279 -282.5t-240.5 -344t-174 -371q125 -49 299 -49q341 0 661 236
q235 174 391 421q142 226 153 407q11 172 -108 226q-48 21 -112 21z" />
    <glyph glyph-name="H" unicode="H" horiz-adv-x="3342" 
d="M4407 2415q96 0 148.5 -25t38.5 -61q-8 -24 -36 -28.5t-52 7.5q-54 24 -103.5 37.5t-110.5 14.5t-118.5 -15.5t-125.5 -58.5t-135 -108.5t-143 -171t-153 -241.5q-91 -164 -253.5 -576.5t-289.5 -764.5q-57 -158 -67 -220q-19 -132 69 -138q94 -7 193 159q5 8 11.5 5
t2.5 -13q-33 -93 -111 -165t-168 -66q-199 12 -76 344q2 6 3 8q41 124 49 182t-10 103q-88 225 -243 394.5t-353 272.5q-10 -34 -31 -102q-43 -142 -66 -215.5t-70.5 -207.5t-83 -209t-94.5 -186.5t-115.5 -175.5t-136 -140t-165 -115.5t-194 -67t-230.5 -27.5
q-189 0 -349.5 53t-270.5 142.5t-184.5 210t-102 254t-12 276.5t74 275t168.5 251.5t260 204.5q46 26 70 0q20 -20 2 -45q-7 -11 -21 -18t-35 -9.5t-39.5 -6t-55 -27t-81.5 -68.5q-61 -60 -108 -139.5t-77 -168t-43 -186t-8.5 -194.5t30.5 -192t69 -180t111 -158
t153.5 -125.5t200 -82.5t246.5 -30q411 0 669 349q161 218 299 634q36 110 101 330q27 90 41 135q-253 113 -516 113q-349 0 -581 -197q-172 -147 -231 -359q-56 -200 13 -369q68 -167 235 -234q95 -39 214 -39q84 0 132.5 28t65.5 60q18 31 51 23q27 -6 31 -29
q4 -20 -16 -41q-29 -30 -99 -51t-168 -21q-269 0 -413 169q-121 141 -118 351q4 216 134 405q148 216 405 307q158 56 343 56q298 0 542 -98q44 141 82.5 242t89.5 201t113 167.5t135 102.5q-77 -5 -159 17t-157 61t-152.5 87.5t-157.5 98.5t-159 91t-169.5 67t-177.5 26
q-100 0 -184 -40t-131 -104t-73 -141t-10.5 -154.5t57 -141.5t130 -104t207.5 -40q47 0 84 7.5t58 17t38 27t22.5 27t13.5 29t9 21.5q15 27 44 21q26 -6 29 -31q3 -18 -12 -39q-37 -53 -114 -86t-177 -33q-131 0 -229 44.5t-144 115t-63.5 156t11 171.5t81 156.5t145.5 115
t204 44.5q82 0 164 -19t150.5 -50t140 -71t133.5 -81.5t131 -81t132 -71t137 -50.5t145.5 -19.5t158.5 21.5q21 6 32 -3t6.5 -22t-20.5 -18q-55 -15 -105.5 -45.5t-91 -70.5t-79.5 -97t-69.5 -115t-62 -135t-55.5 -146.5t-53 -158.5q85 -40 163.5 -93t135.5 -101t113 -111.5
t88.5 -106t70.5 -104.5t51.5 -86t37.5 -70q34 81 107 267q71 180 111 278t122 275t146.5 280.5t165.5 236t199.5 204.5t228 124t269.5 52z" />
    <glyph glyph-name="I" unicode="I" horiz-adv-x="2113" 
d="M956 -98q-190 0 -349 50.5t-268 136.5t-182 202.5t-99 247t-8.5 272.5t77.5 275t170.5 258t261.5 219q55 34 84 4q20 -22 7 -48q-10 -20 -36 -24q-4 0 -23 -1.5t-28 -3.5t-29.5 -7.5t-37.5 -16.5t-40 -27.5t-48.5 -43.5t-53.5 -62q-70 -89 -116.5 -197.5t-67 -222
t-13.5 -230.5t39.5 -223.5t98.5 -200.5t156 -163t218.5 -109t280.5 -40q414 0 662 320q158 202 286 592q26 78 132 444q104 357 191 531q122 244 292 337q-128 -21 -239 -17.5t-239 23.5t-229.5 43.5t-210.5 42t-182 18.5q-230 0 -377 -152q-119 -124 -140 -298
q-20 -176 70 -310q107 -160 326 -186q39 -4 80 -4q64 0 116 11t81.5 25.5t52.5 36.5t31.5 34.5t16.5 28.5l3 6q16 25 41.5 24t33 -21.5t-12.5 -50.5q-48 -63 -147.5 -98t-217.5 -35q-274 0 -416 164q-113 130 -110 317q4 182 114 329q127 167 337 207q58 11 120 11
q101 0 215.5 -20t217 -43t221 -42t273 -15.5t327.5 36.5q32 7 38 -12q5 -18 -17 -27q-2 -1 -5 -2q-85 -23 -158.5 -88.5t-123.5 -141.5t-104 -208.5t-86 -231t-83 -266.5q-43 -142 -66.5 -216t-71.5 -209.5t-84 -211.5t-96 -188.5t-117 -177t-138.5 -141.5t-168 -117
t-197.5 -68t-235 -28z" />
    <glyph glyph-name="J" unicode="J" horiz-adv-x="2271" 
d="M2888 2363q-229 -244 -431 -761q-85 -217 -253 -731q-173 -531 -281 -792q-221 -531 -486 -792q-315 -311 -749 -311q-312 0 -498 180q-155 149 -178 377q-24 238 104 464q141 250 423 397q311 161 735 161q194 0 387 -45q58 -14 63 -50q5 -30 -25 -45q-33 -17 -75 3
q-5 3 -34 23t-59 34.5t-100.5 28.5t-162.5 14q-502 0 -814 -238q-221 -168 -299 -417q-70 -226 -1 -435q67 -200 239 -305q143 -88 334 -88q429 0 715 324q204 230 380 687q76 195 231 679q168 522 282 794q166 398 362 670q-109 -77 -246.5 -141t-258 -104.5t-246 -81.5
t-224 -84t-177.5 -98.5t-122 -138t-43 -191.5q0 -135 92 -221.5t250 -86.5q35 0 66 4.5t56 14.5t45 19.5t38 26t29.5 26.5t24 29.5t17 26t14.5 24.5l9 18q22 40 58 33q27 -6 31 -32q3 -16 -7 -34q-51 -88 -168.5 -141t-246.5 -53q-175 0 -285.5 96.5t-110.5 251.5
q0 98 36 176.5t100.5 133.5t149.5 99.5t187.5 80.5t209.5 69.5t220 73.5t215 85.5t198.5 113t166.5 149.5q49 58 98 67q28 4 28 -12q0 -10 -13 -25z" />
    <glyph glyph-name="K" unicode="K" horiz-adv-x="2816" 
d="M2433 2075q-76 -18 -142.5 -88t-128 -202.5t-104.5 -249t-109 -311.5q-45 -136 -70 -207t-73.5 -201t-83 -203.5t-90.5 -182t-105 -171.5t-117.5 -138t-136.5 -114t-153.5 -66t-177.5 -27q-250 0 -357 125q-79 91 -53 212q25 114 128 189q133 96 321 70q41 -5 43 -34
q1 -25 -22 -36q-18 -9 -39 0q-7 3 -21.5 13.5t-32.5 17t-43 6.5q-104 0 -174 -90q-66 -84 -59 -189q7 -122 110 -186q85 -53 220 -53q269 0 445 236q121 160 237 499q30 84 86 261q120 377 198 557q143 334 328 526q-110 -26 -257 -17t-252 30t-275.5 43t-327.5 22
q-120 0 -230 -45.5t-192 -123.5t-144.5 -178.5t-95.5 -214t-37 -227.5q-5 -131 37.5 -253t123 -217.5t206.5 -152.5t279 -57q64 0 118.5 8t93 19t72.5 31t54 35t40.5 41t28.5 40t21.5 40t17.5 32q23 38 61 30q28 -6 33 -32q2 -19 -12 -39q-88 -119 -228.5 -178.5
t-297.5 -59.5q-164 0 -311 60.5t-247.5 159t-157 227.5t-52.5 264q5 150 71 298.5t173 265t259 189t316 72.5q152 0 299 -18t248.5 -36.5t211 -30.5t237 0.5t276.5 56.5q34 9 40 -13q6 -19 -13 -30q-5 -3 -11 -4zM4264 -1124q13 24 37 17t21 -33q-2 -11 -7 -21
q-22 -39 -102 -67.5t-168 -28.5q-193 0 -371 60t-312.5 145t-270 234.5t-222 268.5t-190.5 312t-155 300.5t-134 293.5q-131 293 -188 388q-89 -28 -168 -28q-87 0 -121.5 51.5t5 103.5t132.5 52q95 0 195 -121q124 56 264 179t268.5 271.5t264 315.5t268 322t261 281.5
t262 202.5t253.5 76q41 0 56.5 -27t-3.5 -54t-61 -27q-12 0 -41.5 12t-54.5 17t-72 -5q-88 -28 -195 -117t-216 -212.5t-226 -270t-242 -298t-247 -286.5t-257 -245.5t-258 -165.5q64 -83 144.5 -226t154 -293.5t169.5 -327.5t192 -336.5t220.5 -311t255.5 -261.5
t296.5 -176.5t343.5 -66.5q54 0 94.5 10t65.5 29.5t35.5 31.5t23.5 32zM2034 752q74 0 147 24q-74 117 -135 117q-67 0 -94 -35.5t-2.5 -70.5t84.5 -35z" />
    <glyph glyph-name="L" unicode="L" horiz-adv-x="1826" 
d="M3408 -256q20 44 57 37q27 -5 34 -30q4 -15 -3 -30q-168 -316 -451.5 -478.5t-642.5 -162.5q-102 0 -208 20t-198.5 51t-196 81.5t-184.5 98t-181.5 114.5t-170 117.5t-166 120t-155.5 110.5q-230 -192 -547 -192q-203 0 -304 96q-76 71 -59 161q18 92 125 147
q103 54 261 54q217 0 538 -186q58 63 115 155t98.5 176t90 207t74 195.5t67 196t53.5 158.5q-138 -27 -254 -27q-333 0 -512 197q-146 161 -151 407q-5 245 130 474q142 243 391 376q97 51 204 82q57 16 78 -19q16 -27 -3 -50q-12 -15 -34 -17q-6 0 -46.5 3.5t-81 -3.5
t-94.5 -31q-106 -50 -193.5 -138t-144.5 -194t-87 -226.5t-30 -236.5t36.5 -223t103.5 -188t179 -129.5t255 -48.5q130 0 268 32q39 103 69 181.5t80 199t93 213.5t102 207t113.5 199t121 170.5t130 139.5t136 88t143.5 34q123 0 151 -126q32 -143 -63 -377
q-110 -270 -327 -508q-279 -305 -626 -423q-18 -46 -53 -137.5t-52.5 -138t-50.5 -129t-53.5 -129.5t-53 -119t-57.5 -118t-59.5 -105.5t-66 -103t-69.5 -89.5t-77 -84q107 -65 273.5 -179t294.5 -198t279 -169.5t298.5 -132t282.5 -46.5q115 0 220 18t185.5 45.5t154 70.5
t125 83t99.5 93.5t76 92t56 88.5t38.5 72t23.5 53q2 5 3 7zM2439 2372q-203 0 -402 -330q-135 -226 -323 -716q-29 -75 -86 -229q-13 -35 -20 -53q334 124 600 431q200 231 296 484q80 213 45 329q-26 84 -110 84zM397 -369q301 0 506 189q-149 100 -267 153.5t-218 53.5
q-183 0 -262 -92q-58 -69 -31 -152q27 -81 121 -123q66 -29 151 -29z" />
    <glyph glyph-name="M" unicode="M" horiz-adv-x="3211" 
d="M4604 -803q13 33 40 39t44 -15t4 -52q-23 -55 -77 -124t-147 -146.5t-205.5 -141.5t-266 -106t-314.5 -42q-221 0 -395 76.5t-283.5 213.5t-176.5 322.5t-77.5 410t16.5 468.5t104 504t185.5 511.5t260 496.5t329.5 454q-137 -115 -278.5 -273.5t-257 -313.5t-235 -343
t-203.5 -333.5t-173 -316t-131.5 -257.5t-91.5 -190q-4 -9 -10.5 -26t-10.5 -25.5t-11 -19.5t-16.5 -17.5t-22.5 -9.5q-23 -7 -37.5 13t-22.5 60q-22 115 -20 274.5t12.5 283t50 345t57.5 310t70 327.5q14 67 21 99q-44 -90 -258 -475.5t-340 -622.5
q-187 -350 -464.5 -535.5t-590.5 -185.5q-146 0 -269.5 47t-205 126.5t-127 183t-45.5 217.5q0 112 35.5 211.5t93.5 171t130 128.5t148.5 91.5t144.5 52.5t122 18q55 0 64 -38q8 -29 -16 -48q-17 -13 -40 -8q-16 3 -43.5 12.5t-46.5 14t-53 3t-74 -15.5q-85 -28 -157 -92.5
t-119.5 -148.5t-72 -183.5t-23 -197.5t37.5 -189.5t101 -162t174.5 -112.5t250.5 -42q188 0 364.5 73.5t342.5 232.5t295 394q401 733 590 1074q64 115 86.5 230t1.5 210.5t-75 170.5t-145 117t-206 42q-139 0 -272 -42t-240.5 -113t-199 -166t-152.5 -200.5t-95.5 -216.5
t-34.5 -213q0 -89 34.5 -170t96 -143.5t154.5 -99.5t203 -37q85 0 145 8.5t96 26.5t55 33t42 42t37 39q30 28 58 11q25 -16 16 -45q-7 -21 -29 -37q-157 -109 -418 -109q-117 0 -217.5 39t-169 104.5t-107.5 152t-39 181.5q0 149 58.5 299.5t162.5 277t237 226t292 155.5
t317 56q251 0 385 -151.5t117 -415.5q-11 -157 -53.5 -379t-85.5 -407.5t-77 -424.5t-32 -440q0 -92 31 -92q21 0 57 70q171 339 344.5 631.5t324.5 507t301 392t274.5 296t245.5 209.5t212.5 141t176 81t136 40.5t93.5 9.5q115 0 142 -57q17 -37 -12 -70q-31 -36 -78 -22
q-11 4 -22 11q-69 45 -144 51.5t-166 -31.5t-195 -124q-326 -270 -608 -787q-275 -507 -411 -1066q-146 -604 -72 -1049q79 -473 395 -652q180 -102 429 -102q170 0 320 44t248 107t176.5 143t117 142.5t58.5 114.5z" />
    <glyph glyph-name="N" unicode="N" horiz-adv-x="3037" 
d="M4389 2546q115 0 142 -57q17 -38 -12 -71q-32 -36 -78 -20q-11 3 -21 10q-52 33 -102 48t-110.5 12.5t-132 -32t-153.5 -87.5q-122 -86 -240.5 -209.5t-252.5 -315.5t-266 -439.5t-279 -589.5t-295 -758q-3 -9 -8.5 -27.5t-8.5 -25t-10 -17t-16.5 -16t-24.5 -8.5
q-16 -4 -26.5 7t-15.5 26t-11 44q-21 104 -44 246.5t-40 258.5t-41 307t-35 281.5t-35.5 300t-29.5 251.5q-59 -124 -172 -371q-77 -169 -116.5 -254.5t-114.5 -236.5t-124.5 -231t-130 -200.5t-147.5 -185t-161 -143.5t-186.5 -117.5t-207.5 -66t-240 -27.5
q-152 0 -276.5 47t-203.5 125.5t-122 178t-43 208.5q0 104 27 196.5t71.5 161t103.5 125.5t122 94.5t128 63.5t120 37.5t100 11.5q51 0 61 -36q9 -29 -15 -48q-15 -13 -38 -10q-18 2 -42 10l-42 14t-51 5.5t-74 -12.5q-84 -24 -156 -86.5t-120.5 -146t-74 -183.5t-25 -199.5
t35 -193.5t98 -165.5t172.5 -115t250 -43.5q120 0 231.5 28.5t203.5 73.5t181.5 121t159 150.5t143 184t126 199.5t115.5 219t104.5 220.5t100.5 223.5q103 234 155 341q34 70 45.5 157.5t0.5 176t-47.5 173t-93 150t-142.5 105t-189 39.5q-168 0 -324.5 -58.5t-274.5 -156
t-207 -219.5t-135 -254t-46 -254q0 -194 139 -324.5t346 -130.5q100 0 170 17.5t97 37.5t59 51.5t47 41.5q38 25 63 3q23 -21 5 -52q-10 -15 -27 -27q-157 -107 -412 -107q-152 0 -274.5 64.5t-190 175t-67.5 244.5q0 112 38 231t105.5 230.5t167.5 211t217.5 173.5
t262 117.5t294.5 43.5q214 0 347.5 -135.5t174.5 -402.5q43 -281 114 -877t101 -813q7 -57 15 -75.5t24 -18.5t41 72q134 363 272.5 670t259.5 527.5t247 398t227.5 290.5t208.5 196t182.5 124.5t158 65t126 28t94.5 4.5z" />
    <glyph glyph-name="O" unicode="O" horiz-adv-x="1818" 
d="M1620 2449q115 0 189.5 -46.5t102 -126t17.5 -182.5t-57 -220q45 -115 51 -264t-22.5 -305.5t-88 -322t-141 -317t-187.5 -286.5t-221.5 -234t-248 -157t-262.5 -58q-151 0 -274.5 74t-205.5 222.5t-93 371.5t63 520q-126 82 -193 211t-67 279q0 113 35.5 215t94 178.5
t135.5 141t159.5 108t166.5 74t156 44t129 13.5t65 -37q7 -29 -20 -49q-18 -14 -41 -10q-10 2 -61.5 16t-94.5 12t-112 -22q-118 -35 -215 -93t-163.5 -128t-112 -152.5t-64 -166.5t-14.5 -169.5t31 -162.5t77.5 -144.5t120.5 -116.5q56 171 149 338.5t205.5 308t243.5 261
t262.5 204.5t262.5 131t243 47zM1569 2390q-157 0 -342.5 -113.5t-350.5 -294t-305.5 -414.5t-214.5 -466q208 -80 430.5 -43t423.5 150.5t357.5 275t232.5 330.5q-56 182 -205 182q-27 0 -41.5 -21t-15 -48t3.5 -52q3 -16 -9 -21t-22 13q-16 28 -19 64t8 70t46 57.5
t88 23.5q125 0 213 -156q32 97 33 180t-30 146.5t-102.5 100t-178.5 36.5zM756 -29q200 0 386.5 133t318.5 341t225 448t126.5 470.5t2.5 391.5q-92 -180 -256.5 -339t-366 -262t-422 -133.5t-424.5 44.5q-59 -218 -60.5 -418t50 -349t160.5 -238t260 -89z" />
    <glyph glyph-name="P" unicode="P" horiz-adv-x="2648" 
d="M2241 2423q285 0 504 -86.5t340.5 -247t121.5 -371.5q0 -169 -77.5 -328t-204 -273.5t-295 -183.5t-344.5 -69q-189 0 -250 77q-37 48 -9 96q9 15 23 26q15 13 26 8q7 -3 -1 -14q-7 -11 -8 -25t5.5 -28.5t18.5 -28.5t32.5 -26.5t47 -22.5t62.5 -15.5t77 -5.5
q157 0 301 64t248.5 171.5t166.5 255t62 308.5q0 127 -38 232t-100 176t-150 124t-180 82t-197 43q-22 3 -34.5 -2t-16.5 -12t-9 -23q-8 -24 -124 -385.5t-237 -732.5t-167 -497q-29 -79 -64 -156t-87 -166t-110 -165.5t-135 -149.5t-161 -124.5t-189 -82.5t-217 -31
q-186 0 -335 47t-243.5 125.5t-153.5 183t-73 218t7.5 231.5t77.5 223t148 193t208 141q15 123 65 248.5t135 245.5t197 229.5t258 201t311 159t362 105.5t405 38zM2238 2331q12 43 -36 43q-113 -2 -231.5 -17.5t-261.5 -52.5t-275.5 -92.5t-266 -145.5t-239.5 -203.5
t-189.5 -274.5t-122.5 -351q113 29 228 29q279 0 390 -141q80 -102 48 -238q-28 -122 -128 -203q-97 -78 -218 -78q-103 0 -186 46.5t-134.5 124t-79 171t-28.5 193.5q-94 -56 -166 -142t-114 -185t-55.5 -208t3 -213t70 -199t137 -166t212 -113t286.5 -42q79 0 161 22.5
t180.5 82.5t186.5 153t175 247.5t151 352.5q350 1090 503 1600zM612 1190q-4 -76 5.5 -150.5t35.5 -142.5t64 -120.5t95.5 -83.5t125.5 -31q131 0 222 98q81 86 84 196q3 124 -100 200q-106 77 -296 77q-121 0 -236 -43z" />
    <glyph glyph-name="Q" unicode="Q" horiz-adv-x="1974" 
d="M3127 -403q10 40 42 44q29 3 43 -21q9 -17 1 -40q-11 -31 -37 -76t-74 -107.5t-108.5 -124.5t-146 -124t-181 -109t-219.5 -76.5t-256 -29.5q-95 0 -189 12.5t-174.5 30.5t-168.5 51.5t-155.5 63.5t-151 78.5t-138.5 83.5t-135.5 93t-125.5 91.5t-124 94.5t-116 89
q-255 -129 -561 -129q-217 0 -332 100q-83 73 -74 164q10 91 109 146q93 51 239 51q153 0 318 -66.5t354 -187.5q154 98 260 244q-129 -20 -229.5 -1.5t-176.5 64.5t-129 116.5t-87 154.5t-51 177.5t-21 187t3.5 182.5t22.5 163.5t35 130.5q-125 82 -191.5 211.5
t-66.5 278.5q0 113 35.5 215t94 178.5t135.5 141t159.5 108t166.5 74t156 44t128 13.5q58 0 66 -38q6 -30 -20 -49q-18 -13 -40 -9q-16 2 -51.5 10.5t-57 11t-65.5 -1.5t-97 -20q-153 -46 -270 -131t-182.5 -186t-93 -216.5t-11.5 -223t72 -204.5t148 -162q67 204 186 401.5
t264 355t303.5 278.5t317.5 187t293 66q115 0 190 -47t102 -127t16.5 -183.5t-57.5 -219.5q47 -131 51.5 -294t-32 -330t-101.5 -337t-159.5 -323.5t-202.5 -281.5t-234.5 -219.5t-252.5 -129.5q-104 -165 -285 -285q88 -57 224 -151.5t232 -162t226 -146.5t236 -128
t230 -82.5t238 -33.5q131 0 251 29.5t209 76.5t166.5 108.5t129.5 122t91.5 121t59.5 102t27 67.5zM1722 2390q-156 0 -341 -113t-349.5 -293.5t-304 -413t-213.5 -464.5q115 -46 250.5 -50t270.5 30t272 102t255.5 161t219.5 212.5t166 250.5q-53 185 -199 185
q-27 0 -42 -21t-15 -48t4 -52q3 -16 -9.5 -21t-21.5 13q-16 28 -19 64t8 70t46 57.5t88 23.5q61 0 115.5 -40.5t93.5 -111.5q33 96 34 178t-29 145.5t-101.5 99.5t-178.5 36zM502 1063q-22 -63 -37 -156t-19.5 -208t11 -228.5t54.5 -217t110 -173.5t177.5 -98.5t258.5 8.5
q45 73 67.5 140t19 105.5t-29.5 38.5q-9 0 -30.5 -10t-57.5 -10q-34 0 -60.5 14t-39.5 36t-19 48.5t1 53t21 48.5t41 36t60 14q72 0 121 -65t49 -154q0 -128 -78 -275q93 35 182 100.5t164 150t144.5 188t122.5 215t99 231t74.5 235.5t47.5 228t18.5 209.5t-12.5 179.5
q-81 -162 -235.5 -315t-355 -263t-425 -144.5t-444.5 38.5zM156 -465q290 0 518 113q-172 129 -310 196.5t-270 67.5q-171 0 -239 -84q-51 -64 -17 -141q37 -82 147 -124q75 -28 171 -28z" />
    <glyph glyph-name="R" unicode="R" horiz-adv-x="3014" 
d="M4473 -1047q10 17 28.5 17t26.5 -15t-2 -40q-19 -39 -98 -68t-168 -29q-174 0 -334.5 43t-290.5 117.5t-250.5 180t-215.5 223.5t-185 256t-158.5 269.5t-136.5 271.5t-118.5 255t-105 227t-95.5 181q-86 -17 -191 -17q-95 0 -130.5 54.5t6 108.5t132.5 54
q100 0 219 -151q200 46 363 168t255.5 292t92.5 353q0 127 -38.5 232t-101.5 176t-151 123.5t-180.5 81t-196.5 42.5q-31 4 -41.5 -4t-19.5 -31q-8 -24 -124 -385.5t-237 -732.5t-167 -497q-29 -79 -64 -156t-87 -166t-110 -165.5t-135.5 -149.5t-161.5 -124.5t-189 -82.5
t-218 -31q-186 0 -335 47t-243.5 125.5t-153.5 183t-73 218.5t7.5 232.5t77.5 223.5t148 193t209 141q10 100 47 204.5t99.5 209t152 204t199 188.5t247 164t289 129.5t331.5 85t370 30.5q213 0 392 -49t306.5 -138t199 -219.5t71.5 -288.5q0 -143 -63.5 -284t-172 -254.5
t-256 -200t-311.5 -125.5q52 -73 115 -184.5t121.5 -227.5t132 -254t145 -268.5t161 -265.5t180.5 -251t202 -219t227.5 -176t255.5 -115t287 -42q163 0 213 102zM2265 2329q12 41 -22 43q-103 2 -222.5 -11.5t-263.5 -51t-282.5 -94t-276 -148.5t-247.5 -206.5t-193 -275.5
t-117 -348q113 29 227 29q279 0 390 -141q80 -102 48 -238q-28 -122 -128 -203q-96 -78 -217 -78q-103 0 -186 46.5t-134.5 123t-80 170t-30.5 193.5q-75 -45 -136.5 -109t-104.5 -139t-68 -159t-31.5 -169.5t9 -170t49.5 -161t94 -142.5t139 -113.5t187.5 -75t236.5 -27.5
q79 0 160.5 22.5t180 82.5t186.5 153t175.5 247.5t151.5 352.5q404 1258 506 1598zM637 1188q-5 -95 13 -187t57 -168.5t105.5 -123.5t150.5 -47q131 0 221 96q80 85 82 194q2 124 -101 199q-106 76 -297 76q-122 0 -231 -39zM2183 864q85 0 164 15q-87 133 -162 133
q-39 0 -65 -15t-31.5 -37t1 -44t32 -37t61.5 -15z" />
    <glyph glyph-name="S" unicode="S" horiz-adv-x="1992" 
d="M2116 2114q0 -78 -32.5 -160.5t-96 -157.5t-147 -134t-194 -94t-229.5 -34q39 -50 104 -123t113 -126.5t104 -130t91.5 -145.5t59.5 -159t24 -184q0 -175 -91.5 -328.5t-255.5 -255t-370 -127.5q-196 -263 -504 -429.5t-657 -166.5q-38 0 -52.5 26.5t0.5 53t48 26.5
q21 0 39.5 -10t33 -20.5t49.5 -17t89 0.5q271 32 506.5 176t396.5 355q-58 -4 -88 -4q-157 0 -295.5 43t-237.5 115.5t-171.5 165.5t-108 194.5t-35.5 200.5q0 122 41 231.5t115.5 193t187 132.5t246.5 49q85 0 169.5 -25.5t166 -82t144 -137.5t100.5 -201.5t38 -264.5
q0 -285 -192 -563q68 12 129.5 32t128.5 54t121 85.5t97.5 119t68 162t24.5 206.5q0 113 -35 216.5t-97.5 191.5t-126 161t-142 163t-125.5 159q-106 19 -196.5 57t-141.5 85q-30 27 -9 60q18 27 48 25q21 -2 35 -24q70 -115 237 -162q-98 163 -98 332q0 92 37.5 176
t100 146t141.5 108.5t164.5 70t166.5 23.5q161 0 262 -97t101 -232zM1057 -18q51 0 119 6q200 287 200 565q0 125 -38.5 245t-109.5 217.5t-183.5 157.5t-247.5 60q-242 0 -375 -167q-114 -143 -112 -356q2 -218 121 -402q136 -210 371 -287q119 -39 255 -39zM1393 1565
q100 -3 193 19t166 62.5t134 95t101 116.5t62 126.5t22 124.5q0 125 -85 206t-233 81q-130 0 -244 -58t-185 -167t-71 -244q0 -172 140 -362z" />
    <glyph glyph-name="T" unicode="T" horiz-adv-x="1302" 
d="M2746 2189q5 -11 6.5 -32.5t-3.5 -52.5t-16.5 -66t-35 -73t-56 -74t-83.5 -68t-113.5 -56.5t-149.5 -38.5t-188 -14q-97 0 -189.5 17.5t-179.5 51.5t-157 70t-158 89q-57 -176 -121.5 -385.5t-154.5 -512t-103 -346.5q-217 -716 -606 -716q-166 0 -288 92
q-31 23 -24.5 52t34 35t53.5 -16q10 -10 26.5 -33.5t30 -37t36.5 -30t58 -24.5t82 -8q268 0 437 533q77 244 448 1454q-222 138 -328 190q-282 138 -565 138q-288 0 -465 -162q-138 -127 -164 -307q-27 -180 70 -329q110 -170 337 -222q90 -21 192 -21q149 0 237 27
q177 53 238 211q15 38 50 36q29 -3 38 -29q7 -20 -8 -42q-165 -238 -557 -238q-358 0 -548 176q-142 131 -150 323q-8 184 110 343q131 178 362 246q120 35 256 35q109 0 216.5 -19.5t191 -47t182 -76t162.5 -86t160 -97.5q27 94 28 96q11 41 45.5 80.5t73.5 54.5
q16 4 23.5 1.5t8 -14.5t-1 -20.5t-3.5 -15.5q-23 -58 -82 -237q93 -58 162.5 -96t157 -76.5t175.5 -57t179 -18.5q83 0 156.5 12t129.5 32.5t102.5 48.5t78 60t53 67t30.5 70t7.5 68t-13.5 62q-9 24 6.5 44t41 16.5t40.5 -36.5z" />
    <glyph glyph-name="U" unicode="U" horiz-adv-x="1794" 
d="M1761 1042q34 0 33 -12q-1 -6 -6 -8q-61 -42 -111.5 -157t-163.5 -439q-59 -167 -68 -235q-17 -125 68 -125q101 0 195 161q2 4 6 4.5t7 -3t1 -9.5q-33 -92 -110 -161.5t-168 -69.5q-121 0 -131 120t100 367h-6q-28 -43 -51 -77t-64.5 -87.5t-80.5 -94t-94 -86.5
t-109.5 -75.5t-121.5 -49t-136 -19.5q-55 0 -98 8t-70.5 25.5t-46 38.5t-24 52t-6.5 60.5t9 71.5t20.5 76.5t30.5 83t36 84.5t39 87q1 1 1 2q180 401 263 637q386 1093 -188 1198q-61 11 -130 11q-149 0 -281.5 -58t-227.5 -154t-161.5 -221.5t-94 -259t-13 -268t70 -247.5
t166 -198.5t264.5 -119.5q51 -13 85.5 -7t48.5 18t29.5 26t29.5 16q40 9 53 -21t-16 -53q-18 -14 -56.5 -22t-92 -7t-116.5 11t-129.5 36.5t-130 65t-119 100.5t-96.5 139t-63 185t-17 234q4 121 46 242.5t119.5 229t180 191t237 132.5t280.5 49q151 0 266 -51.5t187 -158
t96.5 -259.5t-9 -366.5t-127.5 -469.5q-59 -161 -211 -509q-121 -276 -147 -387q-39 -165 48 -210q39 -20 103 -20q92 0 190.5 52.5t181.5 135t158.5 185t128.5 201.5t85 185q95 254 229 254z" />
    <glyph glyph-name="V" unicode="V" horiz-adv-x="1404" 
d="M2888 2529q106 0 128 -50q13 -33 -16 -60q-21 -19 -49 -19q-25 0 -67.5 20.5t-80.5 30.5t-126 -8q-91 -25 -193 -80t-226.5 -153t-253 -229.5t-273.5 -320t-286 -413t-292.5 -520.5t-292.5 -631q-16 -35 -24.5 -51.5t-27 -34.5t-40.5 -20q-6 0 -11.5 1.5t-9.5 6t-6.5 8
t-5 11.5t-3.5 11t-3 13t-2 12q-64 274 -50.5 588t77.5 603.5t170.5 527.5t228.5 360q13 11 14 15.5t-20 4.5q-92 -13 -198 0.5t-206 43t-197.5 60.5t-204.5 54t-196 23q-121 0 -221.5 -38.5t-167 -102.5t-110 -148t-58 -174t-3.5 -182t47 -171t100 -141t149 -92
q14 -5 20 -12t3.5 -13.5t-8.5 -9.5q-33 -11 -67 -5.5t-65 18.5q-92 43 -155 115t-91.5 156.5t-27.5 180.5t29 187.5t85 175.5t134.5 147.5t183.5 101t225 37.5q108 0 229 -26.5t210.5 -58.5t199.5 -58.5t199 -26.5q33 0 62.5 2.5t56.5 8t45.5 9.5t42.5 13.5t32.5 12.5
t30.5 13.5t23 10.5q35 17 54 -4t-7 -49q-131 -142 -232 -332.5t-157 -382t-91 -384.5t-43 -358.5t-4.5 -284t17.5 -179.5q10 -40 15.5 -53t15.5 -13q6 0 11 2.5t13 14t17 32.5q150 333 306.5 621t296.5 498t282.5 384t262.5 289t238.5 203t209.5 136.5t175.5 78t136 38.5
t93.5 9z" />
    <glyph glyph-name="W" unicode="W" horiz-adv-x="2148" 
d="M3611 2535q134 0 172 -61q22 -37 -2 -69q-19 -22 -50 -23q-22 0 -49.5 17.5t-57.5 35t-72.5 27.5t-112 -7.5t-158.5 -66.5q-161 -89 -330 -241t-316.5 -330t-289.5 -382t-257.5 -401t-211.5 -383t-159 -332.5t-93 -244.5q-5 -12 -14 -28t-28 -33t-38 -17q-32 0 -39 33
q-28 177 -32 389t12 414t49 405q-199 -246 -375.5 -569t-255.5 -590q-11 -35 -15.5 -45.5t-14 -21.5t-25.5 -17q-49 -17 -55 20q-75 419 -35 873q-115 -50 -232.5 -63t-218 8.5t-189.5 71t-151.5 119.5t-98.5 158t-36 183q0 115 38.5 206.5t104.5 153t162 114t202 88
t235 77.5t249.5 80t256.5 98t247 129q58 36 85 16q20 -16 0 -44q-4 -6 -9 -11q-99 -100 -180.5 -225.5t-137 -252t-97 -270t-65.5 -270.5t-38 -262q140 98 168 223q7 39 37 40q26 2 38 -23q10 -19 -2 -39q-77 -139 -247 -242q-34 -342 -11 -653q4 -64 29 -68q9 0 15.5 6
t13.5 23q97 243 212 452.5t205 337t203 263.5q52 303 129 530q58 168 164 253q80 64 138 43q60 -21 52 -122q-3 -40 -18 -88q-14 -49 -40 -102t-49 -91.5t-72.5 -104.5t-76 -98t-94.5 -115q-18 -22 -28 -34q-46 -226 -66 -451t-17 -384.5t21 -282.5q3 -19 8 -26.5t15 -8.5
q6 0 11 4t8 8.5t6 9.5l3 5q134 292 274.5 552.5t270.5 463t262.5 376.5t250.5 301t233 229t212.5 167.5t186.5 109t157.5 62t123.5 18.5zM-82 1374q0 -123 46.5 -227t129.5 -171.5t188 -101.5t230.5 -21.5t249.5 71.5q37 349 139.5 663t245.5 545q7 9 1 18.5t-22 3.5
q-201 -79 -606 -204q-81 -24 -140 -44.5t-125.5 -50t-113 -60.5t-91.5 -74t-72 -92.5t-43.5 -114t-16.5 -140.5zM1786 1874q-69 -199 -119 -416q118 141 189 245t116 226q37 101 7 146q-24 35 -69 6q-71 -46 -124 -207z" />
    <glyph glyph-name="X" unicode="X" horiz-adv-x="3358" 
d="M4628 2279q115 0 140 -47q15 -27 -9 -46q-11 -9 -26 -9q-22 0 -39.5 8.5t-30 18t-46 18t-83.5 8.5q-99 0 -211 -30.5t-219 -78.5t-236.5 -130t-239.5 -161.5t-254 -197t-255.5 -213.5t-265.5 -233q11 -140 24.5 -311t21 -270t9.5 -116q3 -25 8.5 -68t8.5 -68t8.5 -63
t11.5 -61t14 -51.5t18.5 -45t24 -32.5t30.5 -23t38 -7q55 0 104 47.5t84 113.5q2 5 6.5 5.5t7.5 -3t1 -10.5q-30 -92 -105 -161.5t-166 -69.5q-95 0 -137 92q-34 75 -57 291q-3 30 -10 106q-5 67 -22.5 279.5t-27.5 333.5q-473 -421 -701 -607q-557 -454 -961 -632
q-308 -136 -570 -136q-216 0 -347 126q-117 111 -120 275q-4 188 146 358q140 159 387 263q53 23 76 -12q17 -25 1 -51q-8 -11 -22 -16q-22 -7 -48 -7.5t-47 2.5t-53.5 -4.5t-68.5 -27.5q-116 -66 -194 -159t-108 -188t-19 -189t60 -167t143.5 -118.5t219.5 -45.5
q124 0 264.5 40t259.5 90t288 161.5t275 186.5t301 237t285 241t303 267q161 142 242 213q-6 54 -11.5 140t-9.5 157t-13.5 163t-22 167t-37 158.5t-56.5 148t-82.5 125.5t-113 100.5t-149.5 63.5t-191 24q-367 0 -599 -222q-178 -171 -232 -425q-50 -237 26 -447
q74 -206 243 -298q112 -62 253 -62q165 0 282.5 65t163.5 191q16 44 52 41q29 -2 39 -28q7 -17 -3 -37q-21 -45 -68.5 -90.5t-114.5 -85.5t-160 -65.5t-193 -25.5q-311 0 -483 193q-141 159 -150 401t117 465q133 236 371 359q206 106 460 106q154 0 275.5 -36t205.5 -101
t142.5 -161t89 -208.5t41.5 -251.5q25 -309 33 -432q169 146 308 259t300 232.5t305 205t293.5 155.5t295 105.5t281.5 35.5z" />
    <glyph glyph-name="Y" unicode="Y" horiz-adv-x="2185" 
d="M1767 -113q232 8 416 -18t297.5 -78t172.5 -119.5t59 -146.5q0 -47 -19 -88.5t-48 -69t-55 -44t-50 -25.5q-45 -16 -57 -6q-6 5 8 9q2 1 3 1q48 14 90 64t42 138q0 115 -107.5 196.5t-304.5 120t-461 29.5q-96 -227 -201.5 -397t-208.5 -277t-219.5 -173t-226 -91.5
t-235.5 -25.5q-183 0 -308 82t-125 209q0 101 60.5 194t166 165.5t245 133.5t301.5 103.5t331 70t338 37.5q80 211 193 594h-4q-27 -44 -48.5 -77t-62 -87.5t-77.5 -94.5t-91 -86t-107 -75t-119.5 -49t-135.5 -20q-232 0 -250 158q-11 103 76 322q14 35 45 109
q170 410 247 657q326 1047 -210 1172q-71 17 -158 17q-149 0 -279.5 -58t-222 -154t-153.5 -221.5t-85 -259t-3.5 -268t78.5 -247.5t172.5 -198.5t268.5 -119.5q52 -13 86.5 -6.5t48.5 18t28.5 25.5t27.5 16q41 9 54.5 -20.5t-15.5 -53.5q-17 -14 -55 -22t-91.5 -7
t-116.5 11t-130 36.5t-132 65t-122.5 100.5t-101.5 139t-69.5 185t-25.5 234q0 121 37.5 242.5t111.5 229t173 191t232 132.5t280 49q151 0 267.5 -51.5t192.5 -158t105.5 -260t3.5 -367.5t-111 -470q-32 -95 -73 -204t-75.5 -193t-70.5 -174t-60 -158t-41 -133.5
t-16.5 -111t15.5 -81t53.5 -52.5t99.5 -17q92 0 189 52.5t176.5 135t151.5 185t121.5 201.5t78.5 185q85 254 221 254q20 0 27 -5t5.5 -9t-5.5 -8q-70 -43 -121 -161t-147 -441q-82 -279 -185 -531zM737 -1069q136 0 258 50t215.5 132t178.5 203t147 247t121 281
q-367 -22 -670.5 -115t-478 -235t-174.5 -301q0 -115 108.5 -188.5t294.5 -73.5z" />
    <glyph glyph-name="Z" unicode="Z" horiz-adv-x="2686" 
d="M3588 2390q66 39 102 7q23 -20 12 -47q-5 -14 -20 -21q-114 -54 -247.5 -151.5t-254.5 -205.5t-276 -263t-276 -283t-293 -309.5t-289 -301.5q145 17 281.5 63.5t254.5 129.5t175 188q30 57 81 49q38 -6 54 -42q22 -50 -30 -97q-3 -2 -5 -4q-172 -144 -396.5 -230.5
t-457.5 -101.5q-511 -518 -873 -739q103 -78 243 -201.5t247 -222t249 -208t269.5 -183t287 -122t320.5 -48.5q262 0 450 141q140 104 185.5 244t-28.5 242q-91 128 -329 134h-20q-106 0 -207.5 -28t-172 -68.5t-115 -75t-64.5 -59.5q-28 -33 -63 -17q-27 13 -25 40
q3 26 39 45q410 217 699 217q228 0 340 -123q93 -102 73 -245q-22 -153 -161 -276q-192 -169 -518 -200q-66 -6 -136 -6q-137 0 -269.5 27t-242.5 71.5t-223 111.5t-202.5 135t-190 156t-176.5 161t-172 162t-166 149q-282 -154 -510 -154q-279 0 -397 113q-80 77 -57 173
q22 90 121 147q92 52 218 52q171 0 332 -66t327 -186q346 214 838 703q-487 -7 -769 216q-206 163 -257 411q-49 233 54 459q102 225 317 359q229 142 530 142q116 0 280.5 -17t308 -38t315 -34.5t317 -12t297.5 35.5t272 103zM539 -133q202 0 469 151
q-153 123 -294.5 189.5t-291.5 66.5q-117 0 -184 -78q-58 -68 -41 -150q20 -94 131 -142q85 -37 211 -37zM3465 2261q10 6 3 9q-4 1 -9 -1q-115 -48 -279.5 -62t-346.5 0t-355.5 35t-364.5 41.5t-317 20.5q-342 0 -558 -196q-172 -156 -217 -391q-45 -234 52 -450
q101 -227 326 -349q237 -130 567 -111q150 150 349 359.5t346 365.5t302 312t282 262.5t220 154.5z" />
    <glyph glyph-name="bracketleft" unicode="[" horiz-adv-x="1132" 
d="M1712 2417q98 0 150.5 -25t38.5 -61q-10 -24 -38 -28.5t-51 7.5q-62 28 -110.5 41.5t-127.5 12.5t-148.5 -33t-164 -112t-185 -208t-201 -337t-222.5 -484q-95 -235 -162.5 -435t-107 -350.5t-53 -277.5t-13.5 -214t24.5 -161t48 -117.5t70.5 -85.5t78.5 -62t84.5 -50
q3 -1 4 -2q68 -35 49 -78q-14 -35 -69 -15.5t-126 87.5q-487 460 72 1763q85 199 164 355.5t167.5 299t179.5 244t192.5 177t215.5 112.5t240 37z" />
    <glyph glyph-name="backslash" unicode="\" horiz-adv-x="649" 
d="M467 -248q14 -144 -7.5 -220t-76.5 -105q-36 -20 -34 0q0 4 1 6q24 42 29 121.5t-1 161.5t-27 294q-5 47 -7 72q-6 65 -104.5 928.5t-128.5 1143.5q-15 143 6 219t76 105q34 20 33 0q0 -4 -1 -6q-19 -34 -27.5 -75.5t-3.5 -140t11 -163t27 -257.5q1 -7 1 -11
q30 -282 127 -1129t107 -944z" />
    <glyph glyph-name="bracketright" unicode="]" horiz-adv-x="1159" 
d="M977 2320q489 -462 -74 -1765q-103 -239 -197 -419.5t-204.5 -337.5t-223.5 -256.5t-248 -155.5t-286 -56q-97 0 -148.5 26t-39.5 62q10 24 38 28.5t52 -7.5q62 -28 110 -41.5t126.5 -13t148 32.5t164 112t185.5 208t202 337.5t223 484.5q122 300 197.5 544t110 408.5
t26 298.5t-25 206.5t-76.5 139t-95 90.5t-110 66l-1.5 1.5t-1.5 0.5q-66 34 -47 76q15 36 69 16.5t126 -86.5z" />
    <glyph glyph-name="asciicircum" unicode="^" horiz-adv-x="1705" 
d="M1233 1583h18q35 -57 103.5 -172.5t103.5 -173.5h-108q-84 134 -154 233q-54 -45 -149 -122.5t-134 -110.5h-61q81 75 227 207t154 139z" />
    <glyph glyph-name="underscore" unicode="_" horiz-adv-x="1198" 
d="M1044 -96h-841l24 69h844z" />
    <glyph glyph-name="grave" unicode="`" horiz-adv-x="1069" 
d="M819 1626q-61 -37 -92 -73.5t-34.5 -69.5t2.5 -61t14.5 -60.5t5.5 -54.5q-5 -46 -31.5 -63t-56.5 -15q-22 0 -50 19.5t-28 56.5q-1 56 26.5 113t70 101.5t83 76.5t76.5 51q12 5 18.5 2t5.5 -10.5t-10 -12.5z" />
    <glyph glyph-name="a" unicode="a" horiz-adv-x="1105" 
d="M854 426q-48 -155 -57 -210q-24 -153 73 -153t185 162q5 8 11.5 5.5t2.5 -13.5q-29 -92 -99.5 -161.5t-160.5 -69.5q-55 0 -88 25t-43 62t-6 87t15 93t28 87h-6q-21 -50 -60 -108t-92.5 -114t-121.5 -93t-134 -37q-67 0 -116.5 24.5t-76.5 65.5t-40 86.5t-13 95.5
q0 94 38.5 205t103 212.5t142.5 186t165 135t162 50.5q20 0 41 -4t50 -20t50 -42.5t36.5 -77t14.5 -117.5h4q81 238 213 238q37 0 35 -12q-2 -4 -6 -8q-58 -37 -98.5 -133t-125.5 -364q-17 -54 -26 -83zM682 1008q-128 0 -265 -161q-127 -147 -195 -345q-72 -210 -27 -332
q40 -109 167 -109q73 0 153 71.5t144 177t105 222.5q31 88 45 162t11.5 124t-14 88.5t-33 59.5t-44 31.5t-47.5 10.5z" />
    <glyph glyph-name="b" unicode="b" horiz-adv-x="956" 
d="M1829 2296q-9 -25 -41 -29t-59 14q-92 52 -194 56t-209 -41t-216 -132.5t-218 -223t-212 -307.5t-200.5 -391t-180.5 -468q46 89 114.5 152t140 91.5t144 26.5t129 -33.5t92 -98t35.5 -158.5q0 -88 -29 -183.5t-77 -179.5t-112 -160.5t-132.5 -131t-139.5 -87t-132 -32.5
q-88 0 -146.5 30.5t-86.5 81.5t-34 125t7 154.5t41 175.5q69 237 157 458.5t197.5 430t240 380t275.5 300.5t314 200.5t345 71.5q96 0 149 -25.5t38 -66.5zM244 584q-89 -261 -72 -416.5t141 -155.5q117 0 240 121t200.5 293.5t77.5 321.5q0 172 -95 228q-84 50 -200 -10
q-128 -66 -222 -231q-41 -70 -70 -151z" />
    <glyph glyph-name="c" unicode="c" horiz-adv-x="858" 
d="M674 1034q-85 0 -176.5 -70.5t-160.5 -175t-114 -231t-45 -233.5q0 -118 51.5 -189.5t159.5 -71.5q117 0 214 87t163 223q8 17 17 15t5 -21q-17 -51 -57 -114t-96.5 -124.5t-134.5 -103t-156 -41.5q-127 0 -208 83t-81 244q0 116 53 249t137.5 243.5t202 184t234.5 73.5
q64 0 116.5 -29t78.5 -71t25.5 -93t-34.5 -92q-28 -33 -69 -36.5t-70 24.5q-24 23 -29 50.5t3.5 47.5t23.5 33q31 28 37 60.5t-17.5 55.5t-72.5 23z" />
    <glyph glyph-name="d" unicode="d" horiz-adv-x="1130" 
d="M2128 2419q97 0 150 -26t42 -62q-8 -24 -36 -28.5t-52 7.5q-56 24 -105.5 37.5t-111 14.5t-118.5 -15.5t-123.5 -58.5t-131 -108.5t-137 -171t-143.5 -241.5q-86 -166 -237 -583.5t-261 -757.5q-57 -177 -60 -251q-5 -112 79 -112q94 0 182 162q5 8 12 5.5t4 -13.5
q-31 -92 -103.5 -161.5t-162.5 -69.5q-48 0 -78.5 21t-40 58t-11.5 73t8 83t16 69.5t14 49.5h-4q-21 -51 -60 -108.5t-92.5 -113.5t-123.5 -93t-138 -37q-63 0 -111 24.5t-75 65t-40 86.5t-13 96q0 117 60 258.5t148.5 257.5t198.5 194.5t203 78.5q20 0 41 -4.5t49.5 -21
t50 -43t37 -76.5t14.5 -116l4 -2q65 201 124 362.5t135 336t152 306.5t171 254.5t195.5 201.5t223 125.5t255.5 46.5zM774 532q31 88 45 162t11.5 124t-14 88.5t-33 59.5t-44 31.5t-47.5 10.5q-127 0 -264 -161q-126 -148 -195 -345q-72 -210 -27 -332q40 -109 167 -109
q72 0 152.5 71.5t144 177t104.5 222.5z" />
    <glyph glyph-name="e" unicode="e" horiz-adv-x="882" 
d="M907 864q0 -147 -194.5 -289t-544.5 -274q-5 -104 43 -173t149 -69q44 0 87 14.5t75 33.5t66.5 52t54 56t45 60.5t33 50t22.5 39.5q12 19 20.5 13t2.5 -24q-5 -17 -24 -53t-60 -91.5t-91 -103.5t-124 -83t-152 -35q-195 0 -251 154q-50 139 25 349q74 204 222 361
q172 181 358 201q20 2 40 2q84 0 141 -56t57 -135zM674 1014q-73 0 -147 -43.5t-134 -115t-108.5 -159.5t-78 -181t-36.5 -175q397 138 556 339q97 121 78 226q-13 74 -78 100q-24 9 -52 9z" />
    <glyph glyph-name="f" unicode="f" horiz-adv-x="692" 
d="M487 969q-337 -1078 -415 -1336q-45 -140 -106.5 -251.5t-123 -178t-128 -111t-119.5 -61t-99 -16.5q-116 0 -220 44q-106 44 -98 100q2 19 19 38q10 10 22 15.5t30.5 3.5t35.5 -17q14 -13 33 -43t35.5 -52t55 -40t93.5 -18q88 0 175 74t152 186.5t112 251.5
q39 113 75.5 225t83.5 264.5t68 220t82.5 275t73.5 245.5q11 38 11.5 67t-4.5 48t-21 32t-30 19.5t-40.5 10t-42 4t-45.5 0.5h-5q-25 0 -33.5 13.5t1 26.5t28.5 13h250q64 214 134.5 364.5t147 238t155 126.5t169.5 39q123 0 191.5 -48.5t73.5 -115.5q1 -28 -16 -47.5
t-40 -26.5q-25 -5 -51.5 7t-38.5 43q-4 10 -10 31t-10.5 35t-15.5 32t-25 29t-39.5 18.5t-59.5 7.5q-54 0 -101 -24.5t-84.5 -70t-70 -103.5t-61 -132t-53.5 -147.5t-51 -156.5q-7 -22 -10.5 -34.5t-9.5 -31t-11 -33.5h330q21 0 28 -14t-3 -27.5t-30 -13.5q-8 0 -159 1
t-185 1z" />
    <glyph glyph-name="g" unicode="g" horiz-adv-x="1003" 
d="M702 338h-6q-20 -50 -60 -108.5t-93.5 -114t-121.5 -92.5t-132 -37q-66 0 -115.5 24.5t-77 65t-40.5 86.5t-13 96q0 94 38 205t103 212.5t142.5 186t164.5 135t162 50.5q20 0 40.5 -4t49 -20t49.5 -42.5t37 -77t17 -117.5l4 -2q41 126 97 183t116 57q36 0 34 -13l-5 -7
q-56 -38 -96 -131.5t-126 -361.5q-6 -19 -9.5 -29t-8.5 -27t-10 -31q-48 -149 -117 -370t-110 -346.5t-68 -194.5q-48 -127 -119 -223t-153.5 -152t-169.5 -83.5t-177 -27.5q-112 0 -205 30.5t-153 80.5t-96.5 115.5t-43 135.5t16 140t71 128.5t132 102t190.5 60.5
q33 5 130.5 16t148 20t116.5 37.5t103 73.5q6 10 13 -3q7 -14 -3 -30q-25 -39 -79.5 -63.5t-108 -34t-152.5 -25t-166 -30.5q-111 -25 -186 -90t-103 -145t-17.5 -167t57 -158.5t135 -118t202.5 -46.5q155 0 289.5 93t198.5 278q76 222 147 450t104 345zM670 1006
q-127 0 -264 -161q-126 -148 -195 -345q-73 -210 -28 -332q38 -107 163 -107q76 0 157.5 71t144 175.5t104.5 222.5q31 88 45 162t11.5 124t-14.5 88.5t-33 59.5t-44 31.5t-47 10.5z" />
    <glyph glyph-name="h" unicode="h" horiz-adv-x="1056" 
d="M33 -14q-6 -2 -12 3t-3 11q39 119 115 362q189 601 295 876q226 589 472 868q276 311 628 311q97 0 149.5 -25t40.5 -61q-8 -26 -36 -30t-52 9q-56 24 -105.5 37t-111 14.5t-118.5 -15.5t-123.5 -58.5t-131 -108t-137 -171t-143.5 -241.5q-227 -439 -377 -974l6 -2
q63 109 162.5 185.5t224.5 76.5q117 0 155 -96.5t-22 -254.5q-33 -80 -151 -436q-20 -59 -23.5 -104t15.5 -75t63 -30q58 0 110.5 49.5t80.5 120.5q3 5 8 5t8 -4t0 -11q-28 -93 -94.5 -163t-157.5 -70q-215 0 -127 290q26 88 96 279.5t84 255.5q21 88 -6.5 139t-91.5 51
q-60 0 -123 -36.5t-113.5 -95t-90.5 -127.5t-62 -136q-12 -38 -83 -247t-104 -298q-9 -27 -34 -39q-66 -29 -80 -34z" />
    <glyph glyph-name="i" unicode="i" horiz-adv-x="524" 
d="M125 934q-5 5 2 16q37 35 101 67t114 32q58 0 88 -29t29.5 -76t-17.5 -106q-20 -59 -121 -316t-116 -319q-11 -52 4 -96t65 -44q31 -1 58 11.5t53.5 41.5t40.5 48t41 59q11 14 16 5q2 -4 0 -9q-38 -94 -115 -163.5t-159 -69.5q-95 0 -120.5 76.5t20.5 193.5
q17 45 112.5 284t124.5 314q28 85 8.5 123.5t-77 27.5t-125.5 -69q-18 -15 -27 -2zM518 1253q-34 0 -59 25.5t-25 60.5q0 34 25 59t59 25q35 0 59.5 -25t24.5 -59q0 -35 -24.5 -60.5t-59.5 -25.5z" />
    <glyph glyph-name="j" unicode="j" horiz-adv-x="526" 
d="M481 836q-96 -327 -372 -1198q-45 -140 -106.5 -251.5t-122 -178.5t-126.5 -111.5t-118 -61t-97 -16.5q-121 0 -227 44q-107 45 -97 102q3 18 19 36q10 10 22 15.5t30.5 3.5t35.5 -17q14 -13 33 -43t35.5 -52t55 -40t93.5 -18q89 0 175.5 74t151 186.5t111.5 251.5
q101 295 402 1292q32 109 -15 143q-55 39 -178 -47q-44 -32 -94 -78q-16 -14 -26 -4q-6 10 0 19q170 162 307 162q56 0 87.5 -29.5t34 -77t-13.5 -106.5zM539 1253q-34 0 -59 24.5t-25 59.5q0 34 25 59t59 25t59 -25t25 -59q0 -35 -25 -59.5t-59 -24.5z" />
    <glyph glyph-name="k" unicode="k" horiz-adv-x="1048" 
d="M1520 2417q97 0 149.5 -25t40.5 -61q-8 -26 -36 -30t-52 9q-56 24 -105.5 37t-110.5 14t-117.5 -16t-123 -58.5t-131 -108t-136.5 -170.5t-144 -241q-75 -143 -188.5 -448.5t-229.5 -675.5q-6 -22 9.5 -33.5t53.5 -11.5q59 0 114.5 33t97 82.5t87 107.5t85 107.5
t90.5 82.5t104 33q47 0 76 -22.5t36 -56.5t2.5 -71t-20 -69t-35.5 -49q-28 -23 -65 -24t-60 22q-25 23 -24 59t26 62q10 10 29.5 21t31 22.5t13.5 30.5q3 18 -6 30.5t-29 12.5q-37 0 -77.5 -34t-80 -86.5t-80 -108t-93 -107.5t-103.5 -76q55 1 93.5 -9.5t58 -27.5t27.5 -41
t6.5 -47.5t-9.5 -50.5q-45 -150 -54 -195q-29 -167 75 -168q88 0 180 162q4 10 11 5q5 -3 3 -13q-31 -92 -104 -161.5t-164 -69.5q-168 0 -115 256q9 44 45 168q1 2 6 17t6.5 21.5t5 22t2 24t-4 21.5t-11.5 20.5t-21 15.5t-32.5 11.5t-46.5 3.5q-160 0 -215 -162
q-42 -137 -98 -335q-9 -29 -35 -39q-8 -3 -31.5 -13.5t-43.5 -19.5t-23 -10q-6 -2 -11 3t-4 11q42 128 124 387q187 596 291 867q223 581 467 856q273 307 624 307z" />
    <glyph glyph-name="l" unicode="l" horiz-adv-x="489" 
d="M92 338q92 295 166.5 512.5t165.5 446.5t175 388.5t187 306.5t210 234.5t236 139t273 51.5q97 0 151 -26t42 -62q-8 -24 -36 -28.5t-52 7.5q-56 24 -106 37.5t-112 14.5t-119 -15.5t-124.5 -58.5t-132 -108.5t-137 -171t-144.5 -241.5q-87 -166 -237 -580.5t-262 -760.5
q-54 -167 -61 -236q-12 -127 77 -127q96 0 184 162q5 8 12.5 5.5t4.5 -13.5q-30 -91 -103.5 -161t-161.5 -70q-35 0 -61.5 9.5t-41 28t-24 39t-9.5 50t0.5 52.5t7.5 54.5t11.5 48.5t12 43t8.5 29z" />
    <glyph glyph-name="m" unicode="m" horiz-adv-x="1570" 
d="M1530 223q4 8 9.5 10.5t9 -1.5t1.5 -13q-32 -97 -100 -165t-156 -68q-46 0 -80 14.5t-57 46.5t-20.5 90.5t32.5 138.5q42 110 185 447q13 30 22.5 57t17.5 69t4.5 71t-26.5 51t-67 22q-93 0 -216 -133.5t-188 -312.5q-41 -113 -83.5 -232.5t-64 -180t-24.5 -68.5
q-6 -13 -10 -20t-15.5 -18.5t-27.5 -17.5q-12 -5 -41 -11t-33 -7q-11 -6 -18.5 -1t-1.5 19q185 493 241 649q44 121 53 158q41 177 -96 178q-51 0 -113 -44.5t-114 -109t-93.5 -131.5t-60.5 -118q-131 -337 -206 -524q-12 -35 -48 -50q-36 -16 -79 -30q-10 -3 -16.5 2
t-2.5 18q1 3 42.5 110t90.5 234t98 255t64 171q22 63 26 111t-12 76t-51 28q-25 0 -57 -22.5t-60.5 -56.5t-43 -53t-23.5 -32q-5 -7 -12.5 -6.5t-10.5 6t2 13.5q13 20 31.5 43.5t58.5 68.5t88 74t91 29q57 0 85 -36t27 -89t-9.5 -96.5t-20.5 -75.5h6q55 101 167 198t214 97
q48 0 81.5 -14.5t50.5 -36t24.5 -52t7 -57.5t-6 -57.5t-10.5 -46.5t-10 -31h2q65 118 172.5 206.5t216.5 88.5q108 0 139.5 -85.5t-24.5 -230.5q-159 -383 -207 -514q-8 -23 -12 -48.5t-1.5 -54t22.5 -47t56 -18.5q56 0 108 45.5t83 120.5z" />
    <glyph glyph-name="n" unicode="n" horiz-adv-x="1079" 
d="M838 662q55 142 63 198q18 134 -108 135q-51 0 -114.5 -44.5t-118.5 -109t-98.5 -132t-62.5 -117.5q-131 -337 -206 -524q-12 -35 -48 -50q-36 -16 -79 -30q-10 -3 -16.5 2t-2.5 18q1 3 42.5 110t90.5 234t98 255t64 171q34 94 26 154.5t-63 60.5q-25 0 -57 -22.5
t-60.5 -56.5t-43 -53t-23.5 -32q-5 -7 -12.5 -6.5t-10.5 6t2 13.5q13 20 31.5 43.5t58.5 68.5t88 74t91 29q57 0 85 -36t27 -89t-9.5 -96.5t-20.5 -75.5h6q54 99 171.5 197t221.5 98q64 0 104.5 -23.5t54 -57t13.5 -77t-7.5 -74.5t-17.5 -59q-20 -54 -103.5 -265.5
t-90.5 -228.5q-41 -105 -33 -153q9 -58 78 -58q37 0 70 17t57 45t39.5 52.5t25.5 49.5q7 14 16 13q8 -2 3 -17q-4 -13 -13 -34.5t-31.5 -58.5t-48.5 -67t-66.5 -52.5t-84.5 -22.5q-148 0 -157 116q-7 89 76 301q14 36 44 110q40 100 60 151z" />
    <glyph glyph-name="o" unicode="o" horiz-adv-x="970" 
d="M358 -12q-107 0 -173.5 51t-86.5 130t-15 175t33.5 187t66 164t75.5 108q2 2 5 3t5 0t2 -5q10 -41 47 -78q19 -19 2 -37q-61 -97 -97.5 -214t-41 -219.5t40.5 -171.5t137 -69q63 0 123.5 38t111 104.5t92 146t77.5 174.5q43 112 62 208t13.5 174.5t-50 123.5t-125.5 45
q-66 0 -123.5 -34t-57.5 -87q0 -15 8.5 -38t8.5 -40q0 -37 -27 -65.5t-65 -28.5t-64.5 27.5t-26.5 66.5q0 74 104.5 150t244.5 76q181 0 243 -155q57 -141 0 -353q-56 -209 -190 -365q-152 -178 -333 -191q-13 -1 -26 -1z" />
    <glyph glyph-name="p" unicode="p" horiz-adv-x="1042" 
d="M430 774q94 140 193.5 208.5t189.5 68.5q104 0 171 -86t67 -224q0 -91 -31.5 -195t-91 -202.5t-136 -179.5t-175 -130.5t-199.5 -49.5q-59 0 -101.5 18t-63 48t-29.5 59.5t-9 60.5q0 4 1 9.5t1 8.5q-35 -101 -82.5 -236.5t-73.5 -211.5t-34 -100q-49 -140 -113 -251
t-126.5 -177.5t-129.5 -111t-119.5 -62t-99.5 -19.5q-109 0 -214.5 39.5t-105.5 97.5q0 20 18 43t48 23q26 0 44 -17.5t32 -42.5t32.5 -50t56 -42.5t91.5 -17.5q87 0 176 73t158 185.5t121 251.5q107 284 417 1216q29 89 29 140q0 75 -59 75q-14 0 -31.5 -8.5t-35 -22.5
t-34 -29.5t-32 -34t-26.5 -31.5t-20.5 -25t-9.5 -13q-4 -7 -13 -6t-9 11q0 17 45 70t114.5 103t120.5 50q105 0 105 -113q0 -58 -35 -170h8zM412 20q72 0 150 51.5t144 136t120 185.5t85 207t31 193q0 99 -40 150.5t-107 51.5q-105 0 -228 -113.5t-205 -312.5
q-102 -248 -102 -383q0 -166 152 -166z" />
    <glyph glyph-name="q" unicode="q" horiz-adv-x="1001" 
d="M598 -1014q-61 0 -105.5 15.5t-69.5 39.5t-37 61.5t-13.5 74t6.5 85.5t18 87t25 86l291 905h-4q-21 -50 -60 -108t-92 -114t-121 -93t-133 -37q-67 0 -117 24.5t-77.5 65t-40.5 86.5t-13 96q0 117 60 258.5t149 257.5t199 194.5t203 78.5q20 0 40.5 -4t49 -20t49.5 -42.5
t36.5 -77t16.5 -117.5l4 -2q81 240 217 240q35 0 32 -11q-2 -5 -7 -9q-56 -38 -96 -131.5t-126 -361.5q-18 -57 -28 -87q-59 -186 -121 -372t-120 -353.5t-68 -198.5q-21 -62 -35.5 -112.5t-27.5 -109t-14.5 -102.5t6 -81.5t33 -57.5t66.5 -20q35 0 63.5 13t43.5 28.5t34 38
t29 31.5q20 18 42 20t35 -8.5t11.5 -32t-22.5 -45.5q-27 -31 -78 -50t-82.5 -23.5t-50.5 -4.5zM682 1008q-127 0 -264 -161q-127 -148 -195 -345q-74 -210 -29 -332q39 -107 164 -107q76 0 157.5 71t144 175.5t104.5 222.5q31 88 45 162t11.5 124t-14.5 88.5t-33 59.5
t-44 31.5t-47 10.5z" />
    <glyph glyph-name="r" unicode="r" horiz-adv-x="942" 
d="M344 434q-6 -21 -62.5 -188t-62.5 -183q-12 -34 -45 -49q-40 -16 -70 -26q-10 -3 -16 2t-2 18l57 171t119 355t82 244q34 94 25 154.5t-64 60.5q-24 0 -56 -22.5t-60.5 -56t-44 -53.5t-23.5 -32q-5 -7 -12.5 -6.5t-10.5 6t2 13.5q12 19 31.5 43.5t59.5 69t88 73.5t90 29
q46 0 73 -25t33.5 -60t3 -79t-12 -76t-17.5 -57h6q181 297 395 297q67 0 112.5 -45t45.5 -107q0 -56 -23 -96t-54.5 -55.5t-65.5 -9t-56 35.5q-28 36 -12 83.5t67 60.5q45 12 43 46q-1 31 -39 49q-20 9 -45 9q-55 0 -121.5 -43t-132 -118.5t-125.5 -189t-100 -243.5z" />
    <glyph glyph-name="s" unicode="s" horiz-adv-x="792" 
d="M817 883q0 -64 -39 -95t-78 -16q-36 14 -45.5 46.5t4.5 55.5q6 14 26 38.5t20 39.5q0 39 -32 58.5t-85 19.5q-54 1 -109 -21.5t-95 -68.5t-40 -102q0 -60 34 -118t82.5 -106t97 -96.5t82.5 -108t34 -120.5q0 -26 -7.5 -59.5t-32 -79.5t-63.5 -81.5t-111 -60t-165 -22.5
q-36 1 -70 7t-70 22t-62 39t-43 61t-17 86q-1 71 29 104.5t69 28.5q30 -4 48 -26t16 -50q-2 -38 -26 -77.5t-24 -67.5q0 -47 50.5 -72t99.5 -25q264 0 264 236q0 49 -33.5 101.5t-81.5 99.5t-96 94.5t-81.5 104.5t-33.5 112q0 72 34 129.5t90 92t122 53t135 18.5
q21 0 48.5 -5.5t65.5 -21.5t63.5 -54t25.5 -93z" />
    <glyph glyph-name="t" unicode="t" horiz-adv-x="589" 
d="M393 1061q66 186 82 229q48 131 101 183t118 55q20 2 30.5 -3t9 -10.5t-2.5 -7.5q-91 -61 -143 -194q-21 -52 -92 -254q0 -2 2 -2h276q21 0 28.5 -14t-2.5 -28t-30 -14h-291q-4 0 -6 -4q-145 -401 -199 -569q-54 -161 -63 -225q-19 -135 70 -140q98 -5 190 162
q5 8 11.5 5t2.5 -13q-31 -93 -104.5 -163.5t-163.5 -67.5q-34 1 -58.5 12t-39 27t-21 41.5t-8.5 47.5t2.5 53.5t8.5 52t13 50t12.5 40t10.5 28.5q2 7 30 82t66.5 184t67.5 201q62 199 -12 199q-25 0 -33 13t1.5 26.5t29.5 13.5h100q4 0 6 4z" />
    <glyph glyph-name="u" unicode="u" horiz-adv-x="1128" 
d="M721 291q-19 -33 -45 -69t-68 -80.5t-87.5 -78t-104.5 -56t-117 -21.5q-74 2 -120.5 28.5t-62.5 69t-12.5 92.5t25.5 105q34 82 85.5 199t87.5 199t44 105q41 98 34 156t-63 59q-24 0 -56.5 -23t-61.5 -55t-46 -53.5t-24 -31.5q-12 -12 -21 -4q-7 6 1 16q161 215 276 215
q35 0 60.5 -13.5t41.5 -44.5t9.5 -90.5t-37.5 -142.5q-18 -47 -52 -121t-62.5 -136t-58.5 -134t-43.5 -128t-13 -104.5t29 -76t85.5 -31.5q111 -7 227 110t197 302q48 105 135 335q98 247 230 254q34 2 31 -12q-1 -6 -5 -8q-60 -43 -111 -159t-163 -437q-4 -13 -13 -39
q-12 -35 -18 -53t-16.5 -52t-14 -54t-7.5 -48t0 -45t11 -34t22.5 -26.5t37.5 -11.5q53 -4 104 45.5t86 116.5q8 8 13.5 5t1.5 -13q-32 -92 -110.5 -163.5t-168.5 -67.5q-55 3 -85.5 31.5t-35.5 74.5t3.5 95.5t29.5 103.5h-4z" />
    <glyph glyph-name="v" unicode="v" horiz-adv-x="886" 
d="M883 741q0 -56 -15.5 -130t-45.5 -159.5t-81 -167t-114.5 -148.5t-153 -107.5t-190.5 -40.5q-109 0 -158 58t-49 147q0 106 124 348q17 34 52 100q103 196 122 262q27 94 -40 94q-32 0 -81 -43.5t-101 -115.5q-6 -8 -14 -7t-10.5 7.5t3.5 15.5q25 32 38 48.5t45 50
t58 51.5t65 33.5t77 15.5q90 0 90 -95q0 -56 -47.5 -162.5t-104 -207.5t-104 -214t-47.5 -181q0 -162 139 -162q79 0 156 46t136.5 121t106 165t71 182t24.5 168q0 54 -12 94.5t-29.5 62.5t-35 39t-31 35t-15.5 39q-3 39 13.5 61.5t51.5 22.5q107 0 107 -326z" />
    <glyph glyph-name="w" unicode="w" horiz-adv-x="1415" 
d="M1440 791q1 -71 -16.5 -157.5t-50.5 -177.5t-84.5 -176.5t-113 -151.5t-143 -104.5t-168.5 -35.5q-223 8 -190 202q-210 -213 -393 -202q-110 6 -161.5 64t-49.5 147q3 114 142 351q22 37 67 110q110 180 132 241q32 91 -34 96q-32 3 -83 -41t-108 -118q-8 -12 -18 -4.5
t0 20.5q27 34 55 64t69.5 66.5t87 55.5t85.5 13q111 -17 64 -160q-26 -82 -142 -284q-120 -210 -154 -296q-30 -76 -32 -127q-8 -151 133 -151q86 -1 184 69t176.5 173t133 224.5t61.5 219.5q4 60 -3 103.5t-18 63.5t-24 46.5t-17 50.5q-5 26 16.5 50t55.5 20t57 -49
q42 -86 31 -236q-4 -57 -17.5 -116.5t-33.5 -112.5t-36.5 -91.5t-36.5 -78t-23 -47.5q-124 -287 90 -289q83 -1 171 78t150.5 193t100 241.5t30.5 220.5q-5 59 -22.5 99t-35.5 55.5t-34.5 35t-19.5 41.5q-7 35 16.5 57.5t56.5 24.5q52 4 73.5 -66t23.5 -224z" />
    <glyph glyph-name="x" unicode="x" horiz-adv-x="1071" 
d="M1196 1126q31 0 53 -18t21 -49q-1 -33 -22.5 -51.5t-51.5 -18.5q-16 0 -34.5 11t-35.5 18t-43 6t-69.5 -28.5t-102.5 -82.5q-43 -39 -329 -344q65 -196 100 -286q7 -18 19.5 -51.5t18.5 -49t16.5 -40t19 -36t19.5 -24.5t24 -18t28 -5q35 -1 69 19.5t58.5 51.5t37.5 50.5
t20 34.5q4 9 9 12t7 -1.5t0 -14.5q-7 -15 -15 -31.5t-34 -54.5t-54.5 -66t-73 -50.5t-91.5 -22.5q-31 0 -55 12t-39.5 36.5t-21 35.5t-13.5 34q-1 3 -135 373q-125 -134 -300.5 -325t-183.5 -199q-123 -133 -247 -193t-228 -28q-80 23 -57 80q18 46 74 30q11 -3 31.5 -17
t39 -25t52.5 -12.5t73 13t100.5 60.5t135.5 121q33 34 109.5 118t194.5 214t189 208q-110 302 -137 381q-7 19 -12 31t-14.5 25t-20 16.5t-27 0t-36 -19.5t-47 -46.5t-60.5 -75.5q-12 -17 -24 -10q-9 4 -1 16q61 91 115 142t93.5 62.5t72.5 -3.5t53.5 -47.5t34.5 -78.5
q13 -49 96 -301q110 118 140 148q352 364 491 364z" />
    <glyph glyph-name="y" unicode="y" 
d="M1100 1042q38 0 35 -12q-1 -4 -7 -8q-59 -39 -104.5 -149.5t-139.5 -407.5q-2 -8 -3.5 -13t-4 -12.5l-4.5 -13.5q-95 -305 -180 -528q-78 -202 -172 -362.5t-188 -263.5t-196 -171t-195 -96.5t-185 -28.5q-236 0 -369 136q-108 110 -108 263q-1 159 113 283
q146 160 417 186q63 6 130 4q35 -1 42 -30q6 -27 -19 -41q-16 -9 -38 -6q-13 2 -53.5 17t-75.5 15q-191 0 -312 -135q-99 -112 -110 -265q-10 -157 79 -265q106 -127 308 -127q76 0 153.5 23t160 75.5t158 130.5t147.5 195.5t129 263.5q109 279 146 384t63 208h-4
q-17 -33 -42 -69t-65 -79.5t-84 -77t-101 -56.5t-114 -23q-73 0 -121.5 26t-67 69t-18 94t20.5 106q43 116 119.5 302.5t81.5 200.5q25 65 30 113t-12 74.5t-55 27.5q-24 0 -56 -22.5t-60.5 -55.5t-45 -53.5t-23.5 -31.5q-9 -12 -20 -4q-8 6 0 16l7 10q7 9 14 18.5t19 25
t24 29.5t28 30.5t32 30.5t34.5 27.5t36 23t36.5 15t37 5.5q34 0 60 -13.5t44 -44.5t14.5 -91t-32.5 -142q-16 -47 -48.5 -122t-59.5 -138t-55 -136.5t-38.5 -130t-7.5 -104.5t35.5 -74t93.5 -26q107 0 218 115.5t184 296.5q41 96 123 335q90 254 221 254z" />
    <glyph glyph-name="z" unicode="z" horiz-adv-x="931" 
d="M807 874q24 0 43.5 16t46 53t35.5 48q48 57 86 46q27 -8 23 -43q-3 -23 -21 -48q-37 -55 -76.5 -87t-89.5 -63.5t-88 -66.5q-234 -211 -660 -610q76 49 135 68.5t140 19.5q73 0 129 -33t90.5 -86.5t62 -117.5t51.5 -128t50.5 -117.5t66.5 -86.5t93 -33q32 0 65 18
t64.5 51.5t51 58.5t44.5 60q14 20 23.5 12t-3.5 -30q-11 -18 -24 -37t-47.5 -59t-69.5 -69t-85 -52t-99 -23t-90 35t-70 91t-56 123.5t-56 135.5t-62.5 124t-83 91t-109.5 35q-28 0 -56 -9t-47.5 -19t-47 -32.5t-40 -34.5t-41 -41.5t-36.5 -37.5q-52 -50 -99 -42
q-33 6 -32 37q1 28 35 62q24 24 238.5 214.5t411.5 367.5t200 190q-29 13 -89 47.5t-108 51t-110 16.5q-83 0 -162.5 -46t-128.5 -142q-10 -20 -27 -15.5t-6 26.5q1 1 2 3q4 6 19.5 31.5t22.5 37t24.5 37.5t28.5 39.5t30 36.5t34 35.5t36 28.5t40 24.5t41.5 14.5t45.5 6
q48 0 95 -28.5t79 -63t69.5 -63t67.5 -28.5z" />
    <glyph glyph-name="braceleft" unicode="{" horiz-adv-x="1265" 
d="M1497 2361q-60 -41 -116.5 -107.5t-103 -144.5t-92.5 -169t-92.5 -184.5t-96 -187t-108 -180t-124 -160t-149.5 -131t-179 -89.5q58 -11 93.5 -59.5t49.5 -136t-2 -225t-63 -315.5q-45 -171 -62.5 -313t-13.5 -230t28 -165t45.5 -113.5t55.5 -81.5q26 -33 59.5 -56
t57 -36.5t29.5 -24.5q14 -22 -6.5 -36.5t-40.5 4.5q-168 157 -236 329t-68 369q0 115 22 251.5t48 238.5t48 210.5t22 174.5q0 89 -39 147.5t-133 58.5q-9 0 -12.5 4.5t0.5 9.5t12 5q76 0 147 37t118 77.5t113 142.5t95 154.5t100 190.5q60 115 92.5 175.5t97 166.5
t114 166.5t127.5 139t153 122t175 78t210 41.5q37 4 45 -22q6 -21 -15 -33q-9 -5 -22 -5q-5 0 -49 6t-80.5 5.5t-107 -24.5t-146.5 -75z" />
    <glyph glyph-name="bar" unicode="|" horiz-adv-x="681" 
d="M780 2443q36 8 33 -7q-1 -6 -4 -9q-34 -33 -59 -96.5t-50 -180.5q-9 -46 -255 -1458.5t-265 -1518.5q-24 -136 -70.5 -205.5t-99.5 -83.5q-35 -11 -34 5q0 7 4 9q34 34 57 94.5t49 173.5q9 39 118.5 667.5t239 1372t166.5 948.5q24 136 72.5 208t97.5 81z" />
    <glyph glyph-name="braceright" unicode="}" horiz-adv-x="1347" 
d="M12 -641q76 52 147 145.5t128 202t116.5 231t126 241.5t142.5 223.5t179.5 187.5t223.5 123q-58 11 -93.5 59.5t-49.5 135.5t2 224.5t63 315.5q45 171 62.5 312.5t13.5 230t-28 165t-46.5 113.5t-56.5 80q-34 45 -86.5 77t-58.5 42q-12 22 8 37t39 -4
q116 -107 186 -228.5t94.5 -231.5t24.5 -239q0 -115 -21.5 -251.5t-48 -238t-48 -210t-21.5 -174.5q0 -41 8 -75.5t26.5 -65.5t53.5 -48.5t84 -17.5q9 0 12.5 -4.5t-0.5 -9.5t-12 -5q-76 0 -145 -34t-121.5 -84t-110 -136t-98.5 -161t-99 -187q-59 -115 -91.5 -175.5
t-97 -167t-114 -166.5t-127.5 -139t-153.5 -122.5t-175 -78t-209.5 -42.5q-38 -2 -45 22q-7 22 15 33q9 5 21 5q5 0 49.5 -6t80.5 -5t106 25.5t145 75.5z" />
    <glyph glyph-name="asciitilde" unicode="~" horiz-adv-x="1705" 
d="M629 1219q-41 6 -41 55q0 34 36.5 62.5t79.5 41.5t76 13q42 0 73.5 -12.5t47 -27.5t41 -27.5t57.5 -12.5q29 0 53.5 11.5t41.5 27.5t33 32t35 27.5t40 11.5q16 0 28.5 -17t8.5 -42q-10 -49 -67 -82t-117 -33q-42 0 -77 20.5t-69 41t-73 20.5q-34 0 -60 -12.5t-41.5 -30
t-29.5 -34t-33 -26.5t-43 -7z" />
    <glyph glyph-name="exclamdown" unicode="&#xa1;" horiz-adv-x="788" 
d="M475 616q20 1 27 -4t5.5 -9.5t-5.5 -8.5q-74 -52 -135 -264q-62 -210 -117.5 -380t-120 -338t-128.5 -298t-137.5 -248.5t-153 -202t-169.5 -145.5t-192.5 -92.5t-216.5 -30.5q-97 0 -150.5 25.5t-42.5 60.5q7 26 34.5 30t53.5 -9q56 -24 106.5 -37t112.5 -15t119 14.5
t123 58t127.5 108t129.5 172t132 243.5q116 230 379 1104q39 133 97 198t122 68zM541 1030q34 0 59 -24.5t25 -59.5q0 -34 -25 -59t-59 -25q-35 0 -59.5 25t-24.5 59q0 35 24.5 59.5t59.5 24.5z" />
    <glyph glyph-name="cent" unicode="&#xa2;" horiz-adv-x="866" 
d="M879 967q13 -21 -2 -32q-17 -12 -35 12l-4 7q-40 65 -133 78q-43 -151 -140 -492.5t-135 -473.5q104 13 191.5 98t148.5 209q5 11 12 14.5t11 -2.5t0 -18q-15 -46 -49.5 -102.5t-83 -114t-116 -102t-136.5 -58.5q-98 -348 -115 -398q-8 -20 -12 -28t-16.5 -22.5
t-31.5 -28.5q-6 -5 -9.5 -2.5t-0.5 12.5q2 4 131 461q-130 -2 -212.5 81.5t-82.5 245.5q0 94 34 200t94.5 202t135.5 174.5t165 125.5t176 48q21 71 41.5 145.5t29.5 107.5t10 34q15 59 62 75q7 3 7 -4q0 -5 -5 -20q-22 -74 -98 -340q117 -15 168 -92zM655 1034
q-142 -9 -274 -175q-120 -151 -174 -349q-56 -207 -1 -332q49 -108 173 -115q225 792 276 971z" />
    <glyph glyph-name="sterling" unicode="&#xa3;" horiz-adv-x="2516" 
d="M2359 -211q14 -58 -13.5 -119.5t-90 -115t-147 -96.5t-192 -68t-218.5 -25q-109 0 -215 30.5t-184.5 72.5t-170 114t-146 125t-139 138t-124.5 122q-139 -92 -309 -92q-151 0 -222 75q-54 57 -31 122q25 70 125 98q51 14 117 14q156 -3 338 -147q86 88 152.5 232
t146.5 382q-4 2 -22.5 13t-23 14t-21.5 12.5t-24 12.5t-22.5 11t-24.5 11t-23.5 9t-26 8.5t-25.5 5.5t-28 4q-55 5 -104 -5.5t-85 -32t-61 -52t-34 -63.5t-1.5 -69t33.5 -67q20 -23 45.5 -30t53.5 -6.5t38 -2.5q25 -7 22 -29q-3 -23 -29 -28h-18q-89 11 -147 80.5t-45 154.5
q14 84 106 136.5t232 52.5q121 0 258 -72q54 177 107 314t105.5 231t102 159t104 104.5t103.5 59.5t109 31q85 15 154 -9t110 -61q27 -23 22 -48.5t-29 -29.5t-49 17q-4 4 -23 25.5t-31.5 31.5t-35.5 24t-53 18.5t-67 0.5q-43 -5 -83 -24.5t-73 -46.5t-66 -71t-58.5 -85.5
t-53.5 -103t-47.5 -109.5t-44.5 -119.5t-40.5 -119.5t-39 -122.5t-37.5 -115.5q49 -26 87.5 -41t93 -26t119 -6t140.5 26q16 4 23.5 0.5t4 -12t-17.5 -13.5q-108 -38 -199.5 -46t-151.5 5.5t-122 44.5q-144 -421 -350 -594q61 -51 275 -252q74 -68 125.5 -112t123.5 -96.5
t131.5 -82t132 -48.5t142.5 -17q291 10 455 144q105 86 118 187q11 88 -54 135q-86 61 -247 5q-54 -18 -86 -61q-17 -20 -39 -10q-20 9 -9 28q3 5 9 10q15 15 64 37t117 38t134.5 17.5t121.5 -33.5t73 -108zM426 -90q152 0 262 84q-166 149 -287 149q-125 0 -167 -62
q-33 -48 4 -98q46 -64 159 -72q14 -1 29 -1z" />
    <glyph glyph-name="currency" unicode="&#xa4;" horiz-adv-x="1828" 
d="M995 276q-17 -31 -90 -59q0 -21 17 -24q14 -3 30 6.5t25 25.5q2 4 4 4v-8q-8 -18 -33.5 -35t-46.5 -8q-33 19 -14.5 65.5t57.5 67.5q12 6 27 6q18 -2 25 -13t-1 -28zM958 307q-22 -11 -37.5 -35t-15.5 -47q20 6 45.5 24.5t28.5 29.5q7 15 1 24.5t-22 3.5zM967 346
q-12 -6 -17 -6q-6 0 -2 4q15 12 21.5 27.5t-2.5 31.5q-17 25 -68 33q-57 10 -141.5 -2.5t-145.5 -38.5l-55 -162q-14 -45 0 -45q11 0 21 19l4 2q2 0 2 -4q-13 -31 -39 -31q-36 0 -4 76q2 6 19.5 57.5t27.5 81.5q-44 -16 -78 -16q-9 0 -25 4q-12 4 -16 8q-12 9 -16 25
q-5 26 8 49q7 14 22 26q20 14 33 11q3 0 5.5 -2.5t2.5 -4.5q4 -11 -10 -14q-8 0 -12 2q-11 9 -29 -14q-19 -26 -10 -53q0 -5 8 -17q1 -1 5 -4t7 -4q12 -4 27 -4q34 0 82 18q20 55 20 62q5 13 25 20l2 -6l-23 -67q87 27 158 38q88 12 137 3q57 -9 74 -33q10 -19 4.5 -37
t-22.5 -33zM360 -84q46 -4 86 4.5t68.5 23t53.5 40.5t41 50t31.5 59.5t23 59.5t18.5 60v2q-35 -41 -53 -41q-12 0 -18.5 7t-6.5 16q0 12 16.5 52t16.5 48q0 6 -4 6q-7 0 -16 -9t-11 -9t-2 2v2q19 28 35 28q19 0 16 -20q-3 -16 -16.5 -47.5t-13.5 -50.5q0 -11 10 -11
q11 0 24 11.5t21 23.5q4 6 25 60q6 18 12.5 24t17.5 6q4 0 4 -2q-5 0 -39 -98q-34 -102 -51 -136q-90 -183 -291 -169q-81 6 -143 62.5t-59 142.5q5 93 71.5 156t155.5 59q82 -4 118.5 -50t26.5 -98q-4 -17 -11 -34.5t-21.5 -40.5t-34 -39.5t-48.5 -32t-66.5 -17.5t-86.5 4
q-10 3 -6 11q2 4 8 4q2 0 8.5 -5.5t14.5 -6.5q31 -3 62.5 1.5t65.5 20t61 51t40 86.5q7 46 -26 91t-105 49q-82 3 -144.5 -58t-68.5 -149q-6 -82 54 -138t136 -61zM1102 219q51 91 184 86q37 -2 86 -28.5t102 -53t99 -28.5q51 -2 95 32.5t44 89.5q1 27 -12 47t-33 29.5
t-33 13.5t-24 5t-19.5 -2.5t-9.5 -3.5q-6 0 -6 6t6 8q67 3 106 -25.5t39 -75.5q0 -51 -41 -91t-112 -40q-48 0 -101 25.5t-101.5 53t-80.5 30.5q-63 6 -111 -18.5t-63 -57.5q-7 -12 -6.5 -29t14.5 -20q23 -3 49.5 23.5t26.5 56.5q0 26 -17 40.5t-35.5 16.5t-37.5 0
q-29 -4 -54 -27t-26 -63q-1 -25 13.5 -47t31.5 -35.5t29.5 -35t9.5 -44.5q-4 -29 -28.5 -46t-47.5 -21q-24 -3 -41 7.5t-16 35.5q0 37 39 61q20 17 49 17q-21 20 -31.5 31t-21 35.5t-6.5 49.5q7 42 37 63t63 25q35 7 67 -8t31 -55q0 -29 -27 -60t-63 -26q-21 3 -23 23t7 30z
M1024 88q-35 -23 -35 -55q-1 -20 15 -29t36 -4q19 3 36 20.5t18 38.5q0 19 -17 43q-26 3 -53 -14zM1243 96q-3 -5 -6 -9t-8.5 -8.5t-9 -7.5t-10.5 -7t-11 -6t-12.5 -6t-11.5 -5t-12 -5t-11 -5q4 -20 18 -25q14 -3 30 8t26 27q2 4 4 4l-2 -8q-5 -18 -31 -35.5t-47 -9.5
q-33 20 -14.5 67t57.5 66q12 6 27 6q18 -2 25 -13t-1 -28zM1204 127q-21 -12 -36 -36t-15 -46q20 9 45 26.5t29 28.5q7 14 0 24t-23 3zM1333 55q4 10 8.5 20.5t7 15.5t4 10.5t1.5 11.5q0 12 -11 12q-13 0 -28.5 -19t-24.5 -45l-22 -57q0 -2 -2 -4l-21 -4q-2 0 -2 2l41 102
q10 25 -4 25q-4 0 -9 -4.5t-8 -9.5l-3 -5q-3 -2 -5 -2l-2 7q19 28 35 28q8 0 14 -5.5t5 -14.5q-1 -7 -7 -21h3q26 39 47 39q24 0 24 -22q0 -16 -28 -86q-3 -5 -3 -9q0 -10 11 -10q8 0 14 10.5t8 10.5l4 -2v-2q-16 -31 -39 -31q-32 0 -8 59zM1495 115q0 -21 -16 -21
q-5 0 -9 4.5t-4 10.5q0 4 5.5 8.5t5.5 7.5q0 6 -17 6q-10 0 -19 -5t-9 -15q0 -14 22.5 -35.5t22.5 -38.5q0 -8 -2.5 -15.5t-15 -16.5t-32.5 -9q-45 0 -45 29q0 20 17 20q14 0 14 -14q0 -4 -4 -9t-4 -8q0 -4 6 -8t12 -4q33 0 33 29q0 11 -23.5 32t-23.5 35q0 39 55 39
q31 0 31 -22zM1608 96q-4 -7 -11 -13.5t-12 -11t-17 -11t-16 -8.5t-18.5 -8t-15.5 -7q0 -20 16 -25q14 -3 29.5 8t25.5 27q2 4 4 4v-8q-7 -18 -33 -35.5t-47 -9.5q-33 20 -14.5 67t57.5 66q12 6 27 6q18 -2 26 -13t-1 -28zM1571 127q-22 -12 -37.5 -35.5t-15.5 -46.5
q20 8 44.5 26t28.5 29q7 14 1.5 24t-21.5 3zM1690 98q-4 4 -4 11q0 9 6 12h2q4 4 2 6q-3 6 -15 6q-17 0 -24 -16q-18 -28 -6 -107.5t-4 -107.5q-20 -33 -54 -33q-21 0 -32.5 10t-4.5 31q2 10 17 10q4 0 8 -4q3 -4 -2.5 -14.5t-1.5 -16.5t16 -6q18 0 31 23q18 27 6 105t0 99
q16 33 56 33q34 0 28 -30q-2 -7 -9 -11.5t-15 0.5zM731 162q39 120 41 127q2 10 -2 14q-8 2 -22 -12h-5q-3 1 -1 3l1 3q26 22 39 18q14 -4 6 -36q16 24 34 31.5t28 4.5q36 -7 14 -75q-12 -33 -34 -50t-46 -14q-20 3 -20 27q-1 -1 -6.5 -19t-7.5 -22q-12 -34 -23.5 -60.5
t-34 -60t-48.5 -55.5t-66.5 -37.5t-88.5 -16.5q-58 3 -94 34t-35 83q1 50 39 79.5t84 31.5q41 0 75 -24t30 -77q-3 -8 -10 -8q-9 4 -7 10q0 2 3.5 7t3.5 14q-2 26 -28.5 49t-68.5 23q-40 -1 -68 -22.5t-35.5 -52t-1.5 -61.5t36.5 -54t76.5 -25q168 -7 242 223zM842 303
q-2 -2 -8.5 0.5t-20.5 -8t-25 -33.5q-9 -15 -14 -38t4 -36q12 -12 31.5 3.5t32.5 48.5q18 56 0 63zM889 72h-12t-14 6t-7 16q-2 11 7 21.5t22 11.5q15 2 28.5 -5.5t14.5 -23.5q1 -21 -11.5 -34.5t-29 -18.5t-30 -16t-13.5 -29q0 -10 10 -13t16 7q1 5 -0.5 8t-1.5 4q4 4 6 2
q6 0 0 -12q-3 -12 -16 -12q-18 0 -18 18q0 16 12 26.5t27 15.5t27 18.5t12 33.5q0 13 -11 21t-22 6q-17 0 -23.5 -18.5t8.5 -26.5q6 -2 8 -2t5 3t4 3q4 0 4.5 -4t-2.5 -6zM829 59q-2 4 0 7.5t5.5 3.5t5.5 -4q0 -1 1 -3.5t2 -3.5t3 -2t6 0q13 3 17.5 18t-5 28.5t-30.5 13.5
q-9 0 -21 -8t-12 -27q0 -17 19 -37.5t22 -30.5q3 -12 -2 -12q0 19 -23.5 38t-25.5 36q-3 18 8 29.5t30 13.5q18 3 30.5 -5.5t14.5 -23.5q1 -18 -9 -27.5t-20.5 -8t-15.5 4.5z" />
    <glyph glyph-name="yen" unicode="&#xa5;" horiz-adv-x="2240" 
d="M2497 1647q81 -4 83 -38q2 -20 -23 -32q-12 -6 -24 -4q-15 3 -36 15.5t-47.5 18.5t-69.5 1q-59 -9 -170 -53t-236 -128q-363 -246 -708 -725h573q20 0 19 -7l-3 -3q-50 -28 -94 -28h-522q-16 -16 -58 -90.5t-69 -131.5h588q17 0 17 -6q0 -2 -3 -4q-52 -29 -92 -29h-528
q-23 -51 -67 -154t-66 -153q-10 -27 -26.5 -54t-33.5 -32q-2 -1 -63 -22q-9 -2 -15.5 3t0.5 17q33 66 168 395h-571q-9 0 -9 6l3 3q49 28 100 28q240 0 492 2q18 43 86 222h-531q-10 0 -11 5q0 2 3 3q52 28 102 28h449q16 50 29.5 97.5t29 114.5t24.5 127t12 128t-4 124
t-28 108.5t-56 87.5t-92 55.5t-132 18.5q-89 -4 -171 -34.5t-143 -77t-106.5 -106.5t-66.5 -121.5t-17.5 -123.5t35.5 -111q20 -29 39 -44.5t43 -18t40 -0.5t50 10q33 8 47 -15q13 -22 -9 -39q-12 -9 -32 -12q-44 -6 -91 5.5t-89.5 40t-71 84t-31.5 128.5q-2 60 23 125.5
t75 126.5t118 110t160.5 78.5t193.5 30.5q106 1 187 -25.5t141 -91t83.5 -164t5 -255.5t-85.5 -356q38 56 94.5 128.5t140.5 165.5t176.5 183t203 177t219 152t226.5 102.5t223 33.5z" />
    <glyph glyph-name="brokenbar" unicode="&#xa6;" horiz-adv-x="874" 
d="M868 2396q23 5 29 1t5.5 -9t-3.5 -8q-35 -33 -59.5 -97.5t-48.5 -179.5q-9 -38 -29 -157.5t-47 -277t-43 -247.5q-24 -136 -70.5 -205t-99.5 -83q-22 -7 -28.5 -3t-6 10t3.5 9q34 32 57.5 92.5t49.5 173.5q8 38 18 95t38 221t66 376q24 136 72 208t96 81zM561 614
q36 6 33 -8q-1 -5 -4 -8q-35 -35 -59.5 -98t-49.5 -178q-8 -41 -51 -303t-65 -381q-26 -134 -72.5 -203.5t-99.5 -85.5q-23 -6 -29 -2t-5.5 9.5t3.5 8.5q34 33 58 94.5t48 173.5q9 39 18.5 94t38.5 222.5t66 376.5q24 134 72 206t98 82z" />
    <glyph glyph-name="section" unicode="&#xa7;" horiz-adv-x="1343" 
d="M1016 1548q56 1 110.5 -11t106 -38t82 -76.5t28.5 -119.5q-2 -48 -31 -74.5t-66 -26t-64 24.5q-31 26 -24.5 70.5t44.5 66.5q18 9 23.5 29t-6.5 41q-17 32 -69 57.5t-136 24.5q-73 0 -144 -26t-124 -81.5t-58 -128.5q-4 -63 23 -127t73 -119.5t102.5 -110.5t112.5 -109
t102 -106t72.5 -110.5t22.5 -114.5q-11 -141 -127 -241t-293 -119q109 -128 101 -229q-11 -156 -148 -259.5t-336 -103.5q-88 0 -158.5 15t-113.5 39.5t-72.5 56t-41.5 64.5t-14 66t4 59t17 44q20 31 57 41.5t74 -12.5q34 -24 36 -64t-19 -63q-6 -8 -17.5 -17t-19.5 -15.5
t-16 -17t-6.5 -20t8.5 -26.5q27 -46 101 -80.5t187 -34.5q75 0 136.5 16.5t102.5 43.5t70 64.5t43 78.5t17 86q3 52 -23.5 108.5t-72 108t-101 105l-111 107t-101 105.5t-73 109t-24.5 110q4 81 47.5 149.5t107.5 111t137 66t142 23.5q-5 5 -13 14t-28.5 36t-35.5 54t-27 65
t-10 71q4 81 47.5 149.5t108 110.5t137 65.5t141.5 24.5zM1087 444q3 47 -17 96.5t-63.5 101.5t-83 92.5t-102.5 100t-96 93.5q-80 2 -159 -25t-135.5 -84t-61.5 -129q-3 -59 18.5 -117t67 -114.5t88.5 -100.5t107 -104.5t98 -97.5q86 4 151.5 29.5t104.5 66.5t59.5 89
t23.5 103z" />
    <glyph glyph-name="dieresis" unicode="&#xa8;" horiz-adv-x="1705" 
d="M1047 1255q-35 0 -59.5 25t-24.5 59t24.5 59t59.5 25q34 0 58.5 -25t24.5 -59t-24.5 -59t-58.5 -25zM1524 1255q-35 0 -59.5 25t-24.5 59t24.5 59t59.5 25q34 0 59 -25t25 -59t-25 -59t-59 -25z" />
    <glyph glyph-name="copyright" unicode="&#xa9;" horiz-adv-x="1705" 
d="M963 1257q99 0 165 -57.5t66 -157.5q0 -82 -41.5 -163t-106 -140.5t-146.5 -96t-161 -36.5q-107 0 -169 61t-62 160q0 105 67 205.5t173.5 162.5t214.5 62zM737 635q102 0 200.5 56.5t161 150t62.5 194.5q0 88 -54 139.5t-144 51.5q-100 0 -198 -54.5t-162 -148.5
t-64 -197q0 -92 53 -142t145 -50zM920 1124q37 0 61 -18t25 -41t-13 -43q-9 -12 -24.5 -13.5t-24.5 7.5q-12 15 -11 28t9 21q20 15 15 32t-35 17q-64 0 -121 -86q-55 -83 -57 -166q-1 -84 61 -95q7 -1 16 -1q80 0 135 111q3 6 7 4.5t2 -7.5q-13 -43 -59.5 -90t-100.5 -47
q-45 0 -74 30t-29 87q0 89 70.5 179.5t147.5 90.5z" />
    <glyph glyph-name="ordfeminine" unicode="&#xaa;" horiz-adv-x="917" 
d="M768 1325q-33 -102 -33 -136q1 -47 39 -50q52 -2 96 84q3 3 6.5 1.5t2.5 -5.5q-15 -48 -54.5 -85.5t-85.5 -33.5q-33 2 -50 20.5t-17 47.5t5.5 56t16.5 56h-2q-26 -60 -88 -121.5t-125 -58.5q-66 3 -94.5 43t-28.5 98q0 80 50 175t124 161t138 68q14 1 29 -3.5t32.5 -17
t29 -42t11.5 -71.5q25 68 52 94.5t61 28.5q24 0 12 -12q-31 -22 -53.5 -76.5t-73.5 -220.5zM680 1624q-72 1 -152 -103q-78 -101 -101 -214q-25 -123 44 -158q14 -7 31 -10q60 -8 122.5 67t96.5 174q34 92 29 146t-24 76t-46 22z" />
    <glyph glyph-name="guillemotleft" unicode="&#xab;" horiz-adv-x="1613" 
d="M1688 1030q-93 -122 -324 -228t-539 -175q74 -39 139 -79.5t141 -101t127.5 -121t81.5 -136.5t21 -150q-2 -18 -27.5 -28.5t-46.5 -9t-24 4.5q13 76 -19.5 154.5t-89 140t-139.5 124t-150.5 102t-142.5 77.5q-17 8 21 22q18 6 53 15q20 5 83 20.5t94 24t94 26t102.5 32.5
t97.5 38t101 47.5t92 55t90.5 67t77.5 78.5h86zM262 627q74 -39 139 -79.5t141 -101t127.5 -121t81.5 -136.5t21 -150q-2 -18 -27.5 -28.5t-46.5 -9t-24 4.5q13 76 -19.5 154.5t-89 140t-139.5 124t-150.5 102t-142.5 77.5q-17 8 21 22q18 6 53 15q19 5 82.5 20.5t94.5 24
t94 26t102 32.5t97.5 38t101 47.5t91.5 55t90.5 67t77.5 78.5h86q-93 -122 -324 -228t-538 -175z" />
    <glyph glyph-name="logicalnot" unicode="&#xac;" horiz-adv-x="1447" 
d="M991 393l58 203l-752 2l20 68h842l-82 -273h-86z" />
    <glyph glyph-name="uni00AD" unicode="&#xad;" horiz-adv-x="925" 
d="M817 516q25 -35 21.5 -68t-35.5 -40q-24 -7 -46 2.5t-36.5 26t-39 42t-46.5 41.5q-45 31 -111.5 45.5t-129 12.5t-118.5 -8.5t-90 -14.5l-34 -8q-39 -13 -39 12q0 16 61 33t153.5 25t190 5.5t182 -29.5t117.5 -77z" />
    <glyph glyph-name="registered" unicode="&#xae;" horiz-adv-x="1292" 
d="M852 1257q99 0 165 -57.5t66 -157.5q0 -111 -69 -213t-174 -162.5t-211 -60.5q-107 0 -169.5 61.5t-62.5 159.5q0 105 67 205.5t173.5 162.5t214.5 62zM905 748q67 58 106.5 132.5t39.5 153.5q0 89 -54 140t-143 51q-100 0 -198 -54t-162 -147.5t-64 -196.5
q0 -92 53.5 -142t145.5 -50q129 0 254 94q-42 -11 -66.5 -3t-45 31t-33.5 47t-33 44.5t-43 23.5q-9 -28 -18 -54l-13.5 -39t-5.5 -17q-8 -15 -17 -19q-20 -10 -30 -10q-3 -2 -5.5 0t-1.5 6q3 10 14 43l33.5 100.5t43.5 131.5q12 35 7.5 56.5t-24.5 21.5q-26 0 -63 -43
q-5 -5 -9 2q-2 2 0 4q44 61 95 61q45 0 45 -53h4q35 39 83 49t80.5 -12.5t26.5 -69.5q-7 -59 -67.5 -99t-130.5 -40q18 -7 34 -28t29.5 -43t29.5 -42t42.5 -29t60.5 -1zM698 991q-1 -2 -5.5 -18t-11 -37t-9.5 -31q148 -12 188 96q23 67 -16 90q-35 21 -82 -9
q-45 -30 -64 -91z" />
    <glyph glyph-name="macron" unicode="&#xaf;" horiz-adv-x="1308" 
d="M571 1274q0 11 10.5 14.5t20.5 1.5l10 -2q8 -3 22 -8t56.5 -13.5t83.5 -9.5t95.5 13t99.5 45q22 16 46 41.5t39 42.5t37 27t46 4q32 -9 35.5 -42.5t-21.5 -68.5q-34 -50 -105.5 -77.5t-150.5 -30t-153.5 5t-122.5 24.5t-48 33z" />
    <glyph glyph-name="degree" unicode="&#xb0;" horiz-adv-x="1118" 
d="M856 1286q-12 -69 -57 -115.5t-101.5 -66t-122.5 -21.5q-47 -1 -83 15t-53 43t-23 60.5t6 66.5q25 83 77.5 126.5t139.5 61.5q98 20 163.5 -33.5t53.5 -136.5zM698 1430q-58 14 -106.5 -25.5t-75.5 -110.5q-24 -60 -6.5 -112.5t70.5 -65.5q58 -13 107.5 27t70.5 110
q22 63 6.5 113.5t-66.5 63.5z" />
    <glyph glyph-name="plusminus" unicode="&#xb1;" horiz-adv-x="1193" 
d="M698 655l279 2l-27 -71l-276 2l-103 -283h-84l103 283h-283l25 67h282l91 248h83zM70 23l24 69h844l-27 -69h-841z" />
    <glyph glyph-name="twosuperior" unicode="&#xb2;" horiz-adv-x="874" 
d="M381 705q36 16 67 16.5t53 -9.5t42 -25.5t38 -31t36.5 -25.5t42.5 -9.5t51 16.5q9 6 13.5 1t-7.5 -11q-48 -26 -87 -30t-65 8.5t-49 31t-45 33.5t-47 20t-60.5 -12.5t-80.5 -61.5q-24 -24 -44 -15q-16 8 -4 27l11 11q8 6 67.5 48t115.5 82.5t119.5 88.5t94.5 76
q56 50 80.5 106.5t17.5 99.5t-44 69t-95 20q-54 -5 -97.5 -37t-63 -73.5t-23 -87t21.5 -77.5q12 -17 26.5 -18t20.5 14q10 24 29 27q27 4 33 -21.5t-19 -33.5q-99 -30 -145 30q-40 51 -16 128q28 88 119 136q49 25 110 33q82 9 146 -23.5t63 -111.5q-2 -40 -19 -73
t-58 -69.5t-83 -67.5t-121 -88.5t-145 -110.5z" />
    <glyph glyph-name="threesuperior" unicode="&#xb3;" horiz-adv-x="811" 
d="M457 592q-122 0 -157 65q-24 45 7 87q28 40 80 38q20 -1 29.5 -11.5t4.5 -21.5t-20 -14q-18 -4 -28 6q-15 15 -31 -9q-21 -31 -6 -66q24 -51 115 -54q105 -3 166 77q49 64 37 133.5t-81 88.5q-40 11 -94 2q-12 -3 -13 3q-1 8 13 10q16 2 48.5 15t72.5 35.5t71.5 60.5
t37.5 81q10 72 -51 101q-58 27 -125 -2q-72 -32 -93 -107q-12 -49 9 -78q11 -15 23 -17.5t17 9.5q5 11 27 18q18 2 27 -7.5t6.5 -21t-12.5 -16.5q-49 -25 -101 3.5t-49 91.5q3 64 68 110t159 47q68 2 112 -31t40 -92q-3 -57 -56 -105t-143 -81q52 4 103.5 -39t40.5 -117
q-11 -85 -88 -138.5t-166 -53.5z" />
    <glyph glyph-name="acute" unicode="&#xb4;" horiz-adv-x="641" 
d="M291 1241q61 37 92 73.5t34.5 69.5t-2 61t-14 61t-6.5 55q5 46 32 62.5t56 14.5q22 0 50.5 -19t29.5 -56q1 -56 -27 -113t-70.5 -101.5t-83.5 -76.5t-77 -51q-17 -10 -22.5 1t8.5 19z" />
    <glyph glyph-name="mu" unicode="&#xb5;" horiz-adv-x="1226" 
d="M221 29q-133 -383 -135 -389q-49 -140 -113 -251t-126.5 -177.5t-129.5 -111t-119.5 -62t-99.5 -19.5q-109 -3 -215 40q-102 42 -104 95q-1 25 22 49q8 9 20 15t30.5 3.5t35.5 -16.5q12 -11 25.5 -33t26 -41t31.5 -37.5t52 -29.5t78 -12q86 -2 175.5 72t159 187.5
t120.5 250.5q116 307 418 1216q73 218 -35 221q-24 0 -56 -22.5t-60.5 -55.5t-44 -53.5t-23.5 -31.5q-8 -12 -20 -5q-9 6 -1 17l7 10q7 9 14 18.5t19 25t24 29.5t28 30.5t32 30.5t34.5 27.5t36 23t36.5 15t37 5.5q35 0 61 -13.5t44 -44.5t14 -90.5t-33 -142.5
q-6 -17 -23 -61.5t-33 -86.5t-36.5 -99.5t-35 -109t-27.5 -107t-16 -100t2 -82t25 -59.5t54 -26q74 -8 152.5 46.5t144.5 149.5t115 216q41 96 123 335q88 247 221 254q35 2 32 -12q-1 -6 -5 -8q-59 -42 -104 -154t-150 -442q-4 -12 -11 -36q-11 -34 -16.5 -52.5
t-14.5 -52.5t-12 -54.5t-6.5 -49t1 -45.5t12 -34.5t23 -27t38.5 -11.5q53 -4 101.5 44.5t84.5 117.5q5 8 12 5t3 -13q-29 -92 -105 -163.5t-166 -67.5q-55 3 -87 32t-38.5 74.5t0 95.5t25.5 103h-4q-18 -33 -42.5 -69.5t-65 -80.5t-84.5 -77.5t-102 -56t-116 -21.5
q-85 3 -135 43z" />
    <glyph glyph-name="mu" unicode="&#x3bc;" horiz-adv-x="1226" 
d="M221 29q-133 -383 -135 -389q-49 -140 -113 -251t-126.5 -177.5t-129.5 -111t-119.5 -62t-99.5 -19.5q-109 -3 -215 40q-102 42 -104 95q-1 25 22 49q8 9 20 15t30.5 3.5t35.5 -16.5q12 -11 25.5 -33t26 -41t31.5 -37.5t52 -29.5t78 -12q86 -2 175.5 72t159 187.5
t120.5 250.5q116 307 418 1216q73 218 -35 221q-24 0 -56 -22.5t-60.5 -55.5t-44 -53.5t-23.5 -31.5q-8 -12 -20 -5q-9 6 -1 17l7 10q7 9 14 18.5t19 25t24 29.5t28 30.5t32 30.5t34.5 27.5t36 23t36.5 15t37 5.5q35 0 61 -13.5t44 -44.5t14 -90.5t-33 -142.5
q-6 -17 -23 -61.5t-33 -86.5t-36.5 -99.5t-35 -109t-27.5 -107t-16 -100t2 -82t25 -59.5t54 -26q74 -8 152.5 46.5t144.5 149.5t115 216q41 96 123 335q88 247 221 254q35 2 32 -12q-1 -6 -5 -8q-59 -42 -104 -154t-150 -442q-4 -12 -11 -36q-11 -34 -16.5 -52.5
t-14.5 -52.5t-12 -54.5t-6.5 -49t1 -45.5t12 -34.5t23 -27t38.5 -11.5q53 -4 101.5 44.5t84.5 117.5q5 8 12 5t3 -13q-29 -92 -105 -163.5t-166 -67.5q-55 3 -87 32t-38.5 74.5t0 95.5t25.5 103h-4q-18 -33 -42.5 -69.5t-65 -80.5t-84.5 -77.5t-102 -56t-116 -21.5
q-85 3 -135 43z" />
    <glyph glyph-name="paragraph" unicode="&#xb6;" horiz-adv-x="1828" 
d="M958 229q4 0 0 -8q-7 -15 -27 -31t-38 -16q-39 2 -35 45t40 76q24 22 50 22q18 0 27 -12t0 -29q-3 -5 -6.5 -9t-9 -8.5t-9.5 -7.5t-11 -7t-11 -6l-12 -6t-11.5 -5.5t-12.5 -5t-11 -4.5q3 -20 18 -24q13 -4 29 5.5t24 24.5q3 6 6 6zM948 309q-23 1 -44 -30.5t-21 -53.5
q73 28 77 64q0 17 -12 20zM1079 219q32 54 86 74q-12 12 -36.5 16t-38.5 0q-29 -4 -54 -26.5t-26 -61.5q-1 -26 13.5 -48.5t31.5 -36.5t29.5 -35.5t9.5 -45.5q-6 -30 -34 -48.5t-56 -18.5q-19 0 -33 11.5t-13 31.5q1 35 33 58.5t56 21.5q-20 19 -31 31t-21 36.5t-6 50.5
q5 42 35 63t63 25q63 8 89 -22q56 20 111.5 7t91 -36.5t84.5 -46.5t93 -24q52 -2 96 33t44 91q1 27 -12 47t-33.5 29.5t-34.5 13.5t-25 5q-10 1 -18 -2.5t-10 -3.5q-7 0 -7 6t7 8q68 3 107.5 -25.5t39.5 -74.5q0 -51 -41.5 -92.5t-114.5 -41.5q-43 0 -93 23t-86.5 46.5
t-90.5 36.5t-104 -7q8 -11 8 -33q0 -52 -47 -77q-37 -19 -59 -4q-19 14 -3 46zM1071 59q3 22 -16 41q-33 7 -60.5 -18t-27.5 -51q0 -16 12.5 -25.5t28.5 -9.5q25 0 43 19.5t20 43.5zM1171 285q-54 -19 -77 -64q-20 -39 6 -45q25 -6 54 20q26 25 26 58q0 19 -9 31zM1229 111
q-5 -40 -99 -74q0 -22 17 -25q32 -8 57 33q1 3 4 4v-8q-7 -15 -27.5 -31.5t-37.5 -15.5q-41 3 -35 48q6 43 43 75q23 21 47 20q12 0 21.5 -8t9.5 -18zM1198 129q-25 0 -46.5 -34t-21.5 -50q64 20 78 58q4 22 -10 26zM1354 27q3 5 6 2q1 -1 0 -4q-4 -11 -14.5 -21t-22.5 -10
h-4t-6.5 2.5t-6.5 7t-1.5 14t4.5 23.5q7 21 18 43q17 39 -2 39q-15 0 -30.5 -18t-24.5 -44q-7 -21 -14.5 -39t-8.5 -20q0 -2 -2 -2q-12 -6 -18 -6q-4 0 -2 2q0 1 7.5 20.5t17.5 46.5t14 37q10 25 -2 25q-10 0 -23 -19q-4 -6 -6 0q-1 2 0 3q25 32 41 28q17 -4 8 -39l8 10
q8 11 12 15t12.5 9t16.5 5q32 0 19 -47q-5 -13 -13.5 -36t-9.5 -25q-8 -21 6 -21q8 0 21 19zM1446 137q31 0 31 -22q0 -23 -17 -23q-12 0 -12 14q0 6 5 11t5 6q0 8 -16 8q-11 0 -20 -5t-9 -15q0 -15 22.5 -36.5t22.5 -39.5q0 -5 -1.5 -10.5t-6 -13t-15 -12.5t-26.5 -5
q-45 0 -45 29q0 22 16 22q7 0 11.5 -3.5t3.5 -10.5q-1 -5 -6 -9.5t-5 -7.5q0 -12 21 -12q33 0 33 29q0 11 -23.5 32.5t-23.5 34.5q0 39 55 39zM1509 -6q-42 4 -34 50q8 44 46 75q24 18 46 18q18 0 25.5 -12t-1.5 -29q-16 -30 -92 -59q0 -22 17 -25q16 -4 31.5 6t23.5 27
q4 4 6 4q1 -1 0.5 -2.5t-2.5 -5.5q-8 -15 -28 -31.5t-38 -15.5zM1565 129q-17 2 -39.5 -24t-26.5 -60q55 16 76 53q5 9 2 20t-12 11zM1669 139q5 0 11 -1t13.5 -8.5t4.5 -20.5q-1 -9 -9 -12.5t-14 -0.5t-6 15q0 5 5.5 9t4.5 7q-4 4 -14 4q-25 0 -35 -39q-5 -23 1 -65.5
t9 -69t-10 -57.5q-20 -33 -55 -33q-20 0 -32 10t-5 31q3 13 16 10q16 -3 9 -16q-6 -19 -3 -23q6 -4 17 -4q16 0 31 23q17 20 6 97.5t-6 96.5q12 47 61 47zM719 297q22 22 39 18q18 -5 6 -34h2q15 23 32.5 30.5t28.5 5.5q7 -1 12.5 -7t9.5 -23t-7 -45q-12 -34 -35 -52.5
t-47 -13.5q-8 2 -14.5 9.5t-6.5 17.5q-1 -2 -2 -7t-4 -14.5t-6 -19.5q-16 -43 -31 -73.5t-43 -68.5t-69.5 -60.5t-94.5 -27.5q-65 -32 -157 -26q-83 6 -145.5 63t-59.5 144q5 93 72.5 157t156.5 60q67 -4 104 -36t44 -75q3 12 10 33q0 1 19 54t30 85q-44 -16 -78 -16
q-30 0 -45.5 14t-14 27t0.5 18q2 20 20 42.5t46 21.5q10 0 6 -13q-1 -6 -9 -7.5t-12 1.5q-15 9 -27.5 -9.5t-15.5 -33.5q1 -6 -0.5 -18t11.5 -23.5t40 -11.5q35 0 80 18q5 13 11 29l9 24t3 9q1 5 9.5 11.5t14.5 8.5q3 1 3.5 -1.5t-1.5 -4.5l-22 -69q84 30 160 41
q89 12 143 0.5t70 -31.5q21 -32 -21 -70q-12 -6 -16 -6q-6 0 -2 4q16 12 22 27.5t-4 32.5q-36 51 -192 32q-98 -13 -164 -41q-44 -123 -58 -164q-14 -45 0 -45t23 19q2 5 6 1q1 -1 0 -3q-5 -11 -16.5 -21t-22.5 -10t-18 10q0 -10 -8 -30q32 -9 52.5 -32.5t14.5 -62.5
q-1 -12 -11.5 -9.5t-4.5 11.5q6 12 6 19q0 20 -15.5 39t-43.5 28q-17 -43 -52 -79t-92 -48q8 -36 41.5 -60t91.5 -23q38 19 67.5 50t50.5 73t32.5 74t25.5 79q-33 -39 -55 -39q-34 0 -18 47q3 9 12 30t12 30q6 20 -2 24q-8 0 -20 -18q-6 -4 -7 0q0 1 1 2q17 28 34 28
q28 0 13 -45q-3 -9 -11.5 -27.5t-11.5 -27.5q-9 -29 6 -29q16 0 37 24.5t33 70.5q7 32 31 32q4 0 4 -4q-5 -3 -13 -18l-26 -78q-1 -4 -11 -35t-14.5 -43t-16 -41.5t-22.5 -46.5t-27.5 -40t-36.5 -40t-44 -30q140 21 203 223q7 14 41 127q5 15 -4 16q-7 0 -21 -14
q-4 -4 -6 -2t-1.5 4t2.5 3zM348 29q93 25 131 123q-68 10 -104 -32t-27 -91zM334 -86q76 -6 133 16q-48 2 -84.5 25.5t-46.5 62.5q-46 -10 -105 2q-3 0 -5 3t-1 6q4 8 11 4q1 0 7 -4.5t13 -5.5q40 -6 80 2q-10 66 36.5 103.5t108.5 29.5q23 59 -12.5 109.5t-112.5 54.5
q-81 4 -145 -57.5t-70 -149.5q-4 -56 26 -102.5t74.5 -71t92.5 -27.5zM754 188q12 -12 31.5 4t31.5 50q18 55 0 61q-28 10 -53 -41q-8 -16 -12.5 -37.5t2.5 -36.5zM862 127q15 2 28.5 -6t14.5 -25q2 -21 -10.5 -34.5t-29.5 -18t-31 -15.5t-15 -28q0 -11 11.5 -14t17.5 8
q1 3 -0.5 6t-1.5 4q0 4 6 4q4 -4 0 -14q-3 -5 -16 -12q-21 0 -21 18q0 20 -23.5 39t-25.5 37q-3 36 39 43q21 3 33 -6q12 11 24 14zM817 14q5 13 25.5 22.5t36.5 22t16 35.5q0 14 -11 22.5t-22 6.5q-14 -3 -20 -12q11 -16 8 -35q5 -2 9 1t5 3q4 2 4 -4q0 -3 -2 -4
q-5 -3 -16 0q-4 -15 -21.5 -18t-21.5 3q-3 4 -1 7.5t5.5 3.5t5.5 -2q0 -1 1 -3.5t2 -3.5t3 -2t6 0q8 2 17 15q-15 8 -15 22q0 5 5 15q-9 6 -25 6q-7 0 -13.5 -2t-13 -10t-6.5 -21q0 -19 18.5 -39t20.5 -29zM846 76q4 19 -8 28q-7 -19 8 -28z" />
    <glyph glyph-name="periodcentered" unicode="&#xb7;" horiz-adv-x="712" 
d="M408 524q-34 0 -59 25t-25 59t25 59t59 25q35 0 59.5 -25t24.5 -59t-24.5 -59t-59.5 -25z" />
    <glyph glyph-name="cedilla" unicode="&#xb8;" horiz-adv-x="915" 
d="M770 -240q0 -96 -62 -163.5t-139 -67.5q-50 0 -90.5 24.5t-60 59.5t-16 76.5t33.5 72.5l17 -16q-43 -44 -16.5 -92.5t87.5 -48.5q49 0 85.5 19.5t56.5 48.5t34.5 70t21 78t16 78.5t18.5 65.5h24q-10 -27 -10 -205z" />
    <glyph glyph-name="onesuperior" unicode="&#xb9;" horiz-adv-x="866" 
d="M975 1278q21 2 28.5 -3t5.5 -10.5t-5 -7.5q-43 -29 -77.5 -92t-74.5 -182q-13 -41 -149.5 -437.5t-170.5 -484.5q-11 -28 -36 -38q-83 -33 -90 -35q-6 -2 -12 3t-3 11q205 569 299 842q-66 -127 -198.5 -258.5t-276.5 -221.5t-248 -106q-11 -2 -15 2.5t-0.5 11t11.5 9.5
q110 35 221 108t199.5 160t169.5 189t137 192t96 172q84 172 189 176z" />
    <glyph glyph-name="ordmasculine" unicode="&#xba;" horiz-adv-x="1351" 
d="M1096 1432q-12 -69 -57 -115.5t-101.5 -66t-122.5 -21.5q-93 -3 -134 55t-19 129q25 84 77.5 127.5t139.5 61.5q98 20 163.5 -33.5t53.5 -136.5zM938 1575q-59 14 -107.5 -25t-74.5 -110q-24 -60 -7 -112.5t70 -65.5q58 -13 107.5 27t70.5 110q22 63 7 113t-66 63z" />
    <glyph glyph-name="guillemotright" unicode="&#xbb;" horiz-adv-x="1708" 
d="M1032 649q9 -3 -15 -16q-16 -7 -71 -32q-268 -117 -421 -223q-234 -161 -306 -343q-6 -17 -32.5 -25t-49 -7.5t-20.5 5.5q182 352 803 606q-57 13 -117 36t-123.5 60.5t-110.5 82.5t-72.5 107t-15.5 130h99q-2 -54 17 -101.5t57 -84.5t79.5 -66.5t99.5 -54.5t100.5 -41
t98.5 -33zM1645 649q10 -3 -16 -16q-15 -8 -71 -32q-269 -118 -421 -223q-234 -162 -306 -343q-5 -17 -31 -25t-48.5 -7.5t-20.5 5.5q179 349 801 606q-57 13 -116.5 36t-123 60.5t-110.5 82.5t-72.5 107t-15.5 130h100q-2 -54 17 -101.5t57 -84.5t79.5 -66.5t99 -54.5
t100.5 -41t98 -33z" />
    <glyph glyph-name="onequarter" unicode="&#xbc;" horiz-adv-x="2177" 
d="M1855 1729q-77 -124 -408 -653t-582.5 -932.5t-268.5 -436.5q-51 -90 -72 -146t-18 -98q0 -4 -2.5 -8.5t-10.5 -2.5t-18 18q-17 27 -20 65t16.5 99.5t63.5 134.5q48 79 641.5 1026t615.5 985q54 93 75 151t17 103q0 10 9 10q9 -3 22 -19q17 -23 20 -61t-16.5 -100
t-63.5 -135zM764 1159q-82 -157 -269 -306.5t-319 -170.5q-9 -1 -13 2.5t-1 8.5t10 7q89 29 180 90t163 133t138.5 156t111.5 155.5t77 135.5q70 139 155 143q28 2 26 -9q-1 -5 -5 -7q-63 -46 -123 -223q-12 -38 -122 -359.5t-138 -392.5q-9 -20 -29 -30q-26 -13 -74 -29
q-5 -2 -9 2t-3 10q36 100 244 684zM2013 1014q17 1 22.5 -3t4 -8t-3.5 -6q-66 -46 -123 -223q-57 -178 -203 -588q42 -3 73.5 2t51 19.5t26 22t17.5 22.5q20 25 38 12q14 -11 5 -25q-2 -3 -6 -6q-94 -72 -215 -79q-13 -32 -29 -76.5t-20 -54.5q-12 -27 -29 -31
q-26 -13 -74 -29q-5 -2 -9 2t-3 8q6 17 29 80.5t39 106.5q-29 3 -97 13.5t-106.5 14t-95.5 -1.5t-105 -24q-9 -3 -14.5 2t-4 13t10.5 13q158 87 384.5 324t287.5 369q29 63 69 96t80 35zM1286 207q28 8 60 11.5t52.5 5t60.5 -2.5l50 -5t57.5 -9t49.5 -8q13 36 196 553
q-64 -108 -231.5 -282.5t-294.5 -262.5z" />
    <glyph glyph-name="onehalf" unicode="&#xbd;" horiz-adv-x="2304" 
d="M1800 1729q-98 -159 -412 -661.5t-571.5 -915.5t-275.5 -445q-51 -90 -71.5 -146t-16.5 -98q0 -4 -2.5 -8.5t-10.5 -2.5t-18 18q-17 27 -20 65t15 99.5t62 134.5q41 68 351 561.5t600 956t307 493.5q53 92 75 150.5t19 103.5q0 10 8 10q8 -1 23 -19q17 -23 19.5 -61
t-17.5 -100t-64 -135zM762 1159q-82 -157 -269 -306.5t-319 -170.5q-9 -1 -13 2.5t-1 8.5t10 7q89 29 180.5 90.5t164.5 134.5t139.5 157t111 155.5t74.5 132.5q68 139 155 143q29 2 26 -10q-1 -4 -3 -6q-35 -24 -62.5 -75t-60.5 -148q-3 -7 -61 -176.5t-120 -348.5
t-81 -227q-9 -20 -29 -30q-26 -13 -74 -29q-5 -2 -9 2t-3 10q36 100 244 684zM1827 1022q61 7 119.5 -1t110 -31.5t82 -71t28.5 -113.5q-2 -55 -25 -104.5t-59 -90t-102.5 -94t-131.5 -99.5t-173 -125.5t-201 -154.5q59 26 109.5 27.5t86 -15.5t68 -41.5t61.5 -49t59 -41.5
t69 -15.5t83 27.5q10 5 17.5 3.5t7 -8.5t-12.5 -14q-78 -42 -142 -48.5t-106 14t-79.5 50t-72.5 54.5t-76 33t-99 -20.5t-131 -100.5q-38 -37 -70 -24q-24 10 -15 34q5 15 23 29q8 6 156 110.5t287 208t203 162.5q90 81 130.5 172.5t29 161t-71 111.5t-154.5 32
q-70 -7 -130 -41.5t-97 -85t-57 -107.5t-14.5 -113t34.5 -97q21 -28 44 -30.5t34 24.5q17 38 45 43q29 5 45 -15t9.5 -45t-32.5 -33q-145 -44 -221 35q-63 63 -49 172q15 121 115 211q105 95 266 115z" />
    <glyph glyph-name="threequarters" unicode="&#xbe;" horiz-adv-x="2197" 
d="M1862 1729l-410 -656t-578.5 -926.5t-271.5 -439.5q-51 -90 -72 -146t-18 -98q0 -4 -2.5 -8.5t-10.5 -2.5t-18 18q-17 27 -20 65t16.5 99.5t63.5 134.5q48 79 641.5 1026t615.5 985q54 93 75 151t17 103q0 10 9 10q9 -3 22 -19q18 -23 21 -61t-16.5 -100t-63.5 -135z
M2019 1014q17 1 22.5 -3t4 -8t-3.5 -6q-35 -24 -62.5 -75t-60.5 -148q-57 -178 -203 -588q42 -3 73.5 2t51 19.5t26 22t17.5 22.5q20 25 38 12q14 -11 5 -25q-2 -3 -6 -6q-91 -72 -215 -79q-13 -32 -29 -76.5t-20 -54.5q-9 -26 -29 -31q-26 -13 -74 -29q-5 -2 -9 2t-3 8
q6 17 29 80.5t39 106.5q-30 3 -97 13.5t-105.5 14t-95.5 -1.5t-106 -24q-9 -3 -14.5 2t-4 13t10.5 13q158 87 373.5 308.5t298.5 384.5q68 128 149 131zM1292 207q28 8 60 11.5t53 5t60 -2.5t51 -5.5t57.5 -8.5t50.5 -8q39 110 115.5 328t79.5 225q-54 -93 -229 -276.5
t-298 -268.5zM883 768q-13 -94 -80 -168.5t-157 -111.5t-183 -37q-184 0 -250 91q-45 62 -16 132q26 62 93 83q27 9 58 7q33 -1 48 -18.5t7.5 -36t-32.5 -23.5q-30 -7 -49 12q-22 22 -47 -9q-29 -37 -21 -90q12 -75 103 -103q42 -14 98 -15q155 -4 255 105q79 86 84 194
q5 110 -72 167q-80 60 -222 34q-23 -3 -22 7.5t22 12.5q20 3 58 16.5t91.5 41.5t101 64t85 89t45.5 111q14 107 -69 158q-75 45 -176 20q-111 -27 -169 -120q-20 -33 -31 -70q-22 -78 15 -133q18 -24 37.5 -28.5t27.5 15.5q11 25 45 31q29 4 43.5 -11.5t10.5 -35t-21 -27.5
q-30 -15 -65 -17.5t-67.5 8t-59.5 31.5t-42.5 55.5t-13.5 76.5q5 107 113 184t264 80q113 2 185.5 -52t68.5 -151q-4 -94 -93 -174.5t-239 -136.5q38 2 81.5 -13t83 -45t61.5 -83t12 -117z" />
    <glyph glyph-name="questiondown" unicode="&#xbf;" horiz-adv-x="1658" 
d="M1022 514q-35 2 -16 20q26 24 84 33q70 12 94 -24q29 -34 16 -70t-44.5 -67.5t-93.5 -68t-132.5 -71.5t-161.5 -78q-123 -57 -189.5 -90t-188.5 -99.5t-195.5 -118.5t-169 -132.5t-152 -157.5t-102 -177.5t-58.5 -207.5q-14 -114 9 -212.5t74 -167.5t123 -118t156 -72
t173 -21q293 6 488 188.5t253 482.5q44 227 -68 373q-76 100 -192 123q-109 23 -183 -35q-55 -43 -67 -121q-9 -59 -59 -78q-43 -16 -72 10q-33 29 -8 87q50 116 184 165q137 50 283 4q159 -49 239 -189q89 -157 46 -388q-34 -185 -158 -334.5t-308 -235.5t-393 -91
q-103 -2 -201 20.5t-182 71t-146 116.5t-93 162t-23 201q10 125 57.5 238.5t117 201.5t167.5 171t195.5 143.5t215 122.5t213.5 105t203 94t171 87q110 62 147 125q34 60 -27 76q-11 3 -26 4zM1182 1016q35 0 60.5 -24.5t25.5 -59.5q0 -34 -25.5 -59t-60.5 -25q-34 0 -59 25
t-25 59q0 35 25 59.5t59 24.5z" />
    <glyph glyph-name="Agrave" unicode="&#xc0;" horiz-adv-x="3186" 
d="M4262 2415q87 0 136.5 -26.5t37.5 -61.5q-10 -24 -38 -28.5t-52 7.5q-42 21 -79.5 34t-82.5 21t-87 5.5t-91 -17.5t-97 -44t-102.5 -76t-109 -111.5t-115.5 -153.5t-123 -199q-92 -163 -252 -570t-291 -771q-55 -153 -66 -210q-26 -143 66 -148q96 -7 195 159q4 10 11 4
q5 -4 3 -12q-22 -59 -61.5 -111.5t-98 -88t-118.5 -31.5q-42 2 -70 20.5t-40 43.5t-13.5 60.5t3 66.5t14.5 67t17 55.5t15 38.5q18 50 28.5 85.5t17.5 72t5.5 67t-12.5 55.5q-92 221 -234 386q-273 -357 -385 -490q-278 -330 -516 -484q-288 -186 -604 -186q-189 0 -349 53
t-270.5 142.5t-184.5 210t-101.5 254t-11.5 276.5t74.5 275t168.5 251.5t260 204.5q45 26 69 -1q19 -20 3 -44q-7 -11 -22 -18q-13 -7 -42.5 -9.5t-69.5 -24t-99 -79.5q-76 -74 -130 -178t-81 -219.5t-25.5 -239.5t30 -241t93.5 -222t157.5 -183.5t228.5 -124.5t300 -46
q124 0 247.5 35.5t229 90.5t220.5 149t204.5 182t200 220t187.5 232t186 248q-184 194 -437 297t-522 103q-343 0 -567 -195q-168 -146 -222 -357q-52 -201 21 -370q72 -169 242 -236q95 -38 213 -38q84 0 133 28t66 60q18 32 52 23q26 -7 29 -31q3 -19 -16 -39
q-31 -31 -99.5 -51.5t-166.5 -20.5q-269 0 -414 169q-120 141 -117 351q3 216 133 404q149 216 406 307q157 55 340 55q594 0 981 -383q115 163 266 339.5t319.5 345t349 308t331.5 209.5q-88 -29 -228.5 -33t-270.5 7.5t-305.5 25t-291.5 13.5q-279 0 -431 -154
q-113 -113 -120 -269q-7 -144 79 -246q98 -116 267 -116q73 0 129 18t88.5 45t54 65t29.5 71.5t10 71.5q2 37 27.5 51t48 -2t17.5 -52q-4 -26 -18 -59.5t-45.5 -78t-74.5 -80t-112.5 -60.5t-151.5 -25q-198 0 -306 131q-92 111 -82 267q10 164 127 287q153 162 423 175
q21 1 43 1q113 0 403.5 -26t446.5 -26q90 0 177 15t146 33.5t144 33.5t172 15zM2900 698q100 276 184 480.5t180.5 397t201.5 342.5t224 267q-231 -154 -519.5 -462.5t-534.5 -643.5q157 -166 264 -381zM4225 3082q-61 -37 -92 -73.5t-34.5 -69.5t2.5 -61t14.5 -60.5
t5.5 -54.5q-5 -46 -31.5 -63t-56.5 -15q-22 0 -50 19.5t-28 56.5q-1 56 26.5 113t70 101.5t83 76.5t76.5 51q12 5 18.5 2t5.5 -10.5t-10 -12.5z" />
    <glyph glyph-name="Aacute" unicode="&#xc1;" horiz-adv-x="3186" 
d="M4088 2707q61 37 92 73.5t34.5 69.5t-2 61t-14 61t-6.5 55q5 46 32 63t56 15q22 0 50.5 -19.5t29.5 -56.5q1 -56 -27 -113t-70.5 -101.5t-83.5 -76.5t-77 -51q-17 -10 -22.5 1t8.5 19zM4262 2415q87 0 136.5 -26.5t37.5 -61.5q-10 -24 -38 -28.5t-52 7.5q-42 21 -79.5 34
t-82.5 21t-87 5.5t-91 -17.5t-97 -44t-102.5 -76t-109 -111.5t-115.5 -153.5t-123 -199q-92 -163 -252 -570t-291 -771q-55 -153 -66 -210q-26 -143 66 -148q96 -7 195 159q4 10 11 4q5 -4 3 -12q-22 -59 -61.5 -111.5t-98 -88t-118.5 -31.5q-42 2 -70 20.5t-40 43.5
t-13.5 60.5t3 66.5t14.5 67t17 55.5t15 38.5q18 50 28.5 85.5t17.5 72t5.5 67t-12.5 55.5q-92 221 -234 386q-273 -357 -385 -490q-278 -330 -516 -484q-288 -186 -604 -186q-189 0 -349 53t-270.5 142.5t-184.5 210t-101.5 254t-11.5 276.5t74.5 275t168.5 251.5t260 204.5
q45 26 69 -1q19 -20 3 -44q-7 -11 -22 -18q-13 -7 -42.5 -9.5t-69.5 -24t-99 -79.5q-76 -74 -130 -178t-81 -219.5t-25.5 -239.5t30 -241t93.5 -222t157.5 -183.5t228.5 -124.5t300 -46q124 0 247.5 35.5t229 90.5t220.5 149t204.5 182t200 220t187.5 232t186 248
q-184 194 -437 297t-522 103q-343 0 -567 -195q-168 -146 -222 -357q-52 -201 21 -370q72 -169 242 -236q95 -38 213 -38q84 0 133 28t66 60q18 32 52 23q26 -7 29 -31q3 -19 -16 -39q-31 -31 -99.5 -51.5t-166.5 -20.5q-269 0 -414 169q-120 141 -117 351q3 216 133 404
q149 216 406 307q157 55 340 55q594 0 981 -383q115 163 266 339.5t319.5 345t349 308t331.5 209.5q-88 -29 -228.5 -33t-270.5 7.5t-305.5 25t-291.5 13.5q-279 0 -431 -154q-113 -113 -120 -269q-7 -144 79 -246q98 -116 267 -116q73 0 129 18t88.5 45t54 65t29.5 71.5
t10 71.5q2 37 27.5 51t48 -2t17.5 -52q-4 -26 -18 -59.5t-45.5 -78t-74.5 -80t-112.5 -60.5t-151.5 -25q-198 0 -306 131q-92 111 -82 267q10 164 127 287q153 162 423 175q21 1 43 1q113 0 403.5 -26t446.5 -26q90 0 177 15t146 33.5t144 33.5t172 15zM2900 698
q100 276 184 480.5t180.5 397t201.5 342.5t224 267q-231 -154 -519.5 -462.5t-534.5 -643.5q157 -166 264 -381z" />
    <glyph glyph-name="Acircumflex" unicode="&#xc2;" horiz-adv-x="3186" 
d="M4262 2415q87 0 136.5 -26.5t37.5 -61.5q-10 -24 -38 -28.5t-52 7.5q-42 21 -79.5 34t-82.5 21t-87 5.5t-91 -17.5t-97 -44t-102.5 -76t-109 -111.5t-115.5 -153.5t-123 -199q-92 -163 -252 -570t-291 -771q-55 -153 -66 -210q-26 -143 66 -148q96 -7 195 159q4 10 11 4
q5 -4 3 -12q-22 -59 -61.5 -111.5t-98 -88t-118.5 -31.5q-42 2 -70 20.5t-40 43.5t-13.5 60.5t3 66.5t14.5 67t17 55.5t15 38.5q18 50 28.5 85.5t17.5 72t5.5 67t-12.5 55.5q-92 221 -234 386q-273 -357 -385 -490q-278 -330 -516 -484q-288 -186 -604 -186q-189 0 -349 53
t-270.5 142.5t-184.5 210t-101.5 254t-11.5 276.5t74.5 275t168.5 251.5t260 204.5q45 26 69 -1q19 -20 3 -44q-7 -11 -22 -18q-13 -7 -42.5 -9.5t-69.5 -24t-99 -79.5q-76 -74 -130 -178t-81 -219.5t-25.5 -239.5t30 -241t93.5 -222t157.5 -183.5t228.5 -124.5t300 -46
q124 0 247.5 35.5t229 90.5t220.5 149t204.5 182t200 220t187.5 232t186 248q-184 194 -437 297t-522 103q-343 0 -567 -195q-168 -146 -222 -357q-52 -201 21 -370q72 -169 242 -236q95 -38 213 -38q84 0 133 28t66 60q18 32 52 23q26 -7 29 -31q3 -19 -16 -39
q-31 -31 -99.5 -51.5t-166.5 -20.5q-269 0 -414 169q-120 141 -117 351q3 216 133 404q149 216 406 307q157 55 340 55q594 0 981 -383q115 163 266 339.5t319.5 345t349 308t331.5 209.5q-88 -29 -228.5 -33t-270.5 7.5t-305.5 25t-291.5 13.5q-279 0 -431 -154
q-113 -113 -120 -269q-7 -144 79 -246q98 -116 267 -116q73 0 129 18t88.5 45t54 65t29.5 71.5t10 71.5q2 37 27.5 51t48 -2t17.5 -52q-4 -26 -18 -59.5t-45.5 -78t-74.5 -80t-112.5 -60.5t-151.5 -25q-198 0 -306 131q-92 111 -82 267q10 164 127 287q153 162 423 175
q21 1 43 1q113 0 403.5 -26t446.5 -26q90 0 177 15t146 33.5t144 33.5t172 15zM2900 698q100 276 184 480.5t180.5 397t201.5 342.5t224 267q-231 -154 -519.5 -462.5t-534.5 -643.5q157 -166 264 -381zM4012 3025h18q35 -58 103.5 -173.5t103.5 -172.5h-108
q-84 134 -154 233q-55 -46 -151 -125t-131 -108h-62q81 75 227 207t154 139z" />
    <glyph glyph-name="Atilde" unicode="&#xc3;" horiz-adv-x="3186" 
d="M4262 2415q87 0 136.5 -26.5t37.5 -61.5q-10 -24 -38 -28.5t-52 7.5q-42 21 -79.5 34t-82.5 21t-87 5.5t-91 -17.5t-97 -44t-102.5 -76t-109 -111.5t-115.5 -153.5t-123 -199q-92 -163 -252 -570t-291 -771q-55 -153 -66 -210q-26 -143 66 -148q96 -7 195 159q4 10 11 4
q5 -4 3 -12q-22 -59 -61.5 -111.5t-98 -88t-118.5 -31.5q-42 2 -70 20.5t-40 43.5t-13.5 60.5t3 66.5t14.5 67t17 55.5t15 38.5q18 50 28.5 85.5t17.5 72t5.5 67t-12.5 55.5q-92 221 -234 386q-273 -357 -385 -490q-278 -330 -516 -484q-288 -186 -604 -186q-189 0 -349 53
t-270.5 142.5t-184.5 210t-101.5 254t-11.5 276.5t74.5 275t168.5 251.5t260 204.5q45 26 69 -1q19 -20 3 -44q-7 -11 -22 -18q-13 -7 -42.5 -9.5t-69.5 -24t-99 -79.5q-76 -74 -130 -178t-81 -219.5t-25.5 -239.5t30 -241t93.5 -222t157.5 -183.5t228.5 -124.5t300 -46
q124 0 247.5 35.5t229 90.5t220.5 149t204.5 182t200 220t187.5 232t186 248q-184 194 -437 297t-522 103q-343 0 -567 -195q-168 -146 -222 -357q-52 -201 21 -370q72 -169 242 -236q95 -38 213 -38q84 0 133 28t66 60q18 32 52 23q26 -7 29 -31q3 -19 -16 -39
q-31 -31 -99.5 -51.5t-166.5 -20.5q-269 0 -414 169q-120 141 -117 351q3 216 133 404q149 216 406 307q157 55 340 55q594 0 981 -383q115 163 266 339.5t319.5 345t349 308t331.5 209.5q-88 -29 -228.5 -33t-270.5 7.5t-305.5 25t-291.5 13.5q-279 0 -431 -154
q-113 -113 -120 -269q-7 -144 79 -246q98 -116 267 -116q73 0 129 18t88.5 45t54 65t29.5 71.5t10 71.5q2 37 27.5 51t48 -2t17.5 -52q-4 -26 -18 -59.5t-45.5 -78t-74.5 -80t-112.5 -60.5t-151.5 -25q-198 0 -306 131q-92 111 -82 267q10 164 127 287q153 162 423 175
q21 1 43 1q113 0 403.5 -26t446.5 -26q90 0 177 15t146 33.5t144 33.5t172 15zM2900 698q100 276 184 480.5t180.5 397t201.5 342.5t224 267q-231 -154 -519.5 -462.5t-534.5 -643.5q157 -166 264 -381zM3748 2656q-20 0 -33.5 16.5t-13.5 39.5q0 61 48 101t124 40
q42 0 83.5 -19.5t70 -43t68.5 -43t79 -19.5q73 0 113 35.5t40 83.5q20 0 36 -14t16 -35q0 -63 -49 -103.5t-121 -40.5q-33 0 -77.5 19t-81 42.5t-81 42.5t-78.5 19q-73 0 -108 -36.5t-35 -84.5z" />
    <glyph glyph-name="Adieresis" unicode="&#xc4;" horiz-adv-x="3186" 
d="M4262 2415q87 0 136.5 -26.5t37.5 -61.5q-10 -24 -38 -28.5t-52 7.5q-42 21 -79.5 34t-82.5 21t-87 5.5t-91 -17.5t-97 -44t-102.5 -76t-109 -111.5t-115.5 -153.5t-123 -199q-92 -163 -252 -570t-291 -771q-55 -153 -66 -210q-26 -143 66 -148q96 -7 195 159q4 10 11 4
q5 -4 3 -12q-22 -59 -61.5 -111.5t-98 -88t-118.5 -31.5q-42 2 -70 20.5t-40 43.5t-13.5 60.5t3 66.5t14.5 67t17 55.5t15 38.5q18 50 28.5 85.5t17.5 72t5.5 67t-12.5 55.5q-92 221 -234 386q-273 -357 -385 -490q-278 -330 -516 -484q-288 -186 -604 -186q-189 0 -349 53
t-270.5 142.5t-184.5 210t-101.5 254t-11.5 276.5t74.5 275t168.5 251.5t260 204.5q45 26 69 -1q19 -20 3 -44q-7 -11 -22 -18q-13 -7 -42.5 -9.5t-69.5 -24t-99 -79.5q-76 -74 -130 -178t-81 -219.5t-25.5 -239.5t30 -241t93.5 -222t157.5 -183.5t228.5 -124.5t300 -46
q124 0 247.5 35.5t229 90.5t220.5 149t204.5 182t200 220t187.5 232t186 248q-184 194 -437 297t-522 103q-343 0 -567 -195q-168 -146 -222 -357q-52 -201 21 -370q72 -169 242 -236q95 -38 213 -38q84 0 133 28t66 60q18 32 52 23q26 -7 29 -31q3 -19 -16 -39
q-31 -31 -99.5 -51.5t-166.5 -20.5q-269 0 -414 169q-120 141 -117 351q3 216 133 404q149 216 406 307q157 55 340 55q594 0 981 -383q115 163 266 339.5t319.5 345t349 308t331.5 209.5q-88 -29 -228.5 -33t-270.5 7.5t-305.5 25t-291.5 13.5q-279 0 -431 -154
q-113 -113 -120 -269q-7 -144 79 -246q98 -116 267 -116q73 0 129 18t88.5 45t54 65t29.5 71.5t10 71.5q2 37 27.5 51t48 -2t17.5 -52q-4 -26 -18 -59.5t-45.5 -78t-74.5 -80t-112.5 -60.5t-151.5 -25q-198 0 -306 131q-92 111 -82 267q10 164 127 287q153 162 423 175
q21 1 43 1q113 0 403.5 -26t446.5 -26q90 0 177 15t146 33.5t144 33.5t172 15zM2900 698q100 276 184 480.5t180.5 397t201.5 342.5t224 267q-231 -154 -519.5 -462.5t-534.5 -643.5q157 -166 264 -381zM3740 2732q-35 0 -59.5 25t-24.5 59t24.5 59t59.5 25q34 0 59 -25
t25 -59t-25 -59t-59 -25zM4217 2732q-35 0 -59.5 25t-24.5 59t24.5 59t59.5 25q34 0 59 -25t25 -59t-25 -59t-59 -25z" />
    <glyph glyph-name="Aring" unicode="&#xc5;" horiz-adv-x="3186" 
d="M4262 2415q87 0 136.5 -26.5t37.5 -61.5q-10 -24 -38 -28.5t-52 7.5q-42 21 -79.5 34t-82.5 21t-87 5.5t-91 -17.5t-97 -44t-102.5 -76t-109 -111.5t-115.5 -153.5t-123 -199q-92 -163 -252 -570t-291 -771q-55 -153 -66 -210q-26 -143 66 -148q96 -7 195 159q4 10 11 4
q5 -4 3 -12q-22 -59 -61.5 -111.5t-98 -88t-118.5 -31.5q-42 2 -70 20.5t-40 43.5t-13.5 60.5t3 66.5t14.5 67t17 55.5t15 38.5q18 50 28.5 85.5t17.5 72t5.5 67t-12.5 55.5q-92 221 -234 386q-273 -357 -385 -490q-278 -330 -516 -484q-288 -186 -604 -186q-189 0 -349 53
t-270.5 142.5t-184.5 210t-101.5 254t-11.5 276.5t74.5 275t168.5 251.5t260 204.5q45 26 69 -1q19 -20 3 -44q-7 -11 -22 -18q-13 -7 -42.5 -9.5t-69.5 -24t-99 -79.5q-76 -74 -130 -178t-81 -219.5t-25.5 -239.5t30 -241t93.5 -222t157.5 -183.5t228.5 -124.5t300 -46
q124 0 247.5 35.5t229 90.5t220.5 149t204.5 182t200 220t187.5 232t186 248q-184 194 -437 297t-522 103q-343 0 -567 -195q-168 -146 -222 -357q-52 -201 21 -370q72 -169 242 -236q95 -38 213 -38q84 0 133 28t66 60q18 32 52 23q26 -7 29 -31q3 -19 -16 -39
q-31 -31 -99.5 -51.5t-166.5 -20.5q-269 0 -414 169q-120 141 -117 351q3 216 133 404q149 216 406 307q157 55 340 55q594 0 981 -383q115 163 266 339.5t319.5 345t349 308t331.5 209.5q-88 -29 -228.5 -33t-270.5 7.5t-305.5 25t-291.5 13.5q-279 0 -431 -154
q-113 -113 -120 -269q-7 -144 79 -246q98 -116 267 -116q73 0 129 18t88.5 45t54 65t29.5 71.5t10 71.5q2 37 27.5 51t48 -2t17.5 -52q-4 -26 -18 -59.5t-45.5 -78t-74.5 -80t-112.5 -60.5t-151.5 -25q-198 0 -306 131q-92 111 -82 267q10 164 127 287q153 162 423 175
q21 1 43 1q113 0 403.5 -26t446.5 -26q90 0 177 15t146 33.5t144 33.5t172 15zM2900 698q100 276 184 480.5t180.5 397t201.5 342.5t224 267q-231 -154 -519.5 -462.5t-534.5 -643.5q157 -166 264 -381zM4168 2918q-12 -69 -57 -115.5t-101.5 -65.5t-122.5 -21
q-93 -3 -134 55t-19 129q25 83 77.5 126.5t139.5 61.5q98 20 163.5 -33.5t53.5 -136.5zM4010 3062q-59 14 -107.5 -25t-74.5 -110q-24 -60 -7 -113t70 -66q58 -13 107.5 27.5t70.5 110.5q22 63 7 113t-66 63z" />
    <glyph glyph-name="AE" unicode="&#xc6;" horiz-adv-x="4274" 
d="M4454 2365q192 0 254 -107q56 -96 -15 -237q-78 -158 -276 -291q-296 -200 -721 -247q-41 -5 -83 -8q15 -46 48 -83t73 -58t85 -35t84.5 -13t71.5 8q28 7 29 -6q-1 -6 -6 -12q-24 -24 -88 -31q-466 -50 -730 -300q-190 -180 -232 -419q-37 -209 52 -382q85 -164 251 -226
q74 -28 159 -31q-17 108 -11.5 216t37 212.5t77.5 199t110 174t134.5 138t151.5 91t160 32.5q147 0 199 -127t-7 -320q-66 -212 -230 -381q-214 -221 -503 -265l-69 -7q67 -265 318 -444q12 -8 10.5 -19.5t-12 -15.5t-23.5 2q-264 180 -334 475q-140 -4 -256.5 39
t-190.5 117.5t-114.5 170.5t-40.5 202q0 93 -18.5 179.5t-44 146.5t-64.5 120.5t-66.5 94.5t-64.5 75q-4 4 -6.5 7t-5.5 6q-273 -357 -387 -492q-279 -330 -519 -484q-285 -184 -600 -184q-189 0 -349 53t-270.5 142.5t-184 210t-101.5 254t-12 276.5t75 275t169 251.5
t260 204.5q45 26 69 -1q19 -20 1 -45q-8 -11 -21 -17q-13 -7 -42.5 -9.5t-69.5 -24t-99 -79.5q-76 -74 -130 -178t-81 -219.5t-25.5 -239.5t30 -241t93.5 -222t157.5 -183.5t228.5 -124.5t300 -46q124 0 247.5 35.5t229 90.5t220.5 149t204.5 182t200 220t187.5 232t186 248
q-184 194 -437 297t-522 103q-343 0 -567 -195q-168 -146 -222 -357q-52 -201 21 -370q72 -169 242 -236q95 -38 213 -38q84 0 133 28t66 60q18 32 52 23q26 -7 29 -31q3 -19 -16 -39q-31 -31 -99.5 -51.5t-166.5 -20.5q-269 0 -414 169q-120 141 -117 351q3 216 133 404
q149 216 406 307q157 55 340 55q594 0 981 -383q157 222 369 459q-30 11 -107 51q-115 -115 -295 -115q-88 0 -160.5 28t-119.5 75t-75 110t-32.5 131t14.5 139t58.5 134t106.5 116t153 85q34 86 102 157t152 118.5t183 80t195.5 47t190.5 14.5q226 0 297 -28
q33 -13 38 -39.5t-17.5 -43t-56.5 -3.5q-15 6 -32 22.5t-33.5 29.5t-67 23.5t-130.5 10.5q-167 0 -310.5 -41.5t-249.5 -123.5t-156 -196q74 15 155 15q113 0 403.5 -26t446.5 -26q90 0 177 15t146 33.5t144 33.5t172 15q66 0 111 -15t59 -39q9 0 27.5 1t27.5 1zM4037 879
q-87 0 -183 -57.5t-177 -155t-144.5 -225.5t-84.5 -268.5t3 -285.5q272 7 490 206q162 149 240 350q70 182 33 307q-36 121 -161 129h-16zM4258 2335q-72 28 -138 34t-149 -19.5t-165 -90t-180 -188.5t-200 -304q-51 -92 -123 -258q95 -10 175 -10q-16 117 49.5 250.5
t179.5 247t260.5 205t290.5 133.5zM3207 1526q204 417 451 661q-269 -178 -647 -602q98 -39 196 -59zM2533 1546q175 0 256 103q-53 32 -101 70t-93 86t-76.5 100t-52.5 113.5t-20.5 126t18.5 136.5q-75 -32 -132.5 -81.5t-90 -106.5t-46 -121t-7 -124t33 -115t68.5 -96.5
t105 -66t138 -24.5zM2861 1659q67 -37 105 -53q220 241 447.5 432t420.5 280q-88 -29 -228.5 -33t-270.5 7.5t-305.5 25t-291.5 13.5q-83 0 -170 -17q-23 -73 -26 -142.5t12 -128.5t40 -111.5t62.5 -97t75.5 -79.5t82 -65q28 59 31 127q2 43 36 54q30 10 48 -14
q11 -17 8 -42q-4 -28 -23.5 -71t-52.5 -85zM2986 1556q-205 -233 -383 -475q157 -166 264 -381q185 510 326 797q-120 23 -207 59zM3688 1247q-75 17 -129.5 76t-74.5 145q-86 -3 -193 11q-100 -233 -227 -568q157 149 357.5 242.5t266.5 93.5zM3607 1503q419 30 714 222
q190 124 269 277q69 133 21 223q-49 93 -204 93q-71 0 -161.5 -28.5t-185 -79t-182 -126t-153.5 -163t-99 -197t-19 -221.5z" />
    <glyph glyph-name="Ccedilla" unicode="&#xc7;" horiz-adv-x="1904" 
d="M2120 2392q167 0 236 -124t15 -316q-63 -225 -265 -430q-279 -285 -718 -417q-343 -103 -749 -97q-40 -99 -58.5 -218.5t-13.5 -240t40 -234t93 -201.5t153.5 -141t215.5 -53q84 0 161.5 16t135.5 39.5t113.5 61t92 69.5t74 76t56 70.5t42 62.5t28.5 43q15 24 32 12
q14 -9 4 -26q-26 -43 -43 -69.5t-59.5 -82.5t-81 -94t-101 -86.5t-127 -77.5t-152 -50t-181.5 -21h-12q-11 -30 -11 -205q0 -96 -61.5 -163.5t-138.5 -67.5q-50 0 -90.5 24.5t-60 59.5t-16 76.5t33.5 72.5l16 -16q-43 -44 -16 -93t88 -49q58 0 97.5 26t60 70.5t31.5 88.5
t21 98t21 80q-119 6 -216.5 48t-163 111t-111 159.5t-65 194t-20 213.5t19 218.5t56.5 208.5q-197 26 -356.5 110.5t-256.5 223.5t-97 307q0 101 31 205.5t93.5 207.5t151.5 197.5t211.5 175t265.5 140t322 93.5t373 34q64 0 77 -39q10 -30 -17 -52q-32 -24 -77 -4l-17 7
q-17 7 -28 10t-34 8t-53 7.5t-68 2.5q-93 0 -196 -20t-210.5 -61.5t-209 -100t-191.5 -142t-157.5 -181.5t-106.5 -224t-39 -264q0 -220 172 -387t436 -207q101 242 285.5 483t399.5 426.5t453 301.5t437 116zM2019 2316q-122 0 -276 -66.5t-313 -187.5t-307.5 -276
t-272.5 -346.5t-195 -384.5q619 -6 1074 245q296 163 458 397q132 192 128 360q-4 151 -120 218q-71 41 -176 41z" />
    <glyph glyph-name="Egrave" unicode="&#xc8;" horiz-adv-x="1632" 
d="M1737 2398q192 0 254 -107q56 -96 -15 -237q-78 -158 -275 -291q-297 -200 -720 -248q-43 -5 -86 -8q15 -46 48 -83t73 -58t85 -34.5t84.5 -12.5t71.5 8q28 7 29 -6q-1 -6 -6 -12q-24 -24 -88 -31q-466 -50 -730 -300q-190 -180 -232 -419q-37 -209 52 -382
q85 -164 251 -226q74 -28 159 -31q-17 108 -11.5 216t37 212.5t77.5 199t110.5 174t135 138t151.5 91t160 32.5q147 0 199 -127t-8 -320q-65 -211 -229 -380q-214 -222 -503 -265q-35 -6 -70 -8q67 -265 318 -444q12 -8 10.5 -19.5t-12 -15.5t-23.5 2q-264 180 -334 475
q-140 -4 -256.5 39t-190.5 117.5t-114.5 170.5t-40.5 202q0 123 44 236.5t114 198.5t158.5 158.5t177 123t169 85.5t135 52t75.5 16q-75 17 -130 76t-75 145q-187 -3 -374 48.5t-333.5 140.5t-238.5 217t-92 268q0 104 38.5 194t104.5 155t151 115t182 80t193 45t189 15
q223 0 297 -29q33 -13 38 -39.5t-18 -43t-57 -3.5q-13 6 -25.5 18t-25 22.5t-34.5 21.5t-67 17.5t-110 6.5q-212 0 -382.5 -65.5t-273 -195t-102.5 -302.5q0 -117 52.5 -222t143.5 -183t209 -135.5t254 -86.5t275 -28q-14 110 43 235.5t162.5 235t235.5 200t273 143
t263 52.5zM1319 911q-87 0 -183 -57.5t-177 -154.5t-144.5 -225t-84.5 -268.5t3 -285.5q273 7 490 207q163 148 240 349q70 183 33 307q-36 121 -163 128h-14zM889 1536q419 30 714 222q190 124 270 277q69 133 21 223q-49 93 -204 93q-71 0 -161.5 -28.5t-185 -79
t-182.5 -126t-153.5 -163t-99 -197t-19.5 -221.5zM1843 3086q-61 -37 -92 -73.5t-34.5 -69.5t2.5 -61t14.5 -60.5t5.5 -54.5q-5 -46 -31.5 -63t-56.5 -15q-22 0 -50 19.5t-28 56.5q-1 56 26.5 113t70 101.5t83 76.5t76.5 51q12 5 18.5 2t5.5 -10.5t-10 -12.5z" />
    <glyph glyph-name="Eacute" unicode="&#xc9;" horiz-adv-x="1632" 
d="M1829 2714q61 37 92 73t34.5 69t-2 61t-14 61t-6.5 55q5 46 32 63t56 15q21 0 50 -19.5t30 -56.5q1 -56 -27 -113t-70.5 -101.5t-83.5 -76.5t-77 -51q-11 -6 -17.5 -3t-6 11t9.5 13zM1737 2398q192 0 254 -107q56 -96 -15 -237q-78 -158 -275 -291q-297 -200 -720 -248
q-43 -5 -86 -8q15 -46 48 -83t73 -58t85 -34.5t84.5 -12.5t71.5 8q28 7 29 -6q-1 -6 -6 -12q-24 -24 -88 -31q-466 -50 -730 -300q-190 -180 -232 -419q-37 -209 52 -382q85 -164 251 -226q74 -28 159 -31q-17 108 -11.5 216t37 212.5t77.5 199t110.5 174t135 138t151.5 91
t160 32.5q147 0 199 -127t-8 -320q-65 -211 -229 -380q-214 -222 -503 -265q-35 -6 -70 -8q67 -265 318 -444q12 -8 10.5 -19.5t-12 -15.5t-23.5 2q-264 180 -334 475q-140 -4 -256.5 39t-190.5 117.5t-114.5 170.5t-40.5 202q0 123 44 236.5t114 198.5t158.5 158.5t177 123
t169 85.5t135 52t75.5 16q-75 17 -130 76t-75 145q-187 -3 -374 48.5t-333.5 140.5t-238.5 217t-92 268q0 104 38.5 194t104.5 155t151 115t182 80t193 45t189 15q223 0 297 -29q33 -13 38 -39.5t-18 -43t-57 -3.5q-13 6 -25.5 18t-25 22.5t-34.5 21.5t-67 17.5t-110 6.5
q-212 0 -382.5 -65.5t-273 -195t-102.5 -302.5q0 -117 52.5 -222t143.5 -183t209 -135.5t254 -86.5t275 -28q-14 110 43 235.5t162.5 235t235.5 200t273 143t263 52.5zM1319 911q-87 0 -183 -57.5t-177 -154.5t-144.5 -225t-84.5 -268.5t3 -285.5q273 7 490 207
q163 148 240 349q70 183 33 307q-36 121 -163 128h-14zM889 1536q419 30 714 222q190 124 270 277q69 133 21 223q-49 93 -204 93q-71 0 -161.5 -28.5t-185 -79t-182.5 -126t-153.5 -163t-99 -197t-19.5 -221.5z" />
    <glyph glyph-name="Ecircumflex" unicode="&#xca;" horiz-adv-x="1632" 
d="M1737 2398q192 0 254 -107q56 -96 -15 -237q-78 -158 -275 -291q-297 -200 -720 -248q-43 -5 -86 -8q15 -46 48 -83t73 -58t85 -34.5t84.5 -12.5t71.5 8q28 7 29 -6q-1 -6 -6 -12q-24 -24 -88 -31q-466 -50 -730 -300q-190 -180 -232 -419q-37 -209 52 -382
q85 -164 251 -226q74 -28 159 -31q-17 108 -11.5 216t37 212.5t77.5 199t110.5 174t135 138t151.5 91t160 32.5q147 0 199 -127t-8 -320q-65 -211 -229 -380q-214 -222 -503 -265q-35 -6 -70 -8q67 -265 318 -444q12 -8 10.5 -19.5t-12 -15.5t-23.5 2q-264 180 -334 475
q-140 -4 -256.5 39t-190.5 117.5t-114.5 170.5t-40.5 202q0 123 44 236.5t114 198.5t158.5 158.5t177 123t169 85.5t135 52t75.5 16q-75 17 -130 76t-75 145q-187 -3 -374 48.5t-333.5 140.5t-238.5 217t-92 268q0 104 38.5 194t104.5 155t151 115t182 80t193 45t189 15
q223 0 297 -29q33 -13 38 -39.5t-18 -43t-57 -3.5q-13 6 -25.5 18t-25 22.5t-34.5 21.5t-67 17.5t-110 6.5q-212 0 -382.5 -65.5t-273 -195t-102.5 -302.5q0 -117 52.5 -222t143.5 -183t209 -135.5t254 -86.5t275 -28q-14 110 43 235.5t162.5 235t235.5 200t273 143
t263 52.5zM1319 911q-87 0 -183 -57.5t-177 -154.5t-144.5 -225t-84.5 -268.5t3 -285.5q273 7 490 207q163 148 240 349q70 183 33 307q-36 121 -163 128h-14zM889 1536q419 30 714 222q190 124 270 277q69 133 21 223q-49 93 -204 93q-71 0 -161.5 -28.5t-185 -79
t-182.5 -126t-153.5 -163t-99 -197t-19.5 -221.5zM1735 3029h18q35 -57 103.5 -172.5t103.5 -173.5h-109q-92 147 -153 233q-54 -45 -149 -123t-134 -110h-61q81 75 227 207t154 139z" />
    <glyph glyph-name="Edieresis" unicode="&#xcb;" horiz-adv-x="1632" 
d="M1737 2398q192 0 254 -107q56 -96 -15 -237q-78 -158 -275 -291q-297 -200 -720 -248q-43 -5 -86 -8q15 -46 48 -83t73 -58t85 -34.5t84.5 -12.5t71.5 8q28 7 29 -6q-1 -6 -6 -12q-24 -24 -88 -31q-466 -50 -730 -300q-190 -180 -232 -419q-37 -209 52 -382
q85 -164 251 -226q74 -28 159 -31q-17 108 -11.5 216t37 212.5t77.5 199t110.5 174t135 138t151.5 91t160 32.5q147 0 199 -127t-8 -320q-65 -211 -229 -380q-214 -222 -503 -265q-35 -6 -70 -8q67 -265 318 -444q12 -8 10.5 -19.5t-12 -15.5t-23.5 2q-264 180 -334 475
q-140 -4 -256.5 39t-190.5 117.5t-114.5 170.5t-40.5 202q0 123 44 236.5t114 198.5t158.5 158.5t177 123t169 85.5t135 52t75.5 16q-75 17 -130 76t-75 145q-187 -3 -374 48.5t-333.5 140.5t-238.5 217t-92 268q0 104 38.5 194t104.5 155t151 115t182 80t193 45t189 15
q223 0 297 -29q33 -13 38 -39.5t-18 -43t-57 -3.5q-13 6 -25.5 18t-25 22.5t-34.5 21.5t-67 17.5t-110 6.5q-212 0 -382.5 -65.5t-273 -195t-102.5 -302.5q0 -117 52.5 -222t143.5 -183t209 -135.5t254 -86.5t275 -28q-14 110 43 235.5t162.5 235t235.5 200t273 143
t263 52.5zM1319 911q-87 0 -183 -57.5t-177 -154.5t-144.5 -225t-84.5 -268.5t3 -285.5q273 7 490 207q163 148 240 349q70 183 33 307q-36 121 -163 128h-14zM889 1536q419 30 714 222q190 124 270 277q69 133 21 223q-49 93 -204 93q-71 0 -161.5 -28.5t-185 -79
t-182.5 -126t-153.5 -163t-99 -197t-19.5 -221.5zM1417 2728q-35 0 -59.5 25t-24.5 59t24.5 59t59.5 25q34 0 59 -25t25 -59t-25 -59t-59 -25zM1894 2728q-35 0 -59.5 25t-24.5 59t24.5 59t59.5 25q34 0 59 -25t25 -59t-25 -59t-59 -25z" />
    <glyph glyph-name="Igrave" unicode="&#xcc;" horiz-adv-x="2113" 
d="M2576 3082q-61 -37 -92 -73.5t-34.5 -69.5t2.5 -61t14.5 -60.5t5.5 -54.5q-5 -46 -31.5 -63t-56.5 -15q-22 0 -50 19.5t-28 56.5q-1 56 26.5 113t70 101.5t83 76.5t76.5 51q12 5 18.5 2t5.5 -10.5t-10 -12.5zM956 -98q-190 0 -349 50.5t-268 136.5t-182 202.5t-99 247
t-8.5 272.5t77.5 275t170.5 258t261.5 219q55 34 84 4q20 -22 7 -48q-10 -20 -36 -24q-4 0 -23 -1.5t-28 -3.5t-29.5 -7.5t-37.5 -16.5t-40 -27.5t-48.5 -43.5t-53.5 -62q-70 -89 -116.5 -197.5t-67 -222t-13.5 -230.5t39.5 -223.5t98.5 -200.5t156 -163t218.5 -109
t280.5 -40q414 0 662 320q158 202 286 592q26 78 132 444q104 357 191 531q122 244 292 337q-128 -21 -239 -17.5t-239 23.5t-229.5 43.5t-210.5 42t-182 18.5q-230 0 -377 -152q-119 -124 -140 -298q-20 -176 70 -310q107 -160 326 -186q39 -4 80 -4q64 0 116 11t81.5 25.5
t52.5 36.5t31.5 34.5t16.5 28.5l3 6q16 25 41.5 24t33 -21.5t-12.5 -50.5q-48 -63 -147.5 -98t-217.5 -35q-274 0 -416 164q-113 130 -110 317q4 182 114 329q127 167 337 207q58 11 120 11q101 0 215.5 -20t217 -43t221 -42t273 -15.5t327.5 36.5q32 7 38 -12
q5 -18 -17 -27q-2 -1 -5 -2q-85 -23 -158.5 -88.5t-123.5 -141.5t-104 -208.5t-86 -231t-83 -266.5q-43 -142 -66.5 -216t-71.5 -209.5t-84 -211.5t-96 -188.5t-117 -177t-138.5 -141.5t-168 -117t-197.5 -68t-235 -28z" />
    <glyph glyph-name="Iacute" unicode="&#xcd;" horiz-adv-x="2113" 
d="M2499 2701q61 37 92 73.5t34.5 69.5t-2 61t-14 61t-6.5 55q5 46 32 63t56 15q21 0 50 -19.5t30 -56.5q1 -56 -27 -113t-70.5 -101.5t-83.5 -76.5t-77 -51q-17 -10 -22.5 1t8.5 19zM956 -98q-190 0 -349 50.5t-268 136.5t-182 202.5t-99 247t-8.5 272.5t77.5 275
t170.5 258t261.5 219q55 34 84 4q20 -22 7 -48q-10 -20 -36 -24q-4 0 -23 -1.5t-28 -3.5t-29.5 -7.5t-37.5 -16.5t-40 -27.5t-48.5 -43.5t-53.5 -62q-70 -89 -116.5 -197.5t-67 -222t-13.5 -230.5t39.5 -223.5t98.5 -200.5t156 -163t218.5 -109t280.5 -40q414 0 662 320
q158 202 286 592q26 78 132 444q104 357 191 531q122 244 292 337q-128 -21 -239 -17.5t-239 23.5t-229.5 43.5t-210.5 42t-182 18.5q-230 0 -377 -152q-119 -124 -140 -298q-20 -176 70 -310q107 -160 326 -186q39 -4 80 -4q64 0 116 11t81.5 25.5t52.5 36.5t31.5 34.5
t16.5 28.5l3 6q16 25 41.5 24t33 -21.5t-12.5 -50.5q-48 -63 -147.5 -98t-217.5 -35q-274 0 -416 164q-113 130 -110 317q4 182 114 329q127 167 337 207q58 11 120 11q101 0 215.5 -20t217 -43t221 -42t273 -15.5t327.5 36.5q32 7 38 -12q5 -18 -17 -27q-2 -1 -5 -2
q-85 -23 -158.5 -88.5t-123.5 -141.5t-104 -208.5t-86 -231t-83 -266.5q-43 -142 -66.5 -216t-71.5 -209.5t-84 -211.5t-96 -188.5t-117 -177t-138.5 -141.5t-168 -117t-197.5 -68t-235 -28z" />
    <glyph glyph-name="Icircumflex" unicode="&#xce;" horiz-adv-x="2113" 
d="M956 -98q-190 0 -349 50.5t-268 136.5t-182 202.5t-99 247t-8.5 272.5t77.5 275t170.5 258t261.5 219q55 34 84 4q20 -22 7 -48q-10 -20 -36 -24q-4 0 -23 -1.5t-28 -3.5t-29.5 -7.5t-37.5 -16.5t-40 -27.5t-48.5 -43.5t-53.5 -62q-70 -89 -116.5 -197.5t-67 -222
t-13.5 -230.5t39.5 -223.5t98.5 -200.5t156 -163t218.5 -109t280.5 -40q414 0 662 320q158 202 286 592q26 78 132 444q104 357 191 531q122 244 292 337q-128 -21 -239 -17.5t-239 23.5t-229.5 43.5t-210.5 42t-182 18.5q-230 0 -377 -152q-119 -124 -140 -298
q-20 -176 70 -310q107 -160 326 -186q39 -4 80 -4q64 0 116 11t81.5 25.5t52.5 36.5t31.5 34.5t16.5 28.5l3 6q16 25 41.5 24t33 -21.5t-12.5 -50.5q-48 -63 -147.5 -98t-217.5 -35q-274 0 -416 164q-113 130 -110 317q4 182 114 329q127 167 337 207q58 11 120 11
q101 0 215.5 -20t217 -43t221 -42t273 -15.5t327.5 36.5q32 7 38 -12q5 -18 -17 -27q-2 -1 -5 -2q-85 -23 -158.5 -88.5t-123.5 -141.5t-104 -208.5t-86 -231t-83 -266.5q-43 -142 -66.5 -216t-71.5 -209.5t-84 -211.5t-96 -188.5t-117 -177t-138.5 -141.5t-168 -117
t-197.5 -68t-235 -28zM2370 3029h18q35 -57 103.5 -172.5t103.5 -173.5h-109q-92 147 -153 233q-54 -45 -149 -123t-134 -110h-61q81 75 227 207t154 139z" />
    <glyph glyph-name="Idieresis" unicode="&#xcf;" horiz-adv-x="2113" 
d="M956 -98q-190 0 -349 50.5t-268 136.5t-182 202.5t-99 247t-8.5 272.5t77.5 275t170.5 258t261.5 219q55 34 84 4q20 -22 7 -48q-10 -20 -36 -24q-4 0 -23 -1.5t-28 -3.5t-29.5 -7.5t-37.5 -16.5t-40 -27.5t-48.5 -43.5t-53.5 -62q-70 -89 -116.5 -197.5t-67 -222
t-13.5 -230.5t39.5 -223.5t98.5 -200.5t156 -163t218.5 -109t280.5 -40q414 0 662 320q158 202 286 592q26 78 132 444q104 357 191 531q122 244 292 337q-128 -21 -239 -17.5t-239 23.5t-229.5 43.5t-210.5 42t-182 18.5q-230 0 -377 -152q-119 -124 -140 -298
q-20 -176 70 -310q107 -160 326 -186q39 -4 80 -4q64 0 116 11t81.5 25.5t52.5 36.5t31.5 34.5t16.5 28.5l3 6q16 25 41.5 24t33 -21.5t-12.5 -50.5q-48 -63 -147.5 -98t-217.5 -35q-274 0 -416 164q-113 130 -110 317q4 182 114 329q127 167 337 207q58 11 120 11
q101 0 215.5 -20t217 -43t221 -42t273 -15.5t327.5 36.5q32 7 38 -12q5 -18 -17 -27q-2 -1 -5 -2q-85 -23 -158.5 -88.5t-123.5 -141.5t-104 -208.5t-86 -231t-83 -266.5q-43 -142 -66.5 -216t-71.5 -209.5t-84 -211.5t-96 -188.5t-117 -177t-138.5 -141.5t-168 -117
t-197.5 -68t-235 -28zM2017 2728q-35 0 -59.5 25t-24.5 59t24.5 59t59.5 25q34 0 59 -25t25 -59t-25 -59t-59 -25zM2494 2728q-35 0 -59.5 25t-24.5 59t24.5 59t59.5 25q34 0 59 -25t25 -59t-25 -59t-59 -25z" />
    <glyph glyph-name="Eth" unicode="&#xd0;" horiz-adv-x="3018" 
d="M1714 2435q193 0 365.5 -38t305 -103.5t243 -155.5t187.5 -193.5t130 -217t77.5 -226t24.5 -221.5q0 -184 -44.5 -365.5t-125 -341.5t-197.5 -297.5t-256 -236.5t-307 -155t-345 -56q-83 0 -167.5 20.5t-174.5 64t-152 79t-158 96.5q-231 -248 -504 -248
q-145 0 -241.5 51t-117 124t3.5 146t118 124t227 51q119 0 235.5 -48t260.5 -136q82 118 153 290q-155 -15 -296.5 7t-254 75t-204.5 132t-153.5 177t-94.5 211.5t-33 233.5q0 137 48 276.5t137 268t222.5 240.5t295.5 194.5t366.5 130t425.5 47.5zM1772 -137
q164 0 317.5 56t278.5 154.5t229 233.5t174.5 291t109.5 329.5t39 346.5q0 425 -244 722.5t-665 375.5q-34 7 -49 -45q-10 -26 -53 -170.5t-117.5 -392t-130.5 -431.5q168 -17 227 -104q25 -35 21.5 -68.5t-35.5 -42.5q-25 -6 -54.5 11t-54 42.5t-59.5 54.5t-66 40
q-208 -675 -262 -770q210 52 349 170t139 225q0 30 24 45t48 3.5t24 -46.5q0 -26 -26 -69t-79 -95.5t-122.5 -103t-168 -95.5t-204.5 -69q-101 -207 -213 -340q198 -124 283 -167q186 -91 340 -91zM324 1274q0 -90 18 -179t55.5 -174.5t94 -159t132.5 -134t173 -99
t214.5 -54t256.5 0.5q65 153 268 813q-45 3 -91.5 -4t-70.5 -16l-24 -8q-41 -11 -41 14q0 21 73 40.5t168 22.5q190 617 297 1016q8 40 -39 43q-228 10 -435.5 -30t-367.5 -118.5t-290.5 -188t-215 -238.5t-130 -268.5t-45.5 -278.5zM614 -127q137 0 250 55.5t211 186.5
q-152 95 -260 143.5t-209 48.5q-102 0 -173 -44.5t-88.5 -108.5t-1 -128t89.5 -108.5t181 -44.5z" />
    <glyph glyph-name="Ntilde" unicode="&#xd1;" horiz-adv-x="3037" 
d="M4389 2546q115 0 142 -57q17 -38 -12 -71q-32 -36 -78 -20q-11 3 -21 10q-52 33 -102 48t-110.5 12.5t-132 -32t-153.5 -87.5q-122 -86 -240.5 -209.5t-252.5 -315.5t-266 -439.5t-279 -589.5t-295 -758q-3 -9 -8.5 -27.5t-8.5 -25t-10 -17t-16.5 -16t-24.5 -8.5
q-16 -4 -26.5 7t-15.5 26t-11 44q-21 104 -44 246.5t-40 258.5t-41 307t-35 281.5t-35.5 300t-29.5 251.5q-59 -124 -172 -371q-77 -169 -116.5 -254.5t-114.5 -236.5t-124.5 -231t-130 -200.5t-147.5 -185t-161 -143.5t-186.5 -117.5t-207.5 -66t-240 -27.5
q-152 0 -276.5 47t-203.5 125.5t-122 178t-43 208.5q0 104 27 196.5t71.5 161t103.5 125.5t122 94.5t128 63.5t120 37.5t100 11.5q51 0 61 -36q9 -29 -15 -48q-15 -13 -38 -10q-18 2 -42 10l-42 14t-51 5.5t-74 -12.5q-84 -24 -156 -86.5t-120.5 -146t-74 -183.5t-25 -199.5
t35 -193.5t98 -165.5t172.5 -115t250 -43.5q120 0 231.5 28.5t203.5 73.5t181.5 121t159 150.5t143 184t126 199.5t115.5 219t104.5 220.5t100.5 223.5q103 234 155 341q34 70 45.5 157.5t0.5 176t-47.5 173t-93 150t-142.5 105t-189 39.5q-168 0 -324.5 -58.5t-274.5 -156
t-207 -219.5t-135 -254t-46 -254q0 -194 139 -324.5t346 -130.5q100 0 170 17.5t97 37.5t59 51.5t47 41.5q38 25 63 3q23 -21 5 -52q-10 -15 -27 -27q-157 -107 -412 -107q-152 0 -274.5 64.5t-190 175t-67.5 244.5q0 112 38 231t105.5 230.5t167.5 211t217.5 173.5
t262 117.5t294.5 43.5q214 0 347.5 -135.5t174.5 -402.5q43 -281 114 -877t101 -813q7 -57 15 -75.5t24 -18.5t41 72q134 363 272.5 670t259.5 527.5t247 398t227.5 290.5t208.5 196t182.5 124.5t158 65t126 28t94.5 4.5zM2834 2656q-20 0 -33.5 16.5t-13.5 39.5
q0 61 48 101t124 40q42 0 83.5 -19.5t70 -43t68.5 -43t79 -19.5q73 0 113.5 35.5t40.5 83.5q20 0 35.5 -14t15.5 -35q0 -63 -49 -103.5t-121 -40.5q-42 0 -100 31t-116 61.5t-101 30.5q-73 0 -108.5 -36.5t-35.5 -84.5z" />
    <glyph glyph-name="Ograve" unicode="&#xd2;" horiz-adv-x="1818" 
d="M1731 3086q-61 -37 -92 -73.5t-34.5 -69.5t2 -61t14 -60.5t5.5 -54.5q-5 -46 -31.5 -63t-56.5 -15q-22 0 -50 19.5t-28 56.5q-1 56 26.5 113t70 101.5t83 76.5t76.5 51q19 9 24 -3q4 -11 -9 -18zM1620 2449q115 0 189.5 -46.5t102 -126t17.5 -182.5t-57 -220
q45 -115 51 -264t-22.5 -305.5t-88 -322t-141 -317t-187.5 -286.5t-221.5 -234t-248 -157t-262.5 -58q-151 0 -274.5 74t-205.5 222.5t-93 371.5t63 520q-126 82 -193 211t-67 279q0 113 35.5 215t94 178.5t135.5 141t159.5 108t166.5 74t156 44t129 13.5t65 -37
q7 -29 -20 -49q-18 -14 -41 -10q-10 2 -61.5 16t-94.5 12t-112 -22q-118 -35 -215 -93t-163.5 -128t-112 -152.5t-64 -166.5t-14.5 -169.5t31 -162.5t77.5 -144.5t120.5 -116.5q56 171 149 338.5t205.5 308t243.5 261t262.5 204.5t262.5 131t243 47zM1569 2390
q-157 0 -342.5 -113.5t-350.5 -294t-305.5 -414.5t-214.5 -466q208 -80 430.5 -43t423.5 150.5t357.5 275t232.5 330.5q-56 182 -205 182q-27 0 -41.5 -21t-15 -48t3.5 -52q3 -16 -9 -21t-22 13q-16 28 -19 64t8 70t46 57.5t88 23.5q125 0 213 -156q32 97 33 180t-30 146.5
t-102.5 100t-178.5 36.5zM756 -29q200 0 386.5 133t318.5 341t225 448t126.5 470.5t2.5 391.5q-92 -180 -256.5 -339t-366 -262t-422 -133.5t-424.5 44.5q-59 -218 -60.5 -418t50 -349t160.5 -238t260 -89z" />
    <glyph glyph-name="Oacute" unicode="&#xd3;" horiz-adv-x="1818" 
d="M1784 2712q61 37 92 73t34.5 69t-2 61t-14 61t-6.5 55q5 46 32 63t56 15q22 0 50.5 -19.5t29.5 -56.5q1 -56 -27 -113t-70.5 -101.5t-83.5 -76.5t-77 -51q-11 -6 -17.5 -3t-6 11t9.5 13zM1620 2449q115 0 189.5 -46.5t102 -126t17.5 -182.5t-57 -220q45 -115 51 -264
t-22.5 -305.5t-88 -322t-141 -317t-187.5 -286.5t-221.5 -234t-248 -157t-262.5 -58q-151 0 -274.5 74t-205.5 222.5t-93 371.5t63 520q-126 82 -193 211t-67 279q0 113 35.5 215t94 178.5t135.5 141t159.5 108t166.5 74t156 44t129 13.5t65 -37q7 -29 -20 -49
q-18 -14 -41 -10q-10 2 -61.5 16t-94.5 12t-112 -22q-118 -35 -215 -93t-163.5 -128t-112 -152.5t-64 -166.5t-14.5 -169.5t31 -162.5t77.5 -144.5t120.5 -116.5q56 171 149 338.5t205.5 308t243.5 261t262.5 204.5t262.5 131t243 47zM1569 2390q-157 0 -342.5 -113.5
t-350.5 -294t-305.5 -414.5t-214.5 -466q208 -80 430.5 -43t423.5 150.5t357.5 275t232.5 330.5q-56 182 -205 182q-27 0 -41.5 -21t-15 -48t3.5 -52q3 -16 -9 -21t-22 13q-16 28 -19 64t8 70t46 57.5t88 23.5q125 0 213 -156q32 97 33 180t-30 146.5t-102.5 100
t-178.5 36.5zM756 -29q200 0 386.5 133t318.5 341t225 448t126.5 470.5t2.5 391.5q-92 -180 -256.5 -339t-366 -262t-422 -133.5t-424.5 44.5q-59 -218 -60.5 -418t50 -349t160.5 -238t260 -89z" />
    <glyph glyph-name="Ocircumflex" unicode="&#xd4;" horiz-adv-x="1818" 
d="M1620 2449q115 0 189.5 -46.5t102 -126t17.5 -182.5t-57 -220q45 -115 51 -264t-22.5 -305.5t-88 -322t-141 -317t-187.5 -286.5t-221.5 -234t-248 -157t-262.5 -58q-151 0 -274.5 74t-205.5 222.5t-93 371.5t63 520q-126 82 -193 211t-67 279q0 113 35.5 215t94 178.5
t135.5 141t159.5 108t166.5 74t156 44t129 13.5t65 -37q7 -29 -20 -49q-18 -14 -41 -10q-10 2 -61.5 16t-94.5 12t-112 -22q-118 -35 -215 -93t-163.5 -128t-112 -152.5t-64 -166.5t-14.5 -169.5t31 -162.5t77.5 -144.5t120.5 -116.5q56 171 149 338.5t205.5 308t243.5 261
t262.5 204.5t262.5 131t243 47zM1569 2390q-157 0 -342.5 -113.5t-350.5 -294t-305.5 -414.5t-214.5 -466q208 -80 430.5 -43t423.5 150.5t357.5 275t232.5 330.5q-56 182 -205 182q-27 0 -41.5 -21t-15 -48t3.5 -52q3 -16 -9 -21t-22 13q-16 28 -19 64t8 70t46 57.5
t88 23.5q125 0 213 -156q32 97 33 180t-30 146.5t-102.5 100t-178.5 36.5zM756 -29q200 0 386.5 133t318.5 341t225 448t126.5 470.5t2.5 391.5q-92 -180 -256.5 -339t-366 -262t-422 -133.5t-424.5 44.5q-59 -218 -60.5 -418t50 -349t160.5 -238t260 -89zM1634 3029h19
q35 -57 103.5 -172.5t103.5 -173.5h-109q-84 134 -154 233q-55 -46 -151 -125t-131 -108h-62q81 75 227 207t154 139z" />
    <glyph glyph-name="Otilde" unicode="&#xd5;" horiz-adv-x="1818" 
d="M1620 2449q115 0 189.5 -46.5t102 -126t17.5 -182.5t-57 -220q45 -115 51 -264t-22.5 -305.5t-88 -322t-141 -317t-187.5 -286.5t-221.5 -234t-248 -157t-262.5 -58q-151 0 -274.5 74t-205.5 222.5t-93 371.5t63 520q-126 82 -193 211t-67 279q0 113 35.5 215t94 178.5
t135.5 141t159.5 108t166.5 74t156 44t129 13.5t65 -37q7 -29 -20 -49q-18 -14 -41 -10q-10 2 -61.5 16t-94.5 12t-112 -22q-118 -35 -215 -93t-163.5 -128t-112 -152.5t-64 -166.5t-14.5 -169.5t31 -162.5t77.5 -144.5t120.5 -116.5q56 171 149 338.5t205.5 308t243.5 261
t262.5 204.5t262.5 131t243 47zM1569 2390q-157 0 -342.5 -113.5t-350.5 -294t-305.5 -414.5t-214.5 -466q208 -80 430.5 -43t423.5 150.5t357.5 275t232.5 330.5q-56 182 -205 182q-27 0 -41.5 -21t-15 -48t3.5 -52q3 -16 -9 -21t-22 13q-16 28 -19 64t8 70t46 57.5
t88 23.5q125 0 213 -156q32 97 33 180t-30 146.5t-102.5 100t-178.5 36.5zM756 -29q200 0 386.5 133t318.5 341t225 448t126.5 470.5t2.5 391.5q-92 -180 -256.5 -339t-366 -262t-422 -133.5t-424.5 44.5q-59 -218 -60.5 -418t50 -349t160.5 -238t260 -89zM1270 2648
q-20 0 -33.5 16t-13.5 39q0 61 48 101.5t124 40.5q42 0 83.5 -19.5t70 -43t68.5 -43t79 -19.5q73 0 113 35.5t40 83.5q20 0 36 -14.5t16 -35.5q0 -63 -49 -103t-121 -40q-33 0 -77.5 19t-81 42.5t-81 42.5t-78.5 19q-73 0 -108 -36.5t-35 -84.5z" />
    <glyph glyph-name="Odieresis" unicode="&#xd6;" horiz-adv-x="1818" 
d="M1620 2449q115 0 189.5 -46.5t102 -126t17.5 -182.5t-57 -220q45 -115 51 -264t-22.5 -305.5t-88 -322t-141 -317t-187.5 -286.5t-221.5 -234t-248 -157t-262.5 -58q-151 0 -274.5 74t-205.5 222.5t-93 371.5t63 520q-126 82 -193 211t-67 279q0 113 35.5 215t94 178.5
t135.5 141t159.5 108t166.5 74t156 44t129 13.5t65 -37q7 -29 -20 -49q-18 -14 -41 -10q-10 2 -61.5 16t-94.5 12t-112 -22q-118 -35 -215 -93t-163.5 -128t-112 -152.5t-64 -166.5t-14.5 -169.5t31 -162.5t77.5 -144.5t120.5 -116.5q56 171 149 338.5t205.5 308t243.5 261
t262.5 204.5t262.5 131t243 47zM1569 2390q-157 0 -342.5 -113.5t-350.5 -294t-305.5 -414.5t-214.5 -466q208 -80 430.5 -43t423.5 150.5t357.5 275t232.5 330.5q-56 182 -205 182q-27 0 -41.5 -21t-15 -48t3.5 -52q3 -16 -9 -21t-22 13q-16 28 -19 64t8 70t46 57.5
t88 23.5q125 0 213 -156q32 97 33 180t-30 146.5t-102.5 100t-178.5 36.5zM756 -29q200 0 386.5 133t318.5 341t225 448t126.5 470.5t2.5 391.5q-92 -180 -256.5 -339t-366 -262t-422 -133.5t-424.5 44.5q-59 -218 -60.5 -418t50 -349t160.5 -238t260 -89zM1374 2732
q-35 0 -59.5 25t-24.5 59t24.5 59t59.5 25q34 0 59 -25t25 -59t-25 -59t-59 -25zM1851 2732q-35 0 -59.5 25t-24.5 59t24.5 59t59.5 25q34 0 59 -25t25 -59t-25 -59t-59 -25z" />
    <glyph glyph-name="multiply" unicode="&#xd7;" horiz-adv-x="1216" 
d="M1065 881l-377 -293l197 -277h-92l-164 230l-299 -232h-111l371 287l-203 285h92l170 -238l305 238h111z" />
    <glyph glyph-name="Oslash" unicode="&#xd8;" horiz-adv-x="1757" 
d="M1620 2449q23 0 33 -2q26 85 14 144q0 20 15 12q9 -5 20 -16q43 -47 29 -152q79 -21 128 -74t64 -128t2 -166.5t-53 -192.5q45 -115 51 -264t-22.5 -305.5t-88 -322t-141 -317t-187.5 -286.5t-221.5 -234t-248 -157t-262.5 -58q-74 0 -154 23q-21 -43 -39 -88
q-43 -104 -58.5 -169t-6.5 -112q3 -9 -5 -14q-10 -6 -30 18q-22 27 -30.5 68t3.5 111t51 155q3 7 13 29t16 35q-82 41 -147 108.5t-111 168.5t-65.5 225.5t-7 286t60.5 343.5q-126 82 -193 211t-67 279q0 113 35.5 215t94 178.5t135.5 141t159.5 108t166.5 74t156 44
t129 13.5t65 -37q7 -29 -20 -49q-18 -14 -41 -10q-10 2 -61.5 16t-94.5 12t-112 -22q-118 -35 -215 -93t-163.5 -128t-112 -152.5t-64 -166.5t-14.5 -169.5t31 -162.5t77.5 -144.5t120.5 -116.5q56 171 149 338.5t205.5 308t243.5 261t262.5 204.5t262.5 131t243 47z
M756 -29q200 0 386.5 133t318.5 341t225 448t126.5 470.5t2.5 391.5q-97 -190 -273 -354.5t-391 -265.5q-117 -251 -304 -648.5t-231 -492.5q71 -23 140 -23zM1569 2390q-157 0 -342.5 -113.5t-350.5 -294t-305.5 -414.5t-214.5 -466q314 -124 697 31q526 1121 546 1169
q3 7 15.5 38t17.5 46q-40 4 -63 4zM535 33q128 276 493 1050q-371 -135 -682 -18q-96 -348 -44 -633t233 -399zM1503 1884q-250 -535 -323 -692q209 111 375 279.5t245 343.5q-56 182 -205 182q-27 0 -41.5 -21t-15 -48t3.5 -52q3 -16 -9 -21t-22 13q-4 4 -8 16zM1675 2255
q-26 -53 -82 -176q24 4 41 4q125 0 213 -156q33 104 33.5 190.5t-41.5 152t-123 95.5q-16 -54 -41 -110z" />
    <glyph glyph-name="Ugrave" unicode="&#xd9;" horiz-adv-x="1794" 
d="M1761 1042q34 0 33 -12q-1 -6 -6 -8q-61 -42 -111.5 -157t-163.5 -439q-59 -167 -68 -235q-17 -125 68 -125q101 0 195 161q2 4 6 4.5t7 -3t1 -9.5q-33 -92 -110 -161.5t-168 -69.5q-121 0 -131 120t100 367h-6q-28 -43 -51 -77t-64.5 -87.5t-80.5 -94t-94 -86.5
t-109.5 -75.5t-121.5 -49t-136 -19.5q-55 0 -98 8t-70.5 25.5t-46 38.5t-24 52t-6.5 60.5t9 71.5t20.5 76.5t30.5 83t36 84.5t39 87q1 1 1 2q180 401 263 637q386 1093 -188 1198q-61 11 -130 11q-149 0 -281.5 -58t-227.5 -154t-161.5 -221.5t-94 -259t-13 -268t70 -247.5
t166 -198.5t264.5 -119.5q51 -13 85.5 -7t48.5 18t29.5 26t29.5 16q40 9 53 -21t-16 -53q-18 -14 -56.5 -22t-92 -7t-116.5 11t-129.5 36.5t-130 65t-119 100.5t-96.5 139t-63 185t-17 234q4 121 46 242.5t119.5 229t180 191t237 132.5t280.5 49q151 0 266 -51.5t187 -158
t96.5 -259.5t-9 -366.5t-127.5 -469.5q-59 -161 -211 -509q-121 -276 -147 -387q-39 -165 48 -210q39 -20 103 -20q92 0 190.5 52.5t181.5 135t158.5 185t128.5 201.5t85 185q95 254 229 254zM1505 1638q-61 -37 -92 -73.5t-34.5 -69.5t2.5 -61t14.5 -60.5t5.5 -54.5
q-5 -46 -31.5 -63t-56.5 -15q-22 0 -50 19.5t-28 56.5q-1 56 26.5 113t70 101.5t83 76.5t76.5 51q12 5 18.5 2t5.5 -10.5t-10 -12.5z" />
    <glyph glyph-name="Uacute" unicode="&#xda;" horiz-adv-x="1794" 
d="M1436 1294q-14 -8 -8.5 -19t22.5 -1q36 19 77 51t83.5 76.5t70.5 101.5t27 113q-1 37 -29.5 56.5t-50.5 19.5q-29 2 -56 -15t-32 -63q-2 -22 6.5 -55t14 -61t2 -61t-34.5 -69.5t-92 -73.5zM1761 1042q34 0 33 -12q-1 -6 -6 -8q-61 -42 -111.5 -157t-163.5 -439
q-59 -167 -68 -235q-17 -125 68 -125q101 0 195 161q2 4 6 4.5t7 -3t1 -9.5q-33 -92 -110 -161.5t-168 -69.5q-121 0 -131 120t100 367h-6q-28 -43 -51 -77t-64.5 -87.5t-80.5 -94t-94 -86.5t-109.5 -75.5t-121.5 -49t-136 -19.5q-55 0 -98 8t-70.5 25.5t-46 38.5t-24 52
t-6.5 60.5t9 71.5t20.5 76.5t30.5 83t36 84.5t39 87q1 1 1 2q180 401 263 637q386 1093 -188 1198q-61 11 -130 11q-149 0 -281.5 -58t-227.5 -154t-161.5 -221.5t-94 -259t-13 -268t70 -247.5t166 -198.5t264.5 -119.5q51 -13 85.5 -7t48.5 18t29.5 26t29.5 16q40 9 53 -21
t-16 -53q-18 -14 -56.5 -22t-92 -7t-116.5 11t-129.5 36.5t-130 65t-119 100.5t-96.5 139t-63 185t-17 234q4 121 46 242.5t119.5 229t180 191t237 132.5t280.5 49q151 0 266 -51.5t187 -158t96.5 -259.5t-9 -366.5t-127.5 -469.5q-59 -161 -211 -509q-121 -276 -147 -387
q-39 -165 48 -210q39 -20 103 -20q92 0 190.5 52.5t181.5 135t158.5 185t128.5 201.5t85 185q95 254 229 254z" />
    <glyph glyph-name="Ucircumflex" unicode="&#xdb;" horiz-adv-x="1794" 
d="M1761 1042q34 0 33 -12q-1 -6 -6 -8q-61 -42 -111.5 -157t-163.5 -439q-59 -167 -68 -235q-17 -125 68 -125q101 0 195 161q2 4 6 4.5t7 -3t1 -9.5q-33 -92 -110 -161.5t-168 -69.5q-121 0 -131 120t100 367h-6q-28 -43 -51 -77t-64.5 -87.5t-80.5 -94t-94 -86.5
t-109.5 -75.5t-121.5 -49t-136 -19.5q-55 0 -98 8t-70.5 25.5t-46 38.5t-24 52t-6.5 60.5t9 71.5t20.5 76.5t30.5 83t36 84.5t39 87q1 1 1 2q180 401 263 637q386 1093 -188 1198q-61 11 -130 11q-149 0 -281.5 -58t-227.5 -154t-161.5 -221.5t-94 -259t-13 -268t70 -247.5
t166 -198.5t264.5 -119.5q51 -13 85.5 -7t48.5 18t29.5 26t29.5 16q40 9 53 -21t-16 -53q-18 -14 -56.5 -22t-92 -7t-116.5 11t-129.5 36.5t-130 65t-119 100.5t-96.5 139t-63 185t-17 234q4 121 46 242.5t119.5 229t180 191t237 132.5t280.5 49q151 0 266 -51.5t187 -158
t96.5 -259.5t-9 -366.5t-127.5 -469.5q-59 -161 -211 -509q-121 -276 -147 -387q-39 -165 48 -210q39 -20 103 -20q92 0 190.5 52.5t181.5 135t158.5 185t128.5 201.5t85 185q95 254 229 254zM1499 2755h19q35 -58 103 -173.5t103 -173.5h-108q-90 143 -154 234l-282 -234
h-62q347 320 381 347z" />
    <glyph glyph-name="Udieresis" unicode="&#xdc;" horiz-adv-x="1824" 
d="M1257 2456q-35 0 -59 25t-24 59t24 58.5t59 24.5q34 0 59 -24.5t25 -58.5t-25 -59t-59 -25zM1735 2456q-35 0 -59.5 25t-24.5 59t24.5 58.5t59.5 24.5q34 0 59 -24.5t25 -58.5t-25 -59t-59 -25zM1761 1042q34 0 33 -12q-1 -6 -6 -8q-61 -42 -111.5 -157t-163.5 -439
q-59 -167 -68 -235q-17 -125 68 -125q101 0 195 161q2 4 6 4.5t7 -3t1 -9.5q-33 -92 -110 -161.5t-168 -69.5q-121 0 -131 120t100 367h-6q-28 -43 -51 -77t-64.5 -87.5t-80.5 -94t-94 -86.5t-109.5 -75.5t-121.5 -49t-136 -19.5q-55 0 -98 8t-70.5 25.5t-46 38.5t-24 52
t-6.5 60.5t9 71.5t20.5 76.5t30.5 83t36 84.5t39 87q1 1 1 2q180 401 263 637q386 1093 -188 1198q-61 11 -130 11q-149 0 -281.5 -58t-227.5 -154t-161.5 -221.5t-94 -259t-13 -268t70 -247.5t166 -198.5t264.5 -119.5q51 -13 85.5 -7t48.5 18t29.5 26t29.5 16q40 9 53 -21
t-16 -53q-18 -14 -56.5 -22t-92 -7t-116.5 11t-129.5 36.5t-130 65t-119 100.5t-96.5 139t-63 185t-17 234q4 121 46 242.5t119.5 229t180 191t237 132.5t280.5 49q151 0 266 -51.5t187 -158t96.5 -259.5t-9 -366.5t-127.5 -469.5q-59 -161 -211 -509q-121 -276 -147 -387
q-39 -165 48 -210q39 -20 103 -20q92 0 190.5 52.5t181.5 135t158.5 185t128.5 201.5t85 185q95 254 229 254z" />
    <glyph glyph-name="Yacute" unicode="&#xdd;" horiz-adv-x="2185" 
d="M1747 1255q61 37 92 73.5t34.5 69.5t-2 61t-14 61t-6.5 55q5 46 32 63t56 15q21 0 50 -19.5t30 -56.5q1 -56 -27 -113t-70.5 -101.5t-83.5 -76.5t-77 -51q-17 -10 -22.5 1t8.5 19zM1767 -113q232 8 416 -18t297.5 -78t172.5 -119.5t59 -146.5q0 -47 -19 -88.5t-48 -69
t-55 -44t-50 -25.5q-45 -16 -57 -6q-6 5 8 9q2 1 3 1q48 14 90 64t42 138q0 115 -107.5 196.5t-304.5 120t-461 29.5q-96 -227 -201.5 -397t-208.5 -277t-219.5 -173t-226 -91.5t-235.5 -25.5q-183 0 -308 82t-125 209q0 101 60.5 194t166 165.5t245 133.5t301.5 103.5
t331 70t338 37.5q80 211 193 594h-4q-27 -44 -48.5 -77t-62 -87.5t-77.5 -94.5t-91 -86t-107 -75t-119.5 -49t-135.5 -20q-232 0 -250 158q-11 103 76 322q14 35 45 109q170 410 247 657q326 1047 -210 1172q-71 17 -158 17q-149 0 -279.5 -58t-222 -154t-153.5 -221.5
t-85 -259t-3.5 -268t78.5 -247.5t172.5 -198.5t268.5 -119.5q52 -13 86.5 -6.5t48.5 18t28.5 25.5t27.5 16q41 9 54.5 -20.5t-15.5 -53.5q-17 -14 -55 -22t-91.5 -7t-116.5 11t-130 36.5t-132 65t-122.5 100.5t-101.5 139t-69.5 185t-25.5 234q0 121 37.5 242.5t111.5 229
t173 191t232 132.5t280 49q151 0 267.5 -51.5t192.5 -158t105.5 -260t3.5 -367.5t-111 -470q-32 -95 -73 -204t-75.5 -193t-70.5 -174t-60 -158t-41 -133.5t-16.5 -111t15.5 -81t53.5 -52.5t99.5 -17q92 0 189 52.5t176.5 135t151.5 185t121.5 201.5t78.5 185
q85 254 221 254q20 0 27 -5t5.5 -9t-5.5 -8q-70 -43 -121 -161t-147 -441q-82 -279 -185 -531zM737 -1069q136 0 258 50t215.5 132t178.5 203t147 247t121 281q-367 -22 -670.5 -115t-478 -235t-174.5 -301q0 -115 108.5 -188.5t294.5 -73.5z" />
    <glyph glyph-name="Thorn" unicode="&#xde;" horiz-adv-x="2648" 
d="M2388 2417q370 -33 594.5 -221.5t224.5 -477.5q0 -169 -77.5 -328t-204 -273.5t-295 -183.5t-344.5 -69q-189 0 -250 77q-37 48 -9 96q9 15 23 26q15 13 26 8q7 -3 -1 -14q-7 -11 -8 -25t5.5 -28.5t18.5 -28.5t32.5 -26.5t47 -22.5t62.5 -15.5t77 -5.5q157 0 301 64
t248.5 171.5t166.5 255t62 308.5q0 127 -38 232t-100 176t-150 124t-180 82t-197 43q-22 3 -34.5 -2t-16.5 -12t-9 -23q-8 -24 -124 -385.5t-237 -732.5t-167 -497q-29 -79 -64 -156t-87 -166t-110 -165.5t-135 -149.5t-161 -124.5t-189 -82.5t-217 -31q-186 0 -335 47
t-243.5 125.5t-153.5 183t-73 218t7.5 231.5t77.5 223t148 193t208 141q15 123 65 248.5t135 245.5t197 229.5t258 201t311 159t362 105.5t405 38h28q47 159 106 289t120.5 217.5t127.5 147t128.5 86t123.5 26.5q136 7 239 -41q89 -42 82 -97q-2 -24 -24 -47q-8 -9 -20 -15
t-30.5 -3.5t-35.5 16.5q-14 13 -32 43t-33.5 52t-53.5 40.5t-94 18.5q-143 0 -266.5 -197t-218.5 -542zM2238 2331q12 43 -36 43q-113 -2 -231.5 -17.5t-261.5 -52.5t-275.5 -92.5t-266 -145.5t-239.5 -203.5t-189.5 -274.5t-122.5 -351q113 29 228 29q279 0 390 -141
q80 -102 48 -238q-28 -122 -128 -203q-97 -78 -218 -78q-103 0 -186 46.5t-134.5 124t-79 171t-28.5 193.5q-94 -56 -166 -142t-114 -185t-55.5 -208t3 -213t70 -199t137 -166t212 -113t286.5 -42q79 0 161 22.5t180.5 82.5t186.5 153t175 247.5t151 352.5
q350 1090 503 1600zM612 1190q-4 -76 5.5 -150.5t35.5 -142.5t64 -120.5t95.5 -83.5t125.5 -31q131 0 222 98q81 86 84 196q3 124 -100 200q-106 77 -296 77q-121 0 -236 -43z" />
    <glyph glyph-name="germandbls" unicode="&#xdf;" horiz-adv-x="1103" 
d="M1366 1542q0 -36 -7 -69.5t-18.5 -63.5t-36.5 -62t-48.5 -58.5t-66 -61.5t-79.5 -62.5t-98.5 -68.5t-112 -73t-131.5 -83q-32 -21 -50.5 -45.5t-24 -46t-0.5 -48t13 -45t24.5 -42t25.5 -34.5t24 -28q24 -27 77.5 -80t82.5 -85.5t56 -85t30 -105.5q1 -25 -6.5 -59
t-32 -78.5t-62.5 -80.5t-106 -61.5t-155 -25.5q-129 0 -207 55t-70 174q5 91 62 109q41 14 75 -18q31 -29 21 -72q-6 -30 -27.5 -64t-21.5 -57q0 -41 54 -72t101 -31q49 0 95 13.5t87 40.5t66 76.5t25 113.5q0 40 -26 85.5t-57 79.5t-82 86.5t-77 84.5q-58 67 -78 109
q-78 165 125 296q56 36 136 83.5t127.5 76.5t106 68t92 70t65.5 70t45.5 81t13.5 90q0 80 -51.5 132t-141.5 52q-102 0 -193 -42.5t-159.5 -111t-131 -170t-106 -202.5t-87 -227.5t-71 -225t-61.5 -215t-55 -180.5q-39 -116 -81 -197.5t-75.5 -117t-63 -50t-46 -11.5
t-21.5 12q-2 3 2.5 8t14 16.5t21 27t27.5 43.5t30 62q48 118 101 275t91.5 284.5t89.5 271.5t99 255t116.5 216.5t145.5 174t182.5 109.5t230.5 40q107 -1 175.5 -64.5t68.5 -160.5z" />
    <glyph glyph-name="agrave" unicode="&#xe0;" horiz-adv-x="1105" 
d="M1028 1626q-61 -37 -92 -73.5t-34.5 -69.5t2.5 -61t14.5 -60.5t5.5 -54.5q-5 -46 -31.5 -63t-56.5 -15q-22 0 -50 19.5t-28 56.5q-1 56 26.5 113t70 101.5t83 76.5t76.5 51q12 5 18.5 2t5.5 -10.5t-10 -12.5zM854 426q-48 -155 -57 -210q-24 -153 73 -153t185 162
q5 8 11.5 5.5t2.5 -13.5q-29 -92 -99.5 -161.5t-160.5 -69.5q-55 0 -88 25t-43 62t-6 87t15 93t28 87h-6q-21 -50 -60 -108t-92.5 -114t-121.5 -93t-134 -37q-67 0 -116.5 24.5t-76.5 65.5t-40 86.5t-13 95.5q0 94 38.5 205t103 212.5t142.5 186t165 135t162 50.5
q20 0 41 -4t50 -20t50 -42.5t36.5 -77t14.5 -117.5h4q81 238 213 238q37 0 35 -12q-2 -4 -6 -8q-58 -37 -98.5 -133t-125.5 -364q-17 -54 -26 -83zM682 1008q-128 0 -265 -161q-127 -147 -195 -345q-72 -210 -27 -332q40 -109 167 -109q73 0 153 71.5t144 177t105 222.5
q31 88 45 162t11.5 124t-14 88.5t-33 59.5t-44 31.5t-47.5 10.5z" />
    <glyph glyph-name="aacute" unicode="&#xe1;" horiz-adv-x="1105" 
d="M788 1241q61 37 92.5 73.5t35 69.5t-2 61t-14 61t-6.5 55q5 46 32 62.5t56 14.5q22 0 50.5 -19t29.5 -56q1 -56 -27 -113t-70.5 -101.5t-83.5 -76.5t-77 -51q-17 -10 -23 1t8 19zM854 426q-48 -155 -57 -210q-24 -153 73 -153t185 162q5 8 11.5 5.5t2.5 -13.5
q-29 -92 -99.5 -161.5t-160.5 -69.5q-55 0 -88 25t-43 62t-6 87t15 93t28 87h-6q-21 -50 -60 -108t-92.5 -114t-121.5 -93t-134 -37q-67 0 -116.5 24.5t-76.5 65.5t-40 86.5t-13 95.5q0 94 38.5 205t103 212.5t142.5 186t165 135t162 50.5q20 0 41 -4t50 -20t50 -42.5
t36.5 -77t14.5 -117.5h4q81 238 213 238q37 0 35 -12q-2 -4 -6 -8q-58 -37 -98.5 -133t-125.5 -364q-17 -54 -26 -83zM682 1008q-128 0 -265 -161q-127 -147 -195 -345q-72 -210 -27 -332q40 -109 167 -109q73 0 153 71.5t144 177t105 222.5q31 88 45 162t11.5 124t-14 88.5
t-33 59.5t-44 31.5t-47.5 10.5z" />
    <glyph glyph-name="acircumflex" unicode="&#xe2;" horiz-adv-x="1105" 
d="M836 1583h18q35 -57 103.5 -172.5t103.5 -173.5h-109q-92 147 -153 233q-54 -45 -149 -122.5t-134 -110.5h-61q81 75 227 207t154 139zM854 426q-48 -155 -57 -210q-24 -153 73 -153t185 162q5 8 11.5 5.5t2.5 -13.5q-29 -92 -99.5 -161.5t-160.5 -69.5q-55 0 -88 25
t-43 62t-6 87t15 93t28 87h-6q-21 -50 -60 -108t-92.5 -114t-121.5 -93t-134 -37q-67 0 -116.5 24.5t-76.5 65.5t-40 86.5t-13 95.5q0 94 38.5 205t103 212.5t142.5 186t165 135t162 50.5q20 0 41 -4t50 -20t50 -42.5t36.5 -77t14.5 -117.5h4q81 238 213 238q37 0 35 -12
q-2 -4 -6 -8q-58 -37 -98.5 -133t-125.5 -364q-17 -54 -26 -83zM682 1008q-128 0 -265 -161q-127 -147 -195 -345q-72 -210 -27 -332q40 -109 167 -109q73 0 153 71.5t144 177t105 222.5q31 88 45 162t11.5 124t-14 88.5t-33 59.5t-44 31.5t-47.5 10.5z" />
    <glyph glyph-name="atilde" unicode="&#xe3;" horiz-adv-x="1107" 
d="M494 1202q-20 0 -34 16t-14 39q0 61 48 101.5t124 40.5q42 0 83.5 -19.5t70.5 -43t69 -43t79 -19.5q73 0 113 35.5t40 83.5q20 0 35.5 -14.5t15.5 -35.5q0 -63 -49 -103t-121 -40q-42 0 -100 31t-116 61.5t-101 30.5q-73 0 -108 -36.5t-35 -84.5zM889 426
q-48 -155 -57 -210q-24 -153 73 -153t185 162q5 8 11.5 5.5t2.5 -13.5q-29 -92 -99.5 -161.5t-160.5 -69.5q-55 0 -88 25t-43 62t-6 87t15 93t28 87h-7q-21 -50 -60 -108t-92 -114t-121 -93t-134 -37q-67 0 -116.5 24.5t-76.5 65.5t-40 86.5t-13 95.5q0 94 38 205t103 212.5
t142.5 186t164.5 135t162 50.5q20 0 41 -4t50 -20t50.5 -42.5t37 -77t14.5 -117.5h4q81 238 213 238q37 0 35 -12q-2 -4 -6 -8q-58 -37 -98.5 -133t-125.5 -364q-17 -54 -26 -83zM717 1008q-128 0 -265 -161q-127 -147 -195 -345q-72 -210 -27 -332q40 -109 167 -109
q73 0 153 71.5t144 177t105 222.5q31 88 45 162t11.5 124t-14 88.5t-33 59.5t-44 31.5t-47.5 10.5z" />
    <glyph glyph-name="adieresis" unicode="&#xe4;" horiz-adv-x="1116" 
d="M559 1255q-35 0 -59.5 25t-24.5 59t24.5 59t59.5 25q34 0 59 -25t25 -59t-25 -59t-59 -25zM1036 1255q-35 0 -59.5 25t-24.5 59t24.5 59t59.5 25q34 0 59 -25t25 -59t-25 -59t-59 -25zM854 426q-48 -155 -57 -210q-24 -153 73 -153t185 162q5 8 11.5 5.5t2.5 -13.5
q-29 -92 -99.5 -161.5t-160.5 -69.5q-55 0 -88 25t-43 62t-6 87t15 93t28 87h-6q-21 -50 -60 -108t-92.5 -114t-121.5 -93t-134 -37q-67 0 -116.5 24.5t-76.5 65.5t-40 86.5t-13 95.5q0 94 38.5 205t103 212.5t142.5 186t165 135t162 50.5q20 0 41 -4t50 -20t50 -42.5
t36.5 -77t14.5 -117.5h4q81 238 213 238q37 0 35 -12q-2 -4 -6 -8q-58 -37 -98.5 -133t-125.5 -364q-17 -54 -26 -83zM682 1008q-128 0 -265 -161q-127 -147 -195 -345q-72 -210 -27 -332q40 -109 167 -109q73 0 153 71.5t144 177t105 222.5q31 88 45 162t11.5 124t-14 88.5
t-33 59.5t-44 31.5t-47.5 10.5z" />
    <glyph glyph-name="aring" unicode="&#xe5;" horiz-adv-x="1105" 
d="M1104 1440q-12 -69 -57 -115.5t-101.5 -66t-122.5 -21.5q-93 -3 -134 55t-19 129q25 84 77.5 127.5t139.5 61.5q98 20 163.5 -33.5t53.5 -136.5zM946 1583q-59 14 -107.5 -25t-74.5 -110q-24 -60 -7 -112.5t70 -65.5q58 -13 108 27t71 110q22 63 6.5 113t-66.5 63z
M854 426q-48 -155 -57 -210q-24 -153 73 -153t185 162q5 8 11.5 5.5t2.5 -13.5q-29 -92 -99.5 -161.5t-160.5 -69.5q-55 0 -88 25t-43 62t-6 87t15 93t28 87h-6q-21 -50 -60 -108t-92.5 -114t-121.5 -93t-134 -37q-67 0 -116.5 24.5t-76.5 65.5t-40 86.5t-13 95.5
q0 94 38.5 205t103 212.5t142.5 186t165 135t162 50.5q20 0 41 -4t50 -20t50 -42.5t36.5 -77t14.5 -117.5h4q81 238 213 238q37 0 35 -12q-2 -4 -6 -8q-58 -37 -98.5 -133t-125.5 -364q-17 -54 -26 -83zM682 1008q-128 0 -265 -161q-127 -147 -195 -345q-72 -210 -27 -332
q40 -109 167 -109q73 0 153 71.5t144 177t105 222.5q31 88 45 162t11.5 124t-14 88.5t-33 59.5t-44 31.5t-47.5 10.5z" />
    <glyph glyph-name="ae" unicode="&#xe6;" horiz-adv-x="1552" 
d="M1335 1049q110 20 181.5 -38t68.5 -153q-2 -54 -30 -106.5t-69 -96t-104.5 -88.5t-122.5 -78.5t-140 -71.5t-138.5 -61.5t-134.5 -54.5q-2 -110 45 -173t139 -69q105 -9 214.5 83t178.5 225q5 9 11.5 10.5t10.5 -4t1 -13.5q-12 -39 -41.5 -89t-76.5 -102.5t-102 -95.5
t-125 -67.5t-138 -17.5q-95 10 -154 60.5t-78 124.5t-6 167v-2h-4q-20 -49 -61.5 -108.5t-96.5 -116.5t-124.5 -93.5t-133.5 -33.5q-67 4 -115 29t-73.5 65.5t-37 84.5t-11.5 95q0 117 58.5 257t146 255t196.5 194t203 83q21 1 43 -3.5t51.5 -21t52 -43t38 -77t15.5 -116.5
q2 0 9.5 1t10.5 1.5t9.5 1.5t10 2.5t10 4t11.5 5.5t11.5 7.5t13.5 10t15 12.5q167 182 362 215zM348 63q48 -8 100.5 16.5t99 71t90.5 109.5t79 132t59 138q36 105 48.5 189.5t4.5 137t-30 88t-48.5 49.5t-56.5 14q-120 2 -255 -152q-128 -144 -199 -338q-79 -211 -34 -338
q34 -100 142 -117zM1481 848q10 70 -23 115.5t-96 50.5q-90 1 -174 -55.5t-142.5 -139.5t-103.5 -179t-68 -175t-26 -127q581 214 633 510z" />
    <glyph glyph-name="ccedilla" unicode="&#xe7;" horiz-adv-x="944" 
d="M748 1061q63 0 114 -19.5t79.5 -50.5t41.5 -68.5t5.5 -76.5t-34.5 -70q-28 -32 -69 -36t-70 24q-24 23 -29 50.5t3.5 48t23.5 34.5q33 28 40 59.5t-19 54.5t-82 23q-142 0 -278 -162q-122 -146 -180 -345q-61 -208 -11 -338q49 -126 194 -126q116 0 212 87.5t163 222.5
q5 12 12 15t10 -3t0 -18q-17 -51 -56.5 -113.5t-96 -124t-133.5 -103t-154 -42.5q-10 -27 -10 -201q0 -96 -62 -164t-139 -68q-49 0 -89.5 24.5t-59.5 59.5t-16.5 76.5t32.5 73.5l16 -18q-43 -44 -16 -92t90 -48q58 0 98 25.5t60 69.5t31 87.5t22 96t21 78.5q-121 8 -196 90
t-75 237q0 78 24.5 166t67 170.5t101.5 158t125 132t141.5 90t147.5 33.5z" />
    <glyph glyph-name="egrave" unicode="&#xe8;" horiz-adv-x="886" 
d="M907 864q0 -147 -194.5 -289t-544.5 -274q-5 -104 43 -173t149 -69q44 0 87 14.5t75 33.5t66.5 52t54 56t45 60.5t33 50t22.5 39.5q12 19 20.5 13t2.5 -24q-5 -17 -24 -53t-60 -91.5t-91 -103.5t-124 -83t-152 -35q-195 0 -251 154q-50 139 25 349q74 204 222 361
q172 181 358 201q20 2 40 2q84 0 141 -56t57 -135zM674 1014q-73 0 -147 -43.5t-134 -115t-108.5 -159.5t-78 -181t-36.5 -175q397 138 556 339q97 121 78 226q-13 74 -78 100q-24 9 -52 9zM848 1626q-61 -37 -92 -73.5t-34.5 -69.5t2 -61t14 -60.5t5.5 -54.5
q-5 -46 -31.5 -63t-56.5 -15q-21 0 -49 19.5t-28 56.5q-1 56 26.5 113t70 101.5t83 76.5t76.5 51q12 5 18.5 2t5.5 -10.5t-10 -12.5z" />
    <glyph glyph-name="eacute" unicode="&#xe9;" horiz-adv-x="886" 
d="M754 1241q61 37 92 73.5t34.5 69.5t-2 61t-14 61t-6.5 55q5 46 32 62.5t56 14.5q22 0 50.5 -19t29.5 -56q1 -56 -27 -113t-70.5 -101.5t-83.5 -76.5t-77 -51q-17 -10 -22.5 1t8.5 19zM907 864q0 -147 -194.5 -289t-544.5 -274q-5 -104 43 -173t149 -69q44 0 87 14.5
t75 33.5t66.5 52t54 56t45 60.5t33 50t22.5 39.5q12 19 20.5 13t2.5 -24q-5 -17 -24 -53t-60 -91.5t-91 -103.5t-124 -83t-152 -35q-195 0 -251 154q-50 139 25 349q74 204 222 361q172 181 358 201q20 2 40 2q84 0 141 -56t57 -135zM674 1014q-73 0 -147 -43.5t-134 -115
t-108.5 -159.5t-78 -181t-36.5 -175q397 138 556 339q97 121 78 226q-13 74 -78 100q-24 9 -52 9z" />
    <glyph glyph-name="ecircumflex" unicode="&#xea;" horiz-adv-x="909" 
d="M907 864q0 -147 -194.5 -289t-544.5 -274q-5 -104 43 -173t149 -69q44 0 87 14.5t75 33.5t66.5 52t54 56t45 60.5t33 50t22.5 39.5q12 19 20.5 13t2.5 -24q-5 -17 -24 -53t-60 -91.5t-91 -103.5t-124 -83t-152 -35q-195 0 -251 154q-50 139 25 349q74 204 222 361
q172 181 358 201q20 2 40 2q84 0 141 -56t57 -135zM674 1014q-73 0 -147 -43.5t-134 -115t-108.5 -159.5t-78 -181t-36.5 -175q397 138 556 339q97 121 78 226q-13 74 -78 100q-24 9 -52 9zM707 1583h18q35 -57 103.5 -172.5t103.5 -173.5h-109q-92 147 -153 233
q-54 -45 -149 -122.5t-134 -110.5h-61q81 75 227 207t154 139z" />
    <glyph glyph-name="edieresis" unicode="&#xeb;" horiz-adv-x="962" 
d="M907 864q0 -147 -194.5 -289t-544.5 -274q-5 -104 43 -173t149 -69q44 0 87 14.5t75 33.5t66.5 52t54 56t45 60.5t33 50t22.5 39.5q12 19 20.5 13t2.5 -24q-5 -17 -24 -53t-60 -91.5t-91 -103.5t-124 -83t-152 -35q-195 0 -251 154q-50 139 25 349q74 204 222 361
q172 181 358 201q20 2 40 2q84 0 141 -56t57 -135zM674 1014q-73 0 -147 -43.5t-134 -115t-108.5 -159.5t-78 -181t-36.5 -175q397 138 556 339q97 121 78 226q-13 74 -78 100q-24 9 -52 9zM424 1255q-35 0 -59.5 25t-24.5 59t24.5 59t59.5 25q34 0 59 -25t25 -59t-25 -59
t-59 -25zM901 1255q-35 0 -59.5 25t-24.5 59t24.5 59t59.5 25q34 0 59 -25t25 -59t-25 -59t-59 -25z" />
    <glyph glyph-name="igrave" unicode="&#xec;" horiz-adv-x="485" 
d="M129 934q-5 5 2 16q37 35 102 67.5t113 31.5q59 -1 90 -30t31.5 -75.5t-16.5 -105.5q-20 -60 -121.5 -316.5t-116.5 -318.5q-13 -47 3.5 -93.5t66.5 -46.5q25 -1 49 9.5t40 22.5t39 39.5t32 41t32 47.5q10 12 16 5q2 -4 1 -9q-37 -93 -112.5 -161t-162.5 -72
q-99 -3 -126.5 75t18.5 195q17 45 112.5 284t124.5 314q28 85 9.5 123.5t-75 27.5t-124.5 -69q-18 -15 -27 -2zM649 1626q-61 -37 -92 -73.5t-34.5 -69.5t2.5 -61t14.5 -60.5t5.5 -54.5q-5 -46 -31.5 -63t-56.5 -15q-22 0 -50 19.5t-28 56.5q-1 56 26.5 113t70 101.5
t83 76.5t76.5 51q12 5 18.5 2t5.5 -10.5t-10 -12.5z" />
    <glyph glyph-name="iacute" unicode="&#xed;" horiz-adv-x="546" 
d="M129 934q-5 5 2 16q37 35 102 67.5t113 31.5q59 -1 89 -30t29 -75.5t-18 -105.5q-20 -59 -121 -316t-116 -319q-13 -47 3.5 -93.5t66.5 -46.5q25 -1 49 9.5t40 22.5t39 39.5t32 41t32 47.5q11 14 16 5q2 -4 0 -9q-38 -93 -112.5 -161t-161.5 -72q-64 -3 -98 32.5
t-33.5 96.5t27.5 141q17 45 112.5 284t124.5 314q28 85 9.5 123.5t-75 27.5t-124.5 -69q-18 -15 -27 -2zM465 1241q61 37 92 73.5t34.5 69.5t-2 61t-14 61t-6.5 55q5 46 32 62.5t56 14.5q22 0 50.5 -19t29.5 -56q1 -56 -27 -113t-70.5 -101.5t-83.5 -76.5t-77 -51
q-17 -10 -22.5 1t8.5 19z" />
    <glyph glyph-name="icircumflex" unicode="&#xee;" horiz-adv-x="608" 
d="M150 934q-5 5 2 16q37 35 102 67.5t113 31.5q59 -1 89 -30t29 -75.5t-18 -105.5q-20 -60 -121.5 -316.5t-116.5 -318.5q-13 -47 3.5 -93.5t66.5 -46.5q31 -1 58 11.5t53.5 41.5t40.5 48t41 59q11 14 16 5q2 -4 0 -9q-37 -93 -112.5 -161t-162.5 -72q-64 -3 -98 32.5
t-33.5 96.5t27.5 141q17 45 113 284t125 314q28 85 9 123.5t-75.5 27.5t-124.5 -69q-18 -15 -26 -2zM461 1583h18q35 -57 103.5 -172.5t103.5 -173.5h-108q-84 134 -154 233q-54 -45 -149 -122.5t-134 -110.5h-61q81 75 227 207t154 139z" />
    <glyph glyph-name="idieresis" unicode="&#xef;" horiz-adv-x="677" 
d="M129 934q-5 5 2 16q37 35 102 67.5t113 31.5q59 -1 89 -30t29 -75.5t-18 -105.5q-20 -59 -121 -316t-116 -319q-13 -47 3.5 -93.5t66.5 -46.5q25 -1 49 9.5t40 22.5t39 39.5t32 41t32 47.5q11 14 16 5q2 -4 0 -9q-38 -93 -112.5 -161t-161.5 -72q-64 -3 -98 32.5
t-33.5 96.5t27.5 141q17 45 112.5 284t124.5 314q28 85 9.5 123.5t-75 27.5t-124.5 -69q-18 -15 -27 -2zM195 1255q-35 0 -59.5 25t-24.5 59t24.5 59t59.5 25q34 0 59 -25t25 -59t-25 -59t-59 -25zM672 1255q-35 0 -59.5 25t-24.5 59t24.5 59t59.5 25q34 0 59 -25t25 -59
t-25 -59t-59 -25z" />
    <glyph glyph-name="eth" unicode="&#xf0;" horiz-adv-x="983" 
d="M1044 1464q28 11 35.5 -5.5t-22.5 -28.5q-9 -3 -39.5 -15t-78.5 -30.5t-89 -34.5q58 -83 89 -188.5t29.5 -259t-46.5 -329.5q-24 -93 -65.5 -182.5t-101.5 -169t-130.5 -136t-157.5 -81.5t-176 -8q-141 28 -186 180q-45 153 19 363q65 212 203 356q166 174 364 160l32 -4
q94 -14 151 -84q6 235 -65 366q-292 -111 -320 -121q-15 -6 -24 -0.5t-5.5 16t19.5 17.5q32 10 312 121q-30 44 -68.5 73t-74 39t-71 14t-59.5 -3q-37 -7 -47 17q-9 20 13 35q14 8 34 9q76 2 159.5 -42t149.5 -128q157 63 217 84zM315 23q131 -36 272 122q124 138 200 354
q78 221 52 371q-23 133 -128 152q-129 24 -269 -133q-127 -141 -202 -353q-78 -221 -47 -368q25 -118 122 -145z" />
    <glyph glyph-name="ntilde" unicode="&#xf1;" horiz-adv-x="1110" 
d="M463 1202q-20 0 -33.5 16t-13.5 39q0 61 48 101.5t124 40.5q42 0 83.5 -19.5t70 -43t68.5 -43t79 -19.5q73 0 113 35.5t40 83.5q20 0 36 -14.5t16 -35.5q0 -63 -49 -103t-121 -40q-33 0 -77.5 19t-81 42.5t-81 42.5t-78.5 19q-73 0 -108 -36.5t-35 -84.5zM838 662
q55 142 63 198q18 134 -108 135q-51 0 -114.5 -44.5t-118.5 -109t-98.5 -132t-62.5 -117.5q-131 -337 -206 -524q-12 -35 -48 -50q-36 -16 -79 -30q-10 -3 -16.5 2t-2.5 18q1 3 42.5 110t90.5 234t98 255t64 171q34 94 26 154.5t-63 60.5q-25 0 -57 -22.5t-60.5 -56.5
t-43 -53t-23.5 -32q-5 -7 -12.5 -6.5t-10.5 6t2 13.5q13 20 31.5 43.5t58.5 68.5t88 74t91 29q57 0 85 -36t27 -89t-9.5 -96.5t-20.5 -75.5h6q54 99 171.5 197t221.5 98q64 0 104.5 -23.5t54 -57t13.5 -77t-7.5 -74.5t-17.5 -59q-20 -54 -103.5 -265.5t-90.5 -228.5
q-41 -105 -33 -153q9 -58 78 -58q37 0 70 17t57 45t39.5 52.5t25.5 49.5q7 14 16 13q8 -2 3 -17q-4 -13 -13 -34.5t-31.5 -58.5t-48.5 -67t-66.5 -52.5t-84.5 -22.5q-148 0 -157 116q-7 89 76 301q14 36 44 110q40 100 60 151z" />
    <glyph glyph-name="ograve" unicode="&#xf2;" horiz-adv-x="970" 
d="M440 -12q-107 0 -173.5 51t-86.5 130t-15 175t33.5 187t66 164t75.5 108q2 2 5 3t5 0t2 -5q10 -41 47 -78q19 -19 2 -37q-61 -97 -97.5 -214t-41 -219.5t40.5 -171.5t137 -69q63 0 123.5 38t111 104.5t92 146t77.5 174.5q43 112 62 208t13 174.5t-50.5 123.5t-125.5 45
q-66 0 -123 -34t-57 -87q0 -15 8.5 -38t8.5 -40q0 -37 -27.5 -65.5t-65.5 -28.5t-64 27.5t-26 66.5q0 74 104 150t244 76q181 0 244 -155q57 -141 0 -353q-57 -209 -190 -365q-152 -178 -333 -191zM930 1626q-61 -37 -92 -73.5t-34.5 -69.5t2 -61t14 -60.5t5.5 -54.5
q-5 -46 -31.5 -63t-56.5 -15q-22 0 -50 19.5t-28 56.5q-1 56 26.5 113t70 101.5t83 76.5t76.5 51q19 9 24 -3q4 -11 -9 -18z" />
    <glyph glyph-name="oacute" unicode="&#xf3;" horiz-adv-x="970" 
d="M750 1241q61 37 92 73.5t34.5 69.5t-2 61t-14 61t-6.5 55q5 46 32 62.5t56 14.5q22 0 50.5 -19t29.5 -56q1 -56 -27 -113t-70.5 -101.5t-83.5 -76.5t-77 -51q-17 -10 -22.5 1t8.5 19zM440 -12q-107 0 -173.5 51t-86.5 130t-15 175t33.5 187t66 164t75.5 108q2 2 5 3t5 0
t2 -5q10 -41 47 -78q19 -19 2 -37q-61 -97 -97.5 -214t-41 -219.5t40.5 -171.5t137 -69q63 0 123.5 38t111 104.5t92 146t77.5 174.5q43 112 62 208t13 174.5t-50.5 123.5t-125.5 45q-66 0 -123 -34t-57 -87q0 -15 8.5 -38t8.5 -40q0 -37 -27.5 -65.5t-65.5 -28.5t-64 27.5
t-26 66.5q0 74 104 150t244 76q181 0 244 -155q57 -141 0 -353q-57 -209 -190 -365q-152 -178 -333 -191z" />
    <glyph glyph-name="ocircumflex" unicode="&#xf4;" horiz-adv-x="970" 
d="M440 -12q-107 0 -173.5 51t-86.5 130t-15 175t33.5 187t66 164t75.5 108q2 2 5 3t5 0t2 -5q10 -41 47 -78q19 -19 2 -37q-61 -97 -97.5 -214t-41 -219.5t40.5 -171.5t137 -69q63 0 123.5 38t111 104.5t92 146t77.5 174.5q43 112 62 208t13 174.5t-50.5 123.5t-125.5 45
q-66 0 -123 -34t-57 -87q0 -15 8.5 -38t8.5 -40q0 -37 -27.5 -65.5t-65.5 -28.5t-64 27.5t-26 66.5q0 74 104 150t244 76q181 0 244 -155q57 -141 0 -353q-57 -209 -190 -365q-152 -178 -333 -191zM709 1583h18q35 -57 103.5 -172.5t103.5 -173.5h-109q-92 147 -153 233
q-54 -45 -149 -122.5t-134 -110.5h-61q81 75 227 207t154 139z" />
    </font>
</defs>
</svg>
